<?xml version="1.0" encoding="UTF-8" standalone="no"?>
<!-- Created with Inkscape (http://www.inkscape.org/) -->

<svg
   xmlns:dc="http://purl.org/dc/elements/1.1/"
   xmlns:cc="http://creativecommons.org/ns#"
   xmlns:rdf="http://www.w3.org/1999/02/22-rdf-syntax-ns#"
   xmlns:svg="http://www.w3.org/2000/svg"
   xmlns="http://www.w3.org/2000/svg"
   xmlns:sodipodi="http://sodipodi.sourceforge.net/DTD/sodipodi-0.dtd"
   xmlns:inkscape="http://www.inkscape.org/namespaces/inkscape"
   width="400"
   height="298"
   id="svg14237"
   version="1.1"
   inkscape:version="0.48.5 r10040"
   sodipodi:docname="app.svg">
  <defs
     id="defs14239" />
  <sodipodi:namedview
     id="base"
     pagecolor="#ffffff"
     bordercolor="#666666"
     borderopacity="1.0"
     inkscape:pageopacity="0.0"
     inkscape:pageshadow="2"
     inkscape:zoom="0.81212839"
     inkscape:cx="-108.42178"
     inkscape:cy="24.857142"
     inkscape:current-layer="layer1"
     showgrid="true"
     inkscape:grid-bbox="true"
     inkscape:document-units="px"
     inkscape:window-width="1440"
     inkscape:window-height="855"
     inkscape:window-x="0"
     inkscape:window-y="1"
     inkscape:window-maximized="1" />
  <metadata
     id="metadata14242">
    <rdf:RDF>
      <cc:Work
         rdf:about="">
        <dc:format>image/svg+xml</dc:format>
        <dc:type
           rdf:resource="http://purl.org/dc/dcmitype/StillImage" />
        <dc:title></dc:title>
      </cc:Work>
    </rdf:RDF>
  </metadata>
  <g
     id="layer1"
     inkscape:label="Layer 1"
     inkscape:groupmode="layer"
     transform="translate(0,250)">
    <g
       style="fill:#c8c8c8;fill-opacity:1;stroke:#787878;stroke-opacity:1"
       inkscape:export-ydpi="89.999992"
       inkscape:export-xdpi="89.999992"
       id="g6164-5-1"
       transform="matrix(0.77024355,0,0,0.77024355,817.07127,-296.01757)">
      <path
         style="fill:#e6e6e6;fill-opacity:1;stroke:none"
         d="m -145.625,-388.75 c -31.86138,0 -57.53125,25.66987 -57.53125,57.53125 l 0,338.65625 400,0 0,-338.65625 c 0,-31.86138 -25.63862,-57.53125 -57.5,-57.53125 l -284.96875,0 z"
         transform="matrix(0.97371799,0,0,0.97371799,-798.06456,439.39277)"
         id="rect5630-6-9-0"
         inkscape:connector-curvature="0" />
      <path
         style="fill:#000000;fill-opacity:1;stroke:none"
         d="m -145.34375,-382.28125 c -28.44766,0 -51.34375,22.89609 -51.34375,51.34375 l 0,338.375 387.09375,0 0,-338.375 c 0,-28.44766 -22.89609,-51.34375 -51.34375,-51.34375 l -284.40625,0 z"
         transform="matrix(0.97371799,0,0,0.97371799,-798.06456,439.39277)"
         id="rect5630-6-1"
         inkscape:connector-curvature="0" />
      <path
         style="fill:#333333;fill-opacity:1;stroke:none"
         d="m -178.15625,-286.0625 0,293.5 350.03125,0 0,-293.5 -350.03125,0 z"
         transform="matrix(0.97371799,0,0,0.97371799,-798.06456,439.39277)"
         id="rect5630-2-3-9"
         inkscape:connector-curvature="0" />
      <path
         sodipodi:type="arc"
         style="fill:#333333;fill-opacity:1;stroke:none"
         id="path6160-3-6"
         sodipodi:cx="-860.11835"
         sodipodi:cy="116.62722"
         sodipodi:rx="10.887574"
         sodipodi:ry="10.887574"
         d="m -849.23077,116.62722 c 0,6.01304 -4.87454,10.88757 -10.88758,10.88757 -6.01304,0 -10.88757,-4.87453 -10.88757,-10.88757 0,-6.01304 4.87453,-10.88757 10.88757,-10.88757 6.01304,0 10.88758,4.87453 10.88758,10.88757 z"
         transform="matrix(0.69565218,0,0,0.69565218,-265.08875,32.858921)" />
      <rect
         style="fill:#333333;fill-opacity:1;stroke:none"
         id="rect6162-8-1"
         width="62.485207"
         height="6.6272187"
         x="-832.36743"
         y="110.67729"
         ry="3.3136094" />
      <g
         inkscape:export-ydpi="80.775002"
         inkscape:export-xdpi="80.775002"
         inkscape:export-filename="/Users/bdharva/Dropbox/Jolt/Administrative/Support/Techstars/Graphics/screen2.png"
         id="g4133-8-8-1"
         transform="matrix(0.98833611,0,0,0.98833611,-67.704522,325.74095)">
        <g
           transform="matrix(1.0577875,0,0,1.0577875,-1909.7115,-445.87489)"
           id="g3639-6-8-9"
           inkscape:export-filename="/Users/bdharva/Dropbox/Jolt/Software/website/assets/screen1.png"
           inkscape:export-xdpi="90"
           inkscape:export-ydpi="90">
          <path
             style="fill:#e6e6e6;fill-opacity:1;stroke:none"
             d="m -173.5,-196.5625 c -0.78669,0 -1.4375,0.65081 -1.4375,1.4375 l 0,202.5625 343.59375,0 0,-202.5625 c 0,-0.78669 -0.65081,-1.4375 -1.4375,-1.4375 l -340.71875,0 z"
             transform="matrix(0.93138684,0,0,0.93138684,1106.7744,530.22746)"
             id="rect3109-1-5-2-11-2-7"
             inkscape:connector-curvature="0" />
          <g
             transform="translate(-52.879089,7.6821899)"
             id="g3318-3-1-3-3">
            <rect
               style="fill:#ffffff;fill-opacity:1;stroke:none"
               id="rect3109-1-5-1-7-0-8-7"
               width="300"
               height="80"
               x="1006.7262"
               y="349.47449"
               ry="0.24541746" />
            <g
               transform="translate(20,2.4921875)"
               id="g3358-6-4-9-2">
              <text
                 xml:space="preserve"
                 style="font-size:22px;font-style:normal;font-variant:normal;font-weight:500;font-stretch:normal;text-align:justify;line-height:129.99999523%;letter-spacing:0px;word-spacing:0px;writing-mode:lr-tb;text-anchor:start;fill:#ec5d57;fill-opacity:1;stroke:none;font-family:Roboto;-inkscape-font-specification:Roboto Medium"
                 x="1006.5543"
                 y="385.11511"
                 id="text3333-0-4-6-5"
                 sodipodi:linespacing="130%"><tspan
                   sodipodi:role="line"
                   id="tspan3335-8-1-3-7"
                   x="1006.5543"
                   y="385.11511">Tyler Smith</tspan></text>
              <text
                 xml:space="preserve"
                 style="font-size:22px;font-style:normal;font-variant:normal;font-weight:500;font-stretch:normal;text-align:justify;line-height:129.99999523%;letter-spacing:0px;word-spacing:0px;writing-mode:lr-tb;text-anchor:start;fill:#ec5d57;fill-opacity:1;stroke:none;font-family:Roboto;-inkscape-font-specification:Roboto Medium"
                 x="1007.751"
                 y="404.49011"
                 id="text3333-7-8-2-3-5"
                 sodipodi:linespacing="130%"><tspan
                   sodipodi:role="line"
                   id="tspan3335-5-8-9-0-6"
                   x="1007.751"
                   y="404.49011"
                   style="font-size:16px;font-style:normal;font-variant:normal;font-weight:normal;font-stretch:normal;text-align:justify;line-height:129.99999523%;writing-mode:lr-tb;text-anchor:start;fill:#ec5d57;fill-opacity:1;font-family:Roboto;-inkscape-font-specification:Roboto">Evaluate Now</tspan></text>
            </g>
            <path
               sodipodi:type="arc"
               style="fill:#ec5d57;fill-opacity:1;stroke:none"
               id="path2987-44-28-1-7-5-7-8-6-17-4"
               sodipodi:cx="193.49146"
               sodipodi:cy="341.71686"
               sodipodi:rx="27.5786"
               sodipodi:ry="27.5786"
               d="m 221.07006,341.71686 c 0,15.23124 -12.34736,27.5786 -27.5786,27.5786 -15.23125,0 -27.5786,-12.34736 -27.5786,-27.5786 0,-15.23124 12.34735,-27.5786 27.5786,-27.5786 15.23124,0 27.5786,12.34736 27.5786,27.5786 z"
               transform="matrix(1.0878,0,0,1.0878,1056.2462,17.754894)" />
            <g
               transform="translate(898.21485,328.4809)"
               id="g6458-6-9-5-4-6-6">
              <rect
                 style="fill:#ffffff;fill-opacity:1;stroke:none"
                 id="rect6438-4-9-4-3-5-3"
                 width="3"
                 height="16"
                 x="367.01135"
                 y="52.993587" />
              <rect
                 style="fill:#ffffff;fill-opacity:1;stroke:none"
                 id="rect6438-3-3-4-8-7-5-1"
                 width="3"
                 height="16"
                 x="59.493587"
                 y="-376.51135"
                 transform="matrix(0,1,-1,0,0,0)" />
            </g>
          </g>
          <g
             transform="translate(-52.879089,97.68219)"
             id="g3318-1-5-0-4">
            <rect
               style="fill:#ffffff;fill-opacity:1;stroke:none"
               id="rect3109-1-5-1-1-6-3-7"
               width="300"
               height="80"
               x="1006.7262"
               y="349.47449"
               ry="0.24541746" />
            <path
               sodipodi:type="arc"
               style="fill:#e6e6e6;fill-opacity:1;stroke:none"
               id="path2987-44-28-1-7-5-7-8-6-7-7-6-2"
               sodipodi:cx="193.49146"
               sodipodi:cy="341.71686"
               sodipodi:rx="27.5786"
               sodipodi:ry="27.5786"
               d="m 221.07006,341.71686 c 0,15.23124 -12.34736,27.5786 -27.5786,27.5786 -15.23125,0 -27.5786,-12.34736 -27.5786,-27.5786 0,-15.23124 12.34735,-27.5786 27.5786,-27.5786 15.23124,0 27.5786,12.34736 27.5786,27.5786 z"
               transform="matrix(1.0878,0,0,1.0878,1056.2462,17.754894)" />
            <g
               transform="translate(20,2.4921875)"
               id="g3358-7-1-0-2">
              <text
                 xml:space="preserve"
                 style="font-size:22px;font-style:normal;font-variant:normal;font-weight:500;font-stretch:normal;text-align:justify;line-height:129.99999523%;letter-spacing:0px;word-spacing:0px;writing-mode:lr-tb;text-anchor:start;fill:#4d4d4d;fill-opacity:1;stroke:none;font-family:Roboto;-inkscape-font-specification:Roboto Medium"
                 x="1006.5543"
                 y="385.11511"
                 id="text3333-9-9-8-8"
                 sodipodi:linespacing="130%"><tspan
                   sodipodi:role="line"
                   id="tspan3335-6-9-2-5"
                   x="1006.5543"
                   y="385.11511">Daniel Ward</tspan></text>
              <text
                 xml:space="preserve"
                 style="font-size:22px;font-style:normal;font-variant:normal;font-weight:500;font-stretch:normal;text-align:justify;line-height:129.99999523%;letter-spacing:0px;word-spacing:0px;writing-mode:lr-tb;text-anchor:start;fill:#666666;fill-opacity:1;stroke:none;font-family:Roboto;-inkscape-font-specification:Roboto Medium"
                 x="1007.751"
                 y="404.49011"
                 id="text3333-7-4-7-1-6"
                 sodipodi:linespacing="130%"><tspan
                   sodipodi:role="line"
                   id="tspan3335-5-0-9-8-5"
                   x="1007.751"
                   y="404.49011"
                   style="font-size:16px;font-style:normal;font-variant:normal;font-weight:normal;font-stretch:normal;text-align:justify;line-height:129.99999523%;writing-mode:lr-tb;text-anchor:start;fill:#666666;font-family:Roboto;-inkscape-font-specification:Roboto">20% above average</tspan></text>
            </g>
            <text
               xml:space="preserve"
               style="font-size:22px;font-style:normal;font-variant:normal;font-weight:bold;font-stretch:normal;text-align:center;line-height:129.99999523%;letter-spacing:0px;word-spacing:0px;writing-mode:lr-tb;text-anchor:middle;fill:#4d4d4d;fill-opacity:1;stroke:none;font-family:Roboto;-inkscape-font-specification:Roboto Bold"
               x="1266.7316"
               y="397.2948"
               id="text3333-9-9-8-2-7"
               sodipodi:linespacing="130%"><tspan
                 style="font-size:22px;font-style:normal;font-variant:normal;font-weight:bold;font-stretch:normal;text-align:center;line-height:129.99999523%;writing-mode:lr-tb;text-anchor:middle;font-family:Roboto;-inkscape-font-specification:Roboto Bold"
                 sodipodi:role="line"
                 id="tspan3335-6-9-2-4-8"
                 x="1266.7316"
                 y="397.2948">12</tspan></text>
          </g>
          <rect
             style="fill:#3c4b5a;fill-opacity:1;stroke:none"
             id="rect3109-1-5-2-1-0-4-8"
             width="320"
             height="80"
             x="943.84711"
             y="267.15668"
             ry="0.24541745" />
          <g
             transform="translate(-392.8703,23.207001)"
             id="g3579-0-8-1">
            <rect
               y="247.94966"
               x="1336.7174"
               height="16"
               width="320"
               id="rect2985-8-6-63-1-8"
               style="fill:#505f6e;fill-opacity:1;stroke:none" />
            <rect
               y="263.94968"
               x="1336.7174"
               height="60"
               width="320"
               id="rect2985-8-3-7-7-9-5"
               style="fill:#505f6e;fill-opacity:1;stroke:none" />
            <rect
               y="247.94966"
               x="1336.7174"
               height="76"
               width="320"
               id="rect2985-8-3-4-1-32-8-7"
               style="fill:#3c4b5a;fill-opacity:1;stroke:none" />
            <text
               sodipodi:linespacing="130%"
               id="text5399-3-1-8-1-1-2"
               y="300.71286"
               x="1496.9723"
               style="font-size:18px;font-style:normal;font-variant:normal;font-weight:500;font-stretch:normal;text-align:center;line-height:129.99999523%;letter-spacing:0px;word-spacing:0px;writing-mode:lr-tb;text-anchor:middle;fill:#f9f9f9;fill-opacity:1;stroke:none;font-family:Roboto;-inkscape-font-specification:Roboto Medium"
               xml:space="preserve"><tspan
                 style="font-size:18px;font-style:normal;font-variant:normal;font-weight:500;font-stretch:normal;text-align:center;line-height:129.99999523%;writing-mode:lr-tb;text-anchor:middle;font-family:Roboto;-inkscape-font-specification:Roboto Medium"
                 y="300.71286"
                 x="1496.9723"
                 id="tspan5401-8-8-5-9-9-4"
                 sodipodi:role="line">Dashboard</tspan></text>
            <g
               transform="translate(1248.2061,232.15892)"
               id="g6458-6-1-4-3">
              <rect
                 style="fill:#ffffff;fill-opacity:1;stroke:none"
                 id="rect6438-4-1-7-9"
                 width="3"
                 height="16"
                 x="367.01135"
                 y="52.993587" />
              <rect
                 style="fill:#ffffff;fill-opacity:1;stroke:none"
                 id="rect6438-3-3-9-5-3"
                 width="3"
                 height="16"
                 x="59.493587"
                 y="-376.51135"
                 transform="matrix(0,1,-1,0,0,0)" />
            </g>
            <g
               id="g4203-4-6"
               transform="matrix(1.2846715,0,0,1.2846715,1958.3524,-245.53207)"
               style="fill:#c8c8c8;fill-opacity:1;stroke:#787878;stroke-opacity:1">
              <path
                 style="fill:#32c864;fill-opacity:1;stroke:none"
                 d="m -453.75,439.9375 c -3.878,0 -7.37575,1.56325 -9.90625,4.09375 l 2.8125,2.84375 0.0312,0 c 1.80623,-1.79805 4.30071,-2.9375 7.0625,-2.9375 l 2,0 c 2.77,0 5.255,1.13 7.0625,2.9375 l 2.84375,-2.84375 c -2.5305,-2.5305 -6.02825,-4.09375 -9.90625,-4.09375 l -2,0 z m -7.09375,23.09375 -2.8125,2.8125 c 2.5305,2.5305 6.02825,4.09375 9.90625,4.09375 l 2,0 c 3.878,0 7.37575,-1.56325 9.90625,-4.09375 l -2.84375,-2.8125 c -1.8075,1.8075 -4.2925,2.90625 -7.0625,2.90625 l -2,0 c -2.77,0 -5.28625,-1.09875 -7.09375,-2.90625 z"
                 transform="translate(0,-35)"
                 id="rect8169-8-5-2-7-9-1-2-2"
                 inkscape:connector-curvature="0" />
              <path
                 style="fill:#ffffff;fill-opacity:1;stroke:none"
                 d="m -453.75,445.9375 c -4.432,0 -8,3.568 -8,8 l 0,2 c 0,4.432 3.568,8 8,8 l 2,0 c 4.432,0 8,-3.568 8,-8 l 0,-2 c 0,-4.432 -3.568,-8 -8,-8 l -2,0 z m 0,4 2,0 c 2.216,0 4,1.784 4,4 l 0,2 c 0,2.216 -1.784,4 -4,4 l -2,0 c -2.216,0 -4,-1.784 -4,-4 l 0,-2 c 0,-2.216 1.784,-4 4,-4 z"
                 transform="translate(0,-35)"
                 id="rect8169-8-6-0-6-1"
                 inkscape:connector-curvature="0" />
            </g>
          </g>
        </g>
      </g>
    </g>
  </g>
</svg>
