<?xml version="1.0" encoding="UTF-8" standalone="no"?>
<!-- Created with Inkscape (http://www.inkscape.org/) -->

<svg
   xmlns:dc="http://purl.org/dc/elements/1.1/"
   xmlns:cc="http://creativecommons.org/ns#"
   xmlns:rdf="http://www.w3.org/1999/02/22-rdf-syntax-ns#"
   xmlns:svg="http://www.w3.org/2000/svg"
   xmlns="http://www.w3.org/2000/svg"
   xmlns:sodipodi="http://sodipodi.sourceforge.net/DTD/sodipodi-0.dtd"
   xmlns:inkscape="http://www.inkscape.org/namespaces/inkscape"
   width="64px"
   height="64px"
   id="svg14452"
   version="1.1"
   inkscape:version="0.48.5 r10040"
   sodipodi:docname="facebook.svg">
  <defs
     id="defs14454" />
  <sodipodi:namedview
     id="base"
     pagecolor="#ffffff"
     bordercolor="#666666"
     borderopacity="1.0"
     inkscape:pageopacity="0.0"
     inkscape:pageshadow="2"
     inkscape:zoom="10.453125"
     inkscape:cx="32"
     inkscape:cy="32"
     inkscape:current-layer="layer1"
     showgrid="true"
     inkscape:document-units="px"
     inkscape:grid-bbox="true"
     inkscape:window-width="1440"
     inkscape:window-height="855"
     inkscape:window-x="0"
     inkscape:window-y="1"
     inkscape:window-maximized="1" />
  <metadata
     id="metadata14457">
    <rdf:RDF>
      <cc:Work
         rdf:about="">
        <dc:format>image/svg+xml</dc:format>
        <dc:type
           rdf:resource="http://purl.org/dc/dcmitype/StillImage" />
        <dc:title />
      </cc:Work>
    </rdf:RDF>
  </metadata>
  <g
     id="layer1"
     inkscape:label="Layer 1"
     inkscape:groupmode="layer">
    <rect
       style="fill:#3765a3;fill-opacity:1;stroke:none"
       id="rect14475"
       width="64"
       height="64"
       x="0"
       y="0"
       rx="16" />
    <path
       style="fill:#ffffff;fill-opacity:1"
       d="m 28.523515,40 0,-8 -1.99361,0 -1.99361,0 0,-2.76038 0,-2.76039 1.99361,0 1.99361,0 0,-1.98339 c 0,-2.61363 0.0583,-3.39528 0.33639,-4.50862 0.52667,-2.10865 1.81292,-3.34702 3.90642,-3.761 C 33.795125,16.02277 34.207835,16 36.865755,16 l 2.59795,0 -0.0132,2.7476 -0.0132,2.74761 -1.78914,0.0307 c -1.81405,0.0311 -2.04524,0.0547 -2.41988,0.2468 -0.23155,0.11876 -0.37414,0.27093 -0.52169,0.55675 -0.1491,0.28885 -0.19538,0.92908 -0.19925,2.75685 l -0.003,1.39297 2.47923,0 c 2.05677,0 2.47924,0.0118 2.47924,0.0695 0,0.0383 -0.0338,0.37755 -0.0751,0.754 -0.0413,0.37644 -0.14511,1.35153 -0.23065,2.16687 -0.0855,0.81533 -0.18257,1.71821 -0.21565,2.00639 L 38.881315,32 l -2.18846,0 -2.18845,0 0,8 0,8 -2.99041,0 -2.99042,0 0,-8 z"
       id="path15015"
       inkscape:connector-curvature="0" />
  </g>
</svg>
