<?xml version="1.0" encoding="UTF-8" standalone="no"?>
<!-- Created with Inkscape (http://www.inkscape.org/) -->

<svg
   xmlns:dc="http://purl.org/dc/elements/1.1/"
   xmlns:cc="http://creativecommons.org/ns#"
   xmlns:rdf="http://www.w3.org/1999/02/22-rdf-syntax-ns#"
   xmlns:svg="http://www.w3.org/2000/svg"
   xmlns="http://www.w3.org/2000/svg"
   xmlns:sodipodi="http://sodipodi.sourceforge.net/DTD/sodipodi-0.dtd"
   xmlns:inkscape="http://www.inkscape.org/namespaces/inkscape"
   width="64px"
   height="64px"
   id="svg2985"
   version="1.1"
   inkscape:version="0.48.5 r10040"
   sodipodi:docname="instagram.svg">
  <defs
     id="defs2987" />
  <sodipodi:namedview
     id="base"
     pagecolor="#ffffff"
     bordercolor="#666666"
     borderopacity="1.0"
     inkscape:pageopacity="0.0"
     inkscape:pageshadow="2"
     inkscape:zoom="5.1953125"
     inkscape:cx="32"
     inkscape:cy="28.150376"
     inkscape:current-layer="layer1"
     showgrid="true"
     inkscape:document-units="px"
     inkscape:grid-bbox="true"
     inkscape:window-width="1440"
     inkscape:window-height="851"
     inkscape:window-x="0"
     inkscape:window-y="0"
     inkscape:window-maximized="1" />
  <metadata
     id="metadata2990">
    <rdf:RDF>
      <cc:Work
         rdf:about="">
        <dc:format>image/svg+xml</dc:format>
        <dc:type
           rdf:resource="http://purl.org/dc/dcmitype/StillImage" />
        <dc:title></dc:title>
      </cc:Work>
    </rdf:RDF>
  </metadata>
  <g
     id="layer1"
     inkscape:label="Layer 1"
     inkscape:groupmode="layer">
    <path
       style="fill:#ffffff"
       d="m 22.5423,43.992017 c -0.01547,0 -0.06821,-0.008 -0.117204,-0.01333 -0.715028,-0.0802 -1.416348,-0.484419 -1.862299,-1.073308 -0.288198,-0.380615 -0.461244,-0.793764 -0.539894,-1.288917 l -0.0216,-0.135938 0,-9.4795 c 0,-9.105486 6.67e-4,-9.483967 0.017,-9.592038 0.0093,-0.062 0.0276,-0.163006 0.0406,-0.224675 0.170967,-0.811832 0.720695,-1.520459 1.471844,-1.897274 0.26187,-0.131338 0.51222,-0.210274 0.847453,-0.26701 l 0.117204,-0.02 9.409177,0 c 6.875406,0 9.445786,-4.66e-4 9.545129,0.0073 1.084022,0.0836 2.020512,0.800898 2.392913,1.832937 0.04887,0.135472 0.104444,0.354281 0.131165,0.516554 l 0.02147,0.130405 0.0027,9.442032 c 0.002,6.9186 1e-4,9.473166 -0.0076,9.558703 -0.08404,0.933369 -0.642732,1.762401 -1.486031,2.204951 -0.304218,0.159673 -0.655252,0.263811 -1.006605,0.298745 -0.06594,0.0067 -3.118534,0.0093 -9.512315,0.008 -5.178367,0 -9.427871,0 -9.443345,-0.0067 z m 17.861964,-2.769641 c 0.43215,-0.04867 0.75815,-0.367547 0.820065,-0.801364 0.006,-0.04333 0.0094,-1.82027 0.0095,-5.168667 l 1.93e-4,-5.10313 -1.0461,0 c -1.014766,0 -1.045927,5.33e-4 -1.040574,0.01733 0.01573,0.05 0.08316,0.35588 0.111758,0.507753 0.08973,0.476418 0.122771,0.835432 0.122518,1.331385 -1.8e-4,0.347146 -0.0091,0.52222 -0.04167,0.813031 -0.15838,1.415788 -0.721241,2.752773 -1.621176,3.851016 -0.444444,0.542421 -0.978278,1.033906 -1.5399,1.417788 -0.465378,0.318079 -0.930736,0.566488 -1.447342,0.772696 -1.696699,0.677026 -3.590459,0.698227 -5.308939,0.05934 -1.30045,-0.483352 -2.427441,-1.318318 -3.293874,-2.440294 -0.278818,-0.361014 -0.59917,-0.882501 -0.789911,-1.285784 -0.609337,-1.288383 -0.837732,-2.663503 -0.671979,-4.045889 0.0336,-0.280411 0.110238,-0.689494 0.1822,-0.972838 l 0.0067,-0.026 -1.041833,0 -1.041841,0 2.07e-4,5.133532 c 2.27e-4,5.501279 -0.0027,5.1704 0.04313,5.311539 0.02613,0.0808 0.105024,0.222275 0.16348,0.293078 0.155299,0.188007 0.396542,0.313478 0.641825,0.333746 0.0206,0 3.786406,0.0067 8.368397,0.0067 5.61601,0 8.358396,0 8.415278,-0.008 z m -7.904272,-4.635712 c 0.775717,-0.0908 1.430822,-0.33048 2.07218,-0.758096 0.263964,-0.176074 0.450504,-0.329946 0.689453,-0.568889 0.231416,-0.231476 0.389582,-0.421816 0.557222,-0.670759 0.43127,-0.640292 0.675033,-1.300851 0.769903,-2.086214 0.0232,-0.191741 0.0286,-0.681893 0.0099,-0.892701 -0.0526,-0.592557 -0.191927,-1.10291 -0.440937,-1.615463 -0.106704,-0.219675 -0.174287,-0.33808 -0.311392,-0.545754 -0.160773,-0.243543 -0.240303,-0.345014 -0.456491,-0.58249 -0.509553,-0.559688 -1.200833,-1.006038 -1.940328,-1.252781 -0.675193,-0.225276 -1.461304,-0.287945 -2.175504,-0.173407 -0.366988,0.05867 -0.643899,0.134405 -0.979112,0.26721 -0.479158,0.189874 -0.95357,0.480086 -1.330778,0.814098 -0.141632,0.125339 -0.352413,0.33708 -0.467765,0.469819 -0.240829,0.277144 -0.493552,0.663692 -0.657938,1.006239 -0.287611,0.599423 -0.433884,1.21398 -0.450071,1.891073 -0.0218,0.912835 0.208941,1.764001 0.688933,2.541031 0.60145,0.973571 1.563681,1.698933 2.669403,2.012145 0.230776,0.06534 0.556875,0.125805 0.801678,0.148539 0.05927,0.0067 0.124705,0.012 0.145332,0.014 0.100604,0.01 0.682607,0 0.806365,-0.01733 z m 7.93368,-9.213623 c 0.414316,-0.05734 0.741229,-0.390615 0.790837,-0.805565 0.0077,-0.064 0.0098,-0.501952 0.0077,-1.551793 l -0.0027,-1.462723 -0.02467,-0.08914 C 41.114159,23.135741 40.88882,22.902798 40.56382,22.801128 l -0.08439,-0.02667 -1.551786,0 -1.551787,0 -0.07501,0.02133 c -0.15868,0.04534 -0.3415,0.156139 -0.441164,0.266944 -0.113805,0.126471 -0.191668,0.282077 -0.230989,0.461618 -0.0099,0.04534 -0.01233,0.350413 -0.01233,1.547126 0,1.652531 -0.004,1.546793 0.061,1.7146 0.119358,0.309345 0.405076,0.539887 0.726615,0.586289 0.08602,0.01267 2.940761,0.01267 3.029844,2e-4 z"
       id="path3857"
       inkscape:connector-curvature="0" />
  </g>
</svg>
