<?xml version="1.0" encoding="UTF-8" standalone="no"?>
<!-- Created with Inkscape (http://www.inkscape.org/) -->

<svg
   xmlns:dc="http://purl.org/dc/elements/1.1/"
   xmlns:cc="http://creativecommons.org/ns#"
   xmlns:rdf="http://www.w3.org/1999/02/22-rdf-syntax-ns#"
   xmlns:svg="http://www.w3.org/2000/svg"
   xmlns="http://www.w3.org/2000/svg"
   xmlns:sodipodi="http://sodipodi.sourceforge.net/DTD/sodipodi-0.dtd"
   xmlns:inkscape="http://www.inkscape.org/namespaces/inkscape"
   width="64px"
   height="64px"
   id="svg14452"
   version="1.1"
   inkscape:version="0.48.5 r10040"
   sodipodi:docname="facebook.svg">
  <defs
     id="defs14454" />
  <sodipodi:namedview
     id="base"
     pagecolor="#ffffff"
     bordercolor="#666666"
     borderopacity="1.0"
     inkscape:pageopacity="0.0"
     inkscape:pageshadow="2"
     inkscape:zoom="10.453125"
     inkscape:cx="32"
     inkscape:cy="32"
     inkscape:current-layer="layer1"
     showgrid="true"
     inkscape:document-units="px"
     inkscape:grid-bbox="true"
     inkscape:window-width="1440"
     inkscape:window-height="855"
     inkscape:window-x="0"
     inkscape:window-y="1"
     inkscape:window-maximized="1" />
  <metadata
     id="metadata14457">
    <rdf:RDF>
      <cc:Work
         rdf:about="">
        <dc:format>image/svg+xml</dc:format>
        <dc:type
           rdf:resource="http://purl.org/dc/dcmitype/StillImage" />
        <dc:title></dc:title>
      </cc:Work>
    </rdf:RDF>
  </metadata>
  <g
     id="layer1"
     inkscape:label="Layer 1"
     inkscape:groupmode="layer">
    <rect
       style="fill:#5459d1;fill-opacity:1;stroke:none"
       id="rect14475"
       width="64"
       height="64"
       x="0"
       y="0"
       rx="16" />
    <path
       style="fill:#ffffff"
       d="m 24.487667,47.899675 c -3.93841,-0.4054 -6.68433,-2.42682 -7.80791,-5.74782 -0.62858,-1.85796 -0.75929,-4.07696 -0.67404,-11.44365 0.0606,-5.23845 0.12916,-6.84602 0.32838,-7.70206 0.80201,-3.44606 3.19829,-5.84234 6.64435,-6.64435 1.41897,-0.33024 13.3732,-0.49766 16.15299,-0.22623 3.53287,0.34497 5.68555,1.48038 7.23634,3.81673 1.48962,2.24422 1.7364,4.29406 1.62738,13.51754 -0.0701,5.93244 -0.10569,6.60221 -0.41051,7.73111 -0.50691,1.87739 -1.10712,2.96879 -2.27487,4.13653 -1.1668,1.16681 -2.2566,1.76652 -4.13653,2.27632 -1.15201,0.3124 -1.71537,0.33817 -8.29242,0.37932 -3.88104,0.0243 -7.65796,-0.0178 -8.39316,-0.0934 z m 14.33576,-2.87888 c 2.21429,-0.19981 3.28426,-0.62528 4.41433,-1.75534 1.68413,-1.68413 1.90085,-2.96552 1.90085,-11.23898 0,-8.27346 -0.21672,-9.55485 -1.90085,-11.23898 -1.68725,-1.68725 -2.96343,-1.90338 -11.23898,-1.90338 -8.28049,0 -9.56225,0.21639 -11.24411,1.89825 -1.68186,1.68186 -1.89825,2.96362 -1.89825,11.24411 0,8.27555 0.21613,9.55173 1.90338,11.23898 1.09278,1.09277 2.22988,1.56678 4.18254,1.74354 1.94632,0.17617 11.96511,0.18469 13.88109,0.0118 z m -9.2627,-5.12492 c -1.844,-0.5896 -3.41324,-1.79542 -4.48661,-3.44756 -1.64914,-2.53839 -1.7,-6.15306 -0.12202,-8.67174 1.59002,-2.53791 4.08513,-3.92915 7.04668,-3.92915 2.93089,0 5.29849,1.28567 6.91897,3.75721 1.70985,2.60783 1.70985,6.23585 0,8.84368 -1.11194,1.69591 -2.64673,2.8725 -4.49017,3.44222 -1.33581,0.41283 -3.58468,0.4153 -4.86685,0.005 z m 4.76347,-3.0975 c 0.95862,-0.4959 1.99048,-1.53517 2.50867,-2.52667 0.31896,-0.61031 0.37711,-0.9568 0.37684,-2.24523 -3.2e-4,-1.33813 -0.052,-1.62114 -0.42461,-2.32542 -0.54024,-1.02102 -1.43988,-1.92066 -2.4609,-2.4609 -0.70447,-0.37275 -0.98692,-0.42428 -2.32542,-0.42428 -1.3513,0 -1.61813,0.0498 -2.36015,0.44024 -1.0625,0.55912 -1.85109,1.34771 -2.41021,2.41021 -0.39047,0.74202 -0.44024,1.00885 -0.44024,2.36015 0,1.33849 0.0515,1.62094 0.42428,2.32542 0.70212,1.32695 1.92441,2.36031 3.34296,2.82622 0.22051,0.0724 0.97828,0.10994 1.68392,0.0834 1.00237,-0.0377 1.45838,-0.13903 2.08486,-0.46311 z m 5.42471,-11.57585 c -0.97534,-0.43455 -1.39302,-1.58847 -0.92896,-2.5664 0.33424,-0.70437 0.94687,-1.05393 1.84707,-1.05393 0.54301,0 0.76586,0.10036 1.21077,0.54527 0.46257,0.46256 0.54527,0.65752 0.54527,1.28534 0,1.38764 -1.42941,2.3443 -2.67415,1.78972 z"
       id="path15058"
       inkscape:connector-curvature="0" />
  </g>
</svg>
