<?xml version="1.0" encoding="UTF-8" standalone="no"?>
<!-- Created with Inkscape (http://www.inkscape.org/) -->

<svg
   xmlns:dc="http://purl.org/dc/elements/1.1/"
   xmlns:cc="http://creativecommons.org/ns#"
   xmlns:rdf="http://www.w3.org/1999/02/22-rdf-syntax-ns#"
   xmlns:svg="http://www.w3.org/2000/svg"
   xmlns="http://www.w3.org/2000/svg"
   xmlns:sodipodi="http://sodipodi.sourceforge.net/DTD/sodipodi-0.dtd"
   xmlns:inkscape="http://www.inkscape.org/namespaces/inkscape"
   width="64px"
   height="64px"
   id="svg2985"
   version="1.1"
   inkscape:version="0.48.5 r10040"
   sodipodi:docname="instagram.svg">
  <defs
     id="defs2987" />
  <sodipodi:namedview
     id="base"
     pagecolor="#ffffff"
     bordercolor="#666666"
     borderopacity="1.0"
     inkscape:pageopacity="0.0"
     inkscape:pageshadow="2"
     inkscape:zoom="1.437699"
     inkscape:cx="278.58909"
     inkscape:cy="-23.844552"
     inkscape:current-layer="layer1"
     showgrid="true"
     inkscape:document-units="px"
     inkscape:grid-bbox="true"
     inkscape:window-width="1440"
     inkscape:window-height="851"
     inkscape:window-x="0"
     inkscape:window-y="0"
     inkscape:window-maximized="1" />
  <metadata
     id="metadata2990">
    <rdf:RDF>
      <cc:Work
         rdf:about="">
        <dc:format>image/svg+xml</dc:format>
        <dc:type
           rdf:resource="http://purl.org/dc/dcmitype/StillImage" />
        <dc:title></dc:title>
      </cc:Work>
    </rdf:RDF>
  </metadata>
  <g
     id="layer1"
     inkscape:label="Layer 1"
     inkscape:groupmode="layer">
    <path
       style="fill:#eb041d;fill-opacity:1"
       d="M 0.03148,32.03151 0.06298,0.063 32.03149,0.0315 64,0 64,32 64,64 32,64 0,64 z"
       id="path3004"
       inkscape:connector-curvature="0"
       sodipodi:nodetypes="ccccccccc" />
    <path
       style="fill:#ffffff;fill-opacity:1;stroke:none"
       d="m 32.00012,19.983694 c -1.40702,0 -1.70891,0.0224 -2.35654,0.16352 -3.73273,0.8135 -6.75803,3.1281 -8.39799,6.42673 -0.54194,1.09007 -0.84249,1.93763 -1.08867,3.07112 -0.13692,0.63045 -0.1568,0.94531 -0.1568,2.34087 0,1.39555 0.0199,1.71266 0.1568,2.3431 0.24592,1.1323 0.54718,1.97817 1.08867,3.06888 1.14378,2.30388 3.03586,4.19873 5.37391,5.37614 0.27564,0.13882 0.51619,0.25089 0.53313,0.25089 0.0169,0 0.0134,-0.12323 -0.007,-0.27329 -0.10007,-0.74609 0.11856,-2.0213 0.94979,-5.54638 l 0.82434,-3.4945 -0.15233,-0.45025 c -0.21655,-0.63876 -0.26462,-1.73103 -0.10752,-2.43718 0.21743,-0.97733 0.89227,-1.83758 1.61508,-2.05414 0.76141,-0.22812 1.52149,-0.005 1.87269,0.54882 0.49873,0.7864 0.45354,1.42028 -0.27104,3.80586 -0.38859,1.27936 -0.47297,1.64436 -0.47938,2.08773 -0.007,0.46543 0.0198,0.58342 0.19041,0.87363 0.73626,1.25247 2.49203,1.31593 3.70506,0.1344 1.11974,-1.09066 1.87717,-3.32219 1.86597,-5.50159 -0.01,-1.85891 -0.89097,-3.38312 -2.37223,-4.09931 -0.91078,-0.44036 -1.41642,-0.54207 -2.67911,-0.53761 -1.25183,0.004 -1.85403,0.13385 -2.79559,0.60034 -1.11556,0.55268 -1.95703,1.40739 -2.50663,2.5447 -0.45803,0.94783 -0.5747,1.46969 -0.57121,2.58055 0.003,1.03669 0.10254,1.40762 0.55105,2.07654 0.48644,0.72548 0.45926,0.5998 0.27553,1.36195 -0.0913,0.37855 -0.21305,0.73499 -0.27105,0.79299 -0.16425,0.16425 -0.45372,0.12494 -0.88258,-0.12097 -2.01143,-1.15333 -2.66254,-4.54284 -1.3978,-7.28019 1.006,-2.17735 2.99006,-3.75098 5.48591,-4.35244 2.51685,-0.60652 5.12254,-0.23121 7.00018,1.01027 0.55761,0.36868 1.47201,1.25143 1.85477,1.78757 0.41228,0.57747 0.85291,1.50847 1.04611,2.21542 0.20606,0.75399 0.2214,2.57921 0.0314,3.61993 -0.68783,3.76687 -3.16125,6.22444 -6.27889,6.23409 -1.00576,0.003 -2.11031,-0.44582 -2.69031,-1.09091 -0.20716,-0.23041 -0.33258,-0.32036 -0.35393,-0.25761 -0.0181,0.0532 -0.22582,0.85969 -0.46145,1.79205 -0.45532,1.80166 -0.67242,2.41022 -1.18947,3.31753 -0.17751,0.31149 -0.32257,0.58981 -0.32257,0.61826 0,0.0686 0.80991,0.26237 1.61284,0.38529 0.86719,0.13275 2.55374,0.13338 3.47658,0.002 1.39323,-0.198 2.58071,-0.58716 3.92682,-1.28804 1.00362,-0.52255 1.75983,-1.0771 2.69031,-1.97125 1.79637,-1.72622 2.95989,-3.82759 3.50346,-6.33041 0.13692,-0.63044 0.15904,-0.94755 0.15904,-2.3431 0,-1.39556 -0.0221,-1.71042 -0.15904,-2.34087 -0.38046,-1.75181 -1.17028,-3.52378 -2.1527,-4.82732 -0.68098,-0.90357 -1.89196,-2.08844 -2.7732,-2.71272 -1.22633,-0.86874 -2.94717,-1.60726 -4.5742,-1.96229 -0.63194,-0.13789 -0.94199,-0.15904 -2.34086,-0.15904 z"
       id="rect4095"
       inkscape:connector-curvature="0" />
  </g>
</svg>
