<?xml version="1.0" encoding="UTF-8" standalone="no"?>
<!-- Created with Inkscape (http://www.inkscape.org/) -->

<svg
   xmlns:dc="http://purl.org/dc/elements/1.1/"
   xmlns:cc="http://creativecommons.org/ns#"
   xmlns:rdf="http://www.w3.org/1999/02/22-rdf-syntax-ns#"
   xmlns:svg="http://www.w3.org/2000/svg"
   xmlns="http://www.w3.org/2000/svg"
   xmlns:sodipodi="http://sodipodi.sourceforge.net/DTD/sodipodi-0.dtd"
   xmlns:inkscape="http://www.inkscape.org/namespaces/inkscape"
   width="64px"
   height="64px"
   id="svg2985"
   version="1.1"
   inkscape:version="0.48.5 r10040"
   sodipodi:docname="linkedin.svg">
  <defs
     id="defs2987" />
  <sodipodi:namedview
     id="base"
     pagecolor="#ffffff"
     bordercolor="#666666"
     borderopacity="1.0"
     inkscape:pageopacity="0.0"
     inkscape:pageshadow="2"
     inkscape:zoom="2.9555556"
     inkscape:cx="150.23158"
     inkscape:cy="-10.418041"
     inkscape:current-layer="layer1"
     showgrid="true"
     inkscape:document-units="px"
     inkscape:grid-bbox="true"
     inkscape:window-width="1440"
     inkscape:window-height="851"
     inkscape:window-x="0"
     inkscape:window-y="0"
     inkscape:window-maximized="1" />
  <metadata
     id="metadata2990">
    <rdf:RDF>
      <cc:Work
         rdf:about="">
        <dc:format>image/svg+xml</dc:format>
        <dc:type
           rdf:resource="http://purl.org/dc/dcmitype/StillImage" />
        <dc:title></dc:title>
      </cc:Work>
    </rdf:RDF>
  </metadata>
  <g
     id="layer1"
     inkscape:label="Layer 1"
     inkscape:groupmode="layer">
    <path
       style="fill:#fc932b;fill-opacity:1"
       d="M 0.03148,32.03151 0.06298,0.063 32.03149,0.0315 64,0 64,32 64,64 32,64 0,64 z"
       id="path3004"
       inkscape:connector-curvature="0"
       sodipodi:nodetypes="ccccccccc" />
    <path
       style="fill:#ffffff;fill-opacity:1;stroke:none"
       d="m 20.335599,19.999995 0.07558,2.22966 0.07558,2.23439 0.604654,0.0331 c 9.411816,0.56506 17.301748,7.87669 18.635637,17.27044 l 0.259812,1.81868 1.837583,0 c 1.332959,0 1.850859,-0.0518 1.898992,-0.18895 0.111246,-0.317 -0.160152,-3.28589 -0.420424,-4.5727 -0.460704,-2.27776 -1.483799,-4.98303 -2.692601,-7.14248 -1.858115,-3.31941 -5.350053,-6.76415 -8.838346,-8.71553 -3.333789,-1.86494 -7.22309,-2.96558 -10.501146,-2.96658 l -0.935325,0 z m 0.07558,8.31872 0,2.31942 0,2.31941 1.2471,0.0898 c 4.200059,0.30322 7.884525,3.25335 9.121778,7.30781 0.206565,0.67691 0.416359,1.68026 0.467662,2.22966 l 0.09448,1.00146 2.328864,0 2.333588,0 -0.09448,-0.86919 c -0.352158,-3.25702 -0.992812,-5.15711 -2.569781,-7.60542 -1.243035,-1.92986 -3.444267,-3.95236 -5.446613,-5.00729 -1.99645,-1.05182 -4.666712,-1.78562 -6.495311,-1.78562 l -0.987287,0 z m 3.108301,9.34852 c -3.20175,0 -4.458146,3.78217 -1.903716,5.73477 0.35907,0.27447 0.736718,0.46802 0.836123,0.42987 0.09941,-0.0381 0.27491,-0.003 0.392081,0.0756 0.336426,0.2269 1.486188,0.0156 2.206044,-0.40626 1.723829,-1.01023 2.063354,-3.40394 0.68496,-4.82306 -0.744142,-0.76613 -1.281152,-1.01091 -2.215492,-1.01091 z"
       id="rect4192"
       inkscape:connector-curvature="0" />
  </g>
</svg>
