<?xml version="1.0" encoding="UTF-8" standalone="no"?>
<!-- Created with Inkscape (http://www.inkscape.org/) -->

<svg
   xmlns:dc="http://purl.org/dc/elements/1.1/"
   xmlns:cc="http://creativecommons.org/ns#"
   xmlns:rdf="http://www.w3.org/1999/02/22-rdf-syntax-ns#"
   xmlns:svg="http://www.w3.org/2000/svg"
   xmlns="http://www.w3.org/2000/svg"
   xmlns:sodipodi="http://sodipodi.sourceforge.net/DTD/sodipodi-0.dtd"
   xmlns:inkscape="http://www.inkscape.org/namespaces/inkscape"
   width="64px"
   height="64px"
   id="svg2985"
   version="1.1"
   inkscape:version="0.48.5 r10040"
   sodipodi:docname="twitter.svg">
  <defs
     id="defs2987" />
  <sodipodi:namedview
     id="base"
     pagecolor="#ffffff"
     bordercolor="#666666"
     borderopacity="1.0"
     inkscape:pageopacity="0.0"
     inkscape:pageshadow="2"
     inkscape:zoom="10.390625"
     inkscape:cx="19.921805"
     inkscape:cy="32"
     inkscape:current-layer="layer1"
     showgrid="true"
     inkscape:document-units="px"
     inkscape:grid-bbox="true"
     inkscape:window-width="1440"
     inkscape:window-height="851"
     inkscape:window-x="0"
     inkscape:window-y="0"
     inkscape:window-maximized="1" />
  <metadata
     id="metadata2990">
    <rdf:RDF>
      <cc:Work
         rdf:about="">
        <dc:format>image/svg+xml</dc:format>
        <dc:type
           rdf:resource="http://purl.org/dc/dcmitype/StillImage" />
        <dc:title />
      </cc:Work>
    </rdf:RDF>
  </metadata>
  <g
     id="layer1"
     inkscape:label="Layer 1"
     inkscape:groupmode="layer">
    <path
       style="fill:#5da8dc;fill-opacity:1"
       d="M 0.03148,32.03151 0.06298,0.063 32.03149,0.0315 64,0 64,32 64,64 32,64 0,64 z"
       id="path3004"
       inkscape:connector-curvature="0"
       sodipodi:nodetypes="ccccccccc" />
    <path
       style="fill:#ffffff"
       d="m 26.84903,41.73995 c -1.678998,-0.09141 -3.267929,-0.454857 -4.763513,-1.089588 -0.622438,-0.264168 -1.465683,-0.702691 -1.917673,-0.997273 l -0.167848,-0.109394 0.115974,0.0122 c 2.468084,0.259508 4.987255,-0.42931 6.966128,-1.90474 l 0.186982,-0.139414 -0.273469,-0.02487 c -0.708371,-0.06433 -1.274249,-0.224295 -1.868439,-0.528097 -0.922134,-0.471463 -1.682612,-1.237102 -2.154195,-2.168809 -0.132441,-0.261655 -0.298862,-0.676324 -0.279289,-0.695891 0.006,-0.006 0.118834,0.0053 0.250642,0.02593 0.290455,0.04473 0.968833,0.051 1.251775,0.01153 0.253982,-0.0354 0.628678,-0.109741 0.648685,-0.128654 0.0089,-0.0084 -0.05753,-0.03253 -0.147601,-0.0536 -0.648805,-0.152161 -1.357457,-0.50551 -1.913847,-0.954293 -1.006547,-0.811879 -1.661838,-2.012127 -1.801699,-3.300056 -0.026,-0.239489 -0.02947,-0.585971 -0.006,-0.585971 0.009,0 0.0372,0.0146 0.06267,0.0324 0.159574,0.111768 0.807299,0.355476 1.175575,0.442317 0.276668,0.06527 0.938326,0.155067 0.938326,0.127394 0,-0.0047 -0.09251,-0.07819 -0.205588,-0.163061 -0.378689,-0.284249 -0.834232,-0.761452 -1.096794,-1.148962 -0.437237,-0.645291 -0.713645,-1.381356 -0.818213,-2.178868 -0.04313,-0.328922 -0.0316,-1.082627 0.02127,-1.39167 0.08397,-0.49069 0.219162,-0.915213 0.433117,-1.360049 0.180421,-0.375123 0.151807,-0.364109 0.345689,-0.133068 0.54049,0.644072 1.297942,1.379177 1.9833,1.9248 1.879686,1.496431 4.117282,2.482378 6.506432,2.866907 0.464716,0.07479 1.463937,0.178614 1.48795,0.154601 0.0047,-0.0047 -6.66e-4,-0.04067 -0.01153,-0.08062 -0.100021,-0.372115 -0.129848,-1.301069 -0.0566,-1.763945 0.224242,-1.417763 0.982907,-2.603485 2.172042,-3.394697 0.436863,-0.290675 1.032194,-0.549417 1.542584,-0.670451 0.41839,-0.09921 0.664398,-0.125561 1.170275,-0.125355 0.53407,2.27e-4 0.774072,0.02873 1.233528,0.146562 0.804953,0.206414 1.555545,0.62261 2.147442,1.190728 0.171568,0.164674 0.218682,0.199154 0.264209,0.193381 0.1398,-0.01773 0.847572,-0.207788 1.152301,-0.309415 0.57335,-0.191208 1.235288,-0.485557 1.774972,-0.789293 l 0.151775,-0.08542 -0.03827,0.110814 c -0.341136,0.988067 -1.017561,1.87038 -1.88346,2.45673 -0.112968,0.07649 -0.202102,0.142381 -0.198081,0.146401 0.004,0.004 0.105947,-0.0073 0.226488,-0.02507 0.735045,-0.108628 1.560524,-0.333729 2.250275,-0.613638 0.154528,-0.06273 0.285836,-0.114021 0.291782,-0.114021 0.01447,0 -0.148221,0.228975 -0.378569,0.532777 -0.493643,0.651078 -1.197415,1.353083 -1.863133,1.858466 l -0.191768,0.145588 -0.01113,0.761112 c -0.01167,0.796706 -0.03913,1.172188 -0.133408,1.825953 -0.342802,2.376743 -1.318476,4.716659 -2.778326,6.663166 -2.280309,3.040474 -5.572872,4.903567 -9.407252,5.32309 -0.695751,0.07613 -1.757285,0.109661 -2.386623,0.0754 z"
       id="path3825"
       inkscape:connector-curvature="0" />
  </g>
</svg>
