<?xml version="1.0" encoding="UTF-8" standalone="no"?>
<!-- Created with Inkscape (http://www.inkscape.org/) -->

<svg
   xmlns:dc="http://purl.org/dc/elements/1.1/"
   xmlns:cc="http://creativecommons.org/ns#"
   xmlns:rdf="http://www.w3.org/1999/02/22-rdf-syntax-ns#"
   xmlns:svg="http://www.w3.org/2000/svg"
   xmlns="http://www.w3.org/2000/svg"
   xmlns:sodipodi="http://sodipodi.sourceforge.net/DTD/sodipodi-0.dtd"
   xmlns:inkscape="http://www.inkscape.org/namespaces/inkscape"
   width="64px"
   height="64px"
   id="svg14452"
   version="1.1"
   inkscape:version="0.48.5 r10040"
   sodipodi:docname="twitter.svg">
  <defs
     id="defs14454" />
  <sodipodi:namedview
     id="base"
     pagecolor="#ffffff"
     bordercolor="#666666"
     borderopacity="1.0"
     inkscape:pageopacity="0.0"
     inkscape:pageshadow="2"
     inkscape:zoom="10.453125"
     inkscape:cx="32"
     inkscape:cy="32"
     inkscape:current-layer="layer1"
     showgrid="true"
     inkscape:document-units="px"
     inkscape:grid-bbox="true"
     inkscape:window-width="1440"
     inkscape:window-height="855"
     inkscape:window-x="0"
     inkscape:window-y="1"
     inkscape:window-maximized="1" />
  <metadata
     id="metadata14457">
    <rdf:RDF>
      <cc:Work
         rdf:about="">
        <dc:format>image/svg+xml</dc:format>
        <dc:type
           rdf:resource="http://purl.org/dc/dcmitype/StillImage" />
        <dc:title></dc:title>
      </cc:Work>
    </rdf:RDF>
  </metadata>
  <g
     id="layer1"
     inkscape:label="Layer 1"
     inkscape:groupmode="layer">
    <path
       style="fill:#5da8dc;fill-opacity:1"
       d="m 25.132071,44.986544 c -2.238685,-0.121874 -4.357237,-0.606472 -6.351387,-1.452779 -0.82994,-0.352223 -1.954216,-0.936921 -2.556888,-1.329698 l -0.223802,-0.145861 0.154602,0.01627 c 3.290827,0.346009 6.649722,-0.572418 9.288211,-2.539662 l 0.249336,-0.185888 -0.36467,-0.03313 c -0.944475,-0.08581 -1.699014,-0.299062 -2.491221,-0.704126 -1.229544,-0.628625 -2.243486,-1.64948 -2.872291,-2.891751 -0.176602,-0.348869 -0.39847,-0.901767 -0.372403,-0.927861 0.008,-0.0081 0.158468,0.0075 0.334203,0.0346 0.38727,0.05967 1.291811,0.06801 1.66908,0.0154 0.338603,-0.04727 0.838208,-0.146315 0.864874,-0.171542 0.012,-0.0112 -0.07673,-0.04333 -0.196801,-0.07149 -0.865074,-0.202875 -1.809949,-0.674012 -2.551755,-1.272391 -1.342078,-1.082509 -2.215819,-2.682842 -2.402287,-4.400083 -0.03467,-0.319316 -0.03933,-0.781294 -0.008,-0.781294 0.012,0 0.04933,0.01947 0.08353,0.0432 0.212735,0.149021 1.076409,0.47397 1.567413,0.589758 0.368937,0.08699 1.251144,0.206755 1.251144,0.169855 0,-0.0067 -0.123401,-0.104248 -0.274136,-0.217409 -0.504937,-0.379003 -1.112342,-1.015275 -1.462412,-1.531953 -0.582938,-0.860387 -0.951541,-1.841815 -1.090942,-2.905157 -0.05733,-0.438571 -0.042,-1.443513 0.02867,-1.855569 0.111934,-0.654253 0.292202,-1.220291 0.577471,-1.813402 0.240535,-0.500158 0.202402,-0.485478 0.460937,-0.177422 0.720606,0.858761 1.730548,1.838902 2.644422,2.566402 2.506222,1.995243 5.489714,3.309841 8.675207,3.822552 0.619605,0.09973 1.95195,0.238155 1.98395,0.206135 0.0067,-0.006 0,-0.05427 -0.01533,-0.107501 -0.133335,-0.496151 -0.173135,-1.734754 -0.07553,-2.351926 0.299002,-1.890356 1.310544,-3.471316 2.896091,-4.526265 0.582471,-0.38757 1.376278,-0.732566 2.056751,-0.893941 0.557871,-0.132281 0.885874,-0.167422 1.560413,-0.167135 0.712072,2.93e-4 1.032075,0.03833 1.64468,0.195408 1.073276,0.275223 2.074084,0.830147 2.863291,1.58764 0.228735,0.219569 0.291536,0.265543 0.35227,0.257843 0.186401,-0.02367 1.130076,-0.277056 1.536413,-0.41255 0.764406,-0.254949 1.647014,-0.647419 2.36662,-1.052396 l 0.202335,-0.113894 -0.05133,0.147748 c -0.45487,1.317424 -1.356745,2.493847 -2.511288,3.275647 -0.150601,0.101994 -0.269469,0.189842 -0.264069,0.195209 0.0067,0.0053 0.141201,-0.0097 0.301936,-0.0334 0.980075,-0.144834 2.080751,-0.444977 3.000359,-0.818187 0.206068,-0.08361 0.381136,-0.152028 0.38907,-0.152028 0.01933,0 -0.197602,0.305303 -0.504738,0.710366 -0.658205,0.868108 -1.596547,1.804122 -2.484221,2.477961 l -0.255669,0.194115 -0.01467,1.014822 c -0.01533,1.062283 -0.052,1.56292 -0.177869,2.434607 -0.45707,3.168994 -1.758014,6.288894 -3.704431,8.884236 -3.040426,4.053974 -7.430529,6.538101 -12.543039,7.097466 -0.927675,0.101501 -2.343087,0.146215 -3.18216,0.100528 z"
       id="path14473"
       inkscape:connector-curvature="0" />
  </g>
</svg>
