<?xml version="1.0" encoding="UTF-8" standalone="no"?>
<!-- Created with Inkscape (http://www.inkscape.org/) -->

<svg
   xmlns:dc="http://purl.org/dc/elements/1.1/"
   xmlns:cc="http://creativecommons.org/ns#"
   xmlns:rdf="http://www.w3.org/1999/02/22-rdf-syntax-ns#"
   xmlns:svg="http://www.w3.org/2000/svg"
   xmlns="http://www.w3.org/2000/svg"
   xmlns:sodipodi="http://sodipodi.sourceforge.net/DTD/sodipodi-0.dtd"
   xmlns:inkscape="http://www.inkscape.org/namespaces/inkscape"
   width="64"
   height="64"
   id="svg7760"
   version="1.1"
   inkscape:version="0.48.5 r10040"
   sodipodi:docname="baseball-blue.svg">
  <defs
     id="defs7762" />
  <sodipodi:namedview
     id="base"
     pagecolor="#ffffff"
     bordercolor="#666666"
     borderopacity="1.0"
     inkscape:pageopacity="0.0"
     inkscape:pageshadow="2"
     inkscape:zoom="13.203125"
     inkscape:cx="18.518343"
     inkscape:cy="32"
     inkscape:document-units="px"
     inkscape:current-layer="layer1"
     showgrid="false"
     inkscape:window-width="1920"
     inkscape:window-height="1031"
     inkscape:window-x="0"
     inkscape:window-y="0"
     inkscape:window-maximized="1" />
  <metadata
     id="metadata7765">
    <rdf:RDF>
      <cc:Work
         rdf:about="">
        <dc:format>image/svg+xml</dc:format>
        <dc:type
           rdf:resource="http://purl.org/dc/dcmitype/StillImage" />
        <dc:title></dc:title>
      </cc:Work>
    </rdf:RDF>
  </metadata>
  <g
     inkscape:label="Layer 1"
     inkscape:groupmode="layer"
     id="layer1"
     transform="translate(0,-988.36218)">
    <path
       id="path6905"
       d="m 32.001296,1002.3622 c -9.941976,0 -18.001296,8.0593 -18.001296,18 0,9.9407 8.058024,18 18,18 9.94068,0 18,-8.0593 18,-18 0,-9.9407 -8.058024,-18 -17.998704,-18 z m -0.379368,2.2594 c 0.04968,0.1027 0.135144,0.23 0.27936,0.3976 0.09223,0.1092 0.194832,0.2092 0.301392,0.3028 -0.100008,0.3495 -0.227376,0.7198 -0.384552,1.1134 -0.08834,-0.083 -0.146808,-0.1624 -0.157248,-0.2339 -0.10656,-0.7717 -1.41228,-0.4196 -0.862704,0.5704 0.07409,0.2989 0.233856,0.599 0.483336,0.8614 -0.227376,0.46 -0.48852,0.9381 -0.78084,1.4305 -0.198792,-0.5405 -0.284544,-0.9289 -0.370296,-1.1758 -0.228672,-0.6574 -0.83412,-0.014 -0.913392,0.3845 0.11304,0.8745 0.313128,1.4799 0.579456,1.9087 -0.329976,0.4937 -0.687312,0.9978 -1.077048,1.5072 -0.09878,-0.6575 -0.170208,-1.3357 -0.280656,-1.654 -0.228672,-0.6562 -0.877032,-0.2975 -0.9576,0.1013 -0.08186,1.2135 0.05472,2.0672 0.341712,2.67 -0.401472,0.4768 -0.826344,0.9537 -1.277136,1.4318 -0.02376,-0.056 -0.03744,-0.1078 -0.04392,-0.152 -0.06912,-0.7172 -0.08964,-1.502 -0.188352,-1.8567 -0.184536,-0.6704 -0.853632,-0.3547 -0.961488,0.037 -0.18576,1.3721 -0.109152,2.3297 0.15984,3.0144 -0.396288,0.3832 -0.8082,0.7639 -1.23696,1.1407 -0.01296,-0.04 -0.02232,-0.082 -0.02448,-0.1144 -0.02448,-0.7197 0,-1.5032 -0.07279,-1.8644 -0.14292,-0.6808 -0.832824,-0.4067 -0.962784,-0.021 -0.28188,1.4202 -0.294912,2.3231 -0.08575,2.9585 -0.368928,0.2962 -0.745776,0.5872 -1.135512,0.8731 -0.01296,-0.6263 0,-1.2499 -0.06624,-1.5604 -0.14292,-0.6808 -0.831528,-0.4067 -0.962784,-0.022 -0.213048,1.0783 -0.24948,1.841 -0.154584,2.4127 -0.410616,0.2768 -0.828936,0.5483 -1.261584,0.812 0.06912,-0.625 0.189648,-1.3746 0.157176,-1.6461 -0.07409,-0.6328 -0.835416,-0.03 -0.986112,0.3118 -0.15984,0.8198 -0.237816,1.4512 -0.241704,1.9593 -0.389736,0.2183 -0.78732,0.4313 -1.19268,0.6379 0.04824,-0.5496 0.129888,-1.0511 0.09612,-1.3382 -0.07409,-0.6328 -0.641808,-0.3716 -0.793872,-0.03 -0.124704,0.3183 -0.236448,0.608 -0.32868,0.8821 0,-0.1026 -0.01296,-0.2053 -0.01296,-0.3079 0,-8.5739 6.848424,-15.5405 15.37164,-15.7432 z m 0.100008,28.324 c -0.36504,-0.1092 -0.791208,-0.1728 -1.30572,-0.1494 -0.913392,0.04 -0.9576,0.9056 -0.102672,0.99 0.115632,0.013 0.514512,0.1598 0.930312,0.3599 -0.132552,0.3703 -0.632736,0.7484 -0.736704,1.1291 -0.883512,-0.3573 -2.411424,-0.2612 -2.411424,0.5171 0,0 0,0 0,0.013 -6.496344,-1.2643 -10.760544,-6.217 -11.949336,-12.4873 0,0 0.203976,0 0.210456,-0.013 0.245592,0.3092 0.67824,0.6288 1.138176,0.9848 0.665208,0.5106 1.297944,-0.2741 0.532728,-0.9979 -0.188424,-0.1806 -0.307944,-0.3598 -0.420984,-0.5404 0.371592,-0.2001 0.813312,-0.4444 1.284984,-0.7263 0.287136,0.3547 0.722376,0.6223 1.301832,0.9342 0.738,0.3988 1.491552,-0.6445 0.66132,-0.9667 -0.41832,-0.1624 -0.70416,-0.3807 -0.90684,-0.6068 0.489816,-0.3105 1.008216,-0.6496 1.547424,-1.0212 0.35856,0.3183 0.822384,0.5509 1.339488,0.8484 0.792576,0.46 1.19016,-0.7172 0.449568,-1.1511 -0.291024,-0.1689 -0.51192,-0.3262 -0.68472,-0.4743 0.470304,-0.3417 0.948456,-0.7028 1.431792,-1.0836 0.314424,0.2067 0.689904,0.386 1.125144,0.5873 0.990072,0.4574 1.830672,-0.6769 0.74448,-1.0589 -0.2988,-0.1052 -0.553464,-0.2572 -0.770472,-0.4287 0.44568,-0.3755 0.891288,-0.764 1.329192,-1.1707 0.389736,0.2443 0.85356,0.4015 1.379808,0.5158 0.89388,0.1962 1.370736,-0.8536 0.415728,-1.2356 -0.250704,-0.1013 -0.476784,-0.2247 -0.678168,-0.3599 0.470304,-0.4729 0.928944,-0.9627 1.370736,-1.4694 0.467712,0.1884 1.010808,0.2364 1.582488,0.2104 0.914688,-0.04 1.105632,-1.1433 0.248112,-1.2264 -0.309168,-0.03 -0.592416,-0.092 -0.844488,-0.1702 0.40536,-0.5197 0.78732,-1.055 1.147248,-1.602 0.513216,0.126 1.099152,0.1286 1.731888,0.1597 0.709416,0.034 0.485928,-1.1563 0.0432,-1.1342 -0.454752,0.022 -0.853632,0.031 -1.181016,0.013 0.3456,-0.5938 0.65484,-1.2018 0.928944,-1.8242 0.301464,0.063 0.63792,0.097 1.026432,0.081 0.914688,-0.04 0.958824,-0.907 0.1026,-0.9901 -0.08964,-0.013 -0.355968,-0.1052 -0.671688,-0.2429 0.133848,-0.3807 0.245592,-0.7679 0.348192,-1.1577 0.796464,0.2443 1.564344,0.096 1.772208,-0.6081 0.04968,-0.1662 0.04392,-0.3196 0.01296,-0.4599 6.405408,1.3175 11.391984,6.5223 12.380688,13.0407 -0.249408,-0.3364 -0.611928,-0.6873 -1.114704,-1.0757 -0.66528,-0.512 -1.24992,0.2728 -0.484632,0.9978 0.22212,0.2092 0.378072,0.4235 0.496296,0.6314 -0.367704,0.1975 -0.793872,0.4353 -1.264176,0.7133 -0.284544,-0.3975 -0.732816,-0.6795 -1.35648,-1.0134 -0.736632,-0.3976 -1.488888,0.6457 -0.65736,0.9679 0.462528,0.1806 0.769104,0.4275 0.971784,0.6809 -0.48456,0.3053 -0.999072,0.6431 -1.534392,1.0121 -0.367704,-0.3547 -0.862704,-0.5977 -1.416168,-0.9173 -0.793872,-0.456 -1.194048,0.7172 -0.45216,1.1511 0.343008,0.1988 0.57816,0.3794 0.76392,0.5457 -0.459936,0.343 -0.934128,0.703 -1.409688,1.0836 -0.332568,-0.2364 -0.739296,-0.4365 -1.223856,-0.66 -0.991368,-0.4586 -1.831968,0.6769 -0.743184,1.0589 0.349488,0.1234 0.634032,0.3054 0.871776,0.5145 -0.437832,0.3755 -0.871776,0.7666 -1.300536,1.1707 -0.411912,-0.2976 -0.926424,-0.473 -1.509768,-0.6042 -0.89388,-0.1936 -1.373328,0.8549 -0.4158,1.2356 0.313128,0.1273 0.583416,0.2871 0.819864,0.4599 -0.453456,0.4652 -0.89388,0.9498 -1.321344,1.4526 -0.506736,-0.2599 -1.121256,-0.3248 -1.773504,-0.2975 -0.913392,0.04 -1.104336,1.1459 -0.246888,1.2252 0.405432,0.039 0.769176,0.1338 1.07064,0.2495 -0.394992,0.5144 -0.76788,1.0523 -1.118664,1.5967 -0.569088,-0.2027 -1.244736,-0.1988 -1.982664,-0.2377 -0.709416,-0.034 -0.487224,1.1589 -0.0432,1.1342 0.60156,-0.029 1.110888,-0.034 1.474704,0.017 -0.353448,0.6184 -0.667872,1.2434 -0.949824,1.88 z m 0.367704,3.165 c -0.02376,-0.026 -0.04536,-0.048 -0.06984,-0.074 0.09094,-0.3325 0.213048,-0.6873 0.359856,-1.0628 0,0 0,0.013 0,0.013 0.105264,0.7769 1.413648,0.4184 0.862704,-0.5691 -0.05616,-0.2313 -0.166248,-0.4599 -0.323496,-0.6704 0.211752,-0.4287 0.450864,-0.8757 0.722376,-1.3344 0.128664,0.3886 0.198792,0.6874 0.268992,0.8887 0.228672,0.6575 0.835416,0.018 0.913392,-0.3832 -0.0936,-0.7289 -0.245592,-1.2694 -0.450864,-1.68 0.302688,-0.4599 0.63792,-0.9289 0.996552,-1.4058 0.0792,0.5457 0.13896,1.0576 0.235152,1.3266 0.227376,0.6574 0.875664,0.2975 0.954936,-0.1014 0.07409,-1.055 -0.02304,-1.8449 -0.237744,-2.4283 0.385848,-0.4612 0.796464,-0.9316 1.22652,-1.3928 0.0612,0.6769 0.08575,1.3928 0.177984,1.7332 0.18576,0.6705 0.854928,0.3521 0.961416,-0.037 0.16632,-1.2279 0.12348,-2.1217 -0.0805,-2.7882 0.380664,-0.3729 0.776952,-0.7458 1.184904,-1.1096 0.018,0.6769 0,1.3837 0.07128,1.7215 0.141624,0.6795 0.83412,0.4053 0.961488,0.024 0.250776,-1.2719 0.29232,-2.1346 0.146808,-2.7531 0.350784,-0.291 0.70812,-0.5704 1.078416,-0.8497 0.01296,0.5457 0,1.0602 0.06264,1.3318 0.140328,0.6795 0.831528,0.4053 0.962712,0.026 0.18972,-0.9667 0.237816,-1.6774 0.178056,-2.2257 0.396216,-0.2767 0.800352,-0.5431 1.21608,-0.8042 -0.06912,0.5755 -0.162432,1.2057 -0.135144,1.4461 0.07409,0.634 0.83808,0.029 0.98748,-0.3067 0.14292,-0.7354 0.223488,-1.3226 0.242928,-1.8008 0.38592,-0.2221 0.782208,-0.4365 1.181016,-0.6469 -0.0504,0.4885 -0.114336,0.9263 -0.08179,1.1875 0.07531,0.6327 0.641808,0.3702 0.792504,0.029 0.103968,-0.269 0.200088,-0.5172 0.284544,-0.7536 -0.153288,8.527 -7.093944,15.404 -15.656112,15.4521 z"
       inkscape:connector-curvature="0"
       style="fill:#ffffff;fill-opacity:1" />
  </g>
</svg>
