<?xml version="1.0" encoding="UTF-8" standalone="no"?>
<!-- Created with Inkscape (http://www.inkscape.org/) -->

<svg
   xmlns:dc="http://purl.org/dc/elements/1.1/"
   xmlns:cc="http://creativecommons.org/ns#"
   xmlns:rdf="http://www.w3.org/1999/02/22-rdf-syntax-ns#"
   xmlns:svg="http://www.w3.org/2000/svg"
   xmlns="http://www.w3.org/2000/svg"
   xmlns:sodipodi="http://sodipodi.sourceforge.net/DTD/sodipodi-0.dtd"
   xmlns:inkscape="http://www.inkscape.org/namespaces/inkscape"
   width="60"
   height="60"
   id="svg7760"
   version="1.1"
   inkscape:version="0.48.5 r10040"
   sodipodi:docname="wrestling-blue.svg">
  <defs
     id="defs7762" />
  <sodipodi:namedview
     id="base"
     pagecolor="#ffffff"
     bordercolor="#666666"
     borderopacity="1.0"
     inkscape:pageopacity="0.0"
     inkscape:pageshadow="2"
     inkscape:zoom="14.066667"
     inkscape:cx="30"
     inkscape:cy="30"
     inkscape:document-units="px"
     inkscape:current-layer="layer1"
     showgrid="false"
     inkscape:window-width="1920"
     inkscape:window-height="1031"
     inkscape:window-x="0"
     inkscape:window-y="0"
     inkscape:window-maximized="1" />
  <metadata
     id="metadata7765">
    <rdf:RDF>
      <cc:Work
         rdf:about="">
        <dc:format>image/svg+xml</dc:format>
        <dc:type
           rdf:resource="http://purl.org/dc/dcmitype/StillImage" />
        <dc:title></dc:title>
      </cc:Work>
    </rdf:RDF>
  </metadata>
  <g
     inkscape:label="Layer 1"
     inkscape:groupmode="layer"
     id="layer1"
     transform="translate(0,-992.36218)">
    <path
       id="path6905"
       d="m 30.0018,997.36225 c -13.8083,0 -25.0017999,11.19355 -25.0017999,25.00005 0,13.8065 11.1916999,25 24.9999999,25 13.8065,0 25,-11.1935 25,-25 0,-13.8065 -11.1917,-25.00005 -24.9982,-25.00005 z m -0.5269,3.13815 c 0.069,0.1426 0.1877,0.3194 0.388,0.5522 0.1281,0.1516 0.2706,0.2905 0.4186,0.4205 -0.1389,0.4854 -0.3158,0.9997 -0.5341,1.5464 -0.1227,-0.1155 -0.2039,-0.2255 -0.2184,-0.3248 -0.148,-1.0719 -1.9615,-0.5828 -1.1982,0.7922 0.1029,0.4151 0.3248,0.8319 0.6713,1.1964 -0.3158,0.6388 -0.6785,1.3029 -1.0845,1.9868 -0.2761,-0.7507 -0.3952,-1.2902 -0.5143,-1.6331 -0.3176,-0.9131 -1.1585,-0.02 -1.2686,0.5341 0.157,1.2145 0.4349,2.0554 0.8048,2.6509 -0.4583,0.6857 -0.9546,1.3859 -1.4959,2.0933 -0.1372,-0.9131 -0.2364,-1.8551 -0.3898,-2.2972 -0.3176,-0.9113 -1.2181,-0.4132 -1.33,0.1407 -0.1137,1.6855 0.076,2.8711 0.4746,3.7084 -0.5576,0.6622 -1.1477,1.3245 -1.7738,1.9886 -0.033,-0.078 -0.052,-0.1498 -0.061,-0.2112 -0.096,-0.9961 -0.1245,-2.086 -0.2616,-2.5787 -0.2563,-0.9311 -1.1856,-0.4926 -1.3354,0.052 -0.258,1.9056 -0.1516,3.2356 0.222,4.1866 -0.5504,0.5323 -1.1225,1.061 -1.718,1.5843 -0.018,-0.056 -0.031,-0.1136 -0.034,-0.1588 -0.034,-0.9997 0,-2.0878 -0.1011,-2.5895 -0.1985,-0.9455 -1.1567,-0.5648 -1.3372,-0.029 -0.3915,1.9724 -0.4096,3.2265 -0.1191,4.109 -0.5124,0.4114 -1.0358,0.8156 -1.5771,1.2126 -0.018,-0.8698 0,-1.736 -0.092,-2.1672 -0.1985,-0.9456 -1.1549,-0.5649 -1.3372,-0.031 -0.2959,1.4977 -0.3465,2.557 -0.2147,3.351 -0.5703,0.3844 -1.1513,0.7615 -1.7522,1.1278 0.096,-0.868 0.2634,-1.9092 0.2183,-2.2863 -0.1029,-0.8788 -1.1603,-0.042 -1.3696,0.4331 -0.222,1.1386 -0.3303,2.0156 -0.3357,2.7212 -0.5413,0.3032 -1.0935,0.5991 -1.6564999,0.886 0.067,-0.7633 0.1804,-1.4598 0.1335,-1.8586 -0.1029,-0.8789 -0.8914001,-0.5161 -1.1026001,-0.042 -0.1732,0.4421 -0.3284,0.8445 -0.4565,1.2252 0,-0.1425 -0.018,-0.2851 -0.018,-0.4276 0,-11.9082 9.5117,-21.5841 21.3495,-21.8656 z m 0.1389,39.3388 c -0.507,-0.1516 -1.0989,-0.24 -1.8135,-0.2075 -1.2686,0.056 -1.33,1.2578 -0.1426,1.3751 0.1606,0.018 0.7146,0.2219 1.2921,0.4998 -0.1841,0.5143 -0.8788,1.0394 -1.0232,1.5682 -1.2271,-0.4963 -3.3492,-0.3628 -3.3492,0.7182 0,0 0,0 0,0.018 -9.0227,-1.7559 -14.9451999,-8.6347 -16.5963,-17.3434 0,0 0.2833,0 0.2923,-0.018 0.3411,0.4295 0.9420001,0.8734 1.5808001,1.3678 0.9238999,0.7092 1.8026999,-0.3807 0.7398999,-1.3859 -0.2617,-0.2508 -0.4277,-0.4998 -0.5847,-0.7506 0.5161,-0.2779 1.1296,-0.6172 1.7847,-1.0088 0.3988,0.4927 1.0033,0.8644 1.8081,1.2975 1.025,0.554 2.0716,-0.8951 0.9185,-1.3426 -0.581,-0.2256 -0.978,-0.5287 -1.2595,-0.8427 0.6803,-0.4313 1.4003,-0.9023 2.1492,-1.4184 0.498,0.4421 1.1422,0.7651 1.8604,1.1784 1.1008,0.6388 1.653,-0.9961 0.6244,-1.5988 -0.4042,-0.2346 -0.711,-0.453 -0.951,-0.6587 0.6532,-0.4746 1.3173,-0.9762 1.9886,-1.505 0.4367,0.287 0.9582,0.536 1.5627,0.8157 1.3751,0.6352 2.5426,-0.9402 1.034,-1.4707 -0.415,-0.1462 -0.7687,-0.3573 -1.0701,-0.5955 0.619,-0.5215 1.2379,-1.0611 1.8461,-1.6259 0.5413,0.3393 1.1855,0.5576 1.9164,0.7164 1.2415,0.2725 1.9038,-1.1856 0.5774,-1.7161 -0.3482,-0.1408 -0.6622,-0.3122 -0.9419,-0.4999 0.6532,-0.6568 1.2902,-1.3371 1.9038,-2.0409 0.6496,0.2617 1.4039,0.3284 2.1979,0.2923 1.2704,-0.056 1.5356,-1.5879 0.3446,-1.7034 -0.4294,-0.042 -0.8228,-0.1282 -1.1729,-0.2364 0.563,-0.7218 1.0935,-1.4653 1.5934,-2.225 0.7128,0.175 1.5266,0.1786 2.4054,0.2219 0.9853,0.047 0.6749,-1.606 0.06,-1.5753 -0.6316,0.031 -1.1856,0.043 -1.6403,0.018 0.48,-0.8247 0.9095,-1.6692 1.2902,-2.5336 0.4187,0.087 0.886,0.1354 1.4256,0.1119 1.2704,-0.056 1.3317,-1.2596 0.1425,-1.3751 -0.1245,-0.018 -0.4944,-0.1461 -0.9329,-0.3374 0.1859,-0.5287 0.3411,-1.0665 0.4836,-1.6078 1.1062,0.3392 2.1727,0.1335 2.4614,-0.8446 0.069,-0.2309 0.061,-0.4439 0.018,-0.6388 8.8964,1.8298 15.8222,9.0588 17.1954,18.1121 -0.3464,-0.4673 -0.8499,-0.9546 -1.5482,-1.4941 -0.924,-0.711 -1.736,0.3789 -0.6731,1.3859 0.3085,0.2905 0.5251,0.5882 0.6893,0.877 -0.5107,0.2742 -1.1026,0.6045 -1.7558,0.9906 -0.3952,-0.5521 -1.0178,-0.9437 -1.884,-1.4075 -1.0231,-0.5522 -2.0679,0.8969 -0.913,1.3444 0.6424,0.2508 1.0682,0.5937 1.3497,0.9456 -0.673,0.424 -1.3876,0.8932 -2.1311,1.4057 -0.5107,-0.4926 -1.1982,-0.8301 -1.9669,-1.274 -1.1026,-0.6334 -1.6584,0.9961 -0.628,1.5988 0.4764,0.2761 0.803,0.5269 1.061,0.7579 -0.6388,0.4764 -1.2974,0.9763 -1.9579,1.505 -0.4619,-0.3284 -1.0268,-0.6063 -1.6998,-0.9167 -1.3769,-0.637 -2.5444,0.9402 -1.0322,1.4707 0.4854,0.1714 0.8806,0.4241 1.2108,0.7146 -0.6081,0.5215 -1.2108,1.0647 -1.8063,1.6259 -0.5721,-0.4133 -1.2867,-0.6569 -2.0969,-0.8391 -1.2415,-0.2689 -1.9074,1.1873 -0.5775,1.7161 0.4349,0.1768 0.8103,0.3988 1.1387,0.6388 -0.6298,0.646 -1.2415,1.3191 -1.8352,2.0174 -0.7038,-0.3609 -1.5573,-0.4511 -2.4632,-0.4132 -1.2686,0.056 -1.5338,1.5916 -0.3429,1.7017 0.5631,0.054 1.0683,0.1858 1.487,0.3465 -0.5486,0.7145 -1.0665,1.4616 -1.5537,2.2177 -0.7904,-0.2815 -1.7288,-0.2761 -2.7537,-0.3302 -0.9853,-0.047 -0.6767,1.6096 -0.06,1.5753 0.8355,-0.04 1.5429,-0.047 2.0482,0.024 -0.4909,0.859 -0.9276,1.727 -1.3192,2.6112 z m 0.5107,4.3959 c -0.033,-0.036 -0.063,-0.067 -0.097,-0.1029 0.1263,-0.4619 0.2959,-0.9546 0.4998,-1.4761 0,0 0,0.018 0,0.018 0.1462,1.0791 1.9634,0.5811 1.1982,-0.7904 -0.078,-0.3212 -0.2309,-0.6388 -0.4493,-0.9311 0.2941,-0.5955 0.6262,-1.2163 1.0033,-1.8533 0.1787,0.5396 0.2761,0.9546 0.3736,1.2343 0.3176,0.9131 1.1603,0.025 1.2686,-0.5323 -0.13,-1.0124 -0.3411,-1.763 -0.6262,-2.3333 0.4204,-0.6388 0.886,-1.2902 1.3841,-1.9525 0.11,0.7579 0.193,1.4689 0.3266,1.8425 0.3158,0.913 1.2162,0.4132 1.3263,-0.1408 0.1029,-1.4653 -0.032,-2.5624 -0.3302,-3.3727 0.5359,-0.6406 1.1062,-1.2938 1.7035,-1.9344 0.085,0.9401 0.1191,1.9344 0.2472,2.4072 0.258,0.9312 1.1874,0.489 1.3353,-0.052 0.231,-1.7053 0.1715,-2.9468 -0.1118,-3.8725 0.5287,-0.5179 1.0791,-1.0358 1.6457,-1.5411 0.025,0.9402 0,1.9218 0.099,2.391 0.1967,0.9438 1.1585,0.563 1.3354,0.033 0.3483,-1.7666 0.406,-2.9648 0.2039,-3.8238 0.4872,-0.4042 0.9835,-0.7922 1.4978,-1.1801 0.018,0.7579 0,1.4725 0.087,1.8496 0.1949,0.9438 1.1549,0.563 1.3371,0.036 0.2635,-1.3426 0.3303,-2.3297 0.2473,-3.0912 0.5503,-0.3843 1.1116,-0.7543 1.689,-1.117 -0.096,0.7994 -0.2256,1.6746 -0.1877,2.0085 0.1029,0.8806 1.164,0.041 1.3715,-0.4259 0.1985,-1.0214 0.3104,-1.837 0.3374,-2.5011 0.536,-0.3086 1.0864,-0.6063 1.6403,-0.8986 -0.07,0.6785 -0.1588,1.2866 -0.1136,1.6493 0.1046,0.8788 0.8914,0.5143 1.1007,0.04 0.1444,-0.3735 0.2779,-0.7182 0.3952,-1.0466 -0.2129,11.8431 -9.8527,21.3945 -21.7446,21.4613 z"
       inkscape:connector-curvature="0"
       style="fill:#1a66d8;fill-opacity:1" />
  </g>
</svg>
