<?xml version="1.0" encoding="UTF-8" standalone="no"?>
<!-- Created with Inkscape (http://www.inkscape.org/) -->

<svg
   xmlns:dc="http://purl.org/dc/elements/1.1/"
   xmlns:cc="http://creativecommons.org/ns#"
   xmlns:rdf="http://www.w3.org/1999/02/22-rdf-syntax-ns#"
   xmlns:svg="http://www.w3.org/2000/svg"
   xmlns="http://www.w3.org/2000/svg"
   xmlns:sodipodi="http://sodipodi.sourceforge.net/DTD/sodipodi-0.dtd"
   xmlns:inkscape="http://www.inkscape.org/namespaces/inkscape"
   width="48"
   height="48"
   id="svg7760"
   version="1.1"
   inkscape:version="0.48.5 r10040"
   sodipodi:docname="baseball-blue.svg">
  <defs
     id="defs7762" />
  <sodipodi:namedview
     id="base"
     pagecolor="#ffffff"
     bordercolor="#666666"
     borderopacity="1.0"
     inkscape:pageopacity="0.0"
     inkscape:pageshadow="2"
     inkscape:zoom="6.6015625"
     inkscape:cx="-9.9976333"
     inkscape:cy="2.9617519"
     inkscape:document-units="px"
     inkscape:current-layer="g9509"
     showgrid="false"
     inkscape:window-width="1920"
     inkscape:window-height="1031"
     inkscape:window-x="0"
     inkscape:window-y="0"
     inkscape:window-maximized="1" />
  <metadata
     id="metadata7765">
    <rdf:RDF>
      <cc:Work
         rdf:about="">
        <dc:format>image/svg+xml</dc:format>
        <dc:type
           rdf:resource="http://purl.org/dc/dcmitype/StillImage" />
        <dc:title />
      </cc:Work>
    </rdf:RDF>
  </metadata>
  <g
     inkscape:label="Layer 1"
     inkscape:groupmode="layer"
     id="layer1"
     transform="translate(0,-1004.3622)">
    <g
       id="g9509"
       transform="translate(52.85038,-2.4875514)">
      <path
         style="fill:#1a66d8;fill-opacity:1;stroke:none"
         d="m -28.85038,1012.8498 c -9.941125,0 -18,8.0589 -18,18 0,9.9412 8.058875,18 18,18 9.941125,0 18,-8.0588 18,-18 0,-9.9411 -8.058875,-18 -18,-18 z m 0,2 c 3.740072,0 7.181906,1.2873 9.90625,3.4375 -0.817126,0.8395 -1.566811,1.7422 -2.1875,2.6875 l -1.75,-1 -1,1.75 1.75,1 c -0.4085,0.8086 -0.721199,1.6504 -1,2.5 l -1.96875,-0.5312 -0.53125,1.9375 1.96875,0.5312 c -0.184858,0.8874 -0.293699,1.7859 -0.34375,2.6875 l -2.03125,0 0,2 2.03125,0 c 0.05005,0.9017 0.158892,1.8002 0.34375,2.6875 l -1.96875,0.5313 0.53125,1.9062 1.96875,-0.5312 c 0.280408,0.8593 0.587056,1.7139 1,2.5312 l -1.75,1 1,1.75 1.75,-1 c 0.624336,0.9509 1.364412,1.8439 2.1875,2.6875 -2.724344,2.1503 -6.166178,3.4375 -9.90625,3.4375 -3.755536,0 -7.207844,-1.3024 -9.9375,-3.4687 0.817117,-0.8394 1.566817,-1.7109 2.1875,-2.6563 l 1.75,1 1,-1.75 -1.75,-1 c 0.409971,-0.8112 0.751854,-1.6473 1.03125,-2.5 l 1.96875,0.5313 0.5,-1.9375 -1.96875,-0.5313 c 0.184815,-0.8871 0.293679,-1.786 0.34375,-2.6875 l 2.0625,0 0,-2 -2.0625,0 c -0.05007,-0.9014 -0.158935,-1.8003 -0.34375,-2.6875 l 1.96875,-0.5312 -0.5,-1.9375 -1.96875,0.5312 c -0.279396,-0.8526 -0.621279,-1.6887 -1.03125,-2.5 l 1.75,-1 -1,-1.75 -1.75,1 c -0.617486,-0.9404 -1.344349,-1.8517 -2.15625,-2.6875 2.724344,-2.1502 6.166178,-3.4375 9.90625,-3.4375 z m -11.40625,4.7813 c 0.721191,0.7331 1.354956,1.5497 1.90625,2.375 l -1.6875,0.9687 1,1.75 1.71875,-1 c 0.325882,0.6545 0.581872,1.3467 0.8125,2.0313 l -1.90625,0.5 0.53125,1.9375 1.90625,-0.5 c 0.145483,0.7203 0.235663,1.4253 0.28125,2.1562 l -1.96875,0 0,2 1.96875,0 c -0.04559,0.731 -0.135767,1.4672 -0.28125,2.1875 l -1.90625,-0.5312 -0.53125,1.9375 1.90625,0.5 c -0.231785,0.6923 -0.483409,1.3697 -0.8125,2.0312 l -1.71875,-1 -1,1.75 1.71875,1 c -0.553257,0.8302 -1.212489,1.6066 -1.9375,2.3438 -2.840231,-2.8877 -4.59375,-6.8484 -4.59375,-11.2188 0,-4.3703 1.753519,-8.3311 4.59375,-11.2187 z m 22.8125,0 c 2.840231,2.8876 4.59375,6.8484 4.59375,11.2187 0,4.3704 -1.753519,8.3311 -4.59375,11.2188 -0.730876,-0.7431 -1.349918,-1.5374 -1.90625,-2.375 l 1.6875,-0.9688 -1,-1.75 -1.6875,0.9688 c -0.324152,-0.6546 -0.61473,-1.3155 -0.84375,-2 l 1.875,-0.5 -0.5,-1.9375 -1.875,0.5 c -0.14214,-0.7106 -0.236271,-1.4354 -0.28125,-2.1563 l 1.9375,0 0,-2 -1.9375,0 c 0.04561,-0.731 0.135733,-1.4359 0.28125,-2.1562 l 1.84375,0.5 0.53125,-1.9375 -1.84375,-0.5 c 0.227251,-0.6737 0.492993,-1.3555 0.8125,-2 l 1.6875,0.9687 1,-1.75 -1.6875,-0.9687 c 0.553493,-0.8305 1.18089,-1.6377 1.90625,-2.375 z"
         id="path9207"
         inkscape:connector-curvature="0" />
    </g>
  </g>
</svg>
