<?xml version="1.0" encoding="UTF-8" standalone="no"?>
<!-- Created with Inkscape (http://www.inkscape.org/) -->

<svg
   xmlns:dc="http://purl.org/dc/elements/1.1/"
   xmlns:cc="http://creativecommons.org/ns#"
   xmlns:rdf="http://www.w3.org/1999/02/22-rdf-syntax-ns#"
   xmlns:svg="http://www.w3.org/2000/svg"
   xmlns="http://www.w3.org/2000/svg"
   xmlns:sodipodi="http://sodipodi.sourceforge.net/DTD/sodipodi-0.dtd"
   xmlns:inkscape="http://www.inkscape.org/namespaces/inkscape"
   width="64"
   height="64"
   id="svg7760"
   version="1.1"
   inkscape:version="0.48.5 r10040"
   sodipodi:docname="baseball-blue.svg">
  <defs
     id="defs7762" />
  <sodipodi:namedview
     id="base"
     pagecolor="#ffffff"
     bordercolor="#666666"
     borderopacity="1.0"
     inkscape:pageopacity="0.0"
     inkscape:pageshadow="2"
     inkscape:zoom="13.203125"
     inkscape:cx="9.0130176"
     inkscape:cy="32"
     inkscape:document-units="px"
     inkscape:current-layer="layer1"
     showgrid="false"
     inkscape:window-width="1440"
     inkscape:window-height="851"
     inkscape:window-x="0"
     inkscape:window-y="0"
     inkscape:window-maximized="1" />
  <metadata
     id="metadata7765">
    <rdf:RDF>
      <cc:Work
         rdf:about="">
        <dc:format>image/svg+xml</dc:format>
        <dc:type
           rdf:resource="http://purl.org/dc/dcmitype/StillImage" />
        <dc:title></dc:title>
      </cc:Work>
    </rdf:RDF>
  </metadata>
  <g
     inkscape:label="Layer 1"
     inkscape:groupmode="layer"
     id="layer1"
     transform="translate(0,-988.36218)">
    <path
       style="fill:#1a66d8;fill-opacity:1"
       inkscape:connector-curvature="0"
       d="m 32,1002.3621 c -9.941299,0 -18,8.0587 -18,18.0001 0,9.9413 8.058701,18 18,18 9.941299,0 18,-8.0587 18,-18 0,-9.9414 -8.058701,-18.0001 -18,-18.0001 z m 15.16644,13.7529 c -3.007517,-1.469 -6.192856,-1.777 -7.308755,-1.7847 -0.201017,-1.0103 -0.470327,-2.0076 -0.813086,-2.983 1.341399,0 3.205956,-0.2114 4.520295,-1.6713 1.671272,1.804 2.918605,4.0023 3.601546,6.439 z m 0.583721,4.2472 c 0,1.3466 -0.170091,2.6532 -0.487078,3.8979 -1.846518,-2.9792 -4.249696,-4.4404 -6.879663,-4.7419 -0.01804,-1.277 -0.109528,-2.5695 -0.29637,-3.8542 5.134942,0.1404 6.712148,1.5269 7.503329,2.469 0.103085,0.7293 0.159782,1.4715 0.159782,2.2292 z m -9.101153,-9.6244 c -0.807931,-1.2886 -1.948314,-3.9817 -3.501038,-5.5924 2.828406,0.5747 5.386213,2.0153 7.441478,3.8876 -0.452287,0.7654 -1.405827,1.7048 -3.837354,1.7048 -0.03479,0 -0.06701,0 -0.103085,0 z m -5.605268,-6.0872 c 1.100436,0.8762 2.704703,2.7008 3.930131,5.6349 -3.53583,-0.081 -5.521512,-0.4871 -8.241678,-2.3169 -1.44835,-0.9741 -3.128642,-1.2808 -4.570549,-1.2641 2.309113,-1.3285 4.98289,-2.0913 7.838356,-2.0913 0.351779,0 0.697115,0.014 1.04374,0.037 z m -10.677071,3.2562 c 1.362016,-0.2796 3.082254,-0.192 5.680006,1.4458 0.51285,0.3492 3.753597,2.3039 9.374329,2.099 0.306679,0.884 0.575989,1.8543 0.789892,2.9122 -10.92963,0.4355 -19.355574,5.2034 -21.945594,6.7252 -0.01031,-0.241 -0.01804,-0.4833 -0.01804,-0.7268 0.0039,-5.0681 2.399313,-9.5742 6.119407,-12.4554 z m -5.948028,14.7581 c 6.909299,-3.925 14.768273,-6.7999 22.02162,-6.9945 0.173956,1.1739 0.279619,2.4432 0.295082,3.8143 -3.235594,0.3041 -6.569118,3.0487 -8.790608,5.6465 -2.025628,2.3684 -5.917102,5.8862 -8.160498,7.216 -2.833561,-2.4187 -4.798626,-5.8231 -5.365596,-9.6823 z m 6.670914,10.6835 c 2.52817,-1.2358 5.714797,-4.5358 6.505978,-5.4739 4.901711,-5.6774 7.883456,-6.7611 9.129501,-6.9659 -0.123703,4.0796 -1.020545,8.9838 -3.136373,14.7888 -1.154557,0.2694 -2.352925,0.4137 -3.588661,0.4137 -3.306464,0 -6.375832,-1.0219 -8.910445,-2.7627 z m 14.504117,1.737 c 0.617224,-1.6262 2.591309,-7.515 2.776863,-14.1163 3.374758,0.5683 5.408118,3.3645 6.253418,5.2406 -1.632615,4.0783 -4.919751,7.3126 -9.030281,8.8757 z"
       id="path3" />
  </g>
</svg>
