<?xml version="1.0" encoding="UTF-8" standalone="no"?>
<!-- Created with Inkscape (http://www.inkscape.org/) -->

<svg
   xmlns:dc="http://purl.org/dc/elements/1.1/"
   xmlns:cc="http://creativecommons.org/ns#"
   xmlns:rdf="http://www.w3.org/1999/02/22-rdf-syntax-ns#"
   xmlns:svg="http://www.w3.org/2000/svg"
   xmlns="http://www.w3.org/2000/svg"
   xmlns:sodipodi="http://sodipodi.sourceforge.net/DTD/sodipodi-0.dtd"
   xmlns:inkscape="http://www.inkscape.org/namespaces/inkscape"
   width="48"
   height="48"
   id="svg7760"
   version="1.1"
   inkscape:version="0.48.5 r10040"
   sodipodi:docname="basketball-blue.svg">
  <defs
     id="defs7762" />
  <sodipodi:namedview
     id="base"
     pagecolor="#ffffff"
     bordercolor="#666666"
     borderopacity="1.0"
     inkscape:pageopacity="0.0"
     inkscape:pageshadow="2"
     inkscape:zoom="13.203125"
     inkscape:cx="-0.49230784"
     inkscape:cy="32"
     inkscape:document-units="px"
     inkscape:current-layer="layer1"
     showgrid="false"
     inkscape:window-width="1920"
     inkscape:window-height="1031"
     inkscape:window-x="0"
     inkscape:window-y="0"
     inkscape:window-maximized="1" />
  <metadata
     id="metadata7765">
    <rdf:RDF>
      <cc:Work
         rdf:about="">
        <dc:format>image/svg+xml</dc:format>
        <dc:type
           rdf:resource="http://purl.org/dc/dcmitype/StillImage" />
        <dc:title />
      </cc:Work>
    </rdf:RDF>
  </metadata>
  <g
     inkscape:label="Layer 1"
     inkscape:groupmode="layer"
     id="layer1"
     transform="translate(0,-1004.3622)">
    <path
       style="fill:#1a66d8;fill-opacity:1;stroke:none"
       d="M 24 6 C 14.058875 6 6 14.058875 6 24 C 6 33.941125 14.058875 42 24 42 C 33.941125 42 42 33.941125 42 24 C 42 14.058875 33.941125 6 24 6 z M 23 8.0625 L 23 23 L 19.125 23 C 18.892436 18.812984 17.233172 14.669027 14.09375 11.4375 C 16.570459 9.4827077 19.652551 8.2714575 23 8.0625 z M 25 8.0625 C 28.347449 8.2714575 31.429541 9.4827077 33.90625 11.4375 C 30.758556 14.67113 29.076493 18.807154 28.84375 23 L 25 23 L 25 8.0625 z M 12.59375 12.78125 C 15.402759 15.636657 16.924693 19.287176 17.15625 23 L 8.0625 23 C 8.3101916 19.032041 9.9744558 15.44427 12.59375 12.78125 z M 35.40625 12.78125 C 38.025544 15.44427 39.689808 19.032041 39.9375 23 L 30.875 23 C 31.106656 19.287328 32.597359 15.636492 35.40625 12.78125 z M 8.0625 25 L 17.15625 25 C 16.924731 28.712206 15.401863 32.363555 12.59375 35.21875 C 9.9744558 32.55573 8.3101916 28.967959 8.0625 25 z M 19.125 25 L 23 25 L 23 39.9375 C 19.637326 39.727592 16.54506 38.501474 14.0625 36.53125 C 17.210024 33.297783 18.892125 29.192622 19.125 25 z M 25 25 L 28.84375 25 C 29.076848 29.199241 30.749302 33.326668 33.90625 36.5625 C 31.429541 38.517292 28.347449 39.728542 25 39.9375 L 25 25 z M 30.875 25 L 39.9375 25 C 39.689808 28.967959 38.025544 32.55573 35.40625 35.21875 C 32.598255 32.363674 31.106618 28.712058 30.875 25 z "
       transform="translate(0,1004.3622)"
       id="path9207" />
  </g>
</svg>
