<?xml version="1.0" encoding="UTF-8" standalone="no"?>
<!-- Created with Inkscape (http://www.inkscape.org/) -->

<svg
   xmlns:dc="http://purl.org/dc/elements/1.1/"
   xmlns:cc="http://creativecommons.org/ns#"
   xmlns:rdf="http://www.w3.org/1999/02/22-rdf-syntax-ns#"
   xmlns:svg="http://www.w3.org/2000/svg"
   xmlns="http://www.w3.org/2000/svg"
   xmlns:sodipodi="http://sodipodi.sourceforge.net/DTD/sodipodi-0.dtd"
   xmlns:inkscape="http://www.inkscape.org/namespaces/inkscape"
   width="48"
   height="48"
   id="svg7760"
   version="1.1"
   inkscape:version="0.48.5 r10040"
   sodipodi:docname="cheerleading-blue.svg">
  <defs
     id="defs7762" />
  <sodipodi:namedview
     id="base"
     pagecolor="#ffffff"
     bordercolor="#666666"
     borderopacity="1.0"
     inkscape:pageopacity="0.0"
     inkscape:pageshadow="2"
     inkscape:zoom="17.604167"
     inkscape:cx="24"
     inkscape:cy="24"
     inkscape:document-units="px"
     inkscape:current-layer="layer1"
     showgrid="false"
     inkscape:window-width="1920"
     inkscape:window-height="1031"
     inkscape:window-x="0"
     inkscape:window-y="0"
     inkscape:window-maximized="1" />
  <metadata
     id="metadata7765">
    <rdf:RDF>
      <cc:Work
         rdf:about="">
        <dc:format>image/svg+xml</dc:format>
        <dc:type
           rdf:resource="http://purl.org/dc/dcmitype/StillImage" />
        <dc:title />
      </cc:Work>
    </rdf:RDF>
  </metadata>
  <g
     inkscape:label="Layer 1"
     inkscape:groupmode="layer"
     id="layer1"
     transform="translate(0,-1004.3622)">
    <path
       style="fill:#1a66d8;fill-opacity:1;stroke:none"
       d="M 13.8125,10.71875 C 9.7354763,10.548275 5.6914764,14.964609 4.5,21.0625 c -1.2709081,6.504417 1.1949714,12.465228 5.53125,13.3125 0.302242,0.05906 0.603122,0.08636 0.90625,0.09375 2.8326,-0.09456 6.022852,-0.420168 8.96875,-0.65625 0.277754,2.092459 2.152191,3.634159 4.28125,3.46875 l 7.96875,-0.625 c 2.128489,-0.165365 3.735585,-1.984025 3.6875,-4.09375 1.629965,-0.129385 3.263763,-0.320746 5,-0.46875 1.334151,-0.223187 2.553899,-1.571692 2.90625,-3.375 0.353264,-1.807981 -0.27678,-3.48807 -1.4375,-4.1875 C 33.049005,19.614983 23.625058,14.792808 15.5,11.0625 c -0.284637,-0.107727 -0.571709,-0.19074 -0.875,-0.25 -0.271017,-0.05296 -0.540698,-0.08239 -0.8125,-0.09375 z m -0.15625,2 c 0.204506,0.0052 0.390487,0.02278 0.59375,0.0625 3.252209,0.635454 5.02784,5.548402 3.96875,10.96875 -1.05909,5.420348 -4.560291,9.291704 -7.8125,8.65625 C 7.1540412,31.770796 5.3784099,26.857848 6.4375,21.4375 c 0.992897,-5.081576 4.151162,-8.796347 7.21875,-8.71875 z m 5.78125,2.46875 c 7.513624,3.855136 14.18747,7.185898 21.75,11 0.542035,0.105909 0.805568,1.07218 0.59375,2.15625 -0.208036,1.064711 -0.809118,1.853929 -1.34375,1.78125 -9.29535,0.746971 -17.036999,1.399502 -24.3125,1.96875 1.891444,-1.85476 3.414079,-4.650179 4.0625,-7.96875 0.64929,-3.32302 0.310459,-6.507622 -0.75,-8.9375 z M 33.84375,32.71875 C 33.81155,33.726151 33.027128,34.576451 32,34.65625 l -7.96875,0.625 c -1.027251,0.07981 -1.937554,-0.634695 -2.125,-1.625 z"
       transform="translate(0,1004.3622)"
       id="rect3441"
       inkscape:connector-curvature="0"
       sodipodi:nodetypes="sssccccccsccssssssssccsccscccccc" />
  </g>
</svg>
