<?xml version="1.0" encoding="UTF-8" standalone="no"?>
<!-- Created with Inkscape (http://www.inkscape.org/) -->

<svg
   xmlns:dc="http://purl.org/dc/elements/1.1/"
   xmlns:cc="http://creativecommons.org/ns#"
   xmlns:rdf="http://www.w3.org/1999/02/22-rdf-syntax-ns#"
   xmlns:svg="http://www.w3.org/2000/svg"
   xmlns="http://www.w3.org/2000/svg"
   xmlns:sodipodi="http://sodipodi.sourceforge.net/DTD/sodipodi-0.dtd"
   xmlns:inkscape="http://www.inkscape.org/namespaces/inkscape"
   width="48"
   height="48"
   id="svg7760"
   version="1.1"
   inkscape:version="0.48.5 r10040"
   sodipodi:docname="cycling-blue.svg">
  <defs
     id="defs7762" />
  <sodipodi:namedview
     id="base"
     pagecolor="#ffffff"
     bordercolor="#666666"
     borderopacity="1.0"
     inkscape:pageopacity="0.0"
     inkscape:pageshadow="2"
     inkscape:zoom="13.854167"
     inkscape:cx="24"
     inkscape:cy="24"
     inkscape:document-units="px"
     inkscape:current-layer="layer1"
     showgrid="false"
     inkscape:window-width="1440"
     inkscape:window-height="851"
     inkscape:window-x="0"
     inkscape:window-y="0"
     inkscape:window-maximized="1" />
  <metadata
     id="metadata7765">
    <rdf:RDF>
      <cc:Work
         rdf:about="">
        <dc:format>image/svg+xml</dc:format>
        <dc:type
           rdf:resource="http://purl.org/dc/dcmitype/StillImage" />
        <dc:title />
      </cc:Work>
    </rdf:RDF>
  </metadata>
  <g
     inkscape:label="Layer 1"
     inkscape:groupmode="layer"
     id="layer1"
     transform="translate(0,-1004.3622)">
    <path
       style="fill:#1a66d8;fill-opacity:1;stroke:none"
       d="M 24 6 C 14.058875 6 6 14.058875 6 24 C 6 33.941125 14.058875 42 24 42 C 33.941125 42 42 33.941125 42 24 C 42 14.058875 33.941125 6 24 6 z M 24 8 C 32.836556 8 40 15.163444 40 24 C 40 32.836556 32.836556 40 24 40 C 15.163444 40 8 32.836556 8 24 C 8 15.163444 15.163444 8 24 8 z M 24 10 C 16.268013 10 10 16.268013 10 24 C 10 31.731987 16.268013 38 24 38 C 31.731987 38 38 31.731987 38 24 C 38 16.268013 31.731987 10 24 10 z M 22.78125 12.0625 C 22.853466 12.055166 22.927411 12.068547 23 12.0625 L 23 19.09375 C 22.804707 19.133713 22.623774 19.21924 22.4375 19.28125 L 18.90625 13.15625 C 20.106473 12.58993 21.403045 12.202464 22.78125 12.0625 z M 25 12.0625 C 26.457909 12.183961 27.830637 12.560255 29.09375 13.15625 L 25.5625 19.28125 C 25.376226 19.21924 25.195293 19.133713 25 19.09375 L 25 12.0625 z M 17.15625 14.15625 L 20.6875 20.28125 C 20.54666 20.407062 20.407062 20.54666 20.28125 20.6875 L 14.15625 17.15625 C 14.974836 15.978392 15.978392 14.974836 17.15625 14.15625 z M 30.84375 14.15625 C 32.021608 14.974836 33.025164 15.978392 33.84375 17.15625 L 27.71875 20.6875 C 27.592938 20.54666 27.45334 20.407062 27.3125 20.28125 L 30.84375 14.15625 z M 13.15625 18.90625 L 19.28125 22.4375 C 19.21924 22.623774 19.133713 22.804707 19.09375 23 L 12.0625 23 C 12.183961 21.542091 12.560255 20.169363 13.15625 18.90625 z M 34.84375 18.90625 C 35.439745 20.169363 35.816039 21.542091 35.9375 23 L 28.90625 23 C 28.866287 22.804707 28.78076 22.623774 28.71875 22.4375 L 34.84375 18.90625 z M 24 21 C 25.656854 21 27 22.343146 27 24 C 27 25.656854 25.656854 27 24 27 C 22.343146 27 21 25.656854 21 24 C 21 22.343146 22.343146 21 24 21 z M 24 23 C 23.447715 23 23 23.447715 23 24 C 23 24.552285 23.447715 25 24 25 C 24.552285 25 25 24.552285 25 24 C 25 23.447715 24.552285 23 24 23 z M 12.0625 25 L 19.09375 25 C 19.133713 25.195293 19.21924 25.376226 19.28125 25.5625 L 13.15625 29.09375 C 12.560255 27.830637 12.183961 26.457909 12.0625 25 z M 28.90625 25 L 35.9375 25 C 35.816039 26.457909 35.439745 27.830637 34.84375 29.09375 L 28.71875 25.5625 C 28.78076 25.376226 28.866287 25.195293 28.90625 25 z M 20.28125 27.3125 C 20.407062 27.45334 20.54666 27.592938 20.6875 27.71875 L 17.15625 33.84375 C 15.978392 33.025164 14.974836 32.021608 14.15625 30.84375 L 20.28125 27.3125 z M 27.71875 27.3125 L 33.84375 30.84375 C 33.025164 32.021608 32.021608 33.025164 30.84375 33.84375 L 27.3125 27.71875 C 27.45334 27.592938 27.592938 27.45334 27.71875 27.3125 z M 22.4375 28.71875 C 22.623774 28.78076 22.804707 28.866287 23 28.90625 L 23 35.9375 C 21.542091 35.816039 20.169363 35.439745 18.90625 34.84375 L 22.4375 28.71875 z M 25.5625 28.71875 L 29.09375 34.84375 C 27.830637 35.439745 26.457909 35.816039 25 35.9375 L 25 28.90625 C 25.195293 28.866287 25.376226 28.78076 25.5625 28.71875 z "
       transform="translate(0,1004.3622)"
       id="path9207" />
  </g>
</svg>
