<?xml version="1.0" encoding="UTF-8" standalone="no"?>
<!-- Created with Inkscape (http://www.inkscape.org/) -->

<svg
   xmlns:dc="http://purl.org/dc/elements/1.1/"
   xmlns:cc="http://creativecommons.org/ns#"
   xmlns:rdf="http://www.w3.org/1999/02/22-rdf-syntax-ns#"
   xmlns:svg="http://www.w3.org/2000/svg"
   xmlns="http://www.w3.org/2000/svg"
   xmlns:sodipodi="http://sodipodi.sourceforge.net/DTD/sodipodi-0.dtd"
   xmlns:inkscape="http://www.inkscape.org/namespaces/inkscape"
   width="64"
   height="64"
   id="svg7760"
   version="1.1"
   inkscape:version="0.48.5 r10040"
   sodipodi:docname="cycling-blue.svg">
  <defs
     id="defs7762" />
  <sodipodi:namedview
     id="base"
     pagecolor="#ffffff"
     bordercolor="#666666"
     borderopacity="1.0"
     inkscape:pageopacity="0.0"
     inkscape:pageshadow="2"
     inkscape:zoom="8.3039858"
     inkscape:cx="-18.000004"
     inkscape:cy="9.9589674"
     inkscape:document-units="px"
     inkscape:current-layer="layer1"
     showgrid="false"
     inkscape:window-width="1440"
     inkscape:window-height="851"
     inkscape:window-x="0"
     inkscape:window-y="0"
     inkscape:window-maximized="1" />
  <metadata
     id="metadata7765">
    <rdf:RDF>
      <cc:Work
         rdf:about="">
        <dc:format>image/svg+xml</dc:format>
        <dc:type
           rdf:resource="http://purl.org/dc/dcmitype/StillImage" />
        <dc:title></dc:title>
      </cc:Work>
    </rdf:RDF>
  </metadata>
  <g
     inkscape:label="Layer 1"
     inkscape:groupmode="layer"
     id="layer1"
     transform="translate(0,-988.36218)">
    <path
       style="fill:#ffffff;fill-opacity:1"
       d="m 20.064534,1035.2224 c -2.75779,-0.4886 -5.03363,-2.5611 -5.84473,-5.3225 -0.30701,-1.0452 -0.29019,-2.9401 0.0365,-4.1184 0.67123,-2.4206 2.7435,-4.4394 5.23889,-5.1036 0.99047,-0.2636 2.8063,-0.2584 3.84073,0.011 2.45457,0.6393 4.36441,2.5149 5.20815,5.1146 0.33169,1.022 0.33582,3.0343 0.009,4.157 -0.67669,2.321 -2.57905,4.2965 -4.79735,4.9816 -1.09097,0.337 -2.6866,0.4581 -3.69075,0.2802 z m 3.52123,-2.5552 c 1.72228,-0.7911 2.94391,-2.5752 3.03833,-4.4371 0.11492,-2.2661 -1.0192,-4.1726 -3.05026,-5.1276 -4.38341,-2.061 -9.01379,2.5771 -6.94442,6.9559 0.63819,1.3504 1.8203,2.413 3.18459,2.8627 0.95247,0.314 2.80743,0.1891 3.77176,-0.2539 z m 17.71795,2.5576 c -3.61735,-0.6436 -6.09207,-3.6361 -6.09691,-7.3724 -0.002,-1.5451 0.34031,-2.7606 1.11103,-3.9454 1.44585,-2.2226 3.65981,-3.4332 6.2786,-3.4332 2.63386,0 4.82968,1.2005 6.27955,3.4332 1.48349,2.2844 1.49995,5.4496 0.041,7.8806 -0.64235,1.0703 -1.18665,1.6359 -2.24474,2.3325 -1.46171,0.9624 -3.64429,1.4115 -5.36852,1.1047 z m 2.85737,-2.3105 c 1.5436,-0.4584 3.03416,-1.9907 3.51651,-3.6149 0.70761,-2.3828 -0.60912,-5.165 -2.95829,-6.2507 -0.74016,-0.342 -1.03166,-0.3965 -2.12287,-0.3965 -1.08011,0 -1.38302,0.055 -2.07341,0.3789 -1.13736,0.533 -2.22942,1.6109 -2.71705,2.6818 -1.56232,3.4312 0.96405,7.3866 4.72981,7.4053 0.50775,0 1.23913,-0.089 1.6253,-0.2039 z m -13.12567,-2.6481 c -0.76571,-0.4253 -0.80334,-0.6104 -0.8531,-4.1964 l -0.0462,-3.3285 -2.48362,-1.3684 c -3.42267,-1.8857 -3.87019,-2.1842 -4.14597,-2.7654 -0.28605,-0.6028 -0.30284,-1.4995 -0.0395,-2.1086 0.10754,-0.2488 1.64124,-1.8862 3.40821,-3.6388 3.45735,-3.4291 3.56069,-3.5002 4.79836,-3.2993 0.94585,0.1535 1.06103,0.2898 3.57483,4.2321 l 0.94418,1.4807 2.47327,0 c 1.36031,0 2.58896,0.062 2.73035,0.1376 0.32634,0.1746 0.54444,0.8119 0.43394,1.2679 -0.0515,0.2125 -0.27792,0.4484 -0.57299,0.5971 -0.41793,0.2105 -0.8807,0.2437 -3.22848,0.2319 -1.50735,-0.01 -2.89874,-0.055 -3.09199,-0.1059 -0.24896,-0.065 -0.65609,-0.5546 -1.39692,-1.679 l -1.04555,-1.5869 -1.72417,1.72 -1.72416,1.72 1.57509,0.8261 c 0.8663,0.4543 1.77976,0.9639 2.02991,1.1325 0.82044,0.5528 0.88044,0.9166 0.87957,5.3337 -4.2e-4,2.3511 -0.0612,4.1853 -0.14917,4.5019 -0.25137,0.9052 -1.48243,1.3752 -2.34593,0.8957 z m 3.28817,-19.5553 c -1.0989,-0.3918 -1.7761,-1.3819 -1.7761,-2.5968 0,-3.4275 5.12235,-3.6939 5.45006,-0.2834 0.20029,2.0845 -1.70849,3.5808 -3.67396,2.8802 z"
       id="path3027"
       inkscape:connector-curvature="0" />
  </g>
</svg>
