<?xml version="1.0" encoding="UTF-8" standalone="no"?>
<!-- Created with Inkscape (http://www.inkscape.org/) -->

<svg
   xmlns:dc="http://purl.org/dc/elements/1.1/"
   xmlns:cc="http://creativecommons.org/ns#"
   xmlns:rdf="http://www.w3.org/1999/02/22-rdf-syntax-ns#"
   xmlns:svg="http://www.w3.org/2000/svg"
   xmlns="http://www.w3.org/2000/svg"
   xmlns:sodipodi="http://sodipodi.sourceforge.net/DTD/sodipodi-0.dtd"
   xmlns:inkscape="http://www.inkscape.org/namespaces/inkscape"
   width="48"
   height="48"
   id="svg7760"
   version="1.1"
   inkscape:version="0.48.5 r10040"
   sodipodi:docname="fieldhockey-blue.svg">
  <defs
     id="defs7762" />
  <sodipodi:namedview
     id="base"
     pagecolor="#ffffff"
     bordercolor="#666666"
     borderopacity="1.0"
     inkscape:pageopacity="0.0"
     inkscape:pageshadow="2"
     inkscape:zoom="13.854167"
     inkscape:cx="24"
     inkscape:cy="24"
     inkscape:document-units="px"
     inkscape:current-layer="layer1"
     showgrid="false"
     inkscape:window-width="1440"
     inkscape:window-height="851"
     inkscape:window-x="0"
     inkscape:window-y="0"
     inkscape:window-maximized="1" />
  <metadata
     id="metadata7765">
    <rdf:RDF>
      <cc:Work
         rdf:about="">
        <dc:format>image/svg+xml</dc:format>
        <dc:type
           rdf:resource="http://purl.org/dc/dcmitype/StillImage" />
        <dc:title />
      </cc:Work>
    </rdf:RDF>
  </metadata>
  <g
     inkscape:label="Layer 1"
     inkscape:groupmode="layer"
     id="layer1"
     transform="translate(0,-1004.3622)">
    <path
       style="fill:#1a66d8;fill-opacity:1;stroke:none"
       d="m 11.40625,7.75 c -0.257822,0.031992 -0.510854,0.1119288 -0.75,0.25 L 7.1875,10 c -0.9565852,0.552285 -1.3022847,1.793415 -0.75,2.75 l 13,22.5 c 1.786328,3.094011 5.083594,5 8.65625,5 1.898479,0 3.67553,-0.550055 5.1875,-1.46875 0.904822,0.904822 2.150538,1.46875 3.53125,1.46875 2.761424,0 5,-2.238576 5,-5 0,-2.325465 -1.568323,-4.253274 -3.71875,-4.8125 0.0011,-0.06226 0,-0.12497 0,-0.1875 0,-2.209139 -1.790861,-4 -4,-4 -2.209139,0 -4,1.790861 -4,4 0,1.104569 -0.895431,2 -2,2 -0.714531,0 -1.361484,-0.381198 -1.71875,-1 l -13,-22.5 c -0.414214,-0.7174389 -1.195283,-1.0959754 -1.96875,-1 z m 3.34375,7.375 1.15625,1.96875 -2.3125,4 L 12.4375,19.125 z m 2.3125,4 1.15625,2 -2.3125,4 -1.15625,-2 z m 2.3125,3.96875 5.28125,9.15625 c 0.714531,1.237604 2.008438,2 3.4375,2 2.209139,0 4,-1.790861 4,-4 0,-1.104569 0.895431,-2 2,-2 1.104569,0 2,0.895431 2,2 0,0.02121 1.65e-4,0.04133 0,0.0625 -2.416073,0.352747 -4.28125,2.423562 -4.28125,4.9375 0,0.644966 0.152625,1.277689 0.375,1.84375 -1.200573,0.719636 -2.592169,1.15625 -4.09375,1.15625 -2.858125,0 -5.477188,-1.524791 -6.90625,-4 l -4.125,-7.15625 z M 36.8125,32.25 c 1.656854,0 3,1.343146 3,3 0,1.656854 -1.343146,3 -3,3 -1.656854,0 -3,-1.343146 -3,-3 0,-1.656854 1.343146,-3 3,-3 z"
       transform="translate(0,1004.3622)"
       id="path3266"
       inkscape:connector-curvature="0"
       sodipodi:nodetypes="sccccscsscssssccsccccccccccccsssscscscccsssss" />
  </g>
</svg>
