<?xml version="1.0" encoding="UTF-8" standalone="no"?>
<!-- Created with Inkscape (http://www.inkscape.org/) -->

<svg
   xmlns:dc="http://purl.org/dc/elements/1.1/"
   xmlns:cc="http://creativecommons.org/ns#"
   xmlns:rdf="http://www.w3.org/1999/02/22-rdf-syntax-ns#"
   xmlns:svg="http://www.w3.org/2000/svg"
   xmlns="http://www.w3.org/2000/svg"
   xmlns:sodipodi="http://sodipodi.sourceforge.net/DTD/sodipodi-0.dtd"
   xmlns:inkscape="http://www.inkscape.org/namespaces/inkscape"
   width="48"
   height="48"
   id="svg7760"
   version="1.1"
   inkscape:version="0.48.5 r10040"
   sodipodi:docname="football-blue.svg">
  <defs
     id="defs7762" />
  <sodipodi:namedview
     id="base"
     pagecolor="#ffffff"
     bordercolor="#666666"
     borderopacity="1.0"
     inkscape:pageopacity="0.0"
     inkscape:pageshadow="2"
     inkscape:zoom="10.913574"
     inkscape:cx="15.831003"
     inkscape:cy="26.517076"
     inkscape:document-units="px"
     inkscape:current-layer="layer1"
     showgrid="false"
     inkscape:window-width="1440"
     inkscape:window-height="851"
     inkscape:window-x="0"
     inkscape:window-y="0"
     inkscape:window-maximized="1" />
  <metadata
     id="metadata7765">
    <rdf:RDF>
      <cc:Work
         rdf:about="">
        <dc:format>image/svg+xml</dc:format>
        <dc:type
           rdf:resource="http://purl.org/dc/dcmitype/StillImage" />
        <dc:title />
      </cc:Work>
    </rdf:RDF>
  </metadata>
  <g
     inkscape:label="Layer 1"
     inkscape:groupmode="layer"
     id="layer1"
     transform="translate(0,-1004.3622)">
    <path
       style="fill:#1a66d8;fill-opacity:1;stroke:none"
       d="m 33.811107,1018.5511 c -7.208454,-7.2085 -17.455982,-9.5392 -26.62699,-7.0048 -2.534435,9.171 -0.203677,19.4185 7.004776,26.627 7.208454,7.2084 17.455982,9.5392 26.62699,7.0048 2.534435,-9.171 0.203677,-19.4186 -7.004776,-26.627 z m -1.414214,1.4142 c 3.187014,3.187 5.361984,6.9949 6.496544,11.0485 -2.564609,1.2811 -4.976577,2.9879 -7.115262,5.1266 -2.138686,2.1386 -3.845463,4.5506 -5.126525,7.1152 -4.05362,-1.1345 -7.861529,-3.3095 -11.048543,-6.4965 -3.187014,-3.187 -5.361984,-6.9949 -6.496544,-11.0486 2.564609,-1.281 4.976577,-2.9878 7.115262,-5.1265 2.138686,-2.1387 3.845463,-4.5506 5.126525,-7.1153 4.05362,1.1346 7.861529,3.3096 11.048543,6.4966 z m -13.037281,-6.9385 c -1.160271,2.2141 -2.691184,4.2822 -4.552,6.143 -1.860816,1.8608 -3.928924,3.3917 -6.14299,4.552 -0.683223,-3.4862 -0.638684,-7.0744 0.154679,-10.5403 3.46594,-0.7934 7.054132,-0.8379 10.540311,-0.1547 z m 19.975766,19.9758 c 0.683223,3.4861 0.638684,7.0743 -0.154679,10.5403 -3.46594,0.7933 -7.054132,0.8379 -10.540311,0.1547 1.160271,-2.2141 2.691184,-4.2822 4.552,-6.143 1.860816,-1.8608 3.928924,-3.3918 6.14299,-4.552 z m -16.749592,-10.2973 -1.414213,1.4142 -1.414214,-1.4142 -1.414213,1.4142 1.414213,1.4143 -1.414213,1.4142 1.414213,1.4142 1.414214,-1.4142 1.414213,1.4142 -1.414213,1.4142 1.414213,1.4142 1.414214,-1.4142 1.414214,1.4142 -1.414214,1.4142 1.414214,1.4142 1.414213,-1.4142 1.414214,1.4142 1.414213,-1.4142 -1.414213,-1.4142 1.414213,-1.4142 -1.414213,-1.4142 -1.414214,1.4142 -1.414213,-1.4142 1.414213,-1.4142 -1.414213,-1.4142 L 24,1026.948 22.585786,1025.5338 24,1024.1195 l -1.414214,-1.4142 z"
       id="path3650-7"
       inkscape:connector-curvature="0" />
  </g>
</svg>
