<?xml version="1.0" encoding="UTF-8" standalone="no"?>
<!-- Created with Inkscape (http://www.inkscape.org/) -->

<svg
   xmlns:dc="http://purl.org/dc/elements/1.1/"
   xmlns:cc="http://creativecommons.org/ns#"
   xmlns:rdf="http://www.w3.org/1999/02/22-rdf-syntax-ns#"
   xmlns:svg="http://www.w3.org/2000/svg"
   xmlns="http://www.w3.org/2000/svg"
   xmlns:sodipodi="http://sodipodi.sourceforge.net/DTD/sodipodi-0.dtd"
   xmlns:inkscape="http://www.inkscape.org/namespaces/inkscape"
   width="60"
   height="60"
   id="svg7760"
   version="1.1"
   inkscape:version="0.48.5 r10040"
   sodipodi:docname="New document 116">
  <defs
     id="defs7762" />
  <sodipodi:namedview
     id="base"
     pagecolor="#ffffff"
     bordercolor="#666666"
     borderopacity="1.0"
     inkscape:pageopacity="0.0"
     inkscape:pageshadow="2"
     inkscape:zoom="14.066667"
     inkscape:cx="30"
     inkscape:cy="30"
     inkscape:document-units="px"
     inkscape:current-layer="layer1"
     showgrid="false"
     inkscape:window-width="1920"
     inkscape:window-height="1031"
     inkscape:window-x="0"
     inkscape:window-y="0"
     inkscape:window-maximized="1" />
  <metadata
     id="metadata7765">
    <rdf:RDF>
      <cc:Work
         rdf:about="">
        <dc:format>image/svg+xml</dc:format>
        <dc:type
           rdf:resource="http://purl.org/dc/dcmitype/StillImage" />
        <dc:title></dc:title>
      </cc:Work>
    </rdf:RDF>
  </metadata>
  <g
     inkscape:label="Layer 1"
     inkscape:groupmode="layer"
     id="layer1"
     transform="translate(0,-992.36218)">
    <g
       style="fill:#1a66d8;fill-opacity:1"
       transform="matrix(0.83376385,0,0,0.83376385,9.3283394,1001.6094)"
       id="g6579">
      <path
         style="fill:#1a66d8;fill-opacity:1"
         inkscape:connector-curvature="0"
         d="m 10.183,23.814 c 0.308,0.164 0.617,0.334 0.93,0.515 -0.283,0.43 -0.495,0.768 -0.625,0.977 -0.642,1.035 0.962,1.426 1.395,0.766 0.205,-0.274 0.417,-0.541 0.625,-0.812 0.192,0.147 0.384,0.295 0.584,0.471 1.128,0.984 1.825,-0.542 1.161,-1.055 -0.209,-0.161 -0.48,-0.385 -0.79,-0.63 0.531,-0.657 1.066,-1.296 1.605,-1.922 0.274,0.203 0.521,0.398 0.779,0.613 0.73,0.609 2.713,-0.259 1.401,-1.243 -0.322,-0.242 -0.654,-0.488 -0.986,-0.725 0.586,-0.649 1.172,-1.279 1.756,-1.885 0.448,0.307 0.815,0.572 1.068,0.752 0.647,0.462 2.537,-0.152 1.188,-1.239 -0.327,-0.264 -0.674,-0.521 -1.023,-0.766 0.752,-0.747 1.492,-1.454 2.217,-2.121 0.604,0.389 1.113,0.731 1.403,0.933 0.716,0.498 2.078,-0.583 0.826,-1.445 -0.281,-0.193 -0.611,-0.411 -0.957,-0.632 0.565,-0.496 1.118,-0.97 1.649,-1.406 0.435,0.236 0.843,0.462 1.163,0.637 1.06,0.579 2.05,-0.406 1.193,-1.212 -0.241,-0.227 -0.522,-0.436 -0.827,-0.636 0.588,-0.45 1.146,-0.86 1.659,-1.211 0.291,0.219 0.563,0.44 0.792,0.654 0.746,0.701 1.768,0.046 1.059,-0.649 C 29.216,10.335 28.952,10.085 28.662,9.836 29.087,9.576 29.476,9.355 29.802,9.2 31.293,8.49 30.127,7.772 29.389,7.929 28.647,8.189 27.919,8.5 27.206,8.845 26.919,8.712 26.628,8.619 26.34,8.59 25.952,8.58 24.755,9.081 25.344,9.289 c 0.184,0.064 0.364,0.154 0.547,0.238 -0.691,0.389 -1.372,0.809 -2.034,1.256 -0.277,-0.094 -0.554,-0.187 -0.856,-0.266 -1.223,-0.32 -2.464,0.862 -1.473,1.12 0.213,0.056 0.477,0.157 0.762,0.278 -0.527,0.405 -1.042,0.823 -1.543,1.252 -0.497,-0.276 -0.92,-0.488 -1.159,-0.562 -0.686,-0.213 -2.058,0.623 -1.037,1.166 0.302,0.16 0.619,0.34 0.938,0.525 -0.75,0.698 -1.463,1.41 -2.135,2.121 -0.371,-0.219 -0.707,-0.409 -0.969,-0.55 -0.881,-0.477 -2,0.88 -0.964,1.428 0.258,0.136 0.505,0.276 0.749,0.417 -0.573,0.647 -1.108,1.283 -1.604,1.898 -0.322,-0.203 -0.604,-0.366 -0.805,-0.455 -0.672,-0.299 -1.954,0.837 -0.763,1.588 0.162,0.102 0.309,0.195 0.452,0.287 -0.554,0.728 -1.038,1.399 -1.452,1.992 -0.328,-0.193 -0.67,-0.365 -1.021,-0.494 -0.783,-0.29 -1.491,0.915 -0.794,1.286 z"
         id="path6581" />
      <path
         style="fill:#1a66d8;fill-opacity:1"
         inkscape:connector-curvature="0"
         d="M 45.805,3.55 C 41.27,1.317 25.561,0.133 13.186,10.799 11.233,12.159 -2.807,25.643 3.038,45.592 4.925,46.738 21.316,52.959 37.832,36.893 49.123,25.908 49.652,8.767 45.805,3.55 z M 43.63,5.725 c 0.662,1.405 1.125,3.231 1.326,5.314 -0.084,0.366 -0.177,0.729 -0.271,1.087 -1.264,-2.139 -2.736,-5.749 -8.211,-7.407 2.989,0.006 5.462,0.479 7.156,1.006 z M 16.086,12.248 C 21.431,8.007 26.714,5.976 31.325,5.166 36.26,6.999 40.964,10.866 43.554,15.569 38.734,27.945 27.226,35.781 18.075,40.152 14.958,33.572 8.697,30.457 5.448,29.256 6.903,23.291 10.121,16.979 16.086,12.248 z M 4.67,33.714 c 3.809,1.938 8.037,5.087 9.427,8.198 -2.706,1.1 -5.006,1.844 -6.577,2.266 C 6.7,43.962 5.928,43.707 5.212,43.416 4.538,40.949 4.26,37.52 4.67,33.714 z m 30.986,1.005 C 26.436,42.945 18.1,45.206 11.709,44.838 32.221,38.211 41.366,26.174 44.773,17.423 43.934,23.271 41.205,29.77 35.656,34.719 z"
         id="path6583" />
    </g>
  </g>
</svg>
