<?xml version="1.0" encoding="UTF-8" standalone="no"?>
<!-- Created with Inkscape (http://www.inkscape.org/) -->

<svg
   xmlns:dc="http://purl.org/dc/elements/1.1/"
   xmlns:cc="http://creativecommons.org/ns#"
   xmlns:rdf="http://www.w3.org/1999/02/22-rdf-syntax-ns#"
   xmlns:svg="http://www.w3.org/2000/svg"
   xmlns="http://www.w3.org/2000/svg"
   xmlns:sodipodi="http://sodipodi.sourceforge.net/DTD/sodipodi-0.dtd"
   xmlns:inkscape="http://www.inkscape.org/namespaces/inkscape"
   width="48"
   height="48"
   id="svg7760"
   version="1.1"
   inkscape:version="0.48.5 r10040"
   sodipodi:docname="hockey-blue.svg">
  <defs
     id="defs7762" />
  <sodipodi:namedview
     id="base"
     pagecolor="#ffffff"
     bordercolor="#666666"
     borderopacity="1.0"
     inkscape:pageopacity="0.0"
     inkscape:pageshadow="2"
     inkscape:zoom="7.0333335"
     inkscape:cx="-7.7488145"
     inkscape:cy="40.238593"
     inkscape:document-units="px"
     inkscape:current-layer="layer1"
     showgrid="false"
     inkscape:window-width="1440"
     inkscape:window-height="851"
     inkscape:window-x="0"
     inkscape:window-y="0"
     inkscape:window-maximized="1" />
  <metadata
     id="metadata7765">
    <rdf:RDF>
      <cc:Work
         rdf:about="">
        <dc:format>image/svg+xml</dc:format>
        <dc:type
           rdf:resource="http://purl.org/dc/dcmitype/StillImage" />
        <dc:title />
      </cc:Work>
    </rdf:RDF>
  </metadata>
  <g
     inkscape:label="Layer 1"
     inkscape:groupmode="layer"
     id="layer1"
     transform="translate(0,-1004.3622)">
    <path
       style="fill:#1a66d8;fill-opacity:1;stroke:none"
       d="m 6.859375,1012.4716 -1.75,1 6,10.4063 c 1.786328,3.094 5.114844,5 8.6875,5 l 20.53125,0 c 2.209139,0 4,1.7908 4,4 l 0,2.375 c 0,2.2091 -1.790861,4 -4,4 l 0,-1 c 0,-1.1046 -3.581722,-2 -8,-2 -4.418278,0 -8,0.8954 -8,2 l 0,1 -2,0 c -2.858125,0 -5.508438,-1.5248 -6.9375,-4 l -12,-20.7813 -1.71875,1 12,20.7813 c 1.786328,3.094 5.083594,5 8.65625,5 l 2,0 0,1 c 0,1.1045 3.581722,2 8,2 4.418278,0 8,-0.8955 8,-2 l 0,-1 c 3.313708,0 6,-2.6863 6,-6 l 0,-2.375 c 0,-3.3137 -2.686292,-6 -6,-6 l -20.53125,0 c -2.858125,0 -5.508438,-1.5248 -6.9375,-4 l -6,-10.4063 z"
       id="rect5054-8"
       inkscape:connector-curvature="0" />
  </g>
</svg>
