<?xml version="1.0" encoding="UTF-8" standalone="no"?>
<!-- Created with Inkscape (http://www.inkscape.org/) -->

<svg
   xmlns:dc="http://purl.org/dc/elements/1.1/"
   xmlns:cc="http://creativecommons.org/ns#"
   xmlns:rdf="http://www.w3.org/1999/02/22-rdf-syntax-ns#"
   xmlns:svg="http://www.w3.org/2000/svg"
   xmlns="http://www.w3.org/2000/svg"
   xmlns:sodipodi="http://sodipodi.sourceforge.net/DTD/sodipodi-0.dtd"
   xmlns:inkscape="http://www.inkscape.org/namespaces/inkscape"
   width="60"
   height="60"
   id="svg7760"
   version="1.1"
   inkscape:version="0.48.5 r10040"
   sodipodi:docname="soccer-blue.svg">
  <defs
     id="defs7762" />
  <sodipodi:namedview
     id="base"
     pagecolor="#ffffff"
     bordercolor="#666666"
     borderopacity="1.0"
     inkscape:pageopacity="0.0"
     inkscape:pageshadow="2"
     inkscape:zoom="14.066667"
     inkscape:cx="30"
     inkscape:cy="30"
     inkscape:document-units="px"
     inkscape:current-layer="layer1"
     showgrid="false"
     inkscape:window-width="1920"
     inkscape:window-height="1031"
     inkscape:window-x="0"
     inkscape:window-y="0"
     inkscape:window-maximized="1" />
  <metadata
     id="metadata7765">
    <rdf:RDF>
      <cc:Work
         rdf:about="">
        <dc:format>image/svg+xml</dc:format>
        <dc:type
           rdf:resource="http://purl.org/dc/dcmitype/StillImage" />
        <dc:title></dc:title>
      </cc:Work>
    </rdf:RDF>
  </metadata>
  <g
     inkscape:label="Layer 1"
     inkscape:groupmode="layer"
     id="layer1"
     transform="translate(0,-992.36218)">
    <path
       inkscape:connector-curvature="0"
       id="path6783"
       d="m 26.513372,1041.845 c -0.34729,-0.151 -0.80877,-0.5653 -1.0255,-0.9208 -0.3616,-0.5931 -0.39414,-0.9805 -0.3948,-4.7004 l -7.9e-4,-4.054 -2.9593,-2.4509 c -1.6276,-1.348 -2.99018,-2.4201 -3.02793,-2.3823 -0.0378,0.038 -0.20335,1.6667 -0.36795,3.6199 -0.16467,1.9532 -0.3784,3.7594 -0.4751,4.0137 -0.24303,0.6392 -1.42433,1.4562 -6.0814,4.206 -3.5949504,2.1227 -4.1138104,2.3722 -4.9326504,2.3722 -1.26866,0 -2.09601,-0.7302 -2.2217796,-1.9611 -0.1505,-1.4727 0.2167296,-1.8248 4.6568796,-4.4654 2.1856704,-1.2998 4.0591304,-2.3931 4.1632504,-2.4297 0.10617,-0.037 0.33973,-2.7103 0.5321,-6.0918 0.40072,-7.0442 0.52232,-7.6294 1.89872,-9.1353 1.41363,-1.5468 6.97466,-6.636 7.80218,-7.1403 0.3938,-0.24 1.17867,-0.5398 1.74413,-0.6664 1.91727,-0.429 4.28392,0.4969 5.47602,2.1426 0.30497,0.4209 3.23337,3.3019 6.50758,6.402 3.27422,3.1001 6.10648,5.8606 6.2939,6.1345 0.23365,0.3413 0.3412,0.8798 0.34208,1.7127 0.002,1.0789 -0.066,1.2917 -0.60006,1.8999 -0.36314,0.4136 -0.8471,0.7277 -1.22172,0.7929 -0.3412,0.06 -3.68868,-0.281 -7.43886,-0.7564 -6.79574,-0.8617 -6.8204,-0.8665 -7.39262,-1.4387 -0.61888,-0.6189 -0.92612,-1.5952 -0.93353,-2.9666 l -0.005,-0.8632 -1.24769,1.1564 c -0.68621,0.636 -1.25798,1.2647 -1.27058,1.3971 -0.0133,0.1325 1.12307,1.2203 2.52372,2.4176 1.40063,1.1972 2.63213,2.3366 2.73665,2.5319 0.10866,0.2032 0.19001,2.4809 0.19001,5.3261 0,4.8035 -0.015,4.9893 -0.42376,5.5099 -0.40907,0.52 -1.44785,1.0859 -1.96452,1.0701 -0.13783,0 -0.53477,-0.1312 -0.88207,-0.2822 z m 7.76628,-20.8134 c -1.34388,-1.2838 -2.5094,-2.3385 -2.59003,-2.3439 -0.0807,0 -0.14667,0.9098 -0.14667,2.0338 l 0,2.0436 0.6353,0.1079 c 1.25215,0.2124 3.18875,0.4484 3.86063,0.4704 0.67687,0.022 0.65814,0 -1.75928,-2.3118 z m 16.78573,18.7969 c -1.65527,-0.8647 -3.74997,-3.6419 -6.40383,-8.4904 l -0.82744,-1.5117 0.92982,-0.5896 c 0.5114,-0.3244 0.97857,-0.5893 1.03815,-0.5888 0.0595,4e-4 0.98797,1.5479 2.06307,3.4388 2.8172,4.9549 3.92553,6.0966 5.6654,5.8356 1.12305,-0.1684 1.46945,0.095 1.46945,1.1188 0,0.6915 -0.0675,0.7961 -0.6779,1.0511 -1.04015,0.4347 -2.08124,0.3503 -3.25672,-0.2638 z m -17.95985,-28.7613 c -1.31186,-0.3991 -2.2285,-1.1426 -2.78713,-2.2608 -1.04582,-2.0934 -0.1565,-4.7668 1.92023,-5.7721 1.7769,-0.8602 3.81779,-0.428 5.15135,1.0909 0.80168,0.913 1.02253,1.5014 1.03542,2.7585 0.0285,2.7737 -2.756,4.9634 -5.31987,4.1835 z"
       style="fill:#1a66d8;fill-opacity:1" />
  </g>
</svg>
