<?xml version="1.0" encoding="UTF-8" standalone="no"?>
<!-- Created with Inkscape (http://www.inkscape.org/) -->

<svg
   xmlns:dc="http://purl.org/dc/elements/1.1/"
   xmlns:cc="http://creativecommons.org/ns#"
   xmlns:rdf="http://www.w3.org/1999/02/22-rdf-syntax-ns#"
   xmlns:svg="http://www.w3.org/2000/svg"
   xmlns="http://www.w3.org/2000/svg"
   xmlns:sodipodi="http://sodipodi.sourceforge.net/DTD/sodipodi-0.dtd"
   xmlns:inkscape="http://www.inkscape.org/namespaces/inkscape"
   width="60"
   height="60"
   id="svg7760"
   version="1.1"
   inkscape:version="0.48.5 r10040"
   sodipodi:docname="fieldhockey-white.svg">
  <defs
     id="defs7762" />
  <sodipodi:namedview
     id="base"
     pagecolor="#ffffff"
     bordercolor="#666666"
     borderopacity="1.0"
     inkscape:pageopacity="0.0"
     inkscape:pageshadow="2"
     inkscape:zoom="14.066667"
     inkscape:cx="21.078199"
     inkscape:cy="30"
     inkscape:document-units="px"
     inkscape:current-layer="layer1"
     showgrid="false"
     inkscape:window-width="1920"
     inkscape:window-height="1031"
     inkscape:window-x="0"
     inkscape:window-y="0"
     inkscape:window-maximized="1" />
  <metadata
     id="metadata7765">
    <rdf:RDF>
      <cc:Work
         rdf:about="">
        <dc:format>image/svg+xml</dc:format>
        <dc:type
           rdf:resource="http://purl.org/dc/dcmitype/StillImage" />
        <dc:title></dc:title>
      </cc:Work>
    </rdf:RDF>
  </metadata>
  <g
     inkscape:label="Layer 1"
     inkscape:groupmode="layer"
     id="layer1"
     transform="translate(0,-992.36218)">
    <g
       transform="matrix(0.79721745,0,0,0.79721745,10.070404,1002.4944)"
       id="g3207"
       style="fill:#1a66d8;fill-opacity:1">
      <path
         style="fill:#1a66d8;fill-opacity:1"
         inkscape:connector-curvature="0"
         d="m 31.2,47.5 c -5.4,0 -9.7,-1.6 -9.7,-3.6 v -5 c 0,-2 4.3,-3.6 9.7,-3.6 5.4,0 9.7,1.6 9.7,3.6 v 5 c 0,2 -4.4,3.6 -9.7,3.6 z m 0,-10 c 3.8,0 6.8,1 6.8,2.2 0,1.2 -3.1,2.2 -6.8,2.2 -3.8,0 -6.8,-1 -6.8,-2.2 -0.1,-1.3 3,-2.2 6.8,-2.2 z"
         id="path3209" />
      <path
         style="fill:#1a66d8;fill-opacity:1"
         inkscape:connector-curvature="0"
         d="m 43,3 c -0.9,1.7 -5.8,11.2 -8.4,16.3 -0.1,0.1 -0.1,0.1 -0.2,0.3 -0.7,1.4 -5,10.1 -7.9,10.1 -2.9,0 -12.1,-4.8 -15,-6 -1.6,-0.7 -6,-1.4 -8,4.6 -1.6,4.7 -2.8,8.3 1.4,10.6 1.8,1 7,4.2 14.4,5.9 V 41.5 C 15,40.1 10.2,38.8 5.5,36.1 4.8,35.7 4.1,33.8 6.1,29.6 c 0.4,-1.1 1.8,-4.9 5.4,-3.1 3.6,1.8 12.8,6.3 15.7,6 2.3,-0.2 5.6,-4.5 7.8,-8 0.4,-0.8 1.3,-0.2 1.7,0 -1,2.1 -3.8,5.6 -5.8,8.9 1.2,0 2.2,0 3,0 C 35.4,31 36.7,29 38,26.8 38.5,26 39.2,25.1 39.2,24.9 39.9,23.3 47.4,6.7 47.9,5.6 48.6,4.4 44.1,0.9 43,3 z"
         id="path3211" />
    </g>
  </g>
</svg>
