<?xml version="1.0" encoding="UTF-8" standalone="no"?>
<!-- Created with Inkscape (http://www.inkscape.org/) -->

<svg
   xmlns:dc="http://purl.org/dc/elements/1.1/"
   xmlns:cc="http://creativecommons.org/ns#"
   xmlns:rdf="http://www.w3.org/1999/02/22-rdf-syntax-ns#"
   xmlns:svg="http://www.w3.org/2000/svg"
   xmlns="http://www.w3.org/2000/svg"
   xmlns:sodipodi="http://sodipodi.sourceforge.net/DTD/sodipodi-0.dtd"
   xmlns:inkscape="http://www.inkscape.org/namespaces/inkscape"
   width="48"
   height="48"
   id="svg7760"
   version="1.1"
   inkscape:version="0.48.5 r10040"
   sodipodi:docname="lacrosse-blue.svg">
  <defs
     id="defs7762" />
  <sodipodi:namedview
     id="base"
     pagecolor="#ffffff"
     bordercolor="#666666"
     borderopacity="1.0"
     inkscape:pageopacity="0.0"
     inkscape:pageshadow="2"
     inkscape:zoom="13.854167"
     inkscape:cx="24"
     inkscape:cy="24"
     inkscape:document-units="px"
     inkscape:current-layer="layer1"
     showgrid="false"
     inkscape:window-width="1440"
     inkscape:window-height="851"
     inkscape:window-x="0"
     inkscape:window-y="0"
     inkscape:window-maximized="1" />
  <metadata
     id="metadata7765">
    <rdf:RDF>
      <cc:Work
         rdf:about="">
        <dc:format>image/svg+xml</dc:format>
        <dc:type
           rdf:resource="http://purl.org/dc/dcmitype/StillImage" />
        <dc:title />
      </cc:Work>
    </rdf:RDF>
  </metadata>
  <g
     inkscape:label="Layer 1"
     inkscape:groupmode="layer"
     id="layer1"
     transform="translate(0,-1004.3622)">
    <g
       id="g5948"
       transform="translate(-8.5768362,4.0950474)">
      <g
         transform="matrix(-1,0,0,1,60.571119,0)"
         id="g5891">
        <path
           inkscape:connector-curvature="0"
           id="path5436-7-5"
           d="m 39.647151,1006.071 c 3.325483,1.92 4.898866,5.8513 4.440162,9.9969 l 0.04994,0.101 -0.05831,0.038 c -0.21542,1.7725 -0.803203,3.5787 -1.787159,5.283 -1.965401,3.4042 -5.069945,5.5996 -8.272415,6.2657 l -2.625,4.5467 -1,1.732 c -0.888123,1.5383 -2.354869,2.5319 -3.966426,2.8701 -0.07958,0.017 -0.160266,0.028 -0.240505,0.042 l -1.109895,0.2974 -0.953125,1.6509 -0.866026,-0.5 -3,5.1961 -3.464101,-2 3,-5.1961 -0.866026,-0.5 0.953125,-1.6509 -0.297395,-1.1099 c -0.02845,-0.076 -0.05892,-0.1518 -0.08426,-0.229 -0.512961,-1.5647 -0.385799,-3.3318 0.502324,-4.8701 l 1,-1.732 2.625,-4.5467 c -1.008077,-3.1018 -0.641176,-6.8894 1.317148,-10.2813 2.4853,-4.3047 6.816511,-6.7349 10.835656,-6.5179 1.339748,0.072 2.671555,0.4238 3.867287,1.1141 z m 0.598677,3.0881 -1.624399,0.9385 0.0013,2.3102 2.739603,-1.5576 c -0.291515,-0.6193 -0.671823,-1.1897 -1.116546,-1.6911 z m -3.626481,-2.0938 c -0.34926,-0.073 -0.709535,-0.1347 -1.069151,-0.1481 -0.307242,-0.011 -0.615722,0.014 -0.926582,0.042 l 0.0052,3.1785 1.974278,-1.1696 0.01623,-1.9031 z m 5.366003,5.7683 -3.349799,1.9271 -0.02572,2.2945 3.551802,-2.0269 c 0.0284,-0.7566 -0.04189,-1.4902 -0.176282,-2.1947 z m -9.390962,-5.4218 c -0.669629,0.2366 -1.327485,0.5609 -1.961719,0.9603 l 0.0091,4.0467 1.958654,-1.1425 -0.006,-3.8645 z m 4.025699,3.8397 -2.001342,1.154 -0.01428,2.3372 2.001342,-1.1539 0.01428,-2.3373 z m 5.138881,6.2867 -3.147796,1.8272 0.0072,3.6126 c 0.715245,-0.7231 1.36677,-1.5548 1.914323,-2.5032 0.552596,-0.9572 0.956975,-1.9443 1.226302,-2.9366 z m -13.141323,-7.551 c -0.719818,0.7279 -1.366433,1.5542 -1.914323,2.5032 -0.548124,0.9494 -0.947348,1.9263 -1.210677,2.9094 l 3.132171,-1.8 -0.0072,-3.6126 z m 8.016564,5.9274 -2.001341,1.1539 -0.02572,2.2946 2.001342,-1.154 0.02572,-2.2945 z m -4.03243,-2.3281 -1.958654,1.1424 -0.01428,2.3373 1.974278,-1.1696 -0.0013,-2.3101 z m -3.987059,2.2807 -3.482051,2.0311 c -0.02554,0.7589 0.02384,1.5141 0.160657,2.2218 l 3.334174,-1.9 -0.01278,-2.3529 z m 7.99511,4.6521 -2.001342,1.1539 0.006,3.8646 c 0.683661,-0.2336 1.358006,-0.5677 2.004407,-0.9718 l -0.0091,-4.0467 z m -4.020993,-2.2854 -1.958653,1.1425 0.0013,2.3101 1.974278,-1.1695 -0.01697,-2.2831 z m 0.01831,4.5933 -2.001342,1.1539 0.0013,2.3102 2.001342,-1.154 -0.0013,-2.3101 z m -3.978304,-2.2969 -2.001342,1.1539 0.0013,2.3102 2.001342,-1.1539 -0.0013,-2.3102 z m -0.02438,4.6047 -1.958653,1.1425 -0.01428,2.3372 2.001342,-1.1539 -0.02841,-2.3258 z m -3.979726,-1.1069 -0.96875,1.6779 0.971514,-0.5577 -0.0028,-1.1202 z m 6.896953,4.0541 -0.913201,0.5192 0.007,1.0505 0.90625,-1.5697 z m -6.877222,-0.6508 -2.420973,1.3808 c -0.09123,0.7352 0.01863,1.4666 0.319971,2.1333 l 2.086719,-1.1768 0.01428,-2.3373 z m 3.989742,2.3396 -2.028405,1.1383 0.01278,2.3529 c 0.721008,-0.075 1.406072,-0.3199 1.991847,-0.7625 l 0.02378,-2.7287 z m -3.987058,2.2808 -0.796575,0.4422 c 0.117553,0.086 0.218463,0.1983 0.347636,0.2729 0.138252,0.08 0.294088,0.1186 0.4372,0.1802 l 0.01174,-0.8953 z"
           style="fill:#1a66d8;fill-opacity:1;stroke:none" />
      </g>
      <g
         transform="translate(-1.8934911,0.90887574)"
         id="g5944">
        <path
           style="fill:#1a66d8;fill-opacity:1;stroke:none"
           d="M 36.15625 10.84375 C 33.947111 10.84375 32.15625 12.634611 32.15625 14.84375 C 32.15625 17.052889 33.947111 18.84375 36.15625 18.84375 C 38.365389 18.84375 40.15625 17.052889 40.15625 14.84375 C 40.15625 12.634611 38.365389 10.84375 36.15625 10.84375 z M 36.15625 12.84375 C 37.26082 12.84375 38.15625 13.73918 38.15625 14.84375 C 38.15625 15.94832 37.26082 16.84375 36.15625 16.84375 C 35.05168 16.84375 34.15625 15.94832 34.15625 14.84375 C 34.15625 13.73918 35.05168 12.84375 36.15625 12.84375 z "
           transform="translate(10.470327,999.35828)"
           id="path5924" />
      </g>
    </g>
  </g>
</svg>
