<?xml version="1.0" encoding="UTF-8" standalone="no"?>
<!-- Created with Inkscape (http://www.inkscape.org/) -->

<svg
   xmlns:dc="http://purl.org/dc/elements/1.1/"
   xmlns:cc="http://creativecommons.org/ns#"
   xmlns:rdf="http://www.w3.org/1999/02/22-rdf-syntax-ns#"
   xmlns:svg="http://www.w3.org/2000/svg"
   xmlns="http://www.w3.org/2000/svg"
   xmlns:sodipodi="http://sodipodi.sourceforge.net/DTD/sodipodi-0.dtd"
   xmlns:inkscape="http://www.inkscape.org/namespaces/inkscape"
   width="64"
   height="64"
   id="svg7760"
   version="1.1"
   inkscape:version="0.48.5 r10040"
   sodipodi:docname="lacrosse-blue.svg">
  <defs
     id="defs7762" />
  <sodipodi:namedview
     id="base"
     pagecolor="#ffffff"
     bordercolor="#666666"
     borderopacity="1.0"
     inkscape:pageopacity="0.0"
     inkscape:pageshadow="2"
     inkscape:zoom="13.203125"
     inkscape:cx="32"
     inkscape:cy="32"
     inkscape:document-units="px"
     inkscape:current-layer="layer1"
     showgrid="false"
     inkscape:window-width="1920"
     inkscape:window-height="1031"
     inkscape:window-x="0"
     inkscape:window-y="0"
     inkscape:window-maximized="1" />
  <metadata
     id="metadata7765">
    <rdf:RDF>
      <cc:Work
         rdf:about="">
        <dc:format>image/svg+xml</dc:format>
        <dc:type
           rdf:resource="http://purl.org/dc/dcmitype/StillImage" />
        <dc:title />
      </cc:Work>
    </rdf:RDF>
  </metadata>
  <g
     inkscape:label="Layer 1"
     inkscape:groupmode="layer"
     id="layer1"
     transform="translate(0,-988.36218)">
    <g
       style="fill:#1a66d8;fill-opacity:1"
       transform="matrix(1.1936212,0,0,1.1936212,14.270522,1002.3626)"
       id="g6703">
      <path
         style="fill:#1a66d8;fill-opacity:1"
         inkscape:connector-curvature="0"
         d="m 20.92,28.605 -1.186,-2.498 c 0.233,-0.366 0.312,-0.809 0.095,-1.267 1.34,-4.969 1.304,-5.886 0.681,-7.196 C 19.887,16.332 18.256,12.899 17.846,12.038 19.461,5.27 18.205,3.549 17.584,2.79 13.14,-1.479 8.414,0.199 6.627,1.048 4.839,1.898 0.466,4.369 1.054,10.642 c 0.196,0.961 0.737,3.022 7.003,6.045 0.41,0.863 2.041,4.297 2.664,5.607 0.623,1.312 1.312,1.918 6.009,4.02 0.218,0.459 0.605,0.678 1.041,0.728 l 1.187,2.497 c 0.257,0.542 0.905,0.773 1.446,0.516 0.543,-0.259 0.774,-0.909 0.516,-1.45 z M 2.981,10.709 C 2.888,10.129 2.858,9.589 2.868,9.076 L 3.854,9.811 3.271,11.37 C 3.104,11.124 3.023,10.909 2.981,10.709 z m 1.671,-0.303 2.896,2.162 -0.586,1.547 C 5.508,13.295 4.585,12.664 3.996,12.153 L 4.652,10.406 z M 5.001,9.475 6.293,6.03 9.175,8.283 7.903,11.639 5.001,9.475 z m 2.73,-7.28 C 7.788,2.171 7.847,2.145 7.909,2.12 L 10.711,4.234 9.53,7.347 6.646,5.091 7.731,2.195 z M 5.855,4.475 5.129,3.905 C 5.578,3.474 6.039,3.132 6.46,2.864 L 5.855,4.475 z m 11.071,3.25 -1.137,-0.856 0.893,-2.4 c 0.291,0.486 0.461,1.325 0.244,3.256 z m -2.683,3.306 1.199,-3.229 1.337,1.01 c -0.149,0.981 -0.377,2.181 -0.702,3.652 l -1.834,-1.433 z m 0.75,-4.763 -3.135,-2.365 0.8,-2.109 c 1.027,0.305 2.136,0.895 3.285,1.913 l -0.95,2.561 z m -0.347,0.934 -1.193,3.211 -3.135,-2.45 1.187,-3.13 3.141,2.369 z m -4.683,1.696 3.141,2.455 -1.211,3.262 -3.194,-2.383 1.264,-3.334 z m 3.932,3.074 2.733,2.137 -1.155,3.177 -2.782,-2.074 1.204,-3.24 z m 3.39,3.128 c 0.242,0.511 0.479,1.009 0.672,1.416 0.492,1.036 0.521,1.998 0.252,2.812 L 16.271,17.884 17.285,15.1 z M 11.715,1.585 11.064,3.303 9.005,1.75 C 9.777,1.549 10.694,1.438 11.715,1.585 z M 4.479,4.611 5.503,5.412 4.203,8.88 2.967,7.958 C 3.195,6.566 3.781,5.466 4.479,4.611 z m 3.329,9.97 0.538,-1.419 3.2,2.387 -0.817,2.201 C 10.313,16.874 9.905,16.014 9.688,15.559 8.99,15.207 8.367,14.883 7.808,14.581 z m 3.773,4.963 c -0.086,-0.18 -0.181,-0.38 -0.28,-0.59 l 1.043,-2.81 2.788,2.078 -1.241,3.412 c -0.905,-0.251 -1.748,-0.907 -2.31,-2.09 z m 3.282,2.215 1.069,-2.938 1.844,1.375 c -0.659,0.945 -1.77,1.536 -2.913,1.563 z"
         id="path6705" />
      <path
         style="fill:#1a66d8;fill-opacity:1"
         inkscape:connector-curvature="0"
         d="m 24.645,6.711 c 2.242,0 4.062,1.819 4.062,4.062 0,2.243 -1.816,4.062 -4.062,4.062 -2.244,0 -4.062,-1.819 -4.062,-4.062 0,-2.243 1.817,-4.062 4.062,-4.062 z m 0,1.437 c 1.448,0 2.625,1.176 2.625,2.625 0,1.45 -1.177,2.625 -2.625,2.625 -1.451,0 -2.625,-1.175 -2.625,-2.625 0,-1.449 1.173,-2.625 2.625,-2.625 z"
         id="path6707" />
    </g>
  </g>
</svg>
