<?xml version="1.0" encoding="UTF-8" standalone="no"?>
<!-- Created with Inkscape (http://www.inkscape.org/) -->

<svg
   xmlns:dc="http://purl.org/dc/elements/1.1/"
   xmlns:cc="http://creativecommons.org/ns#"
   xmlns:rdf="http://www.w3.org/1999/02/22-rdf-syntax-ns#"
   xmlns:svg="http://www.w3.org/2000/svg"
   xmlns="http://www.w3.org/2000/svg"
   xmlns:sodipodi="http://sodipodi.sourceforge.net/DTD/sodipodi-0.dtd"
   xmlns:inkscape="http://www.inkscape.org/namespaces/inkscape"
   width="48"
   height="48"
   id="svg7760"
   version="1.1"
   inkscape:version="0.48.5 r10040"
   sodipodi:docname="soccer-blue.svg">
  <defs
     id="defs7762" />
  <sodipodi:namedview
     id="base"
     pagecolor="#ffffff"
     bordercolor="#666666"
     borderopacity="1.0"
     inkscape:pageopacity="0.0"
     inkscape:pageshadow="2"
     inkscape:zoom="13.203125"
     inkscape:cx="1.287574"
     inkscape:cy="31.840947"
     inkscape:document-units="px"
     inkscape:current-layer="layer1"
     showgrid="false"
     inkscape:window-width="1440"
     inkscape:window-height="851"
     inkscape:window-x="0"
     inkscape:window-y="0"
     inkscape:window-maximized="1" />
  <metadata
     id="metadata7765">
    <rdf:RDF>
      <cc:Work
         rdf:about="">
        <dc:format>image/svg+xml</dc:format>
        <dc:type
           rdf:resource="http://purl.org/dc/dcmitype/StillImage" />
        <dc:title />
      </cc:Work>
    </rdf:RDF>
  </metadata>
  <g
     inkscape:label="Layer 1"
     inkscape:groupmode="layer"
     id="layer1"
     transform="translate(0,-1004.3622)">
    <path
       style="fill:#1a66d8;fill-opacity:1;stroke:none"
       d="m 23.717151,1010.3762 c -1.770065,0.03 -3.574082,0.3225 -5.34375,0.9062 -9.4382319,3.1133 -14.5819879,13.2805 -11.4687499,22.7188 3.1132379,9.4382 13.3117679,14.5507 22.7499999,11.4375 9.438232,-3.1133 14.550738,-13.2805 11.4375,-22.7188 -2.529506,-7.6685 -9.704719,-12.4747 -17.375,-12.3437 z m -5.21875,2.9687 4.5,3.25 0,5.875 -4.25,3.125 -5.59375,-1.8125 -1.71875,-5.2812 c 1.77828,-2.2762 4.171728,-4.0958 7.0625,-5.1563 z m 10.96875,0 c 2.758318,1.0005 5.208047,2.7508 7.0625,5.0938 l -1.65625,5.2812 -5.59375,1.8438 -4.28125,-3.0625 0,-5.9063 4.46875,-3.25 z m 6.0625,12.2813 4.4375,3.1875 c -0.08302,3.0232 -1.019446,5.9316 -2.65625,8.4062 l -5.53125,0.031 -3.5,-4.75 1.625,-5 5.625,-1.875 z m -23,0.031 5.5625,1.8125 1.65625,5.0625 -3.4375,4.7813 -5.53125,0.031 c -0.8154949,-1.201 -1.4916909,-2.5224 -1.9687499,-3.9687 -0.484903,-1.4701 -0.727747,-2.9637 -0.78125,-4.4375 l 4.4999999,-3.2813 z m 14.125,8.0313 3.5,4.75 -1.6875,5.2812 c -2.959727,0.86 -5.965048,0.8446 -8.75,0.062 l -0.03125,0 -1.75,-5.3125 3.4375,-4.75 5.28125,-0.031 z"
       id="path4701"
       inkscape:connector-curvature="0" />
  </g>
</svg>
