<?xml version="1.0" encoding="UTF-8" standalone="no"?>
<!-- Created with Inkscape (http://www.inkscape.org/) -->

<svg
   xmlns:dc="http://purl.org/dc/elements/1.1/"
   xmlns:cc="http://creativecommons.org/ns#"
   xmlns:rdf="http://www.w3.org/1999/02/22-rdf-syntax-ns#"
   xmlns:svg="http://www.w3.org/2000/svg"
   xmlns="http://www.w3.org/2000/svg"
   xmlns:sodipodi="http://sodipodi.sourceforge.net/DTD/sodipodi-0.dtd"
   xmlns:inkscape="http://www.inkscape.org/namespaces/inkscape"
   width="64"
   height="64"
   id="svg7760"
   version="1.1"
   inkscape:version="0.48.5 r10040"
   sodipodi:docname="soccer-blue.svg">
  <defs
     id="defs7762" />
  <sodipodi:namedview
     id="base"
     pagecolor="#ffffff"
     bordercolor="#666666"
     borderopacity="1.0"
     inkscape:pageopacity="0.0"
     inkscape:pageshadow="2"
     inkscape:zoom="13.203125"
     inkscape:cx="32"
     inkscape:cy="32"
     inkscape:document-units="px"
     inkscape:current-layer="layer1"
     showgrid="false"
     inkscape:window-width="1920"
     inkscape:window-height="1031"
     inkscape:window-x="0"
     inkscape:window-y="0"
     inkscape:window-maximized="1" />
  <metadata
     id="metadata7765">
    <rdf:RDF>
      <cc:Work
         rdf:about="">
        <dc:format>image/svg+xml</dc:format>
        <dc:type
           rdf:resource="http://purl.org/dc/dcmitype/StillImage" />
        <dc:title></dc:title>
      </cc:Work>
    </rdf:RDF>
  </metadata>
  <g
     inkscape:label="Layer 1"
     inkscape:groupmode="layer"
     id="layer1"
     transform="translate(0,-988.36218)">
    <path
       style="fill:#ffffff;fill-opacity:1"
       inkscape:connector-curvature="0"
       d="m 31.999355,1002.3622 c -9.93993,0 -17.998668,8.0601 -17.998668,18.0013 0,9.9387 8.058738,17.9987 17.998668,17.9987 9.942506,0 17.999957,-8.06 17.999957,-17.9987 0.0029,-9.9412 -8.057451,-18.0013 -17.999957,-18.0013 z m 15.559047,20.45 c -1.174778,1.3202 -3.357056,2.3264 -4.619336,2.7484 -0.764307,-1.0191 -2.106362,-2.8436 -3.026369,-4.0866 0.178855,-2.3032 0.658806,-7.0564 0.748871,-9.1962 0.954753,-0.4516 2.470508,-1.0063 4.076342,-1.1735 1.89019,2.5992 3.010925,5.7967 3.010925,9.2592 0.0014,0.8313 -0.0643,1.6509 -0.190433,2.4487 z m -16.301481,0.8312 c -1.91207,-1.508 -5.538054,-4.5035 -7.002344,-5.5432 0.271497,-1.4861 0.85181,-5.013 1.150328,-6.7128 2.138532,-0.893 6.546844,-2.661 8.269763,-3.303 1.267421,0.8376 4.338825,3.1756 5.657718,4.1818 -0.133819,1.9905 -0.509543,6.247 -0.645932,8.2209 -1.466867,0.615 -5.981976,2.4988 -7.429533,3.1563 z m 0.742434,-19.0307 c 0.778469,0 1.544072,0.059 2.292942,0.1673 -0.211024,0.6099 -0.495387,1.4565 -0.723137,2.1154 -2.169413,0.7797 -7.177339,2.8063 -8.927281,3.5038 -1.129742,-0.2599 -2.968467,-0.6678 -4.130378,-0.8029 2.871965,-3.0651 6.956019,-4.9836 11.487854,-4.9836 z m -15.575773,13.4245 c 0.521127,0.8724 1.399957,2.3225 1.867034,3.1396 -0.371857,1.5775 -0.563578,3.958 -0.627917,5.6988 -0.90457,-1.9867 -1.412824,-4.1908 -1.412824,-6.5134 0,-0.79 0.06048,-1.5659 0.173707,-2.325 z m 2.466649,11.0529 c -0.169848,-3.1718 0.32168,-6.3757 0.602184,-7.9957 1.093714,-0.5623 2.790901,-1.445 3.86017,-1.9983 1.814274,1.4219 6.173691,4.7635 7.634121,5.8391 0,1.7217 0,4.4663 0.02059,5.8765 -1.767956,0.8364 -4.982186,2.1296 -8.025281,2.4577 -1.610982,-1.1259 -3.000636,-2.5452 -4.091779,-4.1793 z m 5.541912,5.0864 c 1.897917,-0.2908 5.305157,-0.938 7.416667,-2.2891 2.309668,0.7836 5.312875,0.8853 6.599598,0.8196 0,0.7039 0,1.6033 0,2.2158 -1.286723,0.7656 -4.102068,1.189 -6.226451,1.189 -2.743287,0 -5.541906,-0.7013 -7.789814,-1.9353 z m 15.302988,0.098 c 0,-0.781 0,-1.7113 0,-2.3997 0,-1.297 2.491094,-3.7123 3.423967,-5.0106 1.954529,-0.6008 3.350627,-1.3728 4.198576,-2.0072 -1.212096,4.075 -5.049096,7.4566 -7.622543,9.4175 z"
       id="path6642" />
  </g>
</svg>
