<?xml version="1.0" encoding="UTF-8" standalone="no"?>
<!-- Created with Inkscape (http://www.inkscape.org/) -->

<svg
   xmlns:dc="http://purl.org/dc/elements/1.1/"
   xmlns:cc="http://creativecommons.org/ns#"
   xmlns:rdf="http://www.w3.org/1999/02/22-rdf-syntax-ns#"
   xmlns:svg="http://www.w3.org/2000/svg"
   xmlns="http://www.w3.org/2000/svg"
   xmlns:sodipodi="http://sodipodi.sourceforge.net/DTD/sodipodi-0.dtd"
   xmlns:inkscape="http://www.inkscape.org/namespaces/inkscape"
   width="60"
   height="60"
   id="svg7760"
   version="1.1"
   inkscape:version="0.48.5 r10040"
   sodipodi:docname="football-blue.svg">
  <defs
     id="defs7762" />
  <sodipodi:namedview
     id="base"
     pagecolor="#ffffff"
     bordercolor="#666666"
     borderopacity="1.0"
     inkscape:pageopacity="0.0"
     inkscape:pageshadow="2"
     inkscape:zoom="14.066667"
     inkscape:cx="30"
     inkscape:cy="30"
     inkscape:document-units="px"
     inkscape:current-layer="layer1"
     showgrid="false"
     inkscape:window-width="1920"
     inkscape:window-height="1031"
     inkscape:window-x="0"
     inkscape:window-y="0"
     inkscape:window-maximized="1" />
  <metadata
     id="metadata7765">
    <rdf:RDF>
      <cc:Work
         rdf:about="">
        <dc:format>image/svg+xml</dc:format>
        <dc:type
           rdf:resource="http://purl.org/dc/dcmitype/StillImage" />
        <dc:title></dc:title>
      </cc:Work>
    </rdf:RDF>
  </metadata>
  <g
     inkscape:label="Layer 1"
     inkscape:groupmode="layer"
     id="layer1"
     transform="translate(0,-992.36218)">
    <path
       style="fill:#1a66d8;fill-opacity:1"
       inkscape:connector-curvature="0"
       d="m 29.999105,997.36218 c -13.805491,0 -24.9982107,11.19462 -24.9982107,25.00192 0,13.8037 11.1927197,24.9982 24.9982107,24.9982 13.80907,0 25,-11.1945 25,-24.9982 0.004,-13.8073 -11.19093,-25.00192 -25,-25.00192 z m 21.60984,28.40282 c -1.63164,1.8336 -4.66259,3.2311 -6.41576,3.8173 -1.06154,-1.4154 -2.92551,-3.9495 -4.2033,-5.6759 0.24841,-3.1989 0.91501,-9.8006 1.0401,-12.7725 1.32605,-0.6273 3.43127,-1.3976 5.6616,-1.6299 2.62527,3.61 4.18185,8.051 4.18185,12.8601 0.002,1.1545 -0.0893,2.2929 -0.26449,3.4009 z m -22.641,1.1545 c -2.65566,-2.0945 -7.69176,-6.2549 -9.725501,-7.6989 0.37708,-2.0641 1.183071,-6.9626 1.597681,-9.3234 2.97019,-1.2403 9.09286,-3.6958 11.48581,-4.5875 1.76031,1.1634 6.02616,4.4105 7.85796,5.8081 -0.18586,2.7646 -0.7077,8.6764 -0.89713,11.4179 -2.03732,0.8542 -8.30832,3.4706 -10.31882,4.3838 z m 1.03116,-26.4316 c 1.08121,0 2.14455,0.082 3.18465,0.2323 -0.29309,0.8471 -0.68804,2.023 -1.00436,2.9381 -3.01308,1.0829 -9.96855,3.8977 -12.399031,4.8664 -1.56909,-0.361 -4.12288,-0.9275 -5.73665,-1.1152 3.98885,-4.257 9.661161,-6.9216 15.955391,-6.9216 z M 8.3660343,1019.133 c 0.72379,1.2117 1.9443897,3.2258 2.5931097,4.3606 -0.51647,2.191 -0.78275,5.4972 -0.87211,7.9151 -1.2563497,-2.7593 -1.9622597,-5.8206 -1.9622597,-9.0464 0,-1.0973 0.084,-2.1749 0.24126,-3.2293 z m 3.4259097,15.3514 c -0.2359,-4.4053 0.44678,-8.8552 0.83637,-11.1052 1.51905,-0.781 3.87626,-2.0069 5.36136,-2.7754 2.519831,1.9748 8.574591,6.6159 10.602971,8.1099 0,2.3912 0,6.2031 0.0286,8.1618 -2.4555,1.1616 -6.91972,2.9577 -11.146251,3.4134 -2.23748,-1.5637 -4.16756,-3.5349 -5.68304,-5.8045 z m 7.69712,7.0644 c 2.636001,-0.4039 7.368291,-1.3028 10.300951,-3.1793 3.20788,1.0884 7.37901,1.2296 9.16613,1.1384 0,0.9776 0,2.2268 0,3.0775 -1.78712,1.0633 -5.69733,1.6513 -8.64787,1.6513 -3.81013,0 -7.69711,-0.974 -10.819211,-2.6879 z m 21.254201,0.1359 c 0,-1.0848 0,-2.3769 0,-3.333 0,-1.8014 3.45986,-5.1559 4.75552,-6.9591 2.71463,-0.8345 4.65366,-1.9068 5.83137,-2.7879 -1.68347,5.6598 -7.01265,10.3564 -10.58689,13.08 z"
       id="path6642" />
  </g>
</svg>
