<?xml version="1.0" encoding="UTF-8" standalone="no"?>
<!-- Created with Inkscape (http://www.inkscape.org/) -->

<svg
   xmlns:dc="http://purl.org/dc/elements/1.1/"
   xmlns:cc="http://creativecommons.org/ns#"
   xmlns:rdf="http://www.w3.org/1999/02/22-rdf-syntax-ns#"
   xmlns:svg="http://www.w3.org/2000/svg"
   xmlns="http://www.w3.org/2000/svg"
   xmlns:sodipodi="http://sodipodi.sourceforge.net/DTD/sodipodi-0.dtd"
   xmlns:inkscape="http://www.inkscape.org/namespaces/inkscape"
   width="48"
   height="48"
   id="svg7760"
   version="1.1"
   inkscape:version="0.48.5 r10040"
   sodipodi:docname="volleyball-blue.svg">
  <defs
     id="defs7762" />
  <sodipodi:namedview
     id="base"
     pagecolor="#ffffff"
     bordercolor="#666666"
     borderopacity="1.0"
     inkscape:pageopacity="0.0"
     inkscape:pageshadow="2"
     inkscape:zoom="6.6015625"
     inkscape:cx="-0.49230784"
     inkscape:cy="41.088757"
     inkscape:document-units="px"
     inkscape:current-layer="layer1"
     showgrid="false"
     inkscape:window-width="1440"
     inkscape:window-height="851"
     inkscape:window-x="0"
     inkscape:window-y="0"
     inkscape:window-maximized="1" />
  <metadata
     id="metadata7765">
    <rdf:RDF>
      <cc:Work
         rdf:about="">
        <dc:format>image/svg+xml</dc:format>
        <dc:type
           rdf:resource="http://purl.org/dc/dcmitype/StillImage" />
        <dc:title />
      </cc:Work>
    </rdf:RDF>
  </metadata>
  <g
     inkscape:label="Layer 1"
     inkscape:groupmode="layer"
     id="layer1"
     transform="translate(0,-1004.3622)">
    <path
       style="fill:#1a66d8;fill-opacity:1;stroke:none"
       d="m 24,1010.3622 c -9.941126,0 -18,8.0589 -18,18 0,9.9411 8.058874,18 18,18 9.941126,0 18,-8.0589 18,-18 0,-9.9411 -8.058874,-18 -18,-18 z m 0,2 c 0.682749,0 1.33976,0.073 2,0.1562 l 0,5.8438 -4,0 0,-5.8438 c 0.66024,-0.083 1.317251,-0.1562 2,-0.1562 z m -4,0.5312 0,5.4688 -2.65625,0 -1.34375,0 0,-3.8438 c 1.235787,-0.716 2.583454,-1.2587 4,-1.625 z m 8,0 c 1.416546,0.3663 2.764213,0.909 4,1.625 l 0,3.8438 -4,0 0,-5.4688 z m -14,2.9688 0,2.6875 c -2.478905,2.5261 -4,5.9937 -4,9.8125 0,3.8184 1.521613,7.2567 4,9.7812 l 0,2.7188 c -3.662768,-2.9321 -6,-7.4433 -6,-12.5 0,-5.0567 2.337232,-9.5679 6,-12.5 z m 20,0 c 3.662768,2.9321 6,7.4433 6,12.5 0,5.0567 -2.337232,9.5679 -6,12.5 l 0,-2.7813 c 2.452847,-2.5201 4,-5.9243 4,-9.7187 0,-3.8031 -1.537534,-7.2578 -4,-9.7813 l 0,-2.7187 z m -18.9375,4.5 17.84375,0 c 1.03592,1.1563 1.875996,2.5075 2.40625,4 l -22.625,0 c 0.524414,-1.4917 1.344646,-2.8441 2.375,-4 z m -2.875,6 23.625,0 c 0.11111,0.6533 0.1875,1.3159 0.1875,2 0,0.6867 -0.07581,1.3455 -0.1875,2 l -23.625,0 c -0.110281,-0.6545 -0.1875,-1.3133 -0.1875,-2 0,-0.6841 0.0778,-1.3467 0.1875,-2 z m 0.5,6 22.625,0 c -0.532859,1.4921 -1.364914,2.8463 -2.40625,4 l -17.84375,0 c -1.036476,-1.1537 -1.847727,-2.5079 -2.375,-4 z m 3.3125,6 1.375,0 2.625,0 0,5.4687 c -1.416546,-0.3662 -2.764213,-0.9089 -4,-1.625 l 0,-3.8437 z m 6,0 4,0 0,5.8437 c -0.66024,0.083 -1.317251,0.1563 -2,0.1563 -0.682749,0 -1.33976,-0.073 -2,-0.1563 l 0,-5.8437 z m 6,0 4,0 0,3.8437 c -1.235787,0.7161 -2.583454,1.2588 -4,1.625 l 0,-5.4687 z"
       id="path6049"
       inkscape:connector-curvature="0" />
  </g>
</svg>
