<?xml version="1.0" encoding="UTF-8" standalone="no"?>
<!-- Created with Inkscape (http://www.inkscape.org/) -->

<svg
   xmlns:dc="http://purl.org/dc/elements/1.1/"
   xmlns:cc="http://creativecommons.org/ns#"
   xmlns:rdf="http://www.w3.org/1999/02/22-rdf-syntax-ns#"
   xmlns:svg="http://www.w3.org/2000/svg"
   xmlns="http://www.w3.org/2000/svg"
   xmlns:sodipodi="http://sodipodi.sourceforge.net/DTD/sodipodi-0.dtd"
   xmlns:inkscape="http://www.inkscape.org/namespaces/inkscape"
   width="60"
   height="60"
   id="svg7760"
   version="1.1"
   inkscape:version="0.48.5 r10040"
   sodipodi:docname="lacrosse-blue.svg">
  <defs
     id="defs7762" />
  <sodipodi:namedview
     id="base"
     pagecolor="#ffffff"
     bordercolor="#666666"
     borderopacity="1.0"
     inkscape:pageopacity="0.0"
     inkscape:pageshadow="2"
     inkscape:zoom="14.066667"
     inkscape:cx="30"
     inkscape:cy="30"
     inkscape:document-units="px"
     inkscape:current-layer="layer1"
     showgrid="false"
     inkscape:window-width="1920"
     inkscape:window-height="1031"
     inkscape:window-x="0"
     inkscape:window-y="0"
     inkscape:window-maximized="1" />
  <metadata
     id="metadata7765">
    <rdf:RDF>
      <cc:Work
         rdf:about="">
        <dc:format>image/svg+xml</dc:format>
        <dc:type
           rdf:resource="http://purl.org/dc/dcmitype/StillImage" />
        <dc:title></dc:title>
      </cc:Work>
    </rdf:RDF>
  </metadata>
  <g
     inkscape:label="Layer 1"
     inkscape:groupmode="layer"
     id="layer1"
     transform="translate(0,-992.36218)">
    <g
       style="fill:#1a66d8;fill-opacity:1"
       transform="matrix(1.6293901,0,0,1.6293901,5.7969204,998.26133)"
       id="g6839">
      <path
         style="fill:#1a66d8;fill-opacity:1"
         inkscape:connector-curvature="0"
         d="m 28.967,24.545 c -1.215,-0.675 -2.75,-1.748 -3.684,-2.417 -0.285,-0.205 -0.664,-0.808 -0.738,-1.521 -0.125,-1.193 -0.307,-2.944 -0.412,-3.689 -0.101,-0.705 -0.773,-0.223 -1.934,0.477 -1.161,0.701 -0.963,0.486 -1.451,0.953 -0.457,2.488 -0.967,5.071 -0.967,6.674 0,0.65 -2.057,0.979 -1.934,-0.477 0.209,-2.492 0.344,-4.059 0.481,-6.674 0.045,-0.844 1.728,-2.188 2.899,-2.859 0.389,-0.184 1.031,-0.641 0.482,-1.43 -1.023,-1.478 -1.184,-2.327 -2.417,-0.953 -1.396,1.554 -1.687,2.024 -2.287,1.646 -0.685,-0.431 -1.239,-0.981 -1.097,-1.169 0.637,-0.837 4.003,-5.291 4.29,-5.683 0.286,-0.392 1.256,-0.847 1.995,-0.037 0.557,0.611 2.408,3.154 3.572,4.646 0.58,0.745 0.616,2.626 0.616,2.98 0,2.019 0,4.56 0,5.243 1.108,0.978 2.587,2.075 3.546,2.859 0.789,0.64 -0.34,1.775 -0.96,1.431 z M 15.431,16.918 C 13.814,15.65 11.475,14.02 10.114,13.106 9.938,12.988 8.946,13.502 8.179,14.059 c 0,0.487 0.056,1.029 0.968,1.907 0.91,0.876 1.464,1.63 1.934,2.382 0.469,0.754 2.859,5.561 2.9,6.723 0.021,0.591 -1.574,0.768 -1.934,0 -0.795,-1.69 -1.753,-3.922 -2.418,-4.813 -0.694,-0.834 -2.054,-2.424 -3.574,-3.396 -0.463,0 -0.989,-0.269 -1.12,0.662 -0.151,1.069 -0.623,3.883 -0.623,4.164 -0.064,0.416 -3.228,2.401 -4.352,2.858 -0.38,-0.056 -0.798,-1.747 0.03,-2.233 1.228,-0.707 2.388,-1.244 2.388,-2.057 0,-0.813 0,-3.749 0,-4.582 0,-0.833 0.408,-2.216 0.953,-2.573 2.161,-1.419 4.247,-3.021 4.858,-3.327 0.242,-0.121 1.338,-0.32 1.924,-0.003 3.16,2.888 4.834,4.25 7.25,6.196 0.485,0.435 -1.369,1.412 -1.932,0.951 z"
         id="path6841" />
      <path
         style="fill:#1a66d8;fill-opacity:1"
         inkscape:connector-curvature="0"
         d="m 17.848,4 c 1.068,0 1.936,0.854 1.936,1.906 0,1.053 -0.865,1.907 -1.936,1.907 -1.068,0 -1.934,-0.854 -1.934,-1.907 C 15.914,4.854 16.779,4 17.848,4 z"
         id="path6843" />
      <path
         style="fill:#1a66d8;fill-opacity:1"
         inkscape:connector-curvature="0"
         d="m 13.497,6.86 c 1.067,0 1.934,0.854 1.934,1.906 0,1.053 -0.866,1.906 -1.934,1.906 -1.068,0 -1.934,-0.853 -1.934,-1.906 0,-1.053 0.866,-1.906 1.934,-1.906 z"
         id="path6845" />
    </g>
  </g>
</svg>
