<?xml version="1.0" encoding="UTF-8" standalone="no"?>
<!-- Created with Inkscape (http://www.inkscape.org/) -->

<svg
   xmlns:dc="http://purl.org/dc/elements/1.1/"
   xmlns:cc="http://creativecommons.org/ns#"
   xmlns:rdf="http://www.w3.org/1999/02/22-rdf-syntax-ns#"
   xmlns:svg="http://www.w3.org/2000/svg"
   xmlns="http://www.w3.org/2000/svg"
   xmlns:sodipodi="http://sodipodi.sourceforge.net/DTD/sodipodi-0.dtd"
   xmlns:inkscape="http://www.inkscape.org/namespaces/inkscape"
   width="48"
   height="48"
   id="svg7760"
   version="1.1"
   inkscape:version="0.48.5 r10040"
   sodipodi:docname="wrestling-blue.svg">
  <defs
     id="defs7762" />
  <sodipodi:namedview
     id="base"
     pagecolor="#ffffff"
     bordercolor="#666666"
     borderopacity="1.0"
     inkscape:pageopacity="0.0"
     inkscape:pageshadow="2"
     inkscape:zoom="13.203125"
     inkscape:cx="-4.7715976"
     inkscape:cy="32"
     inkscape:document-units="px"
     inkscape:current-layer="layer1"
     showgrid="false"
     inkscape:window-width="1440"
     inkscape:window-height="851"
     inkscape:window-x="0"
     inkscape:window-y="0"
     inkscape:window-maximized="1" />
  <metadata
     id="metadata7765">
    <rdf:RDF>
      <cc:Work
         rdf:about="">
        <dc:format>image/svg+xml</dc:format>
        <dc:type
           rdf:resource="http://purl.org/dc/dcmitype/StillImage" />
        <dc:title />
      </cc:Work>
    </rdf:RDF>
  </metadata>
  <g
     inkscape:label="Layer 1"
     inkscape:groupmode="layer"
     id="layer1"
     transform="translate(0,-1004.3622)">
    <path
       style="fill:#1a66d8;fill-opacity:1;stroke:none"
       d="m 24,1010.3622 c -9.941125,0 -18,8.0589 -18,18 0,9.9412 8.058875,18 18,18 9.941125,0 18,-8.0588 18,-18 0,-9.9411 -8.058875,-18 -18,-18 z m 0,2 c 8.836556,0 16,7.1635 16,16 0,8.8366 -7.163444,16 -16,16 -8.836556,0 -16,-7.1634 -16,-16 0,-8.8365 7.163444,-16 16,-16 z m -13,10 0,12 2,0 0,-12 -2,0 z m 4,0 0,2 18,0 0,-2 -18,0 z m 20,0 0,12 2,0 0,-12 -2,0 z m -20,10 0,2 18,0 0,-2 -18,0 z"
       id="path6465"
       inkscape:connector-curvature="0" />
  </g>
</svg>
