<?xml version="1.0" encoding="UTF-8" standalone="no"?>
<!-- Created with Inkscape (http://www.inkscape.org/) -->

<svg
   xmlns:dc="http://purl.org/dc/elements/1.1/"
   xmlns:cc="http://creativecommons.org/ns#"
   xmlns:rdf="http://www.w3.org/1999/02/22-rdf-syntax-ns#"
   xmlns:svg="http://www.w3.org/2000/svg"
   xmlns="http://www.w3.org/2000/svg"
   xmlns:sodipodi="http://sodipodi.sourceforge.net/DTD/sodipodi-0.dtd"
   xmlns:inkscape="http://www.inkscape.org/namespaces/inkscape"
   width="373"
   height="770"
   id="svg7150"
   version="1.1"
   inkscape:version="0.48.5 r10040"
   sodipodi:docname="dashboard.svg">
  <defs
     id="defs7152" />
  <sodipodi:namedview
     inkscape:document-units="px"
     pagecolor="#ffffff"
     bordercolor="#666666"
     borderopacity="1.0"
     inkscape:pageopacity="0.0"
     inkscape:pageshadow="2"
     inkscape:zoom="0.87195775"
     inkscape:cx="186.5"
     inkscape:cy="385"
     inkscape:current-layer="layer1"
     id="namedview7154"
     showgrid="false"
     units="px"
     inkscape:window-width="1440"
     inkscape:window-height="855"
     inkscape:window-x="0"
     inkscape:window-y="0"
     inkscape:window-maximized="1" />
  <metadata
     id="metadata7156">
    <rdf:RDF>
      <cc:Work
         rdf:about="">
        <dc:format>image/svg+xml</dc:format>
        <dc:type
           rdf:resource="http://purl.org/dc/dcmitype/StillImage" />
        <dc:title />
      </cc:Work>
    </rdf:RDF>
  </metadata>
  <g
     inkscape:label="Layer 1"
     inkscape:groupmode="layer"
     id="layer1"
     transform="translate(0,-220)">
    <g
       transform="matrix(0.95652441,0,0,0.95652441,952.79544,163.15517)"
       id="g6164-5-1-1">
      <rect
         ry="56"
         y="60.871758"
         x="-995.86841"
         height="802.11127"
         width="389.48718"
         id="rect5630-6-9-9-2"
         style="fill:#274663;fill-opacity:1;stroke:none" />
      <rect
         ry="50"
         y="67.144463"
         x="-989.59564"
         height="789.56586"
         width="376.94165"
         id="rect5630-6-6-7"
         style="fill:#ffffff;fill-opacity:1;stroke:none" />
      <rect
         ry="0"
         y="160.83734"
         x="-971.53345"
         height="602.18011"
         width="340.81723"
         id="rect5630-2-3-7-8"
         style="fill:#274663;fill-opacity:1;stroke:none" />
      <path
         transform="matrix(1.1892012,0,0,1.1892012,142.35507,-145.64875)"
         d="m -768.75742,803.49115 c 0,13.5947 -11.02068,24.61538 -24.61538,24.61538 -13.5947,0 -24.61539,-11.02068 -24.61539,-24.61538 0,-13.5947 11.02069,-24.61539 24.61539,-24.61539 13.5947,0 24.61538,11.02069 24.61538,24.61539 z"
         sodipodi:ry="24.615385"
         sodipodi:rx="24.615385"
         sodipodi:cy="803.49115"
         sodipodi:cx="-793.3728"
         id="path6158-7-1-6-1"
         style="fill:#274663;fill-opacity:1;stroke:none"
         sodipodi:type="arc" />
      <path
         transform="matrix(1.0617868,0,0,1.0617868,41.267953,-43.272409)"
         d="m -768.75742,803.49115 c 0,13.5947 -11.02068,24.61538 -24.61538,24.61538 -13.5947,0 -24.61539,-11.02068 -24.61539,-24.61538 0,-13.5947 11.02069,-24.61539 24.61539,-24.61539 13.5947,0 24.61538,11.02069 24.61538,24.61539 z"
         sodipodi:ry="24.615385"
         sodipodi:rx="24.615385"
         sodipodi:cy="803.49115"
         sodipodi:cx="-793.3728"
         id="path6158-7-2-6"
         style="fill:#f2f2f2;fill-opacity:1;stroke:none"
         sodipodi:type="arc" />
      <path
         transform="matrix(0.69565218,0,0,0.69565218,-265.08875,32.858921)"
         d="m -849.23077,116.62722 c 0,6.01304 -4.87454,10.88757 -10.88758,10.88757 -6.01304,0 -10.88757,-4.87453 -10.88757,-10.88757 0,-6.01304 4.87453,-10.88757 10.88757,-10.88757 6.01304,0 10.88758,4.87453 10.88758,10.88757 z"
         sodipodi:ry="10.887574"
         sodipodi:rx="10.887574"
         sodipodi:cy="116.62722"
         sodipodi:cx="-860.11835"
         id="path6160-3-5-0"
         style="fill:#274663;fill-opacity:1;stroke:none"
         sodipodi:type="arc" />
      <rect
         ry="3.3136094"
         y="110.67729"
         x="-832.36743"
         height="6.6272187"
         width="62.485207"
         id="rect6162-8-5-9"
         style="fill:#274663;fill-opacity:1;stroke:none" />
      <g
         transform="matrix(0.98833788,0,0,0.98833788,-67.703209,325.3494)"
         id="g4133-8-8-3"
         inkscape:export-filename="/Users/bdharva/Dropbox/Jolt/Administrative/Support/Techstars/Graphics/screen2.png"
         inkscape:export-xdpi="80.775002"
         inkscape:export-ydpi="80.775002">
        <rect
           inkscape:export-ydpi="90"
           inkscape:export-xdpi="90"
           inkscape:export-filename="/Users/bdharva/Dropbox/Jolt/Software/website/assets/screen1.png"
           ry="1.5876179"
           y="-78.656898"
           x="-911.32178"
           height="517.52411"
           width="338.492"
           id="rect3109-1-5-2-2-2-5-1-5-4"
           style="fill:#e6e6e6;fill-opacity:1;stroke:none" />
        <g
           inkscape:export-ydpi="90"
           inkscape:export-xdpi="90"
           inkscape:export-filename="/Users/bdharva/Dropbox/Jolt/Software/website/assets/screen1.png"
           id="g3639-6-8-1"
           transform="matrix(1.0577875,0,0,1.0577875,-1909.7115,-445.87489)">
          <rect
             ry="1.3225805"
             y="347.15668"
             x="943.84711"
             height="431.12845"
             width="320"
             id="rect3109-1-5-2-11-2-6"
             style="fill:#e6e6e6;fill-opacity:1;stroke:none" />
          <g
             id="g3318-3-1-3-5"
             transform="translate(-52.879089,7.6821899)">
            <rect
               ry="0.24541746"
               y="349.47449"
               x="1006.7262"
               height="80"
               width="300"
               id="rect3109-1-5-1-7-0-8-8"
               style="fill:#ffffff;fill-opacity:1;stroke:none" />
            <g
               id="g3358-6-4-9-7"
               transform="translate(20,2.4921875)">
              <text
                 sodipodi:linespacing="130%"
                 id="text3333-0-4-6-8"
                 y="385.11511"
                 x="1006.5543"
                 style="font-size:22px;font-style:normal;font-variant:normal;font-weight:500;font-stretch:normal;text-align:justify;line-height:129.99999523%;letter-spacing:0px;word-spacing:0px;writing-mode:lr-tb;text-anchor:start;fill:#ec5d57;fill-opacity:1;stroke:none;font-family:Roboto;-inkscape-font-specification:Roboto Medium"
                 xml:space="preserve"><tspan
                   y="385.11511"
                   x="1006.5543"
                   id="tspan3335-8-1-3-6"
                   sodipodi:role="line">John Anderson</tspan></text>
              <text
                 sodipodi:linespacing="130%"
                 id="text3333-7-8-2-3-6"
                 y="404.49011"
                 x="1007.751"
                 style="font-size:22px;font-style:normal;font-variant:normal;font-weight:500;font-stretch:normal;text-align:justify;line-height:129.99999523%;letter-spacing:0px;word-spacing:0px;writing-mode:lr-tb;text-anchor:start;fill:#ec5d57;fill-opacity:1;stroke:none;font-family:Roboto;-inkscape-font-specification:Roboto Medium"
                 xml:space="preserve"><tspan
                   style="font-size:16px;font-style:normal;font-variant:normal;font-weight:normal;font-stretch:normal;text-align:justify;line-height:129.99999523%;writing-mode:lr-tb;text-anchor:start;fill:#ec5d57;fill-opacity:1;font-family:Roboto;-inkscape-font-specification:Roboto"
                   y="404.49011"
                   x="1007.751"
                   id="tspan3335-5-8-9-0-9"
                   sodipodi:role="line">Evaluate Now</tspan></text>
            </g>
            <path
               transform="matrix(1.0878,0,0,1.0878,1056.2462,17.754894)"
               d="m 221.07006,341.71686 c 0,15.23124 -12.34736,27.5786 -27.5786,27.5786 -15.23125,0 -27.5786,-12.34736 -27.5786,-27.5786 0,-15.23124 12.34735,-27.5786 27.5786,-27.5786 15.23124,0 27.5786,12.34736 27.5786,27.5786 z"
               sodipodi:ry="27.5786"
               sodipodi:rx="27.5786"
               sodipodi:cy="341.71686"
               sodipodi:cx="193.49146"
               id="path2987-44-28-1-7-5-7-8-6-17-2"
               style="fill:#ec5d57;fill-opacity:1;stroke:none"
               sodipodi:type="arc" />
            <g
               id="g6458-6-9-5-4-6-5"
               transform="translate(898.21485,328.4809)">
              <rect
                 y="52.993587"
                 x="367.01135"
                 height="16"
                 width="3"
                 id="rect6438-4-9-4-3-5-0"
                 style="fill:#ffffff;fill-opacity:1;stroke:none" />
              <rect
                 transform="matrix(0,1,-1,0,0,0)"
                 y="-376.51135"
                 x="59.493587"
                 height="16"
                 width="3"
                 id="rect6438-3-3-4-8-7-5-4"
                 style="fill:#ffffff;fill-opacity:1;stroke:none" />
            </g>
          </g>
          <g
             id="g3318-1-5-0-9"
             transform="translate(-52.879089,97.68219)">
            <rect
               ry="0.24541746"
               y="349.47449"
               x="1006.7262"
               height="80"
               width="300"
               id="rect3109-1-5-1-1-6-3-2"
               style="fill:#ffffff;fill-opacity:1;stroke:none" />
            <path
               transform="matrix(1.0878,0,0,1.0878,1056.2462,17.754894)"
               d="m 221.07006,341.71686 c 0,15.23124 -12.34736,27.5786 -27.5786,27.5786 -15.23125,0 -27.5786,-12.34736 -27.5786,-27.5786 0,-15.23124 12.34735,-27.5786 27.5786,-27.5786 15.23124,0 27.5786,12.34736 27.5786,27.5786 z"
               sodipodi:ry="27.5786"
               sodipodi:rx="27.5786"
               sodipodi:cy="341.71686"
               sodipodi:cx="193.49146"
               id="path2987-44-28-1-7-5-7-8-6-7-7-6-9"
               style="fill:#e6e6e6;fill-opacity:1;stroke:none"
               sodipodi:type="arc" />
            <g
               id="g3358-7-1-0-9"
               transform="translate(20,2.4921875)">
              <text
                 sodipodi:linespacing="130%"
                 id="text3333-9-9-8-2"
                 y="385.11511"
                 x="1006.5543"
                 style="font-size:22px;font-style:normal;font-variant:normal;font-weight:500;font-stretch:normal;text-align:justify;line-height:129.99999523%;letter-spacing:0px;word-spacing:0px;writing-mode:lr-tb;text-anchor:start;fill:#4d4d4d;fill-opacity:1;stroke:none;font-family:Roboto;-inkscape-font-specification:Roboto Medium"
                 xml:space="preserve"><tspan
                   y="385.11511"
                   x="1006.5543"
                   id="tspan3335-6-9-2-3"
                   sodipodi:role="line">Jake McKinley</tspan></text>
              <text
                 sodipodi:linespacing="130%"
                 id="text3333-7-4-7-1-2"
                 y="404.49011"
                 x="1007.751"
                 style="font-size:22px;font-style:normal;font-variant:normal;font-weight:500;font-stretch:normal;text-align:justify;line-height:129.99999523%;letter-spacing:0px;word-spacing:0px;writing-mode:lr-tb;text-anchor:start;fill:#666666;fill-opacity:1;stroke:none;font-family:Roboto;-inkscape-font-specification:Roboto Medium"
                 xml:space="preserve"><tspan
                   style="font-size:16px;font-style:normal;font-variant:normal;font-weight:normal;font-stretch:normal;text-align:justify;line-height:129.99999523%;writing-mode:lr-tb;text-anchor:start;fill:#666666;font-family:Roboto;-inkscape-font-specification:Roboto"
                   y="404.49011"
                   x="1007.751"
                   id="tspan3335-5-0-9-8-6"
                   sodipodi:role="line">6 impacts, below average</tspan></text>
            </g>
            <path
               transform="matrix(0.43511999,0,0,0.43511999,1182.5342,240.78666)"
               d="m 221.07006,341.71686 c 0,15.23124 -12.34736,27.5786 -27.5786,27.5786 -15.23125,0 -27.5786,-12.34736 -27.5786,-27.5786 0,-15.23124 12.34735,-27.5786 27.5786,-27.5786 15.23124,0 27.5786,12.34736 27.5786,27.5786 z"
               sodipodi:ry="27.5786"
               sodipodi:rx="27.5786"
               sodipodi:cy="341.71686"
               sodipodi:cx="193.49146"
               id="path2987-44-28-1-7-5-7-8-9-9-3-4-8"
               style="fill:#1a66d8;fill-opacity:1;stroke:none"
               sodipodi:type="arc" />
          </g>
          <rect
             ry="0.24541745"
             y="267.15668"
             x="943.84711"
             height="80"
             width="320"
             id="rect3109-1-5-2-1-0-4-2"
             style="fill:#1a66d8;fill-opacity:1;stroke:none" />
          <g
             id="g3579-0-8-2"
             transform="translate(-392.8703,23.207001)">
            <rect
               style="fill:#1a66d8;fill-opacity:1;stroke:none"
               id="rect2985-8-3-4-1-32-8-1"
               width="320"
               height="76"
               x="1336.7174"
               y="247.94966" />
            <rect
               style="fill:#1a66d8;fill-opacity:1;stroke:none"
               id="rect2985-8-6-63-1-5"
               width="320"
               height="16"
               x="1336.7174"
               y="247.94966" />
            <rect
               style="fill:#1a66d8;fill-opacity:1;stroke:none"
               id="rect2985-8-3-7-7-9-3"
               width="320"
               height="60"
               x="1336.7174"
               y="263.94968" />
            <path
               inkscape:connector-curvature="0"
               id="path6755-8-4-3-0-1-2-9-8-4-3-6-7-77-2-8-9-9-3"
               d="m 1376.6986,281.96403 c -3.0697,0 -6.1257,1.1799 -8.468,3.5221 -4.6843,4.6844 -4.6843,12.2515 0,16.9358 4.6845,4.6845 12.2891,4.6845 16.9735,0 4.6844,-4.6843 4.6844,-12.2514 0,-16.9358 -2.3422,-2.3422 -5.4356,-3.5221 -8.5055,-3.5221 z m 0,1.9858 c 2.2487,10e-5 4.4966,0.7408 6.3323,2.2481 l -1.4238,1.4613 c -1.436,-1.1168 -3.1797,-1.686 -4.9085,-1.686 -1.7318,0 -3.4334,0.5654 -4.8709,1.686 l -1.4613,-1.4613 c 1.8357,-1.5073 4.0836,-2.2481 6.3322,-2.2481 z m -7.7185,3.672 1.4238,1.4613 c -2.2438,2.8758 -2.2388,6.9007 0,9.7795 l -1.4238,1.4236 c -3.0065,-3.6706 -3.0065,-8.9938 0,-12.6644 z m 15.4746,0 c 3.0065,3.6706 3.0065,8.9938 0,12.6644 l -1.4238,-1.4236 c 2.2388,-2.8788 2.2438,-6.9037 0,-9.7795 l 1.4238,-1.4613 z m -7.7561,0.3372 c 1.5349,0 3.1003,0.5899 4.2715,1.7611 2.3422,2.3421 2.3422,6.1631 0,8.5054 -2.3423,2.3423 -6.1633,2.3423 -8.5054,0 -2.3422,-2.3423 -2.3422,-6.1633 0,-8.5054 1.1711,-1.1712 2.699,-1.7611 4.2339,-1.7611 z m -4.9083,12.3272 c 2.879,2.2465 6.9376,2.2465 9.8168,0 l 1.4238,1.4239 c -3.6724,3.0159 -8.992,3.0159 -12.6645,0 l 1.4239,-1.4239 z"
               style="fill:#ffffff;fill-opacity:1;stroke:none"
               inkscape:export-filename="/Users/bdharva/Dropbox/Jolt/software/jolt.github.io/assets/favicon.png"
               inkscape:export-xdpi="112.37"
               inkscape:export-ydpi="112.37" />
            <text
               xml:space="preserve"
               style="font-size:18px;font-style:normal;font-variant:normal;font-weight:500;font-stretch:normal;text-align:center;line-height:129.99999523%;letter-spacing:0px;word-spacing:0px;writing-mode:lr-tb;text-anchor:middle;fill:#f9f9f9;fill-opacity:1;stroke:none;font-family:Roboto;-inkscape-font-specification:Roboto Medium"
               x="1496.9723"
               y="300.71286"
               id="text5399-3-1-8-1-1-2"
               sodipodi:linespacing="130%"><tspan
                 sodipodi:role="line"
                 id="tspan5401-8-8-5-9-9-7"
                 x="1496.9723"
                 y="300.71286"
                 style="font-size:18px;font-style:normal;font-variant:normal;font-weight:500;font-stretch:normal;text-align:center;line-height:129.99999523%;writing-mode:lr-tb;text-anchor:middle;font-family:Roboto;-inkscape-font-specification:Roboto Medium">Dashboard</tspan></text>
            <g
               id="g6458-6-1-4-1"
               transform="translate(1248.2061,232.15892)">
              <rect
                 y="52.993587"
                 x="367.01135"
                 height="16"
                 width="3"
                 id="rect6438-4-1-7-9"
                 style="fill:#ffffff;fill-opacity:1;stroke:none" />
              <rect
                 transform="matrix(0,1,-1,0,0,0)"
                 y="-376.51135"
                 x="59.493587"
                 height="16"
                 width="3"
                 id="rect6438-3-3-9-5-8"
                 style="fill:#ffffff;fill-opacity:1;stroke:none" />
            </g>
          </g>
          <g
             id="g3318-1-9-2-2-8"
             transform="translate(-52.879089,187.68219)">
            <rect
               ry="0.24541746"
               y="349.47449"
               x="1006.7262"
               height="80"
               width="300"
               id="rect3109-1-5-1-1-2-0-7-7"
               style="fill:#ffffff;fill-opacity:1;stroke:none" />
            <path
               transform="matrix(1.0878,0,0,1.0878,1056.2462,17.754894)"
               d="m 221.07006,341.71686 c 0,15.23124 -12.34736,27.5786 -27.5786,27.5786 -15.23125,0 -27.5786,-12.34736 -27.5786,-27.5786 0,-15.23124 12.34735,-27.5786 27.5786,-27.5786 15.23124,0 27.5786,12.34736 27.5786,27.5786 z"
               sodipodi:ry="27.5786"
               sodipodi:rx="27.5786"
               sodipodi:cy="341.71686"
               sodipodi:cx="193.49146"
               id="path2987-44-28-1-7-5-7-8-6-7-4-3-8-9"
               style="fill:#e6e6e6;fill-opacity:1;stroke:none"
               sodipodi:type="arc" />
            <g
               id="g3358-7-0-3-1-0"
               transform="translate(20,2.4921875)">
              <text
                 sodipodi:linespacing="130%"
                 id="text3333-9-7-8-2-5"
                 y="385.11511"
                 x="1006.5543"
                 style="font-size:22px;font-style:normal;font-variant:normal;font-weight:500;font-stretch:normal;text-align:justify;line-height:129.99999523%;letter-spacing:0px;word-spacing:0px;writing-mode:lr-tb;text-anchor:start;fill:#4d4d4d;fill-opacity:1;stroke:none;font-family:Roboto;-inkscape-font-specification:Roboto Medium"
                 xml:space="preserve"><tspan
                   y="385.11511"
                   x="1006.5543"
                   id="tspan3335-6-2-6-4-0"
                   sodipodi:role="line">Billy Smith</tspan></text>
              <text
                 sodipodi:linespacing="130%"
                 id="text3333-7-4-0-3-8-6"
                 y="404.49011"
                 x="1007.751"
                 style="font-size:22px;font-style:normal;font-variant:normal;font-weight:500;font-stretch:normal;text-align:justify;line-height:129.99999523%;letter-spacing:0px;word-spacing:0px;writing-mode:lr-tb;text-anchor:start;fill:#666666;fill-opacity:1;stroke:none;font-family:Roboto;-inkscape-font-specification:Roboto Medium"
                 xml:space="preserve"><tspan
                   style="font-size:16px;font-style:normal;font-variant:normal;font-weight:normal;font-stretch:normal;text-align:justify;line-height:129.99999523%;writing-mode:lr-tb;text-anchor:start;fill:#666666;font-family:Roboto;-inkscape-font-specification:Roboto"
                   y="404.49011"
                   x="1007.751"
                   id="tspan3335-5-0-1-4-4-4"
                   sodipodi:role="line">0 impacts, below average</tspan></text>
            </g>
            <path
               transform="matrix(0.21755999,0,0,0.21755999,1224.6302,315.13058)"
               d="m 221.07006,341.71686 c 0,15.23124 -12.34736,27.5786 -27.5786,27.5786 -15.23125,0 -27.5786,-12.34736 -27.5786,-27.5786 0,-15.23124 12.34735,-27.5786 27.5786,-27.5786 15.23124,0 27.5786,12.34736 27.5786,27.5786 z"
               sodipodi:ry="27.5786"
               sodipodi:rx="27.5786"
               sodipodi:cy="341.71686"
               sodipodi:cx="193.49146"
               id="path2987-44-28-1-7-5-7-8-9-9-1-7-7-6"
               style="fill:#cccccc;fill-opacity:1;stroke:none"
               sodipodi:type="arc" />
          </g>
        </g>
      </g>
    </g>
  </g>
</svg>
