<?xml version="1.0" encoding="UTF-8" standalone="no"?>
<!-- Created with Inkscape (http://www.inkscape.org/) -->

<svg
   xmlns:dc="http://purl.org/dc/elements/1.1/"
   xmlns:cc="http://creativecommons.org/ns#"
   xmlns:rdf="http://www.w3.org/1999/02/22-rdf-syntax-ns#"
   xmlns:svg="http://www.w3.org/2000/svg"
   xmlns="http://www.w3.org/2000/svg"
   xmlns:sodipodi="http://sodipodi.sourceforge.net/DTD/sodipodi-0.dtd"
   xmlns:inkscape="http://www.inkscape.org/namespaces/inkscape"
   width="1400"
   height="1400"
   id="svg2"
   version="1.1"
   inkscape:version="0.48.5 r10040"
   sodipodi:docname="fumble.svg">
  <defs
     id="defs4" />
  <sodipodi:namedview
     id="base"
     pagecolor="#ffffff"
     bordercolor="#666666"
     borderopacity="1.0"
     inkscape:pageopacity="0.0"
     inkscape:pageshadow="2"
     inkscape:zoom="0.47785714"
     inkscape:cx="700"
     inkscape:cy="700"
     inkscape:document-units="px"
     inkscape:current-layer="layer1"
     showgrid="false"
     inkscape:window-width="1440"
     inkscape:window-height="851"
     inkscape:window-x="0"
     inkscape:window-y="0"
     inkscape:window-maximized="1" />
  <metadata
     id="metadata7">
    <rdf:RDF>
      <cc:Work
         rdf:about="">
        <dc:format>image/svg+xml</dc:format>
        <dc:type
           rdf:resource="http://purl.org/dc/dcmitype/StillImage" />
        <dc:title />
      </cc:Work>
    </rdf:RDF>
  </metadata>
  <g
     inkscape:label="Layer 1"
     inkscape:groupmode="layer"
     id="layer1"
     transform="translate(0,347.63782)">
    <g
       id="g3030"
       transform="translate(760.37641,151.69375)">
      <rect
         y="-499.33157"
         x="-759.8764"
         height="1400"
         width="1400"
         id="rect2985"
         style="fill:#1a66d8;fill-opacity:1;stroke:none" />
      <g
         transform="matrix(1.4745804,0,0,1.4745804,361.09692,-427.04347)"
         id="g3016">
        <path
           style="opacity:0.5;fill:none;stroke:#ffffff;stroke-width:3;stroke-linecap:round;stroke-linejoin:round;stroke-miterlimit:4;stroke-opacity:1;stroke-dasharray:3, 6;stroke-dashoffset:0"
           d="m -759.37638,685.19348 c 73.6527,0 115.5216,189.78724 118.38954,213.14054 3.76615,-23.3533 20.09094,-129.86741 63.12615,-129.86741 43.03521,0 55.99548,105.979 61.6411,129.3323 5.64561,-23.3533 22.70609,-91.84946 59.98423,-91.84946"
           id="path12719"
           inkscape:connector-curvature="0"
           sodipodi:nodetypes="cczcc" />
        <g
           id="g12721"
           transform="matrix(0.61121151,0.35288313,-0.35288313,0.61121151,-872.80771,498.60418)">
          <g
             transform="matrix(0,-1,1,0,168.39736,438.19545)"
             id="g6446">
            <path
               style="fill:#1a66d8;fill-opacity:1;stroke:#ffffff;stroke-width:4.25069904;stroke-linejoin:round;stroke-miterlimit:4;stroke-opacity:1;stroke-dasharray:none"
               d="m 437.65212,620.13073 c -1.9622,18.89721 -8.09965,37.46549 -17.7665,53.7509 -8.00081,13.4787 -19.95514,25.84097 -32.12327,33.21948 -2.67371,1.62128 -3.78071,2.04966 -5.64263,2.18345 -4.69216,0.33722 -10.26701,-2.72623 -17.32023,-9.51774 -10.09745,-9.72274 -20.71112,-23.85558 -26.84727,-35.74898 -6.46807,-12.53675 -10.09438,-24.30676 -12.10499,-39.28941 -0.98295,-7.32477 -0.99292,-22.17214 -0.0199,-29.60648 3.18668,-24.34704 12.61568,-46.16437 27.76607,-64.24659 6.26685,-7.4796 16.98909,-16.86119 23.2087,-20.30682 4.30456,-2.3847 9.41462,-1.39749 16.0339,3.09757 7.34895,4.99058 18.0774,16.85195 25.98125,28.72486 10.12601,15.21096 16.46871,32.68985 18.65994,51.42212 0.683,5.83879 0.78034,20.48683 0.1749,26.31764 z"
               id="path2998"
               inkscape:connector-curvature="0" />
            <path
               inkscape:connector-curvature="0"
               id="path6272"
               transform="translate(0,121.26161)"
               d="m 417.90625,419.78125 c -11.0129,2.2453 -23.45213,3.5625 -36.65625,3.5625 -12.72993,0 -24.74971,-1.21683 -35.46875,-3.3125 -3.77691,5.63811 -7.05986,11.58091 -9.84375,17.78125 12.94539,3.48627 28.53877,5.53125 45.3125,5.53125 17.33352,0 33.37705,-2.20282 46.5625,-5.90625 -2.55642,-5.66636 -5.55142,-11.13216 -9,-16.3125 -0.29895,-0.44907 -0.59955,-0.89508 -0.90625,-1.34375 z"
               style="fill:#f2f2f2;fill-opacity:1;stroke:none" />
            <path
               inkscape:connector-curvature="0"
               id="path6272-7"
               transform="translate(0,121.26161)"
               d="m 377.875,532.78125 c -15.56011,0.25331 -29.98553,2.25448 -42.09375,5.53125 0.69072,1.47551 1.38726,2.947 2.15625,4.4375 2.18847,4.24179 4.9615,8.7714 8.0625,13.28125 10.66365,-2.06905 22.60691,-3.25 35.25,-3.25 13.08996,0 25.43256,1.25937 36.375,3.46875 0.7859,-1.19844 1.52607,-2.40542 2.25,-3.625 2.69993,-4.54847 5.11478,-9.29419 7.25,-14.15625 -13.05432,-3.58749 -28.84147,-5.6875 -45.875,-5.6875 -1.12537,0 -2.26067,-0.0181 -3.375,0 z"
               style="fill:#f2f2f2;fill-opacity:1;stroke:none" />
          </g>
          <path
             style="font-size:25.21556091px;font-style:normal;font-variant:normal;font-weight:normal;font-stretch:normal;text-align:justify;line-height:129.99999523%;letter-spacing:0px;word-spacing:0px;writing-mode:lr-tb;text-anchor:start;fill:#ffffff;fill-opacity:1;stroke:none;font-family:Raleway;-inkscape-font-specification:Raleway"
             d="m 572.6875,1217.6875 -5.53125,9.5625 c -2.90849,5.0377 -4.99923,7.5946 -8.84375,5.375 -1.5113,-0.8726 -2.53725,-2.057 -3,-3.0312 l -1.375,1.1562 c 0.66966,1.4118 1.78889,2.5975 3.40625,3.5312 5.48839,3.1688 8.381,-0.2417 11.6875,-5.9687 l 5.5,-9.5313 -1.84375,-1.0937 z m 9.15625,7.25 c -0.73849,0.046 -1.50687,0.1759 -2.25,0.375 -5.94501,1.5929 -9.43673,7.68 -7.84375,13.625 1.59298,5.945 7.71124,9.4679 13.65625,7.875 5.94501,-1.5929 9.43673,-7.68 7.84375,-13.625 -0.79646,-2.9726 -2.71756,-5.3552 -5.1875,-6.7813 -1.85245,-1.0695 -4.00327,-1.6056 -6.21875,-1.4687 z m 0.78125,1.8125 c 1.60876,0.023 3.14311,0.4666 4.5,1.25 1.80914,1.0446 3.2857,2.6846 4.0625,4.75 l -1.8125,0.5312 c -0.63658,-1.5656 -1.79651,-2.8531 -3.1875,-3.6562 -1.3934,-0.8045 -3.01033,-1.1402 -4.6875,-0.9062 l -0.5,-1.8438 c 0.54428,-0.09 1.08875,-0.1327 1.625,-0.125 z m -3.40625,0.625 0.46875,1.8438 c -3.14133,1.2715 -4.99535,4.5188 -4.53125,7.875 l -1.8125,0.4687 c -0.71383,-4.3499 1.75097,-8.6307 5.875,-10.1875 z m 2.9375,3.125 c 1.10775,-0.069 2.19878,0.184 3.125,0.7188 1.23497,0.713 2.2268,1.9199 2.625,3.4062 0.79652,2.9725 -0.99622,6.0472 -3.96875,6.8438 -2.97253,0.7965 -6.04729,-0.965 -6.84375,-3.9376 -0.79646,-2.9725 0.99627,-6.0473 3.96875,-6.8437 0.37157,-0.1 0.7245,-0.1647 1.09375,-0.1875 z m 19.1875,3.7188 -10.84375,18.8124 12.71875,7.3438 0.9375,-1.625 -10.90625,-6.3125 9.9375,-17.1563 -1.84375,-1.0624 z m -9.6875,0.3437 c 0.71383,4.3499 -1.75097,8.6307 -5.875,10.1875 l -0.46875,-1.8125 c 3.13855,-1.2761 5.00069,-4.4875 4.53125,-7.8437 l 1.8125,-0.5313 z m -16.0625,4.3125 c 1.27299,3.1449 4.54619,5.0325 7.90625,4.5625 l 0.46875,1.8125 c -4.35577,0.7207 -8.63371,-1.7737 -10.1875,-5.9062 l 1.8125,-0.4688 z m 36.5,1.5625 -0.9375,1.625 6.71875,3.875 -9.9375,17.1875 1.875,1.0625 9.90625,-17.1875 6.71875,3.875 0.9375,-1.625 -15.28125,-8.8125 z"
             transform="matrix(0.71327088,-0.41180713,0.41180713,0.71327088,-154.23083,-585.15019)"
             id="path3076"
             inkscape:connector-curvature="0" />
        </g>
      </g>
    </g>
  </g>
</svg>
