<?xml version="1.0" encoding="UTF-8" standalone="no"?>
<!-- Created with Inkscape (http://www.inkscape.org/) -->

<svg
   xmlns:dc="http://purl.org/dc/elements/1.1/"
   xmlns:cc="http://creativecommons.org/ns#"
   xmlns:rdf="http://www.w3.org/1999/02/22-rdf-syntax-ns#"
   xmlns:svg="http://www.w3.org/2000/svg"
   xmlns="http://www.w3.org/2000/svg"
   xmlns:sodipodi="http://sodipodi.sourceforge.net/DTD/sodipodi-0.dtd"
   xmlns:inkscape="http://www.inkscape.org/namespaces/inkscape"
   width="1400"
   height="1400"
   id="svg2"
   version="1.1"
   inkscape:version="0.48.5 r10040"
   sodipodi:docname="fumble.svg">
  <defs
     id="defs4" />
  <sodipodi:namedview
     id="base"
     pagecolor="#ffffff"
     bordercolor="#666666"
     borderopacity="1.0"
     inkscape:pageopacity="0.0"
     inkscape:pageshadow="2"
     inkscape:zoom="1.6283333"
     inkscape:cx="1100"
     inkscape:cy="160.19259"
     inkscape:document-units="px"
     inkscape:current-layer="g3016"
     showgrid="false"
     inkscape:window-width="1440"
     inkscape:window-height="856"
     inkscape:window-x="0"
     inkscape:window-y="1"
     inkscape:window-maximized="1" />
  <metadata
     id="metadata7">
    <rdf:RDF>
      <cc:Work
         rdf:about="">
        <dc:format>image/svg+xml</dc:format>
        <dc:type
           rdf:resource="http://purl.org/dc/dcmitype/StillImage" />
        <dc:title />
      </cc:Work>
    </rdf:RDF>
  </metadata>
  <g
     inkscape:label="Layer 1"
     inkscape:groupmode="layer"
     id="layer1"
     transform="translate(0,347.63782)">
    <g
       id="g3030"
       transform="translate(760.37641,151.69375)">
      <rect
         y="-499.33157"
         x="-760.3764"
         height="1400"
         width="1400"
         id="rect2985"
         style="fill:#3c4b5a;fill-opacity:1;stroke:none" />
      <g
         transform="matrix(-1.4745804,0,0,1.4745804,-482.34981,-427.04347)"
         id="g3016">
        <path
           style="opacity:1;fill:none;stroke:#32c864;stroke-width:3;stroke-linecap:round;stroke-linejoin:round;stroke-miterlimit:4;stroke-opacity:1;stroke-dasharray:3, 6;stroke-dashoffset:0"
           d="m -759.37638,685.19348 c 73.6527,0 115.5216,189.78724 118.38954,213.14054 3.76615,-23.3533 20.09094,-129.86741 63.12615,-129.86741 43.03521,0 55.99548,105.979 61.6411,129.3323 5.64561,-23.3533 22.70609,-91.84946 59.98423,-91.84946"
           id="path12719"
           inkscape:connector-curvature="0"
           sodipodi:nodetypes="cczcc" />
        <g
           id="g12721"
           transform="matrix(0.61121151,0.35288313,-0.35288313,0.61121151,-872.80771,498.60418)">
          <g
             transform="matrix(0,-1,1,0,168.39736,438.19545)"
             id="g6446">
            <path
               style="fill:#3c4b5a;fill-opacity:1;stroke:#ffffff;stroke-width:4.25069903999999976;stroke-linejoin:round;stroke-miterlimit:4;stroke-opacity:1;stroke-dasharray:none"
               d="m 437.65212,620.13073 c -1.9622,18.89721 -8.09965,37.46549 -17.7665,53.7509 -8.00081,13.4787 -19.95514,25.84097 -32.12327,33.21948 -2.67371,1.62128 -3.78071,2.04966 -5.64263,2.18345 -4.69216,0.33722 -10.26701,-2.72623 -17.32023,-9.51774 -10.09745,-9.72274 -20.71112,-23.85558 -26.84727,-35.74898 -6.46807,-12.53675 -10.09438,-24.30676 -12.10499,-39.28941 -0.98295,-7.32477 -0.99292,-22.17214 -0.0199,-29.60648 3.18668,-24.34704 12.61568,-46.16437 27.76607,-64.24659 6.26685,-7.4796 16.98909,-16.86119 23.2087,-20.30682 4.30456,-2.3847 9.41462,-1.39749 16.0339,3.09757 7.34895,4.99058 18.0774,16.85195 25.98125,28.72486 10.12601,15.21096 16.46871,32.68985 18.65994,51.42212 0.683,5.83879 0.78034,20.48683 0.1749,26.31764 z"
               id="path2998"
               inkscape:connector-curvature="0" />
            <path
               inkscape:connector-curvature="0"
               id="path6272"
               transform="translate(0,121.26161)"
               d="m 417.90625,419.78125 c -11.0129,2.2453 -23.45213,3.5625 -36.65625,3.5625 -12.72993,0 -24.74971,-1.21683 -35.46875,-3.3125 -3.77691,5.63811 -7.05986,11.58091 -9.84375,17.78125 12.94539,3.48627 28.53877,5.53125 45.3125,5.53125 17.33352,0 33.37705,-2.20282 46.5625,-5.90625 -2.55642,-5.66636 -5.55142,-11.13216 -9,-16.3125 -0.29895,-0.44907 -0.59955,-0.89508 -0.90625,-1.34375 z"
               style="fill:#f2f2f2;fill-opacity:1;stroke:none" />
            <path
               inkscape:connector-curvature="0"
               id="path6272-7"
               transform="translate(0,121.26161)"
               d="m 377.875,532.78125 c -15.56011,0.25331 -29.98553,2.25448 -42.09375,5.53125 0.69072,1.47551 1.38726,2.947 2.15625,4.4375 2.18847,4.24179 4.9615,8.7714 8.0625,13.28125 10.66365,-2.06905 22.60691,-3.25 35.25,-3.25 13.08996,0 25.43256,1.25937 36.375,3.46875 0.7859,-1.19844 1.52607,-2.40542 2.25,-3.625 2.69993,-4.54847 5.11478,-9.29419 7.25,-14.15625 -13.05432,-3.58749 -28.84147,-5.6875 -45.875,-5.6875 -1.12537,0 -2.26067,-0.0181 -3.375,0 z"
               style="fill:#f2f2f2;fill-opacity:1;stroke:none" />
          </g>
          <g
             transform="matrix(-0.96088332,0,0,0.96088332,500.74235,-78.523205)"
             id="g10540-9-3"
             inkscape:export-xdpi="1653.59"
             inkscape:export-ydpi="1653.59">
            <path
               inkscape:connector-curvature="0"
               style="fill:#ffffff;fill-opacity:1;stroke:none"
               d="m -480.875,589.28125 0,10 c 0,2.20914 -1.79086,4 -4,4 l -1,0 c -0.70215,0 -1.39192,-0.18018 -2,-0.53125 l -2,3.46875 c 1.21615,0.70215 2.59571,1.0625 4,1.0625 l 1,0 c 4.41827,0 8,-3.58173 8,-8 l 0,-10 -4,0 z m 16,0 c -4.432,0 -8,3.568 -8,8 l 0,2 c 0,4.432 3.568,8 8,8 l 2,0 c 4.432,0 8,-3.568 8,-8 l 0,-2 c 0,-4.432 -3.568,-8 -8,-8 l -2,0 z m 14,0 0,16 c 0,1.10457 0.89543,2 2,2 l 10,0 0,-4 -7,0 c -0.55228,0 -1,-0.44772 -1,-1 l 0,-13 -4,0 z m 12,0 0,4 4,0 0,14 4,0 0,-14 4,0 2.3125,-4 -2.3125,0 -4,0 -4,0 -4,0 z m -26,4 2,0 c 2.216,0 4,1.784 4,4 l 0,2 c 0,2.216 -1.784,4 -4,4 l -2,0 c -2.216,0 -4,-1.784 -4,-4 l 0,-2 c 0,-2.216 1.784,-4 4,-4 z"
               transform="translate(168.98982,-457.42678)"
               id="path8315-7-3-0-6-4" />
            <path
               style="fill:#32c864;fill-opacity:1;stroke:none"
               d="m -295.88518,125.85447 c -3.878,0 -7.37575,1.56325 -9.90625,4.09375 l 2.8125,2.84375 0.0312,0 c 1.80623,-1.79805 4.30071,-2.9375 7.0625,-2.9375 l 2,0 c 2.77,0 5.255,1.13 7.0625,2.9375 l 2.84375,-2.84375 c -2.5305,-2.5305 -6.02825,-4.09375 -9.90625,-4.09375 l -2,0 z m -7.09375,23.09375 -2.8125,2.8125 c 2.5305,2.5305 6.02825,4.09375 9.90625,4.09375 l 2,0 c 3.878,0 7.37575,-1.56325 9.90625,-4.09375 l -2.84375,-2.8125 c -1.8075,1.8075 -4.2925,2.90625 -7.0625,2.90625 l -2,0 c -2.77,0 -5.28625,-1.09875 -7.09375,-2.90625 z"
               id="rect8169-8-5-2-7-9-1-88-3-3"
               inkscape:connector-curvature="0" />
          </g>
        </g>
      </g>
    </g>
  </g>
</svg>
