<?xml version="1.0" encoding="UTF-8" standalone="no"?>
<!-- Created with Inkscape (http://www.inkscape.org/) -->

<svg
   xmlns:dc="http://purl.org/dc/elements/1.1/"
   xmlns:cc="http://creativecommons.org/ns#"
   xmlns:rdf="http://www.w3.org/1999/02/22-rdf-syntax-ns#"
   xmlns:svg="http://www.w3.org/2000/svg"
   xmlns="http://www.w3.org/2000/svg"
   xmlns:sodipodi="http://sodipodi.sourceforge.net/DTD/sodipodi-0.dtd"
   xmlns:inkscape="http://www.inkscape.org/namespaces/inkscape"
   width="64px"
   height="64px"
   id="svg4219"
   version="1.1"
   inkscape:version="0.48.5 r10040"
   sodipodi:docname="apple.svg">
  <defs
     id="defs4221" />
  <sodipodi:namedview
     id="base"
     pagecolor="#ffffff"
     bordercolor="#666666"
     borderopacity="1.0"
     inkscape:pageopacity="0.0"
     inkscape:pageshadow="2"
     inkscape:zoom="13.203125"
     inkscape:cx="22.494675"
     inkscape:cy="32"
     inkscape:current-layer="layer1"
     showgrid="true"
     inkscape:document-units="px"
     inkscape:grid-bbox="true"
     inkscape:window-width="1920"
     inkscape:window-height="1031"
     inkscape:window-x="0"
     inkscape:window-y="0"
     inkscape:window-maximized="1" />
  <metadata
     id="metadata4224">
    <rdf:RDF>
      <cc:Work
         rdf:about="">
        <dc:format>image/svg+xml</dc:format>
        <dc:type
           rdf:resource="http://purl.org/dc/dcmitype/StillImage" />
        <dc:title></dc:title>
      </cc:Work>
    </rdf:RDF>
  </metadata>
  <g
     id="layer1"
     inkscape:label="Layer 1"
     inkscape:groupmode="layer">
    <path
       style="fill:#666666;fill-opacity:1"
       d="M 26.49455,49.641232 C 26.103536,49.443933 25.694766,49.103159 25.586165,48.883886 25.450651,48.610311 25.38799,47.547622 25.386318,45.495812 l 0,-2.989574 -1.319782,0 c -1.455774,0 -1.861597,-0.171422 -2.268536,-0.958387 -0.202792,-0.39205 -0.238302,-1.744715 -0.238302,-9.078441 l 0,-8.617759 10.367649,0 10.367569,0 -0.04379,8.845393 -0.04379,8.845472 -0.441414,0.442051 c -0.3981,0.398578 -0.578121,0.449774 -1.83357,0.521671 l -1.392158,0.0797 -0.03981,3.029465 c -0.02468,1.921153 -0.107487,3.159962 -0.225404,3.386481 -0.239338,0.459726 -1.352427,0.998117 -2.063593,0.998117 -0.728365,0 -1.924258,-0.614269 -2.172912,-1.116114 -0.135513,-0.273655 -0.198174,-1.337299 -0.199846,-3.393169 l 0,-2.994591 -1.873381,0.04459 -1.873461,0.04459 -0.03981,3.029465 c -0.02468,1.921153 -0.107487,3.159962 -0.225404,3.386481 -0.239258,0.459726 -1.352427,0.998117 -2.063514,0.998117 -0.304547,0 -0.873591,-0.161469 -1.264526,-0.358768 z M 16.841331,37.580143 C 16.483678,37.417639 16.035258,37.086658 15.844806,36.844613 15.50459,36.412037 15.498618,36.309009 15.498618,30.85774 l 0,-5.546733 0.417608,-0.496272 c 0.229624,-0.272937 0.620718,-0.60129 0.868973,-0.729718 0.928291,-0.480029 2.361691,-0.15502 3.022697,0.68529 0.29977,0.381062 0.3145,0.667456 0.3145,6.099297 l 0,5.699523 -0.509808,0.498422 c -0.469679,0.459169 -1.300116,0.816902 -1.881821,0.810533 -0.131532,0 -0.531782,-0.135514 -0.889436,-0.297939 z m 28.598977,0.14475 c -0.670879,-0.202315 -1.340405,-0.744607 -1.55307,-1.257998 -0.142599,-0.344118 -0.179623,-1.896072 -0.140688,-5.890851 l 0.05255,-5.42356 0.398578,-0.426445 c 1.196371,-1.279814 3.118161,-1.144858 3.986896,0.280103 0.299451,0.491176 0.316808,0.811806 0.316808,5.860914 0,5.075541 -0.01592,5.367508 -0.321585,5.868716 -0.32907,0.539745 -1.400756,1.148281 -1.989149,1.129491 -0.175323,-0.008 -0.513151,-0.06847 -0.750738,-0.14037 z M 21.64083,21.739012 c 0.49882,-2.377217 2.463446,-5.103249 4.540336,-6.300019 0.773907,-0.45057 1.251309,-0.682503 2.061761,-0.910774 1.77521,-0.626371 5.187886,-0.710848 6.946693,-0.1719 1.340086,0.28082 1.906025,0.482578 2.79363,1.231962 2.030949,1.356169 3.590468,3.668097 4.202826,6.23043 l 0.10478,0.438468 -10.379433,0 -10.379354,0 z m 6.511888,-2.682242 c 0.513948,-0.404231 0.559968,-1.123996 0.101197,-1.582847 -0.648505,-0.648505 -1.755702,-0.214417 -1.751403,0.686723 0,0.584571 0.109159,0.782905 0.555589,1.036097 0.451446,0.255978 0.61833,0.23464 1.094617,-0.139973 z m 8.928675,0 c 0.514028,-0.404231 0.560048,-1.123996 0.101277,-1.582847 -0.648585,-0.648505 -1.755782,-0.214417 -1.751403,0.686723 0,0.584571 0.10908,0.782905 0.555589,1.036097 0.451446,0.255978 0.61833,0.23464 1.094537,-0.139973 z"
       id="path7943"
       inkscape:connector-curvature="0"
       sodipodi:nodetypes="ccscssscccccsscscscscccscsccccscccssccccscscssscccsccccccccsccccccccccc"
       inkscape:export-filename="/Users/bdharva/Dropbox/Jolt/software/jolt.github.io/assets/icons/general/android.png"
       inkscape:export-xdpi="95.543846"
       inkscape:export-ydpi="95.543846" />
  </g>
</svg>
