<?xml version="1.0" encoding="UTF-8" standalone="no"?>
<!-- Created with Inkscape (http://www.inkscape.org/) -->

<svg
   xmlns:dc="http://purl.org/dc/elements/1.1/"
   xmlns:cc="http://creativecommons.org/ns#"
   xmlns:rdf="http://www.w3.org/1999/02/22-rdf-syntax-ns#"
   xmlns:svg="http://www.w3.org/2000/svg"
   xmlns="http://www.w3.org/2000/svg"
   xmlns:sodipodi="http://sodipodi.sourceforge.net/DTD/sodipodi-0.dtd"
   xmlns:inkscape="http://www.inkscape.org/namespaces/inkscape"
   width="64px"
   height="64px"
   id="svg4219"
   version="1.1"
   inkscape:version="0.48.5 r10040"
   sodipodi:docname="wifi.svg">
  <defs
     id="defs4221" />
  <sodipodi:namedview
     id="base"
     pagecolor="#ffffff"
     bordercolor="#666666"
     borderopacity="1.0"
     inkscape:pageopacity="0.0"
     inkscape:pageshadow="2"
     inkscape:zoom="13.203125"
     inkscape:cx="22.494675"
     inkscape:cy="32"
     inkscape:current-layer="layer1"
     showgrid="true"
     inkscape:document-units="px"
     inkscape:grid-bbox="true"
     inkscape:window-width="1920"
     inkscape:window-height="1031"
     inkscape:window-x="0"
     inkscape:window-y="0"
     inkscape:window-maximized="1" />
  <metadata
     id="metadata4224">
    <rdf:RDF>
      <cc:Work
         rdf:about="">
        <dc:format>image/svg+xml</dc:format>
        <dc:type
           rdf:resource="http://purl.org/dc/dcmitype/StillImage" />
        <dc:title></dc:title>
      </cc:Work>
    </rdf:RDF>
  </metadata>
  <g
     id="layer1"
     inkscape:label="Layer 1"
     inkscape:groupmode="layer">
    <path
       style="fill:#666666;fill-opacity:1"
       d="m 26.078159,49.959554 c -1.157097,-0.22005 -2.322969,-1.070173 -3.545766,-2.585619 -0.552524,-0.684824 -1.390872,-1.851821 -1.806371,-2.514595 -1.813721,-2.893343 -2.987018,-6.344835 -3.336293,-9.814327 -0.05925,-0.585973 -0.06,-2.466294 0,-3.007493 0.2475,-2.296795 0.928573,-4.15544 2.092346,-5.709962 0.407774,-0.544648 1.253172,-1.393871 1.766546,-1.774346 1.364771,-1.011672 2.800268,-1.572296 4.432039,-1.730771 1.259172,-0.122249 2.21467,0.06975 4.203441,0.844124 1.325546,0.516223 1.633646,0.613948 2.100445,0.666298 0.523198,0.0585 0.901723,-0.03675 2.331595,-0.586274 2.520969,-0.969297 3.431992,-1.156197 5.016213,-1.029297 1.248147,0.09997 2.21632,0.362249 3.302767,0.894598 0.879223,0.430874 1.547322,0.914098 2.20462,1.594646 0.34335,0.355499 0.902323,1.047373 0.869323,1.076022 -0.0075,0.0075 -0.08498,0.05625 -0.171974,0.10995 -0.527099,0.326174 -1.287972,0.999973 -1.786946,1.582272 -0.815323,0.951597 -1.389447,2.034145 -1.676471,3.160942 -0.193125,0.758173 -0.242025,1.241772 -0.218775,2.16532 0.02625,1.043023 0.127425,1.630271 0.431474,2.504319 0.638999,1.837196 2.114995,3.486442 3.936591,4.39859 0.2322,0.11625 0.426299,0.215475 0.431399,0.220575 0.01575,0.015 -0.268574,0.819973 -0.447974,1.268622 -0.538724,1.347372 -1.154472,2.512494 -1.98907,3.763716 -1.553322,2.32867 -2.640369,3.490492 -3.798216,4.059666 -0.669374,0.328949 -1.147873,0.439424 -1.899521,0.438374 -0.872698,0 -1.393197,-0.131175 -2.654244,-0.663149 -1.143972,-0.482549 -1.682921,-0.638173 -2.49382,-0.720223 -0.989472,-0.10005 -2.056645,0.02775 -2.994668,0.358049 -0.164624,0.05775 -0.615898,0.236699 -1.002822,0.397199 -0.848923,0.352049 -1.238547,0.484349 -1.714796,0.582149 -0.471674,0.09697 -1.211022,0.120599 -1.579347,0.051 z m 5.864837,-27.744686 c -0.042,-0.2082 -0.051,-0.682049 -0.02025,-1.057648 0.143699,-1.732871 1.043847,-3.589117 2.37172,-4.891114 1.007397,-0.987822 2.438919,-1.787846 3.779991,-2.112595 0.396299,-0.09592 1.048873,-0.182549 1.087122,-0.144225 0.04275,0.04275 0.024,1.359897 -0.02325,1.654197 -0.188399,1.176372 -0.643198,2.336319 -1.307997,3.336142 -0.806923,1.213647 -1.79272,2.09197 -3.006218,2.678619 -0.891673,0.431099 -1.629371,0.615749 -2.459544,0.615749 -0.392699,0 -0.406424,0 -0.421949,-0.07913 z"
       id="path7930"
       inkscape:connector-curvature="0"
       inkscape:export-filename="/Users/bdharva/Dropbox/Jolt/software/jolt.github.io/assets/icons/general/apple.png"
       inkscape:export-xdpi="90"
       inkscape:export-ydpi="90" />
  </g>
</svg>
