<?xml version="1.0" encoding="UTF-8" standalone="no"?>
<!-- Created with Inkscape (http://www.inkscape.org/) -->

<svg
   xmlns:dc="http://purl.org/dc/elements/1.1/"
   xmlns:cc="http://creativecommons.org/ns#"
   xmlns:rdf="http://www.w3.org/1999/02/22-rdf-syntax-ns#"
   xmlns:svg="http://www.w3.org/2000/svg"
   xmlns="http://www.w3.org/2000/svg"
   xmlns:sodipodi="http://sodipodi.sourceforge.net/DTD/sodipodi-0.dtd"
   xmlns:inkscape="http://www.inkscape.org/namespaces/inkscape"
   width="48px"
   height="48px"
   id="svg7207"
   version="1.1"
   inkscape:version="0.48.5 r10040"
   sodipodi:docname="New document 94">
  <defs
     id="defs7209" />
  <sodipodi:namedview
     id="base"
     pagecolor="#ffffff"
     bordercolor="#666666"
     borderopacity="1.0"
     inkscape:pageopacity="0.0"
     inkscape:pageshadow="2"
     inkscape:zoom="7"
     inkscape:cx="6.0714286"
     inkscape:cy="24"
     inkscape:current-layer="layer1"
     showgrid="true"
     inkscape:grid-bbox="true"
     inkscape:document-units="px"
     inkscape:window-width="1440"
     inkscape:window-height="851"
     inkscape:window-x="0"
     inkscape:window-y="0"
     inkscape:window-maximized="1" />
  <metadata
     id="metadata7212">
    <rdf:RDF>
      <cc:Work
         rdf:about="">
        <dc:format>image/svg+xml</dc:format>
        <dc:type
           rdf:resource="http://purl.org/dc/dcmitype/StillImage" />
        <dc:title></dc:title>
      </cc:Work>
    </rdf:RDF>
  </metadata>
  <g
     id="layer1"
     inkscape:label="Layer 1"
     inkscape:groupmode="layer">
    <path
       style="fill:#666666;fill-opacity:1;stroke:none"
       d="M 24 6 C 19.581722 5.9999998 16 9.5817219 16 14 L 16 18 L 10 18 C 7.784 18 6 19.784 6 22 L 6 38 C 6 40.216 7.784 42 10 42 L 38 42 C 40.216 42 42 40.216 42 38 L 42 22 C 42 19.784 40.216 18 38 18 L 32 18 L 32 14 C 32 9.5817221 28.418278 6.0000002 24 6 z M 24 8 C 27.313708 8.0000002 30 10.686292 30 14 L 30 18 L 18 18 L 18 14 C 18 10.686291 20.686291 7.9999998 24 8 z M 10 20 L 16 20 L 16 23 C 16 23.554 16.446 24 17 24 C 17.554 24 18 23.554 18 23 L 18 20 L 30 20 L 30 23 C 30 23.554 30.446 24 31 24 C 31.554 24 32 23.554 32 23 L 32 20 L 38 20 C 39.108 20 40 20.892 40 22 L 40 38 C 40 39.108 39.108 40 38 40 L 10 40 C 8.892 40 8 39.108 8 38 L 8 22 C 8 20.892 8.892 20 10 20 z "
       id="rect7100" />
  </g>
</svg>
