<?xml version="1.0" encoding="UTF-8" standalone="no"?>
<!-- Created with Inkscape (http://www.inkscape.org/) -->

<svg
   xmlns:dc="http://purl.org/dc/elements/1.1/"
   xmlns:cc="http://creativecommons.org/ns#"
   xmlns:rdf="http://www.w3.org/1999/02/22-rdf-syntax-ns#"
   xmlns:svg="http://www.w3.org/2000/svg"
   xmlns="http://www.w3.org/2000/svg"
   xmlns:sodipodi="http://sodipodi.sourceforge.net/DTD/sodipodi-0.dtd"
   xmlns:inkscape="http://www.inkscape.org/namespaces/inkscape"
   width="64px"
   height="64px"
   id="svg4219"
   version="1.1"
   inkscape:version="0.48.5 r10040"
   sodipodi:docname="android.svg">
  <defs
     id="defs4221" />
  <sodipodi:namedview
     id="base"
     pagecolor="#ffffff"
     bordercolor="#666666"
     borderopacity="1.0"
     inkscape:pageopacity="0.0"
     inkscape:pageshadow="2"
     inkscape:zoom="13.203125"
     inkscape:cx="22.494675"
     inkscape:cy="32"
     inkscape:current-layer="layer1"
     showgrid="true"
     inkscape:document-units="px"
     inkscape:grid-bbox="true"
     inkscape:window-width="1920"
     inkscape:window-height="1031"
     inkscape:window-x="0"
     inkscape:window-y="0"
     inkscape:window-maximized="1" />
  <metadata
     id="metadata4224">
    <rdf:RDF>
      <cc:Work
         rdf:about="">
        <dc:format>image/svg+xml</dc:format>
        <dc:type
           rdf:resource="http://purl.org/dc/dcmitype/StillImage" />
        <dc:title></dc:title>
      </cc:Work>
    </rdf:RDF>
  </metadata>
  <g
     id="layer1"
     inkscape:label="Layer 1"
     inkscape:groupmode="layer">
    <path
       style="fill:#666666;fill-opacity:1;stroke:none"
       d="m 29.86715,14 c -0.58665,0 -1.03125,0.44475 -1.03125,1.0314 l 0,1.07805 -4.45305,0 c -1.65645,0 -2.9532,1.3437 -2.9532,3 l 0,27.89055 c 0,1.65645 1.2966,3.00015 2.9532,3 l 15.2343,0 c 1.6563,0 2.95305,-1.3434 2.9532,-3 l 0,-27.89055 c 0,-1.6563 -1.2969,-3 -2.9532,-3 l -4.4532,0 0,-1.07805 C 35.16395,14.44475 34.71935,14 34.13285,14 l -4.2657,0 z m -5.2968,4.2189 5.2968,0 4.2657,0 5.2968,0 c 0.58665,0 1.03125,0.4914 1.03125,1.07805 l 0,27.51555 c 0,0.58695 -0.4446,1.0782 -1.03125,1.0782 l -14.8593,0 c -0.58695,0 -1.03125,-0.4914 -1.0314,-1.0782 l 0,-27.51555 c 0,-0.58665 0.4446,-1.0785 1.0314,-1.07805 z m 1.07805,2.1093 0,25.4532 12.70305,0 0,-25.4532 -12.70305,0 z"
       id="rect10046-5-8-6-8-7-22-6-79-1-2-89-3-9-7"
       inkscape:connector-curvature="0"
       inkscape:export-filename="/Users/bdharva/Dropbox/Jolt/software/jolt.github.io/assets/icons/general/battery.png"
       inkscape:export-xdpi="89.971069"
       inkscape:export-ydpi="89.971069" />
  </g>
</svg>
