<?xml version="1.0" encoding="UTF-8" standalone="no"?>
<!-- Created with Inkscape (http://www.inkscape.org/) -->

<svg
   xmlns:dc="http://purl.org/dc/elements/1.1/"
   xmlns:cc="http://creativecommons.org/ns#"
   xmlns:rdf="http://www.w3.org/1999/02/22-rdf-syntax-ns#"
   xmlns:svg="http://www.w3.org/2000/svg"
   xmlns="http://www.w3.org/2000/svg"
   xmlns:sodipodi="http://sodipodi.sourceforge.net/DTD/sodipodi-0.dtd"
   xmlns:inkscape="http://www.inkscape.org/namespaces/inkscape"
   width="48"
   height="48"
   id="svg4219"
   version="1.1"
   inkscape:version="0.48.5 r10040"
   sodipodi:docname="battery-blue.svg">
  <defs
     id="defs4221" />
  <sodipodi:namedview
     id="base"
     pagecolor="#ffffff"
     bordercolor="#666666"
     borderopacity="1.0"
     inkscape:pageopacity="0.0"
     inkscape:pageshadow="2"
     inkscape:zoom="13.203125"
     inkscape:cx="19.768048"
     inkscape:cy="32"
     inkscape:current-layer="layer1"
     showgrid="true"
     inkscape:document-units="px"
     inkscape:grid-bbox="true"
     inkscape:window-width="1440"
     inkscape:window-height="851"
     inkscape:window-x="0"
     inkscape:window-y="0"
     inkscape:window-maximized="1" />
  <metadata
     id="metadata4224">
    <rdf:RDF>
      <cc:Work
         rdf:about="">
        <dc:format>image/svg+xml</dc:format>
        <dc:type
           rdf:resource="http://purl.org/dc/dcmitype/StillImage" />
        <dc:title />
      </cc:Work>
    </rdf:RDF>
  </metadata>
  <g
     id="layer1"
     inkscape:label="Layer 1"
     inkscape:groupmode="layer"
     transform="translate(0,-16)">
    <path
       style="fill:#1a66d8;fill-opacity:1;stroke:none"
       d="m 42,39 c 0,-0.554 -0.446,-1 -1,-1 l -1,0 0,-2 c 0,-2.216 -1.784,-4 -4,-4 l -26,0 c -2.216,0 -4,1.784 -4,4 l 0,8 c 0,2.216 1.784,4 4,4 l 26,0 c 2.216,0 4,-1.784 4,-4 l 0,-2 1,0 c 0.554,0 1,-0.446 1,-1 l 0,-2 z m -4,-3 0,8 c 0,1.108 -0.892,2 -2,2 L 10,46 C 8.892,46 8,45.108 8,44 l 0,-8 c 0,-1.108 0.892,-2 2,-2 l 26,0 c 1.108,0 2,0.892 2,2 z m -2,0 -26,0 0,8 26,0 0,-8 z"
       id="rect2983"
       inkscape:connector-curvature="0" />
  </g>
</svg>
