<?xml version="1.0" encoding="UTF-8" standalone="no"?>
<!-- Created with Inkscape (http://www.inkscape.org/) -->

<svg
   xmlns:dc="http://purl.org/dc/elements/1.1/"
   xmlns:cc="http://creativecommons.org/ns#"
   xmlns:rdf="http://www.w3.org/1999/02/22-rdf-syntax-ns#"
   xmlns:svg="http://www.w3.org/2000/svg"
   xmlns="http://www.w3.org/2000/svg"
   xmlns:sodipodi="http://sodipodi.sourceforge.net/DTD/sodipodi-0.dtd"
   xmlns:inkscape="http://www.inkscape.org/namespaces/inkscape"
   width="48"
   height="48"
   id="svg4219"
   version="1.1"
   inkscape:version="0.48.5 r10040"
   sodipodi:docname="bluetooth-blue.svg">
  <defs
     id="defs4221" />
  <sodipodi:namedview
     id="base"
     pagecolor="#ffffff"
     bordercolor="#666666"
     borderopacity="1.0"
     inkscape:pageopacity="0.0"
     inkscape:pageshadow="2"
     inkscape:zoom="13.203125"
     inkscape:cx="17.685208"
     inkscape:cy="22.911243"
     inkscape:current-layer="layer1"
     showgrid="true"
     inkscape:document-units="px"
     inkscape:grid-bbox="true"
     inkscape:window-width="1440"
     inkscape:window-height="851"
     inkscape:window-x="0"
     inkscape:window-y="0"
     inkscape:window-maximized="1" />
  <metadata
     id="metadata4224">
    <rdf:RDF>
      <cc:Work
         rdf:about="">
        <dc:format>image/svg+xml</dc:format>
        <dc:type
           rdf:resource="http://purl.org/dc/dcmitype/StillImage" />
        <dc:title />
      </cc:Work>
    </rdf:RDF>
  </metadata>
  <g
     id="layer1"
     inkscape:label="Layer 1"
     inkscape:groupmode="layer"
     transform="translate(0,-16)">
    <path
       style="fill:#1a66d8;fill-opacity:1;stroke:none"
       d="M 23.28125 6 C 23.025631 6 22.758369 6.0853814 22.5625 6.28125 C 22.366631 6.4771186 22.28125 6.7443809 22.28125 7 L 22.28125 21.59375 L 16.9375 16.25 C 16.545763 15.858263 15.891737 15.858263 15.5 16.25 C 15.108263 16.641737 15.108263 17.264513 15.5 17.65625 L 21.84375 24 L 15.5 30.34375 C 15.108263 30.735487 15.108263 31.358263 15.5 31.75 C 15.891737 32.141737 16.545763 32.141737 16.9375 31.75 L 22.28125 26.40625 L 22.28125 41 C 22.28125 41.255619 22.366631 41.522881 22.5625 41.71875 C 22.652875 41.809125 22.755281 41.855781 22.875 41.90625 C 23.243592 42.074439 23.695828 42.022922 24 41.71875 L 27.59375 38.09375 L 28.25 37.46875 L 28.875 36.8125 L 32.5 33.21875 C 32.597934 33.120816 32.669783 32.995341 32.71875 32.875 C 32.865651 32.513978 32.793803 32.075053 32.5 31.78125 L 24.6875 24 L 32.5 16.21875 C 32.891737 15.827013 32.891737 15.172987 32.5 14.78125 L 29.125 11.4375 L 28.25 10.53125 L 27.34375 9.65625 L 24 6.28125 C 23.804131 6.0853814 23.536869 6 23.28125 6 z M 24.28125 9.4375 L 25.9375 11.0625 L 27 12.125 L 27.71875 12.84375 L 30.34375 15.5 L 24.28125 21.5625 L 24.28125 9.4375 z M 24.28125 26.4375 L 30.34375 32.5 L 27.46875 35.40625 L 26.1875 36.6875 L 24.28125 38.5625 L 24.28125 26.4375 z "
       transform="translate(0,16)"
       id="rect20535-7-8" />
  </g>
</svg>
