<?xml version="1.0" encoding="UTF-8" standalone="no"?>
<!-- Created with Inkscape (http://www.inkscape.org/) -->

<svg
   xmlns:dc="http://purl.org/dc/elements/1.1/"
   xmlns:cc="http://creativecommons.org/ns#"
   xmlns:rdf="http://www.w3.org/1999/02/22-rdf-syntax-ns#"
   xmlns:svg="http://www.w3.org/2000/svg"
   xmlns="http://www.w3.org/2000/svg"
   xmlns:sodipodi="http://sodipodi.sourceforge.net/DTD/sodipodi-0.dtd"
   xmlns:inkscape="http://www.inkscape.org/namespaces/inkscape"
   width="64px"
   height="64px"
   id="svg4219"
   version="1.1"
   inkscape:version="0.48.5 r10040"
   sodipodi:docname="lightningbolt.svg">
  <defs
     id="defs4221" />
  <sodipodi:namedview
     id="base"
     pagecolor="#ffffff"
     bordercolor="#666666"
     borderopacity="1.0"
     inkscape:pageopacity="0.0"
     inkscape:pageshadow="2"
     inkscape:zoom="13.203125"
     inkscape:cx="22.494675"
     inkscape:cy="32"
     inkscape:current-layer="layer1"
     showgrid="true"
     inkscape:document-units="px"
     inkscape:grid-bbox="true"
     inkscape:window-width="1920"
     inkscape:window-height="1031"
     inkscape:window-x="0"
     inkscape:window-y="0"
     inkscape:window-maximized="1" />
  <metadata
     id="metadata4224">
    <rdf:RDF>
      <cc:Work
         rdf:about="">
        <dc:format>image/svg+xml</dc:format>
        <dc:type
           rdf:resource="http://purl.org/dc/dcmitype/StillImage" />
        <dc:title></dc:title>
      </cc:Work>
    </rdf:RDF>
  </metadata>
  <g
     id="layer1"
     inkscape:label="Layer 1"
     inkscape:groupmode="layer">
    <path
       inkscape:connector-curvature="0"
       style="fill:#666666;fill-opacity:1;stroke:none"
       d="m 31.999999,14 c -1.8,0 -14.685973,7.441125 -15.585898,9 -0.900001,1.558875 -0.900076,16.441125 0,18 0.9,1.558875 13.785898,9 15.585898,9 1.8,0 14.685976,-7.441125 15.585901,-9 0.9,-1.558875 0.900075,-16.441125 0,-18 -0.9,-1.558875 -13.785901,-9 -15.585901,-9 z m 0,10.5 c 4.1421,0 7.500001,3.3579 7.500001,7.5 0,4.1421 -3.357901,7.5 -7.500001,7.5 -4.1421,0 -7.5,-3.3579 -7.5,-7.5 0,-4.1421 3.3579,-7.5 7.5,-7.5 z"
       id="path7884-4"
       inkscape:export-filename="/Users/bdharva/Dropbox/Jolt/software/jolt.github.io/assets/icons/general/bolt.png"
       inkscape:export-xdpi="90"
       inkscape:export-ydpi="90" />
  </g>
</svg>
