<?xml version="1.0" encoding="UTF-8" standalone="no"?>
<!-- Created with Inkscape (http://www.inkscape.org/) -->

<svg
   xmlns:dc="http://purl.org/dc/elements/1.1/"
   xmlns:cc="http://creativecommons.org/ns#"
   xmlns:rdf="http://www.w3.org/1999/02/22-rdf-syntax-ns#"
   xmlns:svg="http://www.w3.org/2000/svg"
   xmlns="http://www.w3.org/2000/svg"
   xmlns:sodipodi="http://sodipodi.sourceforge.net/DTD/sodipodi-0.dtd"
   xmlns:inkscape="http://www.inkscape.org/namespaces/inkscape"
   width="48px"
   height="48px"
   id="svg12731"
   version="1.1"
   inkscape:version="0.48.5 r10040"
   sodipodi:docname="chat-white.svg">
  <defs
     id="defs12733" />
  <sodipodi:namedview
     id="base"
     pagecolor="#ffffff"
     bordercolor="#666666"
     borderopacity="1.0"
     inkscape:pageopacity="0.0"
     inkscape:pageshadow="2"
     inkscape:zoom="7"
     inkscape:cx="-1.4285714"
     inkscape:cy="24"
     inkscape:current-layer="layer1"
     showgrid="true"
     inkscape:grid-bbox="true"
     inkscape:document-units="px"
     inkscape:window-width="1440"
     inkscape:window-height="851"
     inkscape:window-x="0"
     inkscape:window-y="0"
     inkscape:window-maximized="1" />
  <metadata
     id="metadata12736">
    <rdf:RDF>
      <cc:Work
         rdf:about="">
        <dc:format>image/svg+xml</dc:format>
        <dc:type
           rdf:resource="http://purl.org/dc/dcmitype/StillImage" />
        <dc:title></dc:title>
      </cc:Work>
    </rdf:RDF>
  </metadata>
  <g
     id="layer1"
     inkscape:label="Layer 1"
     inkscape:groupmode="layer">
    <path
       inkscape:connector-curvature="0"
       style="fill:#ffffff;fill-opacity:1;stroke:none"
       d="m 24,9.7985597 c -9.9411,0 -17.9999999,5.3725803 -17.9999999,12.0000003 0,4.27176 3.3641,7.99857 8.4061999,10.125 -0.8747,1.23703 -2.1244,2.76626 -3.9374,4.625 7.7185,3.79865 13.9308,0.31718 17.6874,-3.09375 C 36.1035,32.20879 42,27.47693 42,21.79856 42,15.17114 33.9411,9.7985597 24,9.7985597 z m 0,3.0000003 c 8.2843,0 15,4.02944 15,9 0,4.42199 -5.3063,8.08596 -12.3125,8.84375 -1.7929,2.11133 -5.288,4.88336 -11.0937,4.3125 2.3512,-1.74043 3.3081,-3.36091 3.625,-4.65625 -5.9228,-1.20351 -10.2187999,-4.53985 -10.2187999,-8.5 0,-4.97056 6.7156999,-9 14.9999999,-9 z"
       id="path12397" />
  </g>
</svg>
