<?xml version="1.0" encoding="UTF-8" standalone="no"?>
<!-- Created with Inkscape (http://www.inkscape.org/) -->

<svg
   xmlns:dc="http://purl.org/dc/elements/1.1/"
   xmlns:cc="http://creativecommons.org/ns#"
   xmlns:rdf="http://www.w3.org/1999/02/22-rdf-syntax-ns#"
   xmlns:svg="http://www.w3.org/2000/svg"
   xmlns="http://www.w3.org/2000/svg"
   xmlns:sodipodi="http://sodipodi.sourceforge.net/DTD/sodipodi-0.dtd"
   xmlns:inkscape="http://www.inkscape.org/namespaces/inkscape"
   width="64px"
   height="64px"
   id="svg4219"
   version="1.1"
   inkscape:version="0.48.5 r10040"
   sodipodi:docname="smartphone.svg">
  <defs
     id="defs4221" />
  <sodipodi:namedview
     id="base"
     pagecolor="#ffffff"
     bordercolor="#666666"
     borderopacity="1.0"
     inkscape:pageopacity="0.0"
     inkscape:pageshadow="2"
     inkscape:zoom="13.203125"
     inkscape:cx="22.494675"
     inkscape:cy="32"
     inkscape:current-layer="layer1"
     showgrid="true"
     inkscape:document-units="px"
     inkscape:grid-bbox="true"
     inkscape:window-width="1920"
     inkscape:window-height="1031"
     inkscape:window-x="0"
     inkscape:window-y="0"
     inkscape:window-maximized="1" />
  <metadata
     id="metadata4224">
    <rdf:RDF>
      <cc:Work
         rdf:about="">
        <dc:format>image/svg+xml</dc:format>
        <dc:type
           rdf:resource="http://purl.org/dc/dcmitype/StillImage" />
        <dc:title></dc:title>
      </cc:Work>
    </rdf:RDF>
  </metadata>
  <g
     id="layer1"
     inkscape:label="Layer 1"
     inkscape:groupmode="layer">
    <path
       inkscape:connector-curvature="0"
       style="fill:#666666;fill-opacity:1;stroke:none"
       d="m 26,14 c -0.831,0 -1.5,0.669 -1.5,1.5 l 0,3 0,1.5 2.999999,0 0,-3 0,-1.5 c 0,-0.831 -0.669,-1.5 -1.5,-1.5 z m 5.999999,0 c -0.831,0 -1.5,0.669 -1.5,1.5 l 0,3 0,1.5 3,0 0,-3 0,-1.5 c 0,-0.831 -0.669,-1.5 -1.5,-1.5 z m 6,0 c -0.831,0 -1.5,0.669 -1.5,1.5 l 0,3 0,1.5 3,0 0,-3 0,-1.5 c 0,-0.831 -0.669,-1.5 -1.5,-1.5 z M 22.671875,21.5 C 22.025525,21.5 21.5,22.0256 21.5,22.67195 l 0,18.67965 c 0,0.64635 0.525525,1.1484 1.171875,1.1484 l 18.656249,0 c 0.64635,0 1.171875,-0.50205 1.171875,-1.1484 l 0,-18.67965 C 42.499999,22.0256 41.974474,21.5 41.328124,21.5 l -18.656249,0 z M 15.5,24.00785 c -0.831,0 -1.5,0.669 -1.5,1.5 0,0.831 0.669,1.5 1.5,1.5 l 3,0 1.5,0 0,-3 -1.5,0 -3,0 z M 43.999999,24.5 l 0,3 3,0 1.500001,0 c 0.830999,0 1.5,-0.668925 1.5,-1.5 0,-0.831 -0.669001,-1.5 -1.5,-1.5 l -1.500001,0 -3,0 z M 15.5,30.00785 c -0.831,0 -1.5,0.669 -1.5,1.5 0,0.831 0.669,1.5 1.5,1.5 l 3,0 1.5,0 0,-3 -1.5,0 -3,0 z M 43.999999,30.5 l 0,3 3,0 1.500001,0 c 0.830999,0 1.5,-0.668925 1.5,-1.5 0,-0.831 -0.669001,-1.5 -1.5,-1.5 l -1.500001,0 -3,0 z M 15.5,36.00785 c -0.831,0 -1.5,0.669 -1.5,1.5 0,0.831 0.669,1.5 1.5,1.5 l 3,0 1.5,0 0,-3 -1.5,0 -3,0 z M 43.999999,36.5 l 0,3 3,0 1.500001,0 c 0.830999,0 1.5,-0.668925 1.5,-1.5 0,-0.831 -0.669001,-1.5 -1.5,-1.5 l -1.500001,0 -3,0 z M 24.5,44 l 0,3 0,1.5 c 0,0.831075 0.669,1.5 1.5,1.5 0.830999,0 1.5,-0.668925 1.5,-1.5 l 0,-3 0,-1.5 -3,0 z m 5.999999,0 0,3 0,1.5 c 0,0.831075 0.669,1.5 1.5,1.5 0.831,0 1.5,-0.668925 1.5,-1.5 l 0,-3 0,-1.5 -3,0 z m 6,0 0,3 0,1.5 c 0,0.831075 0.669,1.5 1.5,1.5 0.831,0 1.5,-0.668925 1.5,-1.5 l 0,-3 0,-1.5 -3,0 z"
       id="rect4550-4-6-9-79-9"
       inkscape:export-filename="/Users/bdharva/Dropbox/Jolt/software/jolt.github.io/assets/icons/general/chip.png"
       inkscape:export-xdpi="90"
       inkscape:export-ydpi="90" />
  </g>
</svg>
