<?xml version="1.0" encoding="UTF-8" standalone="no"?>
<!-- Created with Inkscape (http://www.inkscape.org/) -->

<svg
   xmlns:dc="http://purl.org/dc/elements/1.1/"
   xmlns:cc="http://creativecommons.org/ns#"
   xmlns:rdf="http://www.w3.org/1999/02/22-rdf-syntax-ns#"
   xmlns:svg="http://www.w3.org/2000/svg"
   xmlns="http://www.w3.org/2000/svg"
   xmlns:sodipodi="http://sodipodi.sourceforge.net/DTD/sodipodi-0.dtd"
   xmlns:inkscape="http://www.inkscape.org/namespaces/inkscape"
   width="48"
   height="48"
   id="svg4219"
   version="1.1"
   inkscape:version="0.48.5 r10040"
   sodipodi:docname="email-white.svg">
  <defs
     id="defs4221" />
  <sodipodi:namedview
     id="base"
     pagecolor="#ffffff"
     bordercolor="#666666"
     borderopacity="1.0"
     inkscape:pageopacity="0.0"
     inkscape:pageshadow="2"
     inkscape:zoom="13.854167"
     inkscape:cx="6.6766917"
     inkscape:cy="24"
     inkscape:current-layer="layer1"
     showgrid="true"
     inkscape:document-units="px"
     inkscape:grid-bbox="true"
     inkscape:window-width="1440"
     inkscape:window-height="851"
     inkscape:window-x="0"
     inkscape:window-y="0"
     inkscape:window-maximized="1" />
  <metadata
     id="metadata4224">
    <rdf:RDF>
      <cc:Work
         rdf:about="">
        <dc:format>image/svg+xml</dc:format>
        <dc:type
           rdf:resource="http://purl.org/dc/dcmitype/StillImage" />
        <dc:title></dc:title>
      </cc:Work>
    </rdf:RDF>
  </metadata>
  <g
     id="layer1"
     inkscape:label="Layer 1"
     inkscape:groupmode="layer"
     transform="translate(0,-16)">
    <path
       style="fill:#ffffff;fill-opacity:1;stroke:none"
       d="m 10,26 c -1.823325,0 -3.327215,1.212576 -3.8125,2.875 -0.045102,0.154504 -0.098565,0.306997 -0.125,0.46875 -0.00405,0.02064 0.00373,0.04176 0,0.0625 C 6.033824,29.60022 6,29.79781 6,30 L 6,31.09375 6,50 c 0,2.216 1.784,4 4,4 l 28,0 c 2.216,0 4,-1.784 4,-4 L 42,31.09375 42,30 c 0,-0.20219 -0.03382,-0.39978 -0.0625,-0.59375 -0.0037,-0.0207 0.004,-0.04191 0,-0.0625 C 41.91107,29.181997 41.8576,29.029504 41.8125,28.875 41.327215,27.212576 39.823325,26 38,26 l -28,0 z m 0,2 28,0 c 1.086818,0 1.966788,0.859026 2,1.9375 L 24.5,38.875 C 24.3546,38.9573 24.1787,39 24,39 23.8117,39 23.6501,38.9653 23.5,38.875 L 8,29.9375 C 8.033212,28.859026 8.913182,28 10,28 z m -2,4.25 14.5,8.375 c 0.928,0.5359 2.0716,0.5359 3,0 L 40,32.25 40,50 c 0,1.108 -0.892,2 -2,2 L 10,52 C 8.892,52 8,51.108 8,50 L 8,32.25 z"
       id="rect5519-7"
       inkscape:connector-curvature="0" />
  </g>
</svg>
