<?xml version="1.0" encoding="UTF-8" standalone="no"?>
<!-- Created with Inkscape (http://www.inkscape.org/) -->

<svg
   xmlns:dc="http://purl.org/dc/elements/1.1/"
   xmlns:cc="http://creativecommons.org/ns#"
   xmlns:rdf="http://www.w3.org/1999/02/22-rdf-syntax-ns#"
   xmlns:svg="http://www.w3.org/2000/svg"
   xmlns="http://www.w3.org/2000/svg"
   xmlns:sodipodi="http://sodipodi.sourceforge.net/DTD/sodipodi-0.dtd"
   xmlns:inkscape="http://www.inkscape.org/namespaces/inkscape"
   width="60"
   height="30"
   id="svg2985"
   version="1.1"
   inkscape:version="0.48.5 r10040"
   sodipodi:docname="email-white.svg">
  <defs
     id="defs2987" />
  <sodipodi:namedview
     id="base"
     pagecolor="#ffffff"
     bordercolor="#666666"
     borderopacity="1.0"
     inkscape:pageopacity="0.0"
     inkscape:pageshadow="2"
     inkscape:zoom="2.5976562"
     inkscape:cx="-65.443607"
     inkscape:cy="-15.815732"
     inkscape:current-layer="layer1"
     showgrid="true"
     inkscape:document-units="px"
     inkscape:grid-bbox="true"
     inkscape:window-width="1440"
     inkscape:window-height="851"
     inkscape:window-x="0"
     inkscape:window-y="0"
     inkscape:window-maximized="1" />
  <metadata
     id="metadata2990">
    <rdf:RDF>
      <cc:Work
         rdf:about="">
        <dc:format>image/svg+xml</dc:format>
        <dc:type
           rdf:resource="http://purl.org/dc/dcmitype/StillImage" />
        <dc:title />
      </cc:Work>
    </rdf:RDF>
  </metadata>
  <g
     id="layer1"
     inkscape:label="Layer 1"
     inkscape:groupmode="layer"
     transform="translate(0,-34)">
    <path
       inkscape:connector-curvature="0"
       id="rect4550-4-6-9-5-1-4"
       d="m 5,40 c -1.108,0 -2,0.892 -2,2 l 0,14 c 0,1.10805 0.892,2 2,2 l 20,0 c 1.108,0 2,-0.89195 2,-2 l 0,-14 c 0,-1.10795 -0.892,-1.99995 -2,-2 L 5,40 z m 1,2 18,0 c 0.554,0 1,0.44605 1,1 L 25,43.8438 15,49.625 5,43.8594 5,43 C 5,42.446 5.446,42 6,42 z M 25,46.1563 25,55 c 0,0.55405 -0.446,1 -1,1 L 6,56 C 5.446,56 5,55.55405 5,55 l 0,-8.8281 10,5.7656 10,-5.7812 z"
       style="fill:#ffffff;fill-opacity:1;stroke:none" />
    <path
       inkscape:connector-curvature="0"
       id="rect4550-4-6-9-5-1-4-4"
       d="m 35,40 c -1.108,0 -2,0.892 -2,2 l 0,14 c 0,1.10805 0.892,2 2,2 l 20,0 c 1.108,0 2,-0.89195 2,-2 l 0,-14 c 0,-1.10795 -0.892,-1.99995 -2,-2 l -20,0 z m 1,2 18,0 c 0.554,0 1,0.44605 1,1 L 55,43.8438 45,49.625 35,43.8594 35,43 c 0,-0.554 0.446,-1 1,-1 z M 55,46.1563 55,55 c 0,0.55405 -0.446,1 -1,1 l -18,0 c -0.554,0 -1,-0.44595 -1,-1 l 0,-8.8281 10,5.7656 10,-5.7812 z"
       style="fill:#ccff00;fill-opacity:1;stroke:none" />
  </g>
</svg>
