<?xml version="1.0" encoding="UTF-8" standalone="no"?>
<!-- Created with Inkscape (http://www.inkscape.org/) -->

<svg
   xmlns:dc="http://purl.org/dc/elements/1.1/"
   xmlns:cc="http://creativecommons.org/ns#"
   xmlns:rdf="http://www.w3.org/1999/02/22-rdf-syntax-ns#"
   xmlns:svg="http://www.w3.org/2000/svg"
   xmlns="http://www.w3.org/2000/svg"
   xmlns:sodipodi="http://sodipodi.sourceforge.net/DTD/sodipodi-0.dtd"
   xmlns:inkscape="http://www.inkscape.org/namespaces/inkscape"
   width="64px"
   height="64px"
   id="svg4219"
   version="1.1"
   inkscape:version="0.48.5 r10040"
   sodipodi:docname="New document 14">
  <defs
     id="defs4221" />
  <sodipodi:namedview
     id="base"
     pagecolor="#ffffff"
     bordercolor="#666666"
     borderopacity="1.0"
     inkscape:pageopacity="0.0"
     inkscape:pageshadow="2"
     inkscape:zoom="13.203125"
     inkscape:cx="22.494675"
     inkscape:cy="32"
     inkscape:current-layer="layer1"
     showgrid="true"
     inkscape:document-units="px"
     inkscape:grid-bbox="true"
     inkscape:window-width="1920"
     inkscape:window-height="1031"
     inkscape:window-x="0"
     inkscape:window-y="0"
     inkscape:window-maximized="1" />
  <metadata
     id="metadata4224">
    <rdf:RDF>
      <cc:Work
         rdf:about="">
        <dc:format>image/svg+xml</dc:format>
        <dc:type
           rdf:resource="http://purl.org/dc/dcmitype/StillImage" />
        <dc:title></dc:title>
      </cc:Work>
    </rdf:RDF>
  </metadata>
  <g
     id="layer1"
     inkscape:label="Layer 1"
     inkscape:groupmode="layer">
    <path
       inkscape:connector-curvature="0"
       id="rect4550-4-6-9-5-1-4"
       d="m 17,18.5 c -1.662,0 -3,1.338 -3,3 l 0,21 c 0,1.662075 1.338,3 3,3 l 30,0 c 1.662,0 3,-1.337925 3,-3 l 0,-21 c 0,-1.661925 -1.338,-2.999925 -3,-3 l -30,0 z m 1.5,3 27,0 c 0.831,0 1.5,0.669075 1.5,1.5 L 47,24.2657 32,32.9375 17,24.2891 17,23 c 0,-0.831 0.669,-1.5 1.5,-1.5 z M 47,27.73445 47,41 c 0,0.831075 -0.669,1.5 -1.5,1.5 l -27,0 C 17.669,42.5 17,41.831075 17,41 l 0,-13.24215 15,8.6484 15,-8.6718 z"
       style="fill:#666666;fill-opacity:1;stroke:none" />
  </g>
</svg>
