<?xml version="1.0" encoding="UTF-8" standalone="no"?>
<!-- Created with Inkscape (http://www.inkscape.org/) -->

<svg
   xmlns:dc="http://purl.org/dc/elements/1.1/"
   xmlns:cc="http://creativecommons.org/ns#"
   xmlns:rdf="http://www.w3.org/1999/02/22-rdf-syntax-ns#"
   xmlns:svg="http://www.w3.org/2000/svg"
   xmlns="http://www.w3.org/2000/svg"
   xmlns:sodipodi="http://sodipodi.sourceforge.net/DTD/sodipodi-0.dtd"
   xmlns:inkscape="http://www.inkscape.org/namespaces/inkscape"
   width="64px"
   height="64px"
   id="svg4219"
   version="1.1"
   inkscape:version="0.48.5 r10040"
   sodipodi:docname="gear.svg">
  <defs
     id="defs4221" />
  <sodipodi:namedview
     id="base"
     pagecolor="#ffffff"
     bordercolor="#666666"
     borderopacity="1.0"
     inkscape:pageopacity="0.0"
     inkscape:pageshadow="2"
     inkscape:zoom="13.203125"
     inkscape:cx="22.494675"
     inkscape:cy="32"
     inkscape:current-layer="layer1"
     showgrid="true"
     inkscape:document-units="px"
     inkscape:grid-bbox="true"
     inkscape:window-width="1920"
     inkscape:window-height="1031"
     inkscape:window-x="0"
     inkscape:window-y="0"
     inkscape:window-maximized="1" />
  <metadata
     id="metadata4224">
    <rdf:RDF>
      <cc:Work
         rdf:about="">
        <dc:format>image/svg+xml</dc:format>
        <dc:type
           rdf:resource="http://purl.org/dc/dcmitype/StillImage" />
        <dc:title></dc:title>
      </cc:Work>
    </rdf:RDF>
  </metadata>
  <g
     id="layer1"
     inkscape:label="Layer 1"
     inkscape:groupmode="layer">
    <path
       style="fill:#666666;fill-opacity:1;stroke:none"
       d="m 31.999851,14 c -0.7674,0 -1.5078,0.048 -2.25,0.1407 l 0,3.000001 c -1.12935,0.1704 -2.2023,0.483 -3.23445,0.8907 l -1.5,-2.625001 -0.0465,0 c -1.37865,0.58695 -2.667,1.401301 -3.843751,2.296801 l 1.500001,2.625 C 21.77285,21.015651 20.96525,21.769851 20.2814,22.625 l -2.5782,-1.499999 c -0.90375,1.188 -1.70745,2.497499 -2.2968,3.890699 l 2.625,1.5468 c -0.39255,1.0128 -0.6786,2.0823 -0.84375,3.1875 l -3.04695,0 c -0.0927,0.74235 -0.14055,1.48275 -0.14055,2.25 0,0.7674 0.048,1.5078 0.14055,2.25 l 3.04695,0 c 0.16845,1.10445 0.4482,2.1762 0.84375,3.1875 l -2.625,1.54695 c 0.58935,1.3932 1.39305,2.70285 2.2968,3.89055 l 2.625,-1.5 c 0.67545,0.8379 1.4592,1.62165 2.296951,2.29695 l -1.500001,2.625 c 1.176751,0.8955 2.465101,1.70985 3.843751,2.29695 l 0.0465,0 1.54695,-2.67195 c 1.01985,0.39915 2.07315,0.72255 3.1875,0.89055 l 0,3.04695 c 0.7422,0.093 1.4826,0.1407 2.25,0.14055 0.76755,0 1.50795,-0.04725 2.25,-0.14055 l 0,-3.04695 c 1.1115,-0.16605 2.16975,-0.49455 3.1875,-0.89055 l 1.54695,2.67195 c 1.3722,-0.5805 2.67,-1.36395 3.8436,-2.25 l -1.5,-2.5782 c 0.87675,-0.6945 1.64205,-1.5201 2.3439,-2.3907 l 2.625,1.5 c 0.90375,-1.18785 1.7076,-2.49735 2.296799,-3.89055 L 45.968601,37.4375 c 0.396,-1.01145 0.675,-2.08275 0.84375,-3.1875 l 3.046949,0 c 0.0927,-0.7422 0.14055,-1.4826 0.14055,-2.25 0,-0.76725 -0.048,-1.50765 -0.14055,-2.25 l -3.046949,0 c -0.1677,-1.1208 -0.44235,-2.2089 -0.84375,-3.2343 l 2.624999,-1.5 c -0.589199,-1.3932 -1.392899,-2.702699 -2.296799,-3.890699 l -2.5782,1.499999 c -0.7098,-0.887699 -1.49985,-1.684199 -2.3907,-2.390549 l 1.5,-2.57805 c -1.1736,-0.8865 -2.4711,-1.669651 -3.8436,-2.250001 l -1.5,2.625001 c -1.0299,-0.4041 -2.10825,-0.7224 -3.23445,-0.8907 l 0,-3.000001 c -0.74205,-0.093 -1.48245,-0.14055 -2.25,-0.1407 z m 0,9 c 4.97055,0 9,4.02945 9,9 0,4.9707 -4.02945,9 -9,9 -4.97055,0 -9,-4.0293 -9,-9 0,-4.97055 4.02945,-9 9,-9 z"
       id="rect8353-8-1"
       inkscape:connector-curvature="0"
       inkscape:export-filename="/Users/bdharva/Dropbox/Jolt/software/jolt.github.io/assets/icons/general/gear.png"
       inkscape:export-xdpi="89.971069"
       inkscape:export-ydpi="89.971069" />
  </g>
</svg>
