<?xml version="1.0" encoding="UTF-8" standalone="no"?>
<!-- Created with Inkscape (http://www.inkscape.org/) -->

<svg
   xmlns:dc="http://purl.org/dc/elements/1.1/"
   xmlns:cc="http://creativecommons.org/ns#"
   xmlns:rdf="http://www.w3.org/1999/02/22-rdf-syntax-ns#"
   xmlns:svg="http://www.w3.org/2000/svg"
   xmlns="http://www.w3.org/2000/svg"
   xmlns:sodipodi="http://sodipodi.sourceforge.net/DTD/sodipodi-0.dtd"
   xmlns:inkscape="http://www.inkscape.org/namespaces/inkscape"
   width="64px"
   height="64px"
   id="svg5482"
   version="1.1"
   inkscape:version="0.48.5 r10040"
   sodipodi:docname="helmet-blue.svg">
  <defs
     id="defs5484" />
  <sodipodi:namedview
     id="base"
     pagecolor="#ffffff"
     bordercolor="#666666"
     borderopacity="1.0"
     inkscape:pageopacity="0.0"
     inkscape:pageshadow="2"
     inkscape:zoom="8.3174723"
     inkscape:cx="29.202017"
     inkscape:cy="32"
     inkscape:current-layer="layer1"
     showgrid="true"
     inkscape:document-units="px"
     inkscape:grid-bbox="true"
     inkscape:window-width="1440"
     inkscape:window-height="851"
     inkscape:window-x="0"
     inkscape:window-y="0"
     inkscape:window-maximized="1" />
  <metadata
     id="metadata5487">
    <rdf:RDF>
      <cc:Work
         rdf:about="">
        <dc:format>image/svg+xml</dc:format>
        <dc:type
           rdf:resource="http://purl.org/dc/dcmitype/StillImage" />
        <dc:title></dc:title>
      </cc:Work>
    </rdf:RDF>
  </metadata>
  <g
     id="layer1"
     inkscape:label="Layer 1"
     inkscape:groupmode="layer">
    <path
       style="font-size:medium;font-style:normal;font-variant:normal;font-weight:normal;font-stretch:normal;text-indent:0;text-align:start;text-decoration:none;line-height:normal;letter-spacing:normal;word-spacing:normal;text-transform:none;direction:ltr;block-progression:tb;writing-mode:lr-tb;text-anchor:start;baseline-shift:baseline;color:#000000;fill:#ffffff;fill-opacity:1;stroke:none;stroke-width:2;marker:none;visibility:visible;display:inline;overflow:visible;enable-background:accumulate;font-family:Sans;-inkscape-font-specification:Sans"
       d="M 29.0625 14.03125 C 28.700367 14.039856 28.344271 14.067066 27.96875 14.09375 C 16.716987 14.893295 11.59375 23.71862 11.59375 30.40625 C 11.59375 33.630457 12.256341 35.615793 12.875 37.25 C 13.493659 38.884207 14.02584 40.113301 14 42.25 A 1.0001 1.0001 0 0 0 14.96875 43.25 C 18.38757 43.33422 19.897234 44.253087 21.25 45.4375 C 22.602766 46.621913 23.764259 48.261765 26.03125 49.40625 C 27.253482 50.023282 29.17341 50.569687 31.3125 50.375 C 33.45159 50.180313 35.825613 49.154959 37.53125 46.71875 C 38.489037 45.350713 38.784812 43.918537 38.75 42.59375 C 38.745789 42.433471 38.7312 42.282896 38.71875 42.125 C 38.922012 42.100848 39.118732 42.050299 39.3125 42 C 39.525878 41.94461 39.763714 41.92381 40.0625 41.625 C 40.393454 41.294093 40.742487 40.830138 41.15625 40.375 C 41.262273 40.258375 41.357466 40.162973 41.46875 40.0625 C 41.878051 41.322382 42.302707 42.543755 42.6875 43.59375 C 43.005798 44.462298 43.314308 45.237942 43.59375 45.84375 C 43.850584 46.400547 44.057137 46.764209 44.46875 47.15625 L 44.4375 47.1875 C 44.45853 47.21087 44.47915 47.1971 44.5 47.21875 C 44.5192 47.23601 44.5109 47.26396 44.53125 47.28125 L 44.5625 47.25 C 45.0465 47.719531 45.470477 47.816946 46.03125 47.96875 C 46.639949 48.133528 47.363364 48.273141 48.0625 48.375 C 48.761636 48.476859 49.432197 48.535979 50 48.5625 C 50.283902 48.57576 50.550072 48.57613 50.78125 48.5625 C 51.012428 48.54887 51.145018 48.663761 51.625 48.34375 C 51.964325 48.117563 51.985116 47.95544 52.03125 47.84375 C 52.07738 47.73206 52.10578 47.645181 52.125 47.5625 C 52.16345 47.397138 52.1649 47.223997 52.1875 47.03125 C 52.2327 46.645755 52.2836 46.170518 52.3125 45.59375 C 52.3703 44.440213 52.39286 42.928731 52.40625 41.4375 C 52.41964 39.946269 52.42985 38.456052 52.40625 37.3125 C 52.39445 36.740724 52.36455 36.272174 52.34375 35.90625 C 52.33335 35.723288 52.32812 35.572699 52.3125 35.4375 C 52.3047 35.3699 52.29751 35.297589 52.28125 35.21875 C 52.26499 35.13991 52.345 35.116119 52.09375 34.78125 C 51.736088 34.304334 51.569781 34.401025 51.46875 34.375 C 51.367719 34.34898 51.293438 34.35304 51.21875 34.34375 C 51.069375 34.32516 50.90921 34.28985 50.71875 34.28125 C 50.337831 34.26405 49.843824 34.28295 49.25 34.28125 C 48.799238 34.27996 48.158684 34.278314 47.625 34.28125 A 1.0001 1.0001 0 0 0 47.5 34.28125 C 46.66105 34.286289 45.887676 34.299344 44.96875 34.3125 C 43.842514 34.32859 42.829088 34.3334 41.84375 34.34375 C 41.471496 33.077503 41.325225 32.632259 41 31.53125 C 42.174713 31.138105 44.222151 30.484059 46.6875 30.03125 A 1.0001 1.0001 0 0 0 47.5 29.15625 C 47.54188 28.779315 47.64965 28.071632 47.34375 27.28125 C 47.1908 26.886059 46.883728 26.447512 46.4375 26.15625 C 46.047051 25.901396 45.578834 25.784172 45.0625 25.78125 C 44.350139 23.246039 43.118274 20.632828 41.0625 18.5 C 38.439407 15.778589 34.494497 13.902165 29.0625 14.03125 z M 30.0625 16.03125 C 34.485814 16.128415 37.515083 17.717249 39.625 19.90625 C 41.349236 21.695113 42.4061 23.938749 43.03125 26.15625 C 42.900102 26.190852 42.799533 26.211882 42.65625 26.25 C 41.701028 26.50412 40.568997 26.840182 39.40625 27.21875 C 38.243503 27.597318 37.067367 27.999228 36.09375 28.40625 C 35.120133 28.813272 34.388107 29.111893 33.8125 29.6875 A 1.0001 1.0001 0 0 0 33.6875 29.8125 C 33.21246 30.498728 32.567687 31.878089 31.75 33.53125 C 30.932313 35.184411 30.0304 37.011421 29.375 38.21875 A 1.0001 1.0001 0 0 0 29.6875 39.53125 C 30.658244 40.203325 31.645536 40.743106 32.5 41.15625 C 33.354464 41.569394 34.029808 41.86054 34.625 41.96875 C 35.087626 42.052869 35.873416 42.0963 36.71875 42.125 C 36.734797 42.288896 36.745786 42.464641 36.75 42.625 C 36.77637 43.628638 36.618663 44.544937 35.90625 45.5625 C 34.535387 47.520541 32.833085 48.222385 31.15625 48.375 C 29.479415 48.527615 27.802068 48.061468 26.9375 47.625 C 25.124091 46.709505 24.139184 45.286715 22.5625 43.90625 C 21.130652 42.652597 19.057102 41.667324 15.875 41.40625 C 15.746885 39.442598 15.269696 37.935294 14.75 36.5625 C 14.148359 34.973244 13.59375 33.364253 13.59375 30.40625 C 13.59375 24.72948 17.828913 16.823165 28.09375 16.09375 C 28.78462 16.044658 29.430598 16.017369 30.0625 16.03125 z M 38.40625 29.65625 C 38.415283 29.687345 38.48562 29.919252 38.5 29.96875 C 38.083608 30.3377 37.70584 30.781615 37.375 31.3125 C 37.35872 31.33219 37.35976 31.35528 37.34375 31.375 C 37.32729 31.40207 37.29744 31.40999 37.28125 31.4375 C 37.24179 31.487162 37.225356 31.543855 37.1875 31.59375 C 37.060283 31.555589 36.935743 31.524652 36.8125 31.5 C 36.483851 31.43427 36.133252 31.394163 35.75 31.375 C 35.558241 31.365411 35.357263 31.348429 35.15625 31.34375 C 35.19412 31.278167 35.28983 31.097477 35.3125 31.0625 C 35.40611 30.99551 36.027305 30.60438 36.875 30.25 C 37.340073 30.055576 37.854471 29.852257 38.40625 29.65625 z M 39.15625 32.28125 C 39.413394 33.165408 39.494359 33.466873 39.75 34.34375 C 39.583359 34.34225 39.346872 34.34695 39.21875 34.34375 C 39.16097 34.34225 39.14256 34.34555 39.09375 34.34375 C 39.08435 34.32892 39.07235 34.3286 39.0625 34.3125 C 38.946094 34.12219 38.801599 33.844648 38.65625 33.5625 C 38.584202 33.422641 38.532261 33.347679 38.46875 33.21875 C 38.600321 33.016105 38.731473 32.805177 38.90625 32.59375 A 1.0001 1.0001 0 0 0 39 32.46875 C 39.043063 32.395548 39.110242 32.350193 39.15625 32.28125 z M 34.09375 33.34375 C 34.620851 33.333254 35.185401 33.351457 35.65625 33.375 C 35.86018 33.385198 35.986289 33.390597 36.125 33.40625 C 35.839892 34.132207 35.694723 34.869399 35.65625 35.5625 C 35.58006 36.935095 35.865976 38.198279 36.15625 39.375 C 36.220891 39.637045 36.283039 39.873122 36.34375 40.125 C 35.710415 40.087922 35.125892 40.028573 34.96875 40 C 34.782842 39.9662 34.135936 39.742921 33.375 39.375 C 32.831658 39.112288 32.188444 38.703351 31.5625 38.3125 C 32.184517 37.118773 32.895701 35.754352 33.5625 34.40625 C 33.757767 34.011469 33.910251 33.704027 34.09375 33.34375 z M 37.65625 35.78125 C 37.740604 35.893054 37.819411 36.010424 38.0625 36.15625 C 38.358927 36.334123 38.39038 36.299709 38.46875 36.3125 C 38.54712 36.32529 38.616894 36.3069 38.6875 36.3125 C 38.828712 36.32376 38.994443 36.33885 39.1875 36.34375 C 39.48513 36.35125 39.914223 36.344151 40.34375 36.34375 C 40.524719 36.944769 40.495998 36.942709 40.6875 37.5625 C 40.729836 37.69952 40.769829 37.831645 40.8125 37.96875 C 40.340313 38.259876 40.033255 38.650921 39.6875 39.03125 C 39.261301 39.500068 38.898891 39.896622 38.75 40.0625 C 38.68548 40.07612 38.600423 40.1121 38.46875 40.125 C 38.444795 40.127347 38.400493 40.122908 38.375 40.125 C 38.277623 39.699217 38.193197 39.278142 38.09375 38.875 C 37.821482 37.77127 37.622696 36.752287 37.65625 35.78125 z M 48.875 36.28125 C 48.982977 36.281301 49.147655 36.28096 49.25 36.28125 C 49.711354 36.28255 50.035037 36.27175 50.34375 36.28125 C 50.35181 36.455662 50.360854 36.696016 50.375 36.90625 C 50.173979 36.919563 49.454631 36.964693 48.9375 37 C 48.917785 36.748761 48.895335 36.494979 48.875 36.28125 z M 45 36.3125 C 45.673399 36.302878 46.205497 36.31795 46.84375 36.3125 C 46.865745 36.532391 46.881564 36.841597 46.90625 37.125 C 46.748194 37.136555 46.753387 37.144402 46.59375 37.15625 C 45.454728 37.24079 44.303645 37.353385 43.375 37.4375 C 43.143318 37.458487 42.979511 37.455307 42.78125 37.46875 C 42.728524 37.299693 42.677209 37.137724 42.625 36.96875 C 42.52691 36.651273 42.53322 36.657951 42.4375 36.34375 C 43.288058 36.3334 44.077571 36.32568 45 36.3125 z M 50.40625 38.90625 C 50.407782 39.737813 50.414493 40.519543 50.40625 41.4375 C 50.39302 42.910765 50.36788 44.36341 50.3125 45.46875 C 50.28998 45.918203 50.27829 46.269413 50.25 46.5625 C 50.19075 46.561 50.15984 46.5656 50.09375 46.5625 C 49.855089 46.551355 49.578946 46.5246 49.28125 46.5 C 49.274854 45.971709 49.2422 43.961449 49.15625 41.53125 C 49.125008 40.647889 49.073677 39.836362 49.03125 39 C 49.533138 38.965358 50.189208 38.920844 50.40625 38.90625 z M 47.03125 39.125 C 47.073375 39.939731 47.125502 40.724342 47.15625 41.59375 C 47.239394 43.944692 47.242357 45.580476 47.25 46.1875 C 47.008342 46.132848 46.762211 46.085313 46.5625 46.03125 C 46.195243 45.931832 45.883347 45.738102 45.84375 45.75 C 45.806761 45.679151 45.586922 45.391683 45.40625 45 C 45.165354 44.477756 44.901191 43.745173 44.59375 42.90625 C 44.221497 41.890471 43.811763 40.685183 43.40625 39.4375 C 43.466418 39.431627 43.500501 39.411865 43.5625 39.40625 C 44.471158 39.32395 45.616809 39.240352 46.75 39.15625 C 46.894053 39.145559 46.888499 39.135467 47.03125 39.125 z "
       id="path5431" />
  </g>
</svg>
