<?xml version="1.0" encoding="UTF-8" standalone="no"?>
<!-- Created with Inkscape (http://www.inkscape.org/) -->

<svg
   xmlns:dc="http://purl.org/dc/elements/1.1/"
   xmlns:cc="http://creativecommons.org/ns#"
   xmlns:rdf="http://www.w3.org/1999/02/22-rdf-syntax-ns#"
   xmlns:svg="http://www.w3.org/2000/svg"
   xmlns="http://www.w3.org/2000/svg"
   xmlns:sodipodi="http://sodipodi.sourceforge.net/DTD/sodipodi-0.dtd"
   xmlns:inkscape="http://www.inkscape.org/namespaces/inkscape"
   width="48"
   height="48"
   id="svg5482"
   version="1.1"
   inkscape:version="0.48.5 r10040"
   sodipodi:docname="helmet-blue.svg">
  <defs
     id="defs5484" />
  <sodipodi:namedview
     id="base"
     pagecolor="#ffffff"
     bordercolor="#666666"
     borderopacity="1.0"
     inkscape:pageopacity="0.0"
     inkscape:pageshadow="2"
     inkscape:zoom="8.3174723"
     inkscape:cx="14.113298"
     inkscape:cy="32"
     inkscape:current-layer="layer1"
     showgrid="true"
     inkscape:document-units="px"
     inkscape:grid-bbox="true"
     inkscape:window-width="1440"
     inkscape:window-height="851"
     inkscape:window-x="0"
     inkscape:window-y="0"
     inkscape:window-maximized="1" />
  <metadata
     id="metadata5487">
    <rdf:RDF>
      <cc:Work
         rdf:about="">
        <dc:format>image/svg+xml</dc:format>
        <dc:type
           rdf:resource="http://purl.org/dc/dcmitype/StillImage" />
        <dc:title />
      </cc:Work>
    </rdf:RDF>
  </metadata>
  <g
     id="layer1"
     inkscape:label="Layer 1"
     inkscape:groupmode="layer"
     transform="translate(0,-16)">
    <path
       style="font-size:medium;font-style:normal;font-variant:normal;font-weight:normal;font-stretch:normal;text-indent:0;text-align:start;text-decoration:none;line-height:normal;letter-spacing:normal;word-spacing:normal;text-transform:none;direction:ltr;block-progression:tb;writing-mode:lr-tb;text-anchor:start;baseline-shift:baseline;color:#000000;fill:#1a66d8;fill-opacity:1;stroke:none;stroke-width:2;marker:none;visibility:visible;display:inline;overflow:visible;enable-background:accumulate;font-family:Sans;-inkscape-font-specification:Sans"
       d="m 21.055437,21.811244 c -0.362133,0.0086 -0.718229,0.03582 -1.09375,0.0625 -11.2517631,0.799545 -16.3750001,9.62487 -16.3750001,16.3125 0,3.224207 0.662591,5.209543 1.28125,6.84375 0.618659,1.634207 1.15084,2.863301 1.125,5 a 1.0001,1.0001 0 0 0 0.96875,1 c 3.4188201,0.08422 4.9284841,1.003087 6.2812501,2.1875 1.352766,1.184413 2.514259,2.824265 4.78125,3.96875 1.222232,0.617032 3.14216,1.163437 5.28125,0.96875 2.13909,-0.194687 4.513113,-1.220041 6.21875,-3.65625 0.957787,-1.368037 1.253562,-2.800213 1.21875,-4.125 -0.0042,-0.160279 -0.0188,-0.310854 -0.03125,-0.46875 0.203262,-0.02415 0.399982,-0.0747 0.59375,-0.125 0.213378,-0.05539 0.451214,-0.07619 0.75,-0.375 0.330954,-0.330907 0.679987,-0.794862 1.09375,-1.25 0.106023,-0.116625 0.201216,-0.212027 0.3125,-0.3125 0.409301,1.259882 0.833957,2.481255 1.21875,3.53125 0.318298,0.868548 0.626808,1.644192 0.90625,2.25 0.256834,0.556797 0.463387,0.920459 0.875,1.3125 l -0.03125,0.03125 c 0.02103,0.02337 0.04165,0.0096 0.0625,0.03125 0.0192,0.01726 0.0109,0.04521 0.03125,0.0625 l 0.03125,-0.03125 c 0.484,0.469531 0.907977,0.566946 1.46875,0.71875 0.608699,0.164778 1.332114,0.304391 2.03125,0.40625 0.699136,0.101859 1.369697,0.160979 1.9375,0.1875 0.283902,0.01326 0.550072,0.01363 0.78125,0 0.231178,-0.01363 0.363768,0.101261 0.84375,-0.21875 0.339325,-0.226187 0.360116,-0.38831 0.40625,-0.5 0.04613,-0.11169 0.07453,-0.198569 0.09375,-0.28125 0.03845,-0.165362 0.0399,-0.338503 0.0625,-0.53125 0.0452,-0.385495 0.0961,-0.860732 0.125,-1.4375 0.0578,-1.153537 0.08036,-2.665019 0.09375,-4.15625 0.01339,-1.491231 0.0236,-2.981448 0,-4.125 -0.0118,-0.571776 -0.0417,-1.040326 -0.0625,-1.40625 -0.0104,-0.182962 -0.01563,-0.333551 -0.03125,-0.46875 -0.0078,-0.0676 -0.01499,-0.139911 -0.03125,-0.21875 -0.01626,-0.07884 0.06375,-0.102631 -0.1875,-0.4375 -0.357662,-0.476916 -0.523969,-0.380225 -0.625,-0.40625 -0.101031,-0.02602 -0.175312,-0.02196 -0.25,-0.03125 -0.149375,-0.01859 -0.30954,-0.0539 -0.5,-0.0625 -0.380919,-0.0172 -0.874926,0.0017 -1.46875,0 -0.450762,-0.0013 -1.091316,-0.0029 -1.625,0 a 1.0001,1.0001 0 0 0 -0.125,0 c -0.83895,0.005 -1.612324,0.01809 -2.53125,0.03125 -1.126236,0.01609 -2.139662,0.0209 -3.125,0.03125 -0.372254,-1.266247 -0.518525,-1.711491 -0.84375,-2.8125 1.174713,-0.393145 3.222151,-1.047191 5.6875,-1.5 a 1.0001,1.0001 0 0 0 0.8125,-0.875 c 0.04188,-0.376935 0.14965,-1.084618 -0.15625,-1.875 -0.15295,-0.395191 -0.460022,-0.833738 -0.90625,-1.125 -0.390449,-0.254854 -0.858666,-0.372078 -1.375,-0.375 -0.712361,-2.535211 -1.944226,-5.148422 -4,-7.28125 -2.623093,-2.721411 -6.568003,-4.597835 -12,-4.46875 z m 1,2 c 4.423314,0.09717 7.452583,1.685999 9.5625,3.875 1.724236,1.788863 2.7811,4.032499 3.40625,6.25 -0.131148,0.0346 -0.231717,0.05563 -0.375,0.09375 -0.955222,0.25412 -2.087253,0.590182 -3.25,0.96875 -1.162747,0.378568 -2.338883,0.780478 -3.3125,1.1875 -0.973617,0.407022 -1.705643,0.705643 -2.28125,1.28125 a 1.0001,1.0001 0 0 0 -0.125,0.125 c -0.47504,0.686228 -1.119813,2.065589 -1.9375,3.71875 -0.817687,1.653161 -1.7196,3.480171 -2.375,4.6875 a 1.0001,1.0001 0 0 0 0.3125,1.3125 c 0.970744,0.672075 1.958036,1.211856 2.8125,1.625 0.854464,0.413144 1.529808,0.70429 2.125,0.8125 0.462626,0.08412 1.248416,0.12755 2.09375,0.15625 0.01605,0.163896 0.02704,0.339641 0.03125,0.5 0.02637,1.003638 -0.131337,1.919937 -0.84375,2.9375 -1.370863,1.958041 -3.073165,2.659885 -4.75,2.8125 -1.676835,0.152615 -3.354182,-0.313532 -4.21875,-0.75 -1.813409,-0.915495 -2.798316,-2.338285 -4.375,-3.71875 -1.431848,-1.253653 -3.505398,-2.238926 -6.6875001,-2.5 -0.128115,-1.963652 -0.605304,-3.470956 -1.125,-4.84375 -0.601641,-1.589256 -1.15625,-3.198247 -1.15625,-6.15625 0,-5.67677 4.235163,-13.583085 14.5000001,-14.3125 0.69087,-0.04909 1.336848,-0.07638 1.96875,-0.0625 z m 8.34375,13.625 c 0.009,0.0311 0.07937,0.263002 0.09375,0.3125 -0.416392,0.36895 -0.79416,0.812865 -1.125,1.34375 -0.01628,0.01969 -0.01524,0.04278 -0.03125,0.0625 -0.01646,0.02707 -0.04631,0.03499 -0.0625,0.0625 -0.03946,0.04966 -0.05589,0.106355 -0.09375,0.15625 -0.127217,-0.03816 -0.251757,-0.0691 -0.375,-0.09375 -0.328649,-0.06573 -0.679248,-0.105837 -1.0625,-0.125 -0.191759,-0.0096 -0.392737,-0.02657 -0.59375,-0.03125 0.03787,-0.06558 0.13358,-0.246273 0.15625,-0.28125 0.09361,-0.06699 0.714805,-0.45812 1.5625,-0.8125 0.465073,-0.194424 0.979471,-0.397743 1.53125,-0.59375 z m 0.75,2.625 c 0.257144,0.884158 0.338109,1.185623 0.59375,2.0625 -0.166641,-0.0015 -0.403128,0.0032 -0.53125,0 -0.05778,-0.0015 -0.07619,0.0018 -0.125,0 -0.0094,-0.01483 -0.0214,-0.01515 -0.03125,-0.03125 -0.116406,-0.19031 -0.260901,-0.467852 -0.40625,-0.75 -0.07205,-0.139859 -0.123989,-0.214821 -0.1875,-0.34375 0.131571,-0.202645 0.262723,-0.413573 0.4375,-0.625 a 1.0001,1.0001 0 0 0 0.09375,-0.125 c 0.04306,-0.0732 0.110242,-0.118557 0.15625,-0.1875 z m -5.0625,1.0625 c 0.527101,-0.0105 1.091651,0.0077 1.5625,0.03125 0.20393,0.0102 0.330039,0.0156 0.46875,0.03125 -0.285108,0.725957 -0.430277,1.463149 -0.46875,2.15625 -0.07619,1.372595 0.209726,2.635779 0.5,3.8125 0.06464,0.262045 0.126789,0.498122 0.1875,0.75 -0.633335,-0.03708 -1.217858,-0.09643 -1.375,-0.125 -0.185908,-0.0338 -0.832814,-0.257079 -1.59375,-0.625 -0.543342,-0.262712 -1.186556,-0.671649 -1.8125,-1.0625 0.622017,-1.193727 1.333201,-2.558148 2,-3.90625 0.195267,-0.394781 0.347751,-0.702223 0.53125,-1.0625 z m 3.5625,2.4375 c 0.08435,0.111804 0.163161,0.229174 0.40625,0.375 0.296427,0.177873 0.32788,0.143459 0.40625,0.15625 0.07837,0.01279 0.148144,-0.0056 0.21875,0 0.141212,0.01126 0.306943,0.02635 0.5,0.03125 0.29763,0.0075 0.726723,4.01e-4 1.15625,0 0.180969,0.601019 0.152248,0.598959 0.34375,1.21875 0.04234,0.13702 0.08233,0.269145 0.125,0.40625 -0.472187,0.291126 -0.779245,0.682171 -1.125,1.0625 -0.426199,0.468818 -0.788609,0.865372 -0.9375,1.03125 -0.06452,0.01362 -0.149577,0.0496 -0.28125,0.0625 -0.02396,0.0023 -0.06826,-0.0021 -0.09375,0 -0.09738,-0.425783 -0.181803,-0.846858 -0.28125,-1.25 -0.272268,-1.10373 -0.471054,-2.122713 -0.4375,-3.09375 z m 11.21875,0.5 c 0.107977,5.1e-5 0.272655,-2.9e-4 0.375,0 0.461354,0.0013 0.785037,-0.0095 1.09375,0 0.0081,0.174412 0.0171,0.414766 0.03125,0.625 -0.201021,0.01331 -0.920369,0.05844 -1.4375,0.09375 -0.01971,-0.251239 -0.04216,-0.505021 -0.0625,-0.71875 z m -3.875,0.03125 c 0.673399,-0.0096 1.205497,0.0055 1.84375,0 0.02199,0.219891 0.03781,0.529097 0.0625,0.8125 -0.158056,0.01156 -0.152863,0.0194 -0.3125,0.03125 -1.139022,0.08454 -2.290105,0.197135 -3.21875,0.28125 -0.231682,0.02099 -0.395489,0.01781 -0.59375,0.03125 -0.05273,-0.169057 -0.104041,-0.331026 -0.15625,-0.5 -0.09809,-0.317477 -0.09178,-0.310799 -0.1875,-0.625 0.850558,-0.01035 1.640071,-0.01807 2.5625,-0.03125 z m 5.40625,2.59375 c 0.0015,0.831563 0.0082,1.613293 0,2.53125 -0.01323,1.473265 -0.03837,2.92591 -0.09375,4.03125 -0.02252,0.449453 -0.03421,0.800663 -0.0625,1.09375 -0.05925,-0.0015 -0.09016,0.0031 -0.15625,0 -0.238661,-0.01114 -0.514804,-0.0379 -0.8125,-0.0625 -0.0064,-0.528291 -0.03905,-2.538551 -0.125,-4.96875 -0.03124,-0.883361 -0.08257,-1.694888 -0.125,-2.53125 0.501888,-0.03464 1.157958,-0.07916 1.375,-0.09375 z m -3.375,0.21875 c 0.04212,0.814731 0.09425,1.599342 0.125,2.46875 0.08314,2.350942 0.08611,3.986726 0.09375,4.59375 -0.241658,-0.05465 -0.487789,-0.102187 -0.6875,-0.15625 -0.367257,-0.09942 -0.679153,-0.293148 -0.71875,-0.28125 -0.03699,-0.07085 -0.256828,-0.358317 -0.4375,-0.75 -0.240896,-0.522244 -0.505059,-1.254827 -0.8125,-2.09375 -0.372253,-1.015779 -0.781987,-2.221067 -1.1875,-3.46875 0.06017,-0.0059 0.09425,-0.02564 0.15625,-0.03125 0.908658,-0.0823 2.054309,-0.165898 3.1875,-0.25 0.144053,-0.01069 0.138499,-0.02078 0.28125,-0.03125 z"
       id="path5431"
       inkscape:connector-curvature="0" />
  </g>
</svg>
