<?xml version="1.0" encoding="UTF-8" standalone="no"?>
<!-- Created with Inkscape (http://www.inkscape.org/) -->

<svg
   xmlns:dc="http://purl.org/dc/elements/1.1/"
   xmlns:cc="http://creativecommons.org/ns#"
   xmlns:rdf="http://www.w3.org/1999/02/22-rdf-syntax-ns#"
   xmlns:svg="http://www.w3.org/2000/svg"
   xmlns="http://www.w3.org/2000/svg"
   xmlns:sodipodi="http://sodipodi.sourceforge.net/DTD/sodipodi-0.dtd"
   xmlns:inkscape="http://www.inkscape.org/namespaces/inkscape"
   width="48"
   height="48"
   id="svg4219"
   version="1.1"
   inkscape:version="0.48.5 r10040"
   sodipodi:docname="home-white.svg">
  <defs
     id="defs4221" />
  <sodipodi:namedview
     id="base"
     pagecolor="#ffffff"
     bordercolor="#666666"
     borderopacity="1.0"
     inkscape:pageopacity="0.0"
     inkscape:pageshadow="2"
     inkscape:zoom="13.203125"
     inkscape:cx="-17.950295"
     inkscape:cy="22.911243"
     inkscape:current-layer="layer1"
     showgrid="true"
     inkscape:document-units="px"
     inkscape:grid-bbox="true"
     inkscape:window-width="1440"
     inkscape:window-height="851"
     inkscape:window-x="0"
     inkscape:window-y="0"
     inkscape:window-maximized="1" />
  <metadata
     id="metadata4224">
    <rdf:RDF>
      <cc:Work
         rdf:about="">
        <dc:format>image/svg+xml</dc:format>
        <dc:type
           rdf:resource="http://purl.org/dc/dcmitype/StillImage" />
        <dc:title />
      </cc:Work>
    </rdf:RDF>
  </metadata>
  <g
     id="layer1"
     inkscape:label="Layer 1"
     inkscape:groupmode="layer"
     transform="translate(0,-16)">
    <path
       style="fill:#ffffff;fill-opacity:1;stroke:none"
       d="m 24,24.796875 c -0.383429,0 -0.768697,0.143697 -1.0625,0.4375 l -14.84375,14.875 c -0.587606,0.587606 -0.587606,1.537394 0,2.125 0.587606,0.587606 1.537394,0.587606 2.125,0 L 12,40.453125 l 0,13.25 c 0,0.831 0.669,1.5 1.5,1.5 l 8.625,0 3.75,0 8.625,0 c 0.103875,0 0.214678,-0.01133 0.3125,-0.03125 C 35.497256,55.032463 36,54.43025 36,53.703125 l 0,-13.25 1.78125,1.78125 c 0.587606,0.587606 1.537394,0.587606 2.125,0 0.587606,-0.587606 0.587606,-1.537394 0,-2.125 L 25.0625,25.234375 C 24.768697,24.940572 24.383429,24.796875 24,24.796875 z m 0,3.625 9,9.03125 0,14.75 -6,0 0,-7.875 c 0,-0.62325 -0.50175,-1.125 -1.125,-1.125 l -3.75,0 c -0.62325,0 -1.125,0.50175 -1.125,1.125 l 0,7.875 -6,0 0,-14.75 9,-9.03125 z"
       id="rect11069"
       inkscape:connector-curvature="0" />
  </g>
</svg>
