<?xml version="1.0" encoding="UTF-8" standalone="no"?>
<!-- Created with Inkscape (http://www.inkscape.org/) -->

<svg
   xmlns:dc="http://purl.org/dc/elements/1.1/"
   xmlns:cc="http://creativecommons.org/ns#"
   xmlns:rdf="http://www.w3.org/1999/02/22-rdf-syntax-ns#"
   xmlns:svg="http://www.w3.org/2000/svg"
   xmlns="http://www.w3.org/2000/svg"
   xmlns:sodipodi="http://sodipodi.sourceforge.net/DTD/sodipodi-0.dtd"
   xmlns:inkscape="http://www.inkscape.org/namespaces/inkscape"
   width="48px"
   height="48px"
   id="svg18644"
   version="1.1"
   inkscape:version="0.48.5 r10040"
   sodipodi:docname="lifesaver-blue.svg">
  <defs
     id="defs18646" />
  <sodipodi:namedview
     id="base"
     pagecolor="#ffffff"
     bordercolor="#666666"
     borderopacity="1.0"
     inkscape:pageopacity="0.0"
     inkscape:pageshadow="2"
     inkscape:zoom="13.854167"
     inkscape:cx="24"
     inkscape:cy="24"
     inkscape:current-layer="g18607"
     showgrid="true"
     inkscape:grid-bbox="true"
     inkscape:document-units="px"
     inkscape:window-width="1440"
     inkscape:window-height="851"
     inkscape:window-x="0"
     inkscape:window-y="0"
     inkscape:window-maximized="1" />
  <metadata
     id="metadata18649">
    <rdf:RDF>
      <cc:Work
         rdf:about="">
        <dc:format>image/svg+xml</dc:format>
        <dc:type
           rdf:resource="http://purl.org/dc/dcmitype/StillImage" />
        <dc:title></dc:title>
      </cc:Work>
    </rdf:RDF>
  </metadata>
  <g
     id="layer1"
     inkscape:label="Layer 1"
     inkscape:groupmode="layer">
    <g
       transform="translate(-995.66129,-554.10699)"
       id="g18607">
      <path
         style="fill:#1a66d8;fill-opacity:1;stroke:none"
         d="M 22 5 C 20.892 5 20 5.892 20 7 L 20 7.5 C 13.824707 8.9896158 8.9896158 13.824707 7.5 20 L 7 20 C 5.892 20 5 20.892 5 22 L 5 26 C 5 27.108 5.892 28 7 28 L 7.5 28 C 8.9896158 34.175293 13.824707 39.010384 20 40.5 L 20 41 C 20 42.108 20.892 43 22 43 L 26 43 C 27.108 43 28 42.108 28 41 L 28 40.5 C 34.175293 39.010384 39.010384 34.175293 40.5 28 L 41 28 C 42.108 28 43 27.108 43 26 L 43 22 C 43 20.892 42.108 20 41 20 L 40.5 20 C 39.010384 13.824707 34.175293 8.9896158 28 7.5 L 28 7 C 28 5.892 27.108 5 26 5 L 22 5 z M 22 7 L 26 7 L 26 17 L 22 17 L 22 7 z M 20 9.5625 L 20 15.96875 C 18.253788 16.840759 16.840759 18.253788 15.96875 20 L 9.5625 20 C 10.961096 14.928868 14.928868 10.961096 20 9.5625 z M 28 9.5625 C 33.071132 10.961096 37.038904 14.928868 38.4375 20 L 32.03125 20 C 31.159241 18.253788 29.746212 16.840759 28 15.96875 L 28 9.5625 z M 20.3125 18.0625 C 20.665361 18.626638 21.282799 19 22 19 L 26 19 C 26.717201 19 27.334639 18.626638 27.6875 18.0625 C 28.597378 18.629632 29.370368 19.402622 29.9375 20.3125 C 29.373362 20.665361 29 21.282799 29 22 L 29 26 C 29 26.717201 29.373362 27.334639 29.9375 27.6875 C 29.370368 28.597378 28.597378 29.370368 27.6875 29.9375 C 27.334639 29.373362 26.717201 29 26 29 L 22 29 C 21.282799 29 20.665361 29.373362 20.3125 29.9375 C 19.402622 29.370368 18.629632 28.597378 18.0625 27.6875 C 18.626638 27.334639 19 26.717201 19 26 L 19 22 C 19 21.282799 18.626638 20.665361 18.0625 20.3125 C 18.629632 19.402622 19.402622 18.629632 20.3125 18.0625 z M 7 22 L 17 22 L 17 26 L 7 26 L 7 22 z M 31 22 L 41 22 L 41 26 L 31 26 L 31 22 z M 9.5625 28 L 15.96875 28 C 16.840759 29.746212 18.253788 31.159241 20 32.03125 L 20 38.4375 C 14.928868 37.038904 10.961096 33.071132 9.5625 28 z M 32.03125 28 L 38.4375 28 C 37.038904 33.071132 33.071132 37.038904 28 38.4375 L 28 32.03125 C 29.746212 31.159241 31.159241 29.746212 32.03125 28 z M 22 31 L 26 31 L 26 41 L 22 41 L 22 31 z "
         transform="translate(995.66129,554.10699)"
         id="path18445" />
    </g>
  </g>
</svg>
