<?xml version="1.0" encoding="UTF-8" standalone="no"?>
<!-- Created with Inkscape (http://www.inkscape.org/) -->

<svg
   xmlns:dc="http://purl.org/dc/elements/1.1/"
   xmlns:cc="http://creativecommons.org/ns#"
   xmlns:rdf="http://www.w3.org/1999/02/22-rdf-syntax-ns#"
   xmlns:svg="http://www.w3.org/2000/svg"
   xmlns="http://www.w3.org/2000/svg"
   xmlns:sodipodi="http://sodipodi.sourceforge.net/DTD/sodipodi-0.dtd"
   xmlns:inkscape="http://www.inkscape.org/namespaces/inkscape"
   width="48"
   height="48"
   id="svg4219"
   version="1.1"
   inkscape:version="0.48.5 r10040"
   sodipodi:docname="megaphone-white.svg">
  <defs
     id="defs4221" />
  <sodipodi:namedview
     id="base"
     pagecolor="#ffffff"
     bordercolor="#666666"
     borderopacity="1.0"
     inkscape:pageopacity="0.0"
     inkscape:pageshadow="2"
     inkscape:zoom="13.203125"
     inkscape:cx="3.4840246"
     inkscape:cy="32"
     inkscape:current-layer="layer1"
     showgrid="true"
     inkscape:document-units="px"
     inkscape:grid-bbox="true"
     inkscape:window-width="1440"
     inkscape:window-height="851"
     inkscape:window-x="0"
     inkscape:window-y="0"
     inkscape:window-maximized="1" />
  <metadata
     id="metadata4224">
    <rdf:RDF>
      <cc:Work
         rdf:about="">
        <dc:format>image/svg+xml</dc:format>
        <dc:type
           rdf:resource="http://purl.org/dc/dcmitype/StillImage" />
        <dc:title />
      </cc:Work>
    </rdf:RDF>
  </metadata>
  <g
     id="layer1"
     inkscape:label="Layer 1"
     inkscape:groupmode="layer"
     transform="translate(0,-16)">
    <path
       style="fill:#ffffff;fill-opacity:1"
       d="m 21.447748,51.5544 c -0.4184,-0.43555 -0.771,-1.14275 -1.786899,-3.5838 -0.3688,-0.88625 -0.47425,-0.9985 -1.01405,-1.07945 -0.53185,-0.07975 -0.72555,-0.1732 -1.107349,-0.53415 l -0.2927,-0.2768 -0.809,0.25225 C 15.7067,46.5604 15.5859,46.5739 15.1836,46.47275 14.18335,46.22125 13.20285,45.4159 12.781699,44.5 c -0.3016,-0.65605 -0.2781,-1.93445 0.0485,-2.63505 0.304201,-0.6525 0.619451,-0.8972 1.866801,-1.4489 3.456199,-1.5286 5.810248,-2.98925 7.512698,-4.66135 1.5759,-1.54785 2.22665,-2.74735 2.85375,-5.2602 0.1789,-0.717 0.38265,-1.4134 0.45275,-1.54755 0.28415,-0.5437 0.9007,-0.94695 1.4478,-0.94695 0.67965,0 2.12645,1.03435 3.1691,2.2657 3.01255,3.55765 5.29845,9.38175 5.2973,13.49665 0,1.97515 -0.5867,2.98935 -1.7263,2.98675 -0.4443,0 -1.0151,-0.2395 -1.95755,-0.81785 -2.2646,-1.38965 -4.02115,-1.8789 -6.4133,-1.7862 -1.33485,0.0517 -1.9068,0.24565 -2.1582,0.73185 -0.18645,0.36055 -0.15685,0.50465 0.3462,1.6856 0.8974,2.10675 0.95175,2.19855 1.5273,2.5806 0.75905,0.5038 0.8997,0.9574 0.4478,1.44405 -0.18725,0.2016 -0.66525,0.4331 -1.74545,0.84525 -0.8182,0.3122 -1.5748,0.5676 -1.6813,0.5676 -0.10855,0 -0.3819,-0.1959 -0.62175,-0.4456 z m 11.6556,-8.9566 c -0.026,-2.95105 -1.457,-6.72995 -3.65325,-9.6466 -0.7297,-0.96905 -1.82875,-2.04495 -2.08895,-2.04495 -0.25365,0 -0.34065,0.42345 -0.3274,1.59375 0.041,3.632 1.7961,7.86815 4.29115,10.35735 0.46805,0.46695 0.99865,0.9202 1.17915,1.0072 0.53845,0.2597 0.61135,0.1056 0.5993,-1.26675 z"
       id="path16679"
       inkscape:connector-curvature="0"
       inkscape:export-filename="/Users/bdharva/Dropbox/Jolt/software/jolt.github.io/assets/icons/general/megaphone.png"
       inkscape:export-xdpi="90"
       inkscape:export-ydpi="90" />
  </g>
</svg>
