<?xml version="1.0" encoding="UTF-8" standalone="no"?>
<!-- Created with Inkscape (http://www.inkscape.org/) -->

<svg
   xmlns:dc="http://purl.org/dc/elements/1.1/"
   xmlns:cc="http://creativecommons.org/ns#"
   xmlns:rdf="http://www.w3.org/1999/02/22-rdf-syntax-ns#"
   xmlns:svg="http://www.w3.org/2000/svg"
   xmlns="http://www.w3.org/2000/svg"
   xmlns:sodipodi="http://sodipodi.sourceforge.net/DTD/sodipodi-0.dtd"
   xmlns:inkscape="http://www.inkscape.org/namespaces/inkscape"
   width="64px"
   height="64px"
   id="svg4219"
   version="1.1"
   inkscape:version="0.48.5 r10040"
   sodipodi:docname="home.svg">
  <defs
     id="defs4221" />
  <sodipodi:namedview
     id="base"
     pagecolor="#ffffff"
     bordercolor="#666666"
     borderopacity="1.0"
     inkscape:pageopacity="0.0"
     inkscape:pageshadow="2"
     inkscape:zoom="13.203125"
     inkscape:cx="22.494675"
     inkscape:cy="32"
     inkscape:current-layer="layer1"
     showgrid="true"
     inkscape:document-units="px"
     inkscape:grid-bbox="true"
     inkscape:window-width="1920"
     inkscape:window-height="1031"
     inkscape:window-x="0"
     inkscape:window-y="0"
     inkscape:window-maximized="1" />
  <metadata
     id="metadata4224">
    <rdf:RDF>
      <cc:Work
         rdf:about="">
        <dc:format>image/svg+xml</dc:format>
        <dc:type
           rdf:resource="http://purl.org/dc/dcmitype/StillImage" />
        <dc:title></dc:title>
      </cc:Work>
    </rdf:RDF>
  </metadata>
  <g
     id="layer1"
     inkscape:label="Layer 1"
     inkscape:groupmode="layer">
    <path
       inkscape:connector-curvature="0"
       id="rect4550-498-0"
       d="m 17,17 c -1.662,0 -3,1.337925 -3,3 l 0,18 c 0,1.662 1.338,3 3,3 l 10.5,0 0,3 -3.75,0 C 23.3345,44 23,44.334425 23,44.75 l 0,1.5 c 0,0.4155 0.3345,0.75 0.75,0.75 l 16.5,0 C 40.6655,47 41,46.6655 41,46.25 l 0,-1.5 C 41,44.334425 40.6655,44 40.25,44 l -3.75,0 0,-3 10.5,0 c 1.662,0 3,-1.338 3,-3 l 0,-18 c 0,-1.662075 -1.338,-3 -3,-3 l -30,0 z m 1.5,3 27,0 c 0.831,0 1.5,0.668925 1.5,1.5 l 0,15 c 0,0.831 -0.669,1.5 -1.5,1.5 l -27,0 C 17.669,38 17,37.331 17,36.5 l 0,-15 C 17,20.668925 17.669,20 18.5,20 z"
       style="fill:#666666;fill-opacity:1;stroke:none" />
  </g>
</svg>
