<?xml version="1.0" encoding="UTF-8" standalone="no"?>
<!-- Created with Inkscape (http://www.inkscape.org/) -->

<svg
   xmlns:dc="http://purl.org/dc/elements/1.1/"
   xmlns:cc="http://creativecommons.org/ns#"
   xmlns:rdf="http://www.w3.org/1999/02/22-rdf-syntax-ns#"
   xmlns:svg="http://www.w3.org/2000/svg"
   xmlns="http://www.w3.org/2000/svg"
   xmlns:sodipodi="http://sodipodi.sourceforge.net/DTD/sodipodi-0.dtd"
   xmlns:inkscape="http://www.inkscape.org/namespaces/inkscape"
   width="48"
   height="48"
   id="svg4593"
   version="1.1"
   inkscape:version="0.48.5 r10040"
   sodipodi:docname="monitor-blue.svg">
  <defs
     id="defs4595" />
  <sodipodi:namedview
     id="base"
     pagecolor="#ffffff"
     bordercolor="#666666"
     borderopacity="1.0"
     inkscape:pageopacity="0.0"
     inkscape:pageshadow="2"
     inkscape:zoom="8.1120162"
     inkscape:cx="-5.2903274"
     inkscape:cy="32.000003"
     inkscape:current-layer="g4449"
     showgrid="true"
     inkscape:document-units="px"
     inkscape:grid-bbox="true"
     inkscape:window-width="1920"
     inkscape:window-height="1031"
     inkscape:window-x="0"
     inkscape:window-y="0"
     inkscape:window-maximized="1" />
  <metadata
     id="metadata4598">
    <rdf:RDF>
      <cc:Work
         rdf:about="">
        <dc:format>image/svg+xml</dc:format>
        <dc:type
           rdf:resource="http://purl.org/dc/dcmitype/StillImage" />
        <dc:title />
      </cc:Work>
    </rdf:RDF>
  </metadata>
  <g
     id="layer1"
     inkscape:label="Layer 1"
     inkscape:groupmode="layer"
     transform="translate(0,-16)">
    <g
       transform="translate(-1179.4637,-340.56461)"
       id="g4449">
      <path
         style="fill:#1a66d8;fill-opacity:1;stroke:none"
         d="m 1191.4325,367.54317 c -0.256,0 -0.4923,0.11724 -0.6875,0.3125 -7.0295,7.02944 -7.0295,18.40806 0,25.4375 0.3905,0.39052 1.0157,0.39052 1.4062,0 0.3905,-0.39052 0.3905,-1.01573 0,-1.40625 -6.2484,-6.24839 -6.2484,-16.37661 0,-22.625 0.3905,-0.39052 0.3905,-1.01573 0,-1.40625 -0.1953,-0.19526 -0.4628,-0.3125 -0.7187,-0.3125 z m 24.0625,0 c -0.2559,0 -0.5235,0.11724 -0.7188,0.3125 -0.3906,0.39052 -0.3906,1.01573 0,1.40625 6.2484,6.24839 6.2484,16.37661 0,22.625 -0.3906,0.39052 -0.3906,1.01573 0,1.40625 0.3905,0.39052 1.0158,0.39052 1.4063,0 7.0295,-7.02944 7.0295,-18.40806 0,-25.4375 -0.1952,-0.19526 -0.4316,-0.3125 -0.6875,-0.3125 z m -21.2188,2.84375 c -0.2559,0 -0.5235,0.086 -0.7187,0.28125 -5.4674,5.46734 -5.4674,14.34516 0,19.8125 0.3905,0.39052 1.0157,0.39052 1.4062,0 0.3905,-0.39052 0.3905,-1.01573 0,-1.40625 -4.6863,-4.68629 -4.6863,-12.31371 0,-17 0.3905,-0.39052 0.3905,-1.01573 0,-1.40625 -0.1953,-0.19526 -0.4316,-0.28125 -0.6875,-0.28125 z m 18.375,0 c -0.2559,0 -0.4922,0.086 -0.6875,0.28125 -0.3906,0.39052 -0.3906,1.01573 0,1.40625 4.6863,4.68629 4.6863,12.31371 0,17 -0.3906,0.39052 -0.3906,1.01573 0,1.40625 0.3905,0.39052 1.0158,0.39052 1.4063,0 5.4674,-5.46734 5.4674,-14.34516 0,-19.8125 -0.1952,-0.19525 -0.4628,-0.28125 -0.7188,-0.28125 z m -15.5625,2.8125 c -0.2559,0 -0.4922,0.11724 -0.6875,0.3125 -3.9052,3.90524 -3.9052,10.21976 0,14.125 0.3905,0.39052 1.0157,0.39052 1.4063,0 0.3905,-0.39052 0.3905,-1.01573 0,-1.40625 -3.1242,-3.12419 -3.1242,-8.18831 0,-11.3125 0.3905,-0.39052 0.3905,-1.01573 0,-1.40625 -0.1953,-0.19526 -0.4629,-0.3125 -0.7188,-0.3125 z m 12.75,0 c -0.256,0 -0.5234,0.11724 -0.7187,0.3125 -0.3905,0.39052 -0.3905,1.01573 0,1.40625 3.1242,3.12419 3.1242,8.18831 0,11.3125 -0.3905,0.39052 -0.3905,1.01573 0,1.40625 0.3906,0.39052 1.0156,0.39052 1.4062,0 3.9052,-3.90524 3.9052,-10.21976 0,-14.125 -0.1953,-0.19526 -0.4315,-0.3125 -0.6875,-0.3125 z m -6.375,3.375 c -2.2091,0 -4,1.79086 -4,4 0,2.20914 1.7909,4 4,4 2.2091,0 4,-1.79086 4,-4 0,-2.20914 -1.7909,-4 -4,-4 z"
         id="path4100-9-6"
         inkscape:connector-curvature="0" />
    </g>
  </g>
</svg>
