<?xml version="1.0" encoding="UTF-8" standalone="no"?>
<!-- Created with Inkscape (http://www.inkscape.org/) -->

<svg
   xmlns:dc="http://purl.org/dc/elements/1.1/"
   xmlns:cc="http://creativecommons.org/ns#"
   xmlns:rdf="http://www.w3.org/1999/02/22-rdf-syntax-ns#"
   xmlns:svg="http://www.w3.org/2000/svg"
   xmlns="http://www.w3.org/2000/svg"
   xmlns:sodipodi="http://sodipodi.sourceforge.net/DTD/sodipodi-0.dtd"
   xmlns:inkscape="http://www.inkscape.org/namespaces/inkscape"
   width="48px"
   height="48px"
   id="svg17816"
   version="1.1"
   inkscape:version="0.48.5 r10040"
   sodipodi:docname="New document 289">
  <defs
     id="defs17818" />
  <sodipodi:namedview
     id="base"
     pagecolor="#ffffff"
     bordercolor="#666666"
     borderopacity="1.0"
     inkscape:pageopacity="0.0"
     inkscape:pageshadow="2"
     inkscape:zoom="7"
     inkscape:cx="-1.4285714"
     inkscape:cy="24"
     inkscape:current-layer="layer1"
     showgrid="true"
     inkscape:grid-bbox="true"
     inkscape:document-units="px"
     inkscape:window-width="1440"
     inkscape:window-height="851"
     inkscape:window-x="0"
     inkscape:window-y="0"
     inkscape:window-maximized="1" />
  <metadata
     id="metadata17821">
    <rdf:RDF>
      <cc:Work
         rdf:about="">
        <dc:format>image/svg+xml</dc:format>
        <dc:type
           rdf:resource="http://purl.org/dc/dcmitype/StillImage" />
        <dc:title></dc:title>
      </cc:Work>
    </rdf:RDF>
  </metadata>
  <g
     id="layer1"
     inkscape:label="Layer 1"
     inkscape:groupmode="layer">
    <path
       style="fill:#1a66d8;fill-opacity:1;stroke:none"
       d="M 5 6 C 2.784 6 1 7.784 1 10 L 1 38 C 1 40.216 2.784 42 5 42 L 21 42 C 22.19734 42 23.268162 41.484631 24 40.65625 C 24.731838 41.484631 25.80266 42 27 42 L 43 42 C 45.216 42 47 40.216 47 38 L 47 10 C 47 7.784 45.216 6 43 6 L 27 6 C 25.80266 6 24.731838 6.5153692 24 7.34375 C 23.268162 6.5153692 22.19734 6 21 6 L 5 6 z M 5 8 L 21 8 C 22.108 8 23 8.892 23 10 L 23 13 L 22 13 C 21.446 13 21 13.446 21 14 C 21 14.554 21.446 15 22 15 L 23 15 L 23 23 L 22 23 C 21.446 23 21 23.446 21 24 C 21 24.554 21.446 25 22 25 L 23 25 L 23 33 L 22 33 C 21.446 33 21 33.446 21 34 C 21 34.554 21.446 35 22 35 L 23 35 L 23 38 C 23 39.108 22.108 40 21 40 L 5 40 C 3.892 40 3 39.108 3 38 L 3 10 C 3 8.892 3.892 8 5 8 z M 27 8 L 43 8 C 44.108 8 45 8.892 45 10 L 45 38 C 45 39.108 44.108 40 43 40 L 27 40 C 25.892 40 25 39.108 25 38 L 25 35 L 26 35 C 26.554 35 27 34.554 27 34 C 27 33.446 26.554 33 26 33 L 25 33 L 25 25 L 26 25 C 26.554 25 27 24.554 27 24 C 27 23.446 26.554 23 26 23 L 25 23 L 25 15 L 26 15 C 26.554 15 27 14.554 27 14 C 27 13.446 26.554 13 26 13 L 25 13 L 25 10 C 25 8.892 25.892 8 27 8 z M 7.75 11 C 7.3345 11 7 11.446 7 12 C 7 12.554 7.3345 13 7.75 13 L 18.25 13 C 18.6655 13 19 12.554 19 12 C 19 11.446 18.6655 11 18.25 11 L 7.75 11 z M 29.75 11 C 29.3345 11 29 11.446 29 12 C 29 12.554 29.3345 13 29.75 13 L 40.25 13 C 40.6655 13 41 12.554 41 12 C 41 11.446 40.6655 11 40.25 11 L 29.75 11 z M 7.75 15 C 7.3345 15 7 15.446 7 16 C 7 16.554 7.3345 17 7.75 17 L 18.25 17 C 18.6655 17 19 16.554 19 16 C 19 15.446 18.6655 15 18.25 15 L 7.75 15 z M 29.75 15 C 29.3345 15 29 15.446 29 16 C 29 16.554 29.3345 17 29.75 17 L 40.25 17 C 40.6655 17 41 16.554 41 16 C 41 15.446 40.6655 15 40.25 15 L 29.75 15 z M 7.75 19 C 7.3345 19 7 19.446 7 20 C 7 20.554 7.3345 21 7.75 21 L 18.25 21 C 18.6655 21 19 20.554 19 20 C 19 19.446 18.6655 19 18.25 19 L 7.75 19 z M 29.75 19 C 29.3345 19 29 19.446 29 20 C 29 20.554 29.3345 21 29.75 21 L 40.25 21 C 40.6655 21 41 20.554 41 20 C 41 19.446 40.6655 19 40.25 19 L 29.75 19 z M 7.75 23 C 7.3345 23 7 23.446 7 24 C 7 24.554 7.3345 25 7.75 25 L 18.25 25 C 18.6655 25 19 24.554 19 24 C 19 23.446 18.6655 23 18.25 23 L 7.75 23 z M 29.75 23 C 29.3345 23 29 23.446 29 24 C 29 24.554 29.3345 25 29.75 25 L 40.25 25 C 40.6655 25 41 24.554 41 24 C 41 23.446 40.6655 23 40.25 23 L 29.75 23 z M 7.75 27 C 7.3345 27 7 27.446 7 28 C 7 28.554 7.3345 29 7.75 29 L 18.25 29 C 18.6655 29 19 28.554 19 28 C 19 27.446 18.6655 27 18.25 27 L 7.75 27 z M 29.75 27 C 29.3345 27 29 27.446 29 28 C 29 28.554 29.3345 29 29.75 29 L 40.25 29 C 40.6655 29 41 28.554 41 28 C 41 27.446 40.6655 27 40.25 27 L 29.75 27 z M 7.75 31 C 7.3345 31 7 31.446 7 32 C 7 32.554 7.3345 33 7.75 33 L 18.25 33 C 18.6655 33 19 32.554 19 32 C 19 31.446 18.6655 31 18.25 31 L 7.75 31 z M 29.75 31 C 29.3345 31 29 31.446 29 32 C 29 32.554 29.3345 33 29.75 33 L 40.25 33 C 40.6655 33 41 32.554 41 32 C 41 31.446 40.6655 31 40.25 31 L 29.75 31 z M 7.75 35 C 7.3345 35 7 35.446 7 36 C 7 36.554 7.3345 37 7.75 37 L 18.25 37 C 18.6655 37 19 36.554 19 36 C 19 35.446 18.6655 35 18.25 35 L 7.75 35 z M 29.75 35 C 29.3345 35 29 35.446 29 36 C 29 36.554 29.3345 37 29.75 37 L 40.25 37 C 40.6655 37 41 36.554 41 36 C 41 35.446 40.6655 35 40.25 35 L 29.75 35 z "
       id="rect17488" />
  </g>
</svg>
