<?xml version="1.0" encoding="UTF-8" standalone="no"?>
<!-- Created with Inkscape (http://www.inkscape.org/) -->

<svg
   xmlns:dc="http://purl.org/dc/elements/1.1/"
   xmlns:cc="http://creativecommons.org/ns#"
   xmlns:rdf="http://www.w3.org/1999/02/22-rdf-syntax-ns#"
   xmlns:svg="http://www.w3.org/2000/svg"
   xmlns="http://www.w3.org/2000/svg"
   xmlns:sodipodi="http://sodipodi.sourceforge.net/DTD/sodipodi-0.dtd"
   xmlns:inkscape="http://www.inkscape.org/namespaces/inkscape"
   width="48px"
   height="48px"
   id="svg17235"
   version="1.1"
   inkscape:version="0.48.5 r10040"
   sodipodi:docname="page-white.svg">
  <defs
     id="defs17237" />
  <sodipodi:namedview
     id="base"
     pagecolor="#ffffff"
     bordercolor="#666666"
     borderopacity="1.0"
     inkscape:pageopacity="0.0"
     inkscape:pageshadow="2"
     inkscape:zoom="7"
     inkscape:cx="6.0714286"
     inkscape:cy="24"
     inkscape:current-layer="layer1"
     showgrid="true"
     inkscape:grid-bbox="true"
     inkscape:document-units="px"
     inkscape:window-width="1440"
     inkscape:window-height="851"
     inkscape:window-x="0"
     inkscape:window-y="0"
     inkscape:window-maximized="1" />
  <metadata
     id="metadata17240">
    <rdf:RDF>
      <cc:Work
         rdf:about="">
        <dc:format>image/svg+xml</dc:format>
        <dc:type
           rdf:resource="http://purl.org/dc/dcmitype/StillImage" />
        <dc:title></dc:title>
      </cc:Work>
    </rdf:RDF>
  </metadata>
  <g
     id="layer1"
     inkscape:label="Layer 1"
     inkscape:groupmode="layer">
    <path
       style="fill:#ffffff;fill-opacity:1;stroke:none"
       d="M 16 6 C 13.784 6 12 7.784 12 10 L 12 38 C 12 40.216 13.784 42 16 42 L 32 42 C 34.216 42 36 40.216 36 38 L 36 16.625 L 36 14.625 C 36 14.09457 35.78132 13.59382 35.40625 13.21875 L 28.78125 6.59375 C 28.40618 6.21868 27.90543 6 27.375 6 L 25.375 6 L 16 6 z M 16 8 L 25.375 8 L 25.375 12.625 C 25.37504 14.84104 27.15904 16.62504 29.375 16.625 L 34 16.625 L 34 38 C 34 39.108 33.108 40 32 40 L 16 40 C 14.892 40 14 39.108 14 38 L 14 10 C 14 8.892 14.892 8 16 8 z M 27.375 8 L 34 14.625 L 29.875 14.625 C 28.49331 14.62501 27.37497 13.50672 27.375 12.125 L 27.375 8 z M 17 18.625 C 16.446 18.625 16 19.071 16 19.625 C 16 20.179 16.446 20.625 17 20.625 L 31 20.625 C 31.554 20.625 32 20.179 32 19.625 C 32 19.071 31.554 18.625 31 18.625 L 17 18.625 z M 17 22.625 C 16.446 22.625 16 23.071 16 23.625 C 16 24.179 16.446 24.625 17 24.625 L 31 24.625 C 31.554 24.625 32 24.179 32 23.625 C 32 23.071 31.554 22.625 31 22.625 L 17 22.625 z M 17 26.625 C 16.446 26.625 16 27.071 16 27.625 C 16 28.179 16.446 28.625 17 28.625 L 31 28.625 C 31.554 28.625 32 28.179 32 27.625 C 32 27.071 31.554 26.625 31 26.625 L 17 26.625 z M 17 30.625 C 16.446 30.625 16 31.071 16 31.625 C 16 32.179 16.446 32.625 17 32.625 L 31 32.625 C 31.554 32.625 32 32.179 32 31.625 C 32 31.071 31.554 30.625 31 30.625 L 17 30.625 z "
       id="rect16833-5-1" />
  </g>
</svg>
