<?xml version="1.0" encoding="UTF-8" standalone="no"?>
<!-- Created with Inkscape (http://www.inkscape.org/) -->

<svg
   xmlns:dc="http://purl.org/dc/elements/1.1/"
   xmlns:cc="http://creativecommons.org/ns#"
   xmlns:rdf="http://www.w3.org/1999/02/22-rdf-syntax-ns#"
   xmlns:svg="http://www.w3.org/2000/svg"
   xmlns="http://www.w3.org/2000/svg"
   xmlns:sodipodi="http://sodipodi.sourceforge.net/DTD/sodipodi-0.dtd"
   xmlns:inkscape="http://www.inkscape.org/namespaces/inkscape"
   width="48px"
   height="48px"
   id="svg6955"
   version="1.1"
   inkscape:version="0.48.5 r10040"
   sodipodi:docname="New document 86">
  <defs
     id="defs6957" />
  <sodipodi:namedview
     id="base"
     pagecolor="#ffffff"
     bordercolor="#666666"
     borderopacity="1.0"
     inkscape:pageopacity="0.0"
     inkscape:pageshadow="2"
     inkscape:zoom="13.854167"
     inkscape:cx="14.941353"
     inkscape:cy="24"
     inkscape:current-layer="layer1"
     showgrid="true"
     inkscape:grid-bbox="true"
     inkscape:document-units="px"
     inkscape:window-width="1440"
     inkscape:window-height="851"
     inkscape:window-x="0"
     inkscape:window-y="0"
     inkscape:window-maximized="1" />
  <metadata
     id="metadata6960">
    <rdf:RDF>
      <cc:Work
         rdf:about="">
        <dc:format>image/svg+xml</dc:format>
        <dc:type
           rdf:resource="http://purl.org/dc/dcmitype/StillImage" />
        <dc:title></dc:title>
      </cc:Work>
    </rdf:RDF>
  </metadata>
  <g
     id="layer1"
     inkscape:label="Layer 1"
     inkscape:groupmode="layer">
    <path
       style="fill:#666666;fill-opacity:1;stroke:none"
       d="m 16,8 c -2.209139,10e-8 -4,1.7908611 -4,4 l 0,2 -2,0 c -2.2091389,0 -4,1.790861 -4,4 l 0,18 c 0,2.209139 1.790861,4 4,4 l 28,0 c 2.209139,0 4,-1.790861 4,-4 L 42,12 C 42,9.7908611 40.209139,8 38,8 L 16,8 z m 0,2 22,0 c 1.104569,0 2,0.895431 2,2 l 0,24 c 0,1.104569 -0.895431,2 -2,2 L 13.4375,38 C 13.779016,37.410912 14,36.72993 14,36 l 0,-24 c 0,-1.104569 0.895431,-2 2,-2 z m 1,2 c -0.554,0 -1,0.446 -1,1 l 0,2 c 0,0.554 0.446,1 1,1 l 20,0 c 0.554,0 1,-0.446 1,-1 l 0,-2 c 0,-0.554 -0.446,-1 -1,-1 l -20,0 z m -7,4 2,0 0,20 c 0,1.104569 -0.89543,2 -2,2 C 8.8954305,38 8,37.104569 8,36 L 8,18 c 0,-1.104569 0.8954305,-2 2,-2 z m 7,2 c -0.554,0 -1,0.446 -1,1 0,0.554 0.446,1 1,1 l 20,0 c 0.554,0 1,-0.446 1,-1 0,-0.554 -0.446,-1 -1,-1 l -20,0 z m 0,4 c -0.554,0 -1,0.446 -1,1 0,0.554 0.446,1 1,1 l 20,0 c 0.554,0 1,-0.446 1,-1 0,-0.554 -0.446,-1 -1,-1 l -20,0 z m 0,4 c -0.554,0 -1,0.446 -1,1 0,0.554 0.446,1 1,1 l 20,0 c 0.554,0 1,-0.446 1,-1 0,-0.554 -0.446,-1 -1,-1 l -20,0 z m 0,4 c -0.554,0 -1,0.446 -1,1 0,0.554 0.446,1 1,1 l 20,0 c 0.554,0 1,-0.446 1,-1 0,-0.554 -0.446,-1 -1,-1 l -20,0 z m 0,4 c -0.554,0 -1,0.446 -1,1 0,0.554 0.446,1 1,1 l 20,0 c 0.554,0 1,-0.446 1,-1 0,-0.554 -0.446,-1 -1,-1 l -20,0 z"
       id="path6581"
       inkscape:connector-curvature="0" />
  </g>
</svg>
