<?xml version="1.0" encoding="UTF-8" standalone="no"?>
<!-- Created with Inkscape (http://www.inkscape.org/) -->

<svg
   xmlns:dc="http://purl.org/dc/elements/1.1/"
   xmlns:cc="http://creativecommons.org/ns#"
   xmlns:rdf="http://www.w3.org/1999/02/22-rdf-syntax-ns#"
   xmlns:svg="http://www.w3.org/2000/svg"
   xmlns="http://www.w3.org/2000/svg"
   xmlns:sodipodi="http://sodipodi.sourceforge.net/DTD/sodipodi-0.dtd"
   xmlns:inkscape="http://www.inkscape.org/namespaces/inkscape"
   width="48px"
   height="48px"
   id="svg7559"
   version="1.1"
   inkscape:version="0.48.5 r10040"
   sodipodi:docname="wear-blue.svg">
  <defs
     id="defs7561" />
  <sodipodi:namedview
     id="base"
     pagecolor="#ffffff"
     bordercolor="#666666"
     borderopacity="1.0"
     inkscape:pageopacity="0.0"
     inkscape:pageshadow="2"
     inkscape:zoom="7"
     inkscape:cx="-1.4285714"
     inkscape:cy="24"
     inkscape:current-layer="layer1"
     showgrid="true"
     inkscape:grid-bbox="true"
     inkscape:document-units="px"
     inkscape:window-width="1440"
     inkscape:window-height="851"
     inkscape:window-x="0"
     inkscape:window-y="0"
     inkscape:window-maximized="1" />
  <metadata
     id="metadata7564">
    <rdf:RDF>
      <cc:Work
         rdf:about="">
        <dc:format>image/svg+xml</dc:format>
        <dc:type
           rdf:resource="http://purl.org/dc/dcmitype/StillImage" />
        <dc:title></dc:title>
      </cc:Work>
    </rdf:RDF>
  </metadata>
  <g
     id="layer1"
     inkscape:label="Layer 1"
     inkscape:groupmode="layer">
    <path
       style="fill:#ffffff;fill-opacity:1;stroke:none"
       d="M 24.6875 5.6875 C 20.02724 5.6218773 15.743538 8.4185062 13.3125 12.3125 C 13.250569 12.304565 13.186853 12.289137 13.125 12.28125 C 12.174588 13.034302 11.266488 14.916684 11.40625 16.84375 C 11.43569 16.853174 11.470334 16.865641 11.5 16.875 C 11.182392 18.487883 11.143347 20.159399 11.53125 21.8125 C 11.49857 23.592038 9.427234 24.501426 9.28125 26.28125 C 8.997656 27.44708 9.79558 28.538886 10.5625 29.21875 C 10.50524 30.14626 11.121258 31.00119 11.0625 31.90625 C 11.430252 32.660832 12.097054 33.32425 11.875 34.21875 C 12.286266 36.61557 15.051694 37.971738 17.28125 37.34375 C 17.858022 37.33257 18.940162 36.759634 18.6875 37.8125 C 18.73984 38.898394 18.569512 39.988434 18.4375 41.0625 C 23.744472 43.299566 30.018672 42.379616 34.875 39.46875 C 34.385666 36.216718 32.565602 32.353788 34.75 29.46875 C 36.733534 26.849002 38.09924 23.760858 38.40625 22.5 C 38.680763 21.413906 38.776018 20.31931 38.75 19.21875 C 38.772835 19.213879 38.857072 19.22377 38.875 19.21875 C 39.45445 18.697246 38.497424 14.480618 37.96875 14.15625 C 37.865457 14.163615 37.759689 14.149519 37.65625 14.15625 C 35.831057 9.8772338 31.939399 6.448494 27.21875 5.875 C 26.387594 5.726726 25.533678 5.655806 24.6875 5.6875 z M 25.125 7.6875 C 29.736741 7.6875 33.711837 10.373293 35.625 14.25 C 28.962288 14.431314 22.106977 13.461773 15.5625 12.59375 C 17.697076 9.6226517 21.196271 7.6875 25.125 7.6875 z M 13.5625 17.4375 C 20.894391 19.17116 32.237515 19.488947 36.84375 19.34375 C 36.844003 19.375567 36.84375 19.405624 36.84375 19.4375 C 36.84375 21.676198 36.213216 23.75163 35.125 25.53125 C 35.125 25.531244 34.98366 25.74329 34.9375 25.8125 C 34.851784 25.941018 34.809366 26.00837 34.5625 26.375 C 34.54425 26.3998 34.51844 26.41285 34.5 26.4375 C 34.1204 27.001016 33.589674 27.814492 32.84375 28.90625 C 32.83545 28.9183 32.85205 28.92514 32.84375 28.9375 C 31.972468 30.581038 31.875 31.71478 31.875 32.34375 C 31.875 33.08208 32.138302 36.174496 32.71875 38.40625 C 30.371284 39.615432 27.69744 40.3125 24.875 40.3125 C 23.743918 40.3125 22.663572 40.177974 21.59375 39.96875 L 20.71875 39.71875 C 20.71875 39.71875 21.074 37.144002 20.28125 35.21875 C 20.124394 35.14423 19.97476 35.14985 19.46875 35.15625 C 19.062972 35.161248 18.294608 35.21923 17.75 35.28125 C 16.660106 35.40541 15.660522 35.40787 15.25 35.3125 C 14.38837 35.112628 13.794606 34.045868 13.9375 32.96875 C 13.99217 32.556652 13.841032 32.187284 13.5 31.90625 C 13.256532 31.705466 13.0625 31.333508 13.0625 31.0625 C 13.0625 30.974546 13.10876 30.771884 13.1875 30.625 L 13.34375 30.34375 L 12.96875 29.96875 C 12.577624 29.555182 12.52487 29.339 12.71875 28.875 C 12.82885 28.61158 12.86787 28.15905 12.78125 28.03125 C 12.75308 27.989698 12.484004 27.860458 12.1875 27.71875 C 11.384078 27.334824 11.125582 26.864424 11.40625 26.3125 C 11.468626 26.189906 11.753608 25.789616 12.03125 25.40625 C 12.681426 24.508626 13.257272 23.607468 13.5 23.125 C 13.634946 22.856714 13.70323 22.59621 13.71875 22.28125 C 13.491044 21.368932 13.375 20.420342 13.375 19.4375 C 13.375 18.755766 13.450469 18.087778 13.5625 17.4375 z "
       id="path7998-1-7-2-5-9" />
    <text
       sodipodi:linespacing="130%"
       id="text14974-9-70-84-3"
       y="47.781918"
       x="18.372564"
       style="font-size:4.4000001px;font-style:normal;font-variant:normal;font-weight:normal;font-stretch:normal;text-align:justify;line-height:129.99999523%;letter-spacing:0px;word-spacing:0px;writing-mode:lr-tb;text-anchor:start;fill:#000000;fill-opacity:1;stroke:none;font-family:Times New Roman;-inkscape-font-specification:'Times New Roman,'"
       xml:space="preserve"><tspan
         y="47.781918"
         x="18.372564"
         id="tspan14976-7-6-1-8"
         sodipodi:role="line" /></text>
  </g>
</svg>
