<?xml version="1.0" encoding="UTF-8" standalone="no"?>
<!-- Created with Inkscape (http://www.inkscape.org/) -->

<svg
   xmlns:dc="http://purl.org/dc/elements/1.1/"
   xmlns:cc="http://creativecommons.org/ns#"
   xmlns:rdf="http://www.w3.org/1999/02/22-rdf-syntax-ns#"
   xmlns:svg="http://www.w3.org/2000/svg"
   xmlns="http://www.w3.org/2000/svg"
   xmlns:sodipodi="http://sodipodi.sourceforge.net/DTD/sodipodi-0.dtd"
   xmlns:inkscape="http://www.inkscape.org/namespaces/inkscape"
   width="744.09448819"
   height="1052.3622047"
   id="svg2"
   version="1.1"
   inkscape:version="0.48.5 r10040"
   sodipodi:docname="clip.svg">
  <defs
     id="defs4" />
  <sodipodi:namedview
     id="base"
     pagecolor="#ffffff"
     bordercolor="#666666"
     borderopacity="1.0"
     inkscape:pageopacity="0.0"
     inkscape:pageshadow="2"
     inkscape:zoom="0.63589565"
     inkscape:cx="522.60132"
     inkscape:cy="400.50304"
     inkscape:document-units="px"
     inkscape:current-layer="layer1"
     showgrid="false"
     inkscape:window-width="1920"
     inkscape:window-height="1031"
     inkscape:window-x="0"
     inkscape:window-y="0"
     inkscape:window-maximized="1" />
  <metadata
     id="metadata7">
    <rdf:RDF>
      <cc:Work
         rdf:about="">
        <dc:format>image/svg+xml</dc:format>
        <dc:type
           rdf:resource="http://purl.org/dc/dcmitype/StillImage" />
        <dc:title></dc:title>
      </cc:Work>
    </rdf:RDF>
  </metadata>
  <g
     inkscape:label="Layer 1"
     inkscape:groupmode="layer"
     id="layer1">
    <path
       style="fill:#999999;fill-opacity:1;stroke:none"
       d="M 747.125 465.28125 C 719.51076 465.28125 697.125 487.66701 697.125 515.28125 L 698.375 515.28125 C 697.67303 515.28125 697.125 515.82928 697.125 516.53125 L 697.125 834 C 697.125 834.70197 697.67303 835.28125 698.375 835.28125 L 697.125 835.28125 C 697.125 846.32694 706.07931 855.28125 717.125 855.28125 L 717.125 854.78125 C 717.125 855.05289 717.32211 855.28125 717.59375 855.28125 L 756.625 855.28125 C 756.89664 855.28125 757.125 855.05289 757.125 854.78125 L 757.125 855.28125 C 768.17069 855.28125 777.125 846.32694 777.125 835.28125 L 775.84375 835.28125 C 776.54572 835.28125 777.125 834.70197 777.125 834 L 777.125 534.25 C 777.66066 523.6826 786.42448 515.28125 797.125 515.28125 L 796.5 515.28125 C 796.83955 515.28125 797.125 514.9958 797.125 514.65625 L 797.125 515.28125 C 808.00349 515.28125 816.85956 523.96667 817.125 534.78125 L 817.125 794.90625 C 817.125 795.10998 817.26502 795.28125 817.46875 795.28125 L 817.125 795.28125 C 817.125 808.54207 822.37318 821.24818 831.75 830.625 C 837.60786 836.48286 847.11089 836.48286 852.96875 830.625 C 858.82661 824.76714 858.82661 815.26411 852.96875 809.40625 C 849.21802 805.65552 847.125 800.58558 847.125 795.28125 L 846.75 795.28125 C 846.95373 795.28125 847.125 795.10998 847.125 794.90625 L 847.125 515.65625 C 847.125 515.45252 846.95373 515.28125 846.75 515.28125 L 847.125 515.28125 C 847.125 487.66701 824.73924 465.28125 797.125 465.28125 L 797.125 465.875 C 797.125 465.53545 796.83955 465.28125 796.5 465.28125 L 747.71875 465.28125 C 747.3792 465.28125 747.125 465.53545 747.125 465.875 L 747.125 465.28125 z M 747.125 514.65625 C 747.125 514.9958 747.3792 515.28125 747.71875 515.28125 L 747.125 515.28125 L 747.125 514.65625 z M 775.84375 515.28125 L 777.59375 515.28125 C 777.32211 515.28125 777.125 515.50961 777.125 515.78125 L 777.125 516.53125 C 777.125 515.82928 776.54572 515.28125 775.84375 515.28125 z M 816.625 515.28125 L 817.46875 515.28125 C 817.26502 515.28125 817.125 515.45252 817.125 515.65625 L 817.125 515.78125 C 817.125 515.50961 816.89664 515.28125 816.625 515.28125 z M 717.125 835.28125 L 717.59375 835.28125 C 717.32211 835.28125 717.125 835.50961 717.125 835.78125 L 717.125 835.28125 z M 756.625 835.28125 L 757.125 835.28125 L 757.125 835.78125 C 757.125 835.50961 756.89664 835.28125 756.625 835.28125 z "
       id="rect3050-4-8" />
    <rect
       style="fill:#999999;fill-opacity:1;stroke:none"
       id="rect3050-4"
       width="40"
       height="20"
       x="258.09207"
       y="267.82837"
       rx="0.49032158" />
    <path
       sodipodi:type="arc"
       style="fill:#ececec;fill-opacity:1;stroke:none"
       id="path2987-8-1"
       sodipodi:cx="-305.12277"
       sodipodi:cy="429.66266"
       sodipodi:rx="98.38652"
       sodipodi:ry="98.38652"
       d="m -206.73625,429.66266 a 98.38652,98.38652 0 1 1 -196.77304,-1e-5 l 98.38652,1e-5 z"
       sodipodi:start="0"
       sodipodi:end="3.1415927"
       transform="matrix(-0.20327988,0,0,-0.20327988,216.06675,375.17013)" />
    <rect
       style="fill:#999999;fill-opacity:1;stroke:none"
       id="rect2985"
       width="80"
       height="320"
       x="178.09207"
       y="267.82837"
       rx="1.2670904" />
    <path
       sodipodi:type="arc"
       style="fill:#999999;fill-opacity:1;stroke:none"
       id="path2987"
       sodipodi:cx="-305.12277"
       sodipodi:cy="429.66266"
       sodipodi:rx="98.38652"
       sodipodi:ry="98.38652"
       d="m -206.73625,429.66266 a 98.38652,98.38652 0 0 1 -98.38652,98.38652 l 0,-98.38652 z"
       sodipodi:start="0"
       sodipodi:end="1.5707963"
       transform="matrix(0.20327988,0,0,0.20327988,300.11739,500.48659)" />
    <path
       sodipodi:type="arc"
       style="fill:#999999;fill-opacity:1;stroke:none"
       id="path2987-1"
       sodipodi:cx="-305.12277"
       sodipodi:cy="429.66266"
       sodipodi:rx="98.38652"
       sodipodi:ry="98.38652"
       d="m -206.73625,429.66266 a 98.38652,98.38652 0 0 1 -98.38652,98.38652 l 0,-98.38652 z"
       sodipodi:start="0"
       sodipodi:end="1.5707963"
       transform="matrix(-0.20327988,0,0,0.20327988,136.06675,500.48659)" />
    <path
       sodipodi:type="arc"
       style="fill:#999999;fill-opacity:1;stroke:none"
       id="path2987-8"
       sodipodi:cx="-305.12277"
       sodipodi:cy="429.66266"
       sodipodi:rx="98.38652"
       sodipodi:ry="98.38652"
       d="m -206.73625,429.66266 a 98.38652,98.38652 0 0 1 -98.38652,98.38652 l 0,-98.38652 z"
       sodipodi:start="0"
       sodipodi:end="1.5707963"
       transform="matrix(-0.5081997,0,0,-0.5081997,73.028765,486.1828)" />
    <path
       sodipodi:type="arc"
       style="fill:#999999;fill-opacity:1;stroke:none"
       id="path2987-8-4"
       sodipodi:cx="-305.12277"
       sodipodi:cy="429.66266"
       sodipodi:rx="98.38652"
       sodipodi:ry="98.38652"
       d="m -206.73625,429.66266 a 98.38652,98.38652 0 0 1 -98.38652,98.38652 l 0,-98.38652 z"
       sodipodi:start="0"
       sodipodi:end="1.5707963"
       transform="matrix(0,-0.5081997,0.5081997,0,59.737632,112.76506)" />
    <rect
       style="fill:#999999;fill-opacity:1;stroke:none"
       id="rect3050"
       width="50"
       height="50"
       x="228.09207"
       y="217.82835"
       rx="0.61290199" />
    <rect
       style="fill:#999999;fill-opacity:1;stroke:none"
       id="rect3050-5"
       width="30"
       height="280"
       x="298.09207"
       y="267.82837"
       rx="0.3677412" />
    <g
       id="g3106"
       transform="matrix(0.70710678,0.70710678,-0.70710678,0.70710678,701.55881,-107.6988)">
      <path
         transform="matrix(0,0.5081997,-0.5081997,0,431.94341,868.52973)"
         sodipodi:end="0.78539816"
         sodipodi:start="0"
         d="m -206.73625,429.66266 c 0,26.09373 -10.36569,51.11872 -28.81675,69.56977 l -69.56977,-69.56977 z"
         sodipodi:ry="98.38652"
         sodipodi:rx="98.38652"
         sodipodi:cy="429.66266"
         sodipodi:cx="-305.12277"
         id="path2987-8-4-1"
         style="fill:#999999;fill-opacity:1;stroke:none"
         sodipodi:type="arc" />
      <path
         transform="matrix(0,0.20327988,-0.20327988,0,300.93075,775.49175)"
         sodipodi:end="0.78539816"
         sodipodi:start="0"
         d="m -206.73625,429.66266 c 0,26.09373 -10.36569,51.11872 -28.81675,69.56977 l -69.56977,-69.56977 z"
         sodipodi:ry="98.38652"
         sodipodi:rx="98.38652"
         sodipodi:cy="429.66266"
         sodipodi:cx="-305.12277"
         id="path2987-8-4-1-7"
         style="fill:#ececec;fill-opacity:1;stroke:none"
         sodipodi:type="arc" />
      <path
         transform="matrix(0,0.15245991,0.15245991,0,148.08265,794.98542)"
         sodipodi:end="3.1415927"
         sodipodi:start="0"
         d="m -206.73625,429.66266 c 0,54.33737 -44.04915,98.38652 -98.38652,98.38652 -54.33738,0 -98.38652,-44.04915 -98.38652,-98.38652 0,0 0,0 0,-1e-5 l 98.38652,1e-5 z"
         sodipodi:ry="98.38652"
         sodipodi:rx="98.38652"
         sodipodi:cy="429.66266"
         sodipodi:cx="-305.12277"
         id="path2987-8-4-1-5"
         style="fill:#999999;fill-opacity:1;stroke:none"
         sodipodi:type="arc" />
    </g>
    <rect
       style="fill:#999999;fill-opacity:1;stroke:none"
       id="rect3050-4-1"
       width="40"
       height="20"
       x="198.09207"
       y="587.82837"
       rx="0.49032158" />
    <rect
       style="fill:#808080;fill-opacity:1;stroke:none"
       id="rect3206"
       width="40"
       height="200"
       x="258.09207"
       y="434.79773"
       rx="0.37856385" />
    <g
       transform="matrix(0,-0.66719673,0.66719673,0,-975.64052,-2550.4339)"
       id="g7597-2-3-6-1-9-3-4-9-4"
       style="fill:#e6e6e6;fill-opacity:1">
      <text
         xml:space="preserve"
         style="font-size:82.41757964999999331px;font-style:normal;font-variant:normal;font-weight:500;font-stretch:normal;text-align:justify;line-height:129.99999522999999613%;letter-spacing:0px;word-spacing:0px;writing-mode:lr-tb;text-anchor:start;fill:#e6e6e6;fill-opacity:1;stroke:none;font-family:Gotham Book;-inkscape-font-specification:'Gotham Book, Medium'"
         x="-4563.3833"
         y="1818.0145"
         id="text5499-9-4-8-8-8-97-2-5-2-2-0-5-8-2"
         sodipodi:linespacing="130%"><tspan
           sodipodi:role="line"
           id="tspan5501-5-5-3-4-2-1-4-8-5-8-5-2-4-2"
           x="-4563.3833"
           y="1818.0145"
           style="font-size:82.41757964999999331px;font-style:normal;font-variant:normal;font-weight:normal;font-stretch:normal;text-align:justify;line-height:129.99999522999999613%;writing-mode:lr-tb;text-anchor:start;fill:#e6e6e6;fill-opacity:1;font-family:Raleway;-inkscape-font-specification:Raleway"
           dx="0 -0.18940103 0 0 0 -14.962671">J    LT</tspan></text>
      <g
         transform="translate(9.9442022,28.840645)"
         id="g6858-3-4-4-8-7-1-9-4-5-6"
         style="fill:#e6e6e6;fill-opacity:1">
        <path
           style="fill:#e6e6e6;fill-opacity:1;stroke:none"
           d="m 885.6875,1155 c -2.56032,0 -5.10904,0.984 -7.0625,2.9375 -3.90692,3.9069 -3.90692,10.2181 0,14.125 3.90692,3.9069 10.24933,3.9069 14.15625,0 3.90692,-3.9069 3.90692,-10.2181 0,-14.125 C 890.82779,1155.984 888.24782,1155 885.6875,1155 z m 0,1.6562 c 1.8754,1e-4 3.75023,0.6179 5.28125,1.875 l -1.1875,1.2188 c -1.19767,-0.9315 -2.65186,-1.4062 -4.09375,-1.4062 -1.44439,0 -2.86361,0.4715 -4.0625,1.4062 l -1.21875,-1.2188 c 1.53102,-1.2571 3.40585,-1.875 5.28125,-1.875 z m -6.4375,3.0626 1.1875,1.2187 c -1.87145,2.3986 -1.86724,5.7554 0,8.1563 l -1.1875,1.1874 c -2.50745,-3.0614 -2.50745,-7.501 0,-10.5624 z m 12.90625,0 c 2.50745,3.0614 2.50745,7.501 0,10.5624 l -1.1875,-1.1874 c 1.86724,-2.4009 1.87145,-5.7577 0,-8.1563 l 1.1875,-1.2187 z M 885.6875,1160 c 1.28016,0 2.58577,0.492 3.5625,1.4688 1.95346,1.9534 1.95346,5.1402 0,7.0937 -1.95346,1.9535 -5.14029,1.9535 -7.09375,0 -1.95346,-1.9535 -1.95346,-5.1403 0,-7.0937 0.97673,-0.9768 2.25109,-1.4688 3.53125,-1.4688 z m -4.09375,10.2812 c 2.4013,1.8736 5.7862,1.8736 8.1875,0 l 1.1875,1.1876 c -3.06291,2.5154 -7.49959,2.5154 -10.5625,0 l 1.1875,-1.1876 z"
           transform="matrix(2.9987149,0,0,2.9987149,-7154.0584,-1733.1562)"
           id="path6755-8-4-3-0-1-2-9-8-4-3-6-7"
           inkscape:connector-curvature="0" />
      </g>
    </g>
    <rect
       style="fill:#808080;fill-opacity:1;stroke:none"
       id="rect3206-5"
       width="40"
       height="200"
       x="777.1106"
       y="682.24554"
       rx="0.37856385" />
    <g
       transform="matrix(0,-0.66719673,0.66719673,0,-456.62201,-2302.9861)"
       id="g7597-2-3-6-1-9-3-4-9-4-6"
       style="fill:#e6e6e6;fill-opacity:1">
      <text
         xml:space="preserve"
         style="font-size:82.41757965px;font-style:normal;font-variant:normal;font-weight:500;font-stretch:normal;text-align:justify;line-height:129.99999523%;letter-spacing:0px;word-spacing:0px;writing-mode:lr-tb;text-anchor:start;fill:#e6e6e6;fill-opacity:1;stroke:none;font-family:Gotham Book;-inkscape-font-specification:'Gotham Book, Medium'"
         x="-4563.3833"
         y="1818.0145"
         id="text5499-9-4-8-8-8-97-2-5-2-2-0-5-8-2-9"
         sodipodi:linespacing="130%"><tspan
           sodipodi:role="line"
           id="tspan5501-5-5-3-4-2-1-4-8-5-8-5-2-4-2-8"
           x="-4563.3833"
           y="1818.0145"
           style="font-size:82.41757965px;font-style:normal;font-variant:normal;font-weight:normal;font-stretch:normal;text-align:justify;line-height:129.99999523%;writing-mode:lr-tb;text-anchor:start;fill:#e6e6e6;fill-opacity:1;font-family:Raleway;-inkscape-font-specification:Raleway"
           dx="0 -0.18940103 0 0 0 -14.962671">J    LT</tspan></text>
      <g
         transform="translate(9.9442022,28.840645)"
         id="g6858-3-4-4-8-7-1-9-4-5-6-4"
         style="fill:#e6e6e6;fill-opacity:1">
        <path
           style="fill:#e6e6e6;fill-opacity:1;stroke:none"
           d="m 885.6875,1155 c -2.56032,0 -5.10904,0.984 -7.0625,2.9375 -3.90692,3.9069 -3.90692,10.2181 0,14.125 3.90692,3.9069 10.24933,3.9069 14.15625,0 3.90692,-3.9069 3.90692,-10.2181 0,-14.125 C 890.82779,1155.984 888.24782,1155 885.6875,1155 z m 0,1.6562 c 1.8754,1e-4 3.75023,0.6179 5.28125,1.875 l -1.1875,1.2188 c -1.19767,-0.9315 -2.65186,-1.4062 -4.09375,-1.4062 -1.44439,0 -2.86361,0.4715 -4.0625,1.4062 l -1.21875,-1.2188 c 1.53102,-1.2571 3.40585,-1.875 5.28125,-1.875 z m -6.4375,3.0626 1.1875,1.2187 c -1.87145,2.3986 -1.86724,5.7554 0,8.1563 l -1.1875,1.1874 c -2.50745,-3.0614 -2.50745,-7.501 0,-10.5624 z m 12.90625,0 c 2.50745,3.0614 2.50745,7.501 0,10.5624 l -1.1875,-1.1874 c 1.86724,-2.4009 1.87145,-5.7577 0,-8.1563 l 1.1875,-1.2187 z M 885.6875,1160 c 1.28016,0 2.58577,0.492 3.5625,1.4688 1.95346,1.9534 1.95346,5.1402 0,7.0937 -1.95346,1.9535 -5.14029,1.9535 -7.09375,0 -1.95346,-1.9535 -1.95346,-5.1403 0,-7.0937 0.97673,-0.9768 2.25109,-1.4688 3.53125,-1.4688 z m -4.09375,10.2812 c 2.4013,1.8736 5.7862,1.8736 8.1875,0 l 1.1875,1.1876 c -3.06291,2.5154 -7.49959,2.5154 -10.5625,0 l 1.1875,-1.1876 z"
           transform="matrix(2.9987149,0,0,2.9987149,-7154.0584,-1733.1562)"
           id="path6755-8-4-3-0-1-2-9-8-4-3-6-7-5"
           inkscape:connector-curvature="0" />
      </g>
    </g>
  </g>
</svg>
