<?xml version="1.0" encoding="UTF-8" standalone="no"?>
<!-- Created with Inkscape (http://www.inkscape.org/) -->

<svg
   xmlns:dc="http://purl.org/dc/elements/1.1/"
   xmlns:cc="http://creativecommons.org/ns#"
   xmlns:rdf="http://www.w3.org/1999/02/22-rdf-syntax-ns#"
   xmlns:svg="http://www.w3.org/2000/svg"
   xmlns="http://www.w3.org/2000/svg"
   xmlns:sodipodi="http://sodipodi.sourceforge.net/DTD/sodipodi-0.dtd"
   xmlns:inkscape="http://www.inkscape.org/namespaces/inkscape"
   width="64px"
   height="64px"
   id="svg11430"
   version="1.1"
   inkscape:version="0.48.5 r10040"
   sodipodi:docname="archgrants-blue.svg">
  <defs
     id="defs11432" />
  <sodipodi:namedview
     id="base"
     pagecolor="#ffffff"
     bordercolor="#666666"
     borderopacity="1.0"
     inkscape:pageopacity="0.0"
     inkscape:pageshadow="2"
     inkscape:zoom="10.375"
     inkscape:cx="32"
     inkscape:cy="32"
     inkscape:current-layer="layer1"
     showgrid="true"
     inkscape:document-units="px"
     inkscape:grid-bbox="true"
     inkscape:window-width="1440"
     inkscape:window-height="851"
     inkscape:window-x="0"
     inkscape:window-y="0"
     inkscape:window-maximized="1" />
  <metadata
     id="metadata11435">
    <rdf:RDF>
      <cc:Work
         rdf:about="">
        <dc:format>image/svg+xml</dc:format>
        <dc:type
           rdf:resource="http://purl.org/dc/dcmitype/StillImage" />
        <dc:title />
      </cc:Work>
    </rdf:RDF>
  </metadata>
  <g
     id="layer1"
     inkscape:label="Layer 1"
     inkscape:groupmode="layer">
    <path
       style="fill:#1a66d8;fill-opacity:1"
       d="m 20.08099,42.624668 c 0.218888,-3.63789 0.978544,-7.848948 2.001785,-11.096636 2.88935,-9.170591 7.788004,-13.293299 12.794352,-10.767718 1.920298,0.968743 4.023522,3.557242 5.521616,6.795614 1.876512,4.056377 3.198045,9.713272 3.520278,15.06874 L 44,43.970618 l -1.080598,0 -1.0806,0 -0.07925,-1.046851 C 41.399298,38.165028 40.723244,34.384248 39.649845,31.1254 c -1.873817,-5.68893 -4.596149,-8.833598 -7.64722,-8.833598 -0.79612,0 -1.584404,0.194689 -2.15615,0.532526 -2.344677,1.385426 -4.083392,4.011401 -5.496322,8.301072 -1.073399,3.258848 -1.749453,7.039628 -2.109707,11.798367 l -0.07925,1.046851 -1.080598,0 -1.080598,0 0.08099,-1.34595 z m 4.429392,1.141086 c 0.21742,-0.605706 7.438641,-16.902579 7.489623,-16.902606 0.04854,-2.6e-5 7.209627,16.169326 7.485833,16.902606 0.07448,0.197722 -0.0081,0.211282 -1.092167,0.17946 l -1.172729,-0.03438 -0.62736,-1.435682 -0.62736,-1.435683 -3.971876,0 -3.971875,0 -0.63572,1.435683 -0.63572,1.435682 -1.158711,0.03438 c -1.069474,0.03179 -1.152798,0.01796 -1.081938,-0.17946 z m 10.460689,-4.937467 c -0.154658,-0.455436 -2.923649,-6.695433 -2.971066,-6.69538 -0.04986,5.3e-5 -2.697319,5.947794 -2.939326,6.603452 -0.07231,0.195906 0.116554,0.209366 2.936496,0.209366 1.918836,0 2.999287,-0.04263 2.973896,-0.117438 z"
       id="path11805"
       inkscape:connector-curvature="0" />
  </g>
</svg>
