<?xml version="1.0" encoding="UTF-8" standalone="no"?>
<!-- Created with Inkscape (http://www.inkscape.org/) -->

<svg
   xmlns:dc="http://purl.org/dc/elements/1.1/"
   xmlns:cc="http://creativecommons.org/ns#"
   xmlns:rdf="http://www.w3.org/1999/02/22-rdf-syntax-ns#"
   xmlns:svg="http://www.w3.org/2000/svg"
   xmlns="http://www.w3.org/2000/svg"
   xmlns:sodipodi="http://sodipodi.sourceforge.net/DTD/sodipodi-0.dtd"
   xmlns:inkscape="http://www.inkscape.org/namespaces/inkscape"
   width="64px"
   height="64px"
   id="svg11430"
   version="1.1"
   inkscape:version="0.48.5 r10040"
   sodipodi:docname="archgrants.svg">
  <defs
     id="defs11432" />
  <sodipodi:namedview
     id="base"
     pagecolor="#ffffff"
     bordercolor="#666666"
     borderopacity="1.0"
     inkscape:pageopacity="0.0"
     inkscape:pageshadow="2"
     inkscape:zoom="4.2176761"
     inkscape:cx="-31.291435"
     inkscape:cy="19.057678"
     inkscape:current-layer="layer1"
     showgrid="true"
     inkscape:document-units="px"
     inkscape:grid-bbox="true"
     inkscape:window-width="1920"
     inkscape:window-height="1031"
     inkscape:window-x="0"
     inkscape:window-y="0"
     inkscape:window-maximized="1" />
  <metadata
     id="metadata11435">
    <rdf:RDF>
      <cc:Work
         rdf:about="">
        <dc:format>image/svg+xml</dc:format>
        <dc:type
           rdf:resource="http://purl.org/dc/dcmitype/StillImage" />
        <dc:title></dc:title>
      </cc:Work>
    </rdf:RDF>
  </metadata>
  <g
     id="layer1"
     inkscape:label="Layer 1"
     inkscape:groupmode="layer">
    <path
       style="fill:#1a66d8;fill-opacity:1"
       d="m 14.077599,47.976121 c 0.329138,-5.47023 1.47142,-11.80232 3.010048,-16.68581 4.344663,-13.78965 11.71068,-19.98889 19.238633,-16.19122 2.887516,1.45668 6.050096,5.34896 8.302752,10.21844 2.821677,6.0995 4.808843,14.60567 5.293379,22.65859 l 0.121775,2.02388 -1.624876,0 -1.624878,0 -0.119166,-1.57413 c -0.541707,-7.15563 -1.558276,-12.84072 -3.172327,-17.74099 -2.817624,-8.55434 -6.911146,-13.28292 -11.498985,-13.28292 -1.197112,0 -2.38244,0.29275 -3.242164,0.80075 -3.525648,2.08324 -6.140122,6.03187 -8.264719,12.48217 -1.61405,4.90027 -2.63062,10.58536 -3.172327,17.74099 l -0.119167,1.57413 -1.624876,0 -1.624877,0 0.121775,-2.02388 z m 6.660396,1.71583 c 0.326931,-0.91079 11.185349,-25.4161 11.26201,-25.41614 0.07299,-4e-5 10.840985,24.31352 11.256311,25.41614 0.111987,0.29731 -0.01211,0.3177 -1.642272,0.26985 l -1.763411,-0.0517 -0.94335,-2.15881 -0.94335,-2.15881 -5.972437,0 -5.972436,0 -0.955921,2.15881 -0.95592,2.15881 -1.742333,0.0517 c -1.608148,0.0478 -1.733442,0.027 -1.626891,-0.26985 z m 15.729548,-7.42438 c -0.232556,-0.68483 -4.396238,-10.0678 -4.467538,-10.06772 -0.07498,8e-5 -4.05591,8.94359 -4.419812,9.92949 -0.10873,0.29458 0.17526,0.31482 4.415556,0.31482 2.88532,0 4.509974,-0.0641 4.471794,-0.17659 z"
       id="path11805"
       inkscape:connector-curvature="0" />
  </g>
</svg>
