<?xml version="1.0" encoding="UTF-8" standalone="no"?>
<!-- Created with Inkscape (http://www.inkscape.org/) -->

<svg
   xmlns:dc="http://purl.org/dc/elements/1.1/"
   xmlns:cc="http://creativecommons.org/ns#"
   xmlns:rdf="http://www.w3.org/1999/02/22-rdf-syntax-ns#"
   xmlns:svg="http://www.w3.org/2000/svg"
   xmlns="http://www.w3.org/2000/svg"
   xmlns:sodipodi="http://sodipodi.sourceforge.net/DTD/sodipodi-0.dtd"
   xmlns:inkscape="http://www.inkscape.org/namespaces/inkscape"
   width="64px"
   height="64px"
   id="svg11430"
   version="1.1"
   inkscape:version="0.48.5 r10040"
   sodipodi:docname="kickstarter-blue.svg">
  <defs
     id="defs11432" />
  <sodipodi:namedview
     id="base"
     pagecolor="#ffffff"
     bordercolor="#666666"
     borderopacity="1.0"
     inkscape:pageopacity="0.0"
     inkscape:pageshadow="2"
     inkscape:zoom="4.2176761"
     inkscape:cx="-18.251079"
     inkscape:cy="19.057678"
     inkscape:current-layer="layer1"
     showgrid="true"
     inkscape:document-units="px"
     inkscape:grid-bbox="true"
     inkscape:window-width="1440"
     inkscape:window-height="851"
     inkscape:window-x="0"
     inkscape:window-y="0"
     inkscape:window-maximized="1" />
  <metadata
     id="metadata11435">
    <rdf:RDF>
      <cc:Work
         rdf:about="">
        <dc:format>image/svg+xml</dc:format>
        <dc:type
           rdf:resource="http://purl.org/dc/dcmitype/StillImage" />
        <dc:title />
      </cc:Work>
    </rdf:RDF>
  </metadata>
  <g
     id="layer1"
     inkscape:label="Layer 1"
     inkscape:groupmode="layer">
    <path
       style="fill:#1a66d8;fill-opacity:1;stroke:none"
       d="m 25.710643,20 c -1.205851,0 -1.899102,0.26995 -2.663052,1.0344 -0.39175,0.392051 -0.514,0.558901 -0.7261,0.991551 -0.140401,0.28635 -0.311201,0.7179 -0.378501,0.95905 l -0.1216,0.4384 -0.017,8.247756 c -0.011,5.594953 0,8.391404 0.041,8.693005 0.088,0.6726 0.19665,1.037851 0.476101,1.609801 0.21215,0.4343 0.33285,0.59885 0.7261,0.9916 0.52545,0.52475 0.90355,0.743601 1.594401,0.923051 0.5239,0.1361 1.616751,0.1501 2.137301,0.0275 0.651251,-0.15345 1.125551,-0.426401 1.644052,-0.948751 0.61025,-0.61475 0.8693,-1.09625 1.08235,-2.007101 0.0735,-0.31415 0.0949,-0.842601 0.1199,-2.921651 l 0.031,-2.539752 3.039852,3.791602 c 1.671701,2.085351 3.139052,3.878452 3.260702,3.983452 0.53855,0.464851 1.162751,0.677701 2.091051,0.714151 1.326051,0.05205 2.091651,-0.23795 2.983302,-1.132001 0.43085,-0.43205 0.56325,-0.6081 0.7501,-0.9916 0.32515,-0.667351 0.41625,-1.060651 0.4179,-1.808452 0.005,-1.1756 -0.14495,-1.46215 -1.890701,-3.671752 -0.72635,-0.9193 -1.84945,-2.341501 -2.495201,-3.161402 l -1.173101,-1.49165 2.012252,-2.919952 c 1.10675,-1.606451 2.093001,-3.081952 2.192101,-3.277852 0.26445,-0.523 0.367,-0.977251 0.3699,-1.644051 0.005,-0.709001 -0.0711,-1.031601 -0.39045,-1.698901 -0.2149,-0.449 -0.318,-0.58785 -0.748401,-1.013851 -0.834701,-0.82605 -1.6806,-1.1781 -2.824051,-1.1765 -0.721901,0 -1.153051,0.09955 -1.724551,0.3956 -0.832751,0.43135 -1.087201,0.74235 -3.623802,4.428703 l -2.246902,3.264152 -0.0325,-2.606552 c -0.023,-1.853751 -0.0522,-2.669802 -0.10105,-2.825702 -0.1691,-0.53955 -0.45995,-0.9836 -0.98985,-1.513951 -0.437301,-0.4376 -0.606101,-0.5646 -0.989901,-0.7501 -0.627201,-0.3031 -1.038651,-0.39215 -1.832451,-0.39215 z"
       id="rect16558"
       inkscape:connector-curvature="0"
       inkscape:export-filename="/Users/bdharva/Dropbox/Jolt/software/jolt.github.io/assets/icons/partners/kickstarter.png"
       inkscape:export-xdpi="89.971069"
       inkscape:export-ydpi="89.971069" />
  </g>
</svg>
