<?xml version="1.0" encoding="UTF-8" standalone="no"?>
<!-- Created with Inkscape (http://www.inkscape.org/) -->

<svg
   xmlns:dc="http://purl.org/dc/elements/1.1/"
   xmlns:cc="http://creativecommons.org/ns#"
   xmlns:rdf="http://www.w3.org/1999/02/22-rdf-syntax-ns#"
   xmlns:svg="http://www.w3.org/2000/svg"
   xmlns="http://www.w3.org/2000/svg"
   xmlns:sodipodi="http://sodipodi.sourceforge.net/DTD/sodipodi-0.dtd"
   xmlns:inkscape="http://www.inkscape.org/namespaces/inkscape"
   width="64px"
   height="64px"
   id="svg11430"
   version="1.1"
   inkscape:version="0.48.5 r10040"
   sodipodi:docname="masschallenge-blue.svg">
  <defs
     id="defs11432" />
  <sodipodi:namedview
     id="base"
     pagecolor="#ffffff"
     bordercolor="#666666"
     borderopacity="1.0"
     inkscape:pageopacity="0.0"
     inkscape:pageshadow="2"
     inkscape:zoom="8.1041664"
     inkscape:cx="15.645629"
     inkscape:cy="32"
     inkscape:current-layer="layer1"
     showgrid="true"
     inkscape:document-units="px"
     inkscape:grid-bbox="true"
     inkscape:window-width="1440"
     inkscape:window-height="851"
     inkscape:window-x="0"
     inkscape:window-y="0"
     inkscape:window-maximized="1" />
  <metadata
     id="metadata11435">
    <rdf:RDF>
      <cc:Work
         rdf:about="">
        <dc:format>image/svg+xml</dc:format>
        <dc:type
           rdf:resource="http://purl.org/dc/dcmitype/StillImage" />
        <dc:title />
      </cc:Work>
    </rdf:RDF>
  </metadata>
  <g
     id="layer1"
     inkscape:label="Layer 1"
     inkscape:groupmode="layer">
    <g
       id="g16480"
       transform="matrix(0.06653973,0,0,0.06653973,225.59103,-269.63111)">
      <path
         style="fill:#1a66d8"
         d="m -2757.9202,4675.4737 c -28.4214,-5.256 -47.344,-15.4142 -65.934,-35.3953 -26.51,-32.0575 -34.8169,-70.8387 -24.8069,-109.1297 l 1.7713,-6.5 10.1463,0.3444 10.1462,0.3443 2.0323,-4.5943 c 1.6154,-3.6519 2.5338,-4.5944 4.4767,-4.5944 3.6372,0 19.1026,-4.6793 24.4756,-7.4055 18.7782,-9.5278 30.9939,-26.4053 35.4443,-48.9706 2.4319,-12.3305 1.2164,-11.6239 19.9949,-11.6239 27.2627,0 51.7019,6.6857 67.7533,18.535 12.6447,9.3344 30.483,28.4701 28.37,30.4333 -1.8455,1.7147 -43.5143,29.0317 -44.2843,29.0317 -0.4475,0 -2.0535,-1.789 -3.5687,-3.9755 -3.1286,-4.5146 -12.2683,-12.3513 -17.5042,-15.0088 -10.3098,-5.2327 -24.4779,-7.503 -37.2628,-5.971 -25.2768,3.0289 -42.2968,22.6782 -45.7319,52.7965 -1.0534,9.236 0.1084,22.7955 2.6268,30.6588 8.7412,27.2927 31.9374,42.9954 58.4842,39.5909 20.5294,-2.6328 35.2667,-10.8018 43.8314,-24.296 l 3.621,-5.7052 7.4593,4.8299 c 4.1025,2.6564 13.9842,9.0036 21.9592,14.1049 7.975,5.1013 14.8861,9.6163 15.358,10.0333 1.6311,1.4414 -8.6236,15.4771 -18.2231,24.9422 -15.4871,15.2702 -31.8888,23.5054 -54.7571,27.4933 -10.5746,1.8441 -35.9825,1.8616 -45.8778,0.032 z m -67.9076,-176.275 c -1.5346,-15.1502 -6.9828,-28.1393 -15.8911,-37.8864 l -4.9151,-5.3779 1.6088,-7.1241 c 5.0931,-22.5527 22.717,-39.3912 53.6341,-51.2439 7.1158,-2.728 9.9488,-4.3448 11.1861,-6.3839 2.0206,-3.3301 1.8148,-3.8501 5.6455,14.2662 5.6874,26.8973 6.1578,36.612 2.5409,52.4724 -3.9752,17.4316 -15.2743,31.6734 -31.9016,40.2097 -7.548,3.8751 -17.9087,7.8179 -20.5434,7.8179 -0.3742,0 -0.9881,-3.0375 -1.3642,-6.75 z"
         id="path16486"
         inkscape:connector-curvature="0"
         sodipodi:nodetypes="ccccccssssssssssssssscsscsscccscsscssssc" />
      <path
         style="fill:#1a66d8"
         d="m -2825.7647,4499.1821 c -1.3813,-14.7942 -6.6363,-27.5562 -15.2798,-37.1076 l -5.1464,-5.687 0.8332,-4.9694 c 1.6568,-9.8822 5.6755,-18.8496 11.8286,-26.3947 8.1879,-10.0403 26.2917,-21.5508 44.8762,-28.5326 5.2852,-1.9855 7.6507,-3.4546 8.6729,-5.3862 1.6852,-3.1843 1.6772,-3.2026 4.5347,10.3441 1.1602,5.5 2.5059,11.8 2.9905,14 2.5269,11.4724 3.2933,23.6852 2.0551,32.7464 -2.3916,17.5003 -7.3451,28.1776 -17.9814,38.7588 -8.1477,8.1055 -22.3337,15.7409 -34.147,18.3792 -2.5668,0.5732 -2.6179,0.4761 -3.2366,-6.151 z"
         id="path16484"
         inkscape:connector-curvature="0"
         sodipodi:nodetypes="ssccsscsccscs" />
      <path
         style="fill:#1a66d8"
         d="m -3179.4315,4673.2127 c -0.01,-0.4202 -0.1188,-49.4765 -0.25,-109.014 l -0.2387,-108.25 32.25,0 32.25,0 0.011,12.25 0.011,12.25 2.6759,-3.5 c 8.0102,-10.4768 19.4403,-18.644 31.7235,-22.6676 6.7377,-2.2071 10.4018,-2.7174 22.0784,-3.0749 17.2162,-0.527 25.5292,0.9987 37.5,6.8823 9.7209,4.7779 20.709,14.8736 25.4529,23.3858 l 2.8007,5.0256 9.6232,-9.5256 c 13.9892,-13.8473 28.131,-21.2729 46.6711,-24.506 8.7319,-1.5227 27.7943,-2.0199 34.5567,-0.9013 l 3.6046,0.5962 0.6215,10.1427 c 0.7554,12.3294 3.579,23.9587 7.9214,32.6249 4.052,8.0869 13.3429,17.6238 21.0041,21.5602 3.6712,1.8864 5.5733,3.4389 5.2512,4.2863 -3.4707,9.1315 -7.4594,33.7454 -7.482,46.1714 -0.032,17.6482 5.1842,38.3167 13.546,53.6741 5.2555,9.6523 10.3481,16.4222 19.0983,25.3883 l 6.4044,6.5625 -0.287,10.4375 -0.2871,10.4376 -32,0 -32,0 -0.5,-71.5 -0.5,-71.5 -2.3894,-5.2877 c -4.8645,-10.7653 -16.5382,-17.2123 -31.1667,-17.2123 -21.851,0 -34.6555,9.2015 -40.7117,29.2559 -1.3569,4.4933 -1.6393,14.6578 -1.9724,70.9941 l -0.3888,65.75 -31.9037,0 -31.9037,0 -0.2818,-71.352 -0.2818,-71.3521 -3.5081,-6.8979 c -2.7128,-5.3342 -4.6042,-7.6317 -8.3427,-10.1344 -6.9625,-4.6609 -11.6742,-5.7725 -24.1492,-5.6972 -8.885,0.054 -12.0858,0.4927 -16.6471,2.2834 -10.3353,4.0574 -17.7667,12.8024 -21.6697,25.5004 -1.3497,4.391 -1.664,14.8741 -2.1331,71.1498 l -0.5501,66 -31.75,0.264 c -17.4625,0.1453 -31.7551,-0.08 -31.7613,-0.5 z m 328.9841,-161.1468 c -18.719,-5.0543 -31.7508,-18.1278 -34.9652,-35.0769 -1.135,-5.9851 -1.3222,-16.2173 -0.3826,-20.9153 0.542,-2.7101 1.0452,-3.125 3.7899,-3.125 9.8531,0 23.6737,6.1078 31.6648,13.9937 9.248,9.1262 14.9203,24.5097 14.9203,40.4641 l 0,6.5422 -4.25,-0.06 c -2.3375,-0.033 -7.1872,-0.8533 -10.7772,-1.8226 z"
         id="path16482"
         inkscape:connector-curvature="0"
         sodipodi:nodetypes="csccccccsssccssccscccssscccccccsssscccccsscssscsccccsssscscc" />
    </g>
  </g>
</svg>
