<?xml version="1.0" encoding="UTF-8" standalone="no"?>
<!-- Created with Inkscape (http://www.inkscape.org/) -->

<svg
   xmlns:dc="http://purl.org/dc/elements/1.1/"
   xmlns:cc="http://creativecommons.org/ns#"
   xmlns:rdf="http://www.w3.org/1999/02/22-rdf-syntax-ns#"
   xmlns:svg="http://www.w3.org/2000/svg"
   xmlns="http://www.w3.org/2000/svg"
   xmlns:sodipodi="http://sodipodi.sourceforge.net/DTD/sodipodi-0.dtd"
   xmlns:inkscape="http://www.inkscape.org/namespaces/inkscape"
   width="64px"
   height="64px"
   id="svg11430"
   version="1.1"
   inkscape:version="0.48.5 r10040"
   sodipodi:docname="New document 152">
  <defs
     id="defs11432" />
  <sodipodi:namedview
     id="base"
     pagecolor="#ffffff"
     bordercolor="#666666"
     borderopacity="1.0"
     inkscape:pageopacity="0.0"
     inkscape:pageshadow="2"
     inkscape:zoom="5.5"
     inkscape:cx="8.6363636"
     inkscape:cy="32"
     inkscape:current-layer="layer1"
     showgrid="true"
     inkscape:document-units="px"
     inkscape:grid-bbox="true"
     inkscape:window-width="1920"
     inkscape:window-height="1031"
     inkscape:window-x="0"
     inkscape:window-y="0"
     inkscape:window-maximized="1" />
  <metadata
     id="metadata11435">
    <rdf:RDF>
      <cc:Work
         rdf:about="">
        <dc:format>image/svg+xml</dc:format>
        <dc:type
           rdf:resource="http://purl.org/dc/dcmitype/StillImage" />
        <dc:title></dc:title>
      </cc:Work>
    </rdf:RDF>
  </metadata>
  <g
     id="layer1"
     inkscape:label="Layer 1"
     inkscape:groupmode="layer">
    <g
       id="g16402"
       transform="matrix(0.14953271,0,0,0.14953271,476.49464,-646.93225)">
      <path
         style="fill:#1a66d8"
         d="m -3133.0579,4540.3594 0,-83 17.5,0 17.5,0 0,83 0,83 -17.5,0 -17.5,0 0,-83 z m 114,0 0,-83 17.5,0 17.5,0 0,83 0,83 -17.5,0 -17.5,0 0,-83 z m 57,26.5 0,-56.5 17.5,0 17.5,0 0,56.5 0,56.5 -17.5,0 -17.5,0 0,-56.5 z m 58,0 0,-56.5 17.5,0 17.5,0 0,56.5 0,56.5 -17.5,0 -17.5,0 0,-56.5 z m -172,-53 0,-56.5 17.5,0 17.5,0 0,56.5 0,56.5 -17.5,0 -17.5,0 0,-56.5 z m 114,-40 0,-16.5 17.5,0 17.5,0 0,16.5 0,16.5 -17.5,0 -17.5,0 0,-16.5 z m 58,0 0,-16.5 46,0 46,0 0,16.5 0,16.5 -46,0 -46,0 0,-16.5 z"
         id="path16406"
         inkscape:connector-curvature="0" />
      <path
         style="fill:#1a66d8"
         d="m -3133.0579,4540.3594 0,-83 17.5,0 17.5,0 0,83 0,83 -17.5,0 -17.5,0 0,-83 z m 114,0 0,-83 17.5,0 17.5,0 0,83 0,83 -17.5,0 -17.5,0 0,-83 z m 115,26.5 0,-56.5 17.5,0 17.5,0 0,56.5 0,56.5 -17.5,0 -17.5,0 0,-56.5 z m -172,-53 0,-56.5 17.5,0 17.5,0 0,56.5 0,56.5 -17.5,0 -17.5,0 0,-56.5 z m 114,-40 0,-16.5 17.5,0 17.5,0 0,16.5 0,16.5 -17.5,0 -17.5,0 0,-16.5 z m 58,0 0,-16.5 46,0 46,0 0,16.5 0,16.5 -46,0 -46,0 0,-16.5 z"
         id="path16404"
         inkscape:connector-curvature="0" />
    </g>
  </g>
</svg>
