<?xml version="1.0" encoding="UTF-8" standalone="no"?>
<!-- Created with Inkscape (http://www.inkscape.org/) -->

<svg
   xmlns:dc="http://purl.org/dc/elements/1.1/"
   xmlns:cc="http://creativecommons.org/ns#"
   xmlns:rdf="http://www.w3.org/1999/02/22-rdf-syntax-ns#"
   xmlns:svg="http://www.w3.org/2000/svg"
   xmlns="http://www.w3.org/2000/svg"
   xmlns:sodipodi="http://sodipodi.sourceforge.net/DTD/sodipodi-0.dtd"
   xmlns:inkscape="http://www.inkscape.org/namespaces/inkscape"
   width="64px"
   height="64px"
   id="svg11430"
   version="1.1"
   inkscape:version="0.48.5 r10040"
   sodipodi:docname="sprint-blue.svg">
  <defs
     id="defs11432" />
  <sodipodi:namedview
     id="base"
     pagecolor="#ffffff"
     bordercolor="#666666"
     borderopacity="1.0"
     inkscape:pageopacity="0.0"
     inkscape:pageshadow="2"
     inkscape:zoom="10.375"
     inkscape:cx="19.614458"
     inkscape:cy="32"
     inkscape:current-layer="layer1"
     showgrid="true"
     inkscape:document-units="px"
     inkscape:grid-bbox="true"
     inkscape:window-width="1440"
     inkscape:window-height="851"
     inkscape:window-x="0"
     inkscape:window-y="0"
     inkscape:window-maximized="1" />
  <metadata
     id="metadata11435">
    <rdf:RDF>
      <cc:Work
         rdf:about="">
        <dc:format>image/svg+xml</dc:format>
        <dc:type
           rdf:resource="http://purl.org/dc/dcmitype/StillImage" />
        <dc:title />
      </cc:Work>
    </rdf:RDF>
  </metadata>
  <g
     id="layer1"
     inkscape:label="Layer 1"
     inkscape:groupmode="layer">
    <g
       id="g3880"
       transform="matrix(0.03456425,0,0,0.03456425,2.7259015,20.92049)"
       inkscape:export-filename="/Users/bdharva/Dropbox/Jolt/Software/jolt.github.io/assets/icons/partners/sprint.png"
       inkscape:export-xdpi="89.971069"
       inkscape:export-ydpi="89.971069"
       style="fill:#ffcc00">
      <path
         style="fill:#1a66d8"
         d="m 568.92444,666.83434 c 0.3399,-0.55 1.0511,-1 1.5805,-1 0.5293,0 2.6402,-1.05139 4.6909,-2.33642 2.0507,-1.28503 8.2286,-4.97481 13.7286,-8.19952 5.5,-3.2247 12.5628,-7.57332 15.6951,-9.66358 3.1324,-2.09026 5.9685,-3.80048 6.3026,-3.80048 0.8039,0 55.2341,-36.33588 68.0023,-45.39614 5.5,-3.90279 11.6158,-8.22275 13.5908,-9.59992 42.5303,-29.65764 129.1424,-95.94346 172.4092,-131.94792 4.4,-3.66146 14.75,-12.25167 23,-19.08935 25.1474,-20.84237 81.2164,-69.21779 84.5,-72.90519 0.275,-0.30881 2.75,-2.55466 5.5,-4.99078 17.0783,-15.12893 45.40466,-41.98054 68.40616,-64.84467 9.2097,-9.1547 14.9231,-14.12179 15.8391,-13.77027 3.8511,1.47779 26.8229,18.11558 36.5269,26.45532 13.6712,11.74915 23.7055,23.37503 28.5177,33.04114 3.281,6.59026 3.6986,8.2674 3.6105,14.5 -0.1691,11.95905 -4.9302,18.7205 -21.8209,30.98865 -9.2704,6.73332 -42.0678,28.54195 -72.5795,48.26171 -35.5683,22.98784 -107.96386,65.76047 -154.49996,91.28132 -3.3,1.80975 -7.8,4.29851 -10,5.53057 -5.8559,3.27947 -16.2306,8.85551 -27.8099,14.94677 -5.6046,2.94828 -15.8151,8.33177 -22.6901,11.96332 -14.1491,7.47388 -74.3402,37.45404 -86.5,43.08414 -7.2941,3.37723 -38.739,17.78866 -49.4073,22.64372 -28.3828,12.91676 -83.9222,35.09778 -108.7542,43.4336 -8.0786,2.71188 -8.7112,2.826 -7.8385,1.41398 z m 144.5,-110.53118 c 1.4474,-1.8998 4.8158,-5.67372 15.5587,-17.432 39.6594,-43.40776 105.074,-129.20578 142.6016,-187.03682 38.143,-58.77925 67.3782,-111.20528 84.8924,-152.23293 1.346,-3.15312 2.7674,-5.74062 3.1586,-5.75 0.3913,-0.009 6.9163,4.10351 14.5,9.13978 17.3055,11.49229 31.05576,24.84464 36.25926,35.20993 3.0223,6.02049 3.4972,8.01046 3.853,16.14648 0.613,14.01558 -2.0751,20.27355 -18.67976,43.48674 -11.1741,15.62135 -17.5113,23.36237 -37.6438,45.98314 -15.8953,17.85989 -40.6299,42.60458 -73.0345,73.06435 -6.8141,6.40514 -36.2477,32.98603 -42.0411,37.96652 -32.9165,28.29747 -55.9062,47.30005 -76.9244,63.58348 -29.9362,23.19247 -55.2025,41.41852 -52.5,37.87133 z m 72.0034,-102.71882 c 0,-0.1375 2.029,-6.55 4.5048,-14.25 7.9393,-24.6927 17.8627,-65.78046 24.514,-101.5 1.1778,-6.325 2.7543,-14.65 3.5034,-18.5 11.051,-56.79712 22.2182,-151.79351 22.5407,-191.74828 0.066,-8.11155 0.4962,-14.98136 0.9572,-15.26623 1.6205,-1.00151 25.0952,15.72548 34.114,24.30797 22.1843,21.11129 30.5021,42.57306 27.831,71.81041 -3.0497,33.38242 -11.8658,63.94957 -30.0354,104.13896 -19.9024,44.02226 -45.8031,86.64661 -82.9331,136.48156 -2.8857,3.87309 -5.014,5.80076 -4.9966,4.52561 z m 11.5042,-88.29005 c -1.0079,-7.37455 -4.3885,-29.1655 -5.5012,-35.45995 -2.1936,-12.40892 -7.2285,-38.94908 -8.6001,-45.33325 -0.8075,-3.75828 -2.327,-11.18328 -3.3769,-16.5 -5.6962,-28.8479 -19.0837,-85.42571 -29.0648,-122.83254 -2.7818,-10.42591 -11.8173,-42.18134 -12.899,-45.33421 -0.4718,-1.375 -1.8488,-5.875 -3.06,-10 -1.2113,-4.125 -4.9067,-15.73886 -8.212,-25.80859 -3.3054,-10.06972 -5.723,-18.59536 -5.3725,-18.94586 1.1804,-1.18035 11.6104,5.08473 19.8754,11.93878 24.4866,20.30615 42.4062,49.63229 49.0765,80.31567 10.0252,46.11635 14.6272,91.85634 14.6268,145.37917 -3e-4,46.1985 -4.9732,101.01132 -7.4922,82.58078 z M 767.88904,253.403 c -0.5305,-0.73448 -7.8875,-11.6254 -16.3489,-24.20204 -34.9433,-51.9382 -67.4976,-98.3682 -99.4696,-141.86662 -13.1991,-17.95759 -25.5383,-34.39524 -26.6486,-35.5 -0.2764,-0.275 -2.5219,-3.2 -4.99,-6.5 -12.5006,-16.71395 -30.3828,-38.89815 -47.7879,-59.28439 -9.686,-11.34497 -10.9314,-13.18165 -8.5307,-12.58068 3.7175,0.93061 18.7961,8.78203 28.888,15.04205 23.3569,14.48817 52.8318,43.14451 75.4177,73.32302 3.4988,4.675 7.5525,10.075 9.0083,12 21.8403,28.87958 53.2551,86.73382 75.4769,139 3.1569,7.425 6.5903,15.4076 7.63,17.7391 1.0396,2.33151 1.8902,4.60656 1.8902,5.05568 0,0.44911 1.5984,4.78059 3.5521,9.62551 3.3909,8.40948 4.0118,11.05451 1.9125,8.14837 z"
         id="path3884"
         inkscape:connector-curvature="0"
         sodipodi:nodetypes="cssscsscssssscsssssssssssscsssscssssssssscsssccsssscssccsccscsssscsscssssssscscc" />
    </g>
  </g>
</svg>
