<?xml version="1.0" encoding="UTF-8" standalone="no"?>
<!-- Created with Inkscape (http://www.inkscape.org/) -->

<svg
   xmlns:dc="http://purl.org/dc/elements/1.1/"
   xmlns:cc="http://creativecommons.org/ns#"
   xmlns:rdf="http://www.w3.org/1999/02/22-rdf-syntax-ns#"
   xmlns:svg="http://www.w3.org/2000/svg"
   xmlns="http://www.w3.org/2000/svg"
   xmlns:sodipodi="http://sodipodi.sourceforge.net/DTD/sodipodi-0.dtd"
   xmlns:inkscape="http://www.inkscape.org/namespaces/inkscape"
   width="64px"
   height="64px"
   id="svg11430"
   version="1.1"
   inkscape:version="0.48.5 r10040"
   sodipodi:docname="techstars-blue.svg">
  <defs
     id="defs11432" />
  <sodipodi:namedview
     id="base"
     pagecolor="#ffffff"
     bordercolor="#666666"
     borderopacity="1.0"
     inkscape:pageopacity="0.0"
     inkscape:pageshadow="2"
     inkscape:zoom="13.1875"
     inkscape:cx="22.255924"
     inkscape:cy="32"
     inkscape:current-layer="layer1"
     showgrid="true"
     inkscape:document-units="px"
     inkscape:grid-bbox="true"
     inkscape:window-width="1440"
     inkscape:window-height="851"
     inkscape:window-x="0"
     inkscape:window-y="0"
     inkscape:window-maximized="1" />
  <metadata
     id="metadata11435">
    <rdf:RDF>
      <cc:Work
         rdf:about="">
        <dc:format>image/svg+xml</dc:format>
        <dc:type
           rdf:resource="http://purl.org/dc/dcmitype/StillImage" />
        <dc:title />
      </cc:Work>
    </rdf:RDF>
  </metadata>
  <g
     id="layer1"
     inkscape:label="Layer 1"
     inkscape:groupmode="layer">
    <g
       id="g3807"
       transform="matrix(0.06732929,0,0,0.06732929,-23.570458,20.488067)">
      <path
         style="fill:#1a66d8"
         d="m 641.35095,303.38708 -83.34036,-0.50862 77.1157,-75.5 c 42.41363,-41.525 77.47341,-75.62304 77.91063,-75.77342 0.43721,-0.15039 13.99723,9.88069 30.13338,22.29128 16.13614,12.41059 29.66706,22.20863 30.0687,21.77342 0.91651,-0.9931 17.97171,-55.81163 17.89861,-57.52939 -0.0295,-0.69404 -11.2615,-9.81189 -24.95991,-20.26189 l -24.90621,-19 31.69136,-0.5 31.69136,-0.5 10.03943,-29.687548 c 5.52169,-16.328152 10.27129,-29.919405 10.55467,-30.202786 0.28338,-0.283381 5.16872,13.182272 10.8563,29.923674 l 10.34106,30.438912 31.5495,0.263874 31.54951,0.263874 -25.20158,19.38387 c -18.42944,14.17506 -25.06479,19.81816 -24.69253,21 0.27997,0.88887 4.34902,13.96147 9.04231,29.05021 4.6933,15.08875 8.72968,27.6305 8.96973,27.87056 0.24006,0.24005 2.14472,-0.88885 4.23259,-2.50869 39.47058,-30.62261 55.68895,-42.52622 56.83303,-41.71309 0.70974,0.50443 35.64287,34.66714 77.62917,75.91714 l 76.3388,75 -94.00246,0.60677 c -106.27711,0.68601 -234.63139,0.65075 -357.34279,-0.0981 z m 157.24144,-50.41853 c 14.24559,-9.72995 26.18669,-17.78065 26.53579,-17.89045 0.34909,-0.1098 18.1686,11.7587 39.59892,26.37445 21.43032,14.61574 39.47013,26.86983 40.08847,27.2313 0.61834,0.36147 -2.69131,-11.59687 -7.35479,-26.57408 -4.66348,-14.97722 -11.05166,-35.55631 -14.19596,-45.73131 l -5.71692,-18.5 -11.42829,-7.86385 c -6.28557,-4.32512 -18.01584,-12.36174 -26.06727,-17.85916 l -14.63898,-9.99531 -25.97262,17.73921 -25.97262,17.73921 -13.76754,44.11995 c -7.57214,24.26597 -14.00661,44.9828 -14.29882,46.0374 -0.36439,1.31511 3.83848,-1.07533 13.37913,-7.60955 7.65073,-5.23986 25.5659,-17.48787 39.8115,-27.21781 z"
         id="path3811"
         inkscape:connector-curvature="0"
         sodipodi:nodetypes="ccscsscscccssscccssscssscsccsssssscsscccssss" />
      <path
         style="fill:#1a66d8"
         d="m 726.74131,302.49582 c 0.5225,-0.48545 16.025,-11.12807 34.45,-23.65026 18.425,-12.5222 40.35884,-27.45383 48.74186,-33.18141 9.36141,-6.39605 15.72727,-10.13108 16.5,-9.68102 1.44537,0.84181 78.01128,52.84004 90.6795,61.5832 l 8.42137,5.81213 -99.87137,0 c -57.77871,0 -99.47096,-0.372 -98.92136,-0.88264 z m 47.45,-106.65821 c 0,-0.59899 16.68509,-54.43523 17.69505,-57.09495 0.23721,-0.6247 -10.90891,-9.8497 -24.76916,-20.5 l -25.20044,-19.3642 31.55869,-0.26394 31.55868,-0.263941 9.71348,-29.236059 c 5.34242,-16.079833 9.94461,-29.638719 10.2271,-30.130858 0.28249,-0.492139 5.1022,12.557861 10.71048,29 l 10.19686,29.894798 31.53734,0.5 31.53733,0.5 -24.83636,19 c -13.66,10.45 -24.83189,19.675 -24.82641,20.5 0.005,0.825 3.96645,14.1 8.80216,29.5 4.83572,15.4 8.66781,28.15507 8.51577,28.3446 -0.15204,0.18953 -11.57652,-7.38934 -25.38773,-16.84194 -16.45348,-11.261 -25.65816,-16.97668 -26.69744,-16.57787 -0.87239,0.33477 -11.99224,7.72017 -24.71078,16.41201 -26.00111,17.76914 -25.62462,17.52491 -25.62462,16.62235 z"
         id="path3809"
         inkscape:connector-curvature="0" />
    </g>
  </g>
</svg>
