<?xml version="1.0" encoding="UTF-8" standalone="no"?>
<!-- Created with Inkscape (http://www.inkscape.org/) -->

<svg
   xmlns:dc="http://purl.org/dc/elements/1.1/"
   xmlns:cc="http://creativecommons.org/ns#"
   xmlns:rdf="http://www.w3.org/1999/02/22-rdf-syntax-ns#"
   xmlns:svg="http://www.w3.org/2000/svg"
   xmlns="http://www.w3.org/2000/svg"
   xmlns:sodipodi="http://sodipodi.sourceforge.net/DTD/sodipodi-0.dtd"
   xmlns:inkscape="http://www.inkscape.org/namespaces/inkscape"
   width="64"
   height="20"
   id="svg4219"
   version="1.1"
   inkscape:version="0.48.5 r10040"
   sodipodi:docname="jolt letters white.svg">
  <defs
     id="defs4221" />
  <sodipodi:namedview
     id="base"
     pagecolor="#ffffff"
     bordercolor="#666666"
     borderopacity="1.0"
     inkscape:pageopacity="0.0"
     inkscape:pageshadow="2"
     inkscape:zoom="13.1875"
     inkscape:cx="32"
     inkscape:cy="16.834123"
     inkscape:current-layer="layer1"
     showgrid="true"
     inkscape:document-units="px"
     inkscape:grid-bbox="true"
     inkscape:window-width="1920"
     inkscape:window-height="1031"
     inkscape:window-x="-2"
     inkscape:window-y="0"
     inkscape:window-maximized="0" />
  <metadata
     id="metadata4224">
    <rdf:RDF>
      <cc:Work
         rdf:about="">
        <dc:format>image/svg+xml</dc:format>
        <dc:type
           rdf:resource="http://purl.org/dc/dcmitype/StillImage" />
        <dc:title></dc:title>
      </cc:Work>
    </rdf:RDF>
  </metadata>
  <g
     id="layer1"
     inkscape:label="Layer 1"
     inkscape:groupmode="layer"
     transform="translate(0,-44)">
    <path
       inkscape:connector-curvature="0"
       style="font-size:185.58700562px;font-style:normal;font-variant:normal;font-weight:normal;font-stretch:normal;text-align:justify;line-height:129.99999523%;letter-spacing:0px;word-spacing:0px;writing-mode:lr-tb;text-anchor:start;fill:#1a66d8;fill-opacity:1;stroke:none;font-family:Raleway;-inkscape-font-specification:Raleway"
       d="m 0.37500653,12.6933 c -2.56117003,0 -5.11046003,0.985565 -7.06457003,2.939713 -3.9082195,3.908195 -3.9082195,10.220944 0,14.12914 3.90822,3.908196 10.25333,3.908196 14.16155,0 3.9082105,-3.908196 3.9082105,-10.220945 0,-14.12914 C 5.5178765,13.678865 2.9361765,12.6933 0.37500653,12.6933 z m 13.84211047,0.09722 0,19.52247 13.19862,0 0,-1.70364 -11.30053,0 0,-17.81883 -1.89809,0 z m 11.15239,0 0,1.708274 6.95347,0 0,17.814196 1.92586,0 0,-17.814196 6.95809,0 0,-1.708274 -15.83742,0 z m -40.86895,0.02778 0,9.897805 c 0,5.223744 -0.49478,8.166388 -4.48133,8.166388 -1.56712,0 -2.88774,-0.46862 -3.68505,-1.018487 l -0.55091,1.541617 c 1.15472,0.7973 2.55887,1.20829 4.23596,1.20829 5.69114,0 6.40719,-3.959236 6.40719,-9.897808 l 0,-9.897805 -1.92586,0 z m 15.87444953,1.532354 c 1.87601997,1.01e-4 3.75069997,0.617419 5.28221997,1.874935 l -1.18977,1.217551 c -1.19807,-0.93181 -2.65008,-1.40273 -4.09244997,-1.40273 -1.44487003,0 -2.86538003,0.467721 -4.06467003,1.40273 l -1.21755,-1.217551 c 1.53152,-1.257516 3.4062,-1.874935 5.28222003,-1.874935 z m -6.43959003,3.064709 1.18514,1.21755 c -1.87207,2.399396 -1.86786,5.755429 0,8.157125 l -1.18514,1.189774 c -2.50828,-3.062416 -2.50828,-7.502034 0,-10.564449 z m 12.90696,0 c 2.50828,3.062415 2.50828,7.502033 0,10.564449 l -1.18515,-1.189774 c 1.86786,-2.401696 1.87207,-5.757729 0,-8.157125 l 1.18515,-1.21755 z m -6.46736997,0.277768 c 1.28057997,0 2.58300997,0.495048 3.56005997,1.472171 1.95411,1.95405 1.95411,5.14283 0,7.096977 -1.9541,1.954148 -5.13824,1.954148 -7.09234,0 -1.95411,-1.954147 -1.95411,-5.142927 0,-7.096977 0.97705,-0.977123 2.25170003,-1.472171 3.53228003,-1.472171 z M -3.7220735,27.979812 c 2.4021,1.874221 5.78744,1.874221 8.18953,0 l 1.18977,1.189773 c -3.06392,2.516238 -7.50052,2.516238 -10.56444,0 l 1.18514,-1.189773 z"
       id="path3007" />
  </g>
</svg>
