<?xml version="1.0" encoding="UTF-8" standalone="no"?>
<!-- Created with Inkscape (http://www.inkscape.org/) -->

<svg
   xmlns:dc="http://purl.org/dc/elements/1.1/"
   xmlns:cc="http://creativecommons.org/ns#"
   xmlns:rdf="http://www.w3.org/1999/02/22-rdf-syntax-ns#"
   xmlns:svg="http://www.w3.org/2000/svg"
   xmlns="http://www.w3.org/2000/svg"
   xmlns:sodipodi="http://sodipodi.sourceforge.net/DTD/sodipodi-0.dtd"
   xmlns:inkscape="http://www.inkscape.org/namespaces/inkscape"
   width="64px"
   height="64px"
   id="svg3190"
   version="1.1"
   inkscape:version="0.48.5 r10040"
   sodipodi:docname="New document 3">
  <defs
     id="defs3192" />
  <sodipodi:namedview
     id="base"
     pagecolor="#ffffff"
     bordercolor="#666666"
     borderopacity="1.0"
     inkscape:pageopacity="0.0"
     inkscape:pageshadow="2"
     inkscape:zoom="1.4907235"
     inkscape:cx="15.62677"
     inkscape:cy="25.271342"
     inkscape:current-layer="layer1"
     showgrid="true"
     inkscape:document-units="px"
     inkscape:grid-bbox="true"
     inkscape:window-width="1920"
     inkscape:window-height="1031"
     inkscape:window-x="0"
     inkscape:window-y="0"
     inkscape:window-maximized="1" />
  <metadata
     id="metadata3195">
    <rdf:RDF>
      <cc:Work
         rdf:about="">
        <dc:format>image/svg+xml</dc:format>
        <dc:type
           rdf:resource="http://purl.org/dc/dcmitype/StillImage" />
        <dc:title></dc:title>
      </cc:Work>
    </rdf:RDF>
  </metadata>
  <g
     id="layer1"
     inkscape:label="Layer 1"
     inkscape:groupmode="layer">
    <path
       style="fill:#1a66d8;fill-opacity:1;stroke:none"
       d="m 12.293187,17.005218 a 0.05291262,0.05291262 0 0 0 -0.0232,0.01 l -0.0612,0.043 a 0.05291262,0.05291262 0 0 0 -0.0182,0.0231 l -0.0165,0.043 a 0.05291262,0.05291262 0 0 0 0.002,0.043 l 0.12731,0.25461 0.002,0.002 0.048,0.11243 -0.0827,0.16533 a 0.05291262,0.05291262 0 0 0 -0.005,0.0149 0.05291262,0.05291262 0 0 0 -0.0777,-0.0281 l -0.11243,0.0695 a 0.05291262,0.05291262 0 0 0 -0.007,0.005 l -0.0678,0.0595 a 0.05291262,0.05291262 0 0 0 -0.0182,0.0397 l 0,0.0794 -0.0612,0.005 -0.16203,-0.0463 -0.005,-0.002 -0.003,-0.002 -0.1455,-0.0727 a 0.05291262,0.05291262 0 0 0 -0.0132,-0.005 l -0.15045,-0.0298 -0.003,-0.002 -0.23147,-0.10747 -0.16699,-0.10086 -0.003,-0.002 -0.13227,-0.12565 -0.002,-0.002 -0.003,-0.003 -0.124,-0.1488 a 0.05291262,0.05291262 0 0 0 -0.0281,-0.0182 l -0.11243,-0.0248 a 0.05291262,0.05291262 0 0 0 -0.0628,0.0397 l -0.11905,0.496 a 0.05291262,0.05291262 0 0 0 0.005,0.038 l 0.0876,0.15872 0,0.3935 -0.0331,0.15376 a 0.05291262,0.05291262 0 0 0 0,0.0231 l 0.0761,0.37531 a 0.05291262,0.05291262 0 0 0 0.0149,0.0265 l 0.0711,0.0711 -0.1273,0.0198 a 0.05291262,0.05291262 0 0 0 -0.0446,0.0496 l -0.008,0.19675 a 0.05291262,0.05291262 0 0 0 0.0314,0.0512 l 0.0893,0.0397 -0.0546,0.13558 -0.11408,0.0149 a 0.05291262,0.05291262 0 0 0 -0.0463,0.0463 l -0.0165,0.15376 a 0.05291262,0.05291262 0 0 0 0.008,0.0364 l 0.081,0.11573 -0.0562,0.0198 a 0.05291262,0.05291262 0 0 0 -0.0331,0.0314 l -0.11904,0.34224 a 0.05291262,0.05291262 0 0 0 -0.002,0.002 l -0.1703,0.52908 -0.1686404,0.33563 a 0.05291262,0.05291262 0 0 0 -0.002,0.007 l -0.26619,0.74401 -0.33563,0.70764 -0.003,0.005 -0.42491,0.66134 -0.10251,0.15376 a 0.05291262,0.05291262 0 0 0 -0.008,0.0231 l -0.043,0.45467 a 0.05291262,0.05291262 0 0 0 0,0.007 l 0.0198,0.62332 -0.0794,0.248 a 0.05291262,0.05291262 0 0 0 -0.003,0.0149 l -0.008,0.38523 -0.26454,0.60182 -0.1521,0.12896 a 0.05291262,0.05291262 0 0 0 -0.0182,0.0248 l -0.01,0.0364 -0.0711,0.0331 a 0.05291262,0.05291262 0 0 0 -0.0281,0.0314 l -0.0777,0.22155 a 0.05291262,0.05291262 0 0 0 -0.002,0.005 l -0.043,0.17029 a 0.05291262,0.05291262 0 0 0 0.008,0.043 l 0.14219,0.21659 0.0827,0.21824 0.002,0 0.0546,0.17361 -0.0165,0.32075 -0.0876,0.1521 a 0.05291262,0.05291262 0 0 0 -0.007,0.0215 l -0.0314,0.29926 -0.002,0 -0.0513,0.19674 a 0.05291262,0.05291262 0 0 0 0.003,0.0364 l 0.0942,0.20501 a 0.05291262,0.05291262 0 0 0 0.003,0.005 l 0.14218,0.23478 0.003,0.005 0.11408,0.2447 0.0645,0.20171 -0.0132,0.1488 -0.01,0.0149 a 0.05291262,0.05291262 0 0 0 -0.01,0.0298 l 0,0.11077 a 0.05291262,0.05291262 0 0 0 0.0149,0.0364 l 0.28107,0.31248 -0.0198,0.0992 0,0.003 -0.0347,0.11573 -0.0331,0.10086 a 0.05291262,0.05291262 0 0 0 -0.002,0.0182 l 0.008,0.43648 a 0.05291262,0.05291262 0 0 0 0.007,0.0248 l 0.11077,0.19675 a 0.05291262,0.05291262 0 0 0 0.003,0.005 l 0.1025,0.13723 a 0.05291262,0.05291262 0 0 0 0.0331,0.0198 l 0.11574,0.0215 0.0347,0.0992 -0.0496,0.15542 -0.0843,0.0645 -0.0413,0 a 0.05291262,0.05291262 0 0 0 -0.0513,0.0413 l -0.043,0.20502 a 0.05291262,0.05291262 0 0 0 0,0.0198 l 0.0248,0.15376 a 0.05291262,0.05291262 0 0 0 0.01,0.0231 l 0.16699,0.22486 0.0827,0.2728 0.0761,0.248 a 0.05291262,0.05291262 0 0 0 0.002,0.005 l 0.0695,0.16203 a 0.05291262,0.05291262 0 0 0 0.002,0.007 l 0.18021,0.30753 0.0728,0.13061 0.0231,0.14219 a 0.05291262,0.05291262 0 0 0 0.0248,0.0364 l 0.0612,0.0364 0,0.086 -0.0397,0.0942 a 0.05291262,0.05291262 0 0 0 -0.002,0.008 l -0.0942,0.37531 -0.0265,0.10251 a 0.05291262,0.05291262 0 0 0 0.0116,0.0479 l 0.12896,0.14549 a 0.05291262,0.05291262 0 0 0 0.0331,0.0182 l 0.21659,0.0248 0.2265104,0.0893 0.20501,0.11078 a 0.05291262,0.05291262 0 0 0 0.0248,0.007 l 0.13062,0 0.13392,0.14053 0.13392,0.24966 0.0595,0.11904 a 0.05291262,0.05291262 0 0 0 0.0215,0.0232 l 0.20667,0.11077 a 0.05291262,0.05291262 0 0 0 0.0149,0.005 l 0.23478,0.0397 0.0579,0.0843 0.0248,0.11904 -0.038,0.0165 a 0.05291262,0.05291262 0 0 0 -0.0298,0.0645 l 0.0182,0.0513 a 0.05291262,0.05291262 0 0 0 0.0364,0.0347 l 0.17195,0.043 a 0.05291262,0.05291262 0 0 0 0.01,0.002 l 0.1455,0.008 a 0.05291262,0.05291262 0 0 0 0.0264,-0.005 l 0.13227,-0.0694 0.17029,0.18518 0.038,0.10747 a 0.05291262,0.05291262 0 0 0 0.005,0.01 l 0.13062,0.21163 0.0165,0.15376 0,0.005 0,0.49104 a 0.05291262,0.05291262 0 0 0 0.002,0.0149 l 0.0248,0.0942 a 0.05291262,0.05291262 0 0 0 0.0446,0.038 l 0.52908,0.0761 1.04492,0.14549 a 0.05291262,0.05291262 0 0 0 0.002,0 l 0.6415,0.0645 -0.0645,0.0513 a 0.05291262,0.05291262 0 0 0 -0.0182,0.0298 l -0.0182,0.0761 a 0.05291262,0.05291262 0 0 0 0.005,0.0364 l 0.0248,0.0513 a 0.05291262,0.05291262 0 0 0 0.0215,0.0215 l 0.99863,0.5638 0.003,0.002 0.6382,0.40011 a 0.05291262,0.05291262 0 0 0 0.002,0.002 l 0.77873,0.45302 0.8895,0.52908 a 0.05291262,0.05291262 0 0 0 0.0165,0.007 l 0.64977,0.12896 a 0.05291262,0.05291262 0 0 0 0.005,0 l 1.3078,0.14219 a 0.05291262,0.05291262 0 0 0 0.003,0.002 l 0.008,0 0.81345,0.10582 a 0.05291262,0.05291262 0 0 0 0.0595,-0.0463 l 0.0612,-0.47947 1.49628,0.1455 a 0.05291262,0.05291262 0 0 0 0.0132,-0.002 l 0.0661,0.0182 0.11739,0.13062 0.0744,0.2232 a 0.05291262,0.05291262 0 0 0 0.0265,0.0298 l 0.22981,0.11077 0.0612,0.15211 a 0.05291262,0.05291262 0 0 0 0.01,0.0165 l 0.37366,0.41664 0.002,0.002 0.0661,0.0843 a 0.05291262,0.05291262 0 0 0 0.0215,0.0149 l 0.248,0.10417 0.0513,0.0942 a 0.05291262,0.05291262 0 0 0 0.0198,0.0215 l 0.0645,0.038 0.0215,0.12235 a 0.05291262,0.05291262 0 0 0 0.005,0.0132 l 0.16533,0.33233 0,0.41499 a 0.05291262,0.05291262 0 0 0 0.005,0.0231 l 0.11905,0.248 a 0.05291262,0.05291262 0 0 0 0.01,0.0132 l 0.39349,0.41003 a 0.05291262,0.05291262 0 0 0 0.0182,0.0132 l 0.26288,0.10582 0.0727,0.0794 0,0.0132 a 0.05291262,0.05291262 0 0 0 0.0248,0.0463 l 0.20667,0.11904 a 0.05291262,0.05291262 0 0 0 0.01,0.005 l 0.10086,0.0347 0.002,0 0.0827,0.0529 a 0.05291262,0.05291262 0 0 0 0.008,0.005 l 0.13723,0.0512 a 0.05291262,0.05291262 0 0 0 0.0562,-0.0116 l 0.12896,-0.12896 a 0.05291262,0.05291262 0 0 0 0.005,-0.007 l 0.23147,-0.32406 a 0.05291262,0.05291262 0 0 0 0.008,-0.0182 l 0.048,-0.18683 0.10582,-0.15211 0.1736,-0.0694 0.21163,-0.0827 0.13888,0.1025 a 0.05291262,0.05291262 0 0 0 0.0265,0.01 l 0.39019,0.0331 0.003,0 0.34225,0.0579 0.10581,0.086 0,0.0347 a 0.05291262,0.05291262 0 0 0 0.0132,0.0347 l 0.13557,0.16203 a 0.05291262,0.05291262 0 0 0 0.007,0.005 l 0.30091,0.2695 0.007,0.0562 a 0.05291262,0.05291262 0 0 0 0.0132,0.0298 l 0.0843,0.0909 0.0397,0.20832 a 0.05291262,0.05291262 0 0 0 0.003,0.0116 l 0.27611,0.63655 -0.007,0.0909 a 0.05291262,0.05291262 0 0 0 0.0248,0.0496 l 0.21163,0.12896 0.18022,0.33729 a 0.05291262,0.05291262 0 0 0 0.005,0.008 l 0.18021,0.23147 a 0.05291262,0.05291262 0 0 0 0.0215,0.0165 l 0.15706,0.0628 0.0612,0.0843 -0.0612,0.20667 a 0.05291262,0.05291262 0 0 0 0.007,0.0446 l 0.0347,0.0513 a 0.05291262,0.05291262 0 0 0 0.0198,0.0182 l 0.0364,0.0182 -0.0132,0.12566 -0.0198,0.0198 a 0.05291262,0.05291262 0 0 0 -0.0132,0.0512 l 0.0347,0.1207 a 0.05291262,0.05291262 0 0 0 0.0231,0.0298 l 0.15045,0.0926 0.0645,0.31745 a 0.05291262,0.05291262 0 0 0 0.005,0.0149 l 0.11078,0.20501 a 0.05291262,0.05291262 0 0 0 0.0248,0.0231 l 0.40176,0.18022 a 0.05291262,0.05291262 0 0 0 0.0116,0.003 l 0.26123,0.0562 0.21493,0.15707 a 0.05291262,0.05291262 0 0 0 0.0198,0.01 l 0.17195,0.0331 a 0.05291262,0.05291262 0 0 0 0.0281,-0.002 l 0.0529,-0.0198 0.26619,0.0546 0.291,0.1984 a 0.05291262,0.05291262 0 0 0 0.0579,0.002 l 0.16368,-0.10251 a 0.05291262,0.05291262 0 0 0 0.0149,-0.0149 l 0.0513,-0.0777 a 0.05291262,0.05291262 0 0 0 0.01,-0.0298 l 0.0463,-0.0132 a 0.05291262,0.05291262 0 0 0 0.038,-0.0562 l -0.008,-0.0761 0,-0.002 -0.0248,-0.2728 a 0.05291262,0.05291262 0 0 0 -0.003,-0.0132 l -0.13393,-0.37035 0,-0.002 -0.0463,-0.31249 0.0165,-0.26453 0.10086,-0.33894 0.22651,-0.33894 0.002,-0.002 0.25131,-0.34886 a 0.05291262,0.05291262 0 0 0 0.01,-0.0364 l 0.30422,-0.18518 a 0.05291262,0.05291262 0 0 0 0.005,-0.003 l 0.086,-0.0711 0.32902,-0.17856 0.005,-0.002 0.2943,-0.12565 a 0.05291262,0.05291262 0 0 0 0.007,-0.003 l 0.28272,-0.17195 a 0.05291262,0.05291262 0 0 0 0.005,-0.003 l 0.1455,-0.11078 a 0.05291262,0.05291262 0 0 0 0.003,-0.003 l 0.29099,-0.27611 0.003,-0.002 0.0661,-0.0413 a 0.05291262,0.05291262 0 0 0 0.002,-0.002 l 0.11078,-0.0761 a 0.05291262,0.05291262 0 0 0 0.002,-0.002 l 0.13723,-0.10251 a 0.05291262,0.05291262 0 0 0 0.0149,-0.0182 l 0.043,-0.0876 0.49766,-0.22816 0.008,-0.003 0.29099,-0.081 a 0.05291262,0.05291262 0 0 0 0.0149,-0.007 l 0.2199,-0.0727 0.62331,0.01 0.5423,0.18518 a 0.05291262,0.05291262 0 0 0 0.008,0.003 l 0.34224,0.0595 a 0.05291262,0.05291262 0 0 0 0.0281,-0.003 l 0.17856,-0.0694 0.15211,0.0529 a 0.05291262,0.05291262 0 0 0 0.002,0.002 l 0.17195,0.0512 a 0.05291262,0.05291262 0 0 0 0.0645,-0.0331 l 0.043,-0.11077 a 0.05291262,0.05291262 0 0 0 -0.0331,-0.0678 l -0.17029,-0.0612 a 0.05291262,0.05291262 0 0 0 -0.0281,-0.002 l -0.11408,0.0232 -0.0992,-0.0579 c 0.0385,-0.01 0.10695,-0.0334 0.13557,-0.043 l 0.0711,0.0595 a 0.05291262,0.05291262 0 0 0 0.0595,0.005 l 0.0761,-0.0413 0.13062,0.0248 0.0595,0.10086 0.0149,0.10747 a 0.05291262,0.05291262 0 0 0 0.0496,0.0463 l 0.21824,0.0149 0.0546,0.0546 -0.0198,0.038 -0.0562,0.0347 a 0.05291262,0.05291262 0 0 0 -0.008,0.081 l 0.086,0.086 a 0.05291262,0.05291262 0 0 0 0.0165,0.0116 l 0.44475,0.18848 a 0.05291262,0.05291262 0 0 0 0.038,0 l 0.18848,-0.0678 a 0.05291262,0.05291262 0 0 0 0.0314,-0.0298 l 0.0413,-0.10416 0.11077,-0.0265 a 0.05291262,0.05291262 0 0 0 0.0198,-0.0116 l 0.0612,-0.0496 0.0215,0.0149 0.0248,0.0893 -0.0727,0.0265 a 0.05291262,0.05291262 0 0 0 -0.0198,0.0876 l 0.0347,0.0331 a 0.05291262,0.05291262 0 0 0 0.0562,0.0132 l 0.17856,-0.0694 a 0.05291262,0.05291262 0 0 0 0.0248,-0.0198 l 0.11408,-0.17029 0.0331,-0.0182 a 0.05291262,0.05291262 0 0 0 -0.0198,-0.0976 l -0.0397,-0.007 0.01,-0.0215 a 0.05291262,0.05291262 0 0 0 0.007,-0.0281 l -0.003,-0.0314 0.0645,-0.0149 a 0.05291262,0.05291262 0 0 0 0.0281,-0.0165 l 0.003,-0.003 c 2.1e-4,0.0127 -0.001,0.0136 0,0.0281 0.002,0.0226 0.004,0.0463 0.0116,0.0694 0.004,0.0115 0.009,0.0239 0.0198,0.0364 0.0108,0.0124 0.0308,0.0248 0.0529,0.0248 0.007,0 0.0694,0.008 0.11904,0.0165 0.0471,0.008 0.0851,0.0157 0.0893,0.0165 l 0.19345,0.0926 0.043,0.0645 a 0.05291262,0.05291262 0 0 0 0.043,0.0231 l 0.13558,0 0.0446,0.0397 a 0.05291262,0.05291262 0 0 0 0.076,-0.01 l 0.1207,-0.16203 a 0.05291262,0.05291262 0 0 0 0.01,-0.0314 l 0,-0.0777 a 0.05291262,0.05291262 0 0 0 -0.0529,-0.0529 l -0.0513,0 -0.16368,-0.13227 a 0.05291262,0.05291262 0 0 0 -0.0265,-0.0116 l -0.29264,-0.0413 -0.12731,-0.0893 0.0265,-0.0678 0.0794,0.0116 a 0.05291262,0.05291262 0 0 0 0.0595,-0.0397 l 0.008,-0.0331 a 0.05291262,0.05291262 0 0 0 -0.005,-0.038 l 0.0314,0 a 0.05291262,0.05291262 0 0 0 0.0446,-0.0264 l 0.0942,-0.16203 a 0.05291262,0.05291262 0 0 0 -0.002,-0.0562 l -0.0612,-0.0926 -0.0149,-0.13227 a 0.05291262,0.05291262 0 0 0 -0.0595,-0.0463 l -0.0761,0.008 a 0.05291262,0.05291262 0 0 0 -0.0331,0.0165 l -0.10251,0.11243 a 0.05291262,0.05291262 0 0 0 -0.0132,0.0231 l -0.0215,0.0876 -0.0893,-0.0198 -0.0215,-0.038 0.0694,-0.0761 a 0.05291262,0.05291262 0 0 0 0.007,-0.01 l 0.0893,-0.16203 a 0.05291262,0.05291262 0 0 0 0.002,-0.002 l 0.0595,-0.0413 a 0.05291262,0.05291262 0 0 0 0.0149,-0.0149 l 0.11078,-0.18352 0.0529,0.0248 a 0.05291262,0.05291262 0 0 0 0.0364,0.002 l 0.3472,-0.0992 0.0876,0.0132 0.0727,0.0397 a 0.05291262,0.05291262 0 0 0 0.0248,0.007 l 0.27445,0 a 0.05291262,0.05291262 0 0 0 0.0298,-0.01 l 0.10913,0 0.0281,0.007 a 0.05291262,0.05291262 0 0 0 0.0595,-0.0281 l 0.0694,-0.14549 a 0.05291262,0.05291262 0 0 0 0.002,-0.007 l 0.0612,-0.18187 0.048,0.0132 0.14715,0.28603 0,0.008 -0.12235,0.0876 a 0.05291262,0.05291262 0 0 0 0.0232,0.0959 l 0.14549,0.0182 a 0.05291262,0.05291262 0 0 0 0.0281,-0.005 l 0.29264,-0.13558 0.14054,-0.0231 a 0.05291262,0.05291262 0 0 0 0.008,-0.002 l 0.30753,-0.10912 0.31083,-0.0265 a 0.05291262,0.05291262 0 0 0 0.005,0 l 0.22155,-0.0314 0.38027,0.0876 0.003,0.002 0.41664,0.20006 0.081,0.0711 a 0.05291262,0.05291262 0 0 0 0.0149,0.01 l 0.14384,0.0562 0.0645,0.0794 0.0165,0.12896 a 0.05291262,0.05291262 0 0 0 0.0711,0.043 l 0.16368,-0.0645 0.19344,0 a 0.05291262,0.05291262 0 0 0 0.0248,-0.007 l 0.18848,-0.10251 a 0.05291262,0.05291262 0 0 0 0.0116,-0.008 l 0.18187,-0.17195 0.13722,0.008 a 0.05291262,0.05291262 0 0 0 0.0513,-0.0331 l 0.0264,-0.0595 a 0.05291262,0.05291262 0 0 0 -0.008,-0.0546 l -0.0281,-0.0331 0.003,-0.043 0.1736,-0.0347 0.11408,0 0.14384,0.0727 a 0.05291262,0.05291262 0 0 0 0.007,0.002 l 0.20502,0.0727 0.11739,0.18022 a 0.05291262,0.05291262 0 0 0 0.0265,0.0215 l 0.12235,0.043 0.0513,0.15376 a 0.05291262,0.05291262 0 0 0 0.0281,0.0314 l 0.16534,0.0794 0.0777,0.12401 a 0.05291262,0.05291262 0 0 0 0.0281,0.0215 l 0.10251,0.0347 a 0.05291262,0.05291262 0 0 0 0.003,0 l 0.248,0.0628 0.0579,0.13723 a 0.05291262,0.05291262 0 0 0 0.008,0.0132 l 0.15046,0.18187 0,0.47617 -0.0744,0.24304 a 0.05291262,0.05291262 0 0 0 -0.002,0.0215 l 0.0165,0.1455 a 0.05291262,0.05291262 0 0 0 0.002,0.007 l 0.0678,0.25793 a 0.05291262,0.05291262 0 0 0 0.003,0.007 l 0.0942,0.21494 a 0.05291262,0.05291262 0 0 0 0.0744,0.0231 l 0.043,-0.0248 a 0.05291262,0.05291262 0 0 0 0.0231,-0.0298 l 0.0777,-0.23973 a 0.05291262,0.05291262 0 0 0 -0.0248,-0.0612 l 0.0959,0.0198 0.003,0.0314 -0.15707,0.26784 -0.005,0.007 -0.10581,0.1207 a 0.05291262,0.05291262 0 0 0 0.002,0.0711 l 0.18683,0.1951 0.002,0.002 0.13227,0.15872 0.002,0.002 0.14881,0.27445 a 0.05291262,0.05291262 0 0 0 0.003,0.005 l 0.15211,0.20171 0.10747,0.25792 a 0.05291262,0.05291262 0 0 0 0.0397,0.0314 l 0.0942,0.0182 a 0.05291262,0.05291262 0 0 0 0.0512,-0.0198 l 0.0546,-0.0744 0.0446,0.0281 0.124,0.1951 0.0331,0.17856 a 0.05291262,0.05291262 0 0 0 0.008,0.0215 l 0.16368,0.22982 a 0.05291262,0.05291262 0 0 0 0.0876,-0.002 l 0.0265,-0.0413 0.16038,0.0132 0.16699,0.10747 0.16699,0.25627 0.0397,0.16368 0.002,0.007 0.0165,0.14715 a 0.05291262,0.05291262 0 0 0 0.0182,0.0347 l 0.0595,0.0513 a 0.05291262,0.05291262 0 0 0 0.0149,0.01 l 0.0694,0.0248 a 0.05291262,0.05291262 0 0 0 0.038,0 l 0.12731,-0.0513 a 0.05291262,0.05291262 0 0 0 0.0198,-0.0149 l 0.0628,-0.0694 0.18352,-0.007 a 0.05291262,0.05291262 0 0 0 0.0198,-0.005 l 0.14053,-0.0661 -0.10581,0.1736 -0.22486,0.21494 -0.002,0.002 -0.16864,0.0959 a 0.05291262,0.05291262 0 0 0 -0.002,0 l -0.13226,0.081 a 0.05291262,0.05291262 0 0 0 -0.008,0.086 l 0.0645,0.0546 a 0.05291262,0.05291262 0 0 0 0.0678,0.003 l 0.14549,-0.11242 0.28273,-0.22155 a 0.05291262,0.05291262 0 0 0 0.005,-0.005 l 0.19675,-0.20502 a 0.05291262,0.05291262 0 0 0 0.0116,-0.0182 l 0.12896,-0.34389 0.002,-0.003 0.002,-0.003 0.0479,-0.0827 a 0.05291262,0.05291262 0 0 0 0.007,-0.0248 l 0.008,-0.17857 a 0.05291262,0.05291262 0 0 0 -0.0827,-0.0463 l -0.038,0.0248 a 0.05291262,0.05291262 0 0 0 -0.0198,0.0265 l -0.0232,0.0694 -0.007,-0.0413 0.0314,-0.0926 a 0.05291262,0.05291262 0 0 0 0.002,-0.0248 l -0.01,-0.0645 0.0942,-0.0512 a 0.05291262,0.05291262 0 0 0 0.0265,-0.0413 l 0.0182,-0.18021 a 0.05291262,0.05291262 0 0 0 -0.003,-0.0231 l -0.0314,-0.086 -0.0248,-0.62497 a 0.05291262,0.05291262 0 0 0 -0.002,-0.007 l -0.0678,-0.40177 a 0.05291262,0.05291262 0 0 0 -0.007,-0.0165 l -0.23808,-0.43649 a 0.05291262,0.05291262 0 0 0 -0.002,-0.002 l -0.18518,-0.30422 -0.13723,-0.28107 a 0.05291262,0.05291262 0 0 0 -0.01,-0.0149 l -0.14549,-0.14384 -0.14054,-0.36043 0.0231,-0.0397 0.003,-0.003 0.002,-0.003 0.0546,-0.0612 a 0.05291262,0.05291262 0 0 0 0.007,-0.0612 l -0.086,-0.15377 a 0.05291262,0.05291262 0 0 0 -0.01,-0.0132 l -0.20998,-0.19179 -0.002,-0.002 -0.003,-0.003 -0.25131,-0.28603 -0.19179,-0.32571 -0.28107,-0.49601 -0.19344,-0.50427 -0.002,-0.003 -0.11243,-0.37035 -0.0397,-0.3191 0.11573,-0.51419 0.002,-0.005 0.0744,-0.21659 a 0.05291262,0.05291262 0 0 0 0.003,-0.0265 l -0.0231,-0.11905 0.16864,-0.31413 a 0.05291262,0.05291262 0 0 0 0.002,-0.043 l -0.0215,-0.0579 0.0727,-0.0446 a 0.05291262,0.05291262 0 0 0 0.0116,-0.01 l 0.26454,-0.29099 a 0.05291262,0.05291262 0 0 0 0.0116,-0.0513 l -0.0314,-0.10582 0.0876,-0.005 a 0.05291262,0.05291262 0 0 0 0.0331,-0.0149 l 0.18187,-0.1736 0.0794,-0.0397 a 0.05291262,0.05291262 0 0 0 0.0198,-0.0182 l 0.11243,-0.17195 0.003,-0.003 0.003,-0.005 0.13889,-0.13723 a 0.05291262,0.05291262 0 0 0 0.008,-0.01 l 0.0992,-0.16864 0.10913,-0.0298 a 0.05291262,0.05291262 0 0 0 0.0347,-0.0314 l 0.0529,-0.12565 0.0678,-0.0347 a 0.05291262,0.05291262 0 0 0 0.0281,-0.043 l 0.0264,-0.32736 0.12896,-0.30587 0.2695,-0.27115 0.25627,-0.0628 0.248,-0.0265 a 0.05291262,0.05291262 0 0 0 0.0463,-0.043 l 0.0248,-0.12235 0.002,-0.005 0.0992,-0.33067 0.1703,-0.23478 0.33067,-0.27115 0.25792,-0.12235 0.12896,-0.0314 0.043,0.0198 a 0.05291262,0.05291262 0 0 0 0.0215,0.003 l 0.0678,0 a 0.05291262,0.05291262 0 0 0 0.0446,-0.0248 l 0.16203,-0.25627 a 0.05291262,0.05291262 0 0 0 0.003,-0.003 l 0.1025,-0.18683 a 0.05291262,0.05291262 0 0 0 -0.0661,-0.076 l -0.0678,0.0264 a 0.05291262,0.05291262 0 0 0 -0.0198,0.0116 l -0.0628,0.0628 -0.003,-0.01 a 0.05291262,0.05291262 0 0 0 -0.0496,-0.0347 l -0.15046,0 0.081,-0.26454 a 0.05291262,0.05291262 0 0 0 -0.005,-0.043 l -0.0165,-0.0265 0.0926,0.0116 a 0.05291262,0.05291262 0 0 0 0.0281,-0.003 l 0.19675,-0.086 a 0.05291262,0.05291262 0 0 0 0.0265,-0.0265 l 0.0694,-0.15376 a 0.05291262,0.05291262 0 0 0 0.002,-0.007 l 0.0281,-0.0893 0.11574,-0.0579 a 0.05291262,0.05291262 0 0 0 0.0298,-0.043 l 0.0165,-0.21494 0.0264,-0.002 0.003,0.0116 a 0.05291262,0.05291262 0 0 0 0.005,0.01 l 0.0711,0.11243 0.0331,0.30918 0,0.005 -0.005,0.0661 -0.0529,0.0215 a 0.05291262,0.05291262 0 0 0 -0.0132,0.008 l -0.16699,0.13558 a 0.05291262,0.05291262 0 0 0 -0.003,0.003 l -0.13557,0.13226 a 0.05291262,0.05291262 0 0 0 0.0281,0.0909 l 0.0562,0.008 a 0.05291262,0.05291262 0 0 0 0.0463,-0.0165 l 0.0562,-0.0595 0.14384,-0.124 0.17195,-0.0777 a 0.05291262,0.05291262 0 0 0 0.0314,-0.0463 l 0.008,-0.17856 a 0.05291262,0.05291262 0 0 0 0,-0.008 l -0.0215,-0.23478 a 0.05291262,0.05291262 0 0 0 -0.005,-0.0182 l -0.14549,-0.29099 a 0.05291262,0.05291262 0 0 0 -0.0645,-0.0265 l -0.0116,0.003 -0.007,-0.0231 a 0.05291262,0.05291262 0 0 0 -0.0132,-0.0231 l -0.11905,-0.11739 -0.002,-0.003 -0.18518,-0.33398 0,-0.002 -0.002,-0.002 -0.10747,-0.25462 a 0.05291262,0.05291262 0 0 0 0,-0.002 0.05291262,0.05291262 0 0 0 -0.0149,-0.0215 l -0.18021,-0.30091 a 0.05291262,0.05291262 0 0 0 -0.0595,-0.0231 l -0.27942,0.081 -0.007,-0.008 0.0711,-0.038 a 0.05291262,0.05291262 0 0 0 0.0265,-0.0562 l -0.0265,-0.13392 a 0.05291262,0.05291262 0 0 0 -0.0149,-0.0265 l -0.0794,-0.0827 -0.005,-0.0546 a 0.05291262,0.05291262 0 0 0 -0.0231,-0.0397 l -0.0992,-0.0661 0,-0.002 0.0843,0.003 a 0.05291262,0.05291262 0 0 0 0.0546,-0.0446 l 0.0116,-0.0727 a 0.05291262,0.05291262 0 0 0 -0.0231,-0.0529 l -0.0331,-0.0215 0.0165,-0.0661 a 0.05291262,0.05291262 0 0 0 -0.0182,-0.0546 l -0.0512,-0.0413 0.0215,-0.21824 a 0.05291262,0.05291262 0 0 0 -0.01,-0.0364 l -0.0463,-0.0628 a 0.05291262,0.05291262 0 0 0 -0.0364,-0.0215 l -0.13227,-0.0165 -0.0231,-0.0976 0.0496,-0.10747 a 0.05291262,0.05291262 0 0 0 -0.005,-0.0529 l -0.0678,-0.0992 0,-0.0645 0.0942,0.124 a 0.05291262,0.05291262 0 0 0 0.0347,0.0198 l 0.0843,0.0116 a 0.05291262,0.05291262 0 0 0 -0.002,0.048 l 0.0546,0.12234 0.01,0.0876 a 0.05291262,0.05291262 0 0 0 0.007,0.0215 l 0.0595,0.0992 a 0.05291262,0.05291262 0 0 0 0.0827,0.01 c 0,0 0.013,-0.0138 0.0265,-0.0298 0.007,-0.008 0.015,-0.0165 0.0215,-0.0265 0.006,-0.01 0.0149,-0.0178 0.0149,-0.0463 0,-0.0121 -4.3e-4,-0.0148 -0.002,-0.0215 -10e-4,-0.007 -0.003,-0.0131 -0.005,-0.0215 -0.004,-0.0168 -0.008,-0.0367 -0.0132,-0.0562 -0.01,-0.0389 -0.0198,-0.0761 -0.0198,-0.0761 a 0.05291262,0.05291262 0 0 0 -0.002,-0.002 l -0.038,-0.1207 0.003,-0.002 0.14385,0.18683 a 0.05291262,0.05291262 0 0 0 0.0231,0.0165 l 0.0364,0.0149 0.005,0.0612 -0.0364,0.1488 -0.002,0.007 -0.0827,0.21494 a 0.05291262,0.05291262 0 0 0 -0.003,0.0149 l -0.0231,0.28768 a 0.05291262,0.05291262 0 0 0 0.002,0.0215 l 0.0777,0.24469 a 0.05291262,0.05291262 0 0 0 0.086,0.0248 l 0.11408,-0.1025 a 0.05291262,0.05291262 0 0 0 0.0149,-0.0215 l 0.0976,-0.26288 a 0.05291262,0.05291262 0 0 0 0.002,-0.0248 l -0.0231,-0.16864 0.0198,-0.22817 0.14549,-0.18683 a 0.05291262,0.05291262 0 0 0 0.01,-0.0198 l 0.0364,-0.15376 a 0.05291262,0.05291262 0 0 0 0.0149,-0.0165 l 0.10581,-0.21328 a 0.05291262,0.05291262 0 0 0 0.005,-0.0281 l -0.0231,-0.25462 a 0.05291262,0.05291262 0 0 0 0,-0.005 0.05291262,0.05291262 0 0 0 -0.008,-0.0248 l -0.11408,-0.37531 a 0.05291262,0.05291262 0 0 0 -0.0298,-0.0347 0.05291262,0.05291262 0 0 0 0.008,0 l 0.0413,0 a 0.05291262,0.05291262 0 0 0 0.0413,-0.0182 l 0.11078,-0.12896 a 0.05291262,0.05291262 0 0 0 0.0116,-0.0264 l 0.0413,-0.24305 0.13889,-0.20501 a 0.05291262,0.05291262 0 0 0 0.003,-0.008 l 0.16368,-0.34224 a 0.05291262,0.05291262 0 0 0 0.003,-0.0116 l 0.0595,-0.29099 a 0.05291262,0.05291262 0 0 0 -0.005,-0.0364 l -0.0281,-0.048 -0.008,-0.48278 a 0.05291262,0.05291262 0 0 0 -0.005,-0.0215 l -0.086,-0.18022 a 0.05291262,0.05291262 0 0 0 -0.0777,-0.0198 l -0.048,0.0347 -0.0265,0.003 0.081,-0.0761 a 0.05291262,0.05291262 0 0 0 0.005,-0.007 l 0.003,0.002 a 0.05291262,0.05291262 0 0 0 0.0364,0.003 l 0.21328,-0.0595 a 0.05291262,0.05291262 0 0 0 0.003,-0.002 l 0.30752,-0.10251 a 0.05291262,0.05291262 0 0 0 0.002,0 l 0.13723,-0.0512 a 0.05291262,0.05291262 0 0 0 0.0132,-0.008 l 0.37531,-0.28107 0.20502,-0.15376 a 0.05291262,0.05291262 0 0 0 0.007,-0.007 l 0.18022,-0.18849 a 0.05291262,0.05291262 0 0 0 -0.0198,-0.086 l -0.22155,-0.0843 a 0.05291262,0.05291262 0 0 0 -0.0595,0.0132 l -0.0645,0.0744 -0.003,0.003 -0.14219,0.13558 -0.40342,0.19509 -0.0942,-0.007 -0.0794,-0.0298 a 0.05291262,0.05291262 0 0 0 -0.0463,0.002 l -0.0595,0.0347 a 0.05291262,0.05291262 0 0 0 -0.0132,0.0116 l -0.0876,0.0992 a 0.05291262,0.05291262 0 0 0 -0.005,-0.0281 l -0.0265,-0.0546 0.20171,-0.18352 0.18848,-0.1703 a 0.05291262,0.05291262 0 0 0 0.003,-0.003 l 0.0694,-0.0744 0.003,0.003 a 0.05291262,0.05291262 0 0 0 0.0579,0.005 l 0.13888,-0.0744 0.26619,-0.0579 a 0.05291262,0.05291262 0 0 0 0.01,-0.003 l 0.40508,-0.16369 a 0.05291262,0.05291262 0 0 0 0.003,0 l 0.15376,-0.0529 a 0.05291262,0.05291262 0 0 0 0.0165,-0.008 l 0.12896,-0.10251 a 0.05291262,0.05291262 0 0 0 0.0116,-0.0132 l 0.0413,-0.0661 0.0347,0.005 a 0.05291262,0.05291262 0 0 0 0.0331,-0.007 l 0.14054,-0.0761 a 0.05291262,0.05291262 0 0 0 0.0198,-0.005 l 0.0926,-0.0446 a 0.05291262,0.05291262 0 0 0 0,0.003 l 0,0.0513 a 0.05291262,0.05291262 0 0 0 0.0843,0.043 l 0.0298,-0.0231 a 0.05291262,0.05291262 0 0 0 0.0198,0.0298 l 0.0595,0.048 a 0.05291262,0.05291262 0 0 0 0.0562,0.007 l 0.11408,-0.0529 0.002,-0.002 0.124,-0.0529 a 0.05291262,0.05291262 0 0 0 0.0132,-0.0893 l -0.0976,-0.0794 a 0.05291262,0.05291262 0 0 0 -0.0331,-0.0116 l -0.0546,0 0.0777,-0.0909 0.18848,-0.0942 0.007,-0.003 0.21659,-0.0744 a 0.05291262,0.05291262 0 0 0 0.0347,-0.0562 l -0.0182,-0.12896 a 0.05291262,0.05291262 0 0 0 -0.002,-0.01 l -0.0512,-0.15376 a 0.05291262,0.05291262 0 0 0 -0.008,-0.0165 l -0.1025,-0.12731 a 0.05291262,0.05291262 0 0 0 -0.0198,-0.0149 l -0.0942,-0.043 a 0.05291262,0.05291262 0 0 0 -0.0265,-0.005 l -0.11077,0.008 a 0.05291262,0.05291262 0 0 0 -0.0331,0.0149 l -0.0265,0.0265 a 0.05291262,0.05291262 0 0 0 -0.005,0.0694 l 0.0513,0.0678 a 0.05291262,0.05291262 0 0 0 0.0694,0.0149 l 0.0463,-0.0265 0.0694,0.0546 0.0298,0.0975 -0.0645,0.0645 -0.0975,0.043 -0.15046,-0.0215 -0.19179,-0.29595 a 0.05291262,0.05291262 0 0 0 -0.005,-0.005 l -0.11904,-0.13723 a 0.05291262,0.05291262 0 0 0 -0.0397,-0.0182 l -0.0942,0 a 0.05291262,0.05291262 0 0 0 -0.0314,0.01 l -0.0182,0.0132 -0.0562,-0.0761 0.008,-0.043 0.002,-0.003 0.12731,-0.26949 a 0.05291262,0.05291262 0 0 0 -0.005,-0.0529 l -0.13392,-0.20502 0.0132,-0.0165 a 0.05291262,0.05291262 0 0 0 0.01,-0.0165 l 0.043,-0.13227 a 0.05291262,0.05291262 0 0 0 0.0165,-0.0298 l 0.0579,-0.33067 a 0.05291262,0.05291262 0 0 0 0.002,-0.008 l 0.008,-0.20832 0.0595,-0.0529 a 0.05291262,0.05291262 0 0 0 0.0149,-0.0546 l -0.043,-0.14219 0.10912,-0.12565 0.0446,0.0397 a 0.05291262,0.05291262 0 0 0 0.0546,0.01 l 0.0678,-0.0248 a 0.05291262,0.05291262 0 0 0 0.008,-0.003 l 0.28272,-0.16368 a 0.05291262,0.05291262 0 0 0 0.0265,-0.0397 l 0.0116,-0.11409 0.11573,-0.0182 a 0.05291262,0.05291262 0 0 0 0.0347,-0.0248 l 0.086,-0.13723 a 0.05291262,0.05291262 0 0 0 0.008,-0.0331 l -0.007,-0.0645 0.0678,0.10582 a 0.05291262,0.05291262 0 0 0 0.0694,0.0198 l 0.0893,-0.048 a 0.05291262,0.05291262 0 0 0 0.0265,-0.0579 l -0.0248,-0.10747 0.0546,0.005 a 0.05291262,0.05291262 0 0 0 0.0562,-0.043 l 0.0248,-0.13393 0.0165,-0.0231 a 0.05291262,0.05291262 0 0 0 0.007,-0.008 l 0.0413,0.043 a 0.05291262,0.05291262 0 0 0 0.0347,0.0149 c 0,0 0.0198,10e-4 0.0413,0 0.0108,-6.7e-4 0.0223,-5.6e-4 0.0364,-0.005 0.007,-0.002 0.0147,-0.005 0.0248,-0.0132 0.0101,-0.008 0.0231,-0.0265 0.0231,-0.0463 0,0.005 0.002,-0.0287 0.005,-0.0529 0.002,-0.0138 0.002,-0.0177 0.003,-0.0265 l 0.0347,-0.0314 a 0.05291262,0.05291262 0 0 0 0.0116,-0.0595 l 0.0546,0 a 0.05291262,0.05291262 0 0 0 0.0397,-0.0182 l 0.25296,-0.28603 0.002,-0.002 0.002,-0.002 0.16864,-0.15211 0.0909,-0.0298 a 0.05291262,0.05291262 0 0 0 0.0314,-0.0298 l 0.11077,-0.248 a 0.05291262,0.05291262 0 0 0 0.005,-0.0215 l 0,-0.10251 a 0.05291262,0.05291262 0 0 0 -0.007,-0.0265 l -0.1207,-0.19675 a 0.05291262,0.05291262 0 0 0 -0.007,-0.008 l -0.10251,-0.11242 a 0.05291262,0.05291262 0 0 0 -0.0413,-0.0165 l -0.1455,0.008 a 0.05291262,0.05291262 0 0 0 -0.0496,0.0512 l -0.0744,-0.0595 -0.008,-0.23147 a 0.05291262,0.05291262 0 0 0 -0.003,-0.0182 l -0.043,-0.10251 a 0.05291262,0.05291262 0 0 0 -0.0496,-0.0331 l -0.27776,0 -0.46625,-1.54423 a 0.05291262,0.05291262 0 0 0 -0.0281,-0.0314 l -0.1025,-0.0513 a 0.05291262,0.05291262 0 0 0 -0.003,-0.002 l -0.31579,-0.12896 a 0.05291262,0.05291262 0 0 0 -0.0149,-0.003 l -0.0777,-0.008 a 0.05291262,0.05291262 0 0 0 -0.005,-0.002 0.05291262,0.05291262 0 0 0 -0.038,0.0165 l -0.0876,0.0876 -0.21328,0.15376 a 0.05291262,0.05291262 0 0 0 -0.0215,0.043 l 0,0.0298 -0.007,0.007 -0.0942,-0.0215 -0.0496,-0.086 0,-0.048 a 0.05291262,0.05291262 0 0 0 -0.0479,-0.0529 l -0.0678,-0.008 a 0.05291262,0.05291262 0 0 0 -0.007,0 l -0.0678,0 a 0.05291262,0.05291262 0 0 0 -0.0479,0.0298 l -0.11077,0.22155 a 0.05291262,0.05291262 0 0 0 -0.003,0.007 l -0.15376,0.46955 0,0.002 -0.0942,0.25462 a 0.05291262,0.05291262 0 0 0 -0.002,0.0198 l 0.008,0.25627 a 0.05291262,0.05291262 0 0 0 0,0.005 l 0.007,0.0661 -0.0364,0.12401 -0.0347,0.043 a 0.05291262,0.05291262 0 0 0 -0.0132,0.0347 l 0,0.31579 a 0.05291262,0.05291262 0 0 0 0.0116,0.0331 l 0.0843,0.10582 -0.0628,0.17856 -0.003,0.007 -0.13392,0.24139 a 0.05291262,0.05291262 0 0 0 -0.005,0.01 l -0.0694,0.23808 a 0.05291262,0.05291262 0 0 0 -0.002,0.0149 l 0,0.0678 -0.0132,-0.003 a 0.05291262,0.05291262 0 0 0 -0.0182,-0.002 l -0.0612,0.005 a 0.05291262,0.05291262 0 0 0 -0.008,-0.002 l -0.048,0 a 0.05291262,0.05291262 0 0 0 -0.005,0 0.05291262,0.05291262 0 0 0 -0.0446,0.0331 l -0.007,0.0182 -0.0265,-0.0265 a 0.05291262,0.05291262 0 0 0 -0.0794,0.005 l -0.0777,0.10251 a 0.05291262,0.05291262 0 0 0 -0.01,0.0314 l -0.003,0.23312 -1.33095,0.33894 a 0.05291262,0.05291262 0 0 0 -0.005,0.002 l -0.0198,0.005 a 0.05291262,0.05291262 0 0 0 -0.005,0.002 l -0.37696,0.10251 a 0.05291262,0.05291262 0 0 0 -0.002,0.002 l -0.23312,0.0744 -0.15872,-0.008 a 0.05291262,0.05291262 0 0 0 -0.0149,0 l -0.29099,0.0694 a 0.05291262,0.05291262 0 0 0 -0.008,0.002 l -0.16203,0.0661 a 0.05291262,0.05291262 0 0 0 -0.0132,0.007 l -0.1273,0.0975 a 0.05291262,0.05291262 0 0 0 -0.008,0.007 l -0.11077,0.12896 a 0.05291262,0.05291262 0 0 0 -0.003,0.003 l -0.14384,0.19674 a 0.05291262,0.05291262 0 0 0 -0.003,0.003 l -0.15376,0.23808 a 0.05291262,0.05291262 0 0 0 -0.002,0.005 l -0.0777,0.15377 -0.0232,0.0281 -0.30752,0.29099 a 0.05291262,0.05291262 0 0 0 -0.0165,0.043 l 0.008,0.13558 a 0.05291262,0.05291262 0 0 0 0.01,0.0281 l 0.043,0.0595 a 0.05291262,0.05291262 0 0 0 0.0198,0.0182 l 0.0942,0.043 a 0.05291262,0.05291262 0 0 0 0.0231,0.003 l 0.0413,0 0,0.01 -0.0546,0.10086 a 0.05291262,0.05291262 0 0 0 -0.005,0.0364 l 0.0165,0.0777 a 0.05291262,0.05291262 0 0 0 0.008,0.0182 l 0.0661,0.0942 -0.005,0.0761 -0.0661,0.038 -0.0959,0 a 0.05291262,0.05291262 0 0 0 -0.0413,0.0182 l -0.086,0.1025 a 0.05291262,0.05291262 0 0 0 -0.005,0.008 l -0.0893,0.16203 -0.0909,0.0777 -0.25792,0.0248 a 0.05291262,0.05291262 0 0 0 -0.0165,0.003 l -0.13557,0.0595 a 0.05291262,0.05291262 0 0 0 -0.007,0.005 l -0.0959,0.0579 -0.0546,-0.005 -0.0926,-0.0612 a 0.05291262,0.05291262 0 0 0 -0.0298,-0.008 l -0.33398,0.008 a 0.05291262,0.05291262 0 0 0 -0.007,0 l -0.17195,0.0265 a 0.05291262,0.05291262 0 0 0 -0.008,0.002 l -0.21328,0.0678 -0.23147,0.0777 a 0.05291262,0.05291262 0 0 0 -0.01,0.005 l -0.15541,0.0942 a 0.05291262,0.05291262 0 0 0 -0.0215,0.0612 l 0.10251,0.32405 a 0.05291262,0.05291262 0 0 0 0.0446,0.038 l 0.0645,0.005 0.0529,0.12896 0.002,0.0149 -0.0364,0.0314 a 0.05291262,0.05291262 0 0 0 -0.008,0.008 l -0.11077,0.1455 a 0.05291262,0.05291262 0 0 0 -0.008,0.0165 l -0.0215,0.0711 -0.086,0.0794 -0.007,0.005 -0.086,0.0546 a 0.05291262,0.05291262 0 0 0 -0.0182,0.0182 l -0.0496,0.081 -0.0579,0.0496 -0.002,0.002 -0.0645,0.0513 a 0.05291262,0.05291262 0 0 0 -0.0116,0.008 l -0.2728,0.26123 -0.0612,0.0215 a 0.05291262,0.05291262 0 0 0 -0.0116,0.007 l -0.21163,0.15211 a 0.05291262,0.05291262 0 0 0 -0.0116,0.005 l -0.32075,0.21328 -0.002,0.002 -0.20337,0.11738 a 0.05291262,0.05291262 0 0 0 -0.0132,0.0116 l -0.17691,0.19344 -0.20337,0.1951 -0.15376,0.0397 -0.003,0 -0.15046,0.0248 a 0.05291262,0.05291262 0 0 0 -0.0132,0.005 l -0.28603,0.13392 -0.0744,0.005 -0.16368,-0.14715 a 0.05291262,0.05291262 0 0 0 -0.0413,-0.0132 l -0.25793,0.0314 -0.12069,-0.0678 -0.12566,-0.0727 a 0.05291262,0.05291262 0 0 0 -0.0331,-0.005 l -0.19014,0.0265 0.10086,-0.17525 0.0975,-0.0843 a 0.05291262,0.05291262 0 0 0 0.0182,-0.043 l -0.01,-0.2447 0.0562,-0.0579 0.0463,-0.0149 a 0.05291262,0.05291262 0 0 0 0.038,-0.0463 l 0.0116,-0.17856 0.0446,-0.086 a 0.05291262,0.05291262 0 0 0 0.0364,0.0314 l 0.043,0.008 a 0.05291262,0.05291262 0 0 0 0.0347,-0.005 l 0.10251,-0.0513 a 0.05291262,0.05291262 0 0 0 0.0298,-0.0496 l -0.0182,-0.50427 a 0.05291262,0.05291262 0 0 0 -0.003,-0.0182 l -0.002,-0.002 a 0.05291262,0.05291262 0 0 0 -0.002,-0.005 l -0.16534,-0.42326 0,-0.002 -0.002,-0.003 -0.11739,-0.47286 a 0.05291262,0.05291262 0 0 0 -0.01,-0.0198 l -0.12896,-0.17029 a 0.05291262,0.05291262 0 0 0 -0.0116,-0.0116 l -0.13723,-0.0942 a 0.05291262,0.05291262 0 0 0 -0.0595,0 l -0.0777,0.0546 -0.008,0.005 -0.19675,0.0893 a 0.05291262,0.05291262 0 0 0 -0.0281,0.0298 l -0.10086,0.25958 -0.13392,0.18021 -0.0248,0.0165 -0.0496,-0.0215 c 0,0 -0.005,-0.003 -0.005,-0.003 -0.005,-0.003 -0.0301,-0.0166 -0.0579,-0.0364 -0.0151,-0.0107 -0.0289,-0.0236 -0.0364,-0.0314 0.002,-0.0133 0.003,-0.0255 0.005,-0.0446 0.003,-0.0271 0.006,-0.0597 0.008,-0.0909 0.004,-0.0444 0.005,-0.0654 0.007,-0.086 l 0.1488,-0.0562 a 0.05291262,0.05291262 0 0 0 0.0331,-0.038 l 0.043,-0.17856 0,-0.002 0.0298,-0.11573 0.11077,-0.0744 a 0.05291262,0.05291262 0 0 0 0.0232,-0.0463 l -0.0165,-0.52907 a 0.05291262,0.05291262 0 0 0 -0.01,-0.0298 l -0.086,-0.11904 a 0.05291262,0.05291262 0 0 0 -0.0149,-0.0149 l -0.0529,-0.0331 -0.0231,-0.0595 0.0546,0.01 a 0.05291262,0.05291262 0 0 0 0.0628,-0.0463 l 0.008,-0.086 a 0.05291262,0.05291262 0 0 0 -0.0165,-0.043 l -0.11905,-0.11409 -0.0661,-0.12896 a 0.05291262,0.05291262 0 0 0 -0.0463,-0.0281 l -0.12566,0 -0.22816,-0.0728 -0.28603,-0.17691 a 0.05291262,0.05291262 0 0 0 -0.0281,-0.007 l -0.14549,0 a 0.05291262,0.05291262 0 0 0 -0.0364,0.0149 l -0.007,0.007 -0.0182,-0.008 -0.15541,-0.11408 a 0.05291262,0.05291262 0 0 0 -0.0347,-0.0116 0.05291262,0.05291262 0 0 0 -0.0248,0.008 l -0.15377,0.0943 a 0.05291262,0.05291262 0 0 0 -0.005,0.003 l -0.15376,0.11904 a 0.05291262,0.05291262 0 0 0 -0.0198,0.048 l 0.0165,0.18683 a 0.05291262,0.05291262 0 0 0 0.0364,0.0463 l 0.0513,0.0165 a 0.05291262,0.05291262 0 0 0 0.005,0.002 l 0.0165,0.003 -0.0116,0.003 -0.13557,0.0182 a 0.05291262,0.05291262 0 0 0 -0.0347,0.0182 l -0.0777,0.0942 a 0.05291262,0.05291262 0 0 0 -0.0116,0.0248 l -0.0116,0.0827 -0.043,-0.043 a 0.05291262,0.05291262 0 0 0 -0.0579,-0.0116 l -0.10251,0.043 a 0.05291262,0.05291262 0 0 0 -0.0314,0.0364 l -0.0446,0.19509 -0.1207,0.0513 a 0.05291262,0.05291262 0 0 0 -0.0198,0.0132 l -0.0942,0.10251 a 0.05291262,0.05291262 0 0 0 -0.0132,0.0265 l -0.008,0.0512 a 0.05291262,0.05291262 0 0 0 0.0116,0.0413 l 0.0182,0.0231 -0.0198,0.0794 -0.0876,0.0182 a 0.05291262,0.05291262 0 0 0 -0.043,0.0529 l 0,0.0595 a 0.05291262,0.05291262 0 0 0 0.003,0.0165 l 0.0397,0.11574 -0.0562,0.30091 -0.0843,0.21328 a 0.05291262,0.05291262 0 0 0 -0.003,0.0281 l 0.0331,0.248 a 0.05291262,0.05291262 0 0 0 0.005,0.0132 l 0.0165,0.0397 -0.0347,0.10746 -0.002,0.003 -0.0149,0.0397 a 0.05291262,0.05291262 0 0 0 -0.003,0.0132 l -0.0182,0.14549 a 0.05291262,0.05291262 0 0 0 0.008,0.0331 l 0.18683,0.31744 0.002,0 0.14715,0.32902 0.0744,0.2447 -0.0413,0.23643 -0.0496,0.31083 -0.12565,0.26619 a 0.05291262,0.05291262 0 0 0 -0.005,0.0165 l -0.0149,0.12566 -0.1488,0.14053 -0.14219,0.0827 a 0.05291262,0.05291262 0 0 0 -0.01,0.007 l -0.10086,0.0942 -0.0248,0.008 -0.0562,-0.038 a 0.05291262,0.05291262 0 0 0 -0.0149,-0.007 l -0.15211,-0.0446 -0.002,-0.005 a 0.05291262,0.05291262 0 0 0 0,-0.002 l -0.043,-0.13723 a 0.05291262,0.05291262 0 0 0 -0.002,-0.002 l -0.0678,-0.19674 a 0.05291262,0.05291262 0 0 0 -0.01,-0.0182 l -0.0827,-0.0909 -0.003,-0.003 -0.0628,-0.11408 -0.0132,-0.26123 a 0.05291262,0.05291262 0 0 0 0.003,-0.0165 l 0,-0.005 -0.003,-0.16203 a 0.05291262,0.05291262 0 0 0 -0.002,-0.0132 l -0.0612,-0.23147 0,-0.003 -0.002,-0.005 -0.0331,-0.31744 a 0.05291262,0.05291262 0 0 0 -0.005,-0.0165 l -0.0496,-0.10746 0.0446,-0.14385 a 0.05291262,0.05291262 0 0 0 0,-0.002 l 0.0413,-0.14715 0.0744,-0.13227 a 0.05291262,0.05291262 0 0 0 0.005,-0.0364 l -0.0347,-0.17856 0,-0.002 -0.0314,-0.17691 0.0198,-0.0694 0.0959,-0.12069 a 0.05291262,0.05291262 0 0 0 0.0116,-0.0298 l 0.008,-0.1455 a 0.05291262,0.05291262 0 0 0 -0.008,-0.0314 l -0.0314,-0.048 0.0298,-0.11573 a 0.05291262,0.05291262 0 0 0 0.002,-0.0182 l -0.0231,-0.20502 0.13889,-0.28768 a 0.05291262,0.05291262 0 0 0 0.002,-0.002 l 0.15376,-0.35878 a 0.05291262,0.05291262 0 0 0 0.003,-0.0182 l 0.01,-0.11904 a 0.05291262,0.05291262 0 0 0 -0.003,-0.0198 l -0.0165,-0.0512 a 0.05291262,0.05291262 0 0 0 -0.0777,-0.0298 l -0.043,0.0265 a 0.05291262,0.05291262 0 0 0 -0.0165,0.0165 l -0.2232,0.33233 -0.14384,0.21163 -0.002,0.002 -0.0942,0.086 a 0.05291262,0.05291262 0 0 0 -0.0132,0.0198 l -0.0347,0.0975 -0.0827,0.0347 a 0.05291262,0.05291262 0 0 0 -0.0248,0.0215 l -0.0397,0.0694 -0.002,0 -0.005,-0.0397 0.0612,-0.11408 a 0.05291262,0.05291262 0 0 0 0.002,-0.003 l 0.10581,-0.23808 0.0876,-0.0777 a 0.05291262,0.05291262 0 0 0 0.0132,-0.0198 l 0.043,-0.10416 a 0.05291262,0.05291262 0 0 0 0.008,-0.0132 l 0.16699,-0.37035 a 0.05291262,0.05291262 0 0 0 0.003,-0.008 l 0.0496,-0.20501 0.0827,-0.18849 0.0298,0.043 a 0.05291262,0.05291262 0 0 0 0.043,0.0231 l 0.0347,0 a 0.05291262,0.05291262 0 0 0 0.0248,-0.007 l 0.20337,-0.10913 0.0496,0.0546 a 0.05291262,0.05291262 0 0 0 0.0215,0.0149 l 0.0264,0.008 a 0.05291262,0.05291262 0 0 0 0.0513,-0.01 l 0.0694,-0.0595 a 0.05291262,0.05291262 0 0 0 0.0132,-0.0215 l 0.0529,-0.13888 0.0992,-0.0331 0.003,-0.002 0.35713,-0.0314 a 0.05291262,0.05291262 0 0 0 0.0364,-0.0215 l 0.0876,-0.11574 0.24304,-0.008 0.30091,0.0678 a 0.05291262,0.05291262 0 0 0 0.0116,0 l 0.0926,0 a 0.05291262,0.05291262 0 0 0 0.0231,-0.003 l 0.15707,-0.0711 0.10747,0.007 a 0.05291262,0.05291262 0 0 0 0.0198,-0.002 l 0.10085,-0.0314 0.17856,0.0248 0.005,0 0.0314,0.0132 a 0.05291262,0.05291262 0 0 0 0.0314,0.002 l 0.0661,-0.0149 a 0.05291262,0.05291262 0 0 0 0.038,0.0215 l 0.17195,0.008 a 0.05291262,0.05291262 0 0 0 0.038,-0.0149 l 0.0694,-0.0645 a 0.05291262,0.05291262 0 0 0 0.0165,-0.0413 c 0,0 -10e-4,-0.021 -0.005,-0.0446 -0.002,-0.0118 -0.004,-0.0248 -0.008,-0.038 -0.004,-0.0132 -0.006,-0.0304 -0.038,-0.0463 0.0162,0.008 0.003,1.1e-4 -0.005,-0.008 -0.008,-0.008 -0.0172,-0.0201 -0.0265,-0.0314 -0.0185,-0.0226 -0.0347,-0.0446 -0.0347,-0.0446 a 0.05291262,0.05291262 0 0 0 -0.0479,-0.0198 l -0.11574,0.0132 -0.086,0.008 a 0.05291262,0.05291262 0 0 0 -0.0446,0.038 l -0.0182,0.0595 a 0.05291262,0.05291262 0 0 0 0.002,0.0331 l -0.0231,-0.0116 -0.14715,-0.13888 0,-0.34721 a 0.05291262,0.05291262 0 0 0 -0.0364,-0.0496 l -0.0777,-0.0265 a 0.05291262,0.05291262 0 0 0 -0.0546,0.0132 l -0.0513,0.0513 -0.30917,0.081 -0.0876,0.0215 -0.12731,-0.0347 0,-0.2695 a 0.05291262,0.05291262 0 0 0 -0.0479,-0.0529 l -0.0777,-0.008 a 0.05291262,0.05291262 0 0 0 -0.0281,0.005 l -0.13392,0.0678 -0.003,0.002 -0.22651,0.0959 -0.34225,0.0182 a 0.05291262,0.05291262 0 0 0 -0.0149,0.002 l -0.18021,0.0595 a 0.05291262,0.05291262 0 0 0 -0.0182,0.0116 l -0.20501,0.18187 -0.002,0.002 -0.0727,0.043 -0.0446,0 a 0.05291262,0.05291262 0 0 0 -0.0281,0.008 l -0.048,0.0298 -0.0529,-0.0165 -0.0777,-0.0612 a 0.05291262,0.05291262 0 0 0 -0.0612,-0.003 l -0.0661,0.043 -0.16699,0.007 -0.1207,-0.1207 -0.0744,-0.15541 a 0.05291262,0.05291262 0 0 0 -0.0149,-0.0198 l -0.0777,-0.0595 a 0.05291262,0.05291262 0 0 0 -0.0165,-0.008 l -0.17195,-0.0512 a 0.05291262,0.05291262 0 0 0 -0.0149,-0.003 l -0.0992,0 -0.0512,-0.0529 a 0.05291262,0.05291262 0 0 0 -0.0711,-0.003 l -0.18517,0.15211 0.005,-0.0397 0.11904,-0.15872 a 0.05291262,0.05291262 0 0 0 0.01,-0.0215 l 0.0198,-0.0992 0.0909,-0.0331 a 0.05291262,0.05291262 0 0 0 0.0314,-0.0264 l 0.0661,-0.14054 0.17195,-0.0446 a 0.05291262,0.05291262 0 0 0 0.038,-0.0347 l 0.0165,-0.0513 a 0.05291262,0.05291262 0 0 0 -0.0132,-0.0546 l -0.0595,-0.0595 a 0.05291262,0.05291262 0 0 0 -0.043,-0.0149 l -0.24801,0.0248 a 0.05291262,0.05291262 0 0 0 -0.0198,0.007 l -0.23147,0.12896 a 0.05291262,0.05291262 0 0 0 -0.0116,0.008 l -0.11904,0.11904 a 0.05291262,0.05291262 0 0 0 -0.007,0.007 l -0.0612,0.0843 -0.0794,0.0364 a 0.05291262,0.05291262 0 0 0 -0.0231,0.0182 l -0.1025,0.15376 a 0.05291262,0.05291262 0 0 0 -0.008,0.0232 l -0.005,0.0413 -0.20502,0.0976 a 0.05291262,0.05291262 0 0 0 -0.01,0.007 l -0.11739,0.0926 -0.30256,0.0496 a 0.05291262,0.05291262 0 0 0 -0.0298,0.0149 l -0.0331,0.0347 a 0.05291262,0.05291262 0 0 0 -0.0165,0.0364 l 0,0.0231 -0.15542,0.0992 -0.14053,0.0413 a 0.05291262,0.05291262 0 0 0 -0.0182,0.01 l -0.038,0.0298 a 0.05291262,0.05291262 0 0 0 -0.003,0.003 l -0.0182,0.0132 -0.0165,-0.002 -0.0198,-0.0364 a 0.05291262,0.05291262 0 0 0 -0.0579,-0.0265 l -0.0661,0.0149 -0.0595,0.008 a 0.05291262,0.05291262 0 0 0 -0.0182,0.007 l -0.0546,0.0298 0.0132,-0.0413 0.002,-0.003 0.0976,-0.15376 0.003,-0.005 0.0529,-0.0512 a 0.05291262,0.05291262 0 0 0 -0.007,-0.0794 l -0.10251,-0.0761 a 0.05291262,0.05291262 0 0 0 -0.0347,-0.0116 0.05291262,0.05291262 0 0 0 -0.0149,0.003 l -0.11243,0.043 a 0.05291262,0.05291262 0 0 0 -0.01,0.007 l -0.1455,0.0975 -0.002,0.002 -0.38192,0.16533 -0.005,0.002 -0.14054,0.0314 -0.11408,-0.0215 0.17691,-0.11243 0.0546,-0.007 a 0.05291262,0.05291262 0 0 0 0.0331,-0.0165 l 0.22981,-0.25627 0.086,-0.0397 a 0.05291262,0.05291262 0 0 0 0.0231,-0.0215 l 0.11905,-0.20171 0.002,-0.003 0.12069,-0.17691 0.15377,-0.13061 0.24304,-0.10086 a 0.05291262,0.05291262 0 0 0 0.002,-0.002 l 0.48774,-0.21494 a 0.05291262,0.05291262 0 0 0 0.002,0 l 0.20833,-0.0975 a 0.05291262,0.05291262 0 0 0 0.0132,-0.008 0.05291262,0.05291262 0 0 0 0.0116,0.0116 l 0.0843,0.0612 a 0.05291262,0.05291262 0 0 0 0.0529,0.005 l 0.10912,-0.048 a 0.05291262,0.05291262 0 0 0 0.005,-0.003 l 0.17525,-0.1025 a 0.05291262,0.05291262 0 0 0 0.01,-0.008 l 0.27281,-0.27115 a 0.05291262,0.05291262 0 0 0 0,-0.0761 l -0.0248,-0.0231 a 0.05291262,0.05291262 0 0 0 -0.043,-0.0165 0.05291262,0.05291262 0 0 0 -0.007,0.002 l -0.1207,0.0314 a 0.05291262,0.05291262 0 0 0 -0.0182,0.008 l -0.27941,0.20171 -0.10747,0.0397 a 0.05291262,0.05291262 0 0 0 -0.0215,0.0132 l -0.0612,0.0711 0.01,-0.0413 a 0.05291262,0.05291262 0 0 0 -0.0546,-0.0661 l -0.23643,0.0182 a 0.05291262,0.05291262 0 0 0 -0.0397,0.0248 l -0.008,0.0132 -0.0678,-0.11573 a 0.05291262,0.05291262 0 0 0 -0.0463,-0.0265 l -0.4712,0.0165 a 0.05291262,0.05291262 0 0 0 -0.0314,0.0116 l -0.0331,0.0281 -0.0116,-0.0314 a 0.05291262,0.05291262 0 0 0 -0.002,-0.003 l -0.043,-0.0942 a 0.05291262,0.05291262 0 0 0 -0.0579,-0.0298 l -0.13722,0.0265 a 0.05291262,0.05291262 0 0 0 -0.0281,0.0149 l -0.16368,0.16368 -0.0694,0.0347 -0.13723,0 -0.0942,-0.0347 0,-0.0761 a 0.05291262,0.05291262 0 0 0 -0.0463,-0.0529 l -0.0694,-0.008 a 0.05291262,0.05291262 0 0 0 -0.043,0.0149 l -0.0777,-0.038 -0.0215,-0.12896 a 0.05291262,0.05291262 0 0 0 -0.0694,-0.0413 l -0.0761,0.0248 a 0.05291262,0.05291262 0 0 0 -0.0314,0.0265 l -0.007,0.0149 -0.081,-0.0149 -0.27115,-0.12235 -0.005,-0.003 -0.003,-0.002 -0.19675,-0.13227 a 0.05291262,0.05291262 0 0 0 -0.0298,-0.008 l -0.13557,0 -0.0546,-0.0413 a 0.05291262,0.05291262 0 0 0 -0.0463,-0.008 l -0.12069,0.0347 a 0.05291262,0.05291262 0 0 0 -0.0231,0.0132 l -0.0595,0.0595 a 0.05291262,0.05291262 0 0 0 -0.0132,0.0248 l -0.008,0.0281 -0.16202,0 0,-0.0579 a 0.05291262,0.05291262 0 0 0 -0.0496,-0.0529 l -0.2943,-0.0165 -0.008,-0.0364 a 0.05291262,0.05291262 0 0 0 -0.0513,-0.0413 l -0.23313,0 -0.0612,-0.0612 -0.0728,-0.30918 -0.0413,-0.28603 a 0.05291262,0.05291262 0 0 0 -0.0331,-0.0413 l -0.10251,-0.043 a 0.05291262,0.05291262 0 0 0 -0.01,-0.003 l -0.11904,-0.0248 a 0.05291262,0.05291262 0 0 0 -0.0149,-0.002 0.05291262,0.05291262 0 0 0 -0.008,0.002 l -0.0347,0.008 a 0.05291262,0.05291262 0 0 0 -0.0397,0.0496 l -0.0165,0.38523 -1.54093,-0.002 a 0.05291262,0.05291262 0 0 0 -0.002,0 0.05291262,0.05291262 0 0 0 -0.003,0 0.05291262,0.05291262 0 0 0 -0.002,0 l -1.51447,-0.0298 -0.98209,-0.0331 -0.002,0 -1.39873,-0.0694 -0.003,0 -1.20199,-0.11077 a 0.05291262,0.05291262 0 0 0 -0.003,-0.002 l -0.002,0 a 0.05291262,0.05291262 0 0 0 -0.01,-0.002 l -1.62029,-0.1488 -0.002,0 -1.54589,-0.18849 -0.002,0 -1.54423,-0.21328 -0.002,0 -1.70957,-0.28272 -0.97218,-0.17856 -0.002,0 -1.73106,-0.36705 a 0.05291262,0.05291262 0 0 0 -0.01,-0.002 l -0.68614,-0.12731 a 0.05291262,0.05291262 0 0 0 -0.0232,-0.01 l -0.80518,-0.1703 0,0.002 -1.21026,-0.29926 -0.002,0 -1.0598,-0.29926 a 0.05291262,0.05291262 0 0 0 -0.003,-0.002 l -0.44971,-0.10085 -0.003,-0.002 -0.50758,-0.14384 -0.002,0 -0.22155,-0.0727 a 0.05291262,0.05291262 0 0 0 -0.002,-0.002 l -0.003,-0.002 a 0.05291262,0.05291262 0 0 0 -0.003,0 0.05291262,0.05291262 0 0 0 -0.0231,-0.003 z m -0.28438,0.2943 a 0.05291262,0.05291262 0 0 0 -0.0331,0.0165 l -0.0231,0.0231 a 0.05291262,0.05291262 0 0 0 -0.0496,-0.0265 l -0.10747,0.008 a 0.05291262,0.05291262 0 0 0 -0.0479,0.0628 l 0.0265,0.13392 a 0.05291262,0.05291262 0 0 0 0.008,0.0198 l 0.081,0.11904 a 0.05291262,0.05291262 0 0 0 0.0612,0.0198 c -3.2e-4,0.003 -0.002,0.002 -0.002,0.007 0,0.0143 0.005,0.03 0.0132,0.0397 0.008,0.01 0.0178,0.0133 0.0248,0.0165 0.0141,0.006 0.024,0.007 0.0331,0.008 0.0181,0.002 0.0331,0 0.0331,0 a 0.05291262,0.05291262 0 0 0 0.01,-0.002 l 0.0727,-0.0215 a 0.05291262,0.05291262 0 0 0 0.0347,-0.0331 l 0.038,-0.10581 a 0.05291262,0.05291262 0 0 0 -0.008,-0.0513 l -0.007,-0.008 0.0529,-0.0562 a 0.05291262,0.05291262 0 0 0 0.007,-0.0595 l -0.043,-0.081 a 0.05291262,0.05291262 0 0 0 -0.0463,-0.0298 l -0.124,0 a 0.05291262,0.05291262 0 0 0 -0.005,0 z m 0.28272,0.61835 0.002,0.003 -0.0331,0.0727 a 0.05291262,0.05291262 0 0 0 -0.003,0.0298 l 0.0132,0.0909 -0.0165,-0.0347 a 0.05291262,0.05291262 0 0 0 -0.0132,-0.0198 l -0.0711,-0.0579 0.007,-0.0446 0.0843,-0.0182 a 0.05291262,0.05291262 0 0 0 0.0314,-0.0215 z m 42.28453,4.19621 0.0678,0.124 a 0.05291262,0.05291262 0 0 0 0.0579,0.0248 l 0.0265,-0.005 0.003,0.0116 0,0.0298 -0.002,-0.002 a 0.05291262,0.05291262 0 0 0 -0.0694,0.005 l -0.0727,0.0727 -0.007,-0.0479 0.0331,-0.0529 a 0.05291262,0.05291262 0 0 0 0.007,-0.043 l -0.0165,-0.0595 a 0.05291262,0.05291262 0 0 0 -0.0116,-0.0215 l -0.0265,-0.0298 0.01,-0.007 z m -13.55254,1.77075 0.008,0.038 0.0149,0.25958 -0.11408,0.0678 0,-0.14715 0.0612,-0.11574 a 0.05291262,0.05291262 0 0 0 0.005,-0.0116 l 0.0248,-0.0909 z m 12.93915,1.66327 0.0231,0.0843 -0.0165,0.0612 -0.0893,0.0546 a 0.05291262,0.05291262 0 0 0 -0.002,-0.0149 l -0.0215,-0.10086 0.0248,-0.0446 0.081,-0.0397 z m 0.66299,0.0942 a 0.05291262,0.05291262 0 0 0 -0.0413,0.0397 l -0.0165,0.0612 -0.0876,0.0281 a 0.05291262,0.05291262 0 0 0 -0.0248,0.0182 l -0.0248,0.0298 a 0.05291262,0.05291262 0 0 0 0.043,0.086 l 0.20501,-0.007 a 0.05291262,0.05291262 0 0 0 0.0165,-0.003 l 0.0678,-0.0231 a 0.05291262,0.05291262 0 0 0 0.0298,-0.0727 l -0.0546,-0.1207 a 0.05291262,0.05291262 0 0 0 -0.043,-0.0298 l -0.0546,-0.007 a 0.05291262,0.05291262 0 0 0 -0.0149,0 z m -3.725,3.55967 0.11904,0.0562 a 0.05291262,0.05291262 0 0 0 0.0149,0.003 l 0.1736,0.0281 0.002,0.0149 -0.0281,0.0331 a 0.05291262,0.05291262 0 0 0 -0.0132,0.0413 l 0.0182,0.1455 a 0.05291262,0.05291262 0 0 0 0.0331,0.043 0.05291262,0.05291262 0 0 0 -0.0331,0.005 l -0.0231,0.0116 -0.15045,-0.10251 -0.086,-0.22982 a 0.05291262,0.05291262 0 0 0 -0.003,-0.007 l -0.0231,-0.043 z m -0.78204,0.002 -0.0546,0.15872 a 0.05291262,0.05291262 0 0 0 -0.002,0.0331 l 0.0182,0.0595 a 0.05291262,0.05291262 0 0 0 0.0413,0.038 l 0.0529,0.01 0.0198,0.21163 -0.0777,0.0364 a 0.05291262,0.05291262 0 0 0 -0.0298,0.0529 l 0.0165,0.18849 a 0.05291262,0.05291262 0 0 0 0.0694,0.0446 l 0.0165,-0.005 a 0.05291262,0.05291262 0 0 0 0,0.002 l -0.0182,0.18021 a 0.05291262,0.05291262 0 0 0 0,0.01 l -0.081,-0.0711 -0.1025,-0.26288 0.0661,-0.26619 a 0.05291262,0.05291262 0 0 0 0.002,-0.0165 l -0.008,-0.11077 a 0.05291262,0.05291262 0 0 0 -0.0165,-0.0331 l -0.0347,-0.0347 c 0.005,-0.006 0.005,-0.005 0.01,-0.0116 0.0105,-0.014 0.0207,-0.0302 0.0298,-0.0463 0.009,-0.0161 0.0198,-0.0311 0.0198,-0.0595 0,-0.004 0.004,-0.0326 0.01,-0.0546 0.003,-0.0118 0.004,-0.0142 0.007,-0.0215 l 0.0463,-0.0314 z m -40.06407,5.27254 a 0.05291262,0.05291262 0 0 0 -0.0198,0.007 l -0.0645,0.0347 a 0.05291262,0.05291262 0 0 0 -0.0248,0.0265 l -0.0132,-0.0149 a 0.05291262,0.05291262 0 0 0 -0.0413,-0.0182 0.05291262,0.05291262 0 0 0 -0.005,0 l -0.17029,0.003 a 0.05291262,0.05291262 0 0 0 -0.048,0.0744 l 0.0347,0.0777 a 0.05291262,0.05291262 0 0 0 0,0.002 l 0.0298,0.0628 a 0.05291262,0.05291262 0 0 0 0.048,0.0314 l 0.17029,0.003 a 0.05291262,0.05291262 0 0 0 0.0546,-0.0463 l 0.003,-0.0331 0.0777,0.0777 a 0.05291262,0.05291262 0 0 0 0.0347,0.0149 l 0.23974,0.0132 a 0.05291262,0.05291262 0 0 0 0.0331,-0.01 l 0.048,-0.0347 a 0.05291262,0.05291262 0 0 0 -0.0132,-0.0926 l -0.15376,-0.0595 -0.18848,-0.11077 a 0.05291262,0.05291262 0 0 0 -0.0314,-0.008 z m 1.08294,1.0102 -0.0562,0.008 a 0.05291262,0.05291262 0 0 0 -0.0446,0.0529 l 0,0.0645 a 0.05291262,0.05291262 0 0 0 0.01,0.0314 l 0.0942,0.124 a 0.05291262,0.05291262 0 0 0 0.002,0.002 l 0.043,0.0513 a 0.05291262,0.05291262 0 0 0 0.0231,0.0165 l 0.081,0.0298 a 0.05291262,0.05291262 0 0 0 0.0678,-0.0314 l 0.0298,-0.0761 a 0.05291262,0.05291262 0 0 0 -0.003,-0.0446 l -0.0512,-0.0942 a 0.05291262,0.05291262 0 0 0 -0.0149,-0.0165 l -0.14054,-0.10747 a 0.05291262,0.05291262 0 0 0 -0.0397,-0.01 z m -0.12731,0.52907 a 0.05291262,0.05291262 0 0 0 -0.007,0.002 0.05291262,0.05291262 0 0 0 -0.008,0.002 l -0.0165,0.002 a 0.05291262,0.05291262 0 0 0 -0.0446,0.0529 l 0,0.11574 c 0,0.0212 0.004,0.0291 0.008,0.0413 0.004,0.0123 0.01,0.0247 0.0149,0.0364 0.0103,0.0234 0.0215,0.0446 0.0215,0.0446 a 0.05291262,0.05291262 0 0 0 0.01,0.0149 l 0.0694,0.0628 a 0.05291262,0.05291262 0 0 0 0.0446,0.0149 l 0.0761,-0.0132 a 0.05291262,0.05291262 0 0 0 0.0364,-0.081 l -0.0628,-0.0992 -0.002,-0.003 -0.0926,-0.16368 a 0.05291262,0.05291262 0 0 0 -0.048,-0.0281 z m 20.38917,8.21883 -0.0661,0.10251 a 0.05291262,0.05291262 0 0 0 -0.003,0.007 l -0.0248,0.0496 a 0.05291262,0.05291262 0 0 0 -0.0165,-0.0281 l -0.0893,-0.0761 0.0198,-0.0397 0.18022,-0.0149 z m -0.32241,1.04161 0.0165,0.1984 -0.0347,-0.0992 0.0182,-0.0992 z m 0.0678,0.39515 0.0992,0.25958 0.0231,0.28438 -0.0231,-0.0364 -0.0496,-0.31083 a 0.05291262,0.05291262 0 0 0 0,-0.005 l -0.0496,-0.19179 z m 17.00805,0.91431 a 0.05291262,0.05291262 0 0 0 -0.0215,0.008 l -0.124,0.086 a 0.05291262,0.05291262 0 0 0 -0.0149,0.0165 l -0.0645,0.10416 -0.0463,0.008 a 0.05291262,0.05291262 0 0 0 -0.003,0 l -0.12897,0.0347 a 0.05291262,0.05291262 0 0 0 -0.0231,0.0893 l 0.0463,0.0463 a 0.05291262,0.05291262 0 0 0 0.0628,0.01 l 0.11573,-0.0612 0.005,-0.002 0.003,-0.002 0.21494,-0.0744 0.18352,-0.0628 a 0.05291262,0.05291262 0 0 0 0.0314,-0.0695 l -0.0198,-0.0562 a 0.05291262,0.05291262 0 0 0 -0.0397,-0.0331 l -0.081,-0.0149 -0.0694,-0.0248 a 0.05291262,0.05291262 0 0 0 -0.0265,-0.003 z"
       id="FL"
       inkscape:connector-curvature="0" />
  </g>
</svg>
