<?xml version="1.0" encoding="UTF-8" standalone="no"?>
<!-- Created with Inkscape (http://www.inkscape.org/) -->

<svg
   xmlns:dc="http://purl.org/dc/elements/1.1/"
   xmlns:cc="http://creativecommons.org/ns#"
   xmlns:rdf="http://www.w3.org/1999/02/22-rdf-syntax-ns#"
   xmlns:svg="http://www.w3.org/2000/svg"
   xmlns="http://www.w3.org/2000/svg"
   xmlns:sodipodi="http://sodipodi.sourceforge.net/DTD/sodipodi-0.dtd"
   xmlns:inkscape="http://www.inkscape.org/namespaces/inkscape"
   width="64px"
   height="64px"
   id="svg2985"
   version="1.1"
   inkscape:version="0.48.5 r10040"
   sodipodi:docname="bbj.svg">
  <defs
     id="defs2987" />
  <sodipodi:namedview
     id="base"
     pagecolor="#ffffff"
     bordercolor="#666666"
     borderopacity="1.0"
     inkscape:pageopacity="0.0"
     inkscape:pageshadow="2"
     inkscape:zoom="1.7752101"
     inkscape:cx="-62.451646"
     inkscape:cy="39.090912"
     inkscape:current-layer="layer1"
     showgrid="true"
     inkscape:document-units="px"
     inkscape:grid-bbox="true"
     inkscape:window-width="1440"
     inkscape:window-height="851"
     inkscape:window-x="0"
     inkscape:window-y="1"
     inkscape:window-maximized="1" />
  <metadata
     id="metadata2990">
    <rdf:RDF>
      <cc:Work
         rdf:about="">
        <dc:format>image/svg+xml</dc:format>
        <dc:type
           rdf:resource="http://purl.org/dc/dcmitype/StillImage" />
        <dc:title />
      </cc:Work>
    </rdf:RDF>
  </metadata>
  <g
     id="layer1"
     inkscape:label="Layer 1"
     inkscape:groupmode="layer">
    <path
       style="fill:#b3393b;fill-opacity:1;stroke:none"
       d="m 13.99998,20.248926 0,11.69756 0,11.69757 3.68644,-0.0544 c 2.7352,-0.0399 3.85187,-0.0881 4.32755,-0.1889 2.23659,-0.47404 3.3841,-1.42513 3.99269,-3.30864 0.18439,-0.57066 0.20976,-0.87262 0.24328,-2.74765 0.0425,-2.37572 -0.0383,-2.96094 -0.54094,-3.90396 -0.50742,-0.95201 -1.54588,-1.71264 -2.8049,-2.04929 -0.34658,-0.0927 -0.3963,-0.12739 -0.24901,-0.18032 1.76022,-0.63256 2.71327,-1.65467 2.98235,-3.19987 0.15808,-0.90772 0.0649,-3.78969 -0.1431,-4.45063 -0.51105,-1.62348 -1.43913,-2.48835 -3.26571,-3.03673 -0.63413,-0.19038 -0.88135,-0.20271 -4.45062,-0.23756 l -3.77803,-0.0372 z m 14.56257,0 0,11.62315 c 0,6.39254 0.0265,11.64967 0.0601,11.68325 0.0933,0.0933 5.22033,0.0717 6.67165,-0.0286 2.04868,-0.14158 3.28076,-0.58131 4.19018,-1.49403 0.57883,-0.58094 0.90273,-1.15713 1.17061,-2.07792 0.27579,-0.94793 0.3658,-4.08448 0.14597,-5.12037 -0.38345,-1.80693 -1.3452,-2.85916 -3.07394,-3.36301 -0.53215,-0.1551 -0.65033,-0.21643 -0.50946,-0.26904 1.27411,-0.47585 1.59381,-0.66992 2.17523,-1.31659 0.78457,-0.87263 1.03801,-1.98869 0.95595,-4.21879 -0.0775,-2.10545 -0.41751,-3.10218 -1.36524,-3.99841 -0.59226,-0.56009 -1.21016,-0.88841 -2.16378,-1.15344 -0.65161,-0.18111 -0.96754,-0.19979 -4.47925,-0.23184 l -3.77802,-0.0343 z m 17.40754,0.0143 -0.0258,9.27333 c -0.0248,9.19804 -0.0269,9.27654 -0.21753,9.68835 -0.23617,0.51034 -0.65348,0.87509 -1.16202,1.01319 -0.38202,0.10374 -1.72996,0.0658 -2.14947,-0.0601 l -0.20608,-0.063 0,1.59994 c 0,1.83525 -0.0647,1.70468 0.97599,1.89474 1.10746,0.20223 2.07539,0.18809 3.1226,-0.0458 1.63625,-0.36546 2.78577,-1.42607 3.38591,-3.12259 l 0.25473,-0.71554 0.0258,-9.73128 0.0258,-9.73127 -2.01495,0 -2.01494,0 z m -27.94022,3.02242 1.15058,0 c 1.46135,0 1.92785,0.16322 2.30975,0.81284 l 0.24901,0.4236 0,1.96915 c 0,1.74563 -0.0204,2.00554 -0.17173,2.28972 -0.45986,0.86339 -1.00573,1.09906 -2.54731,1.09906 l -0.9903,0 0,-3.29719 0,-3.29718 z m 14.65416,0 1.12196,0.003 c 1.55413,0.006 1.96895,0.17333 2.38989,0.95882 0.18147,0.33863 0.19749,0.50147 0.19749,2.15233 0,1.86312 -0.0584,2.24067 -0.43219,2.77341 -0.35042,0.49943 -0.81705,0.65094 -2.1094,0.68978 l -1.16775,0.0343 0,-3.30577 0,-3.30577 z m -14.65416,9.40785 1.27652,0.0458 c 1.10688,0.0398 1.33284,0.0735 1.71156,0.26331 1.02178,0.51205 1.26428,1.30309 1.2021,3.92972 -0.0469,1.9794 -0.18287,2.49769 -0.79854,3.05391 -0.47801,0.43185 -0.84671,0.52886 -2.22388,0.58387 l -1.16776,0.0458 0,-3.96121 0,-3.9612 z m 14.65416,0 1.21355,0.0515 c 1.45604,0.0634 1.79162,0.15141 2.25823,0.59533 0.49041,0.46655 0.64575,1.047 0.69264,2.60454 0.11375,3.77858 -0.49168,4.65098 -3.22277,4.65098 l -0.94165,0 0,-3.95261 0,-3.94976 z"
       id="rect3006"
       inkscape:connector-curvature="0" />
  </g>
</svg>
