<?xml version="1.0" encoding="UTF-8" standalone="no"?>
<!-- Created with Inkscape (http://www.inkscape.org/) -->

<svg
   xmlns:dc="http://purl.org/dc/elements/1.1/"
   xmlns:cc="http://creativecommons.org/ns#"
   xmlns:rdf="http://www.w3.org/1999/02/22-rdf-syntax-ns#"
   xmlns:svg="http://www.w3.org/2000/svg"
   xmlns="http://www.w3.org/2000/svg"
   xmlns:sodipodi="http://sodipodi.sourceforge.net/DTD/sodipodi-0.dtd"
   xmlns:inkscape="http://www.inkscape.org/namespaces/inkscape"
   width="64px"
   height="64px"
   id="svg4943"
   version="1.1"
   inkscape:version="0.48.5 r10040"
   sodipodi:docname="downtowntrex.svg">
  <defs
     id="defs4945" />
  <sodipodi:namedview
     id="base"
     pagecolor="#ffffff"
     bordercolor="#666666"
     borderopacity="1.0"
     inkscape:pageopacity="0.0"
     inkscape:pageshadow="2"
     inkscape:zoom="2.5761905"
     inkscape:cx="32.334824"
     inkscape:cy="23.629299"
     inkscape:current-layer="layer1"
     showgrid="true"
     inkscape:document-units="px"
     inkscape:grid-bbox="true"
     inkscape:window-width="1440"
     inkscape:window-height="855"
     inkscape:window-x="0"
     inkscape:window-y="0"
     inkscape:window-maximized="1" />
  <metadata
     id="metadata4948">
    <rdf:RDF>
      <cc:Work
         rdf:about="">
        <dc:format>image/svg+xml</dc:format>
        <dc:type
           rdf:resource="http://purl.org/dc/dcmitype/StillImage" />
        <dc:title></dc:title>
      </cc:Work>
    </rdf:RDF>
  </metadata>
  <g
     id="layer1"
     inkscape:label="Layer 1"
     inkscape:groupmode="layer">
    <path
       style="fill:#00b5e8;fill-opacity:1;stroke:none"
       d="m 34.277825,27.365992 c -0.136872,-0.002 -0.306287,0.004 -0.511906,0.0125 l -0.994678,0.0375 -0.0333,4.37825 c -0.02562,3.1934 0.0071,4.43277 0.120693,4.56969 0.113503,0.13676 0.410553,0.17386 1.098724,0.14567 l 0.944737,-0.0375 0.09156,-0.5993 c 0.04951,-0.32962 0.09445,-2.28137 0.09988,-4.33664 0.0075,-2.82667 -0.03417,-3.79098 -0.162311,-3.96623 -0.104926,-0.14349 -0.242792,-0.1994 -0.653408,-0.20392 z M 8,27.415892 l 0,4.46148 0,4.46149 2.25155,0.0375 c 2.73841,0.0445 3.47506,-0.11499 4.23675,-0.91561 0.29188,-0.30679 0.52967,-0.71221 0.58266,-0.99467 l 0.0874,-0.47862 0.25803,0.5785 c 0.57418,1.28519 1.70169,1.97271 3.23791,1.97271 0.69878,0 1.09909,-0.082 1.6023,-0.3163 1.65873,-0.7724 2.34013,-2.77306 1.49826,-4.41155 -0.6561,-1.27694 -1.64761,-1.8528 -3.16715,-1.84369 -1.86031,0.0112 -3.08776,0.96055 -3.40022,2.62612 l -0.0957,0.49942 -0.2289,-0.37873 c -0.12718,-0.20912 -0.41538,-0.53437 -0.64093,-0.72416 l -0.41202,-0.34543 0.32046,-0.30381 c 0.70989,-0.66691 0.78775,-2.14482 0.15399,-2.97571 -0.60425,-0.79222 -1.26224,-0.9489 -3.95374,-0.9489 l -2.33063,0 z m 21.80801,0.88231 c -0.11446,6e-5 -0.24207,0.006 -0.38705,0.0125 l -0.91144,0.0375 -0.0374,0.83237 c -0.039,0.81851 -0.0486,0.83236 -0.42451,0.83236 -0.54508,0 -0.80324,0.12852 -0.80324,0.39538 0,0.20621 -0.0754,0.19434 -0.6867,-0.10821 -1.36743,-0.67673 -3.33176,-0.32997 -3.97039,0.70335 -0.32324,0.52301 -0.35743,1.51378 -0.0749,2.06011 0.26382,0.51017 0.68188,0.76102 1.8104,1.07375 0.52831,0.1464 0.99162,0.29244 1.02797,0.32879 0.1266,0.1266 -0.60806,0.3231 -0.91977,0.24554 -0.17267,-0.043 -0.48929,-0.20026 -0.70335,-0.34959 l -0.39121,-0.27052 -0.63676,0.72 c -0.60462,0.68578 -0.62569,0.7336 -0.41202,0.9697 0.75961,0.83937 2.82505,1.07327 4.12438,0.46613 1.29293,-0.60416 1.60062,-2.12421 0.62843,-3.0964 -0.31313,-0.31314 -0.6865,-0.50174 -1.34427,-0.67422 -1.04231,-0.27332 -1.27421,-0.4139 -0.98219,-0.60347 0.24685,-0.16025 0.78887,-0.0458 1.10288,0.23723 0.22041,0.19864 0.27872,0.17743 0.81572,-0.3496 l 0.57434,-0.56601 0.0832,0.40786 c 0.0751,0.37532 0.12412,0.40786 0.61596,0.40786 l 0.53687,0 0,1.57734 c 0,1.41708 0.0302,1.62701 0.29965,2.02681 0.45609,0.67679 1.06769,0.97244 2.01849,0.97803 0.44689,0.003 0.9814,-0.0411 1.18613,-0.0957 0.36617,-0.0977 0.37159,-0.11434 0.33294,-0.99468 l -0.0416,-0.89479 -0.59931,0 c -0.89496,-0.002 -0.93225,-0.0581 -0.93225,-1.39838 l 0,-1.18612 0.76578,-0.0375 0.76578,-0.0416 0,-0.86566 0,-0.86566 -0.76578,-0.0375 -0.76578,-0.0416 0,-0.77827 c 0,-0.87096 -0.0977,-1.05755 -0.89896,-1.0571 z m -19.47738,1.18196 0.85734,0 c 0.60074,0 0.91858,0.0612 1.06543,0.20809 0.55686,0.55686 -0.0731,1.12369 -1.24856,1.12369 l -0.67421,0 0,-0.66589 0,-0.66589 z m 41.997072,0.52855 c -0.87479,0.0219 -1.736901,0.32552 -2.355598,0.91144 -0.912259,0.86393 -1.205232,2.35741 -0.715836,3.62912 0.705622,1.83359 3.092444,2.6367 4.985878,1.67722 1.972675,-0.99963 2.362379,-3.63066 0.774101,-5.21894 -0.688439,-0.68844 -1.697116,-1.02371 -2.688545,-0.99884 z m -6.172001,0.008 c -0.382789,0.009 -0.747203,0.0751 -0.986355,0.19977 -0.266694,0.13908 -0.434568,0.16057 -0.528553,0.0666 -0.07539,-0.0754 -0.572335,-0.13734 -1.107048,-0.13734 l -0.973869,0 0,3.11721 c 0,2.37027 0.03995,3.13691 0.166473,3.18797 0.341146,0.13766 1.783386,0.0853 1.939415,-0.0707 0.108859,-0.10886 0.15815,-0.7458 0.15815,-1.99768 0,-1.6603 0.02573,-1.86527 0.266357,-2.10589 0.313483,-0.31348 0.648758,-0.3366 1.007164,-0.0749 0.230851,0.16855 0.265161,0.40729 0.324624,2.23074 l 0.06659,2.0393 0.911442,0.0416 c 1.349104,0.0587 1.319929,0.1143 1.265198,-2.50126 -0.04279,-2.04476 -0.07034,-2.25634 -0.378727,-2.85502 -0.213535,-0.41454 -0.497294,-0.73524 -0.794911,-0.8948 -0.321473,-0.17234 -0.843792,-0.25694 -1.335949,-0.24555 z m -6.812923,0.008 c -0.391778,0.004 -0.657002,0.0564 -0.869824,0.16647 -0.265478,0.13729 -0.444701,0.16293 -0.532715,0.0749 -0.07293,-0.0729 -0.577268,-0.1133 -1.119533,-0.0916 l -0.986355,0.0375 0.02081,3.05062 c 0.01731,2.3763 0.06135,3.0711 0.199768,3.15884 0.271195,0.17191 1.769949,0.14033 1.951901,-0.0416 0.109374,-0.10938 0.158149,-0.76299 0.158149,-2.06427 0,-1.89643 0.0031,-1.89821 0.345433,-2.12254 0.481794,-0.31568 1.021277,-0.11625 1.136181,0.42035 0.04671,0.21813 0.09122,1.16088 0.09988,2.0934 0.01806,1.94403 -0.02285,1.88453 1.356758,1.80624 l 0.724159,-0.0416 0.108208,-0.99884 c 0.139494,-1.27994 0.01382,-3.60419 -0.224739,-4.16184 -0.1015,-0.23725 -0.372244,-0.61071 -0.603466,-0.8282 -0.364162,-0.34253 -0.541488,-0.4009 -1.327626,-0.44532 -0.16097,-0.009 -0.3064,-0.0139 -0.436992,-0.0125 z m -20.738428,1.98103 c 0.27395,-0.0138 0.56268,0.0667 0.83237,0.27884 0.29129,0.22913 0.34895,0.38187 0.34543,0.89896 -0.005,0.70519 -0.18904,1.01913 -0.71583,1.21942 -0.44272,0.16832 -0.72026,0.16459 -1.09456,-0.0166 -0.15646,-0.0758 -0.35123,-0.28702 -0.43283,-0.46613 -0.43631,-0.95758 0.24358,-1.87311 1.06542,-1.91444 z m 33.869016,0.0541 c 0.376041,-0.0141 0.760821,0.13365 1.01965,0.46197 0.379694,0.48164 0.277647,1.29744 -0.212254,1.71884 -0.371078,0.31918 -1.144071,0.40053 -1.552364,0.16231 -0.370941,-0.21644 -0.558518,-0.9825 -0.374565,-1.53988 0.165723,-0.50215 0.636052,-0.78507 1.119533,-0.80324 z m -42.142736,0.88231 1.04462,0 c 0.84947,0 1.08708,0.0483 1.26936,0.24971 0.34946,0.38615 0.0921,0.89794 -0.54104,1.07376 -0.27817,0.0772 -0.56768,0.1326 -0.64092,0.12069 -0.0733,-0.0119 -0.35792,-0.0462 -0.6326,-0.0749 l -0.49942,-0.0541 0,-0.65757 0,-0.65757 z"
       id="rect5649"
       inkscape:connector-curvature="0" />
  </g>
</svg>
