<?xml version="1.0" encoding="UTF-8" standalone="no"?>
<!-- Created with Inkscape (http://www.inkscape.org/) -->

<svg
   xmlns:dc="http://purl.org/dc/elements/1.1/"
   xmlns:cc="http://creativecommons.org/ns#"
   xmlns:rdf="http://www.w3.org/1999/02/22-rdf-syntax-ns#"
   xmlns:svg="http://www.w3.org/2000/svg"
   xmlns="http://www.w3.org/2000/svg"
   xmlns:sodipodi="http://sodipodi.sourceforge.net/DTD/sodipodi-0.dtd"
   xmlns:inkscape="http://www.inkscape.org/namespaces/inkscape"
   width="243"
   height="30"
   id="svg4943"
   version="1.1"
   inkscape:version="0.48.5 r10040"
   sodipodi:docname="bostonglobe-black.svg">
  <defs
     id="defs4945" />
  <sodipodi:namedview
     id="base"
     pagecolor="#ffffff"
     bordercolor="#666666"
     borderopacity="1.0"
     inkscape:pageopacity="0.0"
     inkscape:pageshadow="2"
     inkscape:zoom="4.4279835"
     inkscape:cx="81.526951"
     inkscape:cy="15"
     inkscape:current-layer="g5806"
     showgrid="true"
     inkscape:document-units="px"
     inkscape:grid-bbox="true"
     inkscape:window-width="1440"
     inkscape:window-height="851"
     inkscape:window-x="0"
     inkscape:window-y="0"
     inkscape:window-maximized="1" />
  <metadata
     id="metadata4948">
    <rdf:RDF>
      <cc:Work
         rdf:about="">
        <dc:format>image/svg+xml</dc:format>
        <dc:type
           rdf:resource="http://purl.org/dc/dcmitype/StillImage" />
        <dc:title />
      </cc:Work>
    </rdf:RDF>
  </metadata>
  <g
     id="layer1"
     inkscape:label="Layer 1"
     inkscape:groupmode="layer"
     transform="translate(0,-34)">
    <g
       id="g5806"
       transform="matrix(0.36517926,0,0,0.36517926,20.314264,27.75763)">
      <path
         style="fill:#000000;fill-opacity:1"
         d="m 106.5479,97.186129 c -0.4791,-1.11442 -0.8922,-3.24358 -0.918,-4.73145 -0.039,-2.26115 0.3523,-3.40637 2.3846,-6.97632 2.9029,-5.09918 5.1081,-6.87125 10.1283,-8.13891 9.7795,-2.46943 11.5761,-3.4507 13.2512,-7.23762 0.9612,-2.17286 1.1046,-3.77441 1.2138,-13.55798 0.069,-6.20133 0.4088,-12.32878 0.7699,-13.89375 1.39,-6.02292 5.6295,-10.34964 18.4904,-18.8711 4.7484,-3.14625 8.6904,-5.63611 8.7598,-5.53301 6.5669,9.7465 11.0892,17.54284 12.5075,21.5628 0.6931,1.96462 0.6702,2.03448 -1.2738,3.88761 -1.0888,1.03787 -3.7696,3.17275 -5.9573,4.74418 l -3.9778,2.85713 1.2761,0.99209 c 0.7019,0.54564 3.4201,2.39077 6.0406,4.10029 4.5551,2.97158 4.7501,3.17947 4.4345,4.72919 -0.1815,0.89154 -0.4515,5.51134 -0.6,10.26622 -0.1485,4.75488 -0.3779,9.16069 -0.5098,9.79067 -0.1878,0.89727 -1.3242,1.52027 -5.2451,2.87546 -7.6061,2.62891 -13.5165,5.6727 -16.701,8.60088 l -2.8685,2.63754 -6.5714,-3.45798 c -10.2335,-5.38497 -14.5608,-6.82159 -20.7399,-6.88538 -4.5169,-0.0466 -5.5083,0.12279 -8.2586,1.41154 -2.4475,1.14682 -3.2973,1.87569 -3.9174,3.35969 -0.9083,2.1738 -1.0359,6.08054 -0.2649,8.10845 0.8548,2.248141 -0.4606,1.66866 -1.4532,-0.64024 z m 51.7406,-11.34982 2.9482,-1.48886 0.1469,-10.08238 0.1468,-10.08237 -2.3303,-1.90947 c -1.2816,-1.05021 -3.6576,-2.5249 -5.2799,-3.27709 l -2.9497,-1.36761 -0.2716,13.63257 c -0.257,12.89664 -0.2155,13.69821 0.7695,14.84832 1.381,1.61236 3.2333,1.53817 6.8201,-0.27311 z m -9.8074,-19.04359 c 0.9385,-25.54706 1.1544,-28.63735 2.0011,-28.63735 0.5822,0 0.7634,1.87392 0.8808,9.11287 l 0.1478,9.11287 3.6339,-2.2237 c 1.9985,-1.22303 4.6412,-3.12637 5.8724,-4.22964 2.0833,-1.86678 2.2136,-2.14794 1.8781,-4.05246 -0.1984,-1.12557 -0.7153,-3.14066 -1.1488,-4.47797 -0.9601,-2.96192 -8.9251,-14.79326 -10.116,-15.0265 -1.1455,-0.22435 -5.0885,3.40084 -6.3161,5.80711 -1.9698,3.86118 -2.3483,6.60009 -2.4312,17.59446 -0.073,9.71437 -0.1963,11.06188 -1.2171,13.33294 -1.4824,3.29808 -4.9237,6.99041 -9.5423,10.23841 -2.1567,1.51668 -3.4044,2.70795 -2.9718,2.83719 0.4102,0.12253 2.335,0.62625 4.2772,1.11937 1.9423,0.49312 5.9542,2.06403 8.9154,3.49092 2.9612,1.42688 5.4172,2.56893 5.4576,2.5379 0.041,-0.031 0.346,-7.47243 0.679,-16.53642 z m 71.1661,31.2537 c -1.2938,-1.8471 -1.0976,-6.14799 0.4301,-9.42894 0.7997,-1.71738 3.2865,-4.84512 6.5825,-8.27906 2.9426,-3.06579 5.0565,-5.68169 4.7557,-5.88511 -0.2978,-0.20139 -2.2896,-1.79166 -4.4264,-3.53392 l -3.8849,-3.16774 0,-3.09705 c 0,-1.70337 0.158,-5.67896 0.3511,-8.83464 l 0.351,-5.73759 4.3768,-2.46671 c 2.4073,-1.35669 6.0184,-3.79711 8.0247,-5.42317 2.0063,-1.62605 3.9139,-2.95646 4.2392,-2.95646 0.3252,0 1.2368,0.45599 2.0256,1.01331 2.9146,2.05922 10.4514,5.5069 13.6899,6.2624 l 3.3386,0.77883 2.1989,-1.94159 c 1.2094,-1.06787 5.1167,-4.88611 8.6829,-8.48497 l 6.4839,-6.54338 0.2701,6.48392 0.2702,6.48393 3.7823,0.1321 c 5.7963,0.20245 7.2944,0.56195 7.2944,1.75042 0,1.24939 -3.3368,1.88999 -7.8815,1.5131 -1.634,-0.1355 -3.0966,-0.0431 -3.2501,0.20538 -0.1536,0.24847 -0.5127,8.64145 -0.7981,18.65107 l -0.5189,18.19931 1.7666,1.83875 c 2.2588,2.35107 4.5322,3.53645 6.0512,3.1552 0.658,-0.16514 2.2122,-1.50507 3.4539,-2.97762 l 2.2576,-2.67736 0,-10.16928 c 0,-5.59311 0.1596,-12.53805 0.3514,-15.43321 l 0.3485,-5.26392 3.9823,-2.18561 c 2.1903,-1.20208 6.0684,-3.7773 8.6181,-5.72271 3.445,-2.62855 4.9342,-3.45934 5.7975,-3.23436 0.6389,0.16651 4.0794,1.96948 7.6456,4.00661 l 6.4839,3.70387 0.076,18.08397 0.076,18.08397 -3.0476,1.59109 c -3.3585,1.7534 -10.4107,6.90689 -12.4624,9.1071 -0.7205,0.77258 -1.6293,1.4047 -2.0195,1.4047 -0.3903,0 -4.121,-2.07603 -8.2905,-4.6134 -4.1694,-2.53738 -7.948,-4.75429 -8.3967,-4.92648 -0.521,-0.19995 -2.4211,1.11343 -5.2586,3.63496 -2.4435,2.17142 -4.8662,4.30257 -5.3837,4.73588 -0.8434,0.70613 -1.2637,0.57524 -4.0525,-1.26203 -1.7113,-1.12742 -4.692,-3.27724 -6.6236,-4.77736 -1.9317,-1.50013 -3.5791,-2.7674 -3.6608,-2.81617 -0.082,-0.0488 0.3195,-1.18088 0.8917,-2.51581 0.9401,-2.1931 1.0575,-4.08917 1.2177,-19.66334 l 0.1773,-17.2362 -1.9398,0 c -1.7417,0 -2.6074,0.6436 -8.4752,6.30092 l -6.5355,6.30092 4.0419,3.04211 4.0418,3.04212 -0.1478,9.23714 -0.1477,9.23716 -3.7043,2.25555 c -2.0373,1.24055 -5.793,3.78978 -8.3459,5.66495 -3.0829,2.26444 -4.8634,3.25132 -5.3019,2.93867 -8.4167,-6.00076 -12.2258,-7.23317 -16.6467,-5.38597 -2.3299,0.97348 -3.3438,3.63345 -2.5209,6.61368 0.6772,2.45264 0.4477,2.83783 -0.7078,1.18807 z m 92.8537,-25.6392 c 0.2592,-11.53477 0.2097,-17.80579 -0.1433,-18.15879 -1.1619,-1.16194 -10.6571,-6.27853 -11.0018,-5.92844 -0.5747,0.58381 -1.1357,31.46412 -0.6143,33.82015 0.4343,1.96257 0.8231,2.30985 5.5865,4.98962 2.8159,1.58413 5.2676,2.88401 5.4483,2.88864 0.1807,0.005 0.5068,-7.92041 0.7246,-17.61118 z m -65.6875,4.92188 c 0.07,-5.58963 -0.8037,-7.70862 -3.6688,-8.89541 l -1.7005,-0.70438 -5.0469,5.34996 c -2.7758,2.94247 -5.6796,6.10189 -6.4529,7.02092 l -1.406,1.67097 3.1306,0.32721 c 4.1296,0.43163 8.4668,2.13797 11.7413,4.61929 l 2.6579,2.01412 0.3421,-3.26987 c 0.1882,-1.79842 0.3696,-5.45819 0.4032,-8.13281 z m -2.333,-15.53441 c 7.6298,-7.82255 7.32,-7.17683 3.9229,-8.17618 -1.5815,-0.46527 -5.2738,-2.20252 -8.2051,-3.86057 -2.9313,-1.65805 -5.4061,-2.93815 -5.4996,-2.84466 -0.093,0.0935 -0.3414,3.69603 -0.5509,8.00565 l -0.3809,7.83567 2.2348,2.01906 c 1.2292,1.11048 2.5429,2.01906 2.9194,2.01906 0.3765,0 2.8782,-2.24911 5.5594,-4.99803 z m 176.1008,36.9114 c -18.4937,-2.90613 -30.7555,-16.32648 -30.6393,-33.53435 0.033,-4.93798 1.2962,-9.89194 3.5091,-13.76586 1.5969,-2.79553 8.738,-8.5792 19.8484,-16.07552 4.9035,-3.30843 11.2833,-7.79337 14.1773,-9.96653 l 5.2618,-3.95121 5.0044,2.66301 c 2.7524,1.46465 7.7711,3.79169 11.1526,5.1712 l 6.1481,2.5082 2.0537,-2.00537 c 1.4783,-1.44345 2.3283,-1.9 3.0338,-1.6293 0.8298,0.31844 0.4818,0.84711 -2.2709,3.44948 -1.788,1.69037 -5.896,5.59432 -9.1289,8.67543 l -5.878,5.60203 3.7293,1.96239 c 4.6065,2.42401 9.8144,7.51202 11.7606,11.48992 0.9842,2.01155 1.6422,4.5759 2.0421,7.95798 0.8493,7.18305 0.2569,8.47787 -7.3306,16.02242 -6.7897,6.75127 -11.8026,10.30846 -18.9012,13.41252 -5.2581,2.29928 -8.5995,2.795 -13.5723,2.01356 z m 20.9808,-8.68654 c 1.7248,-0.64533 4.0688,-2.06264 5.2088,-3.14959 4.6494,-4.43263 5.0938,-14.41299 0.9999,-22.45038 -2.6667,-5.23516 -9.1568,-10.08447 -13.3985,-10.01113 -3.9609,0.0685 -3.9014,-0.0653 -3.839,8.62883 0.031,4.29434 0.215,12.52062 0.4094,18.28062 l 0.3534,10.47271 3.565,-0.29887 c 1.9608,-0.16438 4.9762,-0.82687 6.701,-1.47219 z m -13.1334,-28.60841 0,-29.69632 -2.1207,-0.63539 c -4.0355,-1.20906 -3.8229,-2.31703 -3.8229,19.92075 l 0,19.90298 -1.3899,2.78928 c -1.3789,2.76703 -6.3278,7.83001 -8.7183,8.91917 -0.6812,0.31042 -1.2387,0.77153 -1.2387,1.0247 0,0.62941 5.3973,4.03339 8.5126,5.36876 2.7576,1.18204 5.6382,1.96221 7.5622,2.04811 l 1.2157,0.0543 0,-29.69631 z m -17.438,19.04983 c 0.8595,-1.31065 0.9747,-3.30284 1.1198,-19.36756 0.089,-9.84864 -0.044,-19.09948 -0.2957,-20.55741 l -0.4573,-2.65079 -2.9464,3.00027 c -5.2743,5.37089 -7.5453,11.22128 -7.5311,19.40175 0.01,5.40195 1.0466,10.2797 3.0606,14.39282 1.4828,3.02834 4.7447,7.24184 5.6063,7.24184 0.2672,0 0.9169,-0.65742 1.4438,-1.46092 z m 24.9107,-31.71497 c 2.5766,-2.19901 5.6573,-5.01143 6.846,-6.24981 2.1167,-2.20517 2.139,-2.26889 1.0806,-3.08926 -1.5458,-1.19822 -11.7315,-6.09735 -12.6977,-6.10738 -0.6965,-0.007 -0.7881,1.35906 -0.6518,9.71813 0.087,5.34959 0.2891,9.72653 0.4485,9.72653 0.1594,0 2.3979,-1.79919 4.9744,-3.99821 z m 65.9641,48.11125 c -2.2026,-1.27359 -5.4971,-3.2055 -7.321,-4.29315 -6.045,-3.60466 -5.6367,-3.63555 -10.6523,0.80597 -2.4214,2.14431 -4.7851,4.21334 -5.2528,4.59784 -0.7225,0.59402 -1.462,0.27312 -4.9207,-2.13512 -2.2387,-1.5588 -4.8581,-3.46658 -5.8208,-4.2395 l -1.7505,-1.4053 1.2354,-2.37699 1.2353,-2.37699 -0.1293,-27.55669 -0.1293,-27.55669 -1.2982,-2.56656 c -0.7141,-1.4116 -1.0418,-2.56655 -0.7283,-2.56655 0.3134,0 1.7401,0.6578 3.1703,1.46179 l 2.6004,1.46178 2.426,-2.23611 c 1.544,-1.42323 3.4623,-2.54388 5.2769,-3.08277 3.6753,-1.09146 3.6414,-1.10243 1.9798,0.63924 -2.7493,2.88187 -2.7498,2.88791 -3.1103,33.09505 -0.1863,15.60195 -0.1548,29.20613 0.07,30.23151 0.4633,2.11423 2.2946,3.77932 4.1761,3.7971 0.6992,0.007 2.484,-0.65664 3.9661,-1.47389 l 2.695,-1.4859 -0.3823,-16.57384 -0.3823,-16.57384 2.9001,-1.46192 c 4.3729,-2.20431 9.5909,-5.71265 12.7547,-8.57548 l 2.8302,-2.56112 7.8924,4.27245 7.8924,4.27244 0.084,18.18966 0.084,18.18967 -1.4794,0.51571 c -2.5683,0.89527 -8.7201,5.16117 -12.3799,8.58481 l -3.5267,3.299 -4.0047,-2.31561 z m 10.314,-23.26267 0,-18.05319 -5.6546,-3.01957 c -3.11,-1.66077 -5.7477,-3.01957 -5.8616,-3.01957 -0.4852,0 -0.9302,21.11226 -0.59,27.98676 l 0.3715,7.50469 2.4903,1.53645 c 2.372,1.4635 8.8238,5.07942 9.1093,5.10536 0.074,0.007 0.1351,-8.11167 0.1351,-18.04093 z m 28.6282,19.96395 c -8.0223,-4.77095 -8.3578,-5.04 -8.1677,-6.54992 0.3573,-2.83696 0.6753,-52.86142 0.3474,-54.64941 -0.1759,-0.95905 -1.1593,-2.84344 -2.1852,-4.18754 -1.7449,-2.28588 -1.7902,-2.44382 -0.7008,-2.44382 0.6406,0 2.2266,0.62228 3.5244,1.38285 l 2.3596,1.38284 2.429,-2.13808 c 3.037,-2.67327 5.7104,-3.95982 8.8646,-4.26601 l 2.4532,-0.23813 -1.7299,1.10388 c -3.4008,2.17028 -3.657,3.31594 -3.7307,16.68608 -0.036,6.61226 0.032,12.02229 0.1516,12.02229 0.1198,0 2.787,-2.06676 5.927,-4.59279 3.1401,-2.52603 6.1425,-4.59278 6.6721,-4.59278 1.6561,0 6.0844,3.39385 8.0842,6.19582 l 1.9154,2.68369 0,17.16721 c 0,12.68541 -0.1659,17.23109 -0.6368,17.41186 -1.6846,0.64686 -11.5909,7.55431 -14.2309,9.92285 l -2.9808,2.67444 -8.366,-4.97533 z m 15.3228,-13.61468 c 0.1957,-5.8428 0.3558,-13.84801 0.3558,-17.78934 0,-6.94241 -0.044,-7.21857 -1.4152,-8.84792 -1.7877,-2.12456 -4.2613,-3.42163 -5.6716,-2.97401 -0.599,0.19012 -1.9241,1.07885 -2.9447,1.97496 l -1.8557,1.62927 0,15.21659 0,15.21658 4.1875,2.77755 c 3.6003,2.38802 4.7953,2.98958 6.6685,3.35692 0.1758,0.0345 0.4797,-4.7178 0.6754,-10.5606 z m 30.13874,15.19807 c -3.38178,-1.9086 -7.44754,-4.45075 -9.03494,-5.64923 -2.762,-2.08537 -2.8587,-2.24266 -2.2505,-3.65918 0.4191,-0.97598 0.7048,-6.66686 0.8386,-16.70722 l 0.2029,-15.22707 3.1427,-1.87209 c 1.7285,-1.02966 5.73876,-3.85124 8.91178,-6.27018 l 5.76914,-4.39808 7.26873,6.85373 7.26876,6.85372 -5.59427,4.10714 c -3.07689,2.25892 -7.94135,5.80917 -10.80996,7.88942 l -5.21556,3.7823 -0.0109,6.34996 -0.0109,6.34997 3.29107,2.42275 c 3.47285,2.55654 6.83536,3.8073 8.67004,3.22498 0.60581,-0.19227 3.02702,-1.82418 5.38043,-3.62647 4.25382,-3.25766 5.53671,-3.72282 4.17391,-1.5134 -0.63088,1.02275 -15.30115,14.66483 -15.68868,14.5891 -0.0843,-0.0165 -2.9203,-1.59155 -6.30215,-3.50015 z m 10.82888,-34.66811 c 0.44339,-0.53425 -0.0184,-1.41062 -1.90828,-3.62297 -2.38139,-2.78745 -7.41821,-7.34859 -8.11495,-7.34859 -0.18167,0 -0.33025,4.14777 -0.33025,9.21726 l 0,9.21727 4.88429,-3.37912 c 2.68638,-1.85852 5.14753,-3.69625 5.46919,-4.08385 z m -619.810017,36.53027 c -15.732,-2.0359 -27.7427,-11.79831 -31.1511,-25.31997 -1.7974,-7.131 -0.224,-17.36506 3.3168,-21.57306 1.7644,-2.09691 8.7073,-6.67487 17.9747,-11.85201 4.2535,-2.37622 7.536,-4.43742 7.2944,-4.58044 -1.297,-0.7677 -9.369,-1.67833 -15.1197,-1.7057 -6.2262,-0.0296 -6.6491,0.0379 -7.9616,1.27086 -1.8415,1.73002 -2.2901,4.29384 -1.1404,6.51717 1.2209,2.3609 0.6077,2.74371 -0.7714,0.48161 -1.3444,-2.20511 -1.546,-8.33394 -0.3495,-10.62415 1.8261,-3.49555 6.35,-6.21094 11.4778,-6.88942 2.6031,-0.34443 5.6528,-0.0888 26.67,2.23529 5.5641999,0.6153 7.9485999,0.66842 10.0239999,0.22333 3.6225,-0.77688 6.1188,-2.36698 6.8047,-4.3343 0.4824,-1.38411 2.0763,-2.32818 2.0763,-1.22989 0,0.20872 -1.8199,3.58036 -4.0441,7.49253 -4.5816,8.05833 -4.1531,7.77948 -11.9729,7.79153 -3.0171999,0.005 -3.9310999,0.19249 -4.1874999,0.86063 -0.1804,0.47008 -0.328,12.59908 -0.328,26.95335 l 0,26.09867 1.2158,0.3258 c 2.4402,0.65397 7.3349999,0.31486 10.3302999,-0.71569 4.8764,-1.67772 9.5162,-4.35677 9.7737,-5.64333 0.125,-0.62434 0.3632,-12.68466 0.5293,-26.80072 0.1662,-14.11605 0.4608,-28.0499 0.6546,-30.9641 l 0.3524,-5.29857 1.9652001,1.91892 1.9652,1.91891 0.9515,-1.61092 c 1.1532,-1.95221 4.7132,-4.1076 7.6535,-4.63373 2.0838,-0.37287 2.1296,-0.3501 1.2786,0.63516 -3.4419,3.98516 -4.4292,9.56907 -3.9233,22.1909 l 0.3759,9.37719 1.4045,-0.91765 c 0.7725,-0.50471 3.2282,-2.36051 5.457,-4.12399 4.8616,-3.84652 5.9714,-4.4074 7.8085,-3.94631 1.583,0.3973 5.1609,3.45392 6.8972,5.89233 1.1201,1.57311 1.1556,2.16672 1.2572,21.00358 0.096,17.76799 0.1851,19.47369 1.07,20.45148 1.4894,1.64577 4.0952,1.37259 6.8346,-0.71651 l 2.3384,-1.78328 0.1428,-16.49143 0.1427,-16.49143 1.9912,-0.94956 c 2.7386,-1.30591 6.9495,-4.14673 11.3306,-7.64401 2.0257,-1.61706 3.9389,-2.94147 4.2514,-2.94313 0.3126,-0.002 3.6629,2.94207 7.4453,6.5416 4.7816,4.55048 6.7186,6.73192 6.357,7.15934 -0.286,0.3381 -5.1514,3.89721 -10.8119,7.90914 l -10.2919,7.29442 -0.105,3.51213 c -0.2744,9.18026 0.3631,10.6255 5.8319,13.2213 5.8701,2.78631 7.1531,2.59645 11.614,-1.71863 1.3765,-1.33151 2.872,-2.33678 3.3233,-2.23393 0.8207,0.18702 -14.1539,14.06954 -15.5267,14.39439 -0.3694,0.0874 -3.9038,-1.91857 -7.8543,-4.4577 -3.9505,-2.53913 -7.4523,-4.6151 -7.7817,-4.61326 -1.1314,0.006 -3.6982,1.62109 -6.7393,4.23967 -3.674,3.1635 -4.9294,3.86191 -6.942,3.86191 -2.0602,0 -3.7323,-1.25904 -5.6154,-4.22837 l -1.5646,-2.46713 0,-19.18135 0,-19.18135 -1.4519,-1.51547 c -0.9827,-1.02576 -1.9962,-1.51546 -3.1362,-1.51546 -1.637,0 -5.863,2.27572 -7.103,3.82508 -0.4049,0.50588 -0.7489,6.08353 -1.0087,16.35462 l -0.3941,15.58693 2.5744,2.61375 2.5745,2.61375 -2.3036,2.75135 c -4.1906,5.00524 -5.1399,4.98708 -11.5054001,-0.21998 l -4.9184,-4.0233 -9.8142,5.10395 c -10.5757999,5.50004 -10.3547999,5.44305 -17.5133999,4.51666 z m 6.6063,-35.47955 c -0.165,-14.78471 -0.3867,-26.98027 -0.4926,-27.10124 -0.3161,-0.36121 -5.3135,-1.03559 -5.6061,-0.75653 -0.1486,0.14171 -0.2937,6.86279 -0.3225,14.93574 -0.042,11.86451 -0.2259,15.34285 -0.9577,18.14603 -1.3951,5.34387 -3.5425,8.46914 -8.6018,12.51852 l -2.5876,2.07107 2.0473,1.12328 c 1.126,0.6178 2.8479,1.62863 3.8264,2.24629 2.505,1.58107 8.6546,3.62877 11.0111,3.66643 l 1.9837,0.0317 -0.3002,-26.88128 z m -17.9835,13.3731 c 0.7672,-4.06093 1.3803,-27.75659 0.8318,-32.14648 l -0.3704,-2.96509 -4.2025,3.19907 c -3.9507,3.00741 -4.2559,3.3896 -5.0948,6.37944 -1.1087,3.95127 -1.1539,11.65864 -0.095,16.1498 0.9695,4.11129 2.9179,8.57636 5.172,11.85258 2.1206,3.08213 2.7935,2.64006 3.7587,-2.46932 z m 104.1457,-13.53698 c 2.1545,-1.60326 3.9174,-3.04769 3.9174,-3.20985 0,-0.16215 -2.295,-2.58023 -5.0999,-5.37351 -5.9968,-5.97186 -5.4913,-6.46864 -5.9414,5.83883 l -0.3037,8.30338 1.7551,-1.32192 c 0.9653,-0.72705 3.5179,-2.63367 5.6725,-4.23693 z M 361.0049,95.993179 c -1.2135,-0.87901 -2.8425,-2.6839 -3.6202,-4.01087 l -1.4139,-2.41267 0.6264,-13.87786 c 0.3445,-7.63283 0.4522,-15.96888 0.2393,-18.52457 -0.358,-4.29802 -0.5206,-4.78023 -2.1664,-6.426 -1.0093,-1.0093 -2.3324,-1.77929 -3.0575,-1.77929 -1.3752,0 -3.8045,1.21677 -5.9911,3.00081 l -1.36,1.10967 -0.6542,16.12743 -0.6542,16.12742 2.5063,2.43622 c 1.3785,1.33992 2.4353,2.72623 2.3483,3.0807 -0.1948,0.79437 -6.3444,6.20688 -7.0521,6.20688 -0.4021,0 -4.7486,-3.38237 -9.7648,-7.59889 -0.2469,-0.2076 0.051,-1.35836 0.6631,-2.55726 1.2069,-2.36584 1.4076,-4.85509 1.9495,-24.18042 l 0.2885,-10.29201 -1.9394,-2.26575 c -1.3885,-1.62215 -1.8415,-2.5741 -1.5948,-3.35126 0.1894,-0.59703 0.5149,-1.0855 0.7232,-1.0855 0.2083,0 1.5557,-0.97259 2.9942,-2.16131 1.4386,-1.18872 3.0537,-2.16131 3.5893,-2.16131 1.2739,0 3.4437,2.62337 5.439,6.57613 1.9021,3.76807 1.6247,3.82831 8.1153,-1.76219 6.7457,-5.81025 8.1084,-5.96762 11.9793,-1.3833 4.5826,5.4273 4.2333,3.21831 3.8256,24.19634 l -0.3638,18.71877 1.412,1.41202 c 1.7038,1.70383 3.6333,1.81199 5.0185,0.28131 0.5628,-0.62189 1.5123,-1.38052 2.11,-1.68586 0.5977,-0.30533 -0.01,0.5875 -1.3448,1.98409 -2.7067,2.82671 -9.1282,7.84348 -10.05,7.85154 -0.3269,0.003 -1.5872,-0.714 -2.8006,-1.59301 z m -170.5088,-3.54652 c -4.6604,-2.80014 -9.6443,-5.97618 -11.0632,-7.04999 -0.096,-0.0728 0.252,-0.94522 0.7737,-1.93867 0.8138,-1.54967 0.9922,-3.94571 1.2556,-16.86555 l 0.307,-15.05927 6.7541,-4.32184 c 3.7147,-2.37701 7.8482,-5.23397 9.1855,-6.34881 l 2.4315,-2.02697 8.0322,4.33703 8.0323,4.33704 -0.4333,4.37335 c -0.2383,2.40535 -0.4488,10.54379 -0.4677,18.08543 -0.033,13.11654 -0.081,13.74023 -1.115,14.36033 -0.5943,0.35654 -2.6611,1.58765 -4.5928,2.73579 -1.9316,1.14814 -5.5551,3.62166 -8.0522,5.4967 -2.4971,1.87504 -4.6854,3.4088 -4.8629,3.40835 -0.1776,-3.9e-4 -2.9608,-1.58576 -6.1848,-3.52292 z m 13.7496,-22.90364 0.2172,-16.96643 -5.1331,-2.85037 c -2.8232,-1.56771 -5.4126,-2.86731 -5.7541,-2.88799 -0.8706,-0.0527 -1.3777,10.58659 -1.1693,24.53193 l 0.1693,11.33154 5.4033,3.06035 c 5.1524,2.91824 5.4183,3.00665 5.7264,1.90387 0.1777,-0.63606 0.4208,-8.79137 0.5403,-18.1229 z m -90.2142,3.39255 c 2.1797,-2.37237 3.0896,-4.58512 3.4892,-8.4859 0.3638,-3.5503 0.3582,-3.57012 -1.5447,-5.47303 -1.7133,-1.71328 -2.2073,-1.90905 -4.8006,-1.90243 -1.5899,0.004 -3.4274,0.15127 -4.0834,0.32714 -1.3353,0.35803 -2.602,3.38977 -2.1455,5.13533 0.2302,0.88025 0.1417,0.95996 -0.4866,0.43847 -0.798,-0.66221 -0.9389,-3.55725 -0.2871,-5.89746 0.2052,-0.73697 1.4156,-2.13506 2.6898,-3.10688 2.1356,-1.6289 2.6298,-1.76693 6.327,-1.76693 l 4.0105,0 0,-2.06324 c 0,-5.5257 3.9012,-12.47826 9.5352,-16.99309 1.8947,-1.51831 3.2598,-2.92358 3.0335,-3.12283 -1.5628,-1.37614 -13.7178,-2.09548 -17.5277,-1.0373 -1.6724,0.4645 -2.1343,0.93751 -2.9169,2.98657 -0.7704,2.01739 -0.8234,2.78962 -0.3093,4.50579 0.8209,2.73966 0.7558,3.33243 -0.1838,1.67559 -0.4213,-0.74295 -1.0378,-2.62737 -1.37,-4.1876 -0.7247,-3.40437 0.3644,-8.04802 2.3218,-9.89924 4.42,-4.18027 11.2151,-5.16945 22.3362,-3.25153 3.5992,0.6207 7.7327,1.13296 9.1855,1.13834 l 2.6417,0.01 -2.9191,1.60902 c -7.436,4.0988 -11.7392,8.75842 -13.6862,14.81982 -0.292,0.9089 -0.7006,6.88021 -0.908,13.26958 -0.4139,12.75205 -0.8778,14.76653 -4.1555,18.04619 -1.4897,1.49053 -5.4025,3.55501 -8.3194,4.38946 l -1.3508,0.38644 1.4242,-1.55007 z"
         id="path3019"
         inkscape:connector-curvature="0" />
    </g>
  </g>
</svg>
