<?xml version="1.0" encoding="UTF-8" standalone="no"?>
<!-- Created with Inkscape (http://www.inkscape.org/) -->

<svg
   xmlns:dc="http://purl.org/dc/elements/1.1/"
   xmlns:cc="http://creativecommons.org/ns#"
   xmlns:rdf="http://www.w3.org/1999/02/22-rdf-syntax-ns#"
   xmlns:svg="http://www.w3.org/2000/svg"
   xmlns="http://www.w3.org/2000/svg"
   xmlns:sodipodi="http://sodipodi.sourceforge.net/DTD/sodipodi-0.dtd"
   xmlns:inkscape="http://www.inkscape.org/namespaces/inkscape"
   width="64px"
   height="64px"
   id="svg4943"
   version="1.1"
   inkscape:version="0.48.5 r10040"
   sodipodi:docname="dailymail.svg">
  <defs
     id="defs4945" />
  <sodipodi:namedview
     id="base"
     pagecolor="#ffffff"
     bordercolor="#666666"
     borderopacity="1.0"
     inkscape:pageopacity="0.0"
     inkscape:pageshadow="2"
     inkscape:zoom="1.7705078"
     inkscape:cx="-64.091382"
     inkscape:cy="28.603886"
     inkscape:current-layer="layer1"
     showgrid="true"
     inkscape:document-units="px"
     inkscape:grid-bbox="true"
     inkscape:window-width="1920"
     inkscape:window-height="1031"
     inkscape:window-x="0"
     inkscape:window-y="0"
     inkscape:window-maximized="1" />
  <metadata
     id="metadata4948">
    <rdf:RDF>
      <cc:Work
         rdf:about="">
        <dc:format>image/svg+xml</dc:format>
        <dc:type
           rdf:resource="http://purl.org/dc/dcmitype/StillImage" />
        <dc:title />
      </cc:Work>
    </rdf:RDF>
  </metadata>
  <g
     id="layer1"
     inkscape:label="Layer 1"
     inkscape:groupmode="layer">
    <g
       id="g3833"
       transform="matrix(0.08374022,0,0,0.08374022,29.320313,29.967467)">
      <path
         sodipodi:nodetypes="csscccsscccssssssscssscscsscssscccccccccscscssscccccccssscccsssssssssssssscccscssssssssscscssssssssscscsssscssscccsscscsscccsscssssssssscccsssscsscsssssss"
         inkscape:connector-curvature="0"
         id="path3813"
         d="m -131.55098,157.19188 c -7.59799,-4.0067 -14.28028,-7.75065 -14.84952,-8.31989 -0.71331,-0.71331 0.39454,-1.87274 3.56454,-3.73048 l 4.59952,-2.6955 0,-32.78391 0,-32.783903 -8.99478,-6.348516 c -10.56282,-7.455239 -10.93871,-6.189307 4.80993,-16.198965 l 10.31514,-6.556191 10.86148,6.312817 10.86148,6.312817 14.679726,-7.882055 c 8.07386,-4.33513 14.85619,-7.882055 15.07185,-7.882055 0.21567,0 5.61934,2.925 12.00816,6.5 6.38882,3.575 11.86011,6.5 12.15842,6.5 0.29831,0 5.85912,-3.375 12.35736,-7.5 6.49823,-4.125 12.25879,-7.5 12.80122,-7.5 0.54243,0 7.32691,3.733491 15.07661,8.296646 l 14.0903504,8.296646 -0.0719,36.259609 c -0.0475,23.97806 0.30996,37.68008 1.05542,40.45335 0.70392999,2.61875 2.59051,5.58705 5.0234,7.90369 2.14285,2.04047 3.89138,4.29047 3.88561,5 -0.006,0.70954 -4.61375,4.51349 -10.23994,8.45323 l -10.2294404,7.16317 -3.45624,-1.44411 c -5.32547,-2.22513 -9.98886,-6.19447 -13.16906,-11.20912 l -2.8948,-4.56467 0,-36.61309 c 0,-27.76229 -0.30217,-37.003582 -1.25,-38.228432 -0.6875,-0.888437 -4.2875,-3.265741 -8,-5.282899 l -6.75,-3.667559 0,15.59177 0,15.59177 7.53059,0 7.53058,0 -7.53058,10.89139 -7.53059,10.89139 0,12.54863 0,12.54863 5.48815,3.80998 c 3.01849,2.09549 5.49349,4.07563 5.5,4.40032 0.007,0.32468 -5.11942,3.78003 -11.39096,7.67855 l -11.40281,7.08822 -15.69189,-8.30897 c -8.63054,-4.56993 -16.37695,-8.99403 -17.21425,-9.83132 -1.36314,-1.36315 -1.09258,-1.76784 2.587,-3.86959 l 4.10936,-2.34723 0.008,-11.25 0.008,-11.25 -7.5,0 -7.499996,0 0.006,14.25 0.006,14.25 2.993666,1.70349 c 3.95982,2.25325 3.76487,3.86792 -0.76457,6.33247 -2.057956,1.11977 -7.116746,3.89644 -11.241746,6.17036 l -7.5,4.13441 -13.81454,-7.2849 z m 28.31454,-52.62916 c 0,-37.626703 -0.10684,-40.052757 -1.75,-39.736522 -1.62492,0.312725 -1.76873,3.079015 -2.01201,38.704302 -0.24343,35.64698 -0.13707,38.46232 1.5,39.70472 0.96911,0.73547 1.87451,1.35153 2.01201,1.36903 0.1375,0.0175 0.25,-18.0012 0.25,-40.04153 z m 52.999996,24.07333 c 0,-9.11111 -0.25758,-11 -1.5,-11 -1.23656,0 -1.5,1.81481 -1.5,10.33333 0,5.68333 0.3,10.63334 0.66667,11 1.85477,1.85477 2.33333,-0.26458 2.33333,-10.33333 z m -44.02088,-25.96819 c 2.90017,-4.4175 5.90603,-8.03181 6.67971,-8.03181 1.14229,0 1.35353,-2.11438 1.12392,-11.25 l -0.28275,-11.250001 -7.25,-3.798826 -7.249996,-3.798827 0,23.607844 c 0,12.98431 0.38387,23.3706 0.85304,23.08063 0.469176,-0.28996 3.225906,-4.14152 6.126076,-8.55901 z m 44.02088,-24.031811 c 0,-15.333333 -0.0833,-16 -2,-16 -1.89176,0 -1.9994,0.662998 -1.98899,12.25 0.013,14.440261 0.71731,19.750001 2.61983,19.750001 1.10183,0 1.36916,-3.12401 1.36916,-16.000001 z M 128.30788,157.15024 c -7.67562,-3.98653 -14.10697,-7.70214 -14.29189,-8.25691 -0.18492,-0.55476 1.03263,-2.30064 2.70567,-3.87972 2.89754,-2.73482 3.04171,-3.25087 3.03784,-10.87432 -0.002,-4.40178 -0.29277,-13.66379 -0.64565,-20.58223 l -0.6416,-12.57899 -4.49818,-2.38628 c -6.82276,-3.61946 -7.68891,-4.75746 -5.50794,-7.23661 2.14589,-2.43927 19.27143,-13.719131 20.82893,-13.719131 1.39834,0 28.52287,14.748711 30.34282,16.498631 1.15544,1.11098 0.83692,1.59688 -2,3.05093 -1.85588,0.95123 -3.70493,2.22921 -4.10901,2.83997 -0.89981,1.36006 -0.98872,29.10576 -0.11653,36.36723 0.6131,5.10436 0.78824,5.34649 6.04075,8.35168 2.97514,1.7022 5.2746,3.46458 5.10991,3.9164 -0.30114,0.82615 -21.47413,16.07833 -22.01172,15.85637 -0.15825,-0.0653 -6.56777,-3.38049 -14.2434,-7.36702 z m -93.296108,4.86985 c -7.15458,-1.83098 -12.500136,-4.7027 -16.848936,-9.05148 -5.59198,-5.59199 -7.44116,-10.75513 -7.53533,-21.03961 -0.13886,-15.16501 2.47529,-21.44129 13.28782,-31.90251 8.923996,-8.63406 18.221606,-14.76486 33.622246,-22.170347 l 11.64545,-5.59978 14.04027,7.319961 c 18.768988,9.785306 20.540268,10.912656 20.540268,13.073126 0,1.01769 -1.35,2.81163 -3,3.98654 l -2.999998,2.13619 0.0352,18.6819 0.0352,18.68191 6.703638,4.5 c 3.687,2.475 6.83748,5.20095 7.00107,6.05766 0.28126,1.47294 -18.060808,16.68274 -19.611758,16.26267 -0.36485,-0.0988 -7.75884,-3.58269 -16.43107,-7.74194 l -15.7677,-7.56227 -2.7323,2.40385 c -1.50277,1.32212 -5.88341,4.85704 -9.73477,7.85538 l -7.00246,5.45152 -5.24686,-1.34277 z m 26.17,-17.99109 c 1.37413,-0.5273 1.58179,-3.41351 1.58179,-21.98468 l 0,-21.37769 -7.57341,-5.01532 c -4.16537,-2.75843 -7.90294,-5.01532 -8.30572,-5.01532 -1.74044,0 -7.79906,5.3792 -9.80833,8.70841 -1.26358,2.09367 -2.47088,6.25665 -2.85517,9.84511 -1.30125,12.15082 4.36474,22.93457 16.35675,31.13089 6.36057,4.34734 7.70985,4.81923 10.60409,3.7086 z m 131.581788,16.66446 c -18.34459,-7.85853 -24,-10.91476 -24,-12.96981 0,-1.12285 1.125,-2.77868 2.5,-3.67962 l 2.5,-1.63806 0,-39.01692 0,-39.016907 -3.50521,-3.305839 c -1.92787,-1.818212 -3.16537,-3.513115 -2.75,-3.766452 1.4681,-0.895413 36.36661,-11.663863 37.80041,-11.663863 1.2526,0 1.4548,6.595154 1.4548,47.462741 l 0,47.46274 6,4.07452 c 3.3,2.24099 6,4.46127 6,4.93397 0,1.17078 -16.9673,14.08596 -18.3755,13.98701 -0.6185,-0.0435 -4.0495,-1.33204 -7.6245,-2.86351 z M 131.87913,71.862579 c -1.0588,-2.075408 -2.22912,-5.800898 -2.60071,-8.278867 -1.5604,-10.405477 7.37375,-20.698341 16.07126,-18.515404 7.99976,2.007813 10.0788,11.918321 4.13502,19.711139 -3.94985,5.178598 -11.15604,10.856602 -13.77856,10.856602 -1.19312,0 -2.61937,-1.406299 -3.82701,-3.77347 z"
         style="fill:#1a1714" />
      <path
         sodipodi:nodetypes="cssssssssscccscssscccsssccscsscccssssscsssssccssssscccscscccsscsscssscccsscccssscccsscccsssssscsssssssscsscccsssscsssscssssssssccscssscscsscsccsssscsscsssscsscsssscssssssssssss"
         inkscape:connector-curvature="0"
         id="path3813-3"
         d="m 210.0191,47.870925 c -5.68032,-1.20062 -5.39939,-2.77529 0.5,-2.80256 2.6125,-0.0121 6.63402,-0.87733 8.93672,-1.92278 3.42663,-1.55572 4.40835,-2.64054 5.40747,-5.9753 1.08711,-3.62845 1.0121,-4.30503 -0.68524,-6.18057 -2.82579,-3.12245 -9.41963,-2.13868 -19.605,2.92498 -11.00018,5.46877 -20.05022,7.52337 -30.30395,6.87981 -12.90171,-0.80976 -22.63023,-5.07199 -28.1703,-12.34188 -2.60256,-3.41517 -2.82814,-4.40153 -2.81023,-12.28776 0.0222,-9.7960298 1.94652,-15.21938985 7.69835,-21.6969298 l 3.44316,-3.8776 -0.45336,-27.7329482 -0.45337,-27.732952 -5.37713,-2.46173 c -3.63024,-1.66198 -5.37144,-3.04822 -5.35965,-4.26705 0.0186,-1.91667 18.05071,-14.30532 20.82195,-14.30532 1.60636,0 20.88178,10.0136 25.41058,13.20083 3.50718,2.46823 3.46034,3.48972 -0.25659,5.59568 l -3.00659,1.70349 0.25659,25.960782 0.25659,25.960778 3.39788,2.28922 c 3.7546,2.5295402 11.20855,3.1091102 15.40368,1.19768 2.31452,-1.05456 2.4176,-1.57111 3.04339,-15.249998 0.35626,-7.78715 0.64938,-19.40562 0.65139,-25.81882 l 0.004,-11.660362 -6.56458,-4.14591 c -3.61052,-2.28024 -6.38634,-4.68061 -6.1685,-5.33415 0.45339,-1.36014 18.69085,-14.69922 20.09709,-14.69922 1.26566,0 23.33292,12.64248 27.47651,15.74148 l 3.34051,2.49837 -4.09051,4.16793 -4.09051,4.16792 0,24.477752 c 0,29.0602982 -0.15339,29.6139582 -9.54295,34.4465482 -5.25622,2.70525 -6.71945,2.99404 -14.89299,2.93937 -10.81594,-0.0724 -20.68559,-2.75987 -28.05049,-7.63817 -4.1976,-2.78038 -6.03838,-3.33759 -11.98639,-3.62836 -6.18465,-0.3023302 -7.68578,0.002 -12.5201,2.5404 -5.87891,3.08659 -10.00709,8.05117995 -10.00709,12.03464 0,4.12103 5.69382,8.8391598 12.32948,10.2167198 7.30263,1.51602 10.55223,0.93766 28.48362,-5.0694898 12.13819,-4.06639 15.83933,-4.89511 21.86191,-4.89511 15.89849,0 26.37542,8.2522798 26.30304,20.7178798 -0.0779,13.40861 -16.36047,25.0995 -30.72805,22.06271 z M -115.23089,2.5547352 c -8.3449,-1.60290005 -30.19974,-1.77631005 -44.75443,-0.35512 -6.24819,0.6101 -11.64346,0.82616 -11.98949,0.48013 -0.34603,-0.34603 1.19246,-3.20771005 3.41888,-6.35928 7.33574,-10.3840002 21.24112,-17.9017182 35.07504,-18.9627482 l 7.25,-0.55606 0,-34.840092 0,-34.84008 -28.16708,-0.26558 c -20.00833,-0.18864 -28.27718,-0.59624 -28.5472,-1.40717 -0.20906,-0.62787 5.80184,-5.705265 13.35756,-11.283105 l 13.73768,-10.14152 38.88724,0.28312 38.887236,0.28311 3.30999,3.61278 c 5.11863,5.58689 5.53457,9.48714 5.53457,51.897885 l 0,37.912242 -4.25,1.13116 c -10.57553,2.81472 -25.00213,12.8221182 -30.839076,21.39235815 -1.326,1.94695005 -2.86092,3.47839005 -3.41092,3.40320005 -0.55,-0.0752 -3.925,-0.69854 -7.5,-1.38523 z m 10.02226,-52.7143982 c -4.20032,-3.782452 -10.57269,-3.840622 -14.97457,-0.13668 l -3.10575,2.61332 0.27903,12.5545 0.27903,12.5545 6.669,1.34639 c 3.66794,0.74052 8.16794,1.97722 10,2.74822 l 3.331,1.40182 0.28803,-15.16604 0.28804,-15.16603 z m -7.52226,-5.742532 c 2.22751,0 5.44014,0.87808 7.25,1.98157 l 3.25,1.981562 0,-5.970602 0,-5.97061 -3.25,1.98157 c -4.59839,2.80369 -10.28388,2.58194 -14.40561,-0.56185 l -3.34439,-2.5509 0,6.5362 0,6.536192 3.25,-1.981562 c 1.80986,-1.10349 5.02249,-1.98157 7.25,-1.98157 z m 8.25,-10.32031 c 2.07974,-1.88174 2.25,-2.88837 2.25,-13.30246 0,-7.90195 -0.37128,-11.49613 -1.24324,-12.03503 -0.68378,-0.4226 -5.40878,-0.9327 -10.5,-1.13356 l -9.25676,-0.3652 0,11.88745 c 0,11.66395 0.0517,11.9369 2.75,14.5172 5.27619,5.04548 10.73781,5.19281 16,0.4316 z m 64.749996,68.8570002 c -7.41759,-1.74537005 -12.03483,-4.27289 -16.99301,-9.30211 -6.60461,-6.6992402 -7.85524,-10.8932682 -7.29625,-24.4681982 0.57742,-14.02253 2.23032,-17.86978 11.71777,-27.274102 8.85136,-8.77381 19.26664,-15.87335 33.84751,-23.07201 l 11.7234102,-5.78792 17.5002898,8.96727 c 19.203266,9.8399 20.510266,11.16108 15.04122,15.20452 l -3.04094,2.24826 0.0352,18.720062 0.0352,18.72007 6.714786,4.50233 c 3.85216,2.582908 6.71479,5.221288 6.71479,6.188778 0,1.70574 -17.037016,15.8088902 -19.097606,15.8088902 -0.6113,0 -8.1855798,-3.38103005 -16.83173977,-7.5134 l -15.72029023,-7.5134102 -5.17518,4.3299102 c -14.12566,11.81849 -13.61971,11.54827 -19.17516,10.24106 z m 26.3,-18.7441602 c 0.85629,-0.856288 1.2,-7.148378 1.2,-21.967718 l 0,-20.767722 -6.09134,-4.04598 c -9.66472,-6.41949 -9.57128,-6.39022 -13.21362,-4.13912 -9.34298,5.77428 -12.20468,20.220002 -6.56117,33.120542 2.48458,5.67953 6.75453,10.20684 14.27117,15.13134 6.21674,4.072868 8.42407,4.639548 10.39496,2.668658 z m 65.949996,12.1405602 c -7.97968,-4.03604 -13.75,-7.5525902 -13.75,-8.3795202 0,-0.7837 1.35,-2.3862 3,-3.5611 l 3,-2.136188 -0.006,-12.68191 c -0.003,-6.97504 -0.28848,-16.30984 -0.63373,-20.74399 l -0.62773,-8.062102 -5.36628,-2.90283 c -8.04575,-4.35227 -7.53835,-5.84901 4.72396,-13.93487 5.54962,-3.65946 10.83712,-6.51509 11.75,-6.34584 2.39944,0.44487 31.15712,16.16947 31.15856,17.0374 6.7e-4,0.40133 -1.79878,1.64797 -3.99878,2.77033 l -4,2.04065 0,13.328792 c 0,7.33084 0.29145,16.77669 0.64767,20.99078 l 0.64768,7.66198 5.35232,3.062288 c 2.94378,1.68426 5.32829,3.36677 5.29891,3.7389 -0.0854,1.08117 -20.75139,15.1820802 -22.16579,15.1242302 -0.70444,-0.0288 -7.46829,-3.18196005 -15.03079,-7.007 z m 56.815708,0.21028 c -8.21385,-3.71614 -15.125898,-7.3314802 -15.360108,-8.0341002 -0.23421,-0.70262 0.69975,-2.47884 2.07546,-3.94715 l 2.5013,-2.669648 0.28312,-24 c 0.15572,-13.200002 0.20469,-30.471872 0.10882,-38.381922 l -0.1743,-14.38193 -3.50521,-3.30583 c -1.92787,-1.818215 -3.16537,-3.511985 -2.75,-3.763935 1.36095,-0.82553 36.637388,-11.66638 37.962728,-11.66638 1.03777,0 1.30139,9.31171 1.33769,47.249995 l 0.0452,47.250002 6.03218,3.767828 c 3.3177,2.0723 5.88486,4.1822 5.70479,4.68866 -0.49551,1.3936902 -16.98509,14.0502902 -18.23625,13.9972602 -0.60013,-0.0254 -7.81157,-3.08672005 -16.02542,-6.80285 z m -287.5657,-6.6233502 c 0,-0.88397 1.0125,-3.5018 2.25,-5.81739 2.13816,-4.000888 2.27485,-5.597238 2.75,-32.116208 l 0.5,-27.906062 14.38724,-7.4067 c 9.15295,-4.71204 14.73515,-7.0588 15.34352,-6.45043 0.5753,0.5753 0.81456,10.46066 0.60055,24.81275 -0.35532,23.829612 -0.35896,23.863542 -3.23607,30.119842 -3.49074,7.59064 -13.21476,17.20995 -22.11132,21.873208 -8.16749,4.2811002 -10.48392,4.9198702 -10.48392,2.89099 z m 236.581532,-76.08881 c -2.55944,-2.55943 -4.83573,-11.96241 -4.04895,-16.725525 0.5244,-3.17471 1.78124,-5.26068 5.09923,-8.46315 4.86483,-4.69547 8.26183,-5.3906 13.3882,-2.73965 9.51431,4.92004 5.26834,19.417695 -8.02002,27.383955 -4.19642,2.51571 -4.42752,2.53531 -6.41846,0.54437 z"
         style="fill:#1a1714" />
    </g>
  </g>
</svg>
