<?xml version="1.0" encoding="UTF-8" standalone="no"?>
<!-- Created with Inkscape (http://www.inkscape.org/) -->

<svg
   xmlns:dc="http://purl.org/dc/elements/1.1/"
   xmlns:cc="http://creativecommons.org/ns#"
   xmlns:rdf="http://www.w3.org/1999/02/22-rdf-syntax-ns#"
   xmlns:svg="http://www.w3.org/2000/svg"
   xmlns="http://www.w3.org/2000/svg"
   xmlns:sodipodi="http://sodipodi.sourceforge.net/DTD/sodipodi-0.dtd"
   xmlns:inkscape="http://www.inkscape.org/namespaces/inkscape"
   width="64px"
   height="64px"
   id="svg4943"
   version="1.1"
   inkscape:version="0.48.5 r10040"
   sodipodi:docname="huffingtonpost.svg">
  <defs
     id="defs4945" />
  <sodipodi:namedview
     id="base"
     pagecolor="#ffffff"
     bordercolor="#666666"
     borderopacity="1.0"
     inkscape:pageopacity="0.0"
     inkscape:pageshadow="2"
     inkscape:zoom="10.453125"
     inkscape:cx="32"
     inkscape:cy="32"
     inkscape:current-layer="layer1"
     showgrid="true"
     inkscape:document-units="px"
     inkscape:grid-bbox="true"
     inkscape:window-width="1440"
     inkscape:window-height="855"
     inkscape:window-x="0"
     inkscape:window-y="0"
     inkscape:window-maximized="1" />
  <metadata
     id="metadata4948">
    <rdf:RDF>
      <cc:Work
         rdf:about="">
        <dc:format>image/svg+xml</dc:format>
        <dc:type
           rdf:resource="http://purl.org/dc/dcmitype/StillImage" />
        <dc:title></dc:title>
      </cc:Work>
    </rdf:RDF>
  </metadata>
  <g
     id="layer1"
     inkscape:label="Layer 1"
     inkscape:groupmode="layer">
    <g
       id="g5611"
       transform="matrix(0.06451346,0,0,0.06451346,8.315079,37.396091)">
      <path
         inkscape:connector-curvature="0"
         id="path5609"
         d="m 486.35371,-205.21721 -234.76382,137.813571 58.49065,33.652152 174.67069,-98.552733 125.79495,68.105548 0,-70.509268 z"
         style="fill:#ffffff;stroke:#000000;stroke-width:1px;stroke-linecap:butt;stroke-linejoin:miter;stroke-opacity:1" />
      <path
         inkscape:connector-curvature="0"
         id="path5607"
         d="M 233.16133,76.018626 485.55247,-67.403639 616.15487,4.7081141 366.16746,160.149 z"
         style="fill:#59715c;fill-opacity:1;stroke:#000000;stroke-width:1px;stroke-linecap:butt;stroke-linejoin:miter;stroke-opacity:1" />
      <path
         inkscape:connector-curvature="0"
         id="path5605"
         d="M 234.76382,76.018626 485.55247,-67.403639 619.35983,8.7143226 612.9499,-64.999914 487.15495,-132.30422 310.08054,-31.347762 l -57.6894,-35.254635 232.36009,-139.416053 124.19246,69.70802 -3.20496,-87.33534 -182.68311,-103.36018 -110.57136,56.88816 -71.31051,-20.83228 -76.11796,56.88816 -17.62732,60.89437 -39.26084,42.46581 -2.40373,141.819778 z"
         style="fill:#6b8d6e;fill-opacity:1;stroke:#000000;stroke-width:1px;stroke-linecap:butt;stroke-linejoin:miter;stroke-opacity:1" />
      <path
         style="fill:#2a2b2a"
         d="m 362.56993,183.46532 c -0.9936,-0.91673 -8.11832,-4.98528 -14.95598,-8.54056 -2.20328,-1.14562 -5.35328,-2.99916 -7,-4.11898 -1.64671,-1.11982 -4.34402,-2.6941 -5.99402,-3.4984 -1.65,-0.80431 -3.225,-1.68809 -3.5,-1.96397 -0.275,-0.27587 -1.4,-0.99208 -2.5,-1.59156 -2.08868,-1.1383 -8.21114,-4.56001 -16.19747,-9.05241 -2.58361,-1.45331 -6.87841,-3.92831 -9.54401,-5.5 -2.66559,-1.57169 -5.27673,-2.85762 -5.80253,-2.85762 -0.52579,0 -0.95599,-0.45 -0.95599,-1 0,-0.55 -0.40677,-1 -0.90393,-1 -0.91522,0 -13.48269,-6.97694 -23.59607,-13.09955 -1.65,-0.99891 -4.575,-2.59921 -6.5,-3.55622 -1.925,-0.95701 -3.725,-1.98847 -4,-2.29213 -0.56329,-0.62198 -4.68384,-2.94996 -11.14298,-6.29542 -2.39636,-1.24117 -4.58202,-2.48168 -4.85702,-2.75668 -0.47921,-0.47921 -1.42185,-1.03324 -8.38701,-4.92942 -6.62027,-3.70326 -12.36394,-6.96911 -18.61299,-10.58337 -3.575,-2.067664 -8.3,-4.710654 -10.5,-5.873304 -2.2,-1.16265 -4.225,-2.39402 -4.5,-2.73637 -0.275,-0.34236 -2.975,-1.91736 -6,-3.5 -3.025,-1.58265 -5.65,-3.21504 -5.83333,-3.62754 -0.18334,-0.4125 -0.75478,-0.75 -1.26988,-0.75 -0.51509,0 -2.61509,-1.05825 -4.66666,-2.35166 -2.05157,-1.29341 -7.10513,-4.14007 -11.23013,-6.32591 -4.125,-2.18584 -9.40356,-5.17759 -11.73013,-6.64834 -2.32657,-1.47075 -4.68907,-2.67409 -5.25,-2.67409 -0.56093,0 -1.01987,-0.45 -1.01987,-1 0,-0.55 -0.9,-1 -2,-1 -1.1,0 -2,-0.37777 -2,-0.83948 0,-0.46172 -1.0125,-1.3437 -2.25,-1.95996 -2.00881,-1.00036 -6.83551,-3.68818 -17.75,-9.88437 -1.925,-1.09283 -5.56046,-3.13411 -8.0788,-4.53619 -8.19217,-4.56094 -9.41394,-5.27274 -9.9212,-5.78 -0.275,-0.275 -1.4,-0.99049 -2.5,-1.58997 -1.93188,-1.05285 -6.26752,-3.47418 -16.250004,-9.07517 -2.6125,-1.46582 -5.29819,-3.37832 -5.9682,-4.25 -0.93667,-1.2186 -1.22554,-22.7768296 -1.25,-93.28682 l -0.0318,-91.701956 4.25,-2.89882 c 2.3375,-1.59435 6.275,-4.03548 8.750004,-5.42474 2.475,-1.38925 7.425,-4.22476 11,-6.30113 3.575,-2.07638 7.50899,-4.26936 8.7422,-4.87331 1.23321,-0.60394 2.24571,-1.43558 2.25,-1.84808 0.004,-0.4125 0.4403,-0.75 0.96892,-0.75 0.52862,0 5.08611,-2.475 10.12777,-5.5 5.04166,-3.025 9.46213,-5.5 9.82327,-5.5 0.36114,0 1.37102,-1.2375 2.24416,-2.75 1.31298,-2.2744 1.70732,-8.19776 2.28013,-34.25 0.51512,-23.42881 1.03049,-32.01246 2.01134,-33.5 0.72532,-1.1 3.05878,-2.89569 5.18548,-3.99043 2.1267,-1.09473 4.09173,-2.22045 4.36673,-2.50159 0.275,-0.28114 1.85,-1.18473 3.5,-2.00798 1.65,-0.82325 3.225,-1.72253 3.5,-1.99841 0.95219,-0.95522 4.51669,-3.00011 8.25,-4.73288 2.0625,-0.95728 3.75,-2.08436 3.75,-2.50461 0,-0.42026 0.41775,-0.7641 0.92833,-0.7641 0.89377,0 13.04879,-6.88392 14.07167,-7.9694 0.275,-0.29183 2.3,-1.47463 4.5,-2.62845 7.0796,-3.71297 13.9304,-7.63937 16.65437,-9.5451 1.4599,-1.02138 2.94402,-1.85705 3.29804,-1.85705 0.35401,0 3.10578,-1.575 6.11504,-3.5 3.00926,-1.925 5.91265,-3.5 6.45197,-3.5 0.53932,0 0.98058,-0.34015 0.98058,-0.75589 0,-0.41574 1.4625,-1.39305 3.25,-2.1718 1.7875,-0.77875 5.03911,-2.53338 7.2258,-3.89919 4.36022,-2.7234 10.68905,-3.13787 13.4449,-0.8805 0.86861,0.7115 2.9293,1.94851 4.5793,2.74892 1.65,0.8004 3.225,1.68171 3.5,1.95846 0.275,0.27675 1.85,1.17675 3.5,2 1.65,0.82325 3.225,1.75794 3.5,2.07709 0.275,0.31916 2.975,1.87661 6,3.46101 3.025,1.58441 6.625,3.62217 8,4.52836 1.375,0.9062 4.525,2.77334 7,4.1492 2.475,1.37587 6.20119,3.46519 8.28042,4.64296 4.80513,2.72182 10.6023,2.73213 15.43916,0.0274 7.88738,-4.41049 12.79789,-7.30924 13.28042,-7.83964 0.275,-0.30229 1.85,-1.21368 3.5,-2.02533 1.65,-0.81164 4.71685,-2.52259 6.81521,-3.80211 4.46078,-2.72005 7.18918,-4.29307 18.68479,-10.77246 4.675,-2.63502 8.725,-5.05166 9,-5.37033 0.275,-0.31866 1.85,-1.23425 3.5,-2.03465 1.65,-0.80041 3.675,-1.97353 4.5,-2.60694 0.825,-0.63341 4.65,-2.85063 8.5,-4.92715 3.85,-2.07651 8.19447,-4.61518 9.65437,-5.64147 1.4599,-1.02629 3.1474,-1.86598 3.75,-1.86598 0.6026,0 1.09563,-0.34015 1.09563,-0.75589 0,-0.41574 1.4625,-1.39868 3.25,-2.18432 1.7875,-0.78563 5.59088,-2.92048 8.45196,-4.74411 2.86108,-1.82362 5.67358,-3.31568 6.25,-3.31568 0.57642,0 1.04804,-0.45 1.04804,-1 0,-0.55 2.475,-1 5.5,-1 3.025,0 5.5,0.39752 5.5,0.88337 0,0.48585 0.7875,1.13611 1.75,1.44501 0.9625,0.3089 4,1.87133 6.75,3.47205 2.75,1.60073 6.65815,3.8513 8.68479,5.00128 2.02663,1.14998 5.40163,3.13775 7.5,4.41727 2.09836,1.27952 5.16521,2.99047 6.81521,3.80211 1.65,0.81165 3.225,1.70144 3.5,1.97732 0.58697,0.58884 5.02705,3.07721 11.14298,6.24491 2.39636,1.24117 4.58202,2.4824 4.85702,2.75827 0.275,0.27588 1.85,1.17516 3.5,1.99841 1.65,0.82325 3.225,1.74922 3.5,2.05772 0.275,0.30849 2.75,1.82318 5.5,3.36596 2.75,1.54278 7.025,3.94292 9.5,5.33364 2.475,1.39073 5.625,3.26798 7,4.17167 1.375,0.9037 3.85,2.30115 5.5,3.10545 1.65,0.80431 3.225,1.68809 3.5,1.96397 0.275,0.27587 1.4,0.99208 2.5,1.59156 2.4546,1.33772 9.72828,5.40675 14.68479,8.21493 2.02663,1.14822 5.40163,3.13456 7.5,4.41408 2.09836,1.27952 5.16521,2.99047 6.81521,3.80211 1.65,0.81165 3.225,1.70216 3.5,1.97891 0.275,0.27675 1.85,1.16833 3.5,1.98127 1.65,0.81294 4.39248,2.49973 6.09439,3.74841 1.70192,1.24867 3.80192,2.27032 4.66667,2.27032 0.86475,0 1.72227,0.35418 1.90561,0.78707 0.36601,0.86424 5.42432,3.87542 21.83333,12.99727 2.475,1.37586 5.625,3.26656 7,4.20155 1.375,0.93499 3.9625,2.33051 5.75,3.10116 1.7875,0.77064 3.25,1.74132 3.25,2.15706 0,0.41574 0.41282,0.75589 0.91737,0.75589 0.50456,0 4.34252,2.025 8.5288,4.5 4.18629,2.475 7.89349,4.5 8.23824,4.5 0.34474,0 2.01928,1.04808 3.7212,2.32907 1.70191,1.28098 4.55689,2.96583 6.34439,3.74411 1.7875,0.77827 3.25,1.75519 3.25,2.17093 0,0.41574 0.73878,0.75589 1.64174,0.75589 0.90295,0 2.93314,1.35134 4.51153,3.00297 l 2.8698,3.00297 -0.26154,124.585486 -0.26153,124.58549 -2.5,1.91119 c -1.375,1.05115 -3.04351,2.36135 -3.70779,2.91154 -0.66429,0.55019 -1.90179,1.00035 -2.75,1.00035 -0.84822,0 -1.54221,0.39752 -1.54221,0.88337 0,0.48585 -0.7875,1.14108 -1.75,1.45607 -0.9625,0.31499 -3.55,1.64384 -5.75,2.95302 -3.86129,2.29777 -8.20824,4.76314 -18.25,10.35049 -2.6125,1.45363 -5.94447,3.47863 -7.40437,4.5 -1.4599,1.02138 -3.1474,1.85705 -3.75,1.85705 -0.6026,0 -1.09563,0.45 -1.09563,1 0,0.55 -0.9,1 -2,1 -1.1,0 -2,0.45 -2,1 0,0.55 -0.47162,1 -1.04804,1 -0.57642,0 -3.51015,1.575 -6.51941,3.5 -3.00926,1.925 -5.66784,3.5 -5.90796,3.5 -0.24012,0 -2.61752,1.28593 -5.28311,2.85762 -4.94174,2.91375 -10.51064,6.07367 -18.99148,10.7762 -2.6125,1.4486 -5.2,2.97564 -5.75,3.39343 -0.55,0.41779 -2.6875,1.70758 -4.75,2.86619 -2.0625,1.15861 -5.2125,2.93248 -7,3.94195 -4.94011,2.78984 -12.21491,6.86688 -17.5,9.80756 -2.6125,1.45363 -5.94447,3.478634 -7.40437,4.500004 -1.4599,1.02138 -3.1099,1.85705 -3.66667,1.85705 -0.55676,0 -1.16229,0.3375 -1.34563,0.75 -0.18333,0.4125 -1.90833,1.51741 -3.83333,2.45536 -4.04524,1.97102 -11.26743,6.06133 -12,6.79623 -0.275,0.27588 -1.85,1.16567 -3.5,1.97732 -1.65,0.81164 -4.71685,2.52259 -6.81521,3.80211 -3.93787,2.4012 -7.91096,4.68181 -15.68479,9.00332 -2.475,1.37586 -5.625,3.24096 -7,4.14465 -1.375,0.9037 -3.85,2.28565 -5.5,3.07101 -1.65,0.78536 -4.125,2.16731 -5.5,3.07101 -2.33386,1.53389 -4.48559,2.76234 -16.75,9.56281 -2.6125,1.4486 -5.2,2.97564 -5.75,3.39343 -1.00775,0.76551 -5.62375,3.40973 -13,7.4469 -2.2,1.2041 -5.6875,3.16501 -7.75,4.35756 -5.05096,2.92052 -8.10076,4.65695 -22.86998,13.02121 -12.07005,6.83564 -17.069,8.44893 -19.43002,6.27058 z m 10.05,-48.95796 c 1.65,-1.00485 5.025,-2.95868 7.5,-4.34186 8.42925,-4.71077 23.69661,-13.60707 27.834,-16.21889 2.26944,-1.43263 4.34639,-2.60479 4.61545,-2.60479 0.26905,0 4.2155,-2.19623 8.76987,-4.88052 4.55437,-2.68428 16.83068,-9.714984 27.28068,-15.623784 22.67389,-12.8206 23.59867,-13.35419 30,-17.30963 2.75,-1.69925 6.575,-3.87258 8.5,-4.82961 1.925,-0.95704 5.075,-2.70309 7,-3.88011 1.925,-1.17702 5.975,-3.50467 9,-5.17256 3.025,-1.66788 9.00046,-5.11855 13.2788,-7.66815 4.27834,-2.5496 8.03387,-4.63564 8.34563,-4.63564 0.31176,0 1.7613,-0.83567 3.2212,-1.85705 1.4599,-1.02137 4.79187,-3.04637 7.40437,-4.5 8.65759,-4.81718 13.38517,-7.50086 36.3386,-20.62813 12.51625,-7.15815 23.05936,-13.0148196 23.42912,-13.0148196 0.36977,0 1.4284,-0.83548 2.35252,-1.85662 1.94148,-2.14531 1.66494,-2.47309 -5.37024,-6.36548001 -2.475,-1.36935999 -10.35,-5.85519999 -17.5,-9.96855039 -7.15,-4.11335 -15.025,-8.61547 -17.5,-10.00471 -2.475,-1.38925 -6.075,-3.46244 -8,-4.6071 -1.925,-1.14466 -6.65,-3.89847 -10.5,-6.11959 -3.85,-2.22111 -9.25,-5.34158 -12,-6.93437 -18.65819,-10.80676 -39.13259,-22.14292 -39.98626,-22.13939 -1.32453,0.005 -8.55242,3.69008 -16.04273,8.17821 -15.06788,9.02857 -21.57913,12.8176 -22.02635,12.8176 -0.26642,0 -2.30481,1.14917 -4.52975,2.55371 -2.22493,1.40454 -5.47849,3.36618 -7.23012,4.35919 -1.75164,0.99301 -7.68479,4.41999 -13.18479,7.61551 -5.5,3.19552 -14.05,8.13294 -19,10.97203 -4.95,2.8391 -14.625,8.4483104 -21.5,12.4649204 -6.875,4.01661 -14.3,8.25506 -16.5,9.41878 -2.2,1.16372 -4.225,2.3777496 -4.5,2.6978496 -0.275,0.32009 -7.025,4.32972 -15,8.91029 -13.10147,7.52503 -20.12706,11.57036 -29.75,17.13003 -1.7875,1.03273 -4.7125,2.71529 -6.5,3.73903 -1.7875,1.02373 -10.45,6.03869 -19.25,11.14436 -8.8,5.10566 -20.40282,11.78483 -25.78405,14.84259 -5.92048,3.36418 -9.67188,6.10313 -9.5,6.93606 0.15623,0.75707 2.38515,2.5778 4.95316,4.04607 2.56802,1.46827 10.44302,5.93143 17.5,9.91813 7.05699,3.9867 15.08089,8.54062 17.83089,10.11983 2.75,1.57921 9.5,5.455874 15,8.614794 5.5,3.15892 11.35,6.51841 13,7.46554 1.65,0.94714 5.025,2.86565 7.5,4.26337 2.475,1.39772 7.425,4.2379 11,6.3115 23.81847,13.81542 24.11398,13.92202 29.5,10.64196 z M 253.95745,61.625376 c 3.66436,-2.04404 11.33284,-6.54404 17.04106,-10 5.70821,-3.45596 10.52822,-6.28356 10.71111,-6.28356 0.1829,0 4.45754,-2.475 9.4992,-5.5 5.04166,-3.025 9.31666,-5.5 9.5,-5.5 0.18334,0 4.45834,-2.475 9.5,-5.5 5.04166,-3.025 9.3183,-5.5 9.50365,-5.5 0.18535,0 4.74036,-2.62941 10.12223,-5.84313 5.38188,-3.21372 12.26023,-7.20954 15.28523,-8.8796096 5.06665,-2.79724 10.26935,-5.82164 18.34916,-10.66663 1.73296,-1.03915 5.17584,-3.02214 7.65084,-4.40663 2.475,-1.3845 7.35849,-4.2467804 10.8522,-6.3606304 3.49372,-2.11386 6.49403,-3.84337 6.66738,-3.84337 0.17334,0 3.74031,-2.025 7.92659,-4.5 4.18629,-2.475 7.81887,-4.5 8.0724,-4.5 0.25354,0 3.62018,-2.025 7.48143,-4.5 3.86125,-2.475 7.20367,-4.5 7.4276,-4.5 0.22393,0 3.93183,-2.09735 8.23977,-4.66078 4.30795,-2.56344 8.73704,-5.15094 9.84243,-5.75 16.2348,-8.79851 37.70439,-21.91159 40.69692,-24.85665 l 3.82814,-3.76743 -0.26743,-24.73257 -0.26743,-24.732566 -2.30504,-0.32676 c -1.26778,-0.17972 -2.84278,0.10982 -3.5,0.64343 -0.65723,0.53361 -2.76996,1.86312 -4.69496,2.95446 -1.925,1.09134 -6.425,3.66978 -10,5.72986 -3.575,2.06009 -8.525,4.87946 -11,6.26527 -2.475,1.38581 -5.69447,3.35532 -7.15437,4.37669 -1.4599,1.02138 -2.87641,1.85705 -3.1478,1.85705 -0.27138,0 -3.35191,1.729506 -6.84563,3.843366 -3.49371,2.11385 -8.3772,4.97756 -10.8522,6.3638 -2.475,1.38625 -9.58959,5.50739 -15.81019,9.15811 -6.22061,3.65072 -13.19561,7.69838 -15.5,8.99481 -6.7155,3.77807 -10.68774,6.08396 -18.96861,11.01131 -4.27834,2.54573 -8.06791,4.6286 -8.42126,4.6286 -0.35335,0 -1.35289,0.61193 -2.2212,1.35984 -0.86831,0.74791 -4.05374,2.71473 -7.07874,4.3707 -6.33895,3.47013 -14.32351,8.06285 -25,14.38002 -4.125,2.44071 -10.01371,5.74134 -13.08601,7.33472 l -5.58601,2.89705 -4.91399,-2.52361 c -2.7027,-1.38798 -10.31399,-5.68897 -16.91399,-9.55774 -14.47398,-8.48433 -18.23665,-10.64659 -30.37562,-17.45571 -15.74259,-8.83049 -15.74702,-11.36299 -0.0357,-20.39674 12.12664,-6.97262 16.34849,-9.42105 24.41134,-14.15719 6.21242,-3.64918 8.86222,-5.16542 16.5,-9.441436 2.475,-1.38563 8.1,-4.66758 12.5,-7.29322 8.98249,-5.36017 12.96463,-7.66798 19.5,-11.30102 2.475,-1.37586 5.625,-3.26401 7,-4.19589 1.375,-0.93188 3.175,-1.98302 4,-2.33587 0.825,-0.35285 3.14962,-1.66358 5.16582,-2.91272 7.61865,-4.72016 24.38432,-14.28415 25.58418,-14.5945 0.6875,-0.17783 1.25,-0.74033 1.25,-1.25 -2e-5,-0.50968 0.43702,-0.92668 0.97118,-0.92668 0.53416,0 4.39634,-2.025 8.58263,-4.5 4.18628,-2.475 8.02424,-4.5 8.5288,-4.5 0.50455,0 0.91737,-0.45 0.91737,-1 0,-0.55 0.43704,-1 0.9712,-1 0.53416,0 4.47166,-2.08332 8.75,-4.6296 4.27834,-2.54628 9.7062,-5.71905 12.06191,-7.05061 3.59812,-2.03384 17.98367,-10.41415 29.71689,-17.3116 1.65,-0.96997 5.925,-3.44865 9.5,-5.50819 3.575,-2.05954 8.075,-4.65464 10,-5.76689 1.925,-1.11225 5.75,-3.25929 8.5,-4.77121 2.75,-1.51191 6.0125,-4.2134 7.25,-6.0033 2.2063,-3.19116 2.25,-3.81539 2.25,-32.14167 0,-24.74071 -0.22862,-29.23622 -1.5927,-31.31806 -1.33893,-2.04346 -9.97772,-7.67198 -20.3816,-13.27941 -1.36086,-0.73347 -3.83586,-2.15228 -5.5,-3.15291 -1.66413,-1.00062 -5.0507,-2.94163 -7.5257,-4.31334 -2.475,-1.37171 -8.03584,-4.59825 -12.35743,-7.1701 -4.32158,-2.57184 -9.10261,-4.92512 -10.6245,-5.2295 -2.84566,-0.56913 -6.81675,1.29589 -20.87027,9.80174 -3.49372,2.11456 -6.54225,3.84465 -6.77451,3.84465 -0.23227,0 -3.22378,1.74827 -6.6478,3.88505 -3.42402,2.13679 -9.37549,5.67149 -13.22549,7.8549 -3.85,2.18342 -16.45,9.49301 -28,16.24355 -11.55,6.75054 -22.8,13.29774 -25,14.54932 -2.2,1.25159 -6.025,3.4383 -8.5,4.85935 -6.95992,3.99613 -7.16708,3.94971 -22.5,-5.04255 -24.49615,-14.36619 -40.91204,-23.34962 -42.668,-23.34962 -1.11627,0 -5.85242,2.25 -10.52479,5 -4.67236,2.75 -8.66917,5 -8.88179,5 -0.21262,0 -2.84871,1.575 -5.85797,3.5 -3.00926,1.925 -5.6605,3.5 -5.89164,3.5 -0.23115,0 -4.54526,2.475 -9.58692,5.5 -5.04166,3.025 -9.3838,5.5 -9.64921,5.5 -1.31591,0 -8.36925,5.37408 -8.91296,6.79096 -0.34286,0.89349 -0.63747,14.01854 -0.65467,29.16678 -0.0172,15.14824 -0.33296,29.79226 -0.70167,32.54226 l -0.67038,5 -9.5,5.79467 c -5.225,3.18707 -10.17228,6.08984 -10.99396,6.4506 -0.82167,0.36077 -6.5676,3.71567 -12.76873,7.45533 -6.20113,3.73967 -11.48261,6.7994 -11.73663,6.7994 -1.03147,0 -12.08702,7.46649 -13.21888,8.92752 -0.92892,1.19907 -1.22575,17.39077 -1.25,68.186116 l -0.0318,66.61363039 2.39456,2.39456001 c 1.31701,1.31701 4.12951,3.34129 6.25,4.4984 2.12049,1.15711 11.73044,6.5995596 21.35544,12.0943196 9.625,5.49477 30.325,17.30416 46,26.24309 15.675,8.93893 29.85,17.06801 31.5,18.06463 4.88674,2.95165 9.81511,2.45741 17.33752,-1.73871 z m -7.96508,-193.935596 c -1.0886,-1.31038 -1.43441,-8.53202 -1.6721,-34.91871 -0.16481,-18.29667 0.0868,-34.76575 0.55911,-36.59796 0.56831,-2.20457 1.53968,-3.4315 2.87199,-3.62756 1.93113,-0.28419 10.54236,3.86002 20.63358,9.93004 2.62077,1.57643 4.94565,2.86623 5.16641,2.86623 0.22077,0 4.7717,2.475 10.11318,5.5 5.34148,3.025 9.86529,5.5 10.05291,5.5 1.03906,0 17.25961,10.12293 18.37602,11.46811 2.51033,3.02477 -0.67805,5.8869 -17.28478,15.51612 -36.20738,20.99445 -45.13667,26.01577 -46.26318,26.01577 -0.64938,0 -1.79829,-0.74342 -2.55314,-1.65204 z m 358.89479,99.512446 c 0.15567,-14.35317 -0.14122,-25.71389 -0.71116,-27.21293 -1.03205,-2.7145 -4.12996,-4.93675 -15.55607,-11.15895 -3.85,-2.09656 -9.37124,-5.31416 -12.26942,-7.15023 -2.89818,-1.83606 -5.45769,-3.3383 -5.68781,-3.3383 -0.39394,0 -24.33772,-13.52023 -33.04277,-18.658116 -2.2,-1.29848 -6.475,-3.71011 -9.5,-5.35917 -3.025,-1.64905 -6.175,-3.43877 -7,-3.97715 -8.16165,-5.32608 -26.44019,-15.06754 -27.78643,-14.80864 -1.55575,0.29919 -1.73819,2.66042 -1.98089,25.637606 -0.24985,23.65432 -0.14101,25.48546 1.66561,28.02263 1.06311,1.493 3.20841,3.36872 4.76732,4.16826 1.55891,0.79955 4.88303,2.63184 7.38692,4.07177 4.30071,2.47324 6.43726,3.68184 18.39494,10.40562 2.72111,1.53007 7.12841,4.06788 9.79401,5.63957 2.66559,1.57169 5.23923,2.85762 5.71919,2.85762 0.47997,0 1.02266,0.37215 1.206,0.827 0.18333,0.45485 3.25833,2.41848 6.83333,4.36362 6.36085,3.46091 9.17697,5.07532 27.5,15.76508 11.67815,6.81309 17.35914,10.03838 20.73012,11.76919 1.50157,0.77097 3.00656,1.8490504 3.34444,2.3957404 0.33787,0.5467 1.80932,0.8557 3.26988,0.68668 l 2.65556,-0.30731 0.26723,-24.6395904 z m -296.26723,-34.36041 0,-26 -2.54213,-0.29636 c -1.41383,-0.16483 -4.07689,0.72286 -6,2 -1.90183,1.263 -4.80787,2.9671 -6.45787,3.78689 -1.65,0.81979 -5.34088,2.95729 -8.20196,4.75 -2.86108,1.79271 -5.67358,3.25947 -6.25,3.25947 -0.57642,0 -1.04804,0.34015 -1.04804,0.75589 0,0.41574 -1.4625,1.39575 -3.25,2.1778 -6.93454,3.03393 -12.71357,7.50378 -12.73203,9.84769 -0.0101,1.28142 0.74908,2.55341 1.73203,2.902 0.9625,0.34134 2.425,1.18155 3.25,1.86714 0.825,0.68559 3.075,2.13715 5,3.22569 1.925,1.08855 6.425,3.6674 10,5.73078 3.575,2.06339 8.975,5.11377 12,6.77864 3.025,1.66487 6.4,3.64653 7.5,4.4037 1.1,0.75716 3.125,1.24931 4.5,1.09367 l 2.5,-0.283 0,-26 z m 15.81574,22.3503 c 1.20134,-0.63234 2.40926,-1.42056 2.68426,-1.7516 0.275,-0.33104 1.85,-1.27191 3.5,-2.09082 1.65,-0.81892 5.34088,-2.9557 8.20196,-4.74841 2.86108,-1.79271 5.67358,-3.25947 6.25,-3.25947 0.57642,0 1.05544,-0.3375 1.06449,-0.75 0.009,-0.4125 2.63968,-2.04975 5.84585,-3.63834 9.60868,-4.76089 9.72251,-6.90719 0.6377,-12.02417 -9.05522,-5.10032 -13.83072,-7.83439 -18.74148,-10.72987 -2.66559,-1.57169 -5.27673,-2.85762 -5.80253,-2.85762 -0.52579,0 -0.95599,-0.34015 -0.95599,-0.75589 0,-0.41574 -1.41752,-1.38334 -3.15005,-2.15023 -6.08638,-2.6941 -6.31751,-1.92992 -6.6202,21.8874 -0.27408,21.56674 0.079,24.01872 3.45844,24.01872 0.79381,0 2.42621,-0.51737 3.62755,-1.1497 z m 281.19679,-32.1003 c 0.30286,-1.2375 0.42393,-13.275 0.26906,-26.749996 l -0.28159,-24.5 -2.89149,-0.33008 c -1.59032,-0.18154 -3.16532,0.0435 -3.5,0.5 -0.68096,0.92891 -6.66724,4.33254 -12.35851,7.02669 -2.0625,0.97636 -3.75,2.11904 -3.75,2.53929 0,0.42026 -0.41775,0.7641 -0.92833,0.7641 -1.23045,0 -13.4778,7.25248 -13.905,8.23408 -0.18334,0.42126 -1.15834,0.76592 -2.16667,0.76592 -1.00833,0 -1.98333,0.3375 -2.16667,0.75 -0.18333,0.4125 -1.68333,1.50914 -3.33333,2.43698 -1.86362,1.04797 -3,2.49232 -3,3.81302 0,1.3207 1.13638,2.765046 3,3.813016 1.65,0.92784 3.225,1.91198 3.5,2.18698 0.275,0.275 1.4,0.99049 2.5,1.58997 1.1,0.59949 4.1375,2.28699 6.75,3.75 2.6125,1.46302 6.8875,3.84936 9.5,5.30298 2.6125,1.45363 5.875,3.40795 7.25,4.34294 1.375,0.93499 3.9625,2.33051 5.75,3.10116 1.7875,0.77064 3.25,1.74132 3.25,2.15706 0,0.41574 1.34143,0.75589 2.98095,0.75589 2.26153,0 3.11384,-0.54301 3.53158,-2.25 z M 367.11993,-101.623 c 0,-23.25106 -0.12678,-25.03266 -1.8468,-25.95319 -1.03235,-0.5525 -2.24512,-0.60957 -2.75,-0.12942 -0.49676,0.47242 -2.4782,1.72729 -4.4032,2.78858 -1.925,1.06129 -5.6375,3.1287 -8.25,4.59424 -2.6125,1.46553 -6.8875,3.85775 -9.5,5.31604 -2.6125,1.45828 -4.975,2.9215 -5.25,3.25159 -0.275,0.33009 -1.85,1.27373 -3.5,2.09698 -1.65,0.82325 -3.225,1.72325 -3.5,2 -0.275,0.27675 -1.7375,1.14101 -3.25,1.92057 -3.36803,1.73593 -3.8371,5.982386 -0.75,6.789676 1.1,0.28766 2,0.92053 2,1.40638 0,0.48585 0.47162,0.88337 1.04804,0.88337 0.57642,0 3.38892,1.46676 6.25,3.25947 2.86108,1.79271 6.55196,3.92595 8.20196,4.74053 1.65,0.81458 5.34088,2.94782 8.20196,4.74053 2.86108,1.79271 5.67358,3.25947 6.25,3.25947 0.57642,0 1.04804,0.34329 1.04804,0.76287 0,1.17797 4.18968,2.97771 7.25,3.11435 l 2.75,0.12278 0,-24.964816 z m 21.46902,19.441486 c 2.9892,-1.91217 5.90652,-3.47667 6.48294,-3.47667 0.57642,0 1.04804,-0.45 1.04804,-1 0,-0.55 0.9,-1 2,-1 1.1,0 2,-0.45 2,-1 0,-0.55 0.44126,-1 0.98058,-1 0.53932,0 3.44271,-1.575 6.45197,-3.5 3.00926,-1.925 5.87325,-3.5 6.36443,-3.5 1.58792,0 4.38831,-3.802816 4.04067,-5.487066 -0.18571,-0.89974 -2.58765,-2.84572 -5.33765,-4.32441 -2.75,-1.47868 -5.225,-2.91352 -5.5,-3.18852 -0.275,-0.275 -1.4,-0.99049 -2.5,-1.58997 -4.83127,-2.63297 -11.45569,-6.40373 -17.16826,-9.77251 -11.97245,-7.06033 -12.33174,-6.47726 -12.33174,20.01279 0,19.174216 0.17097,21.352246 1.75,22.293766 2.43512,1.45197 5.40027,0.57464 11.71902,-3.46741 z m 153.29964,-53.163606 c -0.33444,-28.12941 0.0731,-27.59092 -14.26866,-18.8535 -2.2,1.34031 -5.125,3.06251 -6.5,3.82712 -8.57958,4.77092 -12.79935,7.19133 -15.00429,8.60627 -1.37736,0.88388 -3.40236,2.10609 -4.5,2.71604 -1.23835,0.68813 -1.99571,2.14807 -1.99571,3.84705 0,2.80001 1.93888,4.27935 14,10.6818 2.2,1.16783 5.19447,2.96457 6.65437,3.99274 1.4599,1.02818 3.3349,1.86942 4.16667,1.86942 0.83176,0 1.66229,0.39278 1.84563,0.87285 0.18333,0.48006 2.96727,2.27104 6.18653,3.97995 4.58813,2.43556 6.26719,2.88554 7.76866,2.08198 1.81316,-0.97037 1.90111,-2.23191 1.6468,-23.62172 z m -116.37565,22.10515 c 1.06289,-2.76984 0.67927,-44.41464 -0.42819,-46.48395 -1.00371,-1.87543 -5.96482,-2.80772 -5.96482,-1.12091 0,0.44735 -1.575,1.43134 -3.5,2.18665 -1.925,0.75531 -3.5,1.7393 -3.5,2.18665 0,0.44734 -0.47162,0.81335 -1.04804,0.81335 -0.57642,0 -3.51015,1.575 -6.51941,3.5 -3.00926,1.925 -5.67891,3.5 -5.93255,3.5 -0.25364,0 -2.8324,1.47603 -5.73058,3.28006 -2.89818,1.80404 -6.54176,3.92372 -8.09685,4.71042 -6.18661,3.12972 -5.4173,5.99757 2.82743,10.54019 2.75,1.51518 7.25,4.06537 10,5.66709 2.75,1.60172 5.7875,3.16496 6.75,3.47386 0.9625,0.3089 1.75,0.95916 1.75,1.44501 0,0.48585 0.44373,0.88337 0.98606,0.88337 0.54233,0 3.35483,1.55221 6.25,3.44936 5.72727,3.75296 11.13617,4.62895 12.15695,1.96885 z m 16.52825,0.22195 c 0.86831,-0.74791 4.05374,-2.71874 7.07874,-4.37962 10.53218,-5.78269 15.50322,-8.64561 16,-9.21472 0.275,-0.31504 2.6679,-1.66561 5.31755,-3.00127 5.72591,-2.88636 7.26283,-5.14235 5.46476,-8.02152 -0.69487,-1.11267 -1.58535,-2.02303 -1.97885,-2.02303 -0.3935,0 -2.89639,-1.28593 -5.56198,-2.85762 -2.6656,-1.57169 -6.8479,-3.99523 -9.29401,-5.38563 -5.8324,-3.31523 -13.47591,-7.83628 -16.79431,-9.93366 -3.68811,-2.33105 -6.87943,-2.2609 -7.65038,0.16816 -0.99066,3.12129 -1.33399,41.2464 -0.39406,43.75875 0.97288,2.60041 5.25989,3.08888 7.81254,0.89016 z m 114.5396,0.42316 c 0.3184,-0.51517 1.80745,-1.56666 3.30902,-2.33664 2.67298,-1.37066 6.18398,-3.33999 15.23012,-8.54261 2.475,-1.42343 4.725,-2.85369 5,-3.17836 0.275,-0.32468 1.85,-1.25275 3.5,-2.06238 7.17026,-3.51834 11.48514,-6.56094 11.4923,-8.10369 0.007,-1.54049 -8.12143,-7.23967 -15.4923,-10.8621 -1.65,-0.81089 -3.225,-1.70007 -3.5,-1.97595 -0.58697,-0.58884 -5.02705,-3.07721 -11.14298,-6.24491 -2.39636,-1.24117 -4.58202,-2.48168 -4.85702,-2.75668 -1.47411,-1.47411 -5.28194,-3 -7.48643,-3 l -2.51357,0 0,24.33333 c 0,13.38334 0.3,24.63334 0.66667,25 0.99658,0.99659 5.13045,0.80395 5.79419,-0.27001 z m -58.46086,-33.9481 c 0.50886,-0.62612 1.80093,-1.39106 9.9212,-5.87356 2.51834,-1.39017 5.77327,-3.36324 7.23317,-4.38461 1.4599,-1.02138 2.9086,-1.85705 3.21932,-1.85705 0.31072,0 4.43069,-2.28332 9.15548,-5.07404 9.51774,-5.6217 10.46635,-7.6727 4.97083,-10.74745 -1.65,-0.92318 -3.225,-1.90958 -3.5,-2.192 -0.275,-0.28242 -2.75,-1.61934 -5.5,-2.97093 -2.75,-1.35159 -6.35,-3.41924 -8,-4.59477 -1.65,-1.17553 -4.4625,-2.76096 -6.25,-3.52318 -1.7875,-0.76222 -3.25,-1.726 -3.25,-2.14174 0,-0.41574 -0.45894,-0.75589 -1.01987,-0.75589 -0.56093,0 -2.84425,-1.15168 -5.07403,-2.55928 -2.40999,-1.52136 -5.13941,-2.43385 -6.73013,-2.25 l -2.67597,0.30928 -0.26869,23.99975 c -0.24307,21.71146 -0.10505,24.11941 1.44755,25.25469 1.58698,1.16043 5.15148,0.79997 6.32114,-0.63922 z m -15.57787,-3.56566 c 0.30281,-1.12726 0.55671,-10.90492 0.56422,-21.72813 0.0115,-16.56878 -0.23468,-19.9269 -1.55778,-21.25 -2.46171,-2.46171 -1.50363,-2.81271 -18.92857,6.93451 -2.75,1.5383 -5.225,3.10232 -5.5,3.4756 -0.275,0.37328 -1.9625,1.31499 -3.75,2.09268 -1.7875,0.7777 -3.25,1.75415 -3.25,2.16989 0,0.41574 -0.43166,0.75589 -0.95924,0.75589 -2.18305,0 -10.04076,5.61135 -10.04076,7.17031 0,1.57847 4.41124,4.6332 16,11.07982 2.475,1.37679 7.425,4.18937 11,6.25016 3.575,2.0608 7.85,4.52105 9.5,5.46722 3.40642,1.95338 5.99034,1.05079 6.92213,-2.41795 z m 122.07787,-22.6476 c 0,-22.0567 -0.2536,-26.90332 -1.48532,-28.38601 -1.5566,-1.87377 -5.47259,-4.49622 -13.01468,-8.71565 -7.60443,-4.25431 -11.99077,-6.75148 -26.0421,-14.82594 -7.44815,-4.28001 -15.77315,-9.01448 -18.5,-10.52105 -2.72684,-1.50657 -6.15237,-3.57489 -7.61227,-4.59626 -1.4599,-1.02138 -2.88342,-1.85705 -3.16337,-1.85705 -0.27995,0 -7.13655,-3.84683 -15.23688,-8.54852 -22.90172,-13.29287 -25.20759,-14.47996 -26.88001,-13.83819 -1.36374,0.52331 -1.56537,3.87791 -1.56537,26.04336 0,27.80071 0.35627,29.82727 5.73357,32.6143 1.52153,0.78861 10.86643,6.05615 20.76643,11.70565 9.9,5.64949 19.575,11.16931 21.5,12.26625 1.925,1.09694 8.16623,4.68575 13.86941,7.97513 5.70317,3.28938 12.67817,7.25038 15.5,8.80221 2.82182,1.55184 11.20559,6.42358 18.63059,10.82609 7.425,4.40252 14.4,7.92563 15.5,7.82915 1.94547,-0.17065 2,-0.90057 2,-26.77347 z"
         id="path5596"
         inkscape:connector-curvature="0" />
    </g>
  </g>
</svg>
