<?xml version="1.0" encoding="UTF-8" standalone="no"?>
<!-- Created with Inkscape (http://www.inkscape.org/) -->

<svg
   xmlns:dc="http://purl.org/dc/elements/1.1/"
   xmlns:cc="http://creativecommons.org/ns#"
   xmlns:rdf="http://www.w3.org/1999/02/22-rdf-syntax-ns#"
   xmlns:svg="http://www.w3.org/2000/svg"
   xmlns="http://www.w3.org/2000/svg"
   xmlns:sodipodi="http://sodipodi.sourceforge.net/DTD/sodipodi-0.dtd"
   xmlns:inkscape="http://www.inkscape.org/namespaces/inkscape"
   width="91"
   height="30"
   id="svg4943"
   version="1.1"
   inkscape:version="0.48.5 r10040"
   sodipodi:docname="fastcompany-black.svg">
  <defs
     id="defs4945" />
  <sodipodi:namedview
     id="base"
     pagecolor="#ffffff"
     bordercolor="#666666"
     borderopacity="1.0"
     inkscape:pageopacity="0.0"
     inkscape:pageshadow="2"
     inkscape:zoom="5.3810644"
     inkscape:cx="20.5"
     inkscape:cy="15"
     inkscape:current-layer="layer1"
     showgrid="true"
     inkscape:document-units="px"
     inkscape:grid-bbox="true"
     inkscape:window-width="1440"
     inkscape:window-height="851"
     inkscape:window-x="0"
     inkscape:window-y="0"
     inkscape:window-maximized="1" />
  <metadata
     id="metadata4948">
    <rdf:RDF>
      <cc:Work
         rdf:about="">
        <dc:format>image/svg+xml</dc:format>
        <dc:type
           rdf:resource="http://purl.org/dc/dcmitype/StillImage" />
        <dc:title></dc:title>
      </cc:Work>
    </rdf:RDF>
  </metadata>
  <g
     id="layer1"
     inkscape:label="Layer 1"
     inkscape:groupmode="layer"
     transform="translate(0,-34)">
    <path
       style="fill:#000000"
       d="m 30.13559,63.875766 c -0.29968,-0.0719 -1.25961,-0.38082 -2.13316,-0.68648 -1.4527,-0.5083 -1.62895,-0.51893 -2.06477,-0.12452 -0.26207,0.23717 -0.69503,0.43122 -0.96214,0.43122 -0.39748,0 -0.45802,-0.16073 -0.3335,-0.88544 0.0837,-0.48699 0.22636,-1.62103 0.31709,-2.52009 0.25678,-2.54465 0.36269,-2.86064 0.95881,-2.86064 0.30579,0 0.5397,0.18298 0.5397,0.42219 0,0.57716 0.75738,2.03004 1.46219,2.80489 0.81668,0.89785 1.88897,1.40199 3.56067,1.67406 4.39565,0.71541 7.57746,-2.56155 6.65656,-6.855601 -0.37565,-1.751576 -1.48664,-2.894224 -5.48233,-5.63855 -4.6575,-3.198878 -6.02567,-5.125155 -6.02382,-8.481095 0.002,-2.993173 1.61884,-5.173798 4.58584,-6.183548 1.71814,-0.584728 5.02076,-0.582986 6.66755,0.0035 1.15295,0.410623 1.22762,0.405902 1.58199,-0.100033 0.20456,-0.292049 0.56315,-0.530998 0.79688,-0.530998 0.43243,0 0.41134,1.117593 -0.0915,4.849479 -0.20467,1.518917 -0.92325,1.478788 -1.24494,-0.06952 -0.37561,-1.807833 -1.82694,-2.87286 -3.9149,-2.87286 -3.36104,0 -5.36055,2.303256 -4.4982,5.181517 0.37313,1.245394 1.84482,2.600773 6.28667,5.789822 4.70529,3.378174 5.90922,5.306751 5.68539,9.107427 -0.19143,3.25056 -1.71693,5.40885 -4.84547,6.85542 -1.25767,0.58151 -1.96743,0.7088 -4.23529,0.75957 -1.49843,0.0335 -2.96962,0.002 -3.26931,-0.0697 z m 46.19861,-0.23906 c -5.59565,-1.274 -9.38951,-4.85082 -10.76163,-10.145977 -0.5372,-2.073118 -0.55418,-6.524495 -0.0324,-8.485021 2.12362,-7.978773 10.73619,-12.319547 19.78897,-9.973736 1.51172,0.391727 1.71488,0.392581 2.13875,0.009 0.65234,-0.590353 1.45406,-0.557176 1.27866,0.05291 -0.0754,0.262226 -0.22083,1.672116 -0.3232,3.133088 -0.16486,2.352745 -0.2447,2.656315 -0.69862,2.656315 -0.28187,0 -0.51249,-0.145191 -0.51249,-0.322647 0,-0.177455 -0.25697,-0.853484 -0.57105,-1.502284 -0.8614,-1.779423 -2.45074,-2.604536 -5.30548,-2.754371 -5.11566,-0.268504 -9.04917,2.476866 -10.79772,7.536201 -0.53405,1.545253 -0.62278,2.330302 -0.605,5.352596 0.0237,4.034551 0.52161,5.961364 2.18977,8.474556 3.58711,5.4042 11.80159,5.97787 15.32593,1.07031 0.8208,-1.14293 1.47578,-1.52839 1.75196,-1.03104 0.0624,0.11238 -0.33076,1.43032 -0.87371,2.92876 l -0.98718,2.72442 -1.76653,0.18372 c -4.39984,0.45759 -7.50121,0.48888 -9.23907,0.0932 z M 0.21232954,63.314346 c -0.45602,-0.45602 -0.0906,-0.87561 0.90964996,-1.04461 1.9643,-0.33187 1.90559,0.0729 1.90559,-13.137606 0,-11.427368 -0.0168,-11.807412 -0.54489,-12.335509 -0.29968,-0.299687 -0.78005,-0.544885 -1.06748,-0.544885 -0.80079996,0 -1.38449996,-0.291861 -1.38449996,-0.692279 0,-0.290608 1.62475996,-0.37843 8.28133996,-0.447626 7.4306005,-0.07724 8.3354105,-0.135065 8.8077205,-0.56286 1.08458,-0.982368 1.24879,-0.661119 1.04447,2.043318 -0.24458,3.237318 -0.37556,3.746083 -0.96437,3.746083 -0.34642,0 -0.52711,-0.291314 -0.64744,-1.043806 -0.30001,-1.876175 -0.7841,-2.077222 -5.24309,-2.177491 l -3.9226805,-0.08821 0,5.365223 0,5.365224 2.59119,-0.113331 C 12.82882,47.52129 13.27708,47.295057 13.81316,45.710335 c 0.16311,-0.482163 0.50026,-0.916303 0.74922,-0.964748 0.40464,-0.07875 0.45266,0.318599 0.45266,3.746083 0,3.577232 -0.0345,3.83417 -0.51457,3.83417 -0.37156,0 -0.56387,-0.262828 -0.69198,-0.945719 -0.27424,-1.461817 -0.97075,-1.778706 -3.9095505,-1.778706 l -2.54288,0 0.0834,5.693353 c 0.0931,6.357018 0.17897,6.653348 2.0279,7.000208 0.6558605,0.12304 0.9161405,0.31807 0.9161405,0.68644 0,0.48574 -0.27973,0.51456 -4.9947705,0.51456 -2.74713,0 -5.07650996,-0.0817 -5.17640996,-0.18163 z m 46.58766046,0 c -0.42814,-0.42813 -0.11726,-0.85957 0.73451,-1.01937 0.50388,-0.0945 1.14753,-0.42743 1.43033,-0.73979 0.48493,-0.53562 0.51852,-1.2481 0.59052,-12.52702 l 0.0764,-11.959103 -2.69592,0 c -3.14189,0 -3.92169,0.388155 -4.40799,2.194147 -0.21892,0.812996 -0.42721,1.075162 -0.85421,1.075162 -0.48778,0 -0.54326,-0.120629 -0.40727,-0.885438 0.0866,-0.48699 0.23975,-1.835581 0.34035,-2.996866 0.15364,-1.773702 0.26041,-2.111429 0.6675,-2.111429 0.26653,0 0.53571,0.153249 0.59818,0.340553 0.16473,0.493892 17.73269,0.493892 18.22644,0 0.18725,-0.187304 0.57477,-0.340553 0.86116,-0.340553 0.43815,0 0.49575,0.140409 0.36328,0.885438 -0.0866,0.48699 -0.23975,1.835581 -0.34035,2.996866 -0.15344,1.77149 -0.26071,2.111429 -0.66625,2.111429 -0.35153,0 -0.53353,-0.296935 -0.66729,-1.088689 -0.29913,-1.770535 -1.07615,-2.18062 -4.1318,-2.18062 l -2.5597,0 0.0763,11.959103 c 0.072,11.27892 0.10559,11.9914 0.59052,12.52702 0.2828,0.31236 0.92645,0.64527 1.43033,0.73979 0.65585,0.12304 0.91614,0.31807 0.91614,0.68644 0,0.48574 -0.27973,0.51456 -4.99477,0.51456 -2.74713,0 -5.07652,-0.0817 -5.17641,-0.18163 z m 33.19257,-5.63187 c -1.78087,-0.59008 -2.70634,-1.16939 -3.79725,-2.376895 -1.67001,-1.848498 -2.17895,-3.270132 -2.18836,-6.112829 -0.007,-2.143613 0.0878,-2.647373 0.75481,-4.005615 0.9307,-1.895248 2.99866,-3.823048 4.73603,-4.415029 0.70011,-0.238555 2.15101,-0.433736 3.22421,-0.433736 1.63264,0 2.22444,0.136506 3.62415,0.835947 3.23306,1.615577 4.81975,4.463871 4.61858,8.290875 -0.1904,3.622204 -1.79695,6.217062 -4.74091,7.657402 -1.76862,0.86531 -4.55414,1.11559 -6.23126,0.55988 z m 5.18076,-2.363992 c 2.96382,-2.872642 2.47812,-11.30084 -0.74735,-12.968799 -1.14181,-0.590451 -3.13955,-0.532542 -4.01617,0.116418 -1.75715,1.30082 -2.45681,3.183017 -2.45904,6.615239 -0.003,4.990391 1.72042,7.492524 4.98596,7.237844 1.0344,-0.0807 1.50428,-0.29091 2.2366,-1.000702 z m -70.97561,0.605452 c 0,-0.31608 0.31258,-0.58057 0.88544,-0.74922 0.87373,-0.257227 0.91512,-0.347114 3.13065,-6.799292 1.23487,-3.59624 2.24631,-6.764644 2.24765,-7.040899 0.001,-0.276253 -0.24276,-0.566401 -0.54245,-0.64477 -0.30157,-0.07886 -0.54488,-0.371616 -0.54488,-0.6556 0,-0.45931 0.22615,-0.51311 2.15687,-0.51311 l 2.15686,0 2.3395,7.015393 c 2.49001,7.466759 3.08593,8.786269 3.96802,8.786269 0.36726,0 0.54889,0.180299 0.54889,0.544889 0,0.51694 -0.18163,0.54488 -3.54176,0.54488 -3.31759,0 -3.54175,-0.0333 -3.54175,-0.52594 0,-0.33799 0.21906,-0.557043 0.613,-0.612992 0.52572,-0.07466 0.60833,-0.242209 0.58026,-1.176828 -0.018,-0.599374 -0.16822,-1.426918 -0.33381,-1.838987 -0.29833,-0.742378 -0.32431,-0.749217 -2.84627,-0.749217 l -2.54519,0 -0.47769,1.515407 c -0.49644,1.574875 -0.32394,2.298788 0.54776,2.298788 0.20642,0 0.37531,0.245199 0.37531,0.544889 0,0.50664 -0.18163,0.54488 -2.58821,0.54488 -2.30708,0 -2.5882,-0.0531 -2.5882,-0.48854 z m 9.26304,-6.226231 c 0,-0.289299 -1.64875,-5.346262 -1.87472,-5.750046 -0.14357,-0.256557 -0.30856,-0.04898 -0.52872,0.665206 -0.17602,0.570975 -0.61725,1.988278 -0.98052,3.149564 l -0.66049,2.111429 2.02223,0 c 1.11222,0 2.02222,-0.07927 2.02222,-0.176153 z"
       id="path6447"
       inkscape:connector-curvature="0"
       sodipodi:nodetypes="cssscssssssscsssssssssssccccscsccssssssssscscscccssssssssssscccsscsssscssssccccsscssscsscssccssscsscsscsscssssssssssccsssscssscssssssssscssssssccscss" />
  </g>
</svg>
