<?xml version="1.0" encoding="UTF-8" standalone="no"?>
<!-- Created with Inkscape (http://www.inkscape.org/) -->

<svg
   xmlns:dc="http://purl.org/dc/elements/1.1/"
   xmlns:cc="http://creativecommons.org/ns#"
   xmlns:rdf="http://www.w3.org/1999/02/22-rdf-syntax-ns#"
   xmlns:svg="http://www.w3.org/2000/svg"
   xmlns="http://www.w3.org/2000/svg"
   xmlns:sodipodi="http://sodipodi.sourceforge.net/DTD/sodipodi-0.dtd"
   xmlns:inkscape="http://www.inkscape.org/namespaces/inkscape"
   width="64px"
   height="64px"
   id="svg4943"
   version="1.1"
   inkscape:version="0.48.5 r10040"
   sodipodi:docname="fastcompany.svg">
  <defs
     id="defs4945" />
  <sodipodi:namedview
     id="base"
     pagecolor="#ffffff"
     bordercolor="#666666"
     borderopacity="1.0"
     inkscape:pageopacity="0.0"
     inkscape:pageshadow="2"
     inkscape:zoom="10.453125"
     inkscape:cx="32"
     inkscape:cy="32"
     inkscape:current-layer="layer1"
     showgrid="true"
     inkscape:document-units="px"
     inkscape:grid-bbox="true"
     inkscape:window-width="1440"
     inkscape:window-height="851"
     inkscape:window-x="0"
     inkscape:window-y="1"
     inkscape:window-maximized="1" />
  <metadata
     id="metadata4948">
    <rdf:RDF>
      <cc:Work
         rdf:about="">
        <dc:format>image/svg+xml</dc:format>
        <dc:type
           rdf:resource="http://purl.org/dc/dcmitype/StillImage" />
        <dc:title />
      </cc:Work>
    </rdf:RDF>
  </metadata>
  <g
     id="layer1"
     inkscape:label="Layer 1"
     inkscape:groupmode="layer">
    <path
       style="fill:#333333"
       d="m 16.495432,45.081255 c -1.2575,-0.43456 -1.9736,-1.23423 -2.32022,-2.59099 -0.53443,-2.09187 0.51319,-4.0566 2.4883,-4.66665 0.93465,-0.28868 1.85672,-0.31506 2.65155,-0.0759 0.48284,0.14531 0.58874,0.14551 0.70838,10e-4 0.24098,-0.29037 0.31024,-0.094 0.237,0.67211 -0.0663,0.6938 -0.22431,1.08811 -0.3255,0.81243 -0.0248,-0.0675 -0.15276,-0.29939 -0.28441,-0.51533 -0.44758,-0.73414 -1.8439,-0.84001 -2.90182,-0.22003 -0.93521,0.54807 -1.39858,1.50191 -1.39858,2.87894 0,1.9984 0.91097,3.20448 2.56867,3.40081 0.80329,0.0951 1.39604,-0.12884 1.90042,-0.71809 0.23275,-0.27192 0.47451,-0.46268 0.53724,-0.42391 0.0653,0.0404 0.006,0.38028 -0.13984,0.79525 l -0.2539,0.72476 -0.7289,0.0762 c -1.21353,0.12684 -2.07131,0.0796 -2.73839,-0.15098 z m 25.22633,-2.50341 -1.64304,-2.73057 -0.0334,2.31582 c -0.0348,2.40744 0.01,2.65444 0.478,2.65444 0.12673,0 0.23042,0.0828 0.23042,0.18408 0,0.15639 -0.31282,0.18409 -2.07904,0.18409 -2.04104,0 -2.59839,-0.10623 -1.91683,-0.36536 0.37372,-0.14209 0.40147,-0.43926 0.11857,-1.26953 l -0.19562,-0.57412 -1.15737,0 c -1.14955,0 -1.15823,0.002 -1.28609,0.33749 -0.0708,0.18562 -0.159,0.59161 -0.19598,0.9022 -0.0597,0.50127 -0.038,0.57236 0.19312,0.6328 0.14321,0.0375 0.26039,0.12849 0.26039,0.20231 0,0.0859 -0.35105,0.13421 -0.97454,0.13421 -0.99064,0 -1.36048,-0.15695 -0.83796,-0.35561 0.1587,-0.0603 0.34977,-0.1845 0.42459,-0.2759 0.15683,-0.19157 2.00152,-5.89798 2.00152,-6.19153 0,-0.10732 -0.11271,-0.2246 -0.25046,-0.26062 -0.52298,-0.13676 -0.14629,-0.34106 0.62885,-0.34106 l 0.78747,0 0.33154,0.98178 c 0.18235,0.53998 0.66376,2.03184 1.06981,3.31525 0.81324,2.57041 0.97448,2.89786 1.32204,2.68487 0.20284,-0.12431 0.22478,-0.39428 0.25472,-3.13473 0.0315,-2.88003 0.0228,-3.00942 -0.21954,-3.26953 -0.13877,-0.14896 -0.333,-0.27083 -0.43162,-0.27083 -0.0986,0 -0.1793,-0.0828 -0.1793,-0.18408 0,-0.14673 0.18081,-0.18409 0.89096,-0.18409 l 0.89095,0 1.47145,2.45695 1.47146,2.45695 0.0351,-1.93538 c 0.0408,-2.2482 0.008,-2.4568 -0.40512,-2.56042 -0.16772,-0.0421 -0.30494,-0.15339 -0.30494,-0.24732 0,-0.13877 0.36798,-0.17078 1.96356,-0.17078 1.59655,0 1.96356,0.032 1.96356,0.17096 0,0.094 -0.0828,0.20274 -0.18408,0.24159 -0.30592,0.11739 -0.20532,0.56835 0.42601,1.9097 l 0.60203,1.27911 0.62116,-1.32689 c 0.68457,-1.46232 0.74626,-1.77384 0.3707,-1.87205 -0.54407,-0.14228 -0.12933,-0.3422 0.78189,-0.3769 0.73628,-0.028 0.94125,0.001 0.94125,0.13371 0,0.0933 -0.13682,0.23188 -0.30404,0.30807 -0.21899,0.0998 -0.54511,0.61975 -1.16586,1.8589 l -0.86183,1.72038 0,1.3884 c 0,1.43231 0.0768,1.68293 0.51543,1.68293 0.1215,0 0.2209,0.0828 0.2209,0.18408 0,0.15248 -0.2318,0.18409 -1.34994,0.18409 -1.11814,0 -1.34995,-0.0316 -1.34995,-0.18409 0,-0.10124 0.10851,-0.18408 0.24113,-0.18408 0.37454,0 0.4952,-0.38241 0.4952,-1.56947 l 0,-1.09472 -0.90396,-1.89137 c -1.03287,-2.16107 -1.18991,-2.36126 -1.49136,-1.90118 -0.17863,0.27262 -0.19785,0.70416 -0.16162,3.6286 0.0539,4.34563 0.12814,4.32501 -2.12023,0.58845 z m -5.26335,-0.31088 c 0,-0.26165 -0.94693,-2.88128 -1.0053,-2.78111 -0.0999,0.17143 -0.83554,2.58648 -0.83554,2.74301 0,0.0852 0.33605,0.13422 0.92042,0.13422 0.50623,0 0.92042,-0.0433 0.92042,-0.0961 z m -15.99151,2.84026 c -0.12738,-0.12738 0.0337,-0.28969 0.28743,-0.28969 0.50298,0 0.58842,-0.40838 0.70603,-3.37487 0.0645,-1.62613 0.0662,-2.91304 0.004,-3.03593 -0.0593,-0.11733 -0.24438,-0.24757 -0.41117,-0.28943 -0.1668,-0.0419 -0.30327,-0.15529 -0.30327,-0.25206 0,-0.14046 0.18773,-0.16871 0.93095,-0.1401 l 0.93094,0.0358 0.90246,2.37543 c 0.49635,1.30648 0.9356,2.40857 0.97612,2.44909 0.0405,0.0405 0.10374,-0.0344 0.1405,-0.16642 0.0368,-0.13205 0.46256,-1.23414 0.94623,-2.44909 l 0.8794,-2.20901 0.82838,-0.0363 c 0.65528,-0.0287 0.82837,6.1e-4 0.82837,0.1401 0,0.097 -0.13197,0.2095 -0.29327,0.24999 -0.16129,0.0405 -0.31909,0.14311 -0.35066,0.22807 -0.0989,0.26605 0.15211,5.90802 0.27573,6.19855 0.0666,0.15653 0.22494,0.27612 0.36557,0.27612 0.1387,0 0.24808,0.0812 0.24808,0.18408 0,0.15248 -0.23181,0.18409 -1.34995,0.18409 -1.11814,0 -1.34995,-0.0316 -1.34995,-0.18409 0,-0.10292 0.10938,-0.18408 0.24808,-0.18408 0.44701,0 0.50779,-0.41694 0.40287,-2.7633 l -0.0987,-2.20696 -0.4134,1.1045 c -0.22738,0.60748 -0.6268,1.71198 -0.88761,2.45445 -0.68601,1.95292 -0.72154,1.93483 -1.74082,-0.88597 -0.45805,-1.26765 -0.8852,-2.38765 -0.94922,-2.4889 -0.0758,-0.11985 -0.11705,0.63166 -0.11827,2.15378 -0.002,2.41952 0.0396,2.6324 0.51355,2.6324 0.1215,0 0.2209,0.0828 0.2209,0.18408 0,0.15049 -0.20908,0.18409 -1.14541,0.18409 -0.62997,0 -1.18072,-0.0353 -1.22389,-0.0785 z m 8.13726,-0.0375 c 0,-0.0638 0.15187,-0.18878 0.33749,-0.27771 l 0.33749,-0.16168 0.0328,-3.11269 c 0.0342,-3.24591 0.005,-3.4498 -0.48761,-3.4498 -0.13862,0 -0.21844,-0.065 -0.18828,-0.1534 0.0687,-0.20121 2.88433,-0.18944 3.61351,0.0151 0.97404,0.27324 1.63165,1.08665 1.63165,2.01824 0,1.36885 -0.97578,2.2971 -2.61755,2.49006 l -0.69596,0.0818 0,0.94142 c 0,0.98424 0.126,1.30427 0.54209,1.37684 0.1294,0.0226 0.25826,0.11006 0.28635,0.19444 0.0389,0.11683 -0.2878,0.1534 -1.37046,0.1534 -0.81118,0 -1.42154,-0.0498 -1.42154,-0.11603 z m 3.45442,-3.51707 c 0.57552,-0.51276 0.76317,-1.61855 0.41576,-2.45003 -0.20324,-0.48642 -0.76857,-0.78933 -1.47314,-0.78933 l -0.43348,0 0,1.79509 0,1.79509 0.61486,-0.0591 c 0.35953,-0.0345 0.7233,-0.1557 0.876,-0.29174 z m -13.99349,2.16391 c -1.70321,-0.4175 -2.2695,-2.65795 -0.99417,-3.93328 0.89611,-0.89611 2.2905,-0.89493 3.18811,0.003 1.64099,1.64099 0.0553,4.48195 -2.19394,3.93061 z m 1.27057,-0.66435 c 0.84665,-0.84664 0.62308,-3.10362 -0.34102,-3.44267 -1.14638,-0.40316 -1.99014,1.4837 -1.32174,2.95574 0.12711,0.27992 0.33299,0.56817 0.45752,0.64056 0.38417,0.22331 0.89319,0.15842 1.20524,-0.15363 z m 11.90704,-7.25226 c -0.40499,-0.0892 -1.03568,-0.28096 -1.40155,-0.42623 l -0.66522,-0.26413 -0.26234,0.329 c -0.20287,0.25442 -0.325,0.30912 -0.53874,0.24128 -0.2205,-0.07 -0.26362,-0.15385 -0.21319,-0.41459 0.0348,-0.17978 0.12763,-0.96195 0.20637,-1.73817 0.0787,-0.77622 0.18612,-1.45822 0.23865,-1.51555 0.14966,-0.16335 0.6108,0.0364 0.61379,0.26591 0.005,0.39138 0.45875,1.20922 0.91828,1.65552 0.63925,0.62082 1.56641,0.94406 2.70789,0.94406 0.50586,0 1.09746,-0.0745 1.31466,-0.16548 1.05415,-0.44175 1.80131,-1.50298 1.89579,-2.6927 0.13024,-1.63998 -0.40999,-2.38839 -2.99848,-4.154 -2.64355,-1.80318 -3.41024,-2.7032 -3.70976,-4.35494 -0.34315,-1.89236 0.60584,-3.47635 2.53418,-4.2299 0.97892,-0.38254 2.95444,-0.39613 4.00035,-0.0275 l 0.71355,0.25148 0.1903,-0.29043 c 0.10466,-0.15974 0.2944,-0.29043 0.42163,-0.29043 0.27281,0 0.27802,0.16398 0.0664,2.08629 -0.12643,1.14833 -0.16797,1.28858 -0.3817,1.28858 -0.18479,0 -0.284,-0.15263 -0.43224,-0.66494 -0.34624,-1.19661 -1.15495,-1.68084 -2.63949,-1.58042 -1.49368,0.10103 -2.29254,0.84568 -2.30441,2.14803 -0.0117,1.27696 0.37934,1.7402 2.98843,3.54072 1.99722,1.37827 3.2283,2.52745 3.67344,3.42908 0.26642,0.53962 0.30301,0.77638 0.3035,1.96356 4.9e-4,1.20718 -0.0341,1.42388 -0.32714,2.04903 -0.61265,1.30701 -1.8341,2.23399 -3.44368,2.61349 -0.93633,0.22076 -2.47508,0.22227 -3.46926,0.003 z m -17.24252,-0.49103 c 0,-0.22596 0.0791,-0.32089 0.30681,-0.36817 0.16874,-0.035 0.44417,-0.0922 0.61206,-0.12701 0.16789,-0.0348 0.40259,-0.21187 0.52157,-0.39345 0.19997,-0.30519 0.21631,-0.83912 0.21631,-7.06522 l 0,-6.73508 -0.34382,-0.29575 c -0.1891,-0.16266 -0.56187,-0.33061 -0.82837,-0.37322 -0.40404,-0.0646 -0.48456,-0.12518 -0.48456,-0.36448 l 0,-0.287 4.77642,-0.0348 c 4.76168,-0.0347 4.77732,-0.0357 5.07021,-0.31094 0.39643,-0.37258 0.70751,-0.36102 0.70751,0.0263 0,0.37134 -0.24029,2.723 -0.31707,3.10314 -0.0398,0.19716 -0.14284,0.27612 -0.36024,0.27612 -0.24604,0 -0.30447,-0.0612 -0.30447,-0.31894 0,-0.49105 -0.36361,-1.14507 -0.74679,-1.34322 -0.26398,-0.13651 -0.85382,-0.17867 -2.49926,-0.17867 l -2.15374,0 0,2.94534 0,2.94534 1.50672,0 c 1.76391,0 1.96243,-0.0857 2.21638,-0.95658 0.12414,-0.42577 0.22947,-0.57745 0.40096,-0.57745 0.21831,0 0.23465,0.13374 0.2661,2.17832 l 0.0335,2.17833 -0.29395,0 c -0.24691,0 -0.30623,-0.0768 -0.37066,-0.4797 -0.0522,-0.32633 -0.19753,-0.58136 -0.45463,-0.7977 -0.36042,-0.30327 -0.44568,-0.318 -1.84118,-0.318 l -1.46325,0 0.005,2.8533 c 0.003,1.56932 0.0529,3.09981 0.11104,3.4011 0.12457,0.64566 0.42119,0.92308 1.10364,1.03221 0.42751,0.0684 0.49809,0.12292 0.49809,0.385 l 0,0.30536 -2.94534,0 -2.94534,0 0,-0.30447 z m 26.95805,0.22265 c -0.045,-0.045 -0.0818,-0.1824 -0.0818,-0.30535 0,-0.16693 0.12785,-0.24399 0.50488,-0.30428 0.81558,-0.13041 1.08868,-0.45723 1.2174,-1.45689 0.0608,-0.4721 0.11233,-3.5782 0.11454,-6.90245 l 0.004,-6.04408 -1.6662,0 -1.66619,0 -0.35593,0.35592 c -0.19575,0.19576 -0.42386,0.60995 -0.5069,0.92042 -0.12378,0.46279 -0.20167,0.56449 -0.43233,0.56449 -0.33028,0 -0.33614,-0.0623 -0.1556,-1.65675 0.23842,-2.10555 0.24223,-2.11322 0.82254,-1.65676 0.30035,0.23626 0.4964,0.24538 5.23506,0.24364 4.0687,-10e-4 4.97628,-0.0326 5.22984,-0.17927 0.5538,-0.32032 0.62887,-0.34364 0.74202,-0.23049 0.0674,0.0674 0.0401,0.72066 -0.0685,1.64237 -0.0992,0.84175 -0.18093,1.59949 -0.18152,1.68386 -6.1e-4,0.0844 -0.13286,0.1534 -0.29394,0.1534 -0.25454,0 -0.3041,-0.0749 -0.37868,-0.5722 -0.0583,-0.38856 -0.19756,-0.68396 -0.43402,-0.92042 -0.34568,-0.34567 -0.35952,-0.34821 -1.89658,-0.34821 l -1.54837,0 0.0356,6.78596 c 0.0327,6.23884 0.053,6.81258 0.25189,7.11597 0.11897,0.18149 0.36748,0.36194 0.55225,0.40099 0.18476,0.0391 0.46019,0.0962 0.61206,0.12701 0.1971,0.04 0.27612,0.14313 0.27612,0.36047 l 0,0.30447 -2.92488,0 c -1.60869,0 -2.96171,-0.0368 -3.00671,-0.0818 z m -18.85836,-4.27483 c 0,-0.22825 0.0649,-0.30681 0.25351,-0.30681 0.41106,0 0.71243,-0.22368 0.95628,-0.70976 0.38861,-0.77461 2.49922,-7.2644 2.42524,-7.4572 -0.0384,-0.10002 -0.20927,-0.23488 -0.37974,-0.2997 -0.1906,-0.0725 -0.30995,-0.21352 -0.30995,-0.36632 0,-0.23359 0.0766,-0.24849 1.27762,-0.24849 l 1.27762,0 0.36675,1.07383 c 0.20171,0.5906 0.80761,2.37556 1.34644,3.96658 1.22188,3.60788 1.38971,3.94001 2.05178,4.06033 0.14265,0.0259 0.26187,0.15972 0.28466,0.31947 l 0.0392,0.27488 -2.15618,0 -2.15618,0 0,-0.30681 c 0,-0.25618 0.0583,-0.30681 0.35314,-0.30681 0.67963,0 0.71964,-0.29673 0.24405,-1.81016 l -0.12534,-0.39884 -1.50439,0 -1.50439,0 -0.20421,0.73448 c -0.30588,1.10019 -0.27805,1.34317 0.16396,1.43157 0.28507,0.057 0.36817,0.13943 0.36817,0.3651 0,0.29126 -0.001,0.29147 -1.53403,0.29147 l -1.53403,0 0,-0.30681 z m 5.39979,-3.58949 c 0,-0.15737 -1.12786,-3.48466 -1.16745,-3.44409 -0.0206,0.0211 -0.2706,0.75632 -0.55555,1.63379 -0.28496,0.87746 -0.54441,1.66442 -0.57655,1.74879 -0.0442,0.11614 0.22801,0.15341 1.12056,0.15341 0.64844,0 1.17899,-0.0414 1.17899,-0.0919 z"
       id="path5717"
       inkscape:connector-curvature="0" />
  </g>
</svg>
