<?xml version="1.0" encoding="UTF-8" standalone="no"?>
<!-- Created with Inkscape (http://www.inkscape.org/) -->

<svg
   xmlns:dc="http://purl.org/dc/elements/1.1/"
   xmlns:cc="http://creativecommons.org/ns#"
   xmlns:rdf="http://www.w3.org/1999/02/22-rdf-syntax-ns#"
   xmlns:svg="http://www.w3.org/2000/svg"
   xmlns="http://www.w3.org/2000/svg"
   xmlns:sodipodi="http://sodipodi.sourceforge.net/DTD/sodipodi-0.dtd"
   xmlns:inkscape="http://www.inkscape.org/namespaces/inkscape"
   width="70"
   height="48"
   id="svg4943"
   version="1.1"
   inkscape:version="0.48.5 r10040"
   sodipodi:docname="foxnews-feature.svg">
  <defs
     id="defs4945" />
  <sodipodi:namedview
     id="base"
     pagecolor="#ffffff"
     bordercolor="#666666"
     borderopacity="1.0"
     inkscape:pageopacity="0.0"
     inkscape:pageshadow="2"
     inkscape:zoom="5.5"
     inkscape:cx="-68.636364"
     inkscape:cy="32"
     inkscape:current-layer="layer1"
     showgrid="true"
     inkscape:document-units="px"
     inkscape:grid-bbox="true"
     inkscape:window-width="1440"
     inkscape:window-height="855"
     inkscape:window-x="0"
     inkscape:window-y="1"
     inkscape:window-maximized="1" />
  <metadata
     id="metadata4948">
    <rdf:RDF>
      <cc:Work
         rdf:about="">
        <dc:format>image/svg+xml</dc:format>
        <dc:type
           rdf:resource="http://purl.org/dc/dcmitype/StillImage" />
        <dc:title />
      </cc:Work>
    </rdf:RDF>
  </metadata>
  <g
     id="layer1"
     inkscape:label="Layer 1"
     inkscape:groupmode="layer"
     transform="translate(0,-16)">
    <path
       inkscape:connector-curvature="0"
       id="path15992"
       d="m 0.25403817,40.000005 0,-15.000005 9.02730703,0 9.0274528,0 0.02316,0.237576 c 0.02316,0.236996 0.35021,5.063799 0.458212,6.758536 0.03185,0.491512 0.06515,0.966374 0.07528,1.055121 l 0.01873,0.161704 -5.050336,0 -5.0504808,0 -0.02606,0.765426 c -0.01448,0.421007 -0.01448,1.302107 0,1.958229 l 0.02606,1.192657 4.1194318,0 4.119576,0 0,4.087436 0,4.087436 -4.163588,0 -4.1634428,0 0,4.847939 0,4.84794 -4.220629,0 -4.22048403,0 0,-15.000005 z M 42.66171,54.933413 c 0.01448,-0.01602 0.138984,-0.248289 0.28955,-0.516993 0.150122,-0.2687 0.713887,-1.252449 1.252883,-2.186249 0.538999,-0.933797 2.178576,-3.79383 3.643557,-6.355627 1.464978,-2.561795 2.885368,-5.041792 3.156532,-5.511154 l 0.493103,-0.85316 -0.797856,-1.390131 c -0.728797,-1.269532 -1.568348,-2.720612 -6.06043,-10.472453 -0.822323,-1.419229 -1.495239,-2.586985 -1.495239,-2.595093 0,-0.01448 2.145423,-0.01448 4.767446,-0.01448 l 4.767588,0 0.05501,0.08542 c 0.07239,0.111477 1.18238,2.166125 2.417022,4.471089 0.541313,1.01082 0.999383,1.840672 1.017769,1.844002 0.03909,0.01448 0.118715,-0.133193 1.584563,-2.80748 0.607766,-1.108398 1.300514,-2.370258 1.539539,-2.804148 l 0.43447,-0.789025 4.621076,0 c 3.920655,0 4.618183,0.01448 4.600954,0.05212 -0.02461,0.06515 -0.869809,1.542868 -4.067602,7.114684 -2.660243,4.63483 -4.054138,7.076896 -4.084106,7.15493 -0.02027,0.05357 -0.105686,-0.09555 3.963219,6.913447 3.357335,5.783765 4.952032,8.544627 4.984606,8.62932 0.02027,0.05357 -0.453579,0.05936 -4.732553,0.05936 l -4.755139,0 -0.06081,-0.08542 c -0.0333,-0.04633 -0.252632,-0.437222 -0.486588,-0.867203 -0.993881,-1.826629 -3.620825,-6.573804 -3.638198,-6.574672 -0.02606,-0.0013 -0.377285,0.634258 -2.004991,3.63009 -0.77252,1.422127 -1.565744,2.880591 -1.762637,3.241081 l -0.357884,0.655542 -4.650612,4.34e-4 c -2.557741,4.35e-4 -4.642937,-0.01448 -4.633817,-0.02751 z M 31.774911,54.595074 c -2.133261,-0.201383 -3.675696,-0.622244 -5.29182,-1.443988 -3.455349,-1.756989 -6.050442,-4.784093 -7.248311,-8.455301 -1.407069,-4.312416 -0.803647,-8.96433 1.651159,-12.729352 1.416192,-2.172061 3.232973,-3.801794 5.577608,-5.003427 3.22168,-1.651306 7.100349,-1.964598 10.558594,-0.85287 2.903029,0.933365 5.279659,2.647501 7.185043,5.182659 1.239131,1.648409 2.077088,3.508046 2.562665,5.686621 0.565635,2.538487 0.337615,5.71326 -0.58938,8.201801 -0.536681,1.440656 -1.380865,2.923155 -2.376194,4.172419 -0.389879,0.489339 -1.256068,1.385497 -1.744106,1.804333 -2.251253,1.931877 -5.094925,3.156675 -7.94685,3.422773 -0.378007,0.03475 -2.010637,0.04488 -2.338408,0.01448 z m 1.680983,-6.208246 c 0.938577,-0.240037 1.620614,-0.923809 1.837052,-1.84183 0.08397,-0.354264 0.08397,-12.572995 -2.89e-4,-13.015138 -0.176491,-0.933218 -0.976509,-1.770019 -1.924786,-2.012951 -0.333127,-0.08542 -0.949146,-0.05646 -1.283576,0.06225 -0.716348,0.251908 -1.296895,0.877193 -1.570087,1.691264 l -0.08976,0.266096 -0.01448,6.397757 c -0.01448,7.11729 -0.02751,6.632292 0.248436,7.195468 0.198341,0.403922 0.679428,0.886746 1.073652,1.077706 0.156782,0.07528 0.379165,0.162862 0.494261,0.19313 0.307936,0.08107 0.880668,0.07528 1.224653,-0.01448 z"
       style="fill:#3c4b5a;fill-opacity:1" />
  </g>
</svg>
