<?xml version="1.0" encoding="UTF-8" standalone="no"?>
<!-- Created with Inkscape (http://www.inkscape.org/) -->

<svg
   xmlns:dc="http://purl.org/dc/elements/1.1/"
   xmlns:cc="http://creativecommons.org/ns#"
   xmlns:rdf="http://www.w3.org/1999/02/22-rdf-syntax-ns#"
   xmlns:svg="http://www.w3.org/2000/svg"
   xmlns="http://www.w3.org/2000/svg"
   xmlns:sodipodi="http://sodipodi.sourceforge.net/DTD/sodipodi-0.dtd"
   xmlns:inkscape="http://www.inkscape.org/namespaces/inkscape"
   width="64px"
   height="64px"
   id="svg4943"
   version="1.1"
   inkscape:version="0.48.5 r10040"
   sodipodi:docname="fastcompany.svg">
  <defs
     id="defs4945" />
  <sodipodi:namedview
     id="base"
     pagecolor="#ffffff"
     bordercolor="#666666"
     borderopacity="1.0"
     inkscape:pageopacity="0.0"
     inkscape:pageshadow="2"
     inkscape:zoom="5.5"
     inkscape:cx="9.1818182"
     inkscape:cy="32"
     inkscape:current-layer="layer1"
     showgrid="true"
     inkscape:document-units="px"
     inkscape:grid-bbox="true"
     inkscape:window-width="1440"
     inkscape:window-height="855"
     inkscape:window-x="0"
     inkscape:window-y="0"
     inkscape:window-maximized="1" />
  <metadata
     id="metadata4948">
    <rdf:RDF>
      <cc:Work
         rdf:about="">
        <dc:format>image/svg+xml</dc:format>
        <dc:type
           rdf:resource="http://purl.org/dc/dcmitype/StillImage" />
        <dc:title></dc:title>
      </cc:Work>
    </rdf:RDF>
  </metadata>
  <g
     id="layer1"
     inkscape:label="Layer 1"
     inkscape:groupmode="layer">
    <path
       inkscape:connector-curvature="0"
       id="path15992"
       d="m 14,32.000002 0,-7.770689 4.676558,0 4.676634,0 0.012,0.123075 c 0.012,0.122775 0.181425,2.62328 0.237375,3.501231 0.0165,0.254626 0.03375,0.500626 0.039,0.546601 l 0.0097,0.08377 -2.616305,0 -2.61638,0 -0.0135,0.396526 c -0.0075,0.218101 -0.0075,0.674551 0,1.014452 l 0.0135,0.617851 2.134054,0 2.134129,0 0,2.117479 0,2.117479 -2.156929,0 -2.156854,0 0,2.511454 0,2.511455 -2.186479,0 -2.186404,0 0,-7.770689 z m 21.969115,7.736189 c 0.0075,-0.0083 0.072,-0.128625 0.15,-0.267826 0.07777,-0.139199 0.369826,-0.648826 0.649051,-1.132577 0.279226,-0.48375 1.128602,-1.965378 1.887529,-3.292506 0.758926,-1.327127 1.494753,-2.611879 1.635228,-2.85503 l 0.25545,-0.441976 -0.413326,-0.720151 c -0.37755,-0.657676 -0.812476,-1.409402 -3.13958,-5.42521 -0.426001,-0.735226 -0.774602,-1.340177 -0.774602,-1.344377 0,-0.0075 1.111427,-0.0075 2.469755,-0.0075 l 2.469829,0 0.0285,0.04425 c 0.0375,0.05775 0.612527,1.122152 1.252128,2.316229 0.280425,0.523651 0.517726,0.953552 0.527251,0.955277 0.02025,0.0075 0.0615,-0.069 0.820876,-1.454403 0.314851,-0.574201 0.673726,-1.227902 0.797552,-1.452677 l 0.225075,-0.408751 2.393929,0 c 2.031079,0 2.39243,0.0075 2.383505,0.027 -0.01275,0.03375 -0.450601,0.799276 -2.107204,3.685732 -1.378128,2.401054 -2.100229,3.666156 -2.115754,3.706581 -0.0105,0.02775 -0.05475,-0.0495 2.053129,3.581482 1.739253,2.996255 2.565379,4.426508 2.582254,4.470383 0.0105,0.02775 -0.234975,0.03075 -2.451679,0.03075 l -2.46338,0 -0.0315,-0.04425 c -0.01725,-0.024 -0.130875,-0.226501 -0.252075,-0.449251 -0.514876,-0.946277 -1.875753,-3.405531 -1.884753,-3.405981 -0.0135,-6.75e-4 -0.195451,0.328575 -1.038677,1.880553 -0.400201,0.736727 -0.811127,1.492278 -0.913127,1.679028 l -0.1854,0.339601 -2.40923,2.25e-4 c -1.325027,2.25e-4 -2.405254,-0.0075 -2.400529,-0.01425 z m -5.63986,-0.175275 c -1.105127,-0.104326 -1.904179,-0.322351 -2.741405,-0.748052 -1.790029,-0.910201 -3.134406,-2.478379 -3.754957,-4.380233 -0.728926,-2.234029 -0.416326,-4.643933 0.855376,-6.594387 0.733652,-1.125227 1.674828,-1.969503 2.889456,-2.592004 1.668978,-0.855452 3.678306,-1.017752 5.469835,-0.441826 1.503902,0.483526 2.735105,1.371527 3.722181,2.684855 0.641927,0.853951 1.076027,1.817328 1.327578,2.94593 0.293025,1.315052 0.1749,2.95973 -0.305326,4.248908 -0.278025,0.746326 -0.715351,1.514328 -1.230977,2.161504 -0.201975,0.2535 -0.650701,0.717751 -0.903527,0.934727 -1.166252,1.000801 -2.639404,1.635302 -4.116832,1.773153 -0.195825,0.018 -1.041602,0.02325 -1.211402,0.0075 z m 0.870826,-3.216156 c 0.486226,-0.12435 0.839552,-0.478575 0.951677,-0.954152 0.0435,-0.183525 0.0435,-6.513387 -1.5e-4,-6.742437 -0.09143,-0.48345 -0.505876,-0.916951 -0.997127,-1.042801 -0.172575,-0.04425 -0.491701,-0.02925 -0.664951,0.03225 -0.371101,0.1305 -0.671851,0.454426 -0.813377,0.876152 l -0.0465,0.13785 -0.0075,3.314331 c -0.0075,3.687082 -0.01425,3.435831 0.128701,3.727582 0.10275,0.20925 0.351975,0.459375 0.556201,0.558301 0.08122,0.039 0.196425,0.08437 0.25605,0.10005 0.159525,0.042 0.456226,0.039 0.634426,-0.0075 z"
       style="fill:#032a61;fill-opacity:1" />
  </g>
</svg>
