<?xml version="1.0" encoding="UTF-8" standalone="no"?>
<!-- Created with Inkscape (http://www.inkscape.org/) -->

<svg
   xmlns:dc="http://purl.org/dc/elements/1.1/"
   xmlns:cc="http://creativecommons.org/ns#"
   xmlns:rdf="http://www.w3.org/1999/02/22-rdf-syntax-ns#"
   xmlns:svg="http://www.w3.org/2000/svg"
   xmlns="http://www.w3.org/2000/svg"
   xmlns:sodipodi="http://sodipodi.sourceforge.net/DTD/sodipodi-0.dtd"
   xmlns:inkscape="http://www.inkscape.org/namespaces/inkscape"
   width="286"
   height="30"
   id="svg4943"
   version="1.1"
   inkscape:version="0.48.5 r10040"
   sodipodi:docname="huffingtonpost-black.svg">
  <defs
     id="defs4945" />
  <sodipodi:namedview
     id="base"
     pagecolor="#ffffff"
     bordercolor="#666666"
     borderopacity="1.0"
     inkscape:pageopacity="0.0"
     inkscape:pageshadow="2"
     inkscape:zoom="8.1061991"
     inkscape:cx="4.3662505"
     inkscape:cy="21.768161"
     inkscape:current-layer="layer1"
     showgrid="true"
     inkscape:document-units="px"
     inkscape:grid-bbox="true"
     inkscape:window-width="1440"
     inkscape:window-height="851"
     inkscape:window-x="0"
     inkscape:window-y="0"
     inkscape:window-maximized="1" />
  <metadata
     id="metadata4948">
    <rdf:RDF>
      <cc:Work
         rdf:about="">
        <dc:format>image/svg+xml</dc:format>
        <dc:type
           rdf:resource="http://purl.org/dc/dcmitype/StillImage" />
        <dc:title />
      </cc:Work>
    </rdf:RDF>
  </metadata>
  <g
     id="layer1"
     inkscape:label="Layer 1"
     inkscape:groupmode="layer"
     transform="translate(0,-34)">
    <g
       id="g8444"
       transform="matrix(0.625,0,0,0.625,1601.3891,-2890.9559)"
       inkscape:export-filename="/Users/bdharva/Dropbox/Jolt/Software/jolt.github.io/assets/icons/press/huffington.png"
       inkscape:export-xdpi="90"
       inkscape:export-ydpi="90">
      <path
         style="fill:#000000;fill-opacity:1;stroke:none"
         d="m 23,-14 c -1.662,0 -3,1.338 -3,3 l 0,18 c 0,1.662 1.338,3 3,3 l 18,0 c 1.662,0 3,-1.338 3,-3 l 0,-18 c 0,-1.662 -1.338,-3 -3,-3 l -18,0 z m 0,2 18,0 c 0.554,0 1,0.446 1,1 l 0,18 c 0,0.554 -0.446,1 -1,1 L 23,8 C 22.446,8 22,7.554 22,7 l 0,-18 c 0,-0.554 0.446,-1 1,-1 z"
         transform="matrix(2,0,0,2,-2676.8322,4663.519)"
         id="rect4550-4-6-9-5-1-9-2-8"
         inkscape:connector-curvature="0" />
      <path
         inkscape:connector-curvature="0"
         id="path8386-5"
         d="m -2629.2865,4673.4625 c -0.1,-0.2629 -0.05,-0.7526 0.086,-0.8363 0.039,-0.024 0.3625,-0.088 0.7193,-0.1424 2.3486,-0.3576 3.3499,-0.9318 3.5919,-2.0599 0.072,-0.338 0.1038,-3.6635 0.1038,-11.0095 0,-11.7259 0.031,-11.155 -0.63,-11.7985 -0.5297,-0.5163 -1.3084,-0.8063 -2.8175,-1.0497 -0.4781,-0.077 -0.9105,-0.1657 -0.9609,-0.1968 -0.1485,-0.092 -0.1092,-0.8518 0.051,-0.9847 0.115,-0.095 0.7511,-0.086 3.2924,0.051 3.0481,0.1642 3.2468,0.1641 6.1518,0 2.9254,-0.168 3.0052,-0.1679 3.1295,0 0.1498,0.2049 0.1651,0.5492 0.035,0.7919 -0.063,0.1182 -0.2473,0.1921 -0.5859,0.2353 -0.915,0.1168 -2.0642,0.4249 -2.5297,0.6783 -0.3168,0.1724 -0.5414,0.3861 -0.7132,0.6783 l -0.2508,0.4266 -0.027,5.2265 -0.027,5.2266 7.8355,0 7.8356,0 -0.027,-5.2266 -0.027,-5.2265 -0.2508,-0.4266 c -0.1718,-0.2922 -0.3965,-0.5059 -0.7132,-0.6783 -0.4655,-0.2534 -1.6148,-0.5615 -2.5297,-0.6783 -0.5251,-0.067 -0.6782,-0.2107 -0.6782,-0.6367 0,-0.5098 -0.1209,-0.5029 5.0411,-0.285 0.9448,0.04 2.4658,0 4.4731,-0.1083 2.4702,-0.1369 3.0685,-0.1461 3.1855,-0.049 0.1742,0.1446 0.1929,0.7845 0.027,0.9177 -0.065,0.052 -0.5324,0.1639 -1.04,0.2494 -1.8297,0.308 -2.667,0.7205 -3.0616,1.5084 l -0.2344,0.468 -0.025,10.6875 c -0.018,7.3022 0.01,10.836 0.074,11.1563 0.2484,1.1655 1.1375,1.7187 3.3204,2.0657 0.5125,0.082 0.9627,0.1673 1.0006,0.1907 0.1341,0.083 0.1835,0.574 0.084,0.8356 l -0.1008,0.2652 -1.4734,-0.06 c -0.8103,-0.033 -2.2681,-0.1056 -3.2395,-0.1614 -1.2757,-0.073 -2.2392,-0.073 -3.4688,0 -3.4366,0.2083 -4.2643,0.227 -4.4179,0.1 -0.1741,-0.1445 -0.1927,-0.7835 -0.027,-0.9202 0.064,-0.053 0.518,-0.1647 1.0078,-0.248 1.2057,-0.205 2.0135,-0.4848 2.4134,-0.8359 0.6521,-0.5726 0.6304,-0.3669 0.6613,-6.2722 l 0.028,-5.3203 -7.8368,0 -7.8367,0 0.028,5.3203 c 0.03,5.7149 0.021,5.6159 0.5257,6.1493 0.4554,0.4816 1.3028,0.7852 2.7661,0.9908 0.3516,0.049 0.6996,0.1399 0.7734,0.2012 0.1796,0.149 0.173,0.7834 -0.01,0.935 -0.1536,0.1275 -0.9813,0.1088 -4.4179,-0.1 -1.2375,-0.075 -2.1849,-0.075 -3.4687,0 -0.9714,0.057 -2.4293,0.1292 -3.2397,0.1612 l -1.4734,0.058 -0.1008,-0.265 z"
         style="fill:#000000" />
    </g>
    <path
       style="fill:#000000"
       d="m 25.265852,28.764688 c -0.381899,-0.11144 -0.933959,-0.40016 -1.258949,-0.65842 -0.54793,-0.43542 -0.94839,-1.0391 -1.17272,-1.76785 -0.0998,-0.3242 -0.10676,-0.39269 -0.10642,-1.04556 4.5e-4,-0.82975 0.0554,-1.08826 0.36508,-1.71643 0.57847,-1.17353 1.63965,-1.88719 3.021249,-2.03185 1.27789,-0.13381 2.51007,0.32349 3.25695,1.20875 0.77546,0.91912 1.04602,2.31018 0.68897,3.54229 -0.34085,1.17621 -1.20674,2.07118 -2.37185,2.45151 -0.28533,0.0931 -0.33582,0.097 -1.23376,0.0941 -0.7988,-0.003 -0.9733,-0.0138 -1.18855,-0.0766 z m 2.01651,-0.24883 c 0.9819,-0.26396 1.66527,-1.15378 1.82836,-2.38074 0.0575,-0.43286 0.0294,-1.2047 -0.061,-1.67258 -0.31338,-1.62219 -1.32982,-2.60327 -2.69712,-2.60327 -1.0837,0 -1.983849,0.63298 -2.355269,1.65622 -0.38902,1.07176 -0.29433,2.44317 0.24399,3.53368 0.42316,0.85722 1.104469,1.38825 1.954879,1.52368 0.27649,0.044 0.81561,0.0157 1.08615,-0.057 z m 5.28548,0.23002 c -0.45263,-0.15578 -0.4856,-0.18017 -0.55775,-0.41272 -0.0855,-0.27544 -0.17964,-0.81134 -0.19326,-1.09965 l -0.011,-0.23288 0.1214,-0.0118 c 0.105,-0.0102 0.12499,0.003 0.14789,0.097 0.0146,0.0599 0.0961,0.25365 0.18127,0.43063 0.18699,0.38873 0.52907,0.75416 0.84995,0.90797 0.57863,0.27735 1.31629,0.21607 1.73735,-0.14433 0.54782,-0.46892 0.51076,-1.49572 -0.0752,-2.08163 -0.0869,-0.0869 -0.49219,-0.37701 -0.90057,-0.64462 -0.91005,-0.59635 -1.26982,-0.93101 -1.48267,-1.37922 -0.0807,-0.16998 -0.15756,-0.40917 -0.18185,-0.56607 -0.14299,-0.92376 0.47838,-1.76985 1.4751,-2.0086 0.30486,-0.073 0.97489,-0.0838 1.29053,-0.0207 0.57634,0.11515 0.75222,0.16212 0.7811,0.2086 0.0505,0.0814 0.11153,0.40746 0.15719,0.84033 0.0457,0.43379 0.0344,0.46985 -0.14872,0.47115 -0.0678,4.8e-4 -0.0967,-0.0407 -0.15221,-0.21717 -0.0917,-0.29148 -0.31733,-0.63173 -0.50433,-0.76047 -0.29868,-0.20561 -0.43178,-0.24199 -0.88988,-0.24322 -0.38063,-0.001 -0.4501,0.01 -0.64042,0.0998 -0.36462,0.17246 -0.55069,0.42308 -0.61404,0.82704 -0.1024,0.65303 0.20267,1.11883 1.10694,1.69016 0.91927,0.5808 1.10629,0.71697 1.36441,0.99336 0.42845,0.45878 0.59468,0.87725 0.59283,1.49237 -0.002,0.77411 -0.37732,1.3635 -1.08138,1.69969 l -0.3014,0.14393 -0.8927,0.01 c -0.86726,0.009 -0.90084,0.007 -1.17863,-0.0887 z m -16.463759,0.003 c -0.0657,-0.0657 -0.0391,-0.17741 0.0504,-0.21169 0.048,-0.0184 0.19067,-0.0526 0.31697,-0.0761 0.13507,-0.0251 0.26647,-0.0773 0.31908,-0.1267 0.18835,-0.17694 0.18873,-0.18322 0.18873,-3.11942 0,-2.67809 -0.002,-2.76009 -0.0776,-2.91097 -0.0863,-0.17252 -0.20837,-0.22703 -0.60806,-0.27144 -0.23301,-0.0259 -0.29564,-0.0844 -0.22724,-0.21218 0.0535,-0.10003 0.18684,-0.1128 1.47572,-0.14144 1.53071,-0.034 2.04334,0.0376 2.67325,0.37333 0.8269,0.44073 1.17577,1.58332 0.75529,2.47368 -0.1177,0.24924 -0.41637,0.58267 -0.66461,0.74196 -0.37718,0.24204 -1.03942,0.43222 -1.50505,0.43222 -0.23858,0 -0.24975,-0.004 -0.24975,-0.0943 0,-0.0828 0.0255,-0.0996 0.20842,-0.13755 0.25195,-0.0523 0.69524,-0.25977 0.86985,-0.4071 0.34326,-0.28963 0.51915,-0.7361 0.52278,-1.32699 0.005,-0.81108 -0.32061,-1.35324 -0.97322,-1.62059 -0.13609,-0.0557 -0.30917,-0.0787 -0.69198,-0.0919 l -0.51051,-0.0176 -0.0638,0.0974 c -0.0581,0.0886 -0.0628,0.35995 -0.0523,3.00268 0.0102,2.57411 0.0187,2.92075 0.0741,3.04111 0.11304,0.24543 0.17595,0.27509 0.78366,0.36949 0.15514,0.0241 0.21953,0.10621 0.15879,0.20251 -0.0303,0.048 -0.24662,0.0578 -1.38596,0.0626 -0.80921,0.003 -1.36487,-0.009 -1.38697,-0.0311 z m 23.305839,0.0207 c -0.0316,-0.0316 -0.0156,-0.1931 0.0215,-0.21598 0.0207,-0.0128 0.17841,-0.0393 0.35046,-0.0589 0.38158,-0.0435 0.4965,-0.0956 0.59967,-0.27169 0.0781,-0.13332 0.0798,-0.19144 0.0905,-3.12411 0.0101,-2.78946 0.006,-2.99151 -0.0559,-3.03711 -0.13096,-0.0958 -1.41013,-0.0501 -1.83224,0.0655 -0.23218,0.0636 -0.50824,0.33194 -0.6825,0.66355 -0.14158,0.26943 -0.19297,0.30555 -0.3302,0.23211 -0.0676,-0.0362 -0.0654,-0.0572 0.0458,-0.43665 0.0642,-0.21926 0.15527,-0.58205 0.20232,-0.8062 0.0788,-0.37532 0.093,-0.40838 0.17993,-0.4183 0.0706,-0.008 0.11108,0.0189 0.16069,0.10709 0.0365,0.0648 0.11507,0.13953 0.17466,0.16602 0.0817,0.0363 0.73305,0.0511 2.65058,0.0603 1.39823,0.007 2.6355,8.5e-4 2.74947,-0.0129 0.16225,-0.0196 0.23984,-0.0545 0.35749,-0.16081 0.13873,-0.12533 0.30001,-0.16334 0.28186,-0.0664 -0.0571,0.30506 -0.13162,0.9678 -0.14123,1.25659 l -0.0123,0.36873 -0.12966,0 c -0.12737,0 -0.13051,-0.004 -0.17732,-0.23362 -0.10045,-0.49245 -0.21159,-0.61671 -0.66001,-0.73793 -0.30305,-0.0819 -1.66913,-0.12841 -1.79492,-0.0611 l -0.0853,0.0456 0,2.88828 c 0,1.91807 0.014,2.95382 0.0418,3.08336 0.0523,0.24394 0.19728,0.37729 0.44352,0.408 0.58161,0.0725 0.52952,0.054 0.51634,0.18375 l -0.012,0.11775 -1.46843,0.006 c -0.80763,0.003 -1.4757,-0.002 -1.48459,-0.0105 z M 3.5919918,17.605228 c -0.82856,-0.16456 -1.42999,-0.62622 -1.70245,-1.30682 -0.22273,-0.55637 -0.23068,-0.64802 -0.25851,-2.9796 -0.0141,-1.18476 -0.0395,-2.18905 -0.0563,-2.23174 -0.11846,-0.30054 -0.21463,-0.36323 -0.60780924,-0.39619 -0.20632,-0.0173 -0.27279,-0.0378 -0.28907,-0.0891 -0.0555,-0.17495 -0.057,-0.17476 1.36346924,-0.1713 1.18148,0.003 1.34731,0.0107 1.37749,0.0646 0.0679,0.12133 -1.5e-4,0.17278 -0.26068,0.19711 -0.47873,0.0447 -0.5957,0.16794 -0.64003,0.67433 -0.0439,0.50115 -0.0414,2.86043 0.004,3.45028 0.12532,1.64273 0.78684,2.38061 2.13611,2.3827 1.259111,0.002 1.973171,-0.76475 2.132181,-2.28939 0.0776,-0.74387 0.0289,-3.09405 -0.0754,-3.64255 -0.0797,-0.41889 -0.20241,-0.52896 -0.64419,-0.57774 -0.26532,-0.0293 -0.26915,-0.0314 -0.26915,-0.14401 l 0,-0.11429 1.2032,0.002 1.2032,0.002 0,0.11207 c 0,0.10862 -0.008,0.11301 -0.24708,0.14256 -0.28101,0.0347 -0.44488,0.10699 -0.52661,0.2324 -0.11455,0.17575 -0.14621,0.60933 -0.17781,2.4347 -0.0339,1.95694 -0.0475,2.10607 -0.24484,2.67343 -0.2893,0.83186 -0.86947,1.33859 -1.78348,1.55772 -0.383321,0.0919 -1.213851,0.10025 -1.635771,0.0165 z m 29.6450502,-0.41646 c -0.21615,-0.26061 -1.05333,-1.22486 -1.86041,-2.14278 -0.80708,-0.91793 -1.77163,-2.02438 -2.14344,-2.45879 -0.437,-0.51058 -0.68934,-0.77652 -0.71369,-0.75217 -0.0548,0.0548 -0.016,4.57826 0.0418,4.87991 0.0757,0.39472 0.18445,0.47353 0.76046,0.55091 0.22505,0.0302 0.23288,0.0351 0.23288,0.146 l 0,0.11472 -1.22261,-0.002 -1.2226,-0.002 0,-0.11086 c 0,-0.10799 0.008,-0.11247 0.3215,-0.17325 0.20184,-0.0392 0.3497,-0.0906 0.39729,-0.13818 0.15212,-0.15212 0.16466,-0.36441 0.18199,-3.07977 0.0187,-2.93365 0.028,-2.82344 -0.2589,-3.08262 -0.11868,-0.10722 -0.21161,-0.14808 -0.45378,-0.19949 -0.1675,-0.0356 -0.32637,-0.0715 -0.35306,-0.0799 -0.0531,-0.0167 -0.0641,-0.13014 -0.0188,-0.19323 0.018,-0.0251 0.34471,-0.0394 0.88593,-0.0388 l 0.85741,9e-4 0.13849,0.23401 c 0.28239,0.47715 0.90209,1.21797 2.74249,3.27856 1.59651,1.78753 1.75777,1.95611 1.79958,1.88141 0.05,-0.0894 0.0103,-4.04117 -0.0439,-4.3689 -0.0711,-0.4298 -0.12506,-0.55131 -0.27798,-0.62614 -0.0751,-0.0367 -0.27106,-0.0868 -0.43547,-0.11128 -0.24166,-0.0359 -0.3036,-0.0592 -0.32336,-0.12145 -0.0134,-0.0423 -0.005,-0.0962 0.0183,-0.1197 0.0292,-0.0292 0.42517,-0.0433 1.24757,-0.0446 l 1.20485,-0.002 0.0226,0.0902 c 0.0308,0.1229 -7.4e-4,0.14311 -0.33911,0.21675 -0.16152,0.0352 -0.3296,0.0891 -0.3735,0.11983 -0.20987,0.147 -0.25679,0.9717 -0.23899,4.20112 0.0147,2.67662 0.018,2.61461 -0.13524,2.6091 -0.0249,-9e-4 -0.22219,-0.21486 -0.43834,-0.47546 z m 6.1179,0.41998 c -0.98408,-0.16616 -1.72165,-0.5293 -2.32878,-1.14653 -0.67961,-0.69092 -1.02252,-1.63753 -0.95594,-2.63884 0.12746,-1.91653 1.44956,-3.23729 3.49878,-3.49522 0.57124,-0.0719 1.59482,-0.0271 2.19234,0.0959 0.26684,0.055 0.53319,0.1 0.59189,0.10005 0.10396,1.6e-4 0.10676,0.006 0.10755,0.22333 4.7e-4,0.12274 0.0335,0.47642 0.0735,0.78596 0.0775,0.60012 0.072,0.63134 -0.10797,0.61165 -0.0743,-0.008 -0.10831,-0.0555 -0.17753,-0.24728 -0.12324,-0.34142 -0.25724,-0.55188 -0.49339,-0.77491 -0.41479,-0.39178 -0.95767,-0.5457 -1.79738,-0.5096 -1.22526,0.0527 -2.03904,0.55936 -2.50635,1.56055 -0.2136,0.45762 -0.27518,0.73957 -0.29832,1.36575 -0.0713,1.92979 0.77673,3.29684 2.29866,3.70555 0.42103,0.11306 1.32373,0.12457 1.66014,0.0212 0.34533,-0.10615 0.44508,-0.22036 0.49848,-0.57076 0.0546,-0.35859 0.0215,-1.31252 -0.0509,-1.46515 -0.0736,-0.15519 -0.26927,-0.23293 -0.72987,-0.29002 l -0.40754,-0.0505 0,-0.116 0,-0.11599 1.3708,-0.002 c 0.75394,-9.4e-4 1.37999,0.0131 1.39121,0.0313 0.0112,0.0182 0.0103,0.0733 -0.002,0.1225 -0.018,0.0719 -0.0573,0.0942 -0.19928,0.11371 -0.23238,0.0319 -0.31393,0.0792 -0.39647,0.23021 -0.10004,0.183 -0.10172,1.60379 -0.002,1.8236 0.0364,0.0804 0.0932,0.15645 0.12614,0.16911 0.0923,0.0354 0.0756,0.16996 -0.0211,0.16996 -0.0446,0 -0.30223,0.0511 -0.57249,0.11348 -0.27027,0.0624 -0.67703,0.141 -0.90391,0.17465 -0.491,0.0728 -1.43857,0.0749 -1.85804,0.004 z m 16.08795,0.0319 c -0.28769,-0.0442 -0.76364,-0.19072 -1.05256,-0.32408 -1.02807,-0.47449 -1.69836,-1.29771 -1.98348,-2.43599 -0.1017,-0.40604 -0.0917,-1.32401 0.0192,-1.76644 0.27865,-1.11117 1.02478,-2.03054 2.0107,-2.47758 0.53797,-0.24393 0.87417,-0.31565 1.56887,-0.33466 0.53353,-0.0146 0.70204,-0.005 1.00965,0.0587 1.40154,0.28918 2.37475,1.23118 2.72449,2.63714 0.12542,0.5042 0.12409,1.40434 -0.003,1.89307 -0.35114,1.35244 -1.2912,2.29589 -2.67376,2.68344 -0.21993,0.0616 -1.3499,0.10798 -1.62036,0.0664 z m 1.58991,-0.41939 c 0.79203,-0.26588 1.31617,-0.85507 1.59711,-1.79532 0.13968,-0.46749 0.17488,-1.43252 0.0743,-2.03565 -0.25844,-1.54914 -1.04221,-2.50912 -2.23317,-2.73522 -1.12953,-0.21445 -2.22338,0.31502 -2.71421,1.31378 -0.24637,0.50133 -0.31951,0.83807 -0.34168,1.5733 -0.0219,0.72726 0.0349,1.14527 0.23922,1.76032 0.27382,0.82411 0.79421,1.47301 1.422,1.77317 0.18026,0.0862 0.42379,0.17548 0.5412,0.19844 0.11741,0.0229 0.24841,0.0498 0.2911,0.0596 0.21311,0.0491 0.82547,-0.0122 1.12416,-0.11243 z m 10.49651,0.124 c -0.14084,-0.17588 -0.97604,-1.13875 -1.85599,-2.13971 -0.87995,-1.00097 -1.90669,-2.17796 -2.28163,-2.61553 -0.56249,-0.65644 -0.68812,-0.78413 -0.71834,-0.73014 -0.0223,0.0399 -0.0302,0.95505 -0.0202,2.34383 0.0203,2.80871 0.032,2.89075 0.42811,2.98909 0.0897,0.0223 0.2678,0.0548 0.39589,0.0724 0.2248,0.0309 0.23287,0.0359 0.23287,0.14651 l 0,0.11455 -1.21459,0.002 -1.2146,0.002 -0.0214,-0.0851 c -0.0329,-0.13112 4.2e-4,-0.15259 0.3161,-0.20351 0.36117,-0.0583 0.46845,-0.14132 0.52961,-0.41 0.0633,-0.27801 0.0939,-5.33968 0.0335,-5.54296 -0.0968,-0.32592 -0.38706,-0.52494 -0.86288,-0.59165 -0.12523,-0.0176 -0.18989,-0.0471 -0.20465,-0.0936 -0.0544,-0.1713 -0.0272,-0.17669 0.88919,-0.17629 l 0.86902,3.9e-4 0.0716,0.13502 c 0.26392,0.49759 1.37255,1.80447 3.83191,4.51714 0.61013,0.67297 0.74029,0.79859 0.77087,0.74394 0.0541,-0.0967 0.0122,-4.03908 -0.0469,-4.40576 -0.0892,-0.5541 -0.15681,-0.62052 -0.71591,-0.70367 -0.29796,-0.0443 -0.368,-0.096 -0.29849,-0.22019 0.0311,-0.0556 0.17266,-0.0629 1.24377,-0.0646 l 1.20868,-0.002 0.0226,0.0902 c 0.0309,0.12317 -5.5e-4,0.14306 -0.34481,0.21803 -0.34846,0.0759 -0.43695,0.13888 -0.49385,0.35162 -0.0938,0.35086 -0.12721,1.55495 -0.11161,4.02569 0.0166,2.62738 0.0205,2.55417 -0.13658,2.55266 -0.0249,-2.3e-4 -0.16058,-0.14433 -0.30142,-0.32021 z m -76.0921694,0.16862 c -0.01,-0.009 -0.016,-0.062 -0.016,-0.11805 0,-0.0944 0.02,-0.10666 0.2776,-0.16704 0.3137,-0.0736 0.4414,-0.16969 0.4985,-0.37508 0.024,-0.0857 0.039,-1.17794 0.039,-2.85829 2e-4,-2.33591 -0.01,-2.74795 -0.059,-2.92078 -0.075,-0.25091 -0.1621,-0.31105 -0.5296,-0.36377 -0.3239,-0.0464 -0.3608,-0.0681 -0.3294,-0.19341 l 0.023,-0.0902 1.3231,0 1.323,0 0.023,0.0902 c 0.031,0.12256 0,0.14618 -0.2977,0.19613 -0.2792,0.0477 -0.417,0.12944 -0.5044,0.29938 -0.087,0.16952 -0.1097,2.40593 -0.025,2.51935 0.056,0.0758 0.1028,0.0776 2.019,0.0776 1.5615,0 1.9715,-0.0103 2.0116,-0.0507 0.039,-0.0394 0.05,-0.31038 0.048,-1.2226 0,-1.50905 -0.014,-1.53932 -0.5988,-1.6261 l -0.2764,-0.041 0.012,-0.11849 0.012,-0.11848 1.3082,-0.003 1.30809996,-0.003 0.023,0.0929 c 0.031,0.12464 0,0.14138 -0.30469996,0.19048 -0.3181,0.0505 -0.4375,0.12154 -0.5237,0.3115 -0.058,0.12867 -0.065,0.40667 -0.065,2.85943 0,1.4943 0.014,2.80206 0.032,2.90614 0.052,0.30498 0.1937,0.40041 0.6978,0.46975 0.18089996,0.0249 0.18629996,0.0294 0.17469996,0.14632 l -0.012,0.12065 -1.31959996,-10e-4 -1.3197,-0.001 -0.012,-0.1169 c -0.012,-0.11461 -0.01,-0.11784 0.2328,-0.16487 0.6457,-0.12662 0.6295,-0.0815 0.6314,-1.76105 0,-1.25573 0,-1.31536 -0.074,-1.36815 -0.063,-0.046 -0.3957,-0.0552 -1.9892,-0.0552 -1.8621,0 -1.9159,0.002 -1.9914,0.0776 -0.074,0.074 -0.078,0.12917 -0.077,1.1935 3e-4,1.12913 0.033,1.53663 0.1375,1.69561 0.077,0.11801 0.2011,0.16893 0.5333,0.21945 0.3187,0.0485 0.3568,0.0716 0.3253,0.1974 l -0.023,0.0902 -1.3245,0 c -0.7285,0 -1.3319,-0.007 -1.3408,-0.0162 z m 18.2387202,-0.074 c -0.0317,-0.12614 0.008,-0.15187 0.31229,-0.20027 0.3598002,-0.0573 0.4664002,-0.11928 0.5494502,-0.31937 0.0628,-0.15129 0.0706,-0.36963 0.0855,-2.39819 0.019,-2.57293 -0.0132,-3.4409 -0.13353,-3.60207 -0.0871,-0.11668 -0.24976,-0.18487 -0.5280002,-0.22136 -0.18064,-0.0237 -0.18624,-0.0283 -0.17466,-0.14374 l 0.012,-0.11927 2.3329202,-0.004 2.33292,-0.004 0.0269,0.6948 c 0.0161,0.4173 0.0124,0.70926 -0.009,0.73102 -0.0199,0.0199 -0.0758,0.0304 -0.12427,0.0233 -0.0712,-0.0105 -0.10036,-0.0575 -0.15257,-0.24587 -0.0856,-0.3088 -0.1631,-0.44886 -0.32932,-0.5948 -0.23569,-0.20694 -0.46803,-0.24827 -1.42779,-0.25401 -0.80005,-0.005 -0.8536,-6.2e-4 -0.90567,0.0703 -0.0783,0.10655 -0.0823,2.72574 -0.004,2.83234 0.0472,0.0645 0.12068,0.0687 0.98003,0.0549 0.64715,-0.0104 0.95538,-0.0297 1.01593,-0.0635 0.11652,-0.0652 0.18836,-0.21377 0.26389,-0.54584 0.0619,-0.27207 0.065,-0.27673 0.18667,-0.27673 l 0.12372,0 -4.7e-4,1.07705 c -3.2e-4,0.6767 -0.015,1.08766 -0.0395,1.10558 -0.12323,0.09 -0.20462,0.003 -0.29233,-0.31385 -0.0932,-0.33644 -0.13096,-0.40168 -0.28689,-0.49611 -0.10565,-0.064 -0.22375,-0.074 -1.01046,-0.0854 -0.81726,-0.0119 -0.89499,-0.007 -0.94121,0.0559 -0.062,0.0848 -0.0717,2.15273 -0.0118,2.51848 0.0651,0.39727 0.19429,0.49112 0.74962,0.54433 l 0.2642,0.0253 -0.0119,0.12113 -0.0119,0.12113 -1.40866,0.002 -1.4086602,0.002 -0.0226,-0.0902 z m 6.4413302,0.0439 c -0.0473,-0.12337 0.0111,-0.18703 0.20259,-0.22052 0.51538,-0.0901 0.607,-0.14536 0.67786,-0.40852 0.0286,-0.10615 0.0385,-1.0447 0.0312,-2.96153 -0.0105,-2.74497 -0.0124,-2.80906 -0.0899,-2.94096 -0.0857,-0.14587 -0.22692,-0.2134 -0.52865,-0.2528 -0.18846,-0.0246 -0.25425,-0.0938 -0.19306,-0.20319 0.0298,-0.0533 0.30244,-0.0607 2.36763,-0.0646 l 2.33394,-0.004 0.008,0.47546 c 0.0183,1.035 0.0262,0.96062 -0.10146,0.96062 -0.1044,0 -0.11712,-0.0167 -0.17719,-0.23288 -0.12659,-0.45545 -0.31691,-0.67218 -0.68398,-0.77889 -0.29601,-0.0861 -1.87065,-0.10342 -1.96974,-0.0217 -0.0581,0.0479 -0.0646,0.19363 -0.0646,1.44103 0,1.1771 0.009,1.39499 0.0574,1.43538 0.0804,0.0667 1.86469,0.0392 1.9896,-0.0306 0.10946,-0.0612 0.18071,-0.20103 0.24117,-0.47326 0.0793,-0.35707 0.0747,-0.34931 0.2082,-0.34931 l 0.12353,-10e-6 0,1.08723 c 0,0.9651 -0.007,1.08945 -0.0625,1.10705 -0.12013,0.0381 -0.1866,-0.0287 -0.24623,-0.24741 -0.0807,-0.29606 -0.17399,-0.46894 -0.30538,-0.56586 -0.10206,-0.0753 -0.17002,-0.0816 -1.0013,-0.0937 -0.65502,-0.009 -0.90677,-4.9e-4 -0.94816,0.0339 -0.0469,0.039 -0.0563,0.23867 -0.0561,1.19669 1.2e-4,0.63247 0.0171,1.25311 0.0378,1.3792 0.0606,0.36994 0.1815,0.45185 0.75018,0.5081 l 0.26419,0.0261 -0.0119,0.12113 -0.0119,0.12113 -1.41191,0.002 c -1.05812,0.001 -1.41635,-0.01 -1.42966,-0.0446 z m 6.48674,0.0301 c -0.0292,-0.0292 -0.0169,-0.19227 0.016,-0.21261 0.0177,-0.0109 0.15307,-0.0392 0.3008,-0.0627 0.14774,-0.0236 0.32101,-0.0733 0.38505,-0.11052 0.23619,-0.13733 0.23288,-0.0923 0.23288,-3.16877 0,-2.5252 -0.006,-2.80826 -0.0647,-2.93705 -0.0878,-0.1935 -0.21005,-0.26373 -0.55158,-0.31693 -0.15927,-0.0248 -0.30182,-0.0574 -0.31678,-0.0724 -0.015,-0.015 -0.0171,-0.0674 -0.005,-0.11644 l 0.0224,-0.0891 1.36985,0.003 1.369859,0.003 0.0115,0.11442 0.0115,0.11442 -0.315599,0.0423 c -0.19948,0.0267 -0.35367,0.0705 -0.41906,0.11901 -0.22169,0.16448 -0.21937,0.1314 -0.21964,3.13557 -2.4e-4,2.53223 0.005,2.76999 0.0677,2.93172 0.086,0.22284 0.20808,0.29584 0.58953,0.35257 l 0.297609,0.0443 -0.0118,0.11796 -0.0118,0.11797 -1.371399,0.003 c -0.75426,0.002 -1.37867,-0.004 -1.38756,-0.013 z m 23.596129,-0.069 c -0.034,-0.13536 0.007,-0.15889 0.32582,-0.18816 0.38511,-0.0353 0.57796,-0.11165 0.65408,-0.25886 0.10897,-0.21072 0.13024,-0.76779 0.13093,-3.42906 5.4e-4,-2.0988 -0.01,-2.65565 -0.0495,-2.71015 -0.0704,-0.0963 -0.38495,-0.11592 -1.13492,-0.0708 -0.90574,0.0545 -1.13442,0.17751 -1.42464,0.76605 -0.0922,0.18692 -0.14406,0.25101 -0.20285,0.25056 -0.1894,-0.001 -0.19512,-0.0426 -0.0683,-0.49041 0.0656,-0.2316 0.15902,-0.60012 0.20763,-0.81893 0.08,-0.36014 0.0966,-0.39783 0.17549,-0.39783 0.0567,0 0.10492,0.0372 0.13809,0.10638 0.10931,0.22805 0.0403,0.22255 2.93384,0.23427 1.78578,0.007 2.70076,-0.003 2.80416,-0.0306 0.0937,-0.0252 0.18659,-0.0861 0.23848,-0.1563 0.0516,-0.0697 0.12029,-0.11496 0.17473,-0.11496 0.1065,0 0.10486,-0.0203 0.0298,0.36873 -0.0329,0.17077 -0.0705,0.54159 -0.0836,0.82404 -0.0201,0.43705 -0.0335,0.51668 -0.0899,0.53456 -0.11534,0.0366 -0.19071,-0.0226 -0.21516,-0.16885 -0.0391,-0.23438 -0.13374,-0.50015 -0.21457,-0.60291 -0.12861,-0.1635 -0.45337,-0.2558 -1.06032,-0.30137 -0.74104,-0.0556 -1.18025,-0.0322 -1.25311,0.0669 -0.0464,0.0631 -0.0531,0.52754 -0.0432,3.00497 0.0105,2.63614 0.0182,2.94469 0.0764,3.07291 0.0903,0.19893 0.20188,0.2583 0.57846,0.30775 0.17995,0.0236 0.34125,0.0561 0.35845,0.0721 0.0172,0.016 0.0208,0.071 0.008,0.1221 l -0.0233,0.0929 -1.47481,0 -1.47481,0 -0.0214,-0.0851 z M 20.154013,6.2287282 c -0.01,-0.0258 -0.012,-0.0784 -0.005,-0.11691 0.0111,-0.0574 0.0786,-0.0779 0.37666,-0.11463 0.19975,-0.0246 0.40624,-0.0677 0.45888,-0.0959 0.14976,-0.0802 0.21233,-0.25026 0.24735,-0.67247 0.0477,-0.57493 0.0446,-5.46625002 -0.004,-5.59282002 l -0.0393,-0.10336 -0.8437,0.016 c -0.7609,0.0144 -0.86551,0.0245 -1.06594,0.10326 -0.2615,0.10274 -0.44581,0.29601 -0.62454,0.65493 -0.0893,0.17927 -0.14141,0.24242 -0.1998,0.24198 -0.1912,-0.001 -0.19398,-0.0372 -0.0456,-0.58685 0.11624,-0.43068 0.25772,-1.03643998 0.25772,-1.10344998 0,-0.009 0.0441,-0.0169 0.098,-0.0169 0.0683,0 0.10896,0.0288 0.13412,0.095 0.0199,0.0523 0.0841,0.12647998 0.14285,0.16495998 0.0998,0.0654 0.28161,0.0707 2.78655,0.0817 1.85846,0.008 2.72444,-0.001 2.82537,-0.0307 0.0827,-0.0241 0.18222,-0.0921 0.23047,-0.15733998 0.0821,-0.11108 0.19906,-0.15041 0.241759,-0.0813 0.0114,0.0185 -0.005,0.16255998 -0.0365,0.32020998 -0.0315,0.15764 -0.0687,0.52712 -0.0827,0.82107 -0.0249,0.52365 -0.0273,0.53492 -0.1193,0.558 -0.12894,0.0324 -0.162,-0.0131 -0.22356,-0.30733 -0.0794,-0.37958 -0.14831,-0.48603 -0.3845,-0.59417 -0.30784,-0.14093 -0.54762,-0.17154 -1.3437,-0.17154 -0.57833,0 -0.73669,0.0112 -0.77278,0.0547 -0.034,0.0409 -0.0425,0.7941 -0.0339,2.99829002 0.0104,2.64873 0.018,2.95789 0.0762,3.08614 0.0914,0.20139 0.21928,0.26913 0.59392,0.31456 0.33114,0.0401 0.38194,0.0708 0.34588,0.20871 -0.0178,0.0681 -0.0925,0.0717 -1.4963,0.0724 -1.1209,5.4e-4 -1.48192,-0.0106 -1.49559,-0.0463 z m 6.566319,-0.0159 c -0.0394,-0.12403 0.0247,-0.17569 0.29695,-0.23959 0.30426,-0.0714 0.35861,-0.10475 0.45377,-0.27838 0.0591,-0.10793 0.0664,-0.37184 0.0766,-2.77785 0.007,-1.65217 -0.004,-2.75367002 -0.0279,-2.90974002 -0.063,-0.40434 -0.19133,-0.51185 -0.67454,-0.56491 -0.22395,-0.0246 -0.22533,-0.0255 -0.21347,-0.14432 l 0.0119,-0.11956 1.31964,0.002 1.31964,0.002 0.012,0.11769 c 0.0115,0.11356 0.005,0.11854 -0.17466,0.14217 -0.31521,0.0414 -0.51112,0.13034 -0.58528,0.26587 -0.0588,0.10741 -0.0685,0.27408 -0.0789,1.34421002 -0.0109,1.12535 -0.006,1.22551 0.0559,1.27113 0.0528,0.0386 0.49415,0.0495 1.99818,0.0495 1.73499,0 1.93688,-0.006 1.99391,-0.0635 0.0566,-0.0566 0.0621,-0.19478 0.0513,-1.27113 -0.0112,-1.10864002 -0.0183,-1.21774002 -0.0865,-1.33050002 -0.0902,-0.14909 -0.20363,-0.20486 -0.50376,-0.24772 -0.2631,-0.0376 -0.31394,-0.0734 -0.2824,-0.19909 l 0.0226,-0.0902 1.31163,0.005 1.31164,0.005 0.0119,0.11868 c 0.0116,0.11485 0.006,0.11944 -0.17465,0.14226 -0.48127,0.0608 -0.6053,0.14678 -0.67146,0.46544 -0.028,0.13493 -0.0381,1.09625002 -0.0307,2.93446002 0.0119,2.96519 0.005,2.86901 0.22447,3.03147 0.0534,0.0395 0.22805,0.0934 0.38813,0.11992 0.28623,0.0474 0.29106,0.0501 0.29106,0.1637 l 0,0.11553 -1.33104,9e-4 -1.33104,9.1e-4 -0.0226,-0.0902 c -0.0305,-0.1216 0.007,-0.14883 0.27132,-0.19697 0.28496,-0.0519 0.40575,-0.11117 0.50807,-0.24933 0.0787,-0.10622 0.0811,-0.15077 0.0811,-1.4737 l 0,-1.36418 -0.097,-0.0497 c -0.0758,-0.0388 -0.51602,-0.0476 -2.01,-0.04 -1.65043,0.008 -1.91816,0.0177 -1.95083,0.0679 -0.0232,0.0357 -0.0339,0.56768 -0.0277,1.37786 0.011,1.42891 0.0159,1.46364 0.22866,1.62102 0.064,0.0474 0.2202,0.0911 0.41917,0.11735 l 0.31713,0.0419 -0.0116,0.11872 -0.0116,0.11872 -1.32947,0.001 c -1.19761,0.001 -1.33148,-0.005 -1.34963,-0.0622 z m 9.26908,0.0152 c -0.01,-0.0254 -0.0117,-0.0778 -0.004,-0.11644 0.011,-0.0571 0.0778,-0.0787 0.35865,-0.11564 0.22107,-0.0291 0.38137,-0.0722 0.44585,-0.11993 0.22378,-0.16552 0.21606,-0.0634 0.22943,-3.03668 0.009,-1.93291002 -5.8e-4,-2.79574002 -0.0316,-2.93872002 -0.0597,-0.27523 -0.18671,-0.37782 -0.54201,-0.43775 -0.22192,-0.0374 -0.27318,-0.0594 -0.27318,-0.11703 0,-0.18206 -0.10475,-0.17496 2.41652,-0.16385 l 2.37687,0.0105 0.0287,0.14479 c 0.0425,0.21435 0.13807,1.22688 0.119,1.26065 -0.009,0.016 -0.0655,0.0291 -0.12538,0.0291 -0.1005,0 -0.11739,-0.0231 -0.21772,-0.29822 -0.12681,-0.34771 -0.30917,-0.57104 -0.56145,-0.68763 -0.15971,-0.0738 -0.26031,-0.0819 -1.17572,-0.0942 -0.74317,-0.01 -1.01565,-0.001 -1.05765,0.0335 -0.0476,0.0395 -0.0565,0.25798 -0.056,1.37155 3.9e-4,0.76499002 0.0161,1.34919002 0.0373,1.38281002 0.048,0.0761 0.77673,0.0994 1.41763,0.0453 0.57297,-0.0484 0.6071,-0.0749 0.70688,-0.54985 0.0684,-0.32545 0.071,-0.33007 0.1927,-0.34186 l 0.12339,-0.012 -0.007,1.09872 -0.007,1.09871 -0.11272,0 c -0.10855,0 -0.11588,-0.012 -0.19835,-0.32361 -0.11039,-0.41717 -0.19196,-0.50256 -0.52627,-0.55088 -0.39074,-0.0565 -1.48217,-0.0477 -1.56459,0.0125 -0.0636,0.0465 -0.0677,0.14091 -0.0559,1.29053 0.0124,1.21804 0.0143,1.24379 0.10574,1.42947 0.0736,0.1495 0.12866,0.20483 0.26308,0.26429 0.41744,0.18465 2.05169,0.18016 2.43769,-0.007 0.2011,-0.0973 0.41642,-0.35099 0.66927,-0.78838 0.13821,-0.23909 0.19169,-0.30041 0.25385,-0.2911 0.15807,0.0237 0.16673,0.11729 0.0481,0.51912 -0.0614,0.20796 -0.16552,0.52821 -0.23135,0.71166 l -0.11969,0.33354 -2.67255,0 c -2.03235,0 -2.6768,-0.0111 -2.69031,-0.0462 z"
       id="path6321"
       inkscape:connector-curvature="0" />
    <path
       style="fill:#000000"
       d="m 82.277952,57.35067 c -2.98609,-0.867045 -3.41296,-1.888459 -3.6877,-8.823934 -0.24093,-6.082012 -0.28661,-6.293391 -1.49126,-6.901037 -1.11333,-0.561585 -0.88044,-0.624329 2.23689,-0.602667 2.67178,0.01857 3.21027,0.132125 2.3195,0.489143 -1.13944,0.456689 -1.15713,0.571923 -0.99417,6.474769 0.1623,5.878885 0.1963,6.035917 1.56062,7.20834 0.90081,0.774112 2.01256,1.198536 3.13946,1.198536 4.00237,0 5.16203,-1.98071 5.15138,-8.798567 -0.008,-5.215203 -0.18732,-5.861377 -1.73218,-6.247348 -0.5468,-0.136611 0.4598,-0.260153 2.23687,-0.274538 2.24736,-0.0182 2.91203,0.102767 2.18317,0.397302 -1.28716,0.520153 -1.68609,2.313111 -1.68609,7.578164 0,5.046721 -0.84668,6.979133 -3.52794,8.051964 -2.15918,0.863932 -3.40581,0.918499 -5.70855,0.249873 z M 138.2404,51.116097 c -3.14406,-3.636976 -5.88424,-6.621598 -6.08928,-6.632495 -0.4464,-0.02372 -0.4888,7.414337 -0.0572,10.025277 0.23061,1.394939 0.62217,1.959615 1.61005,2.321909 1.08406,0.397566 0.76936,0.485366 -1.85651,0.517957 -3.0842,0.03828 -3.13565,0.01788 -2.09456,-0.830654 1.01001,-0.823206 1.05966,-1.229353 0.92497,-7.566668 -0.13987,-6.581225 -0.16377,-6.707604 -1.38504,-7.324671 -1.17911,-0.595764 -1.12618,-0.628275 1.03417,-0.635228 2.10566,-0.0067 2.39435,0.151548 3.83881,2.105281 0.85905,1.161936 3.23682,3.902115 5.28393,6.089288 l 3.72202,3.976676 0.0197,-5.550778 0.0197,-5.550778 -1.36698,-0.499265 c -1.16055,-0.423867 -0.87904,-0.500111 1.86406,-0.504866 2.67635,-0.0046 3.03904,0.087 2.11262,0.533803 -1.08758,0.524516 -1.11844,0.749153 -1.11844,8.138916 0,4.179733 -0.16777,7.689394 -0.37282,7.799246 -0.20505,0.109852 -2.94523,-2.775975 -6.08929,-6.41295 z m 16.46484,6.295956 c -3.81993,-0.958991 -6.52315,-4.318772 -6.52315,-8.10752 0,-3.612241 1.5311,-6.03517 4.8353,-7.651765 2.31622,-1.133223 3.09105,-1.265607 6.1334,-1.047928 1.91524,0.137034 3.55445,0.334371 3.64269,0.438526 0.35894,0.423679 0.71074,3.917277 0.39417,3.914364 -0.18786,-0.0017 -0.71348,-0.656885 -1.16805,-1.455903 -1.00161,-1.760562 -3.56008,-2.600765 -6.14456,-2.017871 -4.6441,1.047415 -6.58873,6.492267 -4.08908,11.449214 1.27483,2.52807 3.58442,3.955755 6.40124,3.956962 2.26127,9e-4 3.02635,-0.897527 2.8269,-3.319859 -0.13633,-1.65565 -0.33138,-1.918896 -1.52334,-2.056046 -2.67734,-0.308064 -1.31187,-0.970476 1.86399,-0.904253 1.77703,0.03705 3.231,0.139272 3.23105,0.22715 4e-5,0.08788 -0.35997,0.519835 -0.80004,0.959905 -0.57761,0.577605 -0.73373,1.389265 -0.56136,2.918484 0.16493,1.463251 0.0384,2.195229 -0.40902,2.366934 -1.36386,0.523361 -6.50594,0.732342 -8.11014,0.329606 z m 32.58936,-0.220935 c -2.54662,-0.94345 -3.77506,-2.115082 -4.93387,-4.705723 -1.6473,-3.682702 -0.31366,-8.059417 3.26343,-10.709866 1.12097,-0.830579 2.12925,-1.039875 5.00954,-1.039875 3.16257,0 3.82517,0.167082 5.38711,1.35843 4.78791,3.651922 4.15354,11.824967 -1.12989,14.557136 -2.15417,1.113964 -5.42018,1.346092 -7.59632,0.539898 z m 7.66935,-2.189049 c 1.6736,-1.873087 2.20361,-4.850388 1.43432,-8.057169 -1.66355,-6.934439 -10.17471,-7.502305 -11.86448,-0.791599 -0.92772,3.684276 0.66187,8.503745 3.29354,9.985709 2.16221,1.217597 5.50928,0.684372 7.13662,-1.136941 z m 15.64239,-3.770175 c -3.25869,-3.722458 -5.99887,-6.768106 -6.08929,-6.768106 -0.0904,0 -0.16439,2.565269 -0.16439,5.700598 l 0,5.700597 1.36698,0.741601 c 1.32876,0.720861 1.27663,0.741216 -1.86407,0.72786 -2.58438,-0.01099 -3.01858,-0.116622 -2.16943,-0.527787 1.28296,-0.621226 1.66191,-2.530988 1.66009,-8.366192 -0.001,-5.322337 -0.27081,-6.297394 -1.90346,-6.895732 -1.1917,-0.43674 -1.10155,-0.485739 0.95903,-0.521294 2.20066,-0.03797 2.35755,0.06142 4.84193,3.067536 1.41217,1.708728 3.90436,4.560752 5.5382,6.337828 l 2.97062,3.231051 0.0165,-4.814215 c 0.018,-5.259221 -0.44129,-7.156216 -1.81931,-7.513354 -0.49397,-0.12802 0.41286,-0.258712 2.01518,-0.290427 2.83895,-0.05619 2.8866,-0.03546 1.86672,0.812236 -0.96953,0.805841 -1.05594,1.432334 -1.17352,8.507902 L 216.53118,58 l -5.9249,-6.768106 z m 34.35008,5.932997 c -3.74763,-1.336573 -5.31075,-3.729238 -5.31075,-8.129145 0,-5.421175 3.65679,-8.727133 9.31498,-8.421296 4.51248,0.24391 7.39056,2.681883 7.93207,6.719125 0.59742,4.454106 -1.19365,7.866395 -5.04792,9.617146 -2.37545,1.079021 -4.29598,1.138733 -6.88838,0.21417 z m 7.39934,-1.79759 c 3.41436,-3.207624 2.45833,-11.483247 -1.53687,-13.303584 -1.79714,-0.818833 -4.78483,-0.724042 -6.09461,0.193366 -1.66379,1.165359 -2.59319,3.361052 -2.59319,6.126337 0,3.855246 1.59915,6.905283 4.22522,8.058689 1.58407,0.695747 4.71109,0.135537 5.99945,-1.074808 z m 8.91309,2.182172 c -1.69174,-0.456837 -2.23695,-1.208316 -2.23502,-3.080587 l 0.002,-1.803201 0.99116,1.625661 c 1.75939,2.885656 5.38598,3.418526 6.50788,0.956229 0.81471,-1.788082 -0.22403,-3.602278 -3.19008,-5.571626 -4.08484,-2.712094 -4.85727,-5.241264 -2.36271,-7.735821 1.13831,-1.138306 1.89903,-1.453016 3.51227,-1.453016 2.69568,0 3.98224,0.728327 3.98224,2.25437 0,0.673872 -0.22369,1.225222 -0.49709,1.225222 -0.27339,0 -0.49708,-0.327662 -0.49708,-0.728138 0,-1.84731 -4.5686,-2.443529 -5.49271,-0.716817 -0.96338,1.800081 -0.13153,3.345653 2.8152,5.230653 4.21627,2.697114 5.16736,6.068829 2.43577,8.635026 -1.1637,1.093231 -4.10626,1.665819 -5.97182,1.162045 z M 5.6565923,56.599506 l 1.38049,-0.748678 -0.13778,-7.060502 -0.13778,-7.060503 -2.19627,0.04909 c -1.60893,0.03596 -2.42785,0.335062 -3.06219,1.11844 -1.21623998,1.501987 -1.58653998,1.332138 -1.19076998,-0.546171 0.40009,-1.898748 0.98330998,-2.665098 1.45161998,-1.90738 0.48179,0.779555 12.8123897,0.728676 13.5971697,-0.05611 0.46395,-0.463945 0.5965,-0.132556 0.5965,1.491253 0,1.148266 -0.22368,2.087756 -0.49707,2.087756 -0.27341,0 -0.49709,-0.341068 -0.49709,-0.75793 0,-0.961074 -2.21796,-1.821113 -4.19726,-1.627534 l -1.5192197,0.148584 -0.13777,7.060502 -0.13778,7.060502 1.3804897,0.748679 c 1.33315,0.723008 1.25266,0.748677 -2.3476497,0.748677 -3.60031,0 -3.6808,-0.02567 -2.34764,-0.748677 z m 12.1650697,0.181793 c 1.08299,-0.522312 1.11843,-0.765883 1.11843,-7.687186 0,-6.947924 -0.0312,-7.160354 -1.11843,-7.597342 -0.8253,-0.331725 -0.20641,-0.449558 2.36114,-0.449558 2.61842,0 3.19688,0.113451 2.33725,0.458401 -1.04626,0.419844 -1.12988,0.720324 -0.99417,3.572355 l 0.14818,3.113954 4.47376,0 4.47376,0 0.14818,-3.113954 c 0.13571,-2.852031 0.0521,-3.152511 -0.99417,-3.572355 -0.86528,-0.347219 -0.29839,-0.464266 2.33725,-0.482582 3.11904,-0.02167 3.35082,0.04087 2.23687,0.60356 -1.2079,0.610157 -1.24674,0.794438 -1.38666,6.579043 -0.16823,6.954955 -0.013,7.841585 1.50014,8.570843 0.93473,0.450481 0.52987,0.545529 -2.35035,0.551794 -3.3042,0.0072 -3.42323,-0.03176 -2.36115,-0.772614 0.9614,-0.670645 1.11843,-1.225317 1.11843,-3.950604 l 0,-3.170419 -4.7223,0 -4.7223,0 0,3.40363 c 0,3.038479 0.11998,3.4615 1.11843,3.943034 0.91847,0.442961 0.49632,0.539404 -2.36115,0.539404 -2.85746,0 -3.27961,-0.09644 -2.36114,-0.539404 z m 19.63484,-0.174715 1.36698,-0.741601 0,-6.959327 c 0,-6.752488 -0.0332,-6.972688 -1.11844,-7.408885 -0.76649,-0.308094 0.71949,-0.459473 4.7223,-0.481067 l 5.84075,-0.03151 -0.0199,1.864067 -0.0199,1.864068 -0.73025,-1.345306 c -0.75689,-1.394407 -2.91447,-2.135449 -5.25411,-1.804579 -1.10813,0.15671 -1.18356,0.373294 -1.18356,3.398427 l 0,3.23105 2.08253,0.151383 c 1.84338,0.133998 2.16932,-0.0087 2.83833,-1.242712 0.75059,-1.384472 0.75595,-1.374163 0.77571,1.493479 0.0124,1.803017 -0.1668,2.772185 -0.47718,2.580357 -0.2734,-0.168968 -0.49709,-0.629545 -0.49709,-1.023505 0,-0.528159 -0.65279,-0.71629 -2.48542,-0.71629 l -2.48542,0 0,2.518102 c 0,3.883866 0.49594,4.441082 3.95271,4.441082 2.61606,0 3.02822,-0.143676 3.91867,-1.366073 1.23667,-1.697683 1.75742,-1.298999 1.02975,0.788383 l -0.54794,1.571859 -6.53775,-0.0199 c -6.08091,-0.01851 -6.44222,-0.07172 -5.17077,-0.761502 z m 19.51056,0.28432 c 0.16898,-0.273397 0.62955,-0.497084 1.02351,-0.497084 0.5908,0 0.71629,-1.265521 0.71629,-7.223746 0,-7.026699 -0.0305,-7.236008 -1.11844,-7.673303 -0.82528,-0.331725 -0.2064,-0.449558 2.36115,-0.449558 2.42511,0 3.15953,0.129253 2.42346,0.426512 -0.7734,0.312328 -1.14778,1.037564 -1.39842,2.708961 -0.61718,4.115667 -0.38375,4.315287 4.85496,4.151642 l 4.55878,-0.142405 0.14817,-3.113954 c 0.13572,-2.852031 0.0521,-3.152511 -0.99416,-3.572355 -0.87019,-0.349191 -0.37258,-0.456559 2.0887,-0.450666 1.77708,0.0043 2.89552,0.13546 2.48543,0.291568 -1.33116,0.506728 -1.47592,1.28219 -1.48365,7.947972 l -0.007,6.570495 1.36698,0.741601 c 1.32103,0.716669 1.25,0.741393 -2.1126,0.735429 -3.30592,-0.0059 -3.42377,-0.04511 -2.36115,-0.786355 0.9614,-0.670645 1.11844,-1.225317 1.11844,-3.950604 l 0,-3.170419 -4.68881,0 c -5.39222,0 -5.59492,0.179844 -5.00845,4.443909 0.24394,1.773699 0.61084,2.533681 1.40965,2.919963 0.8723,0.42182 0.42928,0.528663 -2.30478,0.555838 -2.1377,0.02125 -3.27147,-0.14949 -3.07744,-0.463441 z m 38.64833,-0.28432 1.36698,-0.741601 0,-6.666579 c 0,-6.325551 -0.0565,-6.706165 -1.10477,-7.440394 -1.02797,-0.720023 -0.71698,-0.773814 4.473758,-0.773814 l 5.57854,0 -0.0199,1.864067 -0.0199,1.864067 -0.73024,-1.345305 c -0.4892,-0.901255 -1.28663,-1.449685 -2.41588,-1.661533 -3.211218,-0.60243 -3.508798,-0.328106 -3.671688,3.384791 l -0.14702,3.350182 2.432158,0 c 2.03104,0 2.52114,-0.184461 2.97159,-1.11844 0.46087,-0.955623 0.54429,-0.722432 0.57304,1.601858 0.0321,2.600094 -5e-4,2.671481 -0.74017,1.615525 -0.60222,-0.859781 -1.26361,-1.104773 -2.9825,-1.104773 l -2.208698,0 0,3.215174 c 0,2.996292 0.0931,3.265662 1.366978,3.956775 1.31426,0.713 1.22321,0.7416 -2.361148,0.7416 -3.58436,0 -3.67542,-0.0286 -2.36116,-0.7416 z m 13.172738,-0.05092 c 1.06888,-0.745606 1.11845,-1.086644 1.11845,-7.694756 0,-6.706076 -0.0337,-6.928128 -1.11845,-7.36413 -0.77086,-0.309851 0.61944,-0.459351 4.47377,-0.481068 l 5.5922,-0.03151 -0.0315,1.864068 c -0.0267,1.578854 -0.0985,1.697911 -0.46904,0.778122 -0.60129,-1.492372 -2.17614,-2.231495 -4.36707,-2.049585 l -1.84301,0.153022 -0.14698,3.355321 -0.14699,3.355322 2.55468,0 c 2.13661,0 2.59721,-0.162688 2.81465,-0.99417 0.48049,-1.837401 1.02364,-1.015773 0.98582,1.491254 -0.0411,2.725242 -0.2782,3.004948 -1.24071,1.463719 -0.51001,-0.816654 -1.05776,-0.991238 -2.72927,-0.869898 l -2.0912,0.151807 -0.14727,3.078854 c -0.13994,2.925727 -0.0781,3.116338 1.24271,3.832503 1.35333,0.733779 1.29824,0.753487 -2.08961,0.747478 -3.30592,-0.0058 -3.42377,-0.04511 -2.36116,-0.786355 z m 12.30285,0.335246 c 0.16897,-0.273396 0.62955,-0.497084 1.02351,-0.497084 0.5908,0 0.71629,-1.26552 0.71629,-7.223745 0,-7.026699 -0.0305,-7.236009 -1.11844,-7.673303 -0.82343,-0.330977 -0.20062,-0.447518 2.36115,-0.441824 1.91378,0.0043 3.14406,0.127652 2.73397,0.274216 -1.66334,0.59446 -1.98839,1.796959 -1.98156,7.33058 0.008,6.445112 0.21057,7.443601 1.65189,8.140809 0.86588,0.418848 0.41611,0.526702 -2.30937,0.553793 -2.13769,0.02125 -3.27147,-0.149491 -3.07744,-0.463442 z m 49.5852,-0.08101 c 1.77399,-0.647872 1.93003,-1.434783 1.75819,-8.866518 l -0.14367,-6.213558 -2.11871,0.04335 c -1.50695,0.03083 -2.49484,0.389659 -3.42135,1.242711 l -1.30263,1.199356 0.35889,-1.988338 c 0.42828,-2.372698 0.60052,-2.602524 1.37211,-1.830928 0.81877,0.81877 12.89149,0.811476 13.71125,-0.0083 0.46395,-0.463946 0.595,-0.381099 0.58972,0.372813 -0.004,0.533123 -0.1402,1.466991 -0.30325,2.075262 l -0.29647,1.105947 -0.8558,-1.056862 c -0.62366,-0.770195 -1.45152,-1.070176 -3.05207,-1.105948 l -2.19627,-0.04908 -0.13778,7.060503 -0.13778,7.060502 1.3805,0.748678 c 1.32503,0.718603 1.22074,0.747901 -2.59619,0.729337 -3.25492,-0.01583 -3.72839,-0.110018 -2.60869,-0.518944 z m 56.4181,-0.254241 c 1.06502,-0.742922 1.11844,-1.097031 1.11844,-7.414321 l 0,-6.634136 -1.36698,-0.741601 c -1.29259,-0.701238 -1.10472,-0.742683 3.45187,-0.761502 4.38184,-0.0181 4.94431,0.08801 6.20226,1.170053 1.08706,0.935044 1.38341,1.618689 1.38341,3.191345 0,2.471893 -1.17835,3.88572 -3.83466,4.60099 -2.24388,0.604213 -3.1375,0.237635 -1.20853,-0.495757 1.91808,-0.729254 3.00362,-2.677011 2.62294,-4.706257 -0.39214,-2.090289 -1.27573,-2.863081 -3.38419,-2.959864 l -1.62924,-0.07478 -0.13778,7.060502 -0.13778,7.060503 1.3805,0.748678 c 1.34,0.726719 1.27843,0.748497 -2.09911,0.742506 -3.30591,-0.0058 -3.42377,-0.04511 -2.36115,-0.786355 z m 47.95293,0.259824 c 1.72298,-0.629928 1.9734,-1.947913 1.78013,-9.369186 l -0.14887,-5.716473 -2.41569,0.03465 c -1.93479,0.02776 -2.60992,0.27514 -3.39141,1.242712 l -0.97572,1.20806 0.32896,-1.988338 c 0.39152,-2.366391 0.56714,-2.605966 1.34218,-1.830929 0.83787,0.837876 12.87953,0.808911 13.77698,-0.03314 0.54644,-0.512711 0.60728,-0.328014 0.34796,1.056305 -0.17285,0.922715 -0.31428,1.89817 -0.31428,2.167681 0,0.269509 -0.40028,-0.0043 -0.88951,-0.608485 -0.60673,-0.749275 -1.63391,-1.182406 -3.23105,-1.362427 l -2.34154,-0.263925 0,7.479493 0,7.479493 1.36698,0.499264 c 1.11329,0.406607 0.62896,0.499265 -2.60969,0.499265 -3.20969,0 -3.71606,-0.09528 -2.62543,-0.494019 z"
       id="path18193"
       inkscape:connector-curvature="0" />
  </g>
</svg>
