<?xml version="1.0" encoding="UTF-8" standalone="no"?>
<!-- Created with Inkscape (http://www.inkscape.org/) -->

<svg
   xmlns:dc="http://purl.org/dc/elements/1.1/"
   xmlns:cc="http://creativecommons.org/ns#"
   xmlns:rdf="http://www.w3.org/1999/02/22-rdf-syntax-ns#"
   xmlns:svg="http://www.w3.org/2000/svg"
   xmlns="http://www.w3.org/2000/svg"
   xmlns:sodipodi="http://sodipodi.sourceforge.net/DTD/sodipodi-0.dtd"
   xmlns:inkscape="http://www.inkscape.org/namespaces/inkscape"
   width="64px"
   height="64px"
   id="svg4943"
   version="1.1"
   inkscape:version="0.48.5 r10040"
   sodipodi:docname="huffingtonpost.svg">
  <defs
     id="defs4945" />
  <sodipodi:namedview
     id="base"
     pagecolor="#ffffff"
     bordercolor="#666666"
     borderopacity="1.0"
     inkscape:pageopacity="0.0"
     inkscape:pageshadow="2"
     inkscape:zoom="10.453125"
     inkscape:cx="19.994021"
     inkscape:cy="32"
     inkscape:current-layer="layer1"
     showgrid="true"
     inkscape:document-units="px"
     inkscape:grid-bbox="true"
     inkscape:window-width="1440"
     inkscape:window-height="855"
     inkscape:window-x="0"
     inkscape:window-y="0"
     inkscape:window-maximized="1" />
  <metadata
     id="metadata4948">
    <rdf:RDF>
      <cc:Work
         rdf:about="">
        <dc:format>image/svg+xml</dc:format>
        <dc:type
           rdf:resource="http://purl.org/dc/dcmitype/StillImage" />
        <dc:title />
      </cc:Work>
    </rdf:RDF>
  </metadata>
  <g
     id="layer1"
     inkscape:label="Layer 1"
     inkscape:groupmode="layer">
    <g
       id="g8444"
       transform="matrix(0.5,0,0,0.5,1338.4161,-2297.7595)"
       inkscape:export-filename="/Users/bdharva/Dropbox/Jolt/Software/jolt.github.io/assets/icons/press/huffington.png"
       inkscape:export-xdpi="90"
       inkscape:export-ydpi="90">
      <rect
         style="fill:#007365;fill-opacity:1;stroke:none"
         id="rect4550-4-6-9-5-1-9-2-8"
         width="48"
         height="48"
         x="-2636.8323"
         y="4635.519"
         rx="6" />
      <rect
         style="fill:#f9f9f9;fill-opacity:1;stroke:none"
         id="rect4550-4-6-9-5-1-9-2-8-0"
         width="40"
         height="40"
         x="-2632.8323"
         y="4639.519"
         rx="2" />
      <path
         inkscape:connector-curvature="0"
         id="path8386-5"
         d="m -2629.2865,4673.4625 c -0.1,-0.2629 -0.05,-0.7526 0.086,-0.8363 0.039,-0.024 0.3625,-0.088 0.7193,-0.1424 2.3486,-0.3576 3.3499,-0.9318 3.5919,-2.0599 0.072,-0.338 0.1038,-3.6635 0.1038,-11.0095 0,-11.7259 0.031,-11.155 -0.63,-11.7985 -0.5297,-0.5163 -1.3084,-0.8063 -2.8175,-1.0497 -0.4781,-0.077 -0.9105,-0.1657 -0.9609,-0.1968 -0.1485,-0.092 -0.1092,-0.8518 0.051,-0.9847 0.115,-0.095 0.7511,-0.086 3.2924,0.051 3.0481,0.1642 3.2468,0.1641 6.1518,0 2.9254,-0.168 3.0052,-0.1679 3.1295,0 0.1498,0.2049 0.1651,0.5492 0.035,0.7919 -0.063,0.1182 -0.2473,0.1921 -0.5859,0.2353 -0.915,0.1168 -2.0642,0.4249 -2.5297,0.6783 -0.3168,0.1724 -0.5414,0.3861 -0.7132,0.6783 l -0.2508,0.4266 -0.027,5.2265 -0.027,5.2266 7.8355,0 7.8356,0 -0.027,-5.2266 -0.027,-5.2265 -0.2508,-0.4266 c -0.1718,-0.2922 -0.3965,-0.5059 -0.7132,-0.6783 -0.4655,-0.2534 -1.6148,-0.5615 -2.5297,-0.6783 -0.5251,-0.067 -0.6782,-0.2107 -0.6782,-0.6367 0,-0.5098 -0.1209,-0.5029 5.0411,-0.285 0.9448,0.04 2.4658,0 4.4731,-0.1083 2.4702,-0.1369 3.0685,-0.1461 3.1855,-0.049 0.1742,0.1446 0.1929,0.7845 0.027,0.9177 -0.065,0.052 -0.5324,0.1639 -1.04,0.2494 -1.8297,0.308 -2.667,0.7205 -3.0616,1.5084 l -0.2344,0.468 -0.025,10.6875 c -0.018,7.3022 0.01,10.836 0.074,11.1563 0.2484,1.1655 1.1375,1.7187 3.3204,2.0657 0.5125,0.082 0.9627,0.1673 1.0006,0.1907 0.1341,0.083 0.1835,0.574 0.084,0.8356 l -0.1008,0.2652 -1.4734,-0.06 c -0.8103,-0.033 -2.2681,-0.1056 -3.2395,-0.1614 -1.2757,-0.073 -2.2392,-0.073 -3.4688,0 -3.4366,0.2083 -4.2643,0.227 -4.4179,0.1 -0.1741,-0.1445 -0.1927,-0.7835 -0.027,-0.9202 0.064,-0.053 0.518,-0.1647 1.0078,-0.248 1.2057,-0.205 2.0135,-0.4848 2.4134,-0.8359 0.6521,-0.5726 0.6304,-0.3669 0.6613,-6.2722 l 0.028,-5.3203 -7.8368,0 -7.8367,0 0.028,5.3203 c 0.03,5.7149 0.021,5.6159 0.5257,6.1493 0.4554,0.4816 1.3028,0.7852 2.7661,0.9908 0.3516,0.049 0.6996,0.1399 0.7734,0.2012 0.1796,0.149 0.173,0.7834 -0.01,0.935 -0.1536,0.1275 -0.9813,0.1088 -4.4179,-0.1 -1.2375,-0.075 -2.1849,-0.075 -3.4687,0 -0.9714,0.057 -2.4293,0.1292 -3.2397,0.1612 l -1.4734,0.058 -0.1008,-0.265 z"
         style="fill:#1a1a1a" />
    </g>
  </g>
</svg>
