<?xml version="1.0" encoding="UTF-8" standalone="no"?>
<!-- Created with Inkscape (http://www.inkscape.org/) -->

<svg
   xmlns:dc="http://purl.org/dc/elements/1.1/"
   xmlns:cc="http://creativecommons.org/ns#"
   xmlns:rdf="http://www.w3.org/1999/02/22-rdf-syntax-ns#"
   xmlns:svg="http://www.w3.org/2000/svg"
   xmlns="http://www.w3.org/2000/svg"
   xmlns:sodipodi="http://sodipodi.sourceforge.net/DTD/sodipodi-0.dtd"
   xmlns:inkscape="http://www.inkscape.org/namespaces/inkscape"
   width="64"
   height="64"
   id="svg4943"
   version="1.1"
   inkscape:version="0.48.5 r10040"
   sodipodi:docname="huffingtonpost.svg">
  <defs
     id="defs4945" />
  <sodipodi:namedview
     id="base"
     pagecolor="#ffffff"
     bordercolor="#666666"
     borderopacity="1.0"
     inkscape:pageopacity="0.0"
     inkscape:pageshadow="2"
     inkscape:zoom="10.390625"
     inkscape:cx="32"
     inkscape:cy="32"
     inkscape:current-layer="layer1"
     showgrid="true"
     inkscape:document-units="px"
     inkscape:grid-bbox="true"
     inkscape:window-width="1440"
     inkscape:window-height="851"
     inkscape:window-x="0"
     inkscape:window-y="1"
     inkscape:window-maximized="1" />
  <metadata
     id="metadata4948">
    <rdf:RDF>
      <cc:Work
         rdf:about="">
        <dc:format>image/svg+xml</dc:format>
        <dc:type
           rdf:resource="http://purl.org/dc/dcmitype/StillImage" />
        <dc:title />
      </cc:Work>
    </rdf:RDF>
  </metadata>
  <g
     id="layer1"
     inkscape:label="Layer 1"
     inkscape:groupmode="layer">
    <path
       inkscape:connector-curvature="0"
       id="path5225"
       d="m 28.999693,41.229313 c -0.236175,-0.06893 -0.57757,-0.247446 -0.778544,-0.407161 -0.338852,-0.269296 -0.586496,-0.64261 -0.725222,-1.093265 -0.06172,-0.200489 -0.06603,-0.242829 -0.06582,-0.646568 2.76e-4,-0.513156 0.03426,-0.672994 0.225765,-1.061479 0.357733,-0.725724 1.013977,-1.167063 1.868372,-1.256526 0.790261,-0.08274 1.552253,0.200076 2.014135,0.747534 0.479547,0.568359 0.64686,1.428608 0.426059,2.190571 -0.210787,0.727373 -0.746259,1.28085 -1.466772,1.516051 -0.176453,0.05759 -0.207679,0.05994 -0.762973,0.05821 -0.493982,0 -0.601898,-0.0087 -0.735005,-0.04737 z m 1.247031,-0.15386 c 0.607212,-0.16326 1.029813,-0.713521 1.130667,-1.472309 0.03558,-0.267689 0.01818,-0.744978 -0.03772,-1.034311 -0.193793,-1.003184 -0.822369,-1.609885 -1.66792,-1.609885 -0.670175,0 -1.226834,0.391412 -1.45652,1.02421 -0.240577,0.66277 -0.182022,1.510898 0.150884,2.185253 0.261682,0.530101 0.683013,0.858517 1.208916,0.94225 0.170978,0.02721 0.504375,0.0099 0.671688,-0.03504 z m 3.268583,0.142234 C 33.235398,41.121337 33.215011,41.10625 33.170391,40.962449 33.117541,40.792098 33.0593,40.460713 33.050877,40.282405 l -0.0068,-0.144007 0.07508,-0.0074 c 0.06493,-0.0062 0.07729,0 0.09145,0.05999 0.009,0.0371 0.05945,0.15687 0.112101,0.266329 0.115631,0.240396 0.327176,0.466363 0.525615,0.561474 0.357833,0.171547 0.814009,0.133618 1.074392,-0.08926 0.338781,-0.289951 0.315859,-0.924934 -0.04647,-1.287281 -0.05376,-0.05376 -0.304377,-0.23314 -0.556919,-0.398627 -0.562786,-0.368819 -0.785273,-0.57578 -0.916904,-0.852951 -0.04992,-0.105089 -0.09744,-0.253012 -0.112455,-0.350061 -0.08842,-0.571246 0.295834,-1.094461 0.912215,-1.242138 0.188529,-0.04514 0.602884,-0.05178 0.798078,-0.01278 0.35641,0.0712 0.46518,0.100224 0.483036,0.129 0.03125,0.0503 0.06897,0.25194 0.09721,0.519629 0.02828,0.268266 0.02127,0.29057 -0.09197,0.291395 -0.04194,2.88e-4 -0.05981,-0.02515 -0.09413,-0.134319 -0.0567,-0.180246 -0.196242,-0.39067 -0.311885,-0.47028 -0.184706,-0.127145 -0.267012,-0.149655 -0.55031,-0.150397 -0.235383,0 -0.278346,0.0062 -0.396037,0.06172 -0.225489,0.106655 -0.340554,0.261629 -0.379729,0.511466 -0.06333,0.403822 0.125327,0.691877 0.684538,1.045195 0.568488,0.359172 0.684143,0.443358 0.843771,0.614286 0.264955,0.283727 0.367755,0.54251 0.366605,0.922915 -0.0012,0.478731 -0.233334,0.84318 -0.668731,1.05109 l -0.186393,0.08901 -0.55205,0.0062 c -0.536326,0.0058 -0.557092,0.0041 -0.728882,-0.05483 z m -10.181341,0 c -0.04065,-0.04082 -0.0242,-0.109706 0.03121,-0.130938 0.02968,-0.01154 0.117906,-0.03257 0.196015,-0.04704 0.08352,-0.01567 0.164786,-0.04778 0.197322,-0.07837 0.116475,-0.109418 0.11671,-0.113293 0.11671,-1.929067 0,-1.656142 -0.0012,-1.706851 -0.048,-1.80019 -0.05334,-0.106655 -0.12886,-0.140379 -0.376034,-0.167836 -0.144093,-0.01608 -0.182826,-0.05219 -0.140527,-0.131227 0.03311,-0.06184 0.115548,-0.06976 0.912599,-0.08744 0.946608,-0.02103 1.263625,0.02309 1.653165,0.230873 0.511363,0.272513 0.727106,0.979107 0.467081,1.529739 -0.07279,0.154108 -0.257489,0.360327 -0.411003,0.458819 -0.233252,0.149696 -0.642788,0.267276 -0.93074,0.267276 -0.14754,0 -0.154445,-0.0041 -0.154445,-0.0583 0,-0.05116 0.01575,-0.06155 0.128884,-0.08505 0.155811,-0.03216 0.429943,-0.160663 0.537926,-0.251734 0.212275,-0.179133 0.321049,-0.455232 0.323292,-0.820629 0.0029,-0.501613 -0.198262,-0.836873 -0.601848,-1.002195 -0.08416,-0.03463 -0.191192,-0.04869 -0.427927,-0.05685 l -0.315698,-0.01072 -0.0395,0.06027 c -0.03591,0.05479 -0.03884,0.222586 -0.03232,1.856878 0.0063,1.591868 0.01154,1.806209 0.04583,1.880665 0.0699,0.151758 0.108811,0.170104 0.484619,0.228482 0.09594,0.01484 0.135765,0.06567 0.0982,0.125248 -0.01872,0.02968 -0.152512,0.03587 -0.857095,0.03875 -0.500425,0.0041 -0.844046,-0.0054 -0.857713,-0.01938 z m 14.412552,0.01278 c -0.01954,-0.01938 -0.0096,-0.119394 0.01328,-0.133576 0.01282,-0.0078 0.110333,-0.02432 0.216732,-0.03628 0.235969,-0.0268 0.307036,-0.05908 0.37084,-0.168001 0.0483,-0.08246 0.04934,-0.118405 0.05594,-1.931994 0.0063,-1.725032 0.0041,-1.849951 -0.03459,-1.878151 -0.08099,-0.05924 -0.87204,-0.03092 -1.133074,0.0404 -0.143587,0.03917 -0.314301,0.205271 -0.422061,0.410335 -0.08756,0.1666 -0.11934,0.188945 -0.204207,0.143554 -0.04178,-0.02226 -0.0404,-0.03546 0.02832,-0.270039 0.0397,-0.135597 0.09602,-0.359956 0.125121,-0.498562 0.04873,-0.232109 0.05752,-0.252558 0.111273,-0.258701 0.04365,-0.0049 0.06869,0.01154 0.09937,0.06625 0.02255,0.03999 0.07116,0.08629 0.108011,0.102656 0.05054,0.02226 0.453331,0.03175 1.639148,0.0371 0.864681,0.0041 1.629814,0 1.700296,-0.0078 0.100339,-0.01196 0.148319,-0.03381 0.221077,-0.09944 0.08579,-0.07751 0.185527,-0.101006 0.174305,-0.04123 -0.03533,0.188656 -0.0814,0.598497 -0.08734,0.777093 l -0.0076,0.227987 -0.08019,0 c -0.07876,0 -0.0807,-0.0041 -0.109652,-0.14446 -0.06212,-0.304546 -0.130851,-0.381394 -0.408158,-0.456345 -0.187407,-0.05067 -1.032208,-0.0794 -1.109996,-0.03793 l -0.05274,0.02803 0,1.786173 c 0,1.186151 0.0087,1.826658 0.02585,1.906763 0.03236,0.15085 0.121995,0.233305 0.274273,0.252311 0.359675,0.04485 0.32746,0.03339 0.319309,0.113622 l -0.0074,0.07285 -0.908084,0.0041 c -0.499449,0 -0.912587,0 -0.918087,-0.0066 z M 15.596369,34.326338 C 15.08398,34.224589 14.712052,33.93909 14.543556,33.5182 c -0.137737,-0.344083 -0.142655,-0.40077 -0.159863,-1.842612 -0.0087,-0.732692 -0.02441,-1.35374 -0.03484,-1.380167 -0.07325,-0.185811 -0.132727,-0.224606 -0.375878,-0.244972 -0.127582,-0.01072 -0.168694,-0.0235 -0.178757,-0.05508 -0.03434,-0.10818 -0.03525,-0.108098 0.843181,-0.105954 0.730638,0 0.833191,0.0066 0.851854,0.03999 0.04199,0.07503 -9.4e-5,0.106862 -0.161211,0.12191 -0.296049,0.02762 -0.368382,0.103851 -0.395798,0.417014 -0.02713,0.309905 -0.02564,1.768898 0.0021,2.133677 0.0775,1.015882 0.486585,1.472186 1.320988,1.473464 0.778648,0 1.220225,-0.472918 1.318557,-1.415746 0.04798,-0.460014 0.01789,-1.9134 -0.04664,-2.252618 -0.04927,-0.259031 -0.125167,-0.327097 -0.398367,-0.357276 -0.164081,-0.01814 -0.166447,-0.01938 -0.166447,-0.08905 l 0,-0.07066 0.74407,0 0.74407,0 0,0.0693 c 0,0.06716 -0.0047,0.06988 -0.152797,0.08814 -0.173781,0.02144 -0.275118,0.06617 -0.325662,0.143718 -0.07084,0.108717 -0.09042,0.376818 -0.109958,1.505662 -0.02094,1.210186 -0.02939,1.302412 -0.151415,1.653256 -0.178898,0.514434 -0.537682,0.827803 -1.102921,0.963317 -0.237045,0.05685 -0.75065,0.06201 -1.011574,0.01031 z m 18.332782,-0.257547 c -0.133668,-0.161157 -0.651392,-0.757469 -1.150498,-1.325128 -0.499106,-0.567658 -1.09559,-1.251867 -1.325523,-1.520545 -0.270245,-0.315719 -0.426291,-0.480174 -0.441351,-0.465126 -0.03385,0.03381 -0.0099,2.831243 0.02589,3.017797 0.04679,0.244065 0.114063,0.292837 0.470271,0.340661 0.139171,0.01855 0.144016,0.02185 0.144016,0.09029 l 0,0.07095 -0.756072,0 -0.756071,0 0,-0.06856 c 0,-0.06675 0.0052,-0.06955 0.198818,-0.107109 0.12482,-0.02432 0.216262,-0.05603 0.24569,-0.08546 0.09407,-0.09408 0.101827,-0.225348 0.112547,-1.904577 0.01158,-1.814166 0.01731,-1.746018 -0.160107,-1.906309 -0.0734,-0.06629 -0.130863,-0.09157 -0.280626,-0.123353 -0.103583,-0.02185 -0.201832,-0.04424 -0.218331,-0.04943 -0.03282,-0.01031 -0.03966,-0.08048 -0.01163,-0.119477 0.01113,-0.01567 0.213174,-0.02432 0.547865,-0.02391 l 0.530229,0 0.08565,0.144708 c 0.174635,0.295064 0.557859,0.753223 1.695976,2.027517 0.987303,1.105428 1.087024,1.209651 1.112881,1.163476 0.03092,-0.05529 0.0064,-2.499116 -0.02713,-2.70179 -0.04398,-0.265792 -0.07733,-0.340908 -0.171906,-0.387206 -0.04644,-0.02267 -0.167626,-0.05368 -0.269296,-0.06881 -0.149445,-0.02226 -0.187754,-0.03669 -0.199969,-0.07512 -0.0083,-0.02638 -0.0033,-0.05949 0.0113,-0.074 0.01802,-0.01814 0.262927,-0.0268 0.771503,-0.02762 l 0.745093,0 0.01402,0.05578 c 0.01909,0.07598 -4.12e-4,0.08847 -0.209707,0.13403 -0.09989,0.02185 -0.203832,0.05508 -0.23098,0.07413 -0.129783,0.09091 -0.158799,0.600888 -0.147792,2.597979 0.0091,1.655276 0.01109,1.616935 -0.08364,1.613513 -0.01542,0 -0.137403,-0.132875 -0.27107,-0.294033 z m 3.783363,0.259732 c -0.608561,-0.10278 -1.064683,-0.327345 -1.440136,-0.709027 -0.420275,-0.42728 -0.63234,-1.012666 -0.591158,-1.6319 0.07882,-1.185203 0.896418,-2.001957 2.163675,-2.161465 0.35326,-0.04448 0.986251,-0.0169 1.355759,0.05933 0.165017,0.03381 0.329732,0.0618 0.366037,0.06184 0.06429,0 0.06602,0.0041 0.06651,0.138111 2.84e-4,0.0759 0.0207,0.294652 0.04543,0.48607 0.04791,0.371128 0.0445,0.390423 -0.06677,0.378261 -0.04595,-0.0049 -0.06698,-0.03422 -0.109789,-0.152953 -0.07621,-0.211125 -0.159079,-0.34128 -0.305115,-0.479185 -0.256512,-0.242293 -0.59223,-0.337487 -1.111516,-0.315142 -0.757713,0.03257 -1.260962,0.345897 -1.549953,0.965049 -0.132088,0.282984 -0.170174,0.457334 -0.18448,0.844582 -0.04409,1.193407 0.480335,2.038814 1.421509,2.291537 0.260367,0.06992 0.818605,0.07705 1.02665,0.01319 0.21355,-0.06563 0.275238,-0.136298 0.308261,-0.352947 0.03381,-0.221762 0.01332,-0.811683 -0.03146,-0.906094 -0.04553,-0.09598 -0.166521,-0.144048 -0.451361,-0.179338 l -0.252022,-0.03133 0,-0.07174 0,-0.07174 0.847711,0 c 0.466244,0 0.853397,0.0082 0.86034,0.01938 0.0069,0.01113 0.0064,0.04535 -0.0012,0.07578 -0.01113,0.04444 -0.03541,0.0583 -0.123237,0.07033 -0.143706,0.01979 -0.194135,0.04898 -0.245183,0.142358 -0.06186,0.113169 -0.0629,0.991805 -0.0012,1.127732 0.02251,0.04968 0.05761,0.09676 0.07801,0.104552 0.05707,0.02185 0.04672,0.10513 -0.01307,0.10513 -0.02758,0 -0.1869,0.03174 -0.354036,0.07017 -0.167135,0.03875 -0.418679,0.08719 -0.558984,0.108015 -0.303643,0.04502 -0.889627,0.0463 -1.14903,0.0041 z m 9.948942,0.01979 c -0.177908,-0.02721 -0.472238,-0.117951 -0.650913,-0.200447 -0.635766,-0.293415 -1.050282,-0.802489 -1.226598,-1.506404 -0.06289,-0.251116 -0.05671,-0.818816 0.01191,-1.0924 0.172322,-0.687177 0.63373,-1.255701 1.243436,-1.532171 0.332688,-0.150851 0.540597,-0.19517 0.970206,-0.206961 0.329938,-0.0091 0.434149,-0.0041 0.624376,0.03628 0.866725,0.178844 1.468565,0.761385 1.684848,1.630828 0.07756,0.311802 0.07674,0.868494 -0.0016,1.170732 -0.217153,0.836337 -0.798495,1.419785 -1.653483,1.65944 -0.136005,0.03793 -0.834787,0.06679 -1.002042,0.04123 z m 0.983218,-0.259361 c 0.489797,-0.164414 0.81393,-0.528781 0.987666,-1.110251 0.08638,-0.289086 0.108151,-0.885892 0.04593,-1.258875 -0.159822,-0.957999 -0.644514,-1.551672 -1.381015,-1.691474 -0.69851,-0.132628 -1.374956,0.194799 -1.678491,0.812466 -0.15236,0.309988 -0.197591,0.518269 -0.211303,0.972923 -0.01356,0.449749 0.02156,0.708244 0.14794,1.088607 0.169329,0.509652 0.491145,0.910917 0.879379,1.096564 0.11147,0.05326 0.262077,0.10851 0.334683,0.122692 0.07261,0.01402 0.153617,0.03092 0.180019,0.03669 0.131791,0.03051 0.51048,-0.0074 0.695191,-0.06951 z m 6.491143,0.07668 c -0.0871,-0.108758 -0.603592,-0.704204 -1.147764,-1.323231 -0.544171,-0.618987 -1.179113,-1.346855 -1.410983,-1.617471 -0.347847,-0.405924 -0.425536,-0.484915 -0.444224,-0.451521 -0.01381,0.02474 -0.01868,0.590622 -0.01249,1.449469 0.01253,1.736906 0.01979,1.787657 0.264745,1.848467 0.05544,0.0136 0.165614,0.03381 0.24482,0.04477 0.139023,0.01897 0.144015,0.02226 0.144015,0.09062 l 0,0.07083 -0.751116,0 -0.75112,0 -0.01323,-0.05265 c -0.02037,-0.08105 2.64e-4,-0.09437 0.195483,-0.125826 0.223353,-0.03587 0.289696,-0.0874 0.327518,-0.253548 0.03912,-0.171918 0.05805,-3.302141 0.0207,-3.427843 -0.05986,-0.201561 -0.239361,-0.324624 -0.533613,-0.365893 -0.07745,-0.01072 -0.117432,-0.02927 -0.126555,-0.05788 -0.0336,-0.105913 -0.01682,-0.109252 0.549877,-0.109005 l 0.537414,2.48e-4 0.04429,0.08349 c 0.16321,0.30772 0.8488,1.115899 2.369691,2.793438 0.377313,0.416189 0.457805,0.493862 0.476716,0.460055 0.03348,-0.05978 0.0075,-2.497797 -0.02898,-2.724547 -0.05519,-0.34264 -0.09698,-0.383744 -0.442728,-0.435154 -0.184261,-0.02721 -0.227574,-0.05937 -0.184587,-0.136174 0.01921,-0.03422 0.106775,-0.03875 0.769153,-0.03999 l 0.747464,0 0.01402,0.05574 c 0.01913,0.07619 -3.34e-4,0.08847 -0.213232,0.134854 -0.215487,0.04692 -0.270212,0.08588 -0.305399,0.217433 -0.05803,0.216979 -0.07867,0.961586 -0.06902,2.489511 0.01027,1.624809 0.0127,1.579541 -0.08447,1.578593 -0.01542,-2.47e-4 -0.0993,-0.08926 -0.186397,-0.198015 z M 8.0797172,34.269898 c -0.00548,-0.0054 -0.010018,-0.03834 -0.010018,-0.07301 0,-0.05834 0.012616,-0.06596 0.1717117,-0.103274 0.1940075,-0.04556 0.2729536,-0.104965 0.3082359,-0.231986 0.014718,-0.05298 0.023871,-0.728445 0.023953,-1.767579 1.196e-4,-1.444522 -0.00507,-1.699348 -0.036816,-1.806251 -0.046076,-0.155138 -0.1002235,-0.192325 -0.3275096,-0.224936 -0.2003028,-0.02886 -0.2231263,-0.04213 -0.2036794,-0.1196 l 0.013976,-0.05578 0.8181723,0 0.8181722,0 0.014017,0.05578 c 0.019047,0.07578 -0.0033,0.09037 -0.1841087,0.12129 -0.1726723,0.02968 -0.257885,0.08002 -0.311967,0.185111 -0.05395,0.104841 -0.067835,1.487852 -0.015666,1.558021 0.034878,0.04687 0.063626,0.04799 1.2485684,0.04799 0.965667,0 1.219207,-0.0062 1.244051,-0.03133 0.02428,-0.02432 0.03088,-0.191913 0.02977,-0.756068 -0.0016,-0.933221 -0.0087,-0.951938 -0.370329,-1.005575 l -0.170875,-0.02556 0.0073,-0.0733 0.0073,-0.07326 0.808983,0 0.808979,0 0.01443,0.05747 c 0.01934,0.07705 0.0029,0.08744 -0.188421,0.117787 -0.196708,0.03133 -0.270554,0.07516 -0.323866,0.192613 -0.03612,0.07961 -0.03999,0.251528 -0.03999,1.768322 0,0.924068 0.009,1.732824 0.01991,1.79718 0.03212,0.188615 0.119778,0.247611 0.431514,0.290488 0.111879,0.01525 0.115181,0.01814 0.108012,0.09049 l -0.0074,0.07462 -0.816078,0 -0.816078,0 -0.0073,-0.07231 c -0.0071,-0.07087 -0.0043,-0.07285 0.144011,-0.101955 0.39929,-0.07829 0.389289,-0.05042 0.390422,-1.08906 8.25e-4,-0.776557 -0.0012,-0.813415 -0.04571,-0.846067 -0.0388,-0.02845 -0.244688,-0.03422 -1.230115,-0.03422 -1.1515196,0 -1.184823,0 -1.2315294,0.04799 -0.045787,0.0458 -0.047997,0.0799 -0.047824,0.738093 1.937e-4,0.698266 0.020614,0.950248 0.085039,1.048575 0.04782,0.07297 0.1243333,0.10447 0.329806,0.13572 0.1970377,0.0301 0.2206485,0.04428 0.2011233,0.122074 l -0.013976,0.05574 -0.8191287,0 c -0.4505196,0 -0.8236266,-0.0045 -0.8291263,-0.0099 z m 11.2789768,-0.04576 c -0.01958,-0.078 0.0052,-0.09392 0.193121,-0.123847 0.222503,-0.03546 0.28843,-0.07376 0.339787,-0.19752 0.03884,-0.09354 0.04365,-0.228564 0.0529,-1.483029 0.01175,-1.591126 -0.0082,-2.127905 -0.08258,-2.227552 -0.05387,-0.07219 -0.154454,-0.114323 -0.32652,-0.136916 -0.111709,-0.01484 -0.115168,-0.01731 -0.108007,-0.08889 l 0.0074,-0.07376 1.442696,-0.0041 1.4427,-0.0041 0.01662,0.429671 c 0.01,0.258083 0.0077,0.438617 -0.0058,0.452099 -0.01233,0.01237 -0.04691,0.01855 -0.07685,0.01443 -0.04405,-0.0066 -0.06206,-0.03545 -0.09435,-0.152046 -0.05291,-0.190965 -0.100862,-0.277583 -0.203658,-0.36783 -0.145751,-0.12797 -0.289428,-0.15353 -0.882957,-0.157076 -0.494757,-0.0041 -0.52787,-3.71e-4 -0.560073,0.04345 -0.04841,0.06588 -0.05088,1.685619 -0.0025,1.751541 0.02919,0.03999 0.07463,0.04246 0.606058,0.03381 0.400206,-0.0066 0.590816,-0.01814 0.628263,-0.03917 0.07205,-0.0404 0.116483,-0.132216 0.16319,-0.337569 0.03826,-0.168249 0.0402,-0.171135 0.115436,-0.171135 l 0.07651,0 -2.97e-4,0.666068 c -1.89e-4,0.418499 -0.0093,0.672624 -0.02445,0.683714 -0.0762,0.05566 -0.126538,0 -0.180777,-0.194098 -0.05765,-0.208033 -0.08099,-0.248395 -0.177418,-0.306773 -0.06533,-0.03958 -0.138367,-0.04576 -0.624878,-0.05285 -0.505401,-0.0074 -0.553468,-0.0045 -0.582055,0.03463 -0.03834,0.05244 -0.04435,1.331271 -0.0073,1.557444 0.04024,0.245714 0.120152,0.303721 0.463576,0.33662 l 0.163379,0.01567 -0.0074,0.07491 -0.0074,0.07491 -0.871129,0 -0.871128,0 -0.01402,-0.05574 z m 3.983381,0.02721 c -0.02927,-0.07631 0.0069,-0.115684 0.125282,-0.13638 0.318716,-0.05574 0.375374,-0.08988 0.419199,-0.252641 0.01769,-0.06563 0.02379,-0.646032 0.01925,-1.831441 -0.0065,-1.697492 -0.0077,-1.737153 -0.0556,-1.818701 -0.05299,-0.0902 -0.140329,-0.131968 -0.326924,-0.156333 -0.116546,-0.01526 -0.157229,-0.05805 -0.119386,-0.125661 0.01843,-0.03298 0.187032,-0.03752 1.464163,-0.03999 l 1.44333,-0.0041 0.0052,0.294033 c 0.01134,0.640053 0.0162,0.594044 -0.06274,0.594044 -0.06456,0 -0.07243,-0.01031 -0.109578,-0.144007 -0.07828,-0.281624 -0.195978,-0.415695 -0.42298,-0.481659 -0.183053,-0.05322 -1.156821,-0.06394 -1.218106,-0.0136 -0.03591,0.02968 -0.03995,0.119724 -0.03995,0.891128 0,0.727951 0.0054,0.862682 0.0355,0.887665 0.0497,0.04127 1.153144,0.02432 1.230392,-0.01896 0.06769,-0.03793 0.111746,-0.124342 0.149135,-0.292673 0.04904,-0.220813 0.04618,-0.216031 0.128757,-0.216031 l 0.07639,0 0,0.672376 c 0,0.596806 -0.0043,0.673695 -0.03863,0.684579 -0.0743,0.0235 -0.115399,-0.01773 -0.152273,-0.152994 -0.0499,-0.183091 -0.107599,-0.289993 -0.18885,-0.349937 -0.06312,-0.04655 -0.105142,-0.05046 -0.619213,-0.05792 -0.405071,-0.0058 -0.560757,-2.88e-4 -0.586351,0.02103 -0.02902,0.02432 -0.03484,0.147594 -0.03471,0.740071 7e-5,0.391124 0.0106,0.774909 0.02333,0.852911 0.03748,0.22877 0.112245,0.279397 0.463918,0.314193 l 0.163384,0.01608 -0.0074,0.07491 -0.0074,0.07491 -0.873132,0 c -0.654356,0 -0.875891,-0.0062 -0.884116,-0.02762 z m 4.011462,0.01855 c -0.01806,-0.01814 -0.01047,-0.1189 0.0099,-0.131474 0.01093,-0.0066 0.09465,-0.02432 0.186018,-0.03875 0.09136,-0.01443 0.198513,-0.04531 0.238116,-0.06835 0.14606,-0.08493 0.144015,-0.05706 0.144015,-1.959574 0,-1.561608 -0.0037,-1.736659 -0.03999,-1.81631 -0.0543,-0.119642 -0.129895,-0.163095 -0.341106,-0.195995 -0.09849,-0.01525 -0.186645,-0.03545 -0.195896,-0.04477 -0.0092,-0.0095 -0.0106,-0.04168 -0.0029,-0.07202 l 0.01385,-0.05512 0.847131,0 0.84713,0 0.0071,0.07075 0.0071,0.07075 -0.195175,0.02597 c -0.12336,0.01649 -0.21871,0.04362 -0.259146,0.07359 -0.137097,0.101749 -0.135663,0.08126 -0.135832,1.939085 -1.44e-4,1.565937 0.0033,1.712994 0.04186,1.813012 0.0532,0.137782 0.128679,0.182925 0.364573,0.21801 l 0.184047,0.02721 -0.0073,0.07297 -0.0073,0.07293 -0.848083,0 c -0.466445,0 -0.852584,-0.0041 -0.85808,-0.0078 z m 14.592068,-0.04263 c -0.02103,-0.08373 0.0042,-0.09829 0.20149,-0.116385 0.238154,-0.02185 0.357412,-0.06901 0.404489,-0.160085 0.06739,-0.130279 0.08054,-0.474774 0.08097,-2.120527 3.34e-4,-1.297917 -0.0059,-1.642289 -0.03059,-1.676013 -0.04355,-0.05953 -0.238059,-0.07165 -0.701845,-0.04374 -0.560122,0.03381 -0.701536,0.109788 -0.881015,0.473743 -0.057,0.11556 -0.08909,0.155221 -0.125442,0.154932 -0.117127,0 -0.120669,-0.02638 -0.04224,-0.303268 0.04057,-0.143224 0.09834,-0.371128 0.128403,-0.506436 0.04947,-0.22271 0.05975,-0.246003 0.108522,-0.246003 0.03504,0 0.06488,0.02309 0.0854,0.06576 0.06759,0.141039 0.02494,0.137617 1.814311,0.144873 1.104343,0.0045 1.670175,0 1.734119,-0.01897 0.05795,-0.01567 0.115391,-0.05327 0.147482,-0.09668 0.03187,-0.04312 0.07439,-0.07108 0.108053,-0.07108 0.06586,0 0.06484,-0.01237 0.01843,0.228029 -0.02037,0.105583 -0.04363,0.33493 -0.05168,0.509569 -0.01245,0.270286 -0.02074,0.319512 -0.05559,0.330602 -0.07132,0.02267 -0.117939,-0.01402 -0.133057,-0.104429 -0.0242,-0.144955 -0.08271,-0.309287 -0.13269,-0.37286 -0.07954,-0.101089 -0.280366,-0.158189 -0.655712,-0.186347 -0.458266,-0.03463 -0.72988,-0.01979 -0.774933,0.04135 -0.02869,0.03917 -0.03282,0.326231 -0.02671,1.858279 0.0065,1.63021 0.01125,1.821051 0.04723,1.900331 0.05583,0.123022 0.12484,0.159715 0.357721,0.190305 0.111285,0.01443 0.211034,0.03463 0.221667,0.04461 0.01064,0.0099 0.01282,0.04391 0.0049,0.07549 l -0.01443,0.05751 -0.912038,0 -0.912039,0 -0.01319,-0.05265 z m -16.107126,-6.93616 c -0.0061,-0.01608 -0.0074,-0.04853 -0.0029,-0.07231 0.0068,-0.03545 0.04859,-0.04819 0.232926,-0.07087 0.123529,-0.01525 0.251227,-0.04193 0.283776,-0.05933 0.09262,-0.04956 0.131313,-0.154767 0.152965,-0.41586 0.02948,-0.355544 0.02758,-3.380391 -0.0021,-3.45864 l -0.02428,-0.06394 -0.521752,0.0099 c -0.470544,0.0091 -0.535238,0.01525 -0.659183,0.06386 -0.161714,0.06353 -0.275691,0.183049 -0.386222,0.404976 -0.05521,0.110901 -0.08745,0.149943 -0.123558,0.149655 -0.118236,0 -0.119959,-0.02309 -0.0282,-0.362924 0.07189,-0.266328 0.15938,-0.64092 0.15938,-0.682353 0,-0.0058 0.02725,-0.01031 0.0606,-0.01031 0.04221,0 0.06738,0.01773 0.08294,0.05875 0.01229,0.03216 0.05204,0.07821 0.08834,0.101996 0.0617,0.0404 0.174152,0.04374 1.723235,0.05054 1.149285,0.0049 1.684815,0 1.747229,-0.01896 0.05113,-0.01484 0.112691,-0.05693 0.142527,-0.0973 0.05079,-0.06869 0.123101,-0.09301 0.149511,-0.0503 0.007,0.01154 -0.0033,0.100553 -0.02259,0.198056 -0.01946,0.09746 -0.04248,0.325943 -0.05113,0.507755 -0.01542,0.323799 -0.0169,0.330767 -0.07377,0.345073 -0.07974,0.0202 -0.100186,-0.0082 -0.138255,-0.190058 -0.04911,-0.234749 -0.09172,-0.300588 -0.237779,-0.367459 -0.190371,-0.08716 -0.338649,-0.106078 -0.830953,-0.106078 -0.357642,0 -0.455578,0.007 -0.477894,0.03381 -0.02103,0.02556 -0.02626,0.4911 -0.02094,1.854198 0.0064,1.638002 0.01113,1.829173 0.04712,1.908494 0.05652,0.124548 0.135605,0.166435 0.36729,0.194511 0.204776,0.02474 0.2362,0.04378 0.213896,0.129082 -0.01101,0.04209 -0.05723,0.04436 -0.925331,0.04477 -0.693171,3.3e-4 -0.916425,-0.0066 -0.924884,-0.02845 z m 4.060674,-0.0099 c -0.02436,-0.07672 0.01525,-0.108675 0.183639,-0.148171 0.188157,-0.04415 0.221766,-0.06477 0.280614,-0.172165 0.03657,-0.06675 0.04106,-0.229966 0.04737,-1.717859 0.0043,-1.021695 -0.0021,-1.702894 -0.01723,-1.799407 -0.03892,-0.250043 -0.118323,-0.316502 -0.417146,-0.349319 -0.138491,-0.01525 -0.139344,-0.01567 -0.13201,-0.08926 l 0.0074,-0.07396 0.816073,0 0.816078,0 0.0074,0.07281 c 0.0071,0.07021 0.0033,0.0733 -0.108011,0.0879 -0.194927,0.02556 -0.316078,0.0806 -0.361939,0.164414 -0.03636,0.06642 -0.0424,0.169527 -0.04878,0.831307 -0.0067,0.695917 -0.0041,0.75784 0.03459,0.78604 0.03261,0.02391 0.305585,0.03051 1.235694,0.03051 1.072932,0 1.197785,-0.0041 1.233051,-0.03917 0.03496,-0.03504 0.03842,-0.120425 0.0317,-0.786039 -0.0069,-0.68561 -0.0113,-0.7531 -0.05349,-0.822815 -0.0558,-0.09218 -0.125929,-0.126691 -0.31153,-0.153201 -0.162708,-0.02309 -0.194148,-0.04539 -0.174639,-0.123104 l 0.01398,-0.05578 0.811127,0.0041 0.811126,0.0041 0.0074,0.07338 c 0.0072,0.07104 0.0037,0.07384 -0.108011,0.08798 -0.29762,0.03752 -0.374324,0.09078 -0.415234,0.287808 -0.01731,0.08344 -0.02354,0.677942 -0.01896,1.814702 0.0073,1.833708 0.0029,1.774217 0.138816,1.874688 0.03302,0.02432 0.141022,0.0578 0.240021,0.07417 0.17701,0.02927 0.179995,0.03092 0.179995,0.101254 l 0,0.07145 -0.823128,0 -0.823128,0 -0.01398,-0.05578 c -0.01888,-0.0752 0.0043,-0.09202 0.167787,-0.121785 0.176218,-0.03216 0.250914,-0.06877 0.314193,-0.15419 0.04864,-0.06572 0.05016,-0.09326 0.05016,-0.911371 l 0,-0.843634 -0.06001,-0.03051 c -0.04686,-0.02391 -0.319111,-0.02927 -1.243003,-0.02474 -1.020643,0.0049 -1.186212,0.01072 -1.20641,0.04201 -0.01439,0.02226 -0.02098,0.35105 -0.01711,0.852086 0.0068,0.883624 0.0099,0.905104 0.141406,1.002442 0.03958,0.02927 0.136169,0.05632 0.259216,0.07256 l 0.196114,0.02597 -0.0072,0.07343 -0.0072,0.07343 -0.822159,0 c -0.740607,0 -0.823391,-0.0041 -0.834621,-0.03834 z m 5.732091,0.0095 c -0.0061,-0.01567 -0.0072,-0.04815 -0.0025,-0.07202 0.0068,-0.03545 0.04812,-0.04865 0.22179,-0.07149 0.13671,-0.01814 0.235841,-0.04469 0.27572,-0.07417 0.138384,-0.102367 0.133609,-0.03917 0.14188,-1.877903 0.0054,-1.195344 -3.59e-4,-1.728949 -0.01954,-1.817341 -0.0369,-0.170227 -0.115465,-0.233676 -0.33519,-0.270739 -0.137238,-0.02309 -0.168933,-0.03669 -0.168933,-0.07235 0,-0.112592 -0.06478,-0.108181 1.494399,-0.101337 l 1.469881,0.0066 0.01773,0.08955 c 0.02626,0.132546 0.08538,0.758706 0.07359,0.779608 -0.0056,0.0099 -0.04049,0.01814 -0.07754,0.01814 -0.06215,0 -0.07259,-0.01443 -0.134636,-0.184451 -0.07843,-0.215 -0.191192,-0.353111 -0.347208,-0.425218 -0.09877,-0.04564 -0.160981,-0.05063 -0.727081,-0.05825 -0.459581,-0.0062 -0.628081,0 -0.654059,0.02061 -0.02944,0.02432 -0.03492,0.159508 -0.03463,0.848169 2.4e-4,0.473083 0.01,0.834358 0.02309,0.855136 0.02968,0.04708 0.480335,0.06147 0.876674,0.02804 0.354328,-0.02968 0.37544,-0.04634 0.437141,-0.340002 0.04229,-0.201271 0.0439,-0.204157 0.119171,-0.211413 l 0.0763,-0.0074 -0.0043,0.679467 -0.0043,0.679467 -0.06971,0 c -0.06713,0 -0.07166,-0.0074 -0.12266,-0.200117 -0.06827,-0.258001 -0.118714,-0.310813 -0.325456,-0.340703 -0.241634,-0.03504 -0.916586,-0.02968 -0.967556,0.0078 -0.03929,0.02886 -0.04184,0.08715 -0.03459,0.798078 0.0077,0.753264 0.0089,0.769177 0.06539,0.883995 0.04551,0.09247 0.07957,0.126692 0.162695,0.163467 0.258145,0.114158 1.268783,0.111396 1.507489,-0.0041 0.124362,-0.06019 0.257514,-0.217062 0.413881,-0.487554 0.08547,-0.147841 0.118541,-0.18577 0.156985,-0.179999 0.09775,0.01443 0.10311,0.07252 0.02973,0.321037 -0.03797,0.128588 -0.102363,0.326644 -0.143071,0.440102 l -0.07402,0.20626 -1.652728,0 c -1.256826,0 -1.655362,-0.007 -1.663715,-0.02845 z"
       style="fill:#357160;fill-opacity:1" />
  </g>
</svg>
