<?xml version="1.0" encoding="UTF-8" standalone="no"?>
<!-- Created with Inkscape (http://www.inkscape.org/) -->

<svg
   xmlns:dc="http://purl.org/dc/elements/1.1/"
   xmlns:cc="http://creativecommons.org/ns#"
   xmlns:rdf="http://www.w3.org/1999/02/22-rdf-syntax-ns#"
   xmlns:svg="http://www.w3.org/2000/svg"
   xmlns="http://www.w3.org/2000/svg"
   xmlns:sodipodi="http://sodipodi.sourceforge.net/DTD/sodipodi-0.dtd"
   xmlns:inkscape="http://www.inkscape.org/namespaces/inkscape"
   width="64px"
   height="64px"
   id="svg4649"
   version="1.1"
   inkscape:version="0.48.5 r10040"
   sodipodi:docname="New document 5">
  <defs
     id="defs4651" />
  <sodipodi:namedview
     id="base"
     pagecolor="#ffffff"
     bordercolor="#666666"
     borderopacity="1.0"
     inkscape:pageopacity="0.0"
     inkscape:pageshadow="2"
     inkscape:zoom="10.390625"
     inkscape:cx="32"
     inkscape:cy="32"
     inkscape:current-layer="layer1"
     showgrid="true"
     inkscape:document-units="px"
     inkscape:grid-bbox="true"
     inkscape:window-width="1440"
     inkscape:window-height="851"
     inkscape:window-x="0"
     inkscape:window-y="0"
     inkscape:window-maximized="1" />
  <metadata
     id="metadata4654">
    <rdf:RDF>
      <cc:Work
         rdf:about="">
        <dc:format>image/svg+xml</dc:format>
        <dc:type
           rdf:resource="http://purl.org/dc/dcmitype/StillImage" />
        <dc:title></dc:title>
      </cc:Work>
    </rdf:RDF>
  </metadata>
  <g
     id="layer1"
     inkscape:label="Layer 1"
     inkscape:groupmode="layer">
    <path
       style="fill:#05529e;fill-opacity:1"
       d="m 29.874494,49.668241 c -4.42159,-0.54867 -7.75739,-1.79588 -10.69824,-3.99993 -0.68431,-0.51286 -2.94009,-2.73364 -2.85904,-2.81468 0.0246,-0.0246 0.38109,0.18243 0.79214,0.46014 0.95865,0.64766 2.8456,1.54812 4.15107,1.98091 1.89876,0.62947 3.40948,0.87887 5.74497,0.9484 3.96211,0.11796 6.87742,-0.48213 10.12307,-2.08376 4.26069,-2.10251 7.1188,-5.44051 8.08085,-9.43768 0.31839,-1.32286 0.31759,-3.48619 -0.002,-4.82367 -0.71259,-2.98415 -2.57048,-5.64326 -5.30534,-7.59331 -0.76482,-0.54535 -2.50768,-1.52442 -3.04438,-1.71022 -0.0893,-0.0309 -0.13749,-0.0837 -0.10704,-0.11738 0.14451,-0.15966 2.76085,0.55675 4.31132,1.18053 4.18314,1.68295 7.8734,5.02837 9.66022,8.75752 0.62033,1.29465 0.89204,2.10392 1.13433,3.37854 1.47475,7.75818 -5.17786,14.42641 -15.73957,15.77653 -1.22235,0.15625 -5.26219,0.21971 -6.24256,0.0981 z m -3.62698,-5.30098 c -0.14887,-0.0215 -0.70916,-0.0908 -1.24509,-0.15389 -2.93932,-0.34628 -6.02911,-1.30029 -8.58116,-2.64954 -4.90805,-2.59485 -7.8762197,-6.30549 -8.3598897,-10.45106 -0.75656,-6.48442 5.5641097,-13.43958 14.5050197,-15.961116 1.63864,-0.462133 2.96194,-0.689325 4.78638,-0.821759 1.98951,-0.144415 4.11687,-0.03349 5.87804,0.30649 l 0.97441,0.188104 -1.19095,0.06654 c -7.19968,0.402265 -13.46637,4.462611 -15.74652,10.202561 -0.60845,1.53169 -0.79634,2.55454 -0.79852,4.34711 -0.002,1.43376 0.0325,1.75086 0.2926,2.7067 0.35502,1.3048 1.26626,3.20565 1.99823,4.16833 0.2943,0.38706 0.99097,1.14383 1.54817,1.68172 3.7715,3.64082 9.65998,5.39472 15.62692,4.65452 0.70875,-0.0879 1.30899,-0.1395 1.33388,-0.11461 0.12509,0.12509 -2.3331,0.95327 -3.87401,1.30516 -1.69149,0.38629 -3.62066,0.59516 -5.34395,0.57858 -0.84309,-0.008 -1.65469,-0.0323 -1.80356,-0.0538 z m 0.98966,-6.24674 c -0.18397,-0.22167 -0.0331,-0.52349 0.24214,-0.48423 0.16383,0.0234 0.22982,0.11008 0.22982,0.30198 0,0.30886 -0.27784,0.41615 -0.47196,0.18225 z m 1.60878,-0.0456 c -0.52261,-0.26107 -0.8973,-0.99891 -0.83091,-1.63622 0.0525,-0.50454 0.2908,-0.89956 0.7488,-1.2415 0.39659,-0.2961 1.3949,-0.29353 1.79493,0.005 0.69042,0.5146 0.899,1.46962 0.49219,2.25354 -0.38718,0.74607 -1.38853,1.02742 -2.20501,0.61955 z m 1.48265,-0.50473 c 0.27073,-0.23287 0.30377,-0.33272 0.30377,-0.91782 0,-0.57218 -0.0383,-0.69486 -0.29835,-0.95487 -0.23679,-0.2368 -0.39194,-0.2959 -0.75201,-0.28646 -0.6543,0.0172 -0.9526,0.38971 -0.9526,1.18973 0,0.51633 0.0431,0.64088 0.31648,0.91424 0.40727,0.40727 0.94827,0.42886 1.38271,0.0552 z m 1.35645,-0.89467 0.03,-1.60488 0.67644,-0.0322 c 0.60029,-0.0286 0.70693,-0.002 0.94735,0.23868 0.33797,0.33797 0.36277,0.89919 0.0544,1.23022 -0.11909,0.12784 -0.21654,0.27511 -0.21654,0.32727 0,0.0522 0.19454,0.37255 0.4323,0.71197 0.3638,0.51935 0.40435,0.62784 0.25595,0.68479 -0.25448,0.0977 -0.47561,-0.0741 -0.90478,-0.70297 -0.52081,-0.76307 -0.7375,-0.74653 -0.77954,0.0595 -0.0289,0.55383 -0.0597,0.6264 -0.27902,0.65753 l -0.24654,0.035 z m 1.12058,-0.22611 c 0.19588,-0.13413 0.26188,-0.44674 0.15415,-0.7301 -0.0781,-0.20541 -0.18064,-0.26973 -0.43004,-0.26973 -0.3208,0 -0.32748,0.011 -0.32748,0.54134 0,0.48971 0.0232,0.54119 0.2436,0.53969 0.13399,-8.7e-4 0.29588,-0.0374 0.35977,-0.0812 z m 2.13675,1.60437 c -0.49982,-0.22692 -0.89956,-0.84281 -0.89956,-1.38599 0,-0.47513 0.44259,-1.24177 0.85291,-1.47738 0.62676,-0.35989 2.17968,-0.21876 2.03889,0.1853 -0.0245,0.0704 -0.16148,0.11786 -0.30432,0.10545 -1.11438,-0.0968 -1.32955,-0.0594 -1.63668,0.28436 -0.23589,0.264 -0.30119,0.4439 -0.30119,0.82971 0,0.27093 0.0502,0.58635 0.11148,0.70091 0.15533,0.29024 0.67188,0.53534 1.12823,0.53534 l 0.38431,0 0,-0.53404 c 0,-0.43816 0.0387,-0.54633 0.21557,-0.60246 0.34355,-0.10904 0.43404,0.0271 0.43404,0.65291 0,0.53975 -0.0254,0.59942 -0.31943,0.75148 -0.43218,0.22349 -1.1541,0.20418 -1.70425,-0.0456 z m 18.23043,-1.21602 c 0.59643,-1.82951 0.71307,-4.07745 0.30234,-5.82717 -0.89557,-3.81519 -3.66431,-7.03647 -7.78436,-9.0567 -3.96026,-1.94188 -9.06615,-2.48167 -13.5968,-1.43745 -5.30071,1.2217 -9.76139,4.43409 -11.63462,8.37874 -0.66653,1.40357 -1.14103,3.00586 -1.14103,3.85303 0,0.17571 -0.0439,0.31947 -0.0975,0.31947 -0.41392,0 -0.55417,-4.14828 -0.19034,-5.62994 0.61756,-2.51495 1.75769,-4.55997 3.63853,-6.52637 2.81005,-2.93788 6.52469,-4.83366 11.21136,-5.721767 1.1245,-0.21309 1.64864,-0.246232 3.89765,-0.24645 2.80634,-3.25e-4 3.9664,0.143003 6.16928,0.761951 5.63705,1.583856 9.85494,5.229576 11.44454,9.892076 1.20088,3.52232 0.59943,7.62793 -1.594,10.88095 -0.82968,1.23047 -0.92728,1.28662 -0.62508,0.35963 z m -29.56046,-3.09229 c -0.0336,-0.0544 -0.0685,-1.28887 -0.0775,-2.74321 l -0.0163,-2.64424 0.41714,-0.0699 c 0.65124,-0.10906 0.7059,-0.003 0.66733,1.29166 l -0.0337,1.13021 0.62229,-0.6888 c 0.34226,-0.37884 0.8051,-0.91968 1.02855,-1.20187 0.22344,-0.2822 0.51947,-0.54416 0.65784,-0.58215 0.25497,-0.07 0.77717,0.10064 0.77672,0.25382 -1.1e-4,0.0459 -0.4572,0.59413 -1.01569,1.2182 l -1.01545,1.13468 0.49476,0.65175 c 0.27212,0.35846 0.78246,0.98008 1.13408,1.38139 l 0.63931,0.72964 -0.28783,0.10944 c -0.74126,0.28182 -0.99581,0.11689 -2.11515,-1.37049 -0.44056,-0.58541 -0.82766,-1.09867 -0.86022,-1.14058 -0.0326,-0.0419 -0.0442,0.5062 -0.0258,1.21801 0.0333,1.28904 0.0324,1.29423 -0.21653,1.2957 -0.13749,8.7e-4 -0.35409,0.0294 -0.48136,0.0636 -0.12726,0.0341 -0.2589,0.0175 -0.29254,-0.0369 z m 5.59784,-0.0958 c -0.56334,-0.19973 -1.15269,-0.72493 -1.44101,-1.28417 -0.31722,-0.61529 -0.31448,-1.99573 0.005,-2.60164 0.56146,-1.06428 1.25692,-1.47801 2.59879,-1.54604 1.16431,-0.059 1.75305,0.15414 1.69953,0.61535 -0.0291,0.2505 -0.076,0.27977 -0.41175,0.25712 -1.89087,-0.12753 -2.08496,-0.0786 -2.65528,0.6691 -0.62152,0.81485 -0.40134,2.3803 0.40443,2.87549 0.61029,0.37506 1.12137,0.46314 1.90024,0.32751 0.38541,-0.0671 0.72078,-0.10201 0.74525,-0.0775 0.11779,0.11779 -0.20512,0.62428 -0.49288,0.77308 -0.4134,0.21378 -1.73935,0.20913 -2.35249,-0.008 z m 4.39602,-0.0678 c -0.38212,-0.19293 -0.54381,-0.36748 -0.77726,-0.83908 -0.28321,-0.57213 -0.29571,-0.66973 -0.31865,-2.48943 l -0.0239,-1.89395 0.42634,-0.0706 c 0.24113,-0.0399 0.48511,-0.0227 0.56166,0.0396 0.0981,0.0799 0.13538,0.59052 0.1355,1.85628 2.2e-4,1.9769 0.0987,2.33488 0.74547,2.70839 0.33602,0.19406 0.40352,0.1989 0.80689,0.0578 0.76339,-0.26699 0.87737,-0.60168 0.9189,-2.69826 0.0195,-0.98253 0.0682,-1.81706 0.10827,-1.8545 0.0401,-0.0374 0.25558,-0.10054 0.47888,-0.14024 l 0.40601,-0.0722 -6.5e-4,1.8184 c -6.5e-4,1.93085 -0.0715,2.38409 -0.46387,2.9663 -0.57178,0.84847 -1.97032,1.13317 -3.00364,0.61146 z m 4.44253,-2.45699 c 0,-2.49016 0.016,-2.72577 0.18947,-2.79251 0.34922,-0.13436 2.01697,-0.0845 2.3007,0.0688 1.06236,0.57392 1.23055,1.63039 0.40859,2.56654 l -0.32636,0.37171 0.76371,1.18534 0.7637,1.18534 -0.38379,0.072 c -0.668,0.12532 -1.02076,-0.1399 -1.66054,-1.24844 -0.39623,-0.68655 -0.62771,-0.98181 -0.76972,-0.98181 -0.18425,0 -0.20307,0.0948 -0.20307,1.02216 0,0.56218 -0.0365,1.04377 -0.0812,1.07019 -0.0447,0.0264 -0.28827,0.0823 -0.54135,0.12417 l -0.46014,0.0761 z m 2.08417,-0.55682 c 0.10623,-0.12961 0.18947,-0.41088 0.18947,-0.64025 0,-0.52842 -0.27416,-0.85595 -0.78495,-0.93773 l -0.406,-0.065 0,0.98792 0,0.98791 0.406,-0.0508 c 0.23601,-0.0296 0.48534,-0.14763 0.59548,-0.282 z"
       id="path4685"
       inkscape:connector-curvature="0"
       sodipodi:nodetypes="sssssssssssssssssssssssscssssssssssssssscssssccsssssssccsssssssssccsssscsssssssssscssssssssssssssscsssscscsscssscscsscsssscsccsssssssssscccsscsscsssssccsccsssscccsssssscsssscccss" />
  </g>
</svg>
