<?xml version="1.0" encoding="UTF-8" standalone="no"?>
<!-- Created with Inkscape (http://www.inkscape.org/) -->

<svg
   xmlns:dc="http://purl.org/dc/elements/1.1/"
   xmlns:cc="http://creativecommons.org/ns#"
   xmlns:rdf="http://www.w3.org/1999/02/22-rdf-syntax-ns#"
   xmlns:svg="http://www.w3.org/2000/svg"
   xmlns="http://www.w3.org/2000/svg"
   xmlns:sodipodi="http://sodipodi.sourceforge.net/DTD/sodipodi-0.dtd"
   xmlns:inkscape="http://www.inkscape.org/namespaces/inkscape"
   width="64px"
   height="64px"
   id="svg4943"
   version="1.1"
   inkscape:version="0.48.5 r10040"
   sodipodi:docname="outsidemagazine.svg">
  <defs
     id="defs4945" />
  <sodipodi:namedview
     id="base"
     pagecolor="#ffffff"
     bordercolor="#666666"
     borderopacity="1.0"
     inkscape:pageopacity="0.0"
     inkscape:pageshadow="2"
     inkscape:zoom="10.453125"
     inkscape:cx="32"
     inkscape:cy="32"
     inkscape:current-layer="layer1"
     showgrid="true"
     inkscape:document-units="px"
     inkscape:grid-bbox="true"
     inkscape:window-width="1440"
     inkscape:window-height="855"
     inkscape:window-x="0"
     inkscape:window-y="0"
     inkscape:window-maximized="1" />
  <metadata
     id="metadata4948">
    <rdf:RDF>
      <cc:Work
         rdf:about="">
        <dc:format>image/svg+xml</dc:format>
        <dc:type
           rdf:resource="http://purl.org/dc/dcmitype/StillImage" />
        <dc:title />
      </cc:Work>
    </rdf:RDF>
  </metadata>
  <g
     id="layer1"
     inkscape:label="Layer 1"
     inkscape:groupmode="layer">
    <g
       id="g5690"
       transform="matrix(0.01711663,0,0,0.01711663,32.76603,32.456299)">
      <path
         style="fill:#f9f84c"
         d="m -1110.9091,336.33689 c -25.2849,-2.47817 -39.3869,-4.79053 -59.5,-9.75642 -75.5215,-18.64612 -144.1668,-64.5335 -193.0981,-129.08047 -6.7177,-8.86156 -27.4401,-39.76089 -34.8349,-51.94262 -12.9458,-21.3261 -26.6055,-52.9938 -34.0325,-78.89887 -10.2705,-35.82321 -14.5049,-66.80303 -14.5242,-106.26329 -0.046,-93.59411 26.7227,-178.33687 75.62,-239.39522 14.7238,-18.38576 38.1649,-40.72173 56.8697,-54.18856 41.8165,-30.10655 89.169,-47.64725 148.5,-55.00867 16.5683,-2.05569 78.636,-1.7104 97,0.53962 69.28559,8.48915 124.34657,28.02453 174,61.7344 17.30098,11.74569 26.92417,19.80029 44.08233,36.89683 25.38626,25.2951 41.77544,47.82595 57.27364,78.73634 13.95781,27.83817 24.63869,60.50352 30.25863,92.54004 l 1.71038,9.75 57.09793,0 57.09793,0 17.73958,17.76014 17.73958,17.76014 0.0576,126.48986 c 0.0317,69.56942 0.37936,128.28986 0.77259,130.48986 l 0.71496,4 16.97741,-0.0851 c 15.53119,-0.0779 17.65889,-0.30997 24.97741,-2.72441 17.06475,-5.62981 29.25232,-15.99855 36.38259,-30.95296 8.03344,-16.84867 9.07747,-26.59905 9.10008,-84.98749 L -522.9091,25 l -11.73986,0 -11.73986,0 -17.76014,-17.73958 -17.76014,-17.73958 0,-48.70245 0,-48.70244 105.75,-0.41458 c 113.6275,-0.44546 112.5162,-0.39711 132.25,-5.75321 9.6721,-2.62517 22.2324,-8.85222 28.2026,-13.98207 6.5868,-5.65961 13.8963,-17.03927 17.0155,-26.49011 3.2444,-9.83052 5.451,-24.65339 6.3601,-42.72598 l 0.6917,-13.75 50.276,0 50.2761,0 17.589,17.65053 17.589,17.65053 0,33.84947 0,33.84947 41.8762,0 41.8761,0 9.922,10.40242 9.9221,10.40241 5.9518,-3.40058 c 14.3962,-8.22529 38.8429,-15.73616 61.9518,-19.0337 16.3926,-2.33915 51.5774,-2.35473 67.583,-0.0299 28.4193,4.12791 46.1366,12.69064 63.1775,30.53361 4.2682,4.46916 7.9807,8.12575 8.25,8.12575 0.2692,0 0.4895,-8.32287 0.4895,-18.49526 l 0,-18.49526 101.4524,-0.25474 101.4523,-0.25475 -16.9523,-11.82841 -16.9524,-11.82842 0,-53.42158 0,-53.42159 57.8645,0 57.8645,0 24.6191,24.75 24.619,24.75 0.016,46.22841 0.016,46.2284 -18.9897,0.2716 -18.9896,0.27159 18.9769,19 18.977,19 0.055,30.5 0.055,30.5 2.3559,-5.66951 c 22.1779,-53.37197 65.0497,-90.83725 118.0596,-103.17119 16.9163,-3.93595 26.515,-5.00538 45,-5.01366 40.0195,-0.0179 67.8234,11.22911 93.2605,37.725 l 8.2395,8.58244 0,-20.47654 0,-20.47654 -14.3391,0 -14.339,0 -17.661,-17.97632 -17.6609,-17.97632 0,-48.52368 0,-48.52368 96.7589,0 96.759,0 20.7361,20.75378 20.7361,20.75379 0.255,98.49621 0.2549,98.49622 4.3758,-8.5 c 33.8259,-65.70691 104.6838,-106 186.4075,-106 24.9474,0 41.448,2.50431 68.911,10.45863 18.1717,5.26323 34.6279,11.69621 47.8057,18.68796 65.3492,34.67244 106.355,97.68431 116.3912,178.85341 1.9797,16.01104 3.0859,41.72076 2.165,50.31958 l -0.7154,6.68042 -10.1554,0 -10.1554,0 12.3858,12.41561 12.3858,12.41562 -1.2207,7.83438 c -13.0048,83.46548 -71.9906,135.6254 -167.2219,147.87083 -17.2027,2.21204 -51.0101,2.95965 -70.359,1.5559 -34.6864,-2.51647 -56.3771,-7.6149 -79,-18.56904 -17.8665,-8.65107 -35.4872,-22.57653 -48,-37.9339 l -4,-4.90934 -0.5,26.40997 -0.5,26.40997 -94.5,0.23078 -94.5,0.23078 -11.0177,-10.73078 c -15.5275,-15.12319 -13.5592,-14.17906 -19.7318,-9.46453 -24.1855,18.4725 -47.2931,25.21583 -86.4493,25.22785 -60.3778,0.0185 -101.3086,-17.27548 -129.0195,-54.51315 l -2.2183,-2.98095 -0.032,26.25 -0.032,26.25 -130.7671,0 -130.767,0 -10.8614,-10.89517 -10.8614,-10.89518 -6.1215,3.96283 c -13.6756,8.85294 -33.1266,16.21159 -52.6216,19.90763 -9.1791,1.74026 -16.5089,2.27768 -36.3191,2.66292 -35.0388,0.68139 -54.6473,-1.67918 -77.6627,-9.3494 -21.8718,-7.28914 -35.7576,-16.04377 -53.2682,-33.58424 l -12.75,-12.77172 0,25.48116 0,25.48117 -41.8918,0 -41.8919,0 -11.0447,-11.54292 -11.0446,-11.54291 -8.2279,6.10058 c -21.0944,15.64054 -43.2125,21.97346 -76.7708,21.98123 -47.0672,0.0109 -82.3038,-12.9816 -109.6556,-40.43238 -25.1986,-25.28972 -38.8366,-56.49067 -45.705,-104.5636 -1.9036,-13.32349 -2.106,-20.36229 -2.4946,-86.75 l -0.4229,-72.25 -18.4251,0 -18.4251,0 0,83.5 0,83.5 8.265,0 8.265,0 12.235,12.26444 12.235,12.26444 0,53.73556 0,53.73556 -81.75,-0.0411 -81.75,-0.0411 -13.79634,-13.37446 -13.79634,-13.37446 -7.20366,5.43691 c -14.83761,11.19971 -34.36982,19.42692 -55.70226,23.46313 -16.24085,3.07286 -57.97903,3.89404 -75.5,1.48543 -65.79356,-9.04464 -109.51444,-45.52299 -123.99624,-103.45581 -4.84753,-19.39203 -5.50014,-27.8786 -5.55413,-72.22688 l -0.0504,-41.37166 -4.2868,12 c -13.1966,36.94103 -31.62866,70.46193 -54.71185,99.5 -10.59256,13.32517 -33.29575,36.0569 -46.90061,46.95957 -48.07599,38.52715 -105.70672,61.05467 -171.49997,67.03835 -10.0946,0.91806 -48.2556,1.14701 -56.5,0.33897 z M 125.3597,207.5452 c 14.4534,-2.57675 21.6682,-8.10763 23.7676,-18.22039 0.6047,-2.91282 0.809,-5.76588 0.4541,-6.34013 -0.8875,-1.43604 -18.452,-10.10313 -26.9905,-13.31829 -15.7623,-5.93527 -31.2553,-9.73969 -72,-17.68003 C -5.2776,141.0987 -29.0232,131.39888 -50.7384,110.59451 -58.6959,102.97076 -65.2393,94.1567 -71.9663,82 -85.5692,57.41769 -88.6665,49.97747 -91.8553,34.22409 L -93.6212,25.5 l -31.144,-0.26425 -31.1439,-0.26424 0,91.51424 c 0,86.49119 0.096,91.51404 1.75,91.51051 3.1747,-0.007 8.136,-3.85238 10.2068,-7.91166 3.3451,-6.55684 4.2547,-16.63271 3.5061,-38.8346 l -0.6829,-20.25 69.36,0.005 69.36,0.005 5.7786,9.4073 c 8.6109,14.01822 19.5725,28.25621 27.542,35.77424 11.8206,11.15095 30.4783,19.13018 50.6794,21.6737 11.0653,1.39324 35.1454,1.21695 43.7688,-0.32004 z m 1022.2312,-5.96122 c 14.9241,-4.01469 26.671,-12.5097 33.9947,-24.58398 3.5508,-5.85404 8.7991,-18.36607 9.9621,-23.75 l 0.7021,-3.25 -54.6835,0 -54.6836,0 0.6414,8.25 c 1.4821,19.06307 5.0764,40.59294 7.1176,42.63412 3.2704,3.27045 45.4657,3.78899 56.9492,0.69986 z m -443,-11.06206 c 11.1226,-2.877 20.3293,-8.16921 28.585,-16.43116 8.7581,-8.76471 13.943,-17.4028 17.9613,-29.92356 4.6389,-14.45447 5.1723,-21.37205 4.6828,-60.73227 -0.4697,-37.76453 -0.6573,-39.59279 -5.8694,-57.17754 -2.0128,-6.79089 -2.3716,-7.31141 -5.7532,-8.34554 -1.9836,-0.60661 -8.6031,-1.33904 -14.7101,-1.62762 C 687.3718,14.2941 659.8797,40.11277 651.5261,89.5 c -4.6106,27.25795 -1.9132,69.871 5.8865,92.99296 2.5433,7.5397 2.4179,7.44958 13.1783,9.47373 6.8487,1.28832 26.694,0.44503 34,-1.44477 z m -1781.5,-4.98631 c 10.4484,-3.40046 14.4585,-5.39318 23.8004,-11.82715 30.5306,-21.02707 51.3012,-66.35343 59.89653,-130.70846 2.55373,-19.12036 2.55186,-74.10606 -0.003,-95 -8.69073,-71.06768 -26.52973,-130.54517 -51.51293,-171.75064 -5.5608,-9.17158 -5.6774,-9.28422 -13.6447,-13.17889 -16.0522,-7.84673 -29.9852,-10.61591 -49.2634,-9.79108 -14.2155,0.60821 -22.3233,2.38724 -32.8946,7.21776 -35.5602,16.24919 -58.2922,56.45127 -67.2894,119.00285 -10.8195,75.2219 1.2863,178.16106 29.8709,254 5.3701,14.24752 15.5321,34.61288 19.4591,38.99728 3.1568,3.52446 13.1806,8.9667 22.0813,11.9887 10.6281,3.60846 17.619,4.44468 34.5,4.12674 14.818,-0.27909 17.3665,-0.59276 24.9998,-3.07711 z M 321.8468,105.75 322.1027,25 l -12.5059,0 -12.5059,0 0,10.5 0,10.5 -56.3819,0 -56.382,0 -14.4474,-13.95835 C 160.6173,23.09283 154.7769,16.62998 153.6062,14.03383 151.9424,10.34424 151.1989,9.80486 145.2408,7.96458 135.5595,4.97433 116.8097,3.73945 99.8093,4.97241 74.9842,6.77286 64.3014,11.42554 60.1953,22.22552 c -0.9818,2.5821 -0.849,2.76493 2.6813,3.69174 6.5365,1.71601 25.0578,4.95901 49.2143,8.61718 58.4712,8.85468 83.3858,16.36433 112.5,33.90926 50.0273,30.14769 76.808,66.93102 81.0672,111.34597 l 0.699,7.28967 7.6169,-0.28967 7.6169,-0.28967 z m 857.6948,-72 c -0.9344,-10.10529 -3.2215,-21.92084 -4.4884,-23.18774 -0.671,-0.67096 -7.5824,-1.05627 -18.7623,-1.046 -16.7292,0.0154 -18.1293,0.16725 -25.5278,2.76906 -8.8182,3.10108 -16.6831,7.79221 -22.0326,13.14175 -3.633,3.63303 -10.6396,13.38569 -10.6396,14.80958 0,0.41984 18.4772,0.76335 41.0606,0.76335 l 41.0605,0 z"
         id="path5698"
         inkscape:connector-curvature="0"
         sodipodi:nodetypes="sssssssssssssscccccsscsssscccccccssssscccccccccccsssssscccccccccccccccccccsssscccccccccccccccsssssscccccssssscccccsssscccccccssssscccccccsssssccccccccccccccccsssscssssscssssssscccsccscccssscssccccssssssssssssssssscssssssssssccccccccsssscssssccccscssssscs" />
      <path
         style="fill:#fdd500"
         d="m -1106.4091,336.41097 c -2.2,-0.21613 -8.95,-0.86438 -15,-1.44055 -87.778,-8.35956 -171.7912,-53.16659 -229.9353,-122.63214 -11.9635,-14.2929 -19.5196,-24.80289 -36.6948,-51.03926 -32.4003,-49.4941 -49.0046,-95.39474 -56.5401,-156.29902 -2.4556,-19.8468 -2.4584,-69.70313 -0.01,-92 5.7886,-52.61104 17.6828,-95.05918 38.1078,-136 16.6792,-33.43246 35.1478,-58.76952 61.2951,-84.09051 63.6166,-61.60626 150.6302,-89.2997 257.2725,-81.881 118.56621,8.24819 215.95972,59.21161 273.22533,142.97151 26.4867,38.74094 43.37295,82.1464 52.22798,134.25 l 0.63732,3.75 57.2154,0 57.2154,0 17.23929,17.26042 17.23928,17.26043 0.0163,119.48957 c 0.0145,106.17505 0.61085,140.95004 2.44882,142.788 0.303,0.30301 6.73481,0.54245 14.29291,0.5321 24.36972,-0.0334 39.12359,-5.18747 52.35726,-18.29046 8.99853,-8.90967 13.77894,-17.55284 17.68225,-31.97023 l 2.5909,-9.56983 0.37688,-52.25 0.37688,-52.25 -11.85748,0 -11.85749,0 -17.71363,-17.81305 -17.7136,-17.81306 0,-48.63692 0,-48.63692 106.75,-0.38018 c 103.9149,-0.37008 107.0421,-0.43664 117.75,-2.50613 36.3514,-7.02557 53.4093,-21.36891 60.9065,-51.21374 2.5185,-10.02601 4.5935,-28.73695 4.5935,-41.42209 l 0,-7.57791 50.2604,0 50.2604,0 17.7396,17.76014 17.7396,17.76014 0,33.73986 0,33.73986 41.9001,0 41.9002,0 9.6429,10.41327 9.6429,10.41328 10.7069,-5.30857 C -15.5764,-105.64053 10.9654,-111 49.5909,-111 c 24.0307,0 39.398,1.60192 53.1354,5.53894 15.8366,4.53865 30.8441,12.92283 39.3646,21.99165 3.4409,3.66232 3.3902,3.64523 -3,-1.01139 -21.6868,-15.80349 -52.85,-22.77485 -94.608,-21.16427 -52.3699,2.01987 -87.3254,14.0401 -110.642,38.0467 l -6.75,6.94976 0,-20.6757 0,-20.67569 -59,0 -59,0 0,-51.5 0,-51.5 -47.4038,0 -47.4037,0 -0.6389,10.75 c -2.1269,35.78968 -7.7704,52.72508 -22.4383,67.33526 -14.7071,14.64917 -34.2754,21.46616 -68.6153,23.90351 -7.7318,0.54877 -55.3032,0.9976 -106.25,1.00245 l -92.25,0.009 0,45.5 0,45.5 29.04304,0 29.04305,0 -0.32008,72.25 c -0.3145,70.98978 -0.35868,72.38954 -2.53315,80.25 -5.95619,21.53099 -17.88665,37.30958 -34.29093,45.35135 -13.20255,6.47221 -18.91528,7.63849 -37.44193,7.64394 -14.10584,0.004 -16.78759,-0.26748 -22.65282,-2.29448 -19.089,-6.59709 -28.06779,-19.49744 -31.80832,-45.70081 -0.62057,-4.34727 -1.00675,-52.75952 -1.01905,-127.75 l -0.0198,-120.75 -76.93261,0 c -72.41252,0 -76.96191,-0.10282 -77.43129,-1.75 -0.27428,-0.9625 -1.45105,-6.925 -2.61506,-13.25 -9.40883,-51.12584 -32.38394,-105.14434 -61.41776,-144.4039 -14.5271,-19.64356 -38.71135,-44.65244 -56.60328,-58.53333 -47.14946,-36.57943 -102.95571,-57.83115 -165.76761,-63.12644 -18.2539,-1.53888 -62.3849,-0.67823 -78.2324,1.52569 -52.9728,7.36697 -95.108,22.73275 -134.5,49.04918 -17.8108,11.89877 -30.6246,22.6996 -47.097,39.69836 -50.4423,52.054 -80.9855,122.29937 -90.566,208.29044 -2.089,18.74982 -1.8025,76.27545 0.4682,94 20.8724,162.92744 131.5507,275.4194 285.8755,290.56013 12.3402,1.21069 51.0836,1.47976 63.534,0.44123 95.13545,-7.93556 177.47331,-54.75746 229.49096,-130.50136 34.24746,-49.86838 54.12541,-106.50665 61.33082,-174.75 l 0.6599,-6.25 13.40182,0 13.40181,0 0.0198,103.25 c 0.0121,63.03321 0.40746,105.97656 1.01503,110.25 0.54737,3.85 1.9152,10.57874 3.03962,14.95275 9.79492,38.10257 39.87429,63.79092 85.42554,72.95502 27.93236,5.6195 60.94898,4.06974 85.5,-4.01326 11.45777,-3.77227 30.533,-13.51734 40,-20.43503 11.52423,-8.42094 25.34531,-22.67656 32.82115,-33.85306 l 6.17886,-9.23749 0,32.56554 0,32.56553 87,0 87,0 0,-45 0,-45 -26,0 -26,0 0,-104.5 0,-104.5 39.4437,0 39.4437,0 0.382,93.25 c 0.4032,98.41635 0.456,99.63382 5.2248,120.4702 13.8881,60.6819 54.3377,90.86499 122.0058,91.03945 27.4175,0.0707 48.5798,-5.6397 68,-18.34895 8.4483,-5.52886 19.6112,-15.97997 24.86,-23.2747 l 3.14,-4.364 0.2707,20.114 0.2707,20.114 41.4793,0 41.4793,0 0,-23.72111 0,-23.72111 6.25,6.08148 c 18.9424,18.43168 38.6359,30.99942 59.2431,37.80707 10.7076,3.53728 29.7411,7.27824 42.0069,8.25629 17.7343,1.4141 52.8451,0.85059 64.9569,-1.04252 38.5023,-6.01798 65.8471,-20.12713 84.3329,-43.51334 l 4.2102,-5.32636 0,22.5898 0,22.5898 130.4837,0 130.4836,0 0.2664,-26.70303 0.2663,-26.70303 5.249,6.68029 c 19.3508,24.62732 45.511,40.2692 79.7321,47.6738 13.5855,2.93957 22.3685,3.96641 40.0189,4.6787 32.6979,1.31954 59.8895,-4.40979 81.3999,-17.15117 10.2785,-6.08836 26.0664,-20.87577 35.1001,-32.87597 l 6.5,-8.63444 0.2663,26.51743 0.2664,26.51742 94.4836,0 94.4837,0 0.02,-27.25 0.019,-27.25 3.6299,4.5 c 12.8686,15.95352 33.1548,31.87597 51.40529,40.34756 28.358,13.16336 60.2238,18.80973 106.0188,18.78569 25.3163,-0.0133 40.7914,-1.42443 62.5192,-5.70099 70.7662,-13.92849 118.6523,-53.17235 138.4124,-113.43226 3.9381,-12.00975 7.9754,-29.69795 7.9754,-34.9423 l 0,-3.0577 -59.9291,0 -59.9291,0 -1.1803,5.75 c -5.7721,28.11976 -18.3233,47.1467 -36.9615,56.03165 -12.9084,6.15352 -21.3525,7.72104 -41.5,7.70384 -13.0231,-0.0111 -18.5206,-0.42443 -23.5,-1.76678 -19.3796,-5.22433 -32.8649,-17.43 -40.7064,-36.84355 -4.9802,-12.32977 -8.8226,-32.64695 -9.4323,-49.87516 l -0.23,-6.5 135.3259,-0.25361 135.3259,-0.25361 -0.6061,-23.24639 C 1317.129,66.24672 1317.1159,66.0977 1314.0016,48 c -7.4898,-43.52571 -25.4282,-79.05176 -53.5326,-106.01875 -15.1576,-14.54408 -26.5057,-22.34358 -45.8781,-31.53161 -12.6558,-6.00247 -21.9431,-9.31794 -36.1896,-12.91937 -20.1063,-5.08271 -28.7866,-5.98136 -57.8104,-5.98495 -23.6191,-0.003 -28.5652,0.27792 -39.5,2.24281 -88.3245,15.87122 -148.8956,75.12246 -163.4613,159.89946 -4.9341,28.71763 -3.4218,72.73111 3.5153,102.31241 2.4863,10.60215 6.2293,22.3225 9.4667,29.64283 1.3636,3.08332 2.4793,5.77504 2.4793,5.9816 0,0.20656 -10.8,0.37557 -24,0.37557 l -24,0 0,-212.5 0,-212.5 -93.5,0 -93.5,0 0,45.5 0,45.5 32,0 32,0 -0.032,42.75 -0.032,42.75 -2.2183,-2.97581 c -2.0924,-2.80686 -2.2467,-4.22619 -2.7183,-25 l -0.5,-22.02419 -15.1921,-0.27573 -15.1921,-0.27574 -17.0579,-17.70869 -17.0579,-17.70868 0,-48.26558 0,-48.26558 96.7589,0 96.759,0 20.741,20.75872 20.7411,20.75873 0.021,98.99127 0.021,98.99128 5.2708,-10 c 22.7762,-43.21283 59.6418,-74.80062 107.5652,-92.16596 37.5952,-13.62284 83.4499,-16.89134 123.6211,-8.81165 25.8361,5.19644 56.4304,16.23575 76.5,27.60341 60.8715,34.47838 98.7742,92.75544 110.6117,170.07065 0.9641,6.29722 1.7812,20.31594 2.1015,36.05355 l 0.524,25.75 -10.8542,0 -10.8541,0 12.8469,12.8755 12.8469,12.87551 -1.1911,7.37449 c -13.5974,84.18683 -71.4501,135.74307 -165.991,147.92511 -37.9801,4.89392 -85.2062,2.99653 -117.0406,-4.70232 -28.4174,-6.87247 -50.045,-18.50984 -69.3843,-37.33419 -5.5636,-5.41554 -11.4657,-11.67353 -13.1157,-13.90663 -1.65,-2.23311 -3.3375,-4.07083 -3.75,-4.08383 -0.411,-0.013 -0.7485,12.12636 -0.7485,26.97636 l 0,27 -94.2011,0 -94.201,0 -12.1381,-12 c -6.676,-6.6 -12.5502,-12 -13.0539,-12 -0.5036,0 -4.0635,2.3671 -7.9108,5.26021 -13.089,9.84273 -29.1572,16.91215 -47.2512,20.78888 -12.6319,2.70643 -43.6928,3.7373 -60.8138,2.01833 -46.4291,-4.66156 -81.7809,-22.17258 -102.7676,-50.90464 l -4.629,-6.33723 -0.2667,26.33723 -0.2668,26.33722 -130.4806,0.25375 -130.4806,0.25375 -11.0194,-10.96124 -11.0194,-10.96124 -5.5,3.5317 C 234.7217,321.90692 205.6452,329 164.2363,329 108.9297,329 72.4918,317.18535 43.677,289.90978 39.0517,285.53156 33.5402,279.68354 31.4292,276.91419 l -3.8383,-5.03519 -0.5,25.8105 -0.5,25.8105 -41.6683,0.26091 -41.6683,0.2609 -10.8039,-11.5109 c -5.9422,-6.331 -11.0415,-11.51011 -11.3318,-11.50912 -0.2902,9.8e-4 -4.0655,2.65234 -8.3895,5.89191 -20.3036,15.21172 -43.9768,22.11624 -75.7665,22.0981 -46.8375,-0.0267 -83.3269,-13.40077 -110.4029,-40.46466 C -293.9974,267.97918 -308.5141,239.0215 -315.313,205 c -5.4737,-27.38979 -5.8616,-34.10781 -6.3368,-109.75 l -0.4413,-70.25 -18.909,0 -18.909,0 0,83.5 0,83.5 8.6608,0 8.6609,0 12.3391,12.19877 12.3392,12.19877 0,53.80123 0,53.80123 -81.6538,0 -81.65374,0 -13.7928,-13.49217 -13.7928,-13.49218 -8.30343,5.98196 c -16.51647,11.89879 -34.315,19.18435 -56.40503,23.08856 -15.1715,2.68142 -50.7965,3.73637 -67.51177,1.99921 -38.70265,-4.02225 -69.77518,-17.02573 -93.08695,-38.95577 -20.30298,-19.09959 -32.75473,-42.88118 -39.45969,-75.36405 -2.70423,-13.10092 -2.74311,-13.83028 -3.1329,-58.76556 l -0.39469,-45.5 -4.71525,13.5 c -17.07173,48.87725 -42.51974,89.75214 -77.51213,124.50087 -48.92525,48.58456 -110.47917,77.93226 -182.58502,87.05296 -11.7745,1.48936 -55.4447,2.74675 -64.5,1.85714 z m 2255,-134.89783 c 14.2821,-4.04442 23.8383,-10.7499 31.3716,-22.0131 4.9072,-7.3368 10.8425,-20.96344 11.8588,-27.22582 l 0.5313,-3.27422 -54.6309,0 -54.6308,0 0,4.39405 c 0,11.61865 3.3858,35.51289 6.2904,44.39296 1.1478,3.50912 1.5438,3.77871 7.212,4.90991 9.0524,1.80654 44.269,1.0048 51.9976,-1.18378 z m -2291.5,93.90448 c -1.925,-0.21905 -8.45,-0.89524 -14.5,-1.50264 -48.6862,-4.88798 -96.7476,-22.07716 -137.5,-49.17695 -22.7163,-15.10607 -50.501,-40.5789 -67.3411,-61.73803 -31.5769,-39.67543 -53.96,-88.12451 -65.0968,-140.90424 -18.9203,-89.66749 -4.8382,-193.43216 36.3837,-268.09576 34.333,-62.18597 87.0194,-108.02544 152.0542,-132.29387 60.7765,-22.67938 136.4066,-26.68266 201.6454,-10.67353 54.84492,13.45854 100.31959,39.35729 138.92792,79.12226 44.0554,45.37523 74.91546,107.29873 88.38134,177.34514 1.16307,6.05 2.33264,12.0125 2.59905,13.25 l 0.48439,2.25 76.48095,0 76.48095,0 0.0206,110.25 c 0.0213,114.01131 0.54712,133.92064 3.87963,146.89353 4.25985,16.58288 13.06461,28.40482 25.55068,34.30628 10.78717,5.09849 16.16279,6.06432 33.04909,5.93786 17.4548,-0.13071 25.77486,-1.91002 39.40858,-8.42784 15.9066,-7.6044 29.01609,-23.86157 35.04522,-43.45983 4.70885,-15.30656 5.03402,-21.45152 5.0403,-95.25 l 0.006,-69.25 -29,0 -29,0 0,-40.45623 0,-40.45623 102.75,-0.367 c 100.4269,-0.35871 103.0052,-0.41596 114.0393,-2.53224 51.209,-9.8216 70.2283,-34.4053 72.4826,-93.6883 l 0.2281,-6 41.75,-0.26097 41.75,-0.26097 0,51.50304 0,51.50304 59.25,0.25793 59.25,0.25793 0.5,25.72865 0.5,25.72866 6,-8.13353 c 17.5459,-23.78496 45.6418,-38.50406 84.8128,-44.43231 14.1653,-2.14381 50.5,-2.94815 65.1143,-1.44142 38.6739,3.98729 63.3271,18.00024 81.7283,46.45459 l 5.8446,9.0376 0,-26.72112 0,-26.72112 134,0 134,0 0,147.5 0,147.5 35.4366,0 35.4366,0 -2.973,-8.75 c -6.3967,-18.82706 -11.2392,-40.88051 -14.108,-64.25 -1.9943,-16.24591 -1.6509,-57.71142 0.6004,-72.5 14.6158,-96.00871 78.3429,-152.47043 172.1074,-152.4859 47.2349,-0.008 77.8157,16.36973 102.6721,54.9859 l 4.8276,7.5 2e-4,-54.75 10e-5,-54.75 -32,0 -32,0 0,-40.5 0,-40.5 87.5,0 87.5,0 0,213 0,213 31.3871,0 31.387,0 -3.892,-9.02755 C 927.4015,164.4516 921.7719,136.62368 920.4797,102.5 c -1.8169,-47.97906 9.0594,-88.94138 32.8637,-123.77058 29.7861,-43.58169 77.754,-71.99932 135.6891,-80.38644 14.0544,-2.03461 46.0208,-2.28058 60.5584,-0.46598 74.9967,9.36121 129.0021,52.48672 151.4904,120.97131 7.4712,22.75217 10.9157,45.21132 11.2958,73.65169 l 0.2138,16 -135.7699,0.25359 -135.77,0.25358 0.5926,9.74642 c 2.7952,45.97209 13.5378,72.59949 34.8689,86.42875 16.5573,10.73436 49.2905,13.66884 76.0707,6.81962 20.2474,-5.17841 34.3881,-16.61718 43.3893,-35.09879 3.0369,-6.23553 6.1523,-14.70976 7.7764,-21.15317 l 2.7097,-10.75 54.3352,0 54.3352,0 -0.4867,2.25 c -2.68,12.38807 -6.0226,25.28646 -8.1857,31.58661 -8.4505,24.61337 -25.1686,49.52124 -44.1316,65.75064 -38.4408,32.89932 -95.1316,49.31654 -162.443,47.04224 -48.2111,-1.62895 -80.813,-10.45269 -109.8551,-29.7325 -10.9775,-7.28746 -31.8958,-27.60759 -39.5048,-38.37514 l -4.9312,-6.97816 -0.2635,33.22816 -0.2635,33.22815 -88.4865,0 -88.4865,0 0,-33.12297 0,-33.12296 -7.558,10.79594 c -15.0662,21.52077 -26.4324,33.26166 -42.105,43.49284 -9.5295,6.22089 -20.0741,10.52591 -33.7223,13.76773 -10.5918,2.51582 -12.4085,2.64112 -38.6147,2.66308 -30.8087,0.0258 -42.2319,-1.37116 -61.5831,-7.53125 -28.7439,-9.15006 -54.5152,-29.02889 -72.2261,-55.71202 l -3.6908,-5.56057 -0.5,31.91509 -0.5,31.91509 -124.7344,0.25389 -124.7344,0.25389 -0.2656,-28.10958 -0.2656,-28.10958 -5.9743,8.35569 c -13.5244,18.91552 -32.144,33.95834 -51.75,41.80897 C 180.0695,284.88042 159.9568,288 128.6456,288 97.5785,288 78.0603,285.57183 59.4868,279.39625 36.9827,271.91373 12.3766,255.17557 -7.1431,234.07165 l -6.734,-7.28055 -0.266,27.85445 -0.266,27.85445 -35.75,0.26263 -35.75,0.26263 0,-28.24676 0,-28.24676 -4.0391,6.91194 c -18.4651,31.59856 -43.2656,48.73691 -77.3952,53.4839 -9.9628,1.38569 -32.5787,1.37001 -44.0657,-0.0305 -46.974,-5.72731 -78.0098,-31.81626 -91.0147,-76.50747 -1.4227,-4.88926 -3.5425,-13.83957 -4.7106,-19.88957 -2.0579,-10.65826 -2.1354,-14.03682 -2.495,-108.75 l -0.3712,-97.75 -45.4587,0 -45.4586,0 0.2544,109.75 0.2544,109.75 26.2616,0.26663 26.2616,0.26662 -0.2616,39.23338 -0.2616,39.23337 -81.25,0.25588 -81.25,0.25588 -0.0652,-41.75588 -0.0652,-41.75588 -3.27628,7 c -16.44728,35.14085 -46.40236,62.19157 -81.93322,73.98922 -16.02439,5.32074 -23.58057,6.59251 -42.83636,7.20972 -19.92069,0.63848 -31.73129,-0.43376 -47.82374,-4.34177 -41.93332,-10.18342 -67.22196,-34.93273 -76.27043,-74.64382 -2.04892,-8.99211 -2.10819,-11.80119 -2.46781,-116.96339 l -0.36848,-107.75 -18.94664,0 -18.94664,0 0,3.96175 c 0,6.79336 -3.91303,34.86688 -6.98346,50.10191 -20.23749,100.41556 -79.12139,181.60436 -162.5251,224.08873 -32.34444,16.4757 -62.99854,25.85144 -102.54724,31.36469 -10.8397,1.5111 -58.4805,2.86362 -66.9442,1.90054 z M 130.357,218.51947 c 21.5196,-4.52186 31.7209,-16.23792 30.514,-35.04487 -1.0908,-16.99654 -12.4131,-27.73345 -37.2801,-35.35271 C 112.321,144.66878 98.1085,141.71621 67.7495,136.52112 21.9978,128.69198 1.4189,123.05144 -20.2149,112.41061 -39.3333,103.00702 -54.6828,90.12754 -64.8033,74.99728 -71.7913,64.55009 -76.0373,54.62214 -79.6405,40.30504 -82.198,30.14318 -82.3613,28.14583 -82.3845,6.75065 l -0.025,-22.74934 -57.25,-6.6e-4 -57.2496,-6.5e-4 0.01,95.75 c 0,55.22285 0.4174,99.31493 0.9759,104.17255 2.0438,17.77744 8.0982,28.18778 19.3027,33.19002 4.3247,1.93073 6.9192,2.32945 15.2138,2.33806 14.5851,0.0151 22.0312,-3.69679 26.9821,-13.45063 3.9761,-7.83352 5.0074,-15.11016 4.9249,-34.75 l -0.077,-18.25 63.7209,0 63.7209,0 4.0241,6.75 c 6.3234,10.60664 16.0145,23.06669 24.4256,31.40448 18.1123,17.95424 37.4785,26.25213 68.2782,29.25523 7.2217,0.70415 28.8622,-0.43956 35.7661,-1.89024 z m -43.0898,-4.59374 c -15.7498,-2.04394 -29.7276,-7.14982 -42.1119,-15.38294 -9.3413,-6.21008 -11.0148,-8.62845 -2.2176,-3.20461 8.8839,5.47731 23.008,10.23705 36.4168,12.27226 15.4089,2.33879 43.743,1.49983 53.2349,-1.57627 11.0169,-3.57031 17.4755,-11.40252 17.4959,-21.2169 0.01,-2.42705 -1.0666,-3.2067 -11.2444,-8.18036 -21.0216,-10.27279 -35.9111,-14.49618 -86.75,-24.60657 C 18.5532,145.36067 4.5816,141.74588 -10.2011,135.91395 -37.9781,124.95562 -58.2999,107.44961 -70.4651,84 -72.0344,80.975 -75.2053,75.32095 -77.5115,71.43544 -85.0801,58.68387 -90.7988,42.85042 -92.5188,29.88484 L -93.1668,25 l -31.3711,0 -31.3712,0 0,92.10699 c 0,83.57868 0.1465,92.05079 1.5818,91.5 0.87,-0.33385 1.9793,-0.60699 2.4652,-0.60699 2.4037,0 7.976,-6.53112 9.6381,-11.29663 1.5737,-4.51189 1.8047,-8.4924 1.7383,-29.95337 l -0.077,-24.75 69.2699,0 69.2699,0 1.5761,2.25 1.576,2.25 -68.0193,0.25694 -68.0194,0.25694 -0.021,20.24306 c -0.013,12.42999 -0.5108,22.57971 -1.2902,26.29714 -3.0143,14.37678 -10.4888,20.45392 -25.1353,20.43615 -12.2777,-0.0149 -20.1102,-4.4305 -25.1514,-14.17918 -4.198,-8.11808 -4.4023,-13.42668 -4.4023,-114.4081 l 0,-96.42111 50.9582,0.25908 50.9582,0.25908 0.4086,19 c 0.4627,21.51517 2.4732,33.63077 8.0315,48.40012 11.5331,30.645 36.596,53.26596 74.6435,67.3707 18.5093,6.86167 41.4026,12.25912 81.5,19.21492 51.9439,9.01084 69.6792,16.06733 77.0777,30.66756 3.3858,6.68156 3.4297,17.6234 0.096,23.93942 -4.3893,8.31621 -14.457,13.79708 -29.0795,15.83088 -8.7861,1.22204 -27.0096,1.2231 -36.418,0.002 z M 713.5909,201.0436 c 24.5277,-7.78049 42.1387,-28.11265 50.0605,-57.79574 3.2018,-11.99696 4.4002,-26.37699 4.42,-53.03727 0.027,-36.06987 -1.6976,-49.54418 -8.5611,-66.89733 -7.2781,-18.4014 -20.4055,-33.74922 -35.1325,-41.07494 -12.0757,-6.00685 -20.5368,-7.5975 -37.1462,-6.9833 -15.0873,0.55791 -22.5228,2.36409 -34.1407,8.29321 -22.4357,11.44989 -37.0704,35.85492 -43.1466,71.95177 -2.0534,12.19815 -1.7421,52.92419 0.5145,67.33075 7.2445,46.24931 26.6916,72.02732 60.1321,79.70749 9.5193,2.18627 34.0883,1.33228 43,-1.49464 z m -36.6305,-3.11465 c -35.2602,-5.18004 -56.1597,-33.52498 -61.8671,-83.90756 -1.5616,-13.78539 -1.2967,-46.04562 0.4721,-57.48446 4.903,-31.70841 17.2502,-53.78536 36.8911,-65.96203 12.5626,-7.78836 24.3983,-10.66512 41.6344,-10.11957 33.2126,1.05124 56.258,22.94083 65.6506,62.35775 2.4642,10.34117 3.125,72.42872 0.9191,86.35602 -1.9396,12.24667 -6.3477,25.82072 -11.2063,34.50879 -14.7374,26.35283 -41.1884,38.85011 -72.4939,34.25106 z m 29.6305,-7.93237 c 12.0553,-3.83387 18.4096,-7.67247 27.1147,-16.37979 6.7121,-6.71384 8.9061,-9.75882 12.6939,-17.61679 8.2308,-17.07558 10.6957,-32.53581 10.682,-67 -0.012,-29.74442 -1.9046,-46.49569 -7.143,-63.21473 -2.4132,-7.70229 -3.0853,-8.11657 -15.7462,-9.70632 -23.9307,-3.00485 -47.9682,6.2106 -62.7619,24.06159 -5.7564,6.94597 -13.6485,22.99506 -16.8297,34.22405 -7.3271,25.86322 -7.3268,69.88128 6e-4,98.86731 3.9733,15.7174 4.3922,16.41063 10.6513,17.62743 2.9361,0.57079 6.2383,1.26203 7.3383,1.53609 1.1,0.27406 7.625,0.34733 14.5,0.16281 9.4509,-0.25365 14.2075,-0.87851 19.5,-2.56165 z m -1782.4414,7.66223 c 40.9022,-10.46887 70.2508,-47.03006 85.55877,-106.58556 11.70276,-45.52939 14.26189,-99.28479 7.33496,-154.07325 -9.14717,-72.34946 -30.58363,-133.84396 -60.57903,-173.78204 -17.9303,-23.87377 -40.5472,-40.31552 -65.8733,-47.88773 -8.3453,-2.49514 -10.3822,-2.69596 -28,-2.76056 -21.8958,-0.0803 -25.5526,0.65032 -42,8.39148 -22.2968,10.49421 -38.668,28.25729 -53.0303,57.53885 -17.947,36.58992 -26.6608,80.45145 -26.6214,134 0.076,102.8596 30.8755,201.85064 78.0609,250.88888 21.0606,21.88755 41.6981,33.02226 68.5908,37.00724 7.5726,1.1221 27.2304,-0.34977 36.5586,-2.73731 z m -44.543,-4.3183 c -36.0883,-7.73205 -67.4956,-37.7021 -92.053,-87.84051 -17.3321,-35.38661 -29.3404,-76.02717 -35.9005,-121.5 -8.9582,-62.09594 -6.7779,-116.9635 6.5226,-164.14322 9.5886,-34.01271 23.2121,-59.22449 41.5673,-76.92486 9.4761,-9.13807 14.9141,-12.93412 25.6747,-17.92248 12.9773,-6.01597 19.9581,-7.42227 36.6733,-7.38801 22.6678,0.0464 37.5861,4.57096 56.426,17.11318 40.1219,26.71024 70.5218,84.86903 86.93871,166.32465 11.79431,58.51973 12.73855,122.16881 2.55716,172.37291 -14.18127,69.92751 -45.76637,111.36383 -91.56737,120.12702 -9.562,1.82951 -27.7842,1.72134 -36.8389,-0.21868 z m 38.3614,-6.39487 c 52.7092,-12.38578 85.70342,-74.70506 91.19115,-172.24117 4.36126,-77.51464 -19.38335,-182.16056 -54.34735,-239.51636 -5.0508,-8.28548 -5.0958,-8.32586 -14.1439,-12.70452 -16.4302,-7.95111 -35.3757,-11.32547 -53.1402,-9.46474 -12.2329,1.28134 -19.3646,3.26881 -29.9367,8.34281 -36.5748,17.55376 -58.4007,59.38232 -67.1229,128.63834 -2.081,16.52291 -2.8748,60.92385 -1.4662,82 5.1303,76.75805 24.2095,153.41505 48.4928,194.83578 4.6957,8.00957 4.7325,8.04278 13.9022,12.56057 20.6762,10.18682 44.0612,12.83873 66.5711,7.54929 z M 333.0909,91 l 0,-107 -38.5,0 -38.5,0 0,14 0,14 -48.4832,0 -48.4831,0 -2.6514,-5.25 c -8.7907,-17.40657 -23.4234,-31.08942 -39.8823,-37.29345 -25.9344,-9.7757 -72.5082,-7.72166 -87.7033,3.86797 -13.4237,10.23862 -14.6116,28.58943 -2.6682,41.21786 9.606,10.15688 28.0472,16.42738 64.3715,21.88795 51.863,7.79649 69.3121,11.2628 89.5,17.77932 49.9671,16.12908 76.4819,43.82152 83.5229,87.23277 2.3259,14.34052 1.8,39.92519 -1.1061,53.80758 l -0.5757,2.75 35.5794,0 35.5795,0 z m -63.2618,96.75 c 0.419,-2.3375 0.7476,-12.8 0.7302,-23.25 -0.036,-21.83457 -1.9463,-33.26684 -8.1804,-48.96388 -5.6825,-14.30821 -10.7478,-21.9483 -22.2029,-33.48932 -10.6358,-10.71547 -10.3123,-10.85856 3.0367,-1.34302 21.8005,15.54007 39.6578,35.76453 50.1867,56.83934 6.9744,13.96022 9.8716,24.53072 12.2533,44.70688 l 0.5607,4.75 7.9388,0 7.9387,0 0,-81 0,-81 -12.5,0 -12.5,0 0,10.5 0,10.5 -56.0984,0 -56.0984,0 -14.4016,-13.64449 c -7.9209,-7.50447 -14.4018,-13.91697 -14.402,-14.25 -2e-4,-0.33303 22.3873,-0.46939 49.75,-0.30303 27.3627,0.16636 51.2129,0.0335 53.0004,-0.29532 l 3.25,-0.59779 0,-13.95468 0,-13.95469 32.5,0 32.5,0 0,101.5 0,101.5 -29.0118,0 -29.0118,0 z M 51.0909,22.64587 C 37.6315,17.85859 29.3016,11.84475 25.9566,4.5 c -2.044,-4.48784 -2.456,-13.80404 -0.8044,-18.1849 1.4209,-3.76866 6.5888,-9.0523 11.1572,-11.40699 7.287,-3.75595 15.5854,-5.03235 36.2815,-5.58062 17.6695,-0.46809 21.1652,-0.28836 29.9992,1.54244 13.2581,2.74763 22.7487,7.51255 31.6066,15.86865 6.0182,5.67728 16.8942,19.96256 16.8942,22.18999 0,0.41856 -2.4293,-0.0591 -5.3984,-1.06147 C 134.9127,4.22786 113.5232,3.05381 94.1749,5.03932 75.5841,6.9471 65.0937,11.82405 60.8669,20.52421 c -1.196,2.46168 -2.4224,4.4663 -2.7253,4.4547 -0.3029,-0.0116 -3.4757,-1.06147 -7.0507,-2.33304 z M 1192.7759,42.25 c -1.6052,-27.80403 -10.0632,-49.94412 -23.1884,-60.6993 -6.115,-5.01075 -17.568,-10.1562 -26.7044,-11.9974 -11.4572,-2.30887 -33.0542,-2.07579 -43.6796,0.4714 -23.6677,5.67376 -39.81,21.97651 -48.9886,49.4753 -2.9399,8.80773 -7.124,27.25409 -7.124,31.40708 l 0,2.09292 75.1528,0 75.1528,0 z m -142.165,0 c 0.3534,-2.6125 1.523,-8.125 2.599,-12.25 8.6829,-33.2858 25.2946,-50.82494 52.881,-55.83363 13.059,-2.37104 34.7966,-0.60041 45.7414,3.72583 15.2639,6.03353 25.2173,17.98536 30.2376,36.30862 2.0572,7.50846 5.0046,25.16875 5.0151,30.04918 l 0.01,2.75 -68.5613,0 -68.5612,0 0.6425,-4.75 z m 129.0802,-8.5 c -0.5837,-7.00557 -3.2689,-22.72793 -4.0117,-23.48903 -0.1283,-0.13147 -4.5882,-0.69061 -9.9109,-1.24255 -23.7404,-2.46176 -43.7934,3.25735 -56.7096,16.1736 -5.9098,5.9098 -12.3042,15.13842 -11.2321,16.21052 0.3286,0.3286 19.0371,0.59746 41.5745,0.59746 l 40.9772,0 z M 439.0909,45 l 0,-147 -139.5,0 -139.5,0 -0.01,19.25 0,19.25 -2.4591,-3 c -2.4198,-2.95207 -2.4596,-3.30746 -2.495,-22.24526 l -0.0359,-19.24526 101.6072,-0.25474 101.6072,-0.25474 -17.1072,-11.9836 -17.1072,-11.9836 0,-53.2664 0,-53.2664 57.7575,0 57.7575,0 24.7425,24.75736 24.7425,24.75735 0,46.24265 0,46.24264 -19.1562,0 -19.1561,0 19.1561,19.44482 19.1562,19.44483 0.026,30.30517 0.026,30.30518 3.3133,-7.5 c 5.8046,-13.13916 10.333,-21.44436 17.508,-32.10961 25.0068,-37.1717 60.6039,-60.88418 106.0678,-70.65554 11.8242,-2.54132 14.0491,-2.69696 38.0584,-2.66232 25.2946,0.0365 25.5939,0.0618 37.1547,3.13937 6.4101,1.70641 15.5124,4.91037 20.2274,7.1199 8.8218,4.134 21.9627,12.64837 25.2558,16.36397 1.0242,1.15551 -0.4219,0.47334 -3.2135,-1.51593 -30.6613,-21.84915 -82.0157,-26.61477 -131.6875,-12.22044 -62.2021,18.02544 -105.3522,70.36213 -117.6927,142.74893 -7.2647,42.61368 -2.9777,99.77005 10.4045,138.71682 1.4032,4.08384 2.5513,7.57134 2.5513,7.75 0,0.17867 -13.05,0.32485 -29,0.32485 l -29,0 z m 0,-228 0,-50 -54.5,0 -54.5,0 0,50 0,50 54.5,0 54.5,0 z m -104,0.009 0,-45.00942 49.5103,0 49.5103,0 -0.2603,44.75 -0.2603,44.75 -49.25,0.25942 -49.25,0.25943 z"
         id="path5696"
         inkscape:connector-curvature="0"
         sodipodi:nodetypes="ssssscssssscccccscssscccccccccssssccccccccccccsssssscccccccccsssscccccssscssscssssssssssssssscccssssssscccccccccccccssssscccccccssssscccccccssssscccccccsssssscccsssssscccsssssssssssscccccccccccsscccccccccccccsssssscccccssssscscccsssssscccccccsssccccccscssssscccccccccccccccsssssscssssssccccssssssssssssssscccssssssscccccssscccccccccsssscccccccccssssscccccccccccccssssssscccsssssccccssssscccccccsssssscccccccssssscccccccsssssscccccccccccccsssssscccssssscsssssscccccssssccccssscccsssscsssssscccssscccccccccssssscccssssscsccssssssssssssssssssssssssssssssssssssssssssssssssssssssssssssssssssssccccccccssssssssccccscssssscccccccccccsssccccccccccssccssssssscsssssssscccscssssccccccscsssscsccccccsscccccccccccccccccccsssssscsssssscccccccccccccccccccc" />
      <path
         style="fill:#f60201"
         d="m -1106.4091,336.41097 c -2.2,-0.21613 -8.95,-0.86438 -15,-1.44055 -87.778,-8.35956 -171.7912,-53.16659 -229.9353,-122.63214 -11.9635,-14.2929 -19.5196,-24.80289 -36.6948,-51.03926 -32.4003,-49.4941 -49.0046,-95.39474 -56.5401,-156.29902 -2.4556,-19.8468 -2.4584,-69.70313 -0.01,-92 5.7886,-52.61104 17.6828,-95.05918 38.1078,-136 16.6792,-33.43246 35.1478,-58.76952 61.2951,-84.09051 63.6166,-61.60626 150.6302,-89.2997 257.2725,-81.881 118.56621,8.24819 215.95972,59.21161 273.22533,142.97151 26.4867,38.74094 43.37295,82.1464 52.22798,134.25 l 0.63732,3.75 57.2154,0 57.2154,0 17.23929,17.26042 17.23928,17.26043 0.0163,119.48957 c 0.0145,106.17505 0.61085,140.95004 2.44882,142.788 0.303,0.30301 6.73481,0.54245 14.29291,0.5321 24.36972,-0.0334 39.12359,-5.18747 52.35726,-18.29046 8.99853,-8.90967 13.77894,-17.55284 17.68225,-31.97023 l 2.5909,-9.56983 0.37688,-52.25 0.37688,-52.25 -11.85748,0 -11.85749,0 -17.71363,-17.81305 -17.7136,-17.81306 0,-48.63692 0,-48.63692 106.75,-0.38018 c 103.9149,-0.37008 107.0421,-0.43664 117.75,-2.50613 36.3514,-7.02557 53.4093,-21.36891 60.9065,-51.21374 2.5185,-10.02601 4.5935,-28.73695 4.5935,-41.42209 l 0,-7.57791 50.2604,0 50.2604,0 17.7396,17.76014 17.7396,17.76014 0,33.73986 0,33.73986 41.9001,0 41.9002,0 9.6429,10.41327 9.6429,10.41328 10.7069,-5.30857 C -15.5764,-105.64053 10.9654,-111 49.5909,-111 c 24.0307,0 39.398,1.60192 53.1354,5.53894 15.9958,4.58428 31.1444,13.0906 39.3646,22.10424 1.925,2.11081 2.375,2.87764 1,1.70407 -12.7612,-10.89173 -31.7807,-18.60749 -55.5,-22.51501 -12.5677,-2.07039 -57.8903,-1.7197 -73,0.56485 -37.7365,5.7057 -65.7004,18.408 -82.5165,37.48232 l -4.9552,5.62059 -0.014,-21.25 -0.0143,-21.25 -59,0 -59,0 0,-51.5097 0,-51.50969 -47.75,0.25969 -47.75,0.2597 -0.6621,15 c -2.3382,52.97329 -20.9928,76.04389 -68.8379,85.13349 -8.7066,1.65409 -18.2896,1.83151 -114.75,2.1245 l -105.25,0.31968 0,46.46117 0,46.46116 29.04927,0 29.04927,0 -0.35225,71.25 c -0.3431,69.3992 -0.40878,71.46368 -2.52838,79.47589 -6.00871,22.71325 -17.79102,38.18382 -35.60673,46.75283 -11.54656,5.55367 -18.89557,6.94762 -36.61118,6.94436 -14.16444,-0.003 -16.12134,-0.22657 -22.71107,-2.59922 -17.10161,-6.15748 -25.7171,-17.70463 -30.45926,-40.82386 -0.78867,-3.84493 -1.24785,-42.88949 -1.52594,-129.75 l -0.3978,-124.25 -76.93391,0 -76.93392,0 -0.48718,-2.25 c -0.26795,-1.2375 -1.19803,-6.3 -2.06684,-11.25 -1.97138,-11.23181 -8.35943,-35.937 -12.54071,-48.5 -34.2931,-103.03649 -106.67067,-176.19562 -203.20627,-205.40056 -51.7338,-15.65104 -114.2821,-18.43212 -169.7371,-7.54701 -75.1934,14.75951 -136.872,52.62806 -181.521,111.44757 -26.8034,35.31028 -47.6946,80.92745 -58.9404,128.69971 -12.2387,51.99037 -14.3131,114.66967 -5.5119,166.54598 6.1594,36.3051 17.3403,70.28905 33.7925,102.71111 56.1365,110.62723 165.5187,174.13362 293.1808,170.21834 48.9153,-1.50019 91.6704,-11.5319 132.5,-31.08869 C -878.69156,223.78112 -813.01469,125.40334 -799.27086,5.25 l 1.74438,-15.25 13.30869,0 13.30869,0 0,103.86901 c 0,114.27718 -0.11324,111.88616 6.20091,130.92797 12.4163,37.4443 45.67096,61.22486 94.75561,67.76018 12.57166,1.67383 35.82879,1.8613 46.72112,0.3766 41.08412,-5.60007 79.20519,-28.72367 100.54137,-60.98671 l 5.28099,-7.98555 0.26367,32.52474 0.26367,32.52474 87.23636,-0.25549 87.2363,-0.25549 0.2602,-45.25 0.2602,-45.25 -26.5102,0 -26.5102,0 0,-104 0,-104 39.5,0 39.5,0 0,87.39405 c 0,51.30158 0.4169,91.6709 1.0094,97.75 5.0785,52.10065 25.3084,87.84159 59.4906,105.10417 7.6333,3.85492 21.5278,8.50207 32.301,10.80336 14.2364,3.04105 42.9459,3.78795 57.699,1.5011 28.7107,-4.4504 51.0508,-16.76538 67.4948,-37.20647 l 6.0052,-7.46486 0,20.5703 0,20.57029 41.75,-0.26097 41.75,-0.26097 0.2686,-23.31811 0.2686,-23.31811 9.5215,8.93625 c 27.7833,26.07552 56.2362,38.45853 96.9413,42.18994 14.3821,1.3184 45.0106,1.29081 57.2894,-0.0516 39.5639,-4.32544 70.5144,-18.72895 89.7106,-41.74878 l 6,-7.19513 0.2688,22.50649 0.2688,22.50649 130.7312,-0.25371 130.7312,-0.25373 0.5,-26.2865 0.5,-26.28649 5,6.65301 c 5.6565,7.52657 16.3323,17.79741 24.5,23.5707 l 5.5,3.88764 -0.5,26.73082 -0.5,26.73082 -130.4806,0.25375 -130.4806,0.25375 -11.0194,-10.96124 -11.0194,-10.96124 -5.5,3.5317 C 234.7217,321.90692 205.6452,329 164.2363,329 108.9297,329 72.4918,317.18535 43.677,289.90978 39.0517,285.53156 33.5402,279.68354 31.4292,276.91419 l -3.8383,-5.03519 -0.5,25.8105 -0.5,25.8105 -41.6683,0.26091 -41.6683,0.2609 -10.8039,-11.5109 c -5.9422,-6.331 -11.0415,-11.51011 -11.3318,-11.50912 -0.2902,9.8e-4 -4.0655,2.65234 -8.3895,5.89191 -20.3036,15.21172 -43.9768,22.11624 -75.7665,22.0981 -46.8375,-0.0267 -83.3269,-13.40077 -110.4029,-40.46466 C -293.9974,267.97918 -308.5141,239.0215 -315.313,205 c -5.4737,-27.38979 -5.8616,-34.10781 -6.3368,-109.75 l -0.4413,-70.25 -18.909,0 -18.909,0 0,83.5 0,83.5 8.6608,0 8.6609,0 12.3391,12.19877 12.3392,12.19877 0,53.80123 0,53.80123 -81.6538,0 -81.65374,0 -13.7928,-13.49217 -13.7928,-13.49218 -8.30343,5.98196 c -16.51647,11.89879 -34.315,19.18435 -56.40503,23.08856 -15.1715,2.68142 -50.7965,3.73637 -67.51177,1.99921 -38.70265,-4.02225 -69.77518,-17.02573 -93.08695,-38.95577 -20.30298,-19.09959 -32.75473,-42.88118 -39.45969,-75.36405 -2.70423,-13.10092 -2.74311,-13.83028 -3.1329,-58.76556 l -0.39469,-45.5 -4.71525,13.5 c -17.07173,48.87725 -42.51974,89.75214 -77.51213,124.50087 -48.92525,48.58456 -110.47917,77.93226 -182.58502,87.05296 -11.7745,1.48936 -55.4447,2.74675 -64.5,1.85714 z m 2225,-4.4453 c -32.2975,-2.22677 -60.4094,-8.8574 -80.5,-18.98717 -15.5952,-7.86315 -38.3441,-26.4794 -47.5,-38.87103 -1.65,-2.23311 -3.3375,-4.07083 -3.75,-4.08383 -0.4125,-0.013 -0.75,12.12636 -0.75,26.97636 l 0,27 -94.2011,0 -94.201,0 -12.1381,-12 c -6.676,-6.6 -12.5502,-12 -13.0539,-12 -0.5036,0 -4.0635,2.3671 -7.9108,5.26021 -20.8635,15.68904 -43.0245,22.47374 -76.565,23.44078 -53.9686,1.55601 -94.8868,-11.16773 -122.2732,-38.02159 -7.2457,-7.10473 -16.3356,-18.33408 -15.5096,-19.16004 0.2352,-0.23519 5.1952,1.96224 11.0221,4.88318 25.8158,12.94088 54.9806,18.4081 92.2719,17.29727 26.8892,-0.80097 41.6563,-4.1645 60.5587,-13.79362 16.0181,-8.1598 31.0224,-21.68949 43.1877,-38.94324 l 4.3123,-6.11603 0.2661,27.07654 0.266,27.07654 94.484,0 94.4839,0 0,-27.02375 0,-27.02375 13.25,13.36167 c 19.2067,19.3686 34.8931,29.14114 60.4134,37.63721 21.0594,7.01098 42.9297,10.39761 74.8366,11.58847 59.6929,2.22791 112.5603,-10.43533 151.5,-36.2885 15.0564,-9.99641 32.8527,-27.597 42.2897,-41.82479 7.9987,-12.05933 16.3811,-29.4011 20.5075,-42.42656 3.4279,-10.82033 6.9023,-26.35726 7.3795,-33 l 0.3233,-4.5 -60.1249,-0.25776 -60.125,-0.25775 -2.2383,9.75775 c -4.4826,19.5421 -12.8239,35.53069 -23.3945,44.84295 -5.9853,5.27274 -16.627,10.74713 -25.1173,12.92099 -15.1061,3.86778 -38.3273,4.31428 -52.2447,1.00457 -30.3312,-7.2131 -46.733,-34.47388 -49.8622,-82.87369 L 1047.7963,114 l 135.1473,0 135.1473,0 0,-19.77986 c 0,-30.30909 -3.6564,-54.42488 -12.0186,-79.26787 -20.9248,-62.16516 -66.0815,-102.98559 -130.9814,-118.40366 -35.2099,-8.36469 -78.6371,-7.84038 -113.5816,1.37131 C 1000.796,-86.0755 953.5858,-46.37255 930.6468,7.97295 917.7807,38.45419 912.5211,72.62008 914.9101,110.196 c 1.9354,30.44046 6.0531,51.46646 14.0874,71.93307 l 3.8749,9.87093 -23.8907,0 -23.8908,0 0,-213 0,-213 -93.5,0 -93.5,0 0,46 0,46 32,0 32,0 0,42.63486 0,42.63486 -2.25,-2.85728 c -2.1388,-2.71607 -2.2747,-3.94588 -2.75,-24.88486 l -0.5,-22.02758 -15.1921,-0.27573 -15.1921,-0.27574 -17.0579,-17.70869 -17.0579,-17.70868 0,-48.26558 0,-48.26558 96.7589,0 96.759,0 20.741,20.75872 20.7411,20.75873 0.021,98.99127 0.021,98.99128 5.2708,-10 c 22.7762,-43.21283 59.6418,-74.80062 107.5652,-92.16596 37.5952,-13.62284 83.4499,-16.89134 123.6211,-8.81165 25.8361,5.19644 56.4304,16.23575 76.5,27.60341 60.8715,34.47838 98.7742,92.75544 110.6117,170.07065 0.9641,6.29722 1.7812,20.31594 2.1015,36.05355 l 0.524,25.75 -10.8542,0 -10.8541,0 12.8469,12.8755 12.8469,12.87551 -1.1911,7.37449 c -13.6007,84.21289 -71.1553,135.50518 -166.0307,147.96643 -17.1451,2.2519 -52.5557,3.17987 -71.5,1.87374 z m 30,-130.45253 c 14.2821,-4.04442 23.8383,-10.7499 31.3716,-22.0131 4.9072,-7.3368 10.8425,-20.96344 11.8588,-27.22582 l 0.5313,-3.27422 -54.6309,0 -54.6308,0 0,4.39405 c 0,11.61865 3.3858,35.51289 6.2904,44.39296 1.1478,3.50912 1.5438,3.77871 7.212,4.90991 9.0524,1.80654 44.269,1.0048 51.9976,-1.18378 z m -2294,93.4788 c -28.8831,-2.28752 -61.9448,-9.34643 -87,-18.57508 -27.2704,-10.0446 -59.8878,-28.38455 -82.3759,-46.31792 -12.0334,-9.59612 -13.5629,-11.79101 -2.3786,-3.41326 41.0434,30.74402 92.9312,51.66211 149.7545,60.3721 18.3753,2.8166 65.9862,3.55806 86,1.33929 97.30806,-10.7877 176.44741,-62.66355 225.49876,-147.81444 23.89041,-41.47266 41.42149,-98.87557 45.53043,-149.08263 0.31509,-3.85 0.79531,-8.4625 1.06716,-10.25 l 0.49428,-3.25 21.45468,0 21.45469,0 0,2.5 0,2.5 -18.53138,0 c -13.93322,0 -18.63617,0.31016 -18.95368,1.25 -0.23226,0.6875 -0.90091,6.425 -1.48588,12.75 -1.47473,15.94551 -5.45909,39.28379 -9.55313,55.9571 -30.89257,125.81283 -120.78192,214.23141 -240.97593,237.03308 -25.4922,4.83605 -64.6293,7.0111 -90,5.00176 z m 2234.5,-3.95958 c -44.7222,-2.6484 -78.1064,-13.37109 -105.2204,-33.7958 -5.3788,-4.05177 -9.7796,-7.61595 -9.7796,-7.9204 0,-0.30445 1.6589,0.71174 3.6864,2.25819 22.7701,17.3676 51.8375,27.98079 89.3136,32.61045 16.5649,2.04638 70.516,1.7356 85,-0.48962 37.5092,-5.76268 65.648,-15.64232 89.4229,-31.39672 13.9814,-9.26467 32.1942,-27.47107 41.0103,-40.99563 10.9863,-16.85399 18.3333,-34.56813 22.9369,-55.30283 2.3252,-10.47289 2.3394,-10.50081 5.4806,-10.81336 3.8581,-0.38388 3.942,0.53298 1.1885,12.9842 -16.6702,75.38218 -75.7008,122.21648 -166.0392,131.73401 -14.1329,1.48896 -41.6912,2.03409 -57,1.12751 z m -1752,-3.63966 c -18.90581,-2.27448 -35.13799,-6.4867 -47.72196,-12.38374 -8.34172,-3.90906 -21.58016,-12.47535 -24.83115,-16.06765 -0.97749,-1.08011 1.63884,0.31116 5.81406,3.09172 20.55151,13.6866 47.39421,20.22513 83.23905,20.27593 20.75201,0.0294 31.18293,-1.48935 47.45948,-6.91017 31.3431,-10.43865 57.24806,-32.46721 77.17997,-65.63082 l 4.86055,-8.08719 0,4.92548 c 0,3.94684 -0.80253,6.29881 -4.03911,11.83742 -20.24408,34.6428 -52.48102,57.93305 -92.26658,66.65993 -6.85966,1.50465 -13.8919,2.10479 -27.69431,2.36346 -10.175,0.19069 -20.075,0.15722 -22,-0.0744 z m 449.585,-0.94865 c -20.0624,-2.73135 -39.3776,-10.17506 -52.763,-20.33387 -9.1319,-6.93058 -9.3644,-7.93988 -0.4636,-2.01224 18.4124,12.26201 42.0064,18.02117 74.6416,18.21958 19.1197,0.11624 28.8952,-1.07032 41.5,-5.03729 22.8873,-7.20311 40.0464,-20.93888 53.75,-43.02681 l 4.75,-7.65618 0,5.04634 c 0,6.31517 -4.4405,13.6032 -15.1713,24.89991 -20.6529,21.74212 -46.7196,31.60742 -82.8287,31.34757 -7.425,-0.0534 -17.9618,-0.70458 -23.415,-1.44701 z m 311.4714,0.50432 c -20.2589,-1.93053 -38.0885,-6.48595 -53.0132,-13.54474 -9.6492,-4.56369 -27.5512,-15.87403 -30.12,-19.02957 -0.7828,-0.96156 1.2768,0.0517 4.5768,2.25162 21.7787,14.51881 45.142,22.04353 77,24.79969 35.1428,3.04035 69.0547,0.7518 91,-6.14115 25.0299,-7.86179 46.8409,-24.35752 61.8354,-46.76635 l 2.6646,-3.98214 0,4.89127 c 0,4.16216 -0.6002,5.6862 -4.0264,10.22417 -13.85,18.34426 -34.705,33.06605 -57.3276,40.4684 -16.6728,5.4555 -29.2199,7.06991 -57.646,7.41719 -14.025,0.17134 -29.7496,-0.0934 -34.9436,-0.58839 z m 521.7119,0.002 c -18.7121,-1.93955 -36.7667,-6.65489 -51.4412,-13.43491 -7.9768,-3.68552 -21.791,-12.47756 -27.3271,-17.39233 -2.5972,-2.30572 -1.6973,-1.92071 3.489,1.49262 10.2297,6.73271 19.2907,11.04496 32.459,15.44774 32.8627,10.98748 84.6237,12.79882 113.2325,3.96247 15.1835,-4.68969 28.9361,-12.80426 41.649,-24.57443 7.5954,-7.03223 20.3841,-22.36345 26.027,-31.20154 1.8436,-2.8875 3.5301,-5.25 3.7477,-5.25 0.2177,0 0.3958,2.14614 0.3958,4.7692 0,4.40055 -0.6084,5.57934 -7.8707,15.25 -21.8319,29.07204 -43.5732,43.60233 -74.1293,49.54273 -10.0404,1.95195 -46.6529,2.79593 -60.2317,1.38845 z M -510.9091,279.5 l 0,-2.5 78.5,0 78.5,0 0,-36.5 0,-36.5 2.5,0 2.5,0 0,39 0,39 -81,0 -81,0 z m 425,0 0,-2.5 33,0 33,0 0,-25.17431 0,-25.17432 2.5,2.34863 2.5,2.34863 0,25.32568 0,25.32569 -35.5,0 -35.5,0 z m 344,0 0,-2.5 121.9851,0 121.9851,0 0.2649,-29.66554 0.2649,-29.66554 2.75,3.96929 2.75,3.96929 0,28.19625 0,28.19625 -125,0 -125,0 z m 510,0 0,-2.5 86,0 86,0 0,-30.23213 0,-30.23214 2.5,3.67908 2.5,3.67908 0,29.05306 0,29.05305 -88.5,0 -88.5,0 z m -675.5,-65.19959 c -16.041,-1.45727 -32.6167,-6.64687 -43.8803,-13.73825 -9.878,-6.21903 -14.8673,-10.63566 -5.8715,-5.19756 9.073,5.48475 23.2132,10.2268 36.5154,12.24584 15.4089,2.33879 43.743,1.49983 53.2349,-1.57627 11.0169,-3.57031 17.4755,-11.40252 17.4959,-21.2169 0.01,-2.42705 -1.0666,-3.2067 -11.2444,-8.18036 -21.0216,-10.27279 -35.9111,-14.49618 -86.75,-24.60657 C 18.5532,145.36067 4.5816,141.74588 -10.2011,135.91395 -37.9781,124.95562 -58.2999,107.44961 -70.4651,84 -72.0344,80.975 -75.2053,75.32095 -77.5115,71.43544 -85.0801,58.68387 -90.7988,42.85042 -92.5188,29.88484 L -93.1668,25 l -31.3711,0 -31.3712,0 0,92.10699 c 0,83.57868 0.1465,92.05079 1.5818,91.5 0.87,-0.33385 1.9793,-0.60699 2.4652,-0.60699 2.4037,0 7.976,-6.53112 9.6381,-11.29663 1.5737,-4.51189 1.8047,-8.4924 1.7383,-29.95337 l -0.077,-24.75 69.2699,0 69.2699,0 1.5761,2.25 1.576,2.25 -68.2693,0.2565 -68.2694,0.2565 0,22.2435 c 0,26.54697 -1.0203,31.52693 -7.8605,38.36716 -5.1995,5.19947 -10.4548,6.75053 -20.8512,6.154 -9.5228,-0.5464 -15.7526,-3.93211 -20.0626,-10.90342 -6.375,-10.3112 -6.1075,-5.59398 -6.4698,-114.12424 l -0.3296,-98.75 51.0369,0 51.0368,0 0,15.12166 c 0,63.57184 28.1709,101.33351 91.2217,122.27798 16.647,5.52989 32.6858,9.17512 68.5549,15.58094 41.275,7.37125 52.4274,10.1757 64.7234,16.27579 13.6289,6.76134 19.5,14.83811 19.5,26.82578 0,12.45348 -6.8673,21.08603 -20.0804,25.24206 -9.6216,3.02635 -27.816,4.30288 -42.4192,2.9762 z M -192.1655,205.25 c -3.68,-3.84715 -7.4322,-12.57531 -8.7054,-20.25 -0.7091,-4.27422 -1.157,-40.82836 -1.3082,-106.75012 l -0.23,-100.25011 60.857,1.1e-4 c 55.0827,1.1e-4 60.7994,0.1502 60.25,1.58191 -0.3339,0.86998 -0.607,1.99498 -0.607,2.5 0,0.54697 -23.2617,0.91821 -57.5355,0.91821 l -57.5356,0 0.3102,102.75 c 0.3366,111.53501 0.125,107.2028 5.7765,118.2805 1.1138,2.18322 1.8751,3.9695 1.6918,3.9695 -0.1833,0 -1.517,-1.2375 -2.9638,-2.75 z M -405.9091,91 l 0,-113 48,0 48,0 0,2.48981 0,2.48981 -45.25,0.26019 -45.25,0.26019 -0.2544,110.25 -0.2544,110.25 -2.4956,0 -2.4956,0 z M 679.9011,197.98741 c -45.4058,-5.50109 -67.8146,-46.50678 -65.4953,-119.84957 1.1491,-36.33948 9.385,-60.75062 26.1851,-77.61221 11.7935,-11.8367 24.3245,-17.61709 42.143,-19.44005 38.6641,-3.95561 66.4123,18.06292 76.5325,60.72931 1.7917,7.5536 2.123,12.94507 2.5431,41.38327 0.5078,34.38101 -0.084,43.36005 -3.8465,58.30184 -2.5622,10.17681 -9.2249,24.22731 -15.2721,32.20622 -13.7775,18.17851 -37.4862,27.34682 -62.7898,24.28119 z m 26.6898,-7.99083 c 12.0553,-3.83387 18.4096,-7.67247 27.1147,-16.37979 6.7121,-6.71384 8.9061,-9.75882 12.6939,-17.61679 8.2308,-17.07558 10.6957,-32.53581 10.682,-67 -0.012,-29.74442 -1.9046,-46.49569 -7.143,-63.21473 -2.4132,-7.70229 -3.0853,-8.11657 -15.7462,-9.70632 -23.9307,-3.00485 -47.9682,6.2106 -62.7619,24.06159 -5.7564,6.94597 -13.6485,22.99506 -16.8297,34.22405 -7.3271,25.86322 -7.3268,69.88128 6e-4,98.86731 3.9733,15.7174 4.3922,16.41063 10.6513,17.62743 2.9361,0.57079 6.2383,1.26203 7.3383,1.53609 1.1,0.27406 7.625,0.34733 14.5,0.16281 9.4509,-0.25365 14.2075,-0.87851 19.5,-2.56165 z m -450.5,6.67956 c 0,-0.72813 0.7258,-6.01563 1.6128,-11.75 1.9839,-12.82506 2.23,-37.62217 0.4806,-48.42614 -2.7176,-16.78315 -9.5356,-33.24965 -19.0956,-46.11858 l -5.112,-6.88142 4.6407,5 c 17.6378,19.00363 26.4838,44.42309 26.4482,76 -0.01,6.6 -0.6656,16.5 -1.4624,22 -0.7969,5.5 -1.4631,10.3375 -1.4806,10.75 -0.058,1.3794 -6.0317,0.81108 -6.0317,-0.57386 z M 428.0909,51 l 0,-147 3,0 3,0 0,147 0,147 -3,0 -3,0 z m 445.9167,146.58336 c -0.2292,-0.22914 -0.3021,-96.07914 -0.1621,-213 L 874.1001,-228 l 2.4954,0 2.4954,0 0,213 0,213 -2.3333,0 c -1.2834,0 -2.5209,-0.18749 -2.75,-0.41664 z m -1992.4167,-4.00011 c -23.0756,-4.51671 -45.1719,-18.50544 -63.3147,-40.08325 -37.2774,-44.33534 -63.0762,-118.84648 -70.2868,-203 -1.8046,-21.06182 -1.5556,-60.05675 0.4983,-78 7.9596,-69.54021 32.2235,-120.62935 67.6032,-142.34297 23.2436,-14.26532 53.7035,-16.54292 81.7962,-6.11622 45.4206,16.85798 81.8658,71.92696 102.22272,154.45919 20.1733,81.78789 19.80613,164.10684 -1.01522,227.60759 -8.2822,25.25905 -19.3156,44.9475 -33.4927,59.76565 -13.2084,13.80563 -26.396,21.83647 -43.011,26.19223 -10.3271,2.70735 -31.0107,3.47304 -41,1.51778 z m 36.377,-6.63761 c 52.7092,-12.38578 85.70342,-74.70506 91.19115,-172.24117 4.36126,-77.51464 -19.38335,-182.16056 -54.34735,-239.51636 -5.0508,-8.28548 -5.0958,-8.32586 -14.1439,-12.70452 -16.4302,-7.95111 -35.3757,-11.32547 -53.1402,-9.46474 -12.2329,1.28134 -19.3646,3.26881 -29.9367,8.34281 -36.5748,17.55376 -58.4007,59.38232 -67.1229,128.63834 -2.081,16.52291 -2.8748,60.92385 -1.4662,82 5.1303,76.75805 24.2095,153.41505 48.4928,194.83578 4.6957,8.00957 4.7325,8.04278 13.9022,12.56057 20.6762,10.18682 44.0612,12.83873 66.5711,7.54929 z m 2139.2175,1.37107 C 1044.5766,174.16995 1037.267,149.7514 1035.4627,115.75 l -0.6766,-12.75 135.7985,0 135.7984,0 -0.5881,-19.25 c -1.1339,-37.11216 -8.4132,-69.35042 -22.2765,-98.65783 -2.4476,-5.17431 -5.7909,-11.58681 -7.4296,-14.25 -4.5128,-7.33417 -2.7009,-5.79383 2.8323,2.40783 15.1269,22.42219 25.7781,50.92745 30.7334,82.25 0.8701,5.5 1.8337,19.5625 2.1413,31.25 l 0.5593,21.25 -135.1635,0 c -121.9716,0 -135.2223,0.15342 -135.7667,1.57193 -1.0504,2.73727 1.6173,30.48374 4.08,42.4364 3.0452,14.77935 7.5576,27.01966 13.0356,35.36003 2.3956,3.6474 4.2104,6.63164 4.033,6.63164 -0.1774,0 -2.6021,-2.55748 -5.3881,-5.68329 z M 269.6078,190.25 c 0.402,-0.9625 0.9565,-9.85 1.2323,-19.75 1.1364,-40.78791 -8.225,-67.20273 -31.9166,-90.05916 -9.516,-9.18054 -8.9063,-9.14316 4.2892,0.26294 21.8005,15.54007 39.6578,35.76453 50.1867,56.83934 6.9744,13.96022 9.8716,24.53072 12.2533,44.70688 l 0.5607,4.75 7.9388,0 7.9387,0 0,-81 0,-81 -12.5,0 -12.5,0 0,10.5 0,10.5 -56.25,-0.0431 -56.25,-0.043 -14.5,-13.92568 -14.5,-13.92567 53.25,-0.0313 53.25,-0.03125 0,-14 0,-14 32.5,0 32.5,0 0,101 0,101 -29.107,0 c -27.3327,0 -29.0624,-0.10668 -28.3761,-1.75 z m 170.2364,-145.5 -0.2533,-147.25 -139.5,0 -139.5,0 -0.2718,19.30085 -0.2717,19.30085 -2.4783,-2.9452 c -2.4483,-2.9097 -2.4782,-3.17552 -2.4782,-22.04612 l 0,-19.1009 101.6072,-0.25474 101.6072,-0.25474 -17.1072,-11.9836 -17.1072,-11.9836 0,-53.2664 0,-53.2664 57.7575,0 57.7575,0 24.7425,24.75736 24.7425,24.75735 0,46.24265 0,46.24264 -19.1562,0 -19.1561,0 19.1561,19.44482 19.1562,19.44483 0.026,30.30517 0.026,30.30518 3.3133,-7.5 c 5.8046,-13.13916 10.333,-21.44436 17.508,-32.10961 25.0068,-37.1717 60.6039,-60.88418 106.0678,-70.65554 11.8242,-2.54132 14.0491,-2.69696 38.0584,-2.66232 25.2946,0.0365 25.5939,0.0618 37.1547,3.13937 6.4101,1.70641 15.5124,4.91037 20.2274,7.1199 8.2461,3.86424 22.2433,12.80702 24.724,15.79609 0.6569,0.79147 -1.2358,-0.199 -4.2059,-2.20104 -22.7344,-15.32439 -55.7285,-22.01131 -91.4002,-18.52411 -87.5434,8.5581 -144.7565,65.9682 -158.0531,158.59726 -5.4817,38.18747 -0.9905,90.26397 11.059,128.2333 l 3.2581,10.2667 -28.3787,0 -28.3787,0 z m -0.2533,-227.75 0,-50.5 -55,0 -55,0 -0.2603,49.5 c -0.1431,27.225 -0.043,50.06635 0.2219,50.75855 0.3811,0.9946 11.9706,1.20433 55.2603,1 L 439.5909,-132.5 z m -104.5,41.5 0,-2.5 46.5,0 46.5,0 0,-42 0,-42 3,0 3,0 0,44.5 0,44.5 -49.5,0 -49.5,0 z m -980.56984,318.25 c -3.85001,-4.55393 -9.06942,-15.96506 -11.09187,-24.25 -1.55311,-6.36231 -1.74058,-18.00022 -2.0578,-127.75 l -0.34903,-120.75 2.53427,0 2.53427,0 0,114.32632 c 0,75.63424 0.37109,118.01351 1.09649,125.22112 1.24031,12.3237 4.82658,25.90033 8.50633,32.20256 2.96683,5.08123 2.5664,5.4227 -1.17266,1 z m 1271.59334,-3 c -9.4556,-11.66252 -17.0064,-30.24153 -20.5507,-50.56633 -2.3583,-13.5236 -3.7597,-35.75702 -3.1054,-49.26678 2.6684,-55.09027 23.7335,-90.55333 60.6326,-102.07503 6.4755,-2.02197 9.549,-2.34012 22.5,-2.32909 11.6421,0.01 16.3431,0.42174 21,1.83969 7.8609,2.39355 18.4215,7.97203 23.1905,12.25005 l 3.8095,3.41726 -6,-3.44337 c -12.9651,-7.44059 -28.8651,-10.4825 -45.3934,-8.68441 -38.8446,4.22584 -62.0057,28.368 -71.3239,74.34516 -2.053,10.1297 -2.2775,13.9793 -2.2313,38.26285 0.04,20.83733 0.4449,29.28247 1.7754,37 3.5105,20.36358 9.022,36.18213 16.7097,47.95856 2.7077,4.14779 4.7276,7.54144 4.4887,7.54144 -0.2389,0 -2.7147,-2.8125 -5.5017,-6.25 z M 142.4663,155.55041 c -7.6916,-5.38744 -30.7214,-11.57896 -65.3754,-17.57609 -54.8193,-9.48688 -76.3853,-15.17579 -97.5,-25.71967 -8.8635,-4.4261 -21.8078,-12.89132 -27,-17.65731 -3.7799,-3.46965 -3.6149,-3.41321 3,1.02593 20.826,13.97596 52.5038,24.54545 98.5,32.86514 43.9614,7.95165 52.6808,9.73657 61.9259,12.67669 10.9888,3.49464 23.7389,9.78476 27.1122,13.37548 2.6141,2.7826 2.3793,3.14049 -0.6627,1.00983 z m -1335.7314,-4.52267 c -18.7078,-20.70728 -38.911,-58.83235 -50.6222,-95.52774 -10.4872,-32.86071 -17.4005,-71.02099 -20.0913,-110.90132 -1.1524,-17.08027 -0.7895,-63.60381 0.5702,-73.09868 0.3151,-2.2 1.2527,-8.95 2.0837,-15 9.7548,-71.02034 37.2695,-121.45448 76.9156,-140.98555 14.6613,-7.22268 23.0294,-8.99171 42.5,-8.9846 14.7844,0.005 17.4878,0.28169 26,2.65722 16.7421,4.67225 33.2881,13.65937 44.5,24.17066 l 5,4.68755 -7.5,-5.54299 c -34.9284,-25.81431 -83.6948,-28.11942 -116.9613,-5.52858 -39.0526,26.52009 -63.3385,85.16236 -68.2161,164.71846 -1.2872,20.99616 -0.1951,52.04287 2.7018,76.80783 8.5654,73.22212 30.6758,137.39236 61.5899,178.75 3.1861,4.2625 5.6412,7.75 5.4557,7.75 -0.1855,0 -1.9522,-1.78752 -3.926,-3.97226 z m 2230.356,-105.3885 c 0,-3.70268 4.5858,-23.13356 7.231,-30.63924 9.6354,-27.33985 24.4335,-42.55942 48.769,-50.15814 6.6556,-2.0782 9.414,-2.33788 24.5,-2.30651 13.2443,0.0275 18.436,0.43446 23.5,1.84189 8.5068,2.36431 16.2056,6.19009 20.7987,10.33558 l 3.7013,3.34063 -3.5,-2.04245 c -6.0116,-3.50811 -18.4219,-6.88827 -29.8356,-8.12618 -12.8179,-1.39022 -26.5549,-0.23029 -37.7268,3.18558 -24.61,7.52467 -41.3248,29.22581 -48.4699,62.9296 -1.2242,5.775 -2.3787,11.0625 -2.5654,11.75 -0.471,1.73401 -6.4023,1.6314 -6.4023,-0.11076 z M 1050.6443,43.25 c 3.2888,-19.14997 10.8208,-38.14472 19.1474,-48.28719 8.0689,-9.82871 18.8306,-16.43577 31.8996,-19.58458 9.0972,-2.19184 30.1654,-2.20022 40.3055,-0.016 28.0921,6.05103 39.8687,23.44966 44.5973,65.88781 l 0.6407,5.75 -68.6173,0 -68.6172,0 z m 129.0468,-9.5 c -0.5837,-7.00557 -3.2689,-22.72793 -4.0117,-23.48903 -0.1283,-0.13147 -4.5882,-0.69061 -9.9109,-1.24255 -23.7404,-2.46176 -43.7934,3.25735 -56.7096,16.1736 -5.9098,5.9098 -12.3042,15.13842 -11.2321,16.21052 0.3286,0.3286 19.0371,0.59746 41.5745,0.59746 l 40.9772,0 z M 50.1312,22.01395 c -16.0503,-5.5577 -24.9,-14.27726 -25.8263,-25.44636 -0.8077,-9.74085 3.1348,-16.68371 12.0352,-21.19386 7.1192,-3.60757 16.147,-5.26297 32.7508,-6.00537 39.7637,-1.77796 61.0863,7.15259 77.4413,32.43481 2.5073,3.87587 4.5587,7.2359 4.5587,7.46673 0,0.23083 -2.4293,-0.40043 -5.3984,-1.4028 C 134.9127,4.22786 113.5232,3.05381 94.1749,5.03932 75.6575,6.93956 65.2965,11.73545 60.8633,20.4586 l -2.2782,4.48269 z M 19.632,8.86647 C 14.5054,2.77387 12.7123,-1.98555 12.7123,-9.5 c 0,-8.05626 2.1766,-13.26522 7.8426,-18.76794 7.1293,-6.92385 21.9466,-12.0389 39.036,-13.47549 12.2504,-1.02981 34.4796,0.12791 43,2.23948 10.3727,2.57062 22.1583,8.56389 28.5,14.49306 5.4874,5.13041 5.2433,5.70988 -0.569,1.35108 -4.8227,-3.61657 -15.7147,-8.19505 -25.2217,-10.60204 -7.6404,-1.93436 -11.2254,-2.19633 -29.2093,-2.13441 -22.3526,0.077 -30.7233,1.29892 -40.9907,5.98388 -7.4512,3.39996 -13.5661,9.56209 -15.6175,15.73803 -2.1516,6.47787 -1.4824,16.62532 1.4787,22.42435 2.5831,5.05872 2.2343,5.35167 -1.3294,1.11647 z m 138.6194,0.58648 c -0.6383,-1.40088 -1.1605,-2.74643 -1.1605,-2.99011 0,-0.24369 21.0375,-0.56001 46.75,-0.70295 l 46.75,-0.25989 0.2782,-13.75 0.2782,-13.75 40.9718,0 40.9718,0 0,2.48812 0,2.48811 -38.25,0.26189 -38.25,0.26188 -0.2775,14.25 -0.2774,14.25 -48.312,0 -48.3121,0 z M -569.9091,-19.5 l 0,-2.5 29,0 29,0 0,2.5 0,2.5 -29,0 -29,0 z m 486,-52.26787 0,-24.23213 2.5,0 2.5,0 0,20.55305 c 0,20.27551 -0.034,20.60274 -2.5,24.23214 l -2.5,3.67908 z M -813.23106,-97.3889 c -0.72838,-0.6111 -2.34904,-6.9611 -3.60147,-14.1111 -9.5876,-54.73466 -33.16569,-113.7612 -61.25019,-153.33674 -7.81798,-11.01679 -5.77529,-9.57383 2.99542,2.11595 33.48435,44.62865 54.95755,95.62015 66.48556,157.88044 l 1.41824,7.65965 -2.36162,0.45145 c -1.2989,0.2483 -2.95757,-0.0485 -3.68594,-0.65965 z M -202.1403,-145.25 c -0.1479,-26.5375 -0.131,-49.43988 0.037,-50.89417 0.2189,-1.89038 1.0029,-2.77734 2.75,-3.11133 l 2.4438,-0.46716 0,51.36133 0,51.36133 -2.4812,0 -2.4813,0 z m 906.2312,-5.25 0,-2.5 32,0 32,0 0,2.5 0,2.5 -32,0 -32,0 z"
         id="path5694"
         inkscape:connector-curvature="0"
         sodipodi:nodetypes="ssssscssssscccccscssscccccccccssssccccccccccccssssssscccccccccssscccccssscssscccsssssssssssscccssssscccccccccccccsssssscccccccsssscccccccsscccccccsssccccccscssssscccccccccccccccsssssscssssssssscccsssssssssscccccccssssssscccssssscccssssssscccccccccccccsscccccccccccccssssssccccccssssccccssssssssssssscccccsssssssssssssssssssssssssscssssssssssscsssssscsssscssssssssssssssssssccccccccccccccccccccccccccccccccccccccccccccccccccccssssscsssssscccssscccccccccssssscccsssssssssscscsscsssscccccccccccccsssssscssssssssssssssssssscscccsccccccccccscccccscsssssssssssssssssssssssscccsssssscscsssscssssscccccccccccccccccccccsccccccccscccccccccccccccccccsssssscssssccccccccscscccccccccccccccssscccssssssssssscssscsssssssssssssssscsscsscssssssssssssscsssccsssssscccsscsssscsscssssssscssssssscssscsscsscccccccccccccccccccccccccccsccccsssscscccsccccccccccccccc" />
      <path
         style="fill:#272220"
         d="m -1145.4091,294.99194 c -28.8831,-2.28752 -61.9448,-9.34643 -87,-18.57508 -27.2704,-10.0446 -59.8878,-28.38455 -82.3759,-46.31792 -12.0334,-9.59612 -13.5629,-11.79101 -2.3786,-3.41326 41.0434,30.74402 92.9312,51.66211 149.7545,60.3721 18.3753,2.8166 65.9862,3.55806 86,1.33929 97.30806,-10.7877 176.44741,-62.66355 225.49876,-147.81444 23.89041,-41.47266 41.42149,-98.87557 45.53043,-149.08263 0.31509,-3.85 0.79531,-8.4625 1.06716,-10.25 l 0.49428,-3.25 21.45468,0 21.45469,0 0,2.5 0,2.5 -18.53138,0 c -13.93322,0 -18.63617,0.31016 -18.95368,1.25 -0.23226,0.6875 -0.90091,6.425 -1.48588,12.75 -1.47473,15.94551 -5.45909,39.28379 -9.55313,55.9571 -30.89257,125.81283 -120.78192,214.23141 -240.97593,237.03308 -25.4922,4.83605 -64.6293,7.0111 -90,5.00176 z m 2234.5,-3.95958 c -44.7222,-2.6484 -78.1064,-13.37109 -105.2204,-33.7958 -5.3788,-4.05177 -9.7796,-7.61595 -9.7796,-7.9204 0,-0.30445 1.6589,0.71174 3.6864,2.25819 22.7701,17.3676 51.8375,27.98079 89.3136,32.61045 16.5649,2.04638 70.516,1.7356 85,-0.48962 37.5092,-5.76268 65.648,-15.64232 89.4229,-31.39672 13.9814,-9.26467 32.1942,-27.47107 41.0103,-40.99563 10.9863,-16.85399 18.3333,-34.56813 22.9369,-55.30283 2.3252,-10.47289 2.3394,-10.50081 5.4806,-10.81336 3.8581,-0.38388 3.942,0.53298 1.1885,12.9842 -16.6702,75.38218 -75.7008,122.21648 -166.0392,131.73401 -14.1329,1.48896 -41.6912,2.03409 -57,1.12751 z m -1752,-3.63966 c -18.90581,-2.27448 -35.13799,-6.4867 -47.72196,-12.38374 -8.34172,-3.90906 -21.58016,-12.47535 -24.83115,-16.06765 -0.97749,-1.08011 1.63884,0.31116 5.81406,3.09172 20.55151,13.6866 47.39421,20.22513 83.23905,20.27593 20.75201,0.0294 31.18293,-1.48935 47.45948,-6.91017 31.3431,-10.43865 57.24806,-32.46721 77.17997,-65.63082 l 4.86055,-8.08719 0,4.92548 c 0,3.94684 -0.80253,6.29881 -4.03911,11.83742 -20.24408,34.6428 -52.48102,57.93305 -92.26658,66.65993 -6.85966,1.50465 -13.8919,2.10479 -27.69431,2.36346 -10.175,0.19069 -20.075,0.15722 -22,-0.0744 z m 141,-27.83554 c 0,-27.09246 0.0996,-28.61172 2.09878,-32 1.15432,-1.95644 2.27932,-3.55716 2.5,-3.55716 0.22067,0 0.40122,14.4 0.40122,32 l 0,32 -2.5,0 -2.5,0 0,-28.44284 z m 308.585,26.88689 c -20.0624,-2.73135 -39.3776,-10.17506 -52.763,-20.33387 -9.1319,-6.93058 -9.3644,-7.93988 -0.4636,-2.01224 18.4124,12.26201 42.0064,18.02117 74.6416,18.21958 19.1197,0.11624 28.8952,-1.07032 41.5,-5.03729 22.8873,-7.20311 40.0464,-20.93888 53.75,-43.02681 l 4.75,-7.65618 0,5.04634 c 0,6.31517 -4.4405,13.6032 -15.1713,24.89991 -20.6529,21.74212 -46.7196,31.60742 -82.8287,31.34757 -7.425,-0.0534 -17.9618,-0.70458 -23.415,-1.44701 z M -97.8813,271.75 l 0.028,-16.25 2.9722,-3.92814 2.9722,-3.92814 0,20.17814 0,20.17814 -3,0 -3,0 0.028,-16.25 z m 196.0286,15.19837 c -20.2589,-1.93053 -38.0885,-6.48595 -53.0132,-13.54474 -9.6492,-4.56369 -27.5512,-15.87403 -30.12,-19.02957 -0.7828,-0.96156 1.2768,0.0517 4.5768,2.25162 21.7787,14.51881 45.142,22.04353 77,24.79969 35.1428,3.04035 69.0547,0.7518 91,-6.14115 25.0299,-7.86179 46.8409,-24.35752 61.8354,-46.76635 l 2.6646,-3.98214 0,4.89127 c 0,4.16216 -0.6002,5.6862 -4.0264,10.22417 -13.85,18.34426 -34.705,33.06605 -57.3276,40.4684 -16.6728,5.4555 -29.2199,7.06991 -57.646,7.41719 -14.025,0.17134 -29.7496,-0.0934 -34.9436,-0.58839 z M 246.1178,269.25 l 0.027,-18.75 2.9462,-3.5 2.9462,-3.5 0.027,22.25 0.027,22.25 -3,0 -3,0 0.027,-18.75 z m 373.7414,17.70038 c -18.7121,-1.93955 -36.7667,-6.65489 -51.4412,-13.43491 -7.9768,-3.68552 -21.791,-12.47756 -27.3271,-17.39233 -2.5972,-2.30572 -1.6973,-1.92071 3.489,1.49262 10.2297,6.73271 19.2907,11.04496 32.459,15.44774 32.8627,10.98748 84.6237,12.79882 113.2325,3.96247 15.1835,-4.68969 28.9361,-12.80426 41.649,-24.57443 7.5954,-7.03223 20.3841,-22.36345 26.027,-31.20154 1.8436,-2.8875 3.5301,-5.25 3.7477,-5.25 0.2177,0 0.3958,2.14614 0.3958,4.7692 0,4.40055 -0.6084,5.57934 -7.8707,15.25 -21.8319,29.07204 -43.5732,43.60233 -74.1293,49.54273 -10.0404,1.95195 -46.6529,2.79593 -60.2317,1.38845 z M 756.8597,265.25 c -0.2655,-22.47401 -0.2399,-22.79549 2.1141,-26.5 1.3106,-2.0625 2.5481,-3.75 2.75,-3.75 0.2019,0 0.3671,11.925 0.3671,26.5 l 0,26.5 -2.4812,0 -2.4813,0 -0.2687,-22.75 z m -1267.7688,14.25 0,-2.5 78.5,0 78.5,0 0,-36.5 0,-36.5 2.5,0 2.5,0 0,39 0,39 -81,0 -81,0 0,-2.5 z m 425,0 0,-2.5 33,0 33,0 0,-25.17431 0,-25.17432 2.5,2.34863 2.5,2.34863 0,25.32568 0,25.32569 -35.5,0 -35.5,0 0,-2.5 z m 344,0 0,-2.5 121.9851,0 121.9851,0 0.2649,-29.66554 0.2649,-29.66554 2.75,3.96929 2.75,3.96929 0,28.19625 0,28.19625 -125,0 -125,0 0,-2.5 z m 510,0 0,-2.5 86,0 86,0 0,-30.23213 0,-30.23214 2.5,3.67908 2.5,3.67908 0,29.05306 0,29.05305 -88.5,0 -88.5,0 0,-2.5 z M -754.16318,250.09228 c -9.9706,-10.76944 -16.28116,-23.22012 -20.06714,-39.59228 -2.02595,-8.76106 -2.09017,-11.80749 -2.41866,-114.75 l -0.33746,-105.75 3.03867,0 3.03867,0 0,103.86901 c 0,114.0762 -0.0929,112.08827 6.10762,130.62661 3.27302,9.78559 7.92278,18.77087 13.48362,26.05597 1.95006,2.55472 3.35101,4.8395 3.11322,5.07729 -0.23779,0.23779 -2.91914,-2.25368 -5.95854,-5.5366 z m 464.01258,2.0622 c -11.1848,-12.38024 -19.429,-28.98452 -24.8714,-50.09253 -5.881,-22.80853 -6.1123,-27.14691 -6.6008,-123.81195 l -0.4461,-88.25 3.0799,0 3.0799,0 0,87.39405 c 0,51.30158 0.4169,91.6709 1.0094,97.75 2.9573,30.33875 11.873,57.60889 24.3965,74.62091 2.5245,3.42927 4.4183,6.23504 4.2084,6.23504 -0.2099,0 -1.945,-1.73048 -3.8558,-3.84552 z M 92.5909,214.30041 c -16.041,-1.45727 -32.6167,-6.64687 -43.8803,-13.73825 -9.878,-6.21903 -14.8673,-10.63566 -5.8715,-5.19756 9.073,5.48475 23.2132,10.2268 36.5154,12.24584 15.4089,2.33879 43.743,1.49983 53.2349,-1.57627 8.6631,-2.80748 14.686,-8.29851 16.5095,-15.05136 1.5379,-5.69504 0.562,-15.90588 -2.0941,-21.91029 l -1.9853,-4.48827 2.5308,2.37763 c 4.6468,4.36538 7.5406,11.70316 7.5406,19.12027 0,12.45348 -6.8673,21.08603 -20.0804,25.24206 -9.6216,3.02635 -27.816,4.30288 -42.4196,2.9762 z m -264.752,-1.72716 c -3.1836,-1.13611 -10.748,-6.0419 -10.748,-6.97047 0,-0.1625 2.3625,0.52071 5.25,1.51824 5.9693,2.06219 20.8706,2.53988 25.4349,0.81536 4.4397,-1.67745 8.1108,-5.82743 10.0384,-11.34786 1.5269,-4.37304 1.7659,-8.56851 1.7001,-29.83852 l -0.077,-24.75 69.2699,0 69.2699,0 1.5761,2.25 1.576,2.25 -68.2693,0.2565 -68.2694,0.2565 0,22.2435 c 0,18.78565 -0.2866,23.17232 -1.8433,28.21839 -2.2462,7.28088 -8.1901,13.74707 -14.16,15.40441 -5.3889,1.49604 -16.1435,1.3374 -20.7487,-0.30605 z m 1280.252,-3.29289 c -12.6614,-1.44546 -25.5537,-6.6597 -33.0795,-13.37881 l -4.4205,-3.94669 3.825,2.4788 c 5.3627,3.47523 13.8071,6.4889 23.175,8.27073 10.7101,2.03712 42.1367,1.2979 51,-1.19963 24.239,-6.83017 36.8958,-22.63979 45.2163,-56.47949 L 1196.518,134 l 62.7865,0 62.7864,0 2e-4,2.75 10e-5,2.75 -60.3733,-0.26522 -60.3734,-0.26521 -2.24,9.76521 c -8.7612,38.1939 -27.5822,56.19577 -63.0136,60.27113 -8.2907,0.95361 -20.9629,1.07782 -28,0.27445 z M -192.1655,205.25 c -3.68,-3.84715 -7.4322,-12.57531 -8.7054,-20.25 -0.7091,-4.27422 -1.157,-40.82836 -1.3082,-106.75012 l -0.23,-100.25011 60.857,1.1e-4 c 55.0827,1.1e-4 60.7994,0.1502 60.25,1.58191 -0.3339,0.86998 -0.607,1.99498 -0.607,2.5 0,0.54697 -23.2617,0.91821 -57.5355,0.91821 l -57.5356,0 0.3102,102.75 c 0.3366,111.53501 0.125,107.2028 5.7765,118.2805 1.1138,2.18322 1.8751,3.9695 1.6918,3.9695 -0.1833,0 -1.517,-1.2375 -2.9638,-2.75 z m -1167.9465,-9.06695 c -17.3129,-18.12118 -35.3257,-43.9318 -48.0476,-68.84762 C -1427.7774,88.91419 -1438.7621,52.01581 -1444.5793,5 c -2.4556,-19.8468 -2.4584,-69.70313 -0.01,-92 5.7886,-52.61104 17.6828,-95.05918 38.1078,-136 16.6792,-33.43246 35.1478,-58.76952 61.2951,-84.09051 58.3946,-56.54927 137.4132,-84.96635 229.7465,-82.62265 33.0416,0.8387 61.8022,5.1457 91.9137,13.7644 43.67887,12.50205 83.92051,35.08333 109.6123,61.50811 l 7.5,7.71398 -9,-7.3923 c -32.08521,-26.35369 -65.96961,-44.54584 -104.915,-56.3277 -51.5737,-15.60219 -114.2003,-18.37222 -169.585,-7.5009 -75.1934,14.75951 -136.872,52.62806 -181.521,111.44757 -26.8034,35.31028 -47.6946,80.92745 -58.9404,128.69971 -12.2387,51.99037 -14.3131,114.66967 -5.5119,166.54598 4.0886,24.09916 11.5631,50.92551 20.6893,74.25431 12.8981,32.971 38.8939,75.15567 59.6211,96.75 2.2436,2.3375 3.8203,4.25 3.5038,4.25 -0.3166,0 -3.9363,-3.51763 -8.0438,-7.81695 z M -405.9091,91 l 0,-113 48,0 48,0 0,2.48981 0,2.48981 -45.25,0.26019 -45.25,0.26019 -0.2544,110.25 -0.2544,110.25 -2.4956,0 -2.4956,0 0,-113 z M 679.9011,197.98741 c -13.5796,-1.64522 -27.145,-7.29487 -35.3102,-14.70577 -3.9841,-3.61603 -3.9861,-3.62156 -0.5,-1.38535 12.1898,7.81939 22.7193,10.57269 40.5,10.59004 11.92,0.0116 15.109,-0.33458 21.4648,-2.33034 12.4764,-3.91774 18.833,-7.72006 27.6499,-16.5392 6.7121,-6.71384 8.9061,-9.75882 12.6939,-17.61679 8.2308,-17.07558 10.6957,-32.53581 10.682,-67 -0.017,-42.98257 -4.9798,-66.71781 -18.1908,-87 l -2.9311,-4.5 4.12,4.5 c 8.2686,9.03127 15.3907,23.81041 19.1868,39.81489 1.7917,7.5536 2.123,12.94507 2.5431,41.38327 0.5078,34.38101 -0.084,43.36005 -3.8465,58.30184 -2.5622,10.17681 -9.2249,24.22731 -15.2721,32.20622 -13.7775,18.17851 -37.4862,27.34682 -62.7898,24.28119 z M -394.9091,195 l 0,-3 26,0 26,0 0,3 0,3 -26,0 -26,0 0,-3 z m 651,1.67614 c 0,-0.72813 0.7258,-6.01563 1.6128,-11.75 1.9839,-12.82506 2.23,-37.62217 0.4806,-48.42614 -2.7176,-16.78315 -9.5356,-33.24965 -19.0956,-46.11858 l -5.112,-6.88142 4.6407,5 c 17.6378,19.00363 26.4838,44.42309 26.4482,76 -0.01,6.6 -0.6656,16.5 -1.4624,22 -0.7969,5.5 -1.4631,10.3375 -1.4806,10.75 -0.058,1.3794 -6.0317,0.81108 -6.0317,-0.57386 z M 428.0909,51 l 0,-147 3,0 3,0 0,147 0,147 -3,0 -3,0 0,-147 z m 445.9167,146.58336 c -0.2292,-0.22914 -0.3021,-96.07914 -0.1621,-213 L 874.1001,-228 l 2.4954,0 2.4954,0 0,213 0,213 -2.3333,0 c -1.2834,0 -2.5209,-0.18749 -2.75,-0.41664 z m -1992.4167,-4.00011 c -8.9271,-1.74734 -15.2296,-3.93465 -24,-8.32928 -8.2122,-4.1149 -20.1548,-12.16825 -23.5875,-15.90593 -1.4554,-1.5847 0.1496,-0.75767 4.0453,2.08456 8.9758,6.54845 21.0285,12.15756 32.6704,15.20426 13.5077,3.53497 33.5023,3.75423 46.7488,0.51264 33.041,-8.08557 57.4587,-33.55464 73.7797,-76.95637 13.54386,-36.01656 20.51978,-87.91069 17.8826,-133.02915 -5.11656,-87.53709 -29.1214,-168.49729 -64.2413,-216.66398 l -5.8331,-8 5.6282,6 c 7.218,7.69487 19.7446,26.57302 26.7314,40.28554 25.2063,49.47068 41.47816,119.36491 43.35191,186.21446 1.87278,66.81492 -11.38875,127.17008 -36.26721,165.05726 -6.0048,9.14464 -18.8363,22.70849 -26.998,28.5387 -8.0638,5.76038 -19.0773,10.89146 -28.9112,13.46951 -10.3271,2.70735 -31.0107,3.47304 -41,1.51778 z m 510.84118,0.38788 c -7.02988,-1.26517 -14.76233,-4.43116 -19.98793,-8.1839 -2.39429,-1.71945 -4.35325,-3.24968 -4.35325,-3.40052 0,-0.15084 1.95571,0.59085 4.34602,1.6482 8.36135,3.69862 17.54374,5.22151 31.65398,5.24977 24.03177,0.0481 38.8955,-5.15541 52.11526,-18.24462 8.98696,-8.89821 13.76138,-17.5218 17.70021,-31.97023 l 2.60886,-9.56983 0.34368,-69.75 0.34368,-69.75 2.49343,0 2.49342,0 -0.35225,71.25 c -0.3431,69.3992 -0.40878,71.46368 -2.52838,79.47589 -7.35723,27.81073 -24.31115,45.64377 -49.23308,51.786 -7.69327,1.89608 -30.33865,2.77391 -37.64365,1.45924 z M 1057.1854,188.31671 C 1044.5766,174.16995 1037.267,149.7514 1035.4627,115.75 l -0.6766,-12.75 135.7985,0 135.7984,0 -0.5881,-19.25 c -1.1339,-37.11216 -8.4132,-69.35042 -22.2765,-98.65783 -2.4476,-5.17431 -5.7909,-11.58681 -7.4296,-14.25 -4.5128,-7.33417 -2.7009,-5.79383 2.8323,2.40783 15.1269,22.42219 25.7781,50.92745 30.7334,82.25 0.8701,5.5 1.8337,19.5625 2.1413,31.25 l 0.5593,21.25 -135.1635,0 c -121.9716,0 -135.2223,0.15342 -135.7667,1.57193 -1.0504,2.73727 1.6173,30.48374 4.08,42.4364 3.0452,14.77935 7.5576,27.01966 13.0356,35.36003 2.3956,3.6474 4.2104,6.63164 4.033,6.63164 -0.1774,0 -2.6021,-2.55748 -5.3881,-5.68329 z m -787.7015,2.1015 c 0.3339,-0.86998 0.607,-1.99498 0.607,-2.5 0,-0.53407 10.8773,-0.91821 26,-0.91821 l 26,0 0,-98.5 0,-98.5 2.5,0 2.5,0 0,101 0,101 -29.107,0 c -26.1309,0 -29.0449,-0.16173 -28.5,-1.58179 z m 170.607,-0.91821 0,-2.5 24.5,0 c 13.475,0 24.4943,-0.3375 24.4872,-0.75 -0.01,-0.4125 -1.0874,-4.125 -2.4009,-8.25 -3.3854,-10.63154 -7.222,-28.41292 -9.2779,-43 -1.3912,-9.87141 -1.7563,-19.2292 -1.7357,-44.5 0.024,-30.23351 0.1722,-32.80044 2.6745,-46.5 14.9972,-82.10597 63.7859,-135.88032 137.6944,-151.76515 11.8242,-2.54132 14.0491,-2.69696 38.0584,-2.66232 25.2946,0.0365 25.5939,0.0618 37.1547,3.13937 6.4101,1.70641 15.5124,4.91037 20.2274,7.1199 8.2461,3.86424 22.2433,12.80702 24.724,15.79609 0.6569,0.79147 -1.2358,-0.199 -4.2059,-2.20104 -22.7344,-15.32439 -55.7285,-22.01131 -91.4002,-18.52411 -87.5434,8.5581 -144.7565,65.9682 -158.0531,158.59726 -5.4817,38.18747 -0.9905,90.26397 11.059,128.2333 l 3.2581,10.2667 -28.382,0 -28.382,0 0,-2.5 z m 445,0 0,-2.5 19.9854,0 19.9854,0 -1.9745,-5.00932 C 920.203,174.67335 915.4484,156.132 913.2169,143.5 c -6.3396,-35.88749 -5.2201,-80.10932 2.7979,-110.51877 18.8138,-71.35388 72.3886,-123.26292 145.5761,-141.04982 17.2602,-4.19479 29.7446,-5.89063 48.5,-6.58811 43.3911,-1.61363 84.5444,8.53957 115.7509,28.55771 10.723,6.87851 12.6717,9.43881 2.6599,3.49469 -29.821,-17.7051 -66.2917,-26.66788 -108.4108,-26.64234 -96.1171,0.0583 -172.876,54.43095 -197.3593,139.80082 -7.1269,24.85062 -9.6631,50.67553 -7.8215,79.64182 1.9354,30.44046 6.0531,51.46646 14.0874,71.93307 l 3.8749,9.87093 -23.8907,0 -23.8908,0 0,-2.5 z M -645.47894,176.75 c -3.85001,-4.55393 -9.06942,-15.96506 -11.09187,-24.25 -1.55311,-6.36231 -1.74058,-18.00022 -2.0578,-127.75 l -0.34903,-120.75 2.53427,0 2.53427,0 0,114.32632 c 0,75.63424 0.37109,118.01351 1.09649,125.22112 1.24031,12.3237 4.82658,25.90033 8.50633,32.20256 2.96683,5.08123 2.5664,5.4227 -1.17266,1 z m 1271.59334,-3 c -9.4556,-11.66252 -17.0064,-30.24153 -20.5507,-50.56633 -2.3583,-13.5236 -3.7597,-35.75702 -3.1054,-49.26678 2.6684,-55.09027 23.7335,-90.55333 60.6326,-102.07503 6.4755,-2.02197 9.549,-2.34012 22.5,-2.32909 11.6421,0.01 16.3431,0.42174 21,1.83969 7.8609,2.39355 18.4215,7.97203 23.1905,12.25005 l 3.8095,3.41726 -6,-3.44337 c -12.9651,-7.44059 -28.8651,-10.4825 -45.3934,-8.68441 -38.8446,4.22584 -62.0057,28.368 -71.3239,74.34516 -2.053,10.1297 -2.2775,13.9793 -2.2313,38.26285 0.04,20.83733 0.4449,29.28247 1.7754,37 3.5105,20.36358 9.022,36.18213 16.7097,47.95856 2.7077,4.14779 4.7276,7.54144 4.4887,7.54144 -0.2389,0 -2.7147,-2.8125 -5.5017,-6.25 z m -1797.6185,-9 -1.905,-2.25 2.25,1.90499 c 2.1144,1.79022 2.7052,2.59501 1.905,2.59501 -0.1898,0 -1.2023,-1.0125 -2.25,-2.25 z m 1313.9704,-9.19959 c -7.6916,-5.38744 -30.7214,-11.57896 -65.3754,-17.57609 -54.8193,-9.48688 -76.3853,-15.17579 -97.5,-25.71967 -8.8635,-4.4261 -21.8078,-12.89132 -27,-17.65731 -3.7799,-3.46965 -3.6149,-3.41321 3,1.02593 20.826,13.97596 52.5038,24.54545 98.5,32.86514 43.9614,7.95165 52.6808,9.73657 61.9259,12.67669 10.9888,3.49464 23.7389,9.78476 27.1122,13.37548 2.6141,2.7826 2.3793,3.14049 -0.6627,1.00983 z m -1335.7314,-4.52267 c -18.7078,-20.70728 -38.911,-58.83235 -50.6222,-95.52774 -10.4872,-32.86071 -17.4005,-71.02099 -20.0913,-110.90132 -1.1524,-17.08027 -0.7895,-63.60381 0.5702,-73.09868 0.3151,-2.2 1.2527,-8.95 2.0837,-15 9.7548,-71.02034 37.2695,-121.45448 76.9156,-140.98555 14.6613,-7.22268 23.0294,-8.99171 42.5,-8.9846 14.7844,0.005 17.4878,0.28169 26,2.65722 16.7421,4.67225 33.2881,13.65937 44.5,24.17066 l 5,4.68755 -7.5,-5.54299 c -34.9284,-25.81431 -83.6948,-28.11942 -116.9613,-5.52858 -39.0526,26.52009 -63.3385,85.16236 -68.2161,164.71846 -1.2872,20.99616 -0.1951,52.04287 2.7018,76.80783 8.5654,73.22212 30.6758,137.39236 61.5899,178.75 3.1861,4.2625 5.6412,7.75 5.4557,7.75 -0.1855,0 -1.9522,-1.78752 -3.926,-3.97226 z M -66.2692,85.75 C -78.7576,73.2131 -87.7657,54.69654 -91.9313,33 -94.2558,20.89255 -95.3562,4.99897 -94.4534,-3.43076 -93.8013,-9.5199 -93.573,-10 -91.3295,-10 l 2.4204,0 0,15.12166 c 0,18.67278 2.0367,33.11735 6.6045,46.84136 4.2961,12.90722 9.8628,23.5084 16.9681,32.31341 2.984,3.69796 5.1716,6.72357 4.8613,6.72357 -0.3104,0 -2.9177,-2.3625 -5.794,-5.25 z M 1037.0909,45.63924 c 0,-3.70268 4.5858,-23.13356 7.231,-30.63924 9.6354,-27.33985 24.4335,-42.55942 48.769,-50.15814 6.6556,-2.0782 9.414,-2.33788 24.5,-2.30651 13.2443,0.0275 18.436,0.43446 23.5,1.84189 8.5068,2.36431 16.2056,6.19009 20.7987,10.33558 l 3.7013,3.34063 -3.5,-2.04245 c -6.0116,-3.50811 -18.4219,-6.88827 -29.8356,-8.12618 -12.8179,-1.39022 -26.5549,-0.23029 -37.7268,3.18558 -24.61,7.52467 -41.3248,29.22581 -48.4699,62.9296 -1.2242,5.775 -2.3787,11.0625 -2.5654,11.75 -0.471,1.73401 -6.4023,1.6314 -6.4023,-0.11076 z m 13.0153,0.11076 c 0.047,-3.80354 -0.3879,-3.77868 65.8025,-3.76525 l 64.1822,0.013 -0.01,-3.74889 c -0.019,-11.94642 -5.1758,-33.86954 -10.4927,-44.60611 -2.7668,-5.58704 -3.0068,-6.5132 -1.2958,-5 3.897,3.44637 9.6527,13.42443 12.2086,21.16494 2.4353,7.37531 4.7245,19.19587 6.089,31.44228 l 0.6407,5.75 -68.5719,0 c -54.1991,0 -68.5688,-0.262 -68.5567,-1.25 z M 19.632,8.86647 C 14.5054,2.77387 12.7123,-1.98555 12.7123,-9.5 c 0,-8.05626 2.1766,-13.26522 7.8426,-18.76794 7.1293,-6.92385 21.9466,-12.0389 39.036,-13.47549 12.2504,-1.02981 34.4796,0.12791 43,2.23948 10.3727,2.57062 22.1583,8.56389 28.5,14.49306 5.4874,5.13041 5.2433,5.70988 -0.569,1.35108 -4.8227,-3.61657 -15.7147,-8.19505 -25.2217,-10.60204 -7.6404,-1.93436 -11.2254,-2.19633 -29.2093,-2.13441 -22.3526,0.077 -30.7233,1.29892 -40.9907,5.98388 -7.4512,3.39996 -13.5661,9.56209 -15.6175,15.73803 -2.1516,6.47787 -1.4824,16.62532 1.4787,22.42435 2.5831,5.05872 2.2343,5.35167 -1.3294,1.11647 z m 138.6194,0.58648 c -0.6383,-1.40088 -1.1605,-2.74643 -1.1605,-2.99011 0,-0.24369 21.0375,-0.56001 46.75,-0.70295 l 46.75,-0.25989 0.2782,-13.75 0.2782,-13.75 40.9718,0 40.9718,0 0,2.48812 0,2.48811 -38.25,0.26189 -38.25,0.26188 -0.2775,14.25 -0.2774,14.25 -48.312,0 -48.3121,0 -1.1605,-2.54705 z m -740.1605,-68.90293 0,-48.44997 106.75,-0.38018 c 103.9149,-0.37008 107.0421,-0.43664 117.75,-2.50613 36.3514,-7.02557 53.4093,-21.36891 60.9065,-51.21374 2.5185,-10.02601 4.5935,-28.73695 4.5935,-41.42209 l 0,-7.57791 50.5,0 50.5,0 0,2.4903 0,2.49031 -47.75,0.25969 -47.75,0.2597 -0.6621,15 c -2.3382,52.97329 -20.9928,76.04389 -68.8379,85.13349 -8.7066,1.65409 -18.2896,1.83151 -114.75,2.1245 l -105.25,0.31968 0,45.96117 0,45.96116 -3,0 -3,0 0,-48.44998 z m 12,39.94998 0,-2.5 29,0 29,0 0,2.5 0,2.5 -29,0 -29,0 0,-2.5 z m 486,-52.26787 0,-24.23213 2.5,0 2.5,0 0,20.55305 c 0,20.27551 -0.034,20.60274 -2.5,24.23214 l -2.5,3.67908 0,-24.23214 z m 843.2862,11.50199 c -2.3885,-3.50885 -2.443,-5.01167 -2.3225,-63.98412 l 0.0363,-17.75 2.5,0 2.5,0 0,42.5 c 0,23.375 -0.1125,42.49693 -0.25,42.49317 -0.1375,-0.004 -1.2462,-1.47033 -2.4638,-3.25905 z M -72.895,-64.84259 c -0.013,-4.00456 0.4763,-4.83299 6.2858,-10.64245 17.0536,-17.05361 47.0192,-29.32338 83.0013,-33.9858 15.592,-2.02035 50.7278,-2.03629 66.033,-0.0299 25.6104,3.35723 47.7199,13.04503 59.6658,26.14397 1.925,2.11081 2.375,2.87764 1,1.70407 -12.7612,-10.89173 -31.7807,-18.60749 -55.5,-22.51501 -12.5677,-2.07039 -57.8903,-1.7197 -73,0.56485 -37.7365,5.7057 -65.7004,18.408 -82.5165,37.48232 l -4.9552,5.62059 -0.014,-4.34259 z m 230.2359,-2.25381 c -2.1598,-2.61087 -2.25,-3.48539 -2.25,-21.81176 l 0,-19.09184 142,0 142,0 0,2.4965 0,2.49651 -139.25,0.25349 -139.25,0.2535 -0.5,19.06176 -0.5,19.06177 -2.25,-2.71993 z m -970.57196,-30.2925 c -0.72838,-0.6111 -2.34904,-6.9611 -3.60147,-14.1111 -9.5876,-54.73466 -33.16569,-113.7612 -61.25019,-153.33674 -7.81798,-11.01679 -5.77529,-9.57383 2.99542,2.11595 33.48435,44.62865 54.95755,95.62015 66.48556,157.88044 l 1.41824,7.65965 -2.36162,0.45145 c -1.2989,0.2483 -2.95757,-0.0485 -3.68594,-0.65965 z M -202.1403,-145.25 c -0.1479,-26.5375 -0.131,-49.43988 0.037,-50.89417 0.2189,-1.89038 1.0029,-2.77734 2.75,-3.11133 l 2.4438,-0.46716 0,51.36133 0,51.36133 -2.4812,0 -2.4813,0 -0.2687,-48.25 z m -600.16181,40.66821 c -0.33385,-0.86998 -0.60699,-1.99498 -0.60699,-2.5 0,-0.54972 31.10208,-0.91821 77.5,-0.91821 l 77.5,0 0,2.5 0,2.5 -76.89301,0 c -69.19388,0 -76.95379,-0.15838 -77.5,-1.58179 z m 611.39301,-0.91821 0,-2.5 59,0 59,0 0,2.5 0,2.5 -59,0 -59,0 0,-2.5 z m 515,-80.13867 0,-53.36133 57.5,0 57.5,0 0,2.49146 0,2.49146 -54.75,0.25854 -54.75,0.25854 -0.2592,50.13518 -0.2592,50.13518 -2.4908,0.47615 -2.4908,0.47615 0,-53.36133 z m 11,44.13867 0,-2.5 46.5,0 46.5,0 0,-42 0,-42 3,0 3,0 0,44.5 0,44.5 -49.5,0 -49.5,0 0,-2.5 z m 357,-49 0,-48.5 96.5,0 96.5,0 0,2.5 0,2.5 -93.5,0 -93.5,0 0,46 0,46 -3,0 -3,0 0,-48.5 z m 12,40 0,-2.5 32,0 32,0 0,2.5 0,2.5 -32,0 -32,0 0,-2.5 z"
         id="path5692"
         inkscape:connector-curvature="0" />
    </g>
  </g>
</svg>
