<?xml version="1.0" encoding="UTF-8" standalone="no"?>
<!-- Created with Inkscape (http://www.inkscape.org/) -->

<svg
   xmlns:dc="http://purl.org/dc/elements/1.1/"
   xmlns:cc="http://creativecommons.org/ns#"
   xmlns:rdf="http://www.w3.org/1999/02/22-rdf-syntax-ns#"
   xmlns:svg="http://www.w3.org/2000/svg"
   xmlns="http://www.w3.org/2000/svg"
   xmlns:sodipodi="http://sodipodi.sourceforge.net/DTD/sodipodi-0.dtd"
   xmlns:inkscape="http://www.inkscape.org/namespaces/inkscape"
   width="64px"
   height="64px"
   id="svg4827"
   version="1.1"
   inkscape:version="0.48.5 r10040"
   sodipodi:docname="time.svg">
  <defs
     id="defs4829" />
  <sodipodi:namedview
     id="base"
     pagecolor="#ffffff"
     bordercolor="#666666"
     borderopacity="1.0"
     inkscape:pageopacity="0.0"
     inkscape:pageshadow="2"
     inkscape:zoom="5.5"
     inkscape:cx="9.1818182"
     inkscape:cy="32"
     inkscape:current-layer="layer1"
     showgrid="true"
     inkscape:document-units="px"
     inkscape:grid-bbox="true"
     inkscape:window-width="1440"
     inkscape:window-height="855"
     inkscape:window-x="0"
     inkscape:window-y="1"
     inkscape:window-maximized="1" />
  <metadata
     id="metadata4832">
    <rdf:RDF>
      <cc:Work
         rdf:about="">
        <dc:format>image/svg+xml</dc:format>
        <dc:type
           rdf:resource="http://purl.org/dc/dcmitype/StillImage" />
        <dc:title></dc:title>
      </cc:Work>
    </rdf:RDF>
  </metadata>
  <g
     id="layer1"
     inkscape:label="Layer 1"
     inkscape:groupmode="layer">
    <path
       style="fill:#e80f0f"
       d="m 50.714896,39.281387 c -1.54094,-0.0226 -3.43896,-0.0267 -4.21781,-0.009 l -1.41609,0.032 0,-0.16083 c 0,-0.19031 0.0558,-0.20756 0.78218,-0.24163 0.34992,-0.0164 0.52501,-0.0506 0.56245,-0.10972 0.031,-0.049 0.0548,-2.96625 0.0553,-6.79342 7.8e-4,-5.56499 -0.0131,-6.71919 -0.0815,-6.77594 -0.0453,-0.0376 -0.33317,-0.0862 -0.63965,-0.10794 -0.56065,-0.0398 -0.727,-0.11238 -0.65968,-0.28783 0.0278,-0.0724 0.84487,-0.0841 5.38186,-0.0769 l 5.3491,0.008 0.0164,1.38564 c 0.0138,1.16894 0.003,1.38563 -0.0708,1.38563 -0.10001,0 -0.13542,-0.18952 -0.19345,-1.03542 -0.0218,-0.31824 -0.0674,-0.61288 -0.10132,-0.65475 -0.048,-0.0593 -0.81552,-0.0761 -3.46375,-0.0761 l -3.40213,0 -0.0164,2.78649 c -0.009,1.53258 -0.007,2.82076 0.005,2.86263 0.017,0.0596 0.61278,0.0746 2.74082,0.0689 1.49549,-0.004 2.80129,-0.0246 2.90179,-0.0459 0.19364,-0.041 0.18304,-0.0137 0.38246,-0.98234 0.0266,-0.12938 0.0798,-0.21318 0.13525,-0.21318 0.13521,0 0.15698,3.43158 0.0221,3.48334 -0.13599,0.0522 -0.15748,-3.7e-4 -0.24681,-0.60383 -0.0458,-0.30931 -0.11139,-0.59039 -0.14577,-0.62462 -0.10126,-0.10081 -5.63287,-0.0686 -5.75591,0.0335 -0.0859,0.0713 -0.0942,0.38628 -0.076,2.90271 0.0175,2.42766 0.0331,2.83078 0.11173,2.88042 0.14866,0.0939 6.85297,0.0779 6.92826,-0.0165 0.0334,-0.0419 0.0952,-0.48171 0.13738,-0.97742 0.0658,-0.77289 0.0907,-0.89855 0.17517,-0.8821 0.0881,0.0172 0.096,0.16662 0.0751,1.419 -0.0157,0.93877 -0.0458,1.41454 -0.0914,1.44455 -0.0734,0.0483 -0.8686,0.0456 -5.18417,-0.0177 z m -38.90113,-0.10237 c -0.1435,-0.17291 -0.003,-0.24747 0.54079,-0.28781 0.2954,-0.0219 0.57819,-0.0454 0.62844,-0.0523 0.0806,-0.011 0.0914,-0.78609 0.0914,-6.55919 l 0,-6.54667 -2.40582,0 -2.4058301,0 -0.0305,0.82225 c -0.0251,0.67674 -0.0466,0.82224 -0.12181,0.82224 -0.0778,0 -0.0938,-0.18957 -0.10786,-1.27473 -0.009,-0.7011 0.008,-1.29878 0.0369,-1.32816 0.0441,-0.0441 12.1914901,-0.0735 12.2256101,-0.0297 0.006,0.007 0.0254,0.62521 0.0435,1.3728 0.0279,1.15282 0.0195,1.3644 -0.0555,1.39316 -0.0486,0.0186 -0.0999,0.0224 -0.11402,0.008 -0.0141,-0.0141 -0.0445,-0.40133 -0.0676,-0.86047 -0.0268,-0.5335 -0.0686,-0.85696 -0.11589,-0.89621 -0.0476,-0.0395 -0.89632,-0.0557 -2.38132,-0.0454 l -2.30733,0.016 -0.0145,6.4866 c -0.008,3.56763 0.008,6.52251 0.0363,6.5664 0.0334,0.0525 0.26784,0.0942 0.68443,0.12182 0.61971,0.0411 0.63366,0.0453 0.63366,0.19066 l 0,0.14864 -2.36533,0.004 c -1.80863,0.003 -2.38004,-0.0141 -2.42787,-0.0717 z m 9.16452,-3e-5 c -0.074,-0.19278 0.0369,-0.24606 0.6033,-0.28997 0.31236,-0.0242 0.60218,-0.0718 0.64405,-0.10564 0.10234,-0.0828 0.11263,-13.53832 0.0104,-13.60151 -0.0362,-0.0223 -0.30542,-0.0605 -0.59837,-0.0847 -0.29295,-0.0243 -0.56486,-0.064 -0.60424,-0.0884 -0.0954,-0.059 -0.0919,-0.2798 0.005,-0.28406 0.0419,-0.002 1.09024,-0.002 2.32969,3.1e-4 1.23946,0.002 2.28782,0.004 2.3297,0.003 0.0419,-1.8e-4 0.0761,0.0677 0.0761,0.1508 0,0.17488 -0.0454,0.18965 -0.76134,0.24782 -0.26799,0.0218 -0.52151,0.0676 -0.56339,0.10187 -0.11168,0.0914 -0.11168,13.56007 0,13.59926 0.0419,0.0147 0.35022,0.0481 0.68521,0.0742 0.58962,0.046 0.60964,0.0524 0.62687,0.19978 l 0.0178,0.15227 -2.38542,7.4e-4 c -1.86503,6.1e-4 -2.39185,-0.016 -2.41492,-0.0761 z m 5.36233,0.007 c -0.0754,-0.19644 0.03,-0.2495 0.5811,-0.29261 0.31963,-0.025 0.5761,-0.0752 0.61336,-0.12013 0.0352,-0.0424 0.16155,-0.59554 0.28074,-1.2291 0.11919,-0.63357 0.33758,-1.78234 0.48531,-2.55281 0.74155,-3.86751 1.46161,-7.95305 1.61512,-9.1641 0.0699,-0.55141 0.15642,-1.0379 0.19227,-1.0811 0.0704,-0.0848 0.64059,-0.10796 0.76176,-0.0309 0.0396,0.0252 0.33672,0.79903 0.66029,1.71969 0.46536,1.32408 3.56409,8.93255 3.87816,9.52224 0.0355,0.0666 0.0827,0.0907 0.11481,0.0586 0.0712,-0.0712 1.01489,-2.24079 1.73045,-3.97838 0.75913,-1.8434 1.45396,-3.66064 2.13972,-5.59609 0.31309,-0.88368 0.60044,-1.64426 0.63855,-1.69017 0.0887,-0.10694 0.68721,-0.11268 0.76739,-0.007 0.0319,0.0419 0.15782,0.77505 0.27989,1.62927 0.26142,1.82932 0.53481,3.39003 1.2323,7.03476 0.72389,3.78269 1.0401,5.33009 1.10176,5.39153 0.0294,0.0292 0.3068,0.0722 0.61654,0.0956 0.5659,0.0426 0.73368,0.1159 0.66647,0.29106 -0.0489,0.12748 -4.95641,0.11495 -5.00542,-0.0128 -0.0646,-0.16826 0.0926,-0.23519 0.6443,-0.27435 0.30451,-0.0216 0.57864,-0.0547 0.60919,-0.0736 0.0842,-0.052 0.0694,-0.25952 -0.10096,-1.4242 -0.15202,-1.039 -0.53537,-3.13542 -1.09772,-6.00314 -0.30753,-1.56824 -0.31847,-1.61404 -0.38536,-1.61404 -0.0263,0 -0.65425,1.43208 -1.39548,3.18239 -0.74122,1.75032 -1.64381,3.8813 -2.00574,4.73552 l -0.65806,1.55313 -0.38423,0 -0.38423,0 -1.99407,-4.75075 c -1.09674,-2.61291 -2.01925,-4.74564 -2.05002,-4.73941 -0.15472,0.0313 -1.80062,8.92708 -1.67495,9.05275 0.0299,0.0298 0.28969,0.069 0.57743,0.0869 0.52629,0.0328 0.69353,0.1075 0.62731,0.28006 -0.0474,0.12351 -3.6306,0.12507 -3.67798,0.002 z"
       id="path4905"
       inkscape:connector-curvature="0" />
  </g>
</svg>
