<?xml version="1.0" encoding="UTF-8" standalone="no"?>
<!-- Created with Inkscape (http://www.inkscape.org/) -->

<svg
   xmlns:dc="http://purl.org/dc/elements/1.1/"
   xmlns:cc="http://creativecommons.org/ns#"
   xmlns:rdf="http://www.w3.org/1999/02/22-rdf-syntax-ns#"
   xmlns:svg="http://www.w3.org/2000/svg"
   xmlns="http://www.w3.org/2000/svg"
   xmlns:sodipodi="http://sodipodi.sourceforge.net/DTD/sodipodi-0.dtd"
   xmlns:inkscape="http://www.inkscape.org/namespaces/inkscape"
   width="99"
   height="48"
   id="svg4827"
   version="1.1"
   inkscape:version="0.48.5 r10040"
   sodipodi:docname="time-feature.svg">
  <defs
     id="defs4829" />
  <sodipodi:namedview
     id="base"
     pagecolor="#ffffff"
     bordercolor="#666666"
     borderopacity="1.0"
     inkscape:pageopacity="0.0"
     inkscape:pageshadow="2"
     inkscape:zoom="5.5"
     inkscape:cx="-13.636364"
     inkscape:cy="32"
     inkscape:current-layer="layer1"
     showgrid="true"
     inkscape:document-units="px"
     inkscape:grid-bbox="true"
     inkscape:window-width="1440"
     inkscape:window-height="855"
     inkscape:window-x="0"
     inkscape:window-y="1"
     inkscape:window-maximized="1" />
  <metadata
     id="metadata4832">
    <rdf:RDF>
      <cc:Work
         rdf:about="">
        <dc:format>image/svg+xml</dc:format>
        <dc:type
           rdf:resource="http://purl.org/dc/dcmitype/StillImage" />
        <dc:title />
      </cc:Work>
    </rdf:RDF>
  </metadata>
  <g
     id="layer1"
     inkscape:label="Layer 1"
     inkscape:groupmode="layer"
     transform="translate(0,-16)">
    <path
       style="fill:#3c4b5a;fill-opacity:1"
       d="m 87.78654,54.896098 c -3.15242,-0.04623 -7.035345,-0.05462 -8.628699,-0.01841 l -2.897004,0.06546 0,-0.329022 c 0,-0.389332 0.114154,-0.424621 1.600166,-0.494321 0.715858,-0.03355 1.074053,-0.103516 1.150647,-0.224463 0.06342,-0.100243 0.112108,-6.068286 0.113131,-13.897823 0.0016,-11.384728 -0.0268,-13.745964 -0.16673,-13.862062 -0.09267,-0.07692 -0.681592,-0.176346 -1.308582,-0.220821 -1.146965,-0.08142 -1.48728,-0.229905 -1.349558,-0.588836 0.05687,-0.148114 1.728416,-0.17205 11.010086,-0.15732 l 10.943067,0.01637 0.0335,2.83471 c 0.0282,2.391391 0.006,2.83469 -0.14484,2.83469 -0.2046,0 -0.27704,-0.387715 -0.39576,-2.118238 -0.0446,-0.651048 -0.13788,-1.253816 -0.20728,-1.339473 -0.0982,-0.121314 -1.66837,-0.155683 -7.086055,-0.155683 l -6.96,0 -0.03355,5.700537 c -0.01841,3.135317 -0.01432,5.770646 0.01023,5.856303 0.03478,0.121928 1.253611,0.152615 5.607107,0.140954 3.059439,-0.0082 5.730808,-0.05033 5.936418,-0.0939 0.39614,-0.08388 0.37445,-0.02803 0.78242,-2.009649 0.0544,-0.264683 0.16326,-0.436119 0.27669,-0.436119 0.27661,0 0.32115,7.020248 0.0452,7.126137 -0.27821,0.10679 -0.32217,-7.57e-4 -0.50492,-1.235301 -0.0937,-0.63278 -0.22788,-1.207807 -0.29822,-1.277834 -0.20715,-0.206234 -11.523589,-0.14034 -11.775302,0.06853 -0.175732,0.145864 -0.192712,0.790243 -0.155479,5.938297 0.0358,4.966452 0.06772,5.791145 0.228575,5.892698 0.304125,0.192098 14.019646,0.159366 14.173676,-0.03376 0.0683,-0.08572 0.19476,-0.985471 0.28105,-1.999583 0.13461,-1.581161 0.18555,-1.838233 0.35835,-1.80458 0.18024,0.03519 0.1964,0.340867 0.15364,2.902958 -0.0321,1.920514 -0.0937,2.893833 -0.18698,2.955227 -0.15016,0.09881 -1.77696,0.09329 -10.605655,-0.03621 z M 8.2035009,54.686672 c -0.293569,-0.353735 -0.0061,-0.506268 1.106336,-0.588795 0.604322,-0.0448 1.1828481,-0.09288 1.2856481,-0.106994 0.16489,-0.0225 0.186984,-1.608165 0.186984,-13.41864 l 0,-13.393028 -4.9217711,0 -4.92179242,0 -0.062396,1.682141 c -0.051349,1.384459 -0.095333,1.682119 -0.2491961,1.682119 -0.1591614,0 -0.1918939,-0.387818 -0.2206575,-2.607813 -0.018412,-1.434294 0.016366,-2.657014 0.075489,-2.717119 0.090219,-0.09022 24.94107112,-0.150365 25.01087312,-0.06076 0.01227,0.01432 0.05196,1.27904 0.08899,2.808443 0.05708,2.358413 0.03989,2.791258 -0.113541,2.850095 -0.09942,0.03805 -0.204373,0.04583 -0.233259,0.01637 -0.02885,-0.02885 -0.09104,-0.821032 -0.138295,-1.76033 -0.05483,-1.091422 -0.14034,-1.753149 -0.237085,-1.833446 -0.09738,-0.08081 -1.833671,-0.11395 -4.87165,-0.09288 l -4.720282,0.03273 -0.02966,13.270138 c -0.01637,7.298575 0.01637,13.343601 0.07426,13.43339 0.06833,0.107403 0.547941,0.192712 1.400192,0.249217 1.267788,0.08408 1.296327,0.09267 1.296327,0.390048 l 0,0.304084 -4.838938,0.0082 c -3.7000541,0.0061 -4.8690311,-0.02885 -4.9668811,-0.146682 z m 18.7485651,-6.1e-5 c -0.151388,-0.394385 0.07549,-0.503384 1.234217,-0.593214 0.639019,-0.04951 1.231926,-0.146887 1.317583,-0.216116 0.209365,-0.16939 0.230416,-27.696384 0.02128,-27.825657 -0.07406,-0.04562 -0.624821,-0.12377 -1.224132,-0.173277 -0.59931,-0.04971 -1.155577,-0.13093 -1.23614,-0.180847 -0.195167,-0.120701 -0.188007,-0.572408 0.01023,-0.581123 0.08572,-0.0041 2.230388,-0.0041 4.766026,6.34e-4 2.535659,0.0041 4.68037,0.0082 4.766047,0.0061 0.08572,-3.68e-4 0.155684,0.138499 0.155684,0.308503 0,0.357766 -0.09288,0.387982 -1.557532,0.506985 -0.548248,0.0446 -1.066894,0.138294 -1.152571,0.208403 -0.228472,0.186984 -0.228472,27.74088 0,27.821054 0.08572,0.03007 0.716472,0.0984 1.401787,0.151797 1.206231,0.0941 1.247188,0.107198 1.282436,0.408705 l 0.03641,0.311511 -4.880037,0.0015 c -3.815436,0.0012 -4.893192,-0.03273 -4.940388,-0.155683 z m 10.970131,0.01432 c -0.154251,-0.401872 0.06137,-0.510421 1.188801,-0.598615 0.653892,-0.05114 1.178573,-0.153842 1.254798,-0.245759 0.07201,-0.08674 0.330496,-1.218342 0.574332,-2.514464 0.243836,-1.296143 0.690613,-3.646271 0.992836,-5.22248 1.517046,-7.912064 2.990128,-16.270168 3.304175,-18.747706 0.143,-1.128062 0.320001,-2.123312 0.393342,-2.211689 0.144022,-0.173482 1.310504,-0.220862 1.558391,-0.06321 0.08101,0.05155 0.688854,1.634636 1.350806,3.518101 0.952023,2.708773 7.291334,18.274006 7.933851,19.48038 0.07263,0.136249 0.169185,0.185552 0.234875,0.119883 0.14566,-0.145659 2.076239,-4.584157 3.540115,-8.138879 1.553011,-3.771185 2.974478,-7.488853 4.37739,-11.448352 0.640513,-1.807812 1.228367,-3.363789 1.306331,-3.45771 0.181461,-0.218776 1.405879,-0.230518 1.569909,-0.01432 0.06526,0.08572 0.322865,1.585579 0.572593,3.333123 0.534807,3.742381 1.094102,6.935245 2.521011,14.39155 1.480917,7.738541 2.127812,10.904176 2.253955,11.029869 0.06015,0.05974 0.627644,0.147705 1.261303,0.195576 1.157706,0.08715 1.500946,0.237105 1.363449,0.595444 -0.100038,0.260795 -10.139709,0.235162 -10.239973,-0.02619 -0.132157,-0.344223 0.189439,-0.481146 1.318094,-0.561259 0.62296,-0.04419 1.183769,-0.111904 1.246267,-0.150569 0.172255,-0.106381 0.141977,-0.53092 -0.206541,-2.913596 -0.310999,-2.125562 -1.095248,-6.41437 -2.245691,-12.281086 -0.629138,-3.208269 -0.651518,-3.301966 -0.78836,-3.301966 -0.0538,0 -1.33845,2.929716 -2.854841,6.51046 -1.516371,3.580765 -3.362869,7.940275 -4.103297,9.687819 l -1.346244,3.177357 -0.786049,0 -0.786049,0 -4.079423,-9.718975 c -2.243685,-5.345431 -4.130935,-9.708521 -4.193884,-9.695776 -0.316522,0.06403 -3.683667,18.262815 -3.426574,18.519908 0.06117,0.06096 0.592641,0.141159 1.181293,0.177778 1.076672,0.0671 1.418808,0.219921 1.283336,0.57294 -0.09697,0.252674 -7.427398,0.255866 -7.524327,0.0041 z"
       id="path4905"
       inkscape:connector-curvature="0" />
  </g>
</svg>
