<?xml version="1.0" encoding="UTF-8" standalone="no"?>
<!-- Created with Inkscape (http://www.inkscape.org/) -->

<svg
   xmlns:dc="http://purl.org/dc/elements/1.1/"
   xmlns:cc="http://creativecommons.org/ns#"
   xmlns:rdf="http://www.w3.org/1999/02/22-rdf-syntax-ns#"
   xmlns:svg="http://www.w3.org/2000/svg"
   xmlns="http://www.w3.org/2000/svg"
   xmlns:sodipodi="http://sodipodi.sourceforge.net/DTD/sodipodi-0.dtd"
   xmlns:inkscape="http://www.inkscape.org/namespaces/inkscape"
   width="64px"
   height="64px"
   id="svg4943"
   version="1.1"
   inkscape:version="0.48.5 r10040"
   sodipodi:docname="outsidemagazine.svg">
  <defs
     id="defs4945" />
  <sodipodi:namedview
     id="base"
     pagecolor="#ffffff"
     bordercolor="#666666"
     borderopacity="1.0"
     inkscape:pageopacity="0.0"
     inkscape:pageshadow="2"
     inkscape:zoom="5.5"
     inkscape:cx="9.1818182"
     inkscape:cy="32"
     inkscape:current-layer="layer1"
     showgrid="true"
     inkscape:document-units="px"
     inkscape:grid-bbox="true"
     inkscape:window-width="1440"
     inkscape:window-height="855"
     inkscape:window-x="0"
     inkscape:window-y="0"
     inkscape:window-maximized="1" />
  <metadata
     id="metadata4948">
    <rdf:RDF>
      <cc:Work
         rdf:about="">
        <dc:format>image/svg+xml</dc:format>
        <dc:type
           rdf:resource="http://purl.org/dc/dcmitype/StillImage" />
        <dc:title></dc:title>
      </cc:Work>
    </rdf:RDF>
  </metadata>
  <g
     id="layer1"
     inkscape:label="Layer 1"
     inkscape:groupmode="layer">
    <path
       style="fill:#1a1a1a;fill-opacity:1;stroke:none"
       d="m 19.863864,16.562873 -0.359373,0.132665 c -0.576632,0.213284 -1.639828,0.752794 -2.129091,1.079395 -0.506887,0.338299 -1.178012,0.956853 -1.443942,1.331825 -0.242982,0.3428 -0.416369,0.702623 -0.519037,1.07677 -0.07199,0.26323 -0.08414,0.399195 -0.06974,0.79599 0.021,0.568308 0.08669,0.766293 0.432717,1.308653 0.332751,0.521511 0.533436,0.910507 0.615704,1.191436 0.06375,0.217634 0.0735,0.521436 0.08632,2.769243 l 0.01575,2.524537 -0.177737,0 c -0.556683,0 -1.149814,0.249506 -1.54181,0.641427 -0.293903,0.293903 -0.574607,0.819764 -0.701948,1.316377 -0.09127,0.355998 -0.09659,1.359048 -0.009,1.710472 0.054,0.218009 0.063,0.226408 0.204735,0.238332 0.146539,0.012 0.147439,0.0105 0.240882,-0.247331 0.06524,-0.179387 0.153213,-0.318726 0.284679,-0.450791 0.26098,-0.262181 0.484164,-0.323301 1.166913,-0.323301 l 0.52811,0 0,2.919982 0,2.919907 2.132991,1.838038 2.132991,1.836763 0.109417,-0.109492 c 0.06,-0.06074 0.762318,-0.852686 1.562433,-1.759444 0.80004,-0.906757 1.476415,-1.648677 1.501838,-1.648677 0.0255,0 0.956854,0.784967 2.069846,1.74527 1.112992,0.960303 2.037973,1.74842 2.055671,1.750444 0.018,0 1.399546,-1.257281 3.071921,-2.797591 l 3.041098,-2.800216 0,-5.526938 0,-5.525587 -1.143739,-1.130916 C 32.393409,22.747812 31.64699,22.011816 31.363436,21.735612 L 30.84695,21.2333 29.140302,23.014642 c -0.939005,0.979502 -1.723371,1.781342 -1.742645,1.781342 -0.0195,0 -0.839112,-0.792916 -1.822589,-1.762069 -0.983476,-0.969078 -1.80804,-1.761993 -1.831588,-1.761993 -0.02325,0 -0.80739,0.802215 -1.74137,1.782617 -0.933981,0.980477 -1.708673,1.782617 -1.722097,1.782617 -0.0135,0 -0.036,-0.463691 -0.04875,-1.030423 -0.027,-1.155364 -0.07559,-1.431044 -0.347749,-1.986077 -0.166563,-0.339575 -0.310027,-0.529461 -0.839788,-1.103843 -0.429942,-0.466165 -0.59358,-0.759843 -0.664675,-1.197886 -0.09134,-0.563208 0.0495,-1.211984 0.360648,-1.664125 0.195136,-0.283254 0.571982,-0.595831 1.022699,-0.848787 0.191761,-0.107692 0.347749,-0.207285 0.346474,-0.221534 0,-0.01425 -0.057,-0.06974 -0.124941,-0.123665 l -0.12359,-0.09794 z m 26.763854,4.42182 -1.849587,1.966803 -1.849587,1.965529 -0.0105,-1.389722 -0.01125,-1.389796 -0.287228,0 -0.288504,0 0,1.706648 0,1.706572 -0.401895,0.430243 c -0.221008,0.236908 -0.415769,0.422819 -0.432792,0.413444 -0.01725,-0.0097 -0.0315,-0.660025 -0.03225,-1.446417 l 0,-1.429768 -1.174712,-1.071595 c -0.646377,-0.589456 -1.27438,-1.159114 -1.394896,-1.266131 l -0.218984,-0.194535 -1.622954,1.670575 c -0.892659,0.919057 -1.630079,1.689849 -1.638328,1.713098 -0.0082,0.02325 0.07514,0.123365 0.185461,0.221533 l 0.20091,0.177737 0.416069,-0.41217 0.417344,-0.413444 0.54221,0.483039 0.542284,0.482964 -0.01125,1.592056 -0.0105,1.591982 -0.413444,0.027 c -1.300328,0.08639 -2.179263,0.919281 -2.324902,2.20131 -0.0465,0.411795 0,1.098968 0.105592,1.465766 l 0.06825,0.245982 0.184186,-0.01275 c 0.177812,-0.012 0.185686,-0.018 0.246057,-0.197086 0.12944,-0.384271 0.436542,-0.717621 0.833338,-0.902857 0.202185,-0.09442 0.292328,-0.107917 0.775367,-0.121116 l 0.546184,-0.01425 0,2.889009 0,2.89036 -0.113391,0.0465 c -1.462241,0.60003 -2.358124,1.551109 -2.850388,3.025574 -0.134765,0.403695 -0.279429,1.07662 -0.300127,1.396246 -0.012,0.182912 0,0.20946 0.09404,0.263981 0.105592,0.05999 0.112041,0.05549 0.494588,-0.332301 0.477039,-0.483789 0.925731,-0.817364 1.485114,-1.105117 0.419144,-0.215609 1.095518,-0.46489 1.157914,-0.426343 0.01725,0.0105 0.03225,1.819214 0.03225,4.01865 0,2.328276 0.01575,3.993152 0.0375,3.985202 0.02025,-0.0075 0.720397,-0.643902 1.55591,-1.414319 0.835512,-0.770343 1.606455,-1.481514 1.713097,-1.580357 l 0.193185,-0.179087 0.801166,0.74582 c 0.440517,0.410144 0.821038,0.745744 0.846237,0.745744 0.033,0 0.0465,-0.850512 0.0465,-3.091269 0,-2.502264 0.0097,-3.09127 0.0525,-3.09127 0.103792,0 0.754594,0.352924 1.002075,0.54356 0.138065,0.106267 0.380072,0.331475 0.53846,0.501037 l 0.288504,0.309127 2.603056,-1.962978 2.604406,-1.961629 0,-6.474942 0,-6.474867 -1.491489,-1.358898 C 47.68815,21.94545 46.930107,21.254677 46.823765,21.158759 l -0.193261,-0.173912 z m -2.14454,2.840113 0.170012,0.152014 c 0.09397,0.08347 0.491288,0.446292 0.882309,0.806265 l 0.711023,0.655601 0,6.200612 c 0,3.410671 -0.01425,6.201812 -0.03225,6.201812 -0.018,0 -0.115267,-0.08444 -0.216359,-0.188086 -0.361773,-0.370847 -0.909982,-0.73067 -1.461941,-0.958278 -0.303877,-0.125241 -0.984602,-0.312727 -1.298303,-0.358023 -0.101993,-0.015 -0.217934,-0.03675 -0.257606,-0.048 -0.06824,-0.0195 -0.07199,-0.312201 -0.07199,-5.410996 l 0,-5.390373 0.786992,-0.830788 0.788266,-0.832063 z m -15.712603,0.436618 0.824338,0.823063 0.824339,0.823064 0,6.235335 c 0,3.428969 -0.01425,6.232035 -0.03075,6.23016 -0.01725,0 -0.6754,-0.570708 -1.463141,-1.264856 l -1.432318,-1.262231 0,-5.154665 0,-5.154741 0.638877,-0.637527 0.638878,-0.637602 z m -7.151167,0.0105 1.040773,1.017524 1.040697,1.018799 0,5.356925 0,5.356926 -0.458516,0.512586 c -0.252356,0.282054 -0.46099,0.511462 -0.46369,0.510112 0,0 -0.575507,-0.494663 -1.27258,-1.096118 l -1.267406,-1.093568 0,-5.076072 0,-5.076146 0.689124,-0.714847 0.689048,-0.716121 z m 20.71023,1.843137 0,9.201664 c 3.75e-4,5.060922 -0.0075,9.201663 -0.01425,9.201663 -0.0075,0 -0.20241,-0.178036 -0.432793,-0.395445 l -0.418619,-0.395371 0,-8.352877 0,-8.352876 0.430168,-0.453342 0.430243,-0.453416 z"
       id="rect16112"
       inkscape:connector-curvature="0" />
  </g>
</svg>
