<?xml version="1.0" encoding="UTF-8" standalone="no"?>
<!-- Created with Inkscape (http://www.inkscape.org/) -->

<svg
   xmlns:dc="http://purl.org/dc/elements/1.1/"
   xmlns:cc="http://creativecommons.org/ns#"
   xmlns:rdf="http://www.w3.org/1999/02/22-rdf-syntax-ns#"
   xmlns:svg="http://www.w3.org/2000/svg"
   xmlns="http://www.w3.org/2000/svg"
   xmlns:sodipodi="http://sodipodi.sourceforge.net/DTD/sodipodi-0.dtd"
   xmlns:inkscape="http://www.inkscape.org/namespaces/inkscape"
   width="147"
   height="30"
   id="svg4943"
   version="1.1"
   inkscape:version="0.48.5 r10040"
   sodipodi:docname="wired-black.svg">
  <defs
     id="defs4945" />
  <sodipodi:namedview
     id="base"
     pagecolor="#ffffff"
     bordercolor="#666666"
     borderopacity="1.0"
     inkscape:pageopacity="0.0"
     inkscape:pageshadow="2"
     inkscape:zoom="9.0680272"
     inkscape:cx="58.916016"
     inkscape:cy="15"
     inkscape:current-layer="layer1"
     showgrid="true"
     inkscape:document-units="px"
     inkscape:grid-bbox="true"
     inkscape:window-width="1920"
     inkscape:window-height="1031"
     inkscape:window-x="0"
     inkscape:window-y="0"
     inkscape:window-maximized="1" />
  <metadata
     id="metadata4948">
    <rdf:RDF>
      <cc:Work
         rdf:about="">
        <dc:format>image/svg+xml</dc:format>
        <dc:type
           rdf:resource="http://purl.org/dc/dcmitype/StillImage" />
        <dc:title />
      </cc:Work>
    </rdf:RDF>
  </metadata>
  <g
     id="layer1"
     inkscape:label="Layer 1"
     inkscape:groupmode="layer"
     transform="translate(0,-34)">
    <g
       transform="matrix(0.36585366,0,0,0.36585366,0.14634117,34)"
       id="g5306"
       style="fill:#505f6e;fill-opacity:1">
      <path
         style="fill:#505f6e;fill-opacity:1"
         inkscape:connector-curvature="0"
         id="path5276"
         d="m 0,0 80.25,0 c 0,27.33 0,54.67 0,82 L 0,82 0,0 M 5.91,12.87 C 9.49,29.54 12.7,46.3 16.15,63 c 0.63,2 0.24,4.64 2.18,5.98 3.5,0.56 7.09,0.42 10.62,0.18 1.92,0.06 2.38,-2.2 2.73,-3.65 2.41,-11.89 5.03,-23.74 7.43,-35.63 0.19,-1.1 0.53,-2.17 1.05,-3.16 2.99,12.76 5.46,25.63 8.24,38.43 0.38,1.36 0.46,3.04 1.8,3.87 3.82,0.46 7.74,0.5 11.55,-0.03 1.37,-0.81 1.44,-2.48 1.79,-3.86 3.53,-17.41 6.82,-34.89 10.55,-52.26 -3.37,0.02 -6.73,0.01 -10.09,0.01 -2.68,15.15 -4.83,30.4 -7.79,45.5 -3.33,-12.81 -5.56,-25.93 -8.46,-38.86 -0.66,-2.21 -0.36,-5.43 -2.78,-6.55 -2.96,-0.18 -5.94,-0.19 -8.9,0 -1.68,0.14 -2.06,2.13 -2.39,3.45 C 31,29.24 28.19,42.03 25.57,54.85 25.3,56.04 24.9,57.18 24.45,58.31 21.76,43.2 19.21,28.05 16.89,12.88 13.23,12.87 9.57,12.89 5.91,12.87 z" />
      <path
         style="fill:#505f6e;fill-opacity:1"
         inkscape:connector-curvature="0"
         id="path5280"
         d="M 159.75,0 240,0 c 0,27.33 0,54.67 0,82 l -80.25,0 c 0,-27.33 0,-54.67 0,-82 m 18.13,12.88 c 0,18.75 0,37.49 0,56.24 3.7,0 7.41,0 11.12,0 0,-7.33 0,-14.67 0,-22 6.03,0.02 12.06,-0.03 18.09,0.01 2.2,-0.21 4.82,1.36 4.77,3.78 0.28,6.08 0.8,12.14 1.18,18.21 3.53,0 7.05,0 10.58,0.01 -1,-6.88 0.23,-13.99 -1.71,-20.73 -1,-3.53 -4.9,-4.32 -7.94,-5.2 2.26,-1.2 5.16,-1.31 6.8,-3.51 2.38,-3.02 2.55,-7.05 2.56,-10.73 -0.04,-4.3 0.06,-9.03 -2.67,-12.64 -2.18,-3 -6.26,-3.44 -9.68,-3.44 -11.03,-0.01 -22.07,0 -33.1,0 z" />
      <path
         style="fill:#505f6e;fill-opacity:1"
         inkscape:connector-curvature="0"
         id="path5284"
         d="m 319.75,0 81.25,0 0,82 -81.25,0 c 0,-27.33 0,-54.67 0,-82 m 18.13,12.88 c 0,18.75 0,37.49 0,56.24 9.35,-0.02 18.69,0.04 28.04,-0.03 5.76,-0.11 12.47,-1.18 15.94,-6.34 4.05,-6.48 3.44,-14.41 4.15,-21.72 -0.72,-7.32 -0.08,-15.28 -4.15,-21.78 -3.23,-4.83 -9.41,-6.1 -14.84,-6.3 -9.71,-0.16 -19.43,-0.03 -29.14,-0.07 z" />
      <path
         style="fill:#505f6e;fill-opacity:1"
         inkscape:connector-curvature="0"
         id="path5286"
         d="m 100.61,12.33 c 12.93,-0.03 25.85,-0.03 38.77,0 0.05,3.35 0.05,6.71 0.01,10.07 -4.57,0.03 -9.14,0.01 -13.71,0.01 0.02,12.39 0.02,24.79 0,37.18 4.57,0 9.14,-0.02 13.72,0.02 0.02,3.35 0.03,6.71 -0.02,10.06 -12.92,0.03 -25.84,0.03 -38.76,0 -0.05,-3.36 -0.05,-6.71 -0.01,-10.07 4.57,-0.03 9.14,-0.01 13.71,-0.01 -0.02,-12.39 -0.02,-24.79 0,-37.18 -4.57,0 -9.14,0.02 -13.71,-0.01 -0.04,-3.36 -0.04,-6.71 0,-10.07 z" />
      <path
         style="fill:#505f6e;fill-opacity:1"
         inkscape:connector-curvature="0"
         id="path5288"
         d="m 254.34,12.34 c 15.84,-0.05 31.68,-0.05 47.53,0 0.02,6.22 0,12.44 0.01,18.66 -3.43,0 -6.86,0 -10.29,0 -0.01,-2.87 -0.01,-5.73 0.01,-8.59 -6.2,0.01 -12.39,0.01 -18.59,0 -0.02,4.3 -0.01,8.6 -0.01,12.9 5,0 10,0 15,0 0,3.19 0,6.38 0,9.57 -5,0 -10,0 -15,0 0.02,4.91 -0.05,9.83 0.05,14.74 6.36,-0.07 12.72,-0.02 19.08,-0.03 -0.01,-3.27 -0.01,-6.54 0,-9.81 3.49,-0.04 6.98,-0.04 10.47,-0.01 0,6.63 0.05,13.26 -0.03,19.89 -16.08,0.05 -32.15,0.05 -48.23,0 -0.05,-3.35 -0.04,-6.7 -0.01,-10.05 2.55,-0.03 5.09,-0.03 7.64,-0.01 0.05,-12.4 0.05,-24.8 0,-37.2 -2.55,0.02 -5.1,0.02 -7.65,-0.03 -0.02,-3.34 -0.02,-6.69 0.02,-10.03 z" />
      <path
         style="fill:#505f6e;fill-opacity:1"
         inkscape:connector-curvature="0"
         id="path5296"
         d="m 189,22.12 c 7.14,0.11 14.29,-0.22 21.41,0.15 2.75,1.95 2.2,5.87 2.31,8.82 -0.14,2.68 -0.19,6.97 -3.76,7.18 -6.64,0.34 -13.31,0.05 -19.96,0.14 0,-5.43 0,-10.86 0,-16.29 z" />
      <path
         style="fill:#505f6e;fill-opacity:1"
         inkscape:connector-curvature="0"
         id="path5298"
         d="m 349,22.12 c 6.03,0.03 12.06,-0.04 18.09,0.02 2.69,-0.03 5.76,1.28 6.61,4.04 1.89,5.4 1.09,11.26 1.3,16.88 -0.16,4.49 0.31,9.23 -1.6,13.44 -1.28,2.72 -4.59,3.44 -7.32,3.39 -5.7,0 -11.39,-0.02 -17.08,-0.01 0,-12.59 0,-25.17 0,-37.76 z" />
    </g>
  </g>
</svg>
