<?xml version="1.0" encoding="UTF-8" standalone="no"?>
<!-- Created with Inkscape (http://www.inkscape.org/) -->

<svg
   xmlns:dc="http://purl.org/dc/elements/1.1/"
   xmlns:cc="http://creativecommons.org/ns#"
   xmlns:rdf="http://www.w3.org/1999/02/22-rdf-syntax-ns#"
   xmlns:svg="http://www.w3.org/2000/svg"
   xmlns="http://www.w3.org/2000/svg"
   xmlns:sodipodi="http://sodipodi.sourceforge.net/DTD/sodipodi-0.dtd"
   xmlns:inkscape="http://www.inkscape.org/namespaces/inkscape"
   width="130"
   height="30"
   id="svg4943"
   version="1.1"
   inkscape:version="0.48.5 r10040"
   sodipodi:docname="yahoo-black.svg">
  <defs
     id="defs4945" />
  <sodipodi:namedview
     id="base"
     pagecolor="#ffffff"
     bordercolor="#666666"
     borderopacity="1.0"
     inkscape:pageopacity="0.0"
     inkscape:pageshadow="2"
     inkscape:zoom="10.453125"
     inkscape:cx="3.0612856"
     inkscape:cy="32"
     inkscape:current-layer="layer1"
     showgrid="true"
     inkscape:document-units="px"
     inkscape:grid-bbox="true"
     inkscape:window-width="1440"
     inkscape:window-height="851"
     inkscape:window-x="0"
     inkscape:window-y="0"
     inkscape:window-maximized="1" />
  <metadata
     id="metadata4948">
    <rdf:RDF>
      <cc:Work
         rdf:about="">
        <dc:format>image/svg+xml</dc:format>
        <dc:type
           rdf:resource="http://purl.org/dc/dcmitype/StillImage" />
        <dc:title />
      </cc:Work>
    </rdf:RDF>
  </metadata>
  <g
     id="layer1"
     inkscape:label="Layer 1"
     inkscape:groupmode="layer"
     transform="translate(0,-34)">
    <path
       style="fill:#000000;fill-opacity:1"
       d="m 10.245342,63.110217 c 0.06573,-2.314675 0.188564,-7.327615 0.232015,-9.477035 l 0.04814,-2.388517 -2.4441896,-4.264467 C 4.7794164,41.219249 2.3146459,37.073919 0.92131679,34.938291 c -0.3254089,-0.498743 -0.5826812,-0.91581 -0.5717283,-0.926766 0.010775,-0.01078 0.2661457,0.03233 0.5673105,0.0959 0.68468671,0.145114 2.03103641,0.147269 2.75857241,0.0035 0.304217,-0.05961 0.575786,-0.08512 0.603874,-0.05638 0.02874,0.02874 0.475972,0.780693 0.995261,1.671112 0.861541,1.477233 2.042638,3.440278 5.5944376,9.298095 0.691041,1.139683 1.280513,2.06365 1.309964,2.053268 0.074,-0.02505 7.085641,-11.6364 7.712107,-12.770086 0.151202,-0.273328 0.215152,-0.325048 0.355218,-0.286619 0.829219,0.228083 2.684836,0.252866 3.396569,0.0449 0.167014,-0.04884 0.316069,-0.07615 0.331154,-0.06107 0.01428,0.01428 -0.328999,0.577512 -0.764961,1.249554 -1.409492,2.173093 -5.026554,8.303842 -8.121346,13.765423 l -1.290319,2.27714 0.131807,5.69903 c 0.07254,3.134479 0.149774,5.994767 0.171674,6.356164 0.03629,0.600356 0.02874,0.65362 -0.09948,0.616445 -0.785289,-0.22986 -2.347356,-0.272252 -3.218956,-0.08763 -0.304217,0.0643 -0.555097,0.117098 -0.557899,0.117098 -0.0027,0 0.0073,-0.399792 0.02155,-0.888444 z m 112.835818,0.814958 c -1.14669,-0.277282 -1.69669,-1.250561 -1.35267,-2.393549 0.25213,-0.837298 0.84886,-1.256916 1.78371,-1.253934 1.47256,0.0035 2.33543,1.063322 1.97062,2.417933 -0.26903,0.99907 -1.2591,1.505929 -2.40166,1.22955 z M 104.4043,62.529187 c -0.15193,-0.01805 -0.57848,-0.06896 -0.94767,-0.113139 -5.272981,-0.631853 -9.126591,-3.304511 -10.936381,-7.584852 -0.706274,-1.670396 -0.989299,-3.092529 -1.045475,-5.252867 -0.0765,-2.934816 0.345523,-5.013732 1.448605,-7.138943 1.95597,-3.76838 5.50138,-6.096772 10.414791,-6.839752 1.16113,-0.175635 4.26777,-0.202923 5.37007,-0.04741 2.1529,0.303856 3.9073,0.827672 5.47602,1.635086 4.3693,2.248839 6.80358,6.505295 6.80405,11.897123 7.9e-4,5.916076 -3.00708,10.496036 -8.15514,12.41864 -0.89642,0.334748 -2.35085,0.69715 -3.53262,0.880147 -0.7932,0.122837 -4.22755,0.2252 -4.89625,0.146192 z m 2.96143,-1.456005 c 4.32696,-0.410102 7.19544,-2.49979 8.72831,-6.358573 0.63734,-1.604452 0.89742,-3.262272 0.89742,-5.720615 0,-2.876092 -0.38812,-4.809147 -1.35515,-6.749565 -0.6659,-1.336186 -1.8503,-2.731096 -2.98492,-3.515418 -1.98754,-1.374004 -4.65923,-2.027515 -7.428,-1.816969 -5.675871,0.431652 -9.117791,3.995698 -9.749651,10.095452 -0.13757,1.328573 -0.0542,3.982194 0.16413,5.22435 0.52044,2.95888 1.87085,5.354584 3.86558,6.857674 2.037461,1.535238 4.919981,2.262524 7.862131,1.983664 z m -32.023128,-0.0073 c -0.925403,-0.09337 -2.477523,-0.424225 -3.344021,-0.71253 -3.416068,-1.136703 -5.840577,-3.640409 -6.961584,-7.188977 -0.633828,-2.006469 -0.744523,-4.885182 -0.275124,-7.153163 1.183072,-5.714939 5.906987,-9.179822 12.515436,-9.179822 5.963591,0 10.461302,2.886905 12.07714,7.751867 0.909095,2.737023 0.91987,6.19533 0.02874,8.871723 -0.928706,2.785907 -2.853286,5.026196 -5.392189,6.276863 -2.342653,1.153943 -5.543365,1.647765 -8.647421,1.334066 z m 4.027592,-1.482009 c 3.798801,-0.860213 6.041138,-3.677723 6.637468,-8.340116 0.116371,-0.908486 0.116371,-3.498929 3.5e-5,-4.422428 -0.29811,-2.368548 -1.118779,-4.417975 -2.343477,-5.85146 -1.923716,-2.251784 -5.475123,-3.218059 -8.790156,-2.391715 -3.436902,0.856728 -5.699207,3.672587 -6.281137,7.818169 -0.539688,3.84463 0.08081,7.516754 1.677722,9.930558 0.400509,0.605416 1.297178,1.536996 1.878927,1.952092 0.968646,0.691222 2.49347,1.275269 3.785332,1.449861 0.821639,0.110983 2.644499,0.03591 3.435286,-0.145114 z m -61.04352,1.195713 c 9.7e-4,-0.03233 0.126797,-0.290209 0.279793,-0.572517 1.407339,-2.600391 4.451057,-9.64322 8.25934,-19.111239 1.252606,-3.114152 1.599958,-3.90666 1.708178,-3.897143 0.0747,0.0073 0.420158,0.05638 0.767655,0.110984 0.543711,0.08512 0.719203,0.08116 1.258964,-0.02874 0.344804,-0.07076 0.633359,-0.120681 0.640902,-0.110983 0.0073,0.01077 0.530675,1.314851 1.162563,2.90023 3.319381,8.328083 6.661319,16.135658 8.351358,19.510746 l 0.641443,1.281017 -0.262563,-0.05603 c -1.087458,-0.231665 -1.952879,-0.256098 -2.94825,-0.08224 -0.380828,0.06646 -0.707026,0.106324 -0.724875,0.08836 -0.01805,-0.01805 -0.649094,-1.573632 -1.402814,-3.457337 l -1.370413,-3.424904 -4.844851,-0.01805 -4.844813,-0.01805 -1.373467,3.454754 c -0.755407,1.900154 -1.381296,3.464699 -1.390886,3.47684 -0.01078,0.01077 -0.329,-0.03233 -0.709901,-0.09878 -0.858058,-0.149774 -1.70351,-0.150124 -2.527627,-0.0011 -0.347317,0.06285 -0.640651,0.114944 -0.651534,0.115644 -0.01077,8.62e-4 -0.01805,-0.02505 -0.01805,-0.05784 z m 14.979705,-8.537802 0.727102,-0.05029 -0.751169,-1.895304 c -1.173767,-2.961587 -2.755052,-7.099051 -3.078521,-8.055055 -0.288054,-0.850729 -0.427986,-1.144389 -0.427986,-0.896919 0,0.228783 -1.141479,3.263961 -3.15524,8.390005 -0.523205,1.331838 -0.951298,2.437043 -0.951298,2.456007 0,0.09517 6.384934,0.138649 7.637112,0.05172 z m 9.532596,7.432204 c 0.02874,-0.640651 0.08655,-1.946667 0.127497,-2.902202 0.121409,-2.831736 0.09374,-13.038318 -0.0449,-16.516882 -0.06681,-1.67693 -0.105246,-3.065303 -0.08512,-3.085237 0.02155,-0.02155 0.243518,0.01077 0.496591,0.06608 0.593348,0.132183 2.301635,0.132183 2.894983,0 0.253216,-0.05638 0.478238,-0.08477 0.500039,-0.06285 0.02155,0.02155 -0.01428,1.313162 -0.08081,2.869626 -0.06645,1.556465 -0.131456,4.020446 -0.144736,5.475481 l -0.02505,2.645577 2.685052,0.06215 c 1.476763,0.03591 4.439991,0.03879 6.584958,0.01077 l 3.899907,-0.05207 -0.04275,-3.287521 c -0.02505,-1.808172 -0.08728,-4.273842 -0.141882,-5.479325 -0.0546,-1.205446 -0.08081,-2.210262 -0.05819,-2.23289 0.02155,-0.02155 0.374902,0.01805 0.782848,0.08836 0.795633,0.139 1.879431,0.118527 2.662244,-0.05064 0.230938,-0.04992 0.428524,-0.07831 0.438906,-0.06322 0.01077,0.01428 -0.03233,1.200169 -0.09447,2.633512 -0.161277,3.710445 -0.159122,15.159573 0.0035,18.51893 0.06646,1.368188 0.114566,2.494835 0.107401,2.503706 -0.0073,0.0073 -0.295958,-0.03591 -0.64191,-0.0959 -0.821603,-0.146542 -1.845919,-0.146542 -2.61045,-1.43e-4 -0.337261,0.06465 -0.630237,0.100559 -0.65071,0.08009 -0.02155,-0.02155 0.0073,-0.952842 0.06069,-2.071946 0.05388,-1.119067 0.117449,-3.566094 0.141155,-5.437838 l 0.04345,-3.403177 -0.496087,-0.05172 c -0.643094,-0.06716 -11.399565,-0.06681 -12.11216,6.46e-4 l -0.54364,0.05137 0.04526,3.876956 c 0.02505,2.132322 0.08547,4.582476 0.133962,5.444736 0.04884,0.862296 0.07615,1.580278 0.06107,1.595541 -0.01428,0.01428 -0.310682,-0.02155 -0.656564,-0.0844 -0.805476,-0.143309 -1.801706,-0.142582 -2.603158,0.0021 -0.347678,0.06285 -0.645215,0.114943 -0.661628,0.115644 -0.01805,8.62e-4 -0.0073,-0.522594 0.02155,-1.16328 z m 81.861105,-2.196434 c -0.15193,-0.05746 -0.46458,-0.106674 -0.6946,-0.109179 l -0.41818,-0.0035 0.0445,-0.256798 c 0.0984,-0.5681 0.59838,-4.553995 0.78511,-6.25851 0.2561,-2.338055 0.42648,-4.209476 0.91689,-10.06891 0.23956,-2.863054 0.44893,-4.951883 0.52231,-5.212172 0.15589,-0.552837 0.62678,-1.031466 1.16252,-1.181455 0.82081,-0.229861 1.93482,0.129651 2.37523,0.766469 0.44426,0.642303 0.45953,0.543641 -1.16579,7.522465 -1.73756,7.460686 -2.33626,10.287177 -3.09871,14.629548 -0.0287,0.162704 -0.0747,0.292006 -0.10236,0.286618 -0.0287,-0.0035 -0.17491,-0.05638 -0.32685,-0.113866 z"
       id="path5833"
       inkscape:connector-curvature="0" />
  </g>
</svg>
