<?xml version="1.0" encoding="UTF-8" standalone="no"?>
<!-- Created with Inkscape (http://www.inkscape.org/) -->

<svg
   xmlns:dc="http://purl.org/dc/elements/1.1/"
   xmlns:cc="http://creativecommons.org/ns#"
   xmlns:rdf="http://www.w3.org/1999/02/22-rdf-syntax-ns#"
   xmlns:svg="http://www.w3.org/2000/svg"
   xmlns="http://www.w3.org/2000/svg"
   xmlns:sodipodi="http://sodipodi.sourceforge.net/DTD/sodipodi-0.dtd"
   xmlns:inkscape="http://www.inkscape.org/namespaces/inkscape"
   width="64px"
   height="64px"
   id="svg4943"
   version="1.1"
   inkscape:version="0.48.5 r10040"
   sodipodi:docname="yahoo.svg">
  <defs
     id="defs4945" />
  <sodipodi:namedview
     id="base"
     pagecolor="#ffffff"
     bordercolor="#666666"
     borderopacity="1.0"
     inkscape:pageopacity="0.0"
     inkscape:pageshadow="2"
     inkscape:zoom="10.453125"
     inkscape:cx="15.067265"
     inkscape:cy="32"
     inkscape:current-layer="layer1"
     showgrid="true"
     inkscape:document-units="px"
     inkscape:grid-bbox="true"
     inkscape:window-width="1440"
     inkscape:window-height="851"
     inkscape:window-x="0"
     inkscape:window-y="1"
     inkscape:window-maximized="1" />
  <metadata
     id="metadata4948">
    <rdf:RDF>
      <cc:Work
         rdf:about="">
        <dc:format>image/svg+xml</dc:format>
        <dc:type
           rdf:resource="http://purl.org/dc/dcmitype/StillImage" />
        <dc:title />
      </cc:Work>
    </rdf:RDF>
  </metadata>
  <g
     id="layer1"
     inkscape:label="Layer 1"
     inkscape:groupmode="layer">
    <path
       style="fill:#6c319d;fill-opacity:1"
       d="m 11.673681,37.238069 c 0.0244,-0.859266 0.07,-2.720196 0.08613,-3.518115 l 0.01787,-0.886678 -0.907345,-1.583078 c -1.2257449,-2.13861 -2.1407299,-3.677461 -2.6579689,-4.47026 -0.1208,-0.185146 -0.216306,-0.339972 -0.21224,-0.344039 0.004,-0.004 0.0988,0.012 0.2106,0.0356 0.254173,0.05387 0.753972,0.05467 1.024052,0.0013 0.112933,-0.02213 0.213746,-0.0316 0.224173,-0.02093 0.01067,0.01067 0.176693,0.289813 0.369466,0.620359 0.3198259,0.548386 0.7582789,1.277118 2.0767969,3.451688 0.256532,0.423079 0.475359,0.766079 0.486292,0.762225 0.02747,-0.0093 2.630369,-4.319726 2.862929,-4.740579 0.05613,-0.101466 0.07987,-0.120666 0.131866,-0.1064 0.307827,0.08467 0.996679,0.09387 1.260892,0.01667 0.062,-0.01813 0.117333,-0.02827 0.122933,-0.02267 0.0053,0.0053 -0.122133,0.214387 -0.283973,0.463866 -0.523239,0.806706 -1.865984,3.082595 -3.014849,5.110072 l -0.478999,0.845332 0.04893,2.115624 c 0.02693,1.163598 0.0556,2.225409 0.06373,2.359569 0.01347,0.222867 0.01067,0.24264 -0.03693,0.22884 -0.291519,-0.08533 -0.871398,-0.101067 -1.194958,-0.03253 -0.112933,0.02387 -0.206066,0.04347 -0.207106,0.04347 -10e-4,0 0.0027,-0.148413 0.008,-0.329813 z m 41.887508,0.302533 c -0.42568,-0.102934 -0.629853,-0.46424 -0.502146,-0.888546 0.0936,-0.310826 0.315119,-0.466599 0.662159,-0.465492 0.546652,0.0013 0.866972,0.394732 0.731545,0.897598 -0.09987,0.37088 -0.467412,0.559039 -0.891558,0.45644 z m -6.933323,-0.518226 c -0.0564,-0.0067 -0.214746,-0.0256 -0.351799,-0.042 -1.957464,-0.23456 -3.388022,-1.226718 -4.059861,-2.815689 -0.262186,-0.620093 -0.367252,-1.148025 -0.388106,-1.949997 -0.0284,-1.089478 0.128267,-1.861224 0.537759,-2.650156 0.726106,-1.398918 2.042251,-2.263276 3.866234,-2.539089 0.43104,-0.0652 1.584305,-0.07533 1.993504,-0.0176 0.799212,0.112799 1.450491,0.307253 2.032837,0.606985 1.621997,0.834826 2.525663,2.41493 2.525836,4.416513 2.93e-4,2.196197 -1.116305,3.896394 -3.027395,4.610113 -0.332773,0.124267 -0.872692,0.2588 -1.311398,0.326733 -0.294453,0.0456 -1.569371,0.0836 -1.817611,0.05427 z m 1.099358,-0.540506 c 1.606278,-0.15224 2.67113,-0.927985 3.240169,-2.360463 0.236599,-0.595613 0.333146,-1.211038 0.333146,-2.123637 0,-1.067678 -0.14408,-1.785277 -0.503066,-2.505609 -0.2472,-0.496026 -0.686879,-1.013852 -1.108078,-1.305012 -0.737826,-0.510065 -1.729624,-0.752665 -2.757463,-0.674505 -2.107023,0.16024 -3.384754,1.483304 -3.619314,3.747687 -0.05107,0.4932 -0.02013,1.478291 0.06093,1.939411 0.1932,1.098411 0.694506,1.987757 1.434998,2.545742 0.756359,0.569919 1.826424,0.839906 2.918622,0.736386 z M 35.83943,36.47917 c -0.343533,-0.03467 -0.919719,-0.157493 -1.241385,-0.264519 -1.268131,-0.421973 -2.16817,-1.351412 -2.584316,-2.66873 -0.235293,-0.744852 -0.276386,-1.813503 -0.102133,-2.655435 0.439186,-2.12153 2.192823,-3.407782 4.646046,-3.407782 2.213836,0 3.8835,1.071692 4.48334,2.877689 0.337479,1.016052 0.341479,2.299863 0.01067,3.293408 -0.344759,1.034199 -1.059212,1.865851 -2.001717,2.33013 -0.869652,0.428373 -2.057837,0.611692 -3.210141,0.495239 z m 1.495144,-0.550159 c 1.410211,-0.319333 2.242623,-1.365264 2.463996,-3.096062 0.0432,-0.337253 0.0432,-1.298891 1.3e-5,-1.641717 -0.110666,-0.879265 -0.415319,-1.640064 -0.869958,-2.17221 -0.714132,-0.835919 -2.032504,-1.194625 -3.263128,-0.887865 -1.275865,0.318039 -2.11569,1.363357 -2.331717,2.902302 -0.200346,1.427224 0.03,2.790409 0.622813,3.686474 0.148679,0.224746 0.481545,0.570572 0.697505,0.724666 0.359586,0.256599 0.925639,0.473412 1.405211,0.538225 0.305013,0.0412 0.981705,0.01333 1.275265,-0.05387 z M 14.673676,36.37289 c 3.6e-4,-0.012 0.04707,-0.107733 0.103866,-0.212533 0.52244,-0.965331 1.652345,-3.579807 3.066076,-7.094575 0.464999,-1.156052 0.593945,-1.450251 0.634119,-1.446718 0.02773,0.0027 0.155973,0.02093 0.284973,0.0412 0.201839,0.0316 0.266986,0.03013 0.467359,-0.01067 0.128,-0.02627 0.235119,-0.0448 0.237919,-0.0412 0.0027,0.004 0.197,0.488106 0.431573,1.076639 1.232238,3.091595 2.47285,5.989964 3.100235,7.242882 l 0.23812,0.475546 -0.09747,-0.0208 c -0.403692,-0.086 -0.724958,-0.09507 -1.094465,-0.03053 -0.141373,0.02467 -0.262466,0.03947 -0.269092,0.0328 -0.0067,-0.0067 -0.24096,-0.584172 -0.52076,-1.283451 l -0.508732,-1.271411 -1.798531,-0.0067 -1.798517,-0.0067 -0.509866,1.282492 c -0.280426,0.705385 -0.512772,1.286184 -0.516332,1.290691 -0.004,0.004 -0.122133,-0.012 -0.263533,-0.03667 -0.318533,-0.0556 -0.632386,-0.05573 -0.938319,-4e-4 -0.128933,0.02333 -0.237826,0.04267 -0.241866,0.04293 -0.004,3.2e-4 -0.0067,-0.0093 -0.0067,-0.02147 z m 5.560845,-3.169448 0.269919,-0.01867 -0.278853,-0.703585 c -0.435732,-1.099416 -1.022745,-2.635347 -1.142825,-2.99024 -0.106933,-0.315812 -0.158879,-0.424826 -0.158879,-0.332959 0,0.08493 -0.423746,1.211665 -1.171305,3.114582 -0.194227,0.494412 -0.353146,0.904692 -0.353146,0.911732 0,0.03533 2.370249,0.05147 2.835089,0.0192 z m 3.538741,2.759022 c 0.01067,-0.237826 0.03213,-0.722652 0.04733,-1.077371 0.04507,-1.051212 0.0348,-4.840153 -0.01667,-6.131484 -0.0248,-0.622519 -0.03907,-1.137918 -0.0316,-1.145318 0.008,-0.008 0.0904,0.004 0.184347,0.02453 0.220266,0.04907 0.854425,0.04907 1.074691,0 0.094,-0.02093 0.177534,-0.03147 0.185627,-0.02333 0.008,0.008 -0.0053,0.487479 -0.03,1.065278 -0.02467,0.577799 -0.0488,1.492491 -0.05373,2.032637 l -0.0093,0.982105 0.996759,0.02307 c 0.548212,0.01333 1.648237,0.0144 2.444503,0.004 l 1.447744,-0.01933 -0.01587,-1.220411 c -0.0093,-0.671239 -0.0324,-1.586558 -0.05267,-2.034064 -0.02027,-0.447492 -0.03,-0.820505 -0.0216,-0.828905 0.008,-0.008 0.139173,0.0067 0.290613,0.0328 0.295359,0.0516 0.697692,0.044 0.988292,-0.0188 0.08573,-0.01853 0.159079,-0.02907 0.162933,-0.02347 0.004,0.0053 -0.012,0.445533 -0.03507,0.977626 -0.05987,1.377411 -0.05907,5.627617 0.0013,6.874695 0.02467,0.507906 0.04253,0.926146 0.03987,0.929439 -0.0027,0.0027 -0.109867,-0.01333 -0.238293,-0.0356 -0.305,-0.0544 -0.685252,-0.0544 -0.969065,-5.3e-5 -0.1252,0.024 -0.23396,0.03733 -0.24156,0.02973 -0.008,-0.008 0.0027,-0.353719 0.02253,-0.769159 0.02,-0.415426 0.0436,-1.323824 0.0524,-2.018663 l 0.01613,-1.263345 -0.18416,-0.0192 c -0.238733,-0.02493 -4.231807,-0.0248 -4.49634,2.4e-4 l -0.201813,0.01907 0.0168,1.439224 c 0.0093,0.791572 0.03173,1.701131 0.04973,2.021224 0.01813,0.320106 0.02827,0.586639 0.02267,0.592305 -0.0053,0.0053 -0.115333,-0.008 -0.243733,-0.03133 -0.299013,-0.0532 -0.668839,-0.05293 -0.966358,7.87e-4 -0.129067,0.02333 -0.23952,0.04267 -0.245613,0.04293 -0.0067,3.2e-4 -0.0027,-0.194 0.008,-0.431839 z m 30.388912,-0.815372 c -0.0564,-0.02133 -0.172466,-0.0396 -0.257853,-0.04053 l -0.155239,-0.0013 0.01653,-0.09533 c 0.03653,-0.210893 0.222133,-1.690558 0.291453,-2.323317 0.09507,-0.867945 0.15832,-1.562664 0.340373,-3.737834 0.08893,-1.062838 0.166653,-1.838264 0.193893,-1.93489 0.05787,-0.205227 0.232679,-0.382906 0.431559,-0.438586 0.304706,-0.08533 0.718252,0.04813 0.881745,0.284533 0.16492,0.238439 0.170587,0.201813 -0.432772,2.792529 -0.645026,2.769595 -0.867279,3.81886 -1.150318,5.430858 -0.01067,0.0604 -0.02773,0.1084 -0.038,0.1064 -0.01067,-0.0013 -0.06493,-0.02093 -0.121334,-0.04227 z"
       id="path5833"
       inkscape:connector-curvature="0" />
  </g>
</svg>
