<?xml version="1.0" encoding="UTF-8" standalone="no"?>
<!-- Created with Inkscape (http://www.inkscape.org/) -->

<svg
   xmlns:dc="http://purl.org/dc/elements/1.1/"
   xmlns:cc="http://creativecommons.org/ns#"
   xmlns:rdf="http://www.w3.org/1999/02/22-rdf-syntax-ns#"
   xmlns:svg="http://www.w3.org/2000/svg"
   xmlns="http://www.w3.org/2000/svg"
   xmlns:sodipodi="http://sodipodi.sourceforge.net/DTD/sodipodi-0.dtd"
   xmlns:inkscape="http://www.inkscape.org/namespaces/inkscape"
   id="svg2"
   version="1.1"
   inkscape:version="0.48.5 r10040"
   width="186.25"
   height="51.25"
   xml:space="preserve"
   sodipodi:docname="big.eps"><metadata
     id="metadata8"><rdf:RDF><cc:Work
         rdf:about=""><dc:format>image/svg+xml</dc:format><dc:type
           rdf:resource="http://purl.org/dc/dcmitype/StillImage" /><dc:title></dc:title></cc:Work></rdf:RDF></metadata><defs
     id="defs6" /><sodipodi:namedview
     pagecolor="#ffffff"
     bordercolor="#666666"
     borderopacity="1"
     objecttolerance="10"
     gridtolerance="10"
     guidetolerance="10"
     inkscape:pageopacity="0"
     inkscape:pageshadow="2"
     inkscape:window-width="1440"
     inkscape:window-height="855"
     id="namedview4"
     showgrid="false"
     inkscape:zoom="2.2067114"
     inkscape:cx="12.915146"
     inkscape:cy="25.625"
     inkscape:window-x="0"
     inkscape:window-y="1"
     inkscape:window-maximized="1"
     inkscape:current-layer="g10" /><g
     id="g10"
     inkscape:groupmode="layer"
     inkscape:label="ink_ext_XXXXXX"
     transform="matrix(1.25,0,0,-1.25,0,51.25)"><g
       id="g12"
       transform="scale(0.1,0.1)"><path
         d="m 60,410 1370,0 c 33.14,0 60,-26.863 60,-60 l 0,-290 C 1490,26.8633 1463.14,0 1430,0 L 60,0 C 26.8633,0 0,26.8633 0,60 l 0,290 c 0,33.137 26.8633,60 60,60"
         style="fill:#ffffff;fill-opacity:1;fill-rule:evenodd;stroke:none"
         id="path14" /><g
         id="g3791"
         style="fill:#3c4b5a;fill-opacity:1"><path
           id="path16"
           style="fill:#3c4b5a;fill-opacity:1;fill-rule:nonzero;stroke:none"
           d="m 171.184,218.988 c 0,-9.828 -6.223,-14.183 -16.797,-14.183 l -7.215,0 0,27.746 7.836,0 c 10.578,0 16.176,-4.606 16.176,-13.563 z m 16.171,0.371 c 0,17.293 -11.82,26.375 -31.476,26.375 l -25.129,0 0,-85.843 16.422,0 0,31.601 7.34,0 c 19.656,0 32.843,9.332 32.843,27.867" /><path
           id="path18"
           style="fill:#3c4b5a;fill-opacity:1;fill-rule:nonzero;stroke:none"
           d="m 235.543,189.875 c 0,-11.195 -4.731,-19.035 -13.934,-19.035 -8.711,0 -13.562,8.086 -13.562,19.035 0,11.195 4.726,19.16 13.562,19.16 8.957,0 13.934,-8.086 13.934,-19.16 z m 14.555,0 c 0,19.531 -11.942,31.352 -28.368,31.352 -16.296,0 -28.242,-11.821 -28.242,-31.352 0,-19.531 11.821,-31.227 28.121,-31.227 16.422,0 28.489,11.696 28.489,31.227" /><path
           id="path20"
           style="fill:#3c4b5a;fill-opacity:1;fill-rule:nonzero;stroke:none"
           d="m 341.828,219.984 -14.183,0 -10.329,-39.687 -10.824,39.687 -13.187,0 -10.825,-39.812 -10.574,40.683 -15.176,-1.992 17.915,-59.097 13.683,0 10.824,39.687 11.075,-39.687 13.683,0 17.918,60.218" /><path
           id="path22"
           style="fill:#3c4b5a;fill-opacity:1;fill-rule:nonzero;stroke:none"
           d="m 375.344,210.902 c 7.215,0 10.949,-5.226 11.945,-14.558 l -24.012,0 c 1.118,9.707 6.094,14.558 12.067,14.558 z m 26.375,-44.914 -1.742,11.696 c -6.594,-4.606 -12.938,-7.465 -20.653,-7.465 -9.207,0 -15.551,4.976 -16.297,16.797 l 38.692,0 c 0,0.867 0.125,2.363 0.125,3.605 0,17.043 -8.086,30.606 -26.125,30.606 -15.676,0 -27.371,-11.821 -27.371,-31.352 0,-21.648 12.562,-31.227 29.359,-31.227 9.703,0 17.543,2.86 24.012,7.34" /><path
           id="path24"
           style="fill:#3c4b5a;fill-opacity:1;fill-rule:nonzero;stroke:none"
           d="m 451.395,206.422 -2.364,14.805 c -9.332,-0.497 -15.301,-6.344 -19.285,-13.313 l -1.863,12.07 -12.692,0 0,-60.093 14.93,0 0,34.464 c 4.231,6.469 11.941,11.446 21.274,12.067" /><path
           id="path26"
           style="fill:#3c4b5a;fill-opacity:1;fill-rule:nonzero;stroke:none"
           d="m 484.391,210.902 c 7.214,0 10.949,-5.226 11.945,-14.558 l -24.016,0 c 1.121,9.707 6.098,14.558 12.071,14.558 z m 26.375,-44.914 -1.743,11.696 c -6.593,-4.606 -12.937,-7.465 -20.652,-7.465 -9.207,0 -15.551,4.976 -16.297,16.797 l 38.692,0 c 0,0.867 0.125,2.363 0.125,3.605 0,17.043 -8.086,30.606 -26.129,30.606 -15.676,0 -27.367,-11.821 -27.367,-31.352 0,-21.648 12.562,-31.227 29.359,-31.227 9.703,0 17.543,2.86 24.012,7.34" /><path
           id="path28"
           style="fill:#3c4b5a;fill-opacity:1;fill-rule:nonzero;stroke:none"
           d="m 561.438,180.172 c -3.985,-4.977 -8.211,-8.211 -13.688,-8.211 -6.594,0 -11.57,5.473 -11.57,17.168 0,13.187 5.722,19.531 13.562,19.531 5.102,0 7.961,-0.871 11.696,-2.609 l 0,-25.879 z m 14.929,-20.281 0,89.828 -14.929,-2.364 0,-28.992 c -3.61,1.246 -8.211,2.242 -13.934,2.242 -13.938,0 -26.254,-9.953 -26.254,-32.347 0,-20.281 10.078,-29.61 22.645,-29.61 8.335,0 14.183,4.477 18.414,9.579 l 1.242,-8.336 12.816,0" /><path
           id="path30"
           style="fill:#3c4b5a;fill-opacity:1;fill-rule:nonzero;stroke:none"
           d="m 660.27,190.746 c 0,-13.684 -5.723,-19.406 -15.18,-19.406 -4.231,0 -6.344,0.496 -9.453,1.613 l 0,27.246 c 3.73,4.481 8.211,7.84 13.187,7.84 6.719,0 11.446,-5.723 11.446,-17.293 z m 15.054,0.871 c 0,20.156 -9.953,29.61 -22.644,29.61 -7.59,0 -13.188,-3.981 -17.043,-7.961 l 0,36.453 -14.93,-2.364 0,-84.23 c 7.465,-2.488 15.301,-3.98 24.633,-3.98 17.918,0 29.984,10.328 29.984,32.472" /><path
           id="path32"
           style="fill:#3c4b5a;fill-opacity:1;fill-rule:nonzero;stroke:none"
           d="m 739.93,219.984 -15.051,0 -13.191,-41.804 -13.934,42.675 -15.551,-1.992 21.774,-59.218 -0.872,-2.493 c -2.363,-5.597 -5.847,-7.586 -10.578,-7.586 -2.609,0 -4.726,0.372 -6.589,0.872 l 1.988,-12.567 c 1.371,-0.375 2.863,-0.625 6.097,-0.625 10.825,0 17.789,4.356 22.891,18.789 l 23.016,63.949" /><path
           id="path34"
           style="fill:#3c4b5a;fill-opacity:1;fill-rule:nonzero;stroke:none"
           d="m 1359.99,199.961 c 0,19.125 -4.16,35.488 -12.34,46.129 -8.32,10.797 -20.82,16.351 -36.7,16.351 -32.55,0 -52.75,-24.062 -52.75,-62.621 0,-21.593 5.4,-37.785 16.04,-48.121 9.56,-9.254 23.29,-13.879 41.03,-13.879 16.34,0 31.46,3.856 41.02,10.176 l -4.16,26.223 c -9.41,-5.09 -20.36,-7.867 -32.7,-7.867 -7.4,0 -12.49,1.543 -16.2,4.781 -4.01,3.394 -6.32,7.695 -7.09,15.562 l 63.39,0 c 0.15,1.852 0.46,10.489 0.46,13.266 z m -64.16,10.18 c 1.08,17.117 5.71,26.386 14.5,26.386 8.64,0 13.11,-9.422 13.73,-26.386 l -28.23,0" /><path
           id="path36"
           style="fill:#3c4b5a;fill-opacity:1;fill-rule:nonzero;stroke:none"
           d="m 1233.77,249.328 c -6.79,8.793 -16.2,13.113 -28.23,13.113 -11.1,0 -20.82,-4.629 -29.92,-14.343 l -2.01,12.027 -33.62,0 0,-165.3477 38.25,6.3207 0,39.496 c 5.86,-1.852 11.88,-2.774 17.28,-2.774 9.56,0 23.44,2.465 34.24,14.188 10.33,11.262 15.57,28.687 15.57,51.668 0,20.359 -3.85,35.785 -11.56,45.652 z m -31.78,-74.031 c -3.08,-5.859 -7.86,-8.945 -13.42,-8.945 -3.85,0 -7.24,0.769 -10.33,2.312 l 0,57.066 c 6.48,6.79 12.34,7.559 14.5,7.559 9.72,0 14.5,-10.488 14.5,-31 0,-11.723 -1.7,-20.82 -5.25,-26.992" /><path
           id="path38"
           style="fill:#3c4b5a;fill-opacity:1;fill-rule:nonzero;stroke:none"
           d="m 1102.68,269.816 c 11.11,0 20.06,9.098 20.06,20.204 0,11.257 -8.95,20.203 -20.06,20.203 -11.25,0 -20.2,-8.946 -20.2,-20.203 0,-11.106 8.95,-20.204 20.2,-20.204 z m -19.27,-9.691 38.4,0 0,-119.992 -38.4,0 0,119.992" /><path
           id="path40"
           style="fill:#3c4b5a;fill-opacity:1;fill-rule:nonzero;stroke:none"
           d="m 1063.15,261.785 c -10.79,0 -19.12,-5.668 -22.51,-15.847 l -2.32,14.187 -33.46,0 0,-119.992 38.25,0 0,77.887 c 4.78,5.863 11.25,7.984 20.51,7.984 2,0 4.16,0 6.78,-0.465 l 0,35.32 c -2.62,0.618 -4.93,0.926 -7.25,0.926" /><path
           id="path42"
           style="fill:#3c4b5a;fill-opacity:1;fill-rule:nonzero;stroke:none"
           d="m 987.297,230.184 4.625,29.941 -24.426,0 0,33.203 -32.844,-5.406 -4.742,-27.797 -11.551,-1.871 -4.324,-28.07 15.828,0 0,-54.114 c 0,-14.5 3.699,-24.523 11.258,-30.695 6.324,-5.09 15.426,-7.555 28.227,-7.555 9.871,0 15.882,1.696 20.047,2.774 l 0,30.078 c -2.313,-0.617 -7.555,-1.699 -11.102,-1.699 -7.559,0 -10.797,3.855 -10.797,12.648 l 0,48.563 19.801,0" /><path
           id="path44"
           style="fill:#3c4b5a;fill-opacity:1;fill-rule:nonzero;stroke:none"
           d="m 873.043,214.938 c -11.258,4.164 -17.43,7.402 -17.43,12.492 0,4.316 3.547,6.785 9.871,6.785 11.571,0 23.446,-4.473 31.621,-8.485 l 4.625,28.536 c -6.476,3.086 -19.742,8.175 -38.093,8.175 -12.957,0 -23.754,-3.394 -31.465,-9.718 -8.02,-6.633 -12.184,-16.196 -12.184,-27.762 0,-20.977 12.801,-29.922 33.621,-37.481 13.418,-4.781 17.891,-8.171 17.891,-13.418 0,-5.089 -4.316,-8.019 -12.184,-8.019 -9.714,0 -25.757,4.781 -36.246,10.949 l -4.625,-28.84 c 8.946,-5.09 25.602,-10.332 42.875,-10.332 13.727,0 25.141,3.239 32.856,9.407 8.636,6.789 13.105,16.812 13.105,29.765 0,21.442 -13.105,30.387 -34.238,37.946 l 0,0" /></g></g></g></svg>